<?xml version="1.0" encoding="UTF-8" standalone="no"?>
<!-- Created with Inkscape (http://www.inkscape.org/) -->

<svg
   xmlns:dc="http://purl.org/dc/elements/1.1/"
   xmlns:cc="http://creativecommons.org/ns#"
   xmlns:rdf="http://www.w3.org/1999/02/22-rdf-syntax-ns#"
   xmlns:svg="http://www.w3.org/2000/svg"
   xmlns="http://www.w3.org/2000/svg"
   xmlns:sodipodi="http://sodipodi.sourceforge.net/DTD/sodipodi-0.dtd"
   xmlns:inkscape="http://www.inkscape.org/namespaces/inkscape"
   width="1000.0001"
   height="185.3349"
   id="svg3875"
   version="1.1"
   inkscape:version="0.48.5 r10040"
   sodipodi:docname="New document 6">
  <defs
     id="defs3877" />
  <sodipodi:namedview
     id="base"
     pagecolor="#ffffff"
     bordercolor="#666666"
     borderopacity="1.0"
     inkscape:pageopacity="0.0"
     inkscape:pageshadow="2"
     inkscape:zoom="0.56601563"
     inkscape:cx="703.75344"
     inkscape:cy="-112.83329"
     inkscape:document-units="px"
     inkscape:current-layer="layer1"
     showgrid="false"
     fit-margin-left="0.5"
     fit-margin-bottom="0.5"
     fit-margin-top="0.5"
     fit-margin-right="0.5"
     inkscape:window-width="1059"
     inkscape:window-height="1025"
     inkscape:window-x="859"
     inkscape:window-y="-8"
     inkscape:window-maximized="0" />
  <metadata
     id="metadata3880">
    <rdf:RDF>
      <cc:Work
         rdf:about="">
        <dc:format>image/svg+xml</dc:format>
        <dc:type
           rdf:resource="http://purl.org/dc/dcmitype/StillImage" />
        <dc:title></dc:title>
      </cc:Work>
    </rdf:RDF>
  </metadata>
  <g
     inkscape:label="Layer 1"
     inkscape:groupmode="layer"
     id="layer1"
     transform="translate(-283.50615,-410.43868)">
    <g
       transform="matrix(4.2191115,0,0,4.2191115,-384.028,-1510.8399)"
       style="font-size:40px;font-style:normal;font-weight:normal;line-height:125%;letter-spacing:0px;word-spacing:0px;fill:#63666A;fill-opacity:1;stroke:none;font-family:Sans"
       id="flowRoot2998">
      <path
         d="m 304.19214,488.95609 0,-28.64014 3.68042,0 9.95972,17.44019 0.15991,0 9.95971,-17.44019 3.68042,0 0,28.64014 -3.68042,0 0,-16.99951 0.16114,-4.80103 -0.16114,0 -8.95996,15.72022 -2.15942,0 -8.95996,-15.72022 -0.15991,0 0.15991,4.80103 0,16.99951 z"
         style="font-variant:normal;font-stretch:normal;fill:#63666A;font-family:Product Sans;-inkscape-font-specification:Product Sans"
         id="path3911"
         inkscape:connector-curvature="0" />
      <path
         d="m 342.95557,489.59574 c -2.08009,0 -3.82,-0.59998 -5.21973,-1.79993 -1.39974,-1.19995 -2.09961,-2.78666 -2.09961,-4.76013 0,-2.13297 0.82662,-3.80614 2.47986,-5.01953 1.65323,-1.21337 3.69323,-1.82006 6.11999,-1.82007 2.15982,1e-5 3.9331,0.4 5.31983,1.19995 l 0,-0.5603 c -2e-5,-1.4396 -0.49338,-2.59276 -1.4801,-3.45947 -0.98675,-0.86669 -2.20033,-1.30004 -3.64075,-1.30005 -1.06609,10e-6 -2.03248,0.25331 -2.89917,0.75988 -0.86671,0.50661 -1.45997,1.19977 -1.77979,2.07947 l -3.36059,-1.43921 c 0.45328,-1.17348 1.34663,-2.26031 2.68005,-3.2605 1.33341,-1.00014 3.09346,-1.50022 5.28015,-1.50024 2.5065,2e-5 4.58637,0.73346 6.23963,2.20032 1.65322,1.46689 2.47984,3.53374 2.47986,6.20056 l 0,11.8396 -3.51929,0 0,-2.71973 -0.15991,0 c -1.4673,2.23959 -3.61411,3.35938 -6.44043,3.35938 z m 0.60058,-3.35938 c 1.51936,1e-5 2.89916,-0.56681 4.13941,-1.70044 1.24022,-1.13362 1.86033,-2.47354 1.86035,-4.01977 -1.04005,-0.85367 -2.60011,-1.28051 -4.68018,-1.28052 -1.78712,10e-6 -3.13396,0.38677 -4.04052,1.16028 -0.90659,0.77353 -1.35987,1.6803 -1.35987,2.72034 0,0.96029 0.41341,1.72038 1.24024,2.28027 0.82681,0.5599 1.77367,0.83985 2.84057,0.83984 z"
         style="font-variant:normal;font-stretch:normal;fill:#63666A;font-family:Product Sans;-inkscape-font-specification:Product Sans"
         id="path3913"
         inkscape:connector-curvature="0" />
      <path
         d="m 367.42456,489.59574 c -1.49334,0 -2.83346,-0.32003 -4.02039,-0.96009 -1.18693,-0.64005 -2.07337,-1.43981 -2.6593,-2.39929 l -0.15991,0 0.15991,2.71973 0,8.64014 -3.68042,0 0,-28.23975 3.52051,0 0,2.71973 0.15991,0 c 0.58593,-0.96027 1.47237,-1.76044 2.6593,-2.40052 1.18693,-0.64003 2.52705,-0.96006 4.02039,-0.96008 2.53335,2e-5 4.72004,1.00018 6.56006,3.00049 1.83998,2.00034 2.75999,4.4804 2.76001,7.44018 -2e-5,2.95981 -0.92003,5.43967 -2.76001,7.43958 -1.84002,1.99992 -4.02671,2.99988 -6.56006,2.99988 z m -0.60059,-3.35938 c 1.70653,1e-5 3.17321,-0.64676 4.40003,-1.9403 1.22679,-1.29354 1.84019,-3.007 1.84021,-5.14039 -2e-5,-2.13337 -0.61342,-3.84662 -1.84021,-5.13977 -1.22682,-1.29311 -2.6935,-1.93968 -4.40003,-1.93969 -1.7334,10e-6 -3.20659,0.64007 -4.41955,1.92016 -1.21298,1.28013 -1.81946,3.0001 -1.81946,5.15991 0,2.15984 0.60648,3.87981 1.81946,5.15992 1.21296,1.28011 2.68615,1.92017 4.41955,1.92016 z"
         style="font-variant:normal;font-stretch:normal;fill:#63666A;font-family:Product Sans;-inkscape-font-specification:Product Sans"
         id="path3915"
         inkscape:connector-curvature="0" />
      <path
         d="m 387.39526,489.59574 c -2.18669,0 -3.99333,-0.53325 -5.41992,-1.59973 -1.4266,-1.06649 -2.47355,-2.3997 -3.14087,-3.99964 l 3.28003,-1.35986 c 1.04004,2.4528 2.81372,3.6792 5.32105,3.6792 1.14663,0 2.08657,-0.25329 2.81982,-0.75989 0.73322,-0.50659 1.09984,-1.17329 1.09985,-2.00012 -10e-6,-1.28011 -0.89356,-2.1468 -2.68066,-2.6001 l -3.95996,-0.95947 c -1.25326,-0.31982 -2.43978,-0.92651 -3.55957,-1.82007 -1.11979,-0.89354 -1.67969,-2.1 -1.67969,-3.61938 0,-1.73339 0.7666,-3.14025 2.29981,-4.22059 1.53319,-1.0803 3.35326,-1.62046 5.4602,-1.62048 1.73339,2e-5 3.28002,0.39349 4.63989,1.18042 1.35985,0.78697 2.33316,1.91367 2.91993,3.38013 l -3.20069,1.31958 c -0.71941,-1.73338 -2.21274,-2.60008 -4.47998,-2.6001 -1.09294,2e-5 -2.01274,0.22666 -2.7594,0.67993 -0.74667,0.45331 -1.12,1.06691 -1.11999,1.84082 -1e-5,1.11981 0.86669,1.8799 2.6001,2.28028 l 3.87939,0.91918 c 1.83999,0.42645 3.20006,1.15968 4.0802,2.19971 0.88011,1.04005 1.32017,2.21355 1.32019,3.52051 -2e-5,1.76026 -0.72003,3.22693 -2.16003,4.40002 -1.44004,1.1731 -3.29327,1.75965 -5.5597,1.75965 z"
         style="font-variant:normal;font-stretch:normal;fill:#63666A;font-family:Product Sans;-inkscape-font-specification:Product Sans"
         id="path3917"
         inkscape:connector-curvature="0" />
    </g>
    <g
       id="g3062"
       transform="matrix(7.6935975,0,0,7.6935975,-2331.817,-2373.8034)">
      <path
         style="fill:#4285F4;fill-opacity:1;stroke:none"
         d="m 357.96512,370.4171 -8.52682,0 0,2.53021 6.04721,0 c -0.29874,3.54804 -3.25059,5.06113 -6.03698,5.06113 -3.56489,0 -6.6756,-2.80484 -6.6756,-6.7362 0,-3.82971 2.96532,-6.77913 6.68347,-6.77913 2.8686,0 4.55892,1.82868 4.55892,1.82868 l 1.7716,-1.83459 c 0,0 -2.2739,-2.53142 -6.42107,-2.53142 -5.28042,0 -9.36585,4.45711 -9.36585,9.27137 0,4.71742 3.84306,9.31763 9.50069,9.31763 4.97621,0 8.61883,-3.4089 8.61883,-8.44955 0,-1.06348 -0.1544,-1.67813 -0.1544,-1.67813 z"
         id="path3064"
         inkscape:connector-curvature="0"
         sodipodi:nodetypes="cccccccccccccc" />
      <path
         style="fill:#EA4335;fill-opacity:1;stroke:none"
         d="m 364.95009,368.58492 c -3.49872,0 -6.00609,2.73528 -6.00609,5.92545 0,3.23733 2.43201,6.02348 6.0472,6.02348 3.27274,0 5.95391,-2.50141 5.95391,-5.9539 0,-3.95705 -3.11882,-5.99503 -5.99502,-5.99503 z m 0.0348,2.34678 c 1.72058,0 3.35095,1.39099 3.35095,3.63243 0,2.1939 -1.62352,3.62453 -3.35886,3.62453 -1.9068,0 -3.41104,-1.52715 -3.41104,-3.64192 0,-2.06942 1.48559,-3.61504 3.41895,-3.61504 z"
         id="path3066"
         inkscape:connector-curvature="0" />
      <path
         id="path3068"
         d="m 378.01303,368.58492 c -3.49872,0 -6.00609,2.73528 -6.00609,5.92545 0,3.23733 2.43201,6.02348 6.0472,6.02348 3.27274,0 5.95391,-2.50141 5.95391,-5.9539 0,-3.95705 -3.11883,-5.99503 -5.99502,-5.99503 z m 0.0348,2.34678 c 1.72058,0 3.35095,1.39099 3.35095,3.63243 0,2.1939 -1.62352,3.62453 -3.35886,3.62453 -1.9068,0 -3.41104,-1.52715 -3.41104,-3.64192 0,-2.06942 1.48559,-3.61504 3.41895,-3.61504 z"
         style="fill:#FBBC05;fill-opacity:1;stroke:none"
         inkscape:connector-curvature="0" />
      <path
         style="fill:#4285F4;fill-opacity:1;stroke:none"
         d="m 390.82468,368.59125 c -3.21144,0 -5.73568,2.81273 -5.73568,5.96972 0,3.59611 2.9265,5.98079 5.68033,5.98079 1.70277,0 2.60819,-0.67591 3.27662,-1.45171 l 0,1.17813 c 0,2.06127 -1.25157,3.2956 -3.14062,3.2956 -1.82493,0 -2.74031,-1.35696 -3.0584,-2.12696 l -2.29617,0.9599 c 0.8146,1.72235 2.45434,3.51858 5.37354,3.51858 3.19295,0 5.62656,-2.01118 5.62656,-6.22907 l 0,-10.73601 -2.50491,0 0,1.01209 c -0.76968,-0.82992 -1.82291,-1.37106 -3.22127,-1.37106 z m 0.23246,2.34203 c 1.57451,0 3.19123,1.34439 3.19123,3.64034 0,2.33363 -1.61328,3.61979 -3.22602,3.61979 -1.71208,0 -3.30509,-1.39018 -3.30509,-3.59765 0,-2.29376 1.65449,-3.66248 3.33988,-3.66248 z"
         id="path3070"
         inkscape:connector-curvature="0" />
      <path
         style="fill:#EA4335;fill-opacity:1;stroke:none"
         d="m 407.68855,368.57702 c -3.02931,0 -5.5728,2.41015 -5.5728,5.96656 0,3.76313 2.83511,5.99502 5.86377,5.99502 2.5278,0 4.07924,-1.38289 5.00508,-2.62194 l -2.06529,-1.37422 c -0.53593,0.83172 -1.43188,1.64464 -2.92714,1.64464 -1.6796,0 -2.45186,-0.9197 -2.9303,-1.81068 l 8.01128,-3.32407 -0.4159,-0.97413 c -0.77424,-1.90772 -2.57972,-3.50118 -4.9687,-3.50118 z m 0.10436,2.29775 c 1.09158,0 1.87716,0.58035 2.21078,1.27617 l -5.34982,2.23608 c -0.23064,-1.73119 1.40943,-3.51225 3.13904,-3.51225 z"
         id="path3072"
         inkscape:connector-curvature="0" />
      <path
         style="fill:#34A853;fill-opacity:1;stroke:none"
         d="m 398.29671,380.18372 2.63142,0 0,-17.61028 -2.63142,0 z"
         id="path3074"
         inkscape:connector-curvature="0" />
    </g>
  </g>
</svg>
