<?xml version="1.0" encoding="utf-8"?>
<!-- Generator: Adobe Illustrator 21.0.0, SVG Export Plug-In . SVG Version: 6.00 Build 0)  -->
<svg version="1.1" id="Capa_1" xmlns="http://www.w3.org/2000/svg" xmlns:xlink="http://www.w3.org/1999/xlink" x="0px" y="0px"
	 viewBox="0 0 408 73.7" style="enable-background:new 0 0 408 73.7;" xml:space="preserve">
<style type="text/css">
	.st0{fill:none;}
	.st1{fill:#03a9f4;}
	.st2{opacity:0.7;fill:#03a9f4;enable-background:new    ;}
	.st3{opacity:0.5;fill:#03a9f4;enable-background:new    ;}
	.st4{enable-background:new    ;}
</style>
<title>logo-gaolos-2016</title>
<line class="st0" x1="104.1" y1="15" x2="104.1" y2="0.4"/>
<rect x="84" y="7.3" class="st1" width="17" height="17"/>
<rect x="93.7" y="28" class="st1" width="12.5" height="12.5"/>
<line class="st0" x1="132.2" y1="29.5" x2="119.7" y2="29.5"/>
<rect x="110.3" y="31.7" class="st2" width="9.9" height="9.9"/>
<line class="st0" x1="130.6" y1="0" x2="139.9" y2="0"/>
<rect x="85.6" y="43.8" class="st1" width="13.3" height="13.3"/>
<line class="st0" x1="105.6" y1="73.2" x2="93" y2="73.2"/>
<rect x="124" y="35.7" class="st3" width="12.5" height="12.5"/>
<rect x="110" y="49.7" class="st3" width="9.3" height="9.3"/>
<rect x="138" y="22.7" class="st3" width="9.3" height="9.3"/>
<path class="st1" d="M40.6,26.1h-1c-10.5,0-19.7,6.9-22.8,16.9c-0.5,0-0.9-0.1-1.4-0.1c-8.5,0.2-15.2,7.3-15,15.8
	c0.2,8.2,6.8,14.8,15,15h64.4V3.8C64.4-1.8,47.5,6,41.9,21.3C41.3,22.9,40.9,24.5,40.6,26.1z"/>
<g class="st4">
	<path class="st1" d="M184.7,56.1c-12.5,0-18.8-6.9-18.8-20.6v-0.2c0-13.7,6.3-20.5,18.8-20.5h15V22h-16.9c-3.3,0-5.7,1.1-7.4,3.2
		c-1.6,2.2-2.4,5.6-2.4,10.3c0,8.9,3.2,13.4,9.7,13.4h8.6c0.6,0,1.2-0.1,1.7-0.4c0.6-0.3,1-0.6,1.4-1.1c0.4-0.5,0.7-1,1-1.6
		c0.2-0.6,0.4-1.2,0.4-1.9c0-1.3-0.4-2.5-1.3-3.5c-0.8-1-1.9-1.5-3.2-1.5h-6.5v-7.3h6.9c1.6,0,3.1,0.3,4.5,0.9
		c1.4,0.6,2.6,1.5,3.6,2.6c1,1.1,1.8,2.4,2.4,4c0.6,1.5,0.9,3.2,0.9,5c0,1.5-0.3,3-0.9,4.4c-0.6,1.4-1.5,2.7-2.5,3.8
		c-1.1,1.1-2.3,2-3.7,2.7c-1.4,0.7-2.8,1-4.4,1H184.7z"/>
</g>
<g class="st4">
	<path class="st1" d="M238.3,56.1l-11.6-32.9c-0.3-0.8-0.8-1.1-1.6-1.1c-0.8,0-1.3,0.4-1.6,1.1l-11.6,32.9h-7.7l12.8-36
		c0.6-1.8,1.7-3.1,3.1-4c1.4-0.9,3.1-1.3,5-1.3s3.6,0.4,5,1.3c1.4,0.9,2.4,2.2,3.1,4l12.8,36H238.3z"/>
</g>
<g class="st4">
	<path class="st1" d="M267.4,14.7c12.4,0,18.7,6.8,18.8,20.5v0.2c0,13.8-6.3,20.6-18.8,20.6h-3.2c-12.5,0-18.8-6.9-18.8-20.6v-0.2
		c0-13.7,6.3-20.5,18.8-20.5H267.4z M262.4,22c-3.3,0-5.7,1.1-7.3,3.2s-2.4,5.6-2.4,10.3c0,8.9,3.2,13.4,9.7,13.4h7
		c6.5,0,9.7-4.5,9.7-13.4c0-4.7-0.8-8.1-2.5-10.3c-1.6-2.2-4.1-3.2-7.3-3.2H262.4z"/>
</g>
<g class="st4">
	<path class="st1" d="M309.9,56.1c-3,0-5.7-0.4-8-1.3s-4.2-2-5.7-3.6c-1.5-1.6-2.7-3.4-3.4-5.6c-0.8-2.2-1.1-4.7-1.1-7.4V14.7h7.3
		v23.5c0,3.4,0.9,6,2.8,7.8c1.9,1.9,4.5,2.8,8,2.8h12.6v7.2H309.9z"/>
</g>
<g class="st4">
	<path class="st1" d="M345.7,14.7c12.4,0,18.7,6.8,18.8,20.5v0.2c0,13.8-6.3,20.6-18.8,20.6h-3.2c-12.5,0-18.8-6.9-18.8-20.6v-0.2
		c0-13.7,6.3-20.5,18.8-20.5H345.7z M340.7,22c-3.3,0-5.7,1.1-7.4,3.2c-1.6,2.2-2.4,5.6-2.4,10.3c0,8.9,3.2,13.4,9.7,13.4h7
		c6.5,0,9.7-4.5,9.7-13.4c0-4.7-0.8-8.1-2.5-10.3c-1.6-2.2-4.1-3.2-7.3-3.2H340.7z"/>
	<path class="st1" d="M405.7,44c0,4-1.2,7-3.5,9c-2.3,2-5.5,3-9.6,3h-21.2v-7.2H394c1.3,0,2.3-0.5,3.2-1.5c0.8-1,1.3-2.2,1.3-3.6
		c0-1.3-0.4-2.5-1.3-3.5c-0.8-1-1.9-1.5-3.2-1.5h-11.6c-2.4,0-4.4-0.4-6.1-1.1c-1.7-0.7-3-1.7-4-2.8c-1-1.2-1.8-2.5-2.2-3.9
		s-0.7-2.8-0.7-4.2c0-1.7,0.2-3.2,0.7-4.7c0.5-1.5,1.3-2.8,2.3-3.9c1.1-1.1,2.4-2,4-2.6c1.6-0.6,3.6-1,5.9-1H403V22h-21.8
		c-0.6,0-1.2,0.1-1.8,0.4c-0.6,0.3-1,0.6-1.5,1.1c-0.4,0.4-0.8,1-1,1.5c-0.3,0.6-0.4,1.2-0.4,1.8c0,1.4,0.5,2.5,1.4,3.5
		c0.9,0.9,2,1.4,3.4,1.4h11.5c4,0,7.2,1,9.5,3c2.3,2,3.5,5,3.5,9V44z"/>
</g>
</svg>
