<?xml version="1.0" encoding="utf-8"?>
<!-- Generator: Adobe Illustrator 21.0.2, SVG Export Plug-In . SVG Version: 6.00 Build 0)  -->
<svg version="1.1" id="Capa_1" xmlns="http://www.w3.org/2000/svg" xmlns:xlink="http://www.w3.org/1999/xlink" x="0px" y="0px"
	 viewBox="0 0 242.3 44.5" style="enable-background:new 0 0 242.3 44.5;" xml:space="preserve">
<style type="text/css">
	.st0{enable-background:new    ;}
	.st1{fill:#FFFFFF;}
</style>
<title>logo-gaolos-2016</title>
<g class="st0">
	<path class="st1" d="M19.9,43.2c-12.5,0-18.8-6.9-18.8-20.6v-0.2C1.1,8.7,7.4,1.9,19.9,1.9h15v7.2H18.1c-3.3,0-5.7,1.1-7.4,3.2
		c-1.6,2.2-2.4,5.6-2.4,10.3C8.3,31.5,11.5,36,18,36h8.6c0.6,0,1.2-0.1,1.7-0.4c0.6-0.3,1-0.6,1.4-1.1s0.7-1,1-1.6
		c0.2-0.6,0.4-1.2,0.4-1.9c0-1.3-0.4-2.5-1.3-3.5c-0.8-1-1.9-1.5-3.2-1.5h-6.5v-7.3h6.9c1.6,0,3.1,0.3,4.5,0.9
		c1.4,0.6,2.6,1.5,3.6,2.6s1.8,2.4,2.4,4c0.6,1.5,0.9,3.2,0.9,5c0,1.5-0.3,3-0.9,4.4c-0.6,1.4-1.5,2.7-2.5,3.8
		c-1.1,1.1-2.3,2-3.7,2.7s-2.8,1-4.4,1L19.9,43.2L19.9,43.2z"/>
</g>
<g class="st0">
	<path class="st1" d="M73.6,43.2L61.9,10.3c-0.3-0.8-0.8-1.1-1.6-1.1s-1.3,0.4-1.6,1.1L47.1,43.2h-7.7l12.8-36
		c0.6-1.8,1.7-3.1,3.1-4c1.4-0.9,3.1-1.3,5-1.3s3.6,0.4,5,1.3c1.4,0.9,2.4,2.2,3.1,4l12.8,36H73.6z"/>
</g>
<g class="st0">
	<path class="st1" d="M102.6,1.8c12.4,0,18.7,6.8,18.8,20.5v0.2c0,13.8-6.3,20.6-18.8,20.6h-3.2c-12.5,0-18.8-6.9-18.8-20.6v-0.2
		c0-13.7,6.3-20.5,18.8-20.5C99.4,1.8,102.6,1.8,102.6,1.8z M97.6,9.1c-3.3,0-5.7,1.1-7.3,3.2s-2.4,5.6-2.4,10.3
		c0,8.9,3.2,13.4,9.7,13.4h7c6.5,0,9.7-4.5,9.7-13.4c0-4.7-0.8-8.1-2.5-10.3c-1.6-2.2-4.1-3.2-7.3-3.2H97.6z"/>
</g>
<g class="st0">
	<path class="st1" d="M145.1,43.2c-3,0-5.7-0.4-8-1.3s-4.2-2-5.7-3.6s-2.7-3.4-3.4-5.6c-0.8-2.2-1.1-4.7-1.1-7.4V1.8h7.3v23.5
		c0,3.4,0.9,6,2.8,7.8c1.9,1.9,4.5,2.8,8,2.8h12.6v7.2L145.1,43.2L145.1,43.2z"/>
</g>
<g class="st0">
	<path class="st1" d="M181,1.8c12.4,0,18.7,6.8,18.8,20.5v0.2c0,13.8-6.3,20.6-18.8,20.6h-3.2c-12.5,0-18.8-6.9-18.8-20.6v-0.2
		c0-13.7,6.3-20.5,18.8-20.5C177.8,1.8,181,1.8,181,1.8z M176,9.1c-3.3,0-5.7,1.1-7.4,3.2c-1.6,2.2-2.4,5.6-2.4,10.3
		c0,8.9,3.2,13.4,9.7,13.4h7c6.5,0,9.7-4.5,9.7-13.4c0-4.7-0.8-8.1-2.5-10.3c-1.6-2.2-4.1-3.2-7.3-3.2H176z"/>
	<path class="st1" d="M241,31.1c0,4-1.2,7-3.5,9s-5.5,3-9.6,3h-21.2v-7.2h22.6c1.3,0,2.3-0.5,3.2-1.5c0.8-1,1.3-2.2,1.3-3.6
		c0-1.3-0.4-2.5-1.3-3.5c-0.8-1-1.9-1.5-3.2-1.5h-11.6c-2.4,0-4.4-0.4-6.1-1.1c-1.7-0.7-3-1.7-4-2.8c-1-1.2-1.8-2.5-2.2-3.9
		s-0.7-2.8-0.7-4.2c0-1.7,0.2-3.2,0.7-4.7s1.3-2.8,2.3-3.9c1.1-1.1,2.4-2,4-2.6s3.6-1,5.9-1h20.7v7.5h-21.8c-0.6,0-1.2,0.1-1.8,0.4
		c-0.6,0.3-1,0.6-1.5,1.1c-0.4,0.4-0.8,1-1,1.5c-0.3,0.6-0.4,1.2-0.4,1.8c0,1.4,0.5,2.5,1.4,3.5c0.9,0.9,2,1.4,3.4,1.4h11.5
		c4,0,7.2,1,9.5,3s3.5,5,3.5,9v0.3H241z"/>
</g>
</svg>
