<?xml version="1.0" encoding="iso-8859-1"?>
<!-- Generator: Adobe Illustrator 19.0.0, SVG Export Plug-In . SVG Version: 6.00 Build 0)  -->
<svg xmlns="http://www.w3.org/2000/svg" xmlns:xlink="http://www.w3.org/1999/xlink" version="1.1" id="Layer_1" x="0px" y="0px" viewBox="0 0 512 512" style="enable-background:new 0 0 512 512;" xml:space="preserve">
<g>
	<polygon style="fill:#F3F3F3;" points="315.733,59.733 346.667,0 412.8,0 412.8,59.733  "/>
	<path style="fill:#F3F3F3;" d="M379.733,0H33.067C14.933,0,0,14.933,0,33.067v445.867C0,497.067,14.933,512,33.067,512h313.6   c18.133,0,33.067-14.933,33.067-33.067V0z"/>
</g>
<rect x="42.667" y="42.667" style="fill:#55C0EB;" width="294.4" height="21.333"/>
<g>
	<rect x="42.667" y="100.267" style="fill:#CED6E0;" width="294.4" height="21.333"/>
	<rect x="42.667" y="158.933" style="fill:#CED6E0;" width="189.867" height="21.333"/>
</g>
<g>
	<polygon style="fill:#E8EAE9;" points="412.8,244.267 478.933,244.267 478.933,195.2 397.867,195.2  "/>
	<path style="fill:#E8EAE9;" d="M445.867,244.267h-66.133v-211.2C379.733,14.933,394.667,0,412.8,0l0,0   c18.133,0,33.067,14.933,33.067,33.067V244.267z"/>
</g>
<path style="fill:#CED6E0;" d="M445.867,82.133V211.2c0,18.133,14.933,33.067,33.067,33.067S512,229.333,512,211.2V82.133H445.867z"/>
<path style="fill:#F3705A;" d="M325.333,270.933l-44.8-39.467c-3.2-3.2-8.533-2.133-11.733,1.067c-3.2,3.2-2.133,8.533,1.067,11.733  l29.867,26.667c-103.467,12.8-190.933,86.4-220.8,187.733c-1.067,4.267,1.067,8.533,5.333,9.6c4.267,1.067,8.533-1.067,9.6-5.333  c28.8-94.933,109.867-164.267,208-177.067L275.2,315.733c-3.2,3.2-2.133,8.533,1.067,11.733l0,0c3.2,3.2,8.533,2.133,11.733-1.067  l39.467-44.8C329.6,279.467,328.533,274.133,325.333,270.933z"/>
<g>
	<path style="fill:#415A6B;" d="M304,362.667L304,362.667c-3.2-3.2-8.533-3.2-11.733,0l-14.933,16l-16-16   c-3.2-3.2-8.533-3.2-11.733,0l0,0c-3.2,3.2-3.2,8.533,0,11.733l16,16l-14.933,14.933c-3.2,3.2-3.2,8.533,0,11.733l0,0   c3.2,3.2,8.533,3.2,11.733,0l16-16l16,16c3.2,3.2,8.533,3.2,11.733,0l0,0c3.2-3.2,3.2-8.533,0-11.733l-16-16l16-16   C307.2,371.2,307.2,365.867,304,362.667z"/>
	<path style="fill:#415A6B;" d="M96,347.733c3.2,3.2,8.533,3.2,11.733,0l0,0c3.2-3.2,3.2-8.533,0-11.733l-16-16l16-16   c3.2-3.2,3.2-8.533,0-11.733l0,0c-3.2-3.2-8.533-3.2-11.733,0l-14.933,17.067l-16-16c-3.2-3.2-8.533-3.2-11.733,0l0,0   c-3.2,3.2-3.2,8.533,0,11.733l16,16l-16,14.933c-3.2,3.2-3.2,8.533,0,11.733l0,0c3.2,3.2,8.533,3.2,11.733,0l16-16L96,347.733z"/>
</g>
<g>
	<path style="fill:#F3705A;" d="M160,293.333c18.133,0,33.067-14.933,33.067-33.067c0-18.133-14.933-33.067-33.067-33.067   s-33.067,14.933-33.067,33.067C128,278.4,142.933,293.333,160,293.333z M160,244.267c9.6,0,17.067,7.467,17.067,17.067   S169.6,278.4,160,278.4s-17.067-7.467-17.067-17.067C144,251.733,151.467,244.267,160,244.267z"/>
	<path style="fill:#F3705A;" d="M177.067,403.2c-18.133,0-33.067,14.933-33.067,33.067s14.933,33.067,33.067,33.067   s33.067-14.933,33.067-33.067S195.2,403.2,177.067,403.2z M177.067,452.267c-9.6,0-17.067-7.467-17.067-17.067   s7.467-17.067,17.067-17.067c9.6,0,17.067,7.467,17.067,17.067S186.667,452.267,177.067,452.267z"/>
</g>
<g>
</g>
<g>
</g>
<g>
</g>
<g>
</g>
<g>
</g>
<g>
</g>
<g>
</g>
<g>
</g>
<g>
</g>
<g>
</g>
<g>
</g>
<g>
</g>
<g>
</g>
<g>
</g>
<g>
</g>
</svg>
