<?xml version="1.0" encoding="iso-8859-1"?>
<!-- Generator: Adobe Illustrator 19.0.0, SVG Export Plug-In . SVG Version: 6.00 Build 0)  -->
<svg xmlns="http://www.w3.org/2000/svg" xmlns:xlink="http://www.w3.org/1999/xlink" version="1.1" id="Layer_1" x="0px" y="0px" viewBox="0 0 510.933 510.933" style="enable-background:new 0 0 510.933 510.933;" xml:space="preserve">
<path style="fill:#E8EAE9;" d="M510.4,83.2c0,40.533-24.533,74.667-58.667,89.6v135.467h-80V172.8  c-34.133-14.933-58.667-50.133-58.667-89.6c0-35.2,18.133-66.133,45.867-83.2v80l52.267,29.867L463.467,80V0  C492.267,17.067,510.4,48,510.4,83.2z"/>
<path style="fill:#F7B64C;" d="M420.8,237.867c0,1.067,0,3.2,1.067,4.267C420.8,241.067,420.8,240,420.8,237.867z"/>
<path style="fill:#FFD15C;" d="M499.733,326.4c0,0,17.067-11.733,7.467-36.267c-10.667-28.8-19.2-28.8-19.2-28.8L485.867,288  L499.733,326.4z"/>
<path style="fill:#F7B64C;" d="M501.867,325.333c-1.067,1.067-2.133,1.067-2.133,1.067L485.867,288L488,260.267  c0,0,1.067,0,2.133,1.067L488,289.067L501.867,325.333z"/>
<path style="fill:#FFD15C;" d="M496.533,345.6l4.267-19.2L485.867,288L488,260.267c0,0,4.267-21.333-6.4-28.8  c-10.667-6.4-20.267-7.467-20.267-7.467l-83.2-6.4c0,0-36.267-9.6-65.067,29.867c-38.4,33.067-71.467,57.6-71.467,57.6  s-12.8,7.467-33.067,8.533c-13.867,1.067-185.6-3.2-208-1.067v184.533c16-2.133,202.667-22.4,220.8-13.867  c20.267,9.6,33.067,10.667,60.8,16c27.733,5.333,61.867,11.733,82.133,11.733l65.067-10.667c0,0,29.867,5.333,42.667-19.2  s10.667-34.133,10.667-34.133S497.6,406.4,488,395.733C488,395.733,502.933,378.667,496.533,345.6z"/>
<g>
	<path style="fill:#F3F3F3;" d="M378.133,305.067c0,0-7.467,8.533-5.333,20.267c0,0,1.067,4.267,3.2,5.333c2.133,1.067,0,0,0,0l0,0   c0,0,9.6,5.333,13.867,5.333c0,0-6.4-11.733-7.467-23.467C381.333,305.067,378.133,305.067,378.133,305.067z"/>
	<path style="fill:#F3F3F3;" d="M361.067,387.2c-1.067-2.133-13.867,2.133-12.8,12.8c1.067,9.6,3.2,11.733,3.2,11.733   C351.467,412.8,350.4,398.933,361.067,387.2z"/>
	<path style="fill:#F3F3F3;" d="M357.867,434.133c0,0,7.467,5.333,11.733,5.333c0,0-6.4,16-5.333,24.533l-9.6-5.333   c0,0-7.467-4.267-6.4-10.667C348.267,440.533,352.533,433.067,357.867,434.133z"/>
	<path style="fill:#F3F3F3;" d="M457.067,313.6c0,0-2.133-11.733,4.267-14.933c0,0,21.333-6.4,24.533-10.667l14.933,40.533   c0,0,4.267,12.8-6.4,16c-12.8,1.067-22.4-1.067-26.667-5.333C467.733,339.2,459.2,327.467,457.067,313.6z"/>
</g>
<g>
	<path style="fill:#F7B64C;" d="M426.133,267.733c0,0-3.2,5.333-5.333,11.733c-1.067,3.2-2.133,6.4-2.133,8.533c0,2.133,0,3.2,0,3.2   h-5.333c0,0,0-2.133,1.067-4.267c1.067-2.133,2.133-5.333,4.267-8.533C421.867,273.067,426.133,267.733,426.133,267.733z"/>
	<path style="fill:#F7B64C;" d="M403.733,290.133c0,0-1.067-2.133-2.133-5.333c-1.067-3.2-2.133-7.467-2.133-10.667   c0-4.267,1.067-8.533,2.133-10.667c1.067-3.2,2.133-4.267,2.133-4.267s-1.067,2.133-1.067,4.267c-1.067,3.2-1.067,6.4,0,10.667   c1.067,3.2,2.133,7.467,3.2,9.6c1.067,2.133,2.133,3.2,2.133,3.2L403.733,290.133z"/>
	<path style="fill:#F7B64C;" d="M393.067,296.533c0,0-1.067,0-1.067-1.067c-1.067,0-1.067-1.067-2.133-2.133   c-1.067-1.067-2.133-4.267-3.2-6.4c-2.133-4.267-2.133-8.533-2.133-8.533s2.133,4.267,4.267,7.467c1.067,2.133,3.2,3.2,4.267,4.267   c1.067,0,1.067,1.067,1.067,1.067l0,0L393.067,296.533z"/>
	<path style="fill:#F7B64C;" d="M224.533,336c0,0-1.067,9.6-1.067,23.467c0,13.867,0,33.067,1.067,52.267   c1.067,9.6,2.133,19.2,3.2,27.733C228.8,448,228.8,456.533,228.8,464c0,14.933-2.133,23.467-2.133,23.467s0-2.133,1.067-6.4   c0-4.267,0-10.667,0-17.067c0-7.467-1.067-14.933-2.133-24.533c-1.067-8.533-3.2-18.133-4.267-27.733   c-1.067-9.6-1.067-19.2-1.067-27.733s1.067-17.067,1.067-24.533C222.4,345.6,224.533,336,224.533,336z"/>
	<path style="fill:#F7B64C;" d="M200,411.733c0,0,1.067,4.267,3.2,9.6c2.133,6.4,4.267,13.867,5.333,22.4   c1.067,4.267,2.133,8.533,2.133,11.733c1.067,4.267,1.067,7.467,1.067,10.667c0,6.4,0,10.667,0,10.667s-1.067-4.267-2.133-10.667   c-1.067-3.2-1.067-6.4-2.133-10.667s-2.133-7.467-3.2-11.733c-2.133-8.533-3.2-16-4.267-22.4C201.067,416,200,411.733,200,411.733z   "/>
	<path style="fill:#F7B64C;" d="M348.267,398.933c0,0-12.8,6.4-25.6,8.533c-6.4,1.067-13.867,2.133-18.133,2.133   c-5.333,0-8.533-1.067-8.533-1.067s3.2,1.067,8.533,1.067c5.333,0,11.733-1.067,18.133-3.2c12.8-4.267,24.533-10.667,24.533-10.667   L348.267,398.933z"/>
	<path style="fill:#F7B64C;" d="M304.533,418.133c0,0,1.067-2.133,3.2-3.2c2.133-2.133,5.333-4.267,8.533-5.333   c6.4-3.2,13.867-4.267,13.867-4.267v1.067C321.6,408.533,312,411.733,304.533,418.133z"/>
	<path style="fill:#F7B64C;" d="M378.133,307.2h-1.067c-1.067,0-1.067-1.067-2.133-1.067c-1.067-1.067-3.2-3.2-4.267-5.333   c-2.133-4.267-2.133-7.467-2.133-7.467s2.133,3.2,4.267,6.4c1.067,1.067,3.2,2.133,4.267,2.133h1.067l0,0V307.2z"/>
	<path style="fill:#F7B64C;" d="M376,308.267c0,0-2.133,0-4.267,0s-6.4-1.067-8.533-3.2c-6.4-2.133-11.733-7.467-11.733-7.467   s5.333,3.2,11.733,5.333c3.2,1.067,6.4,1.067,8.533,1.067s4.267,0,4.267,0V308.267z"/>
	<path style="fill:#F7B64C;" d="M489.067,396.8c-2.133,2.133-5.333,3.2-8.533,4.267c-6.4,3.2-14.933,5.333-23.467,5.333   c-8.533,1.067-18.133,0-27.733,0c-9.6,0-18.133,1.067-27.733,0c-8.533,0-17.067-2.133-23.467-4.267   c-6.4-3.2-11.733-7.467-13.867-10.667c-1.067-1.067-2.133-3.2-3.2-4.267C360,386.133,360,386.133,360,386.133l2.133-1.067   c0,0,1.067,2.133,3.2,5.333c2.133,3.2,7.467,6.4,12.8,8.533c6.4,3.2,13.867,4.267,22.4,4.267s18.133-1.067,27.733,0   c9.6,0,18.133,1.067,27.733,1.067c8.533,0,17.067-2.133,22.4-4.267C483.733,398.933,485.867,396.8,489.067,396.8   C488,395.733,488,395.733,489.067,396.8C489.067,395.733,489.067,396.8,489.067,396.8z"/>
	<path style="fill:#F7B64C;" d="M483.733,444.8c0,1.067,0,1.067,0,1.067l0,0c-2.133,2.133-5.333,4.267-9.6,6.4   c-6.4,3.2-13.867,5.333-22.4,5.333c-8.533,1.067-18.133-1.067-26.667-3.2c-4.267-1.067-8.533-2.133-12.8-3.2   c-4.267-1.067-8.533-1.067-12.8-2.133c-8.533-1.067-16-4.267-22.4-6.4c-6.4-2.133-11.733-5.333-14.933-7.467   c-3.2-2.133-5.333-3.2-5.333-3.2l1.067-2.133c0,0,7.467,5.333,20.267,9.6c6.4,2.133,13.867,4.267,22.4,6.4   c4.267,1.067,8.533,1.067,12.8,2.133c4.267,1.067,8.533,2.133,12.8,3.2c8.533,2.133,18.133,4.267,25.6,4.267   c8.533,0,16-2.133,22.4-4.267C477.333,450.133,480.533,448,483.733,444.8z"/>
	<path style="fill:#F7B64C;" d="M372.8,327.467c5.333,4.267,10.667,7.467,17.067,7.467l0,0V336c3.2,4.267,6.4,8.533,11.733,10.667   c5.333,2.133,9.6,1.067,16,0c10.667-2.133,22.4-4.267,33.067-5.333v2.133c-10.667,3.2-22.4,5.333-33.067,7.467   c-3.2,0-5.333,1.067-8.533,1.067c-3.2,0-6.4-1.067-8.533-2.133c-5.333-2.133-9.6-6.4-12.8-11.733l1.067,1.067   C382.4,336,372.8,331.733,372.8,327.467z"/>
	<path style="fill:#F7B64C;" d="M496.533,348.8c-5.333,3.2-11.733,6.4-19.2,5.333c-5.333,0-10.667-2.133-14.933-4.267   c-4.267-2.133-8.533-5.333-12.8-8.533c-8.533-6.4-14.933-13.867-21.333-22.4c-3.2-4.267-5.333-8.533-7.467-13.867   c-2.133-4.267-4.267-9.6-5.333-13.867c0,0-1.067,0-2.133-1.067c-1.067,0-2.133,0-3.2,0c-2.133,0-3.2,0-5.333,1.067   c-4.267,1.067-7.467,2.133-10.667,4.267c-3.2,2.133-7.467,4.267-10.667,6.4c-1.067,1.067-3.2,2.133-4.267,4.267   c-1.067,1.067-1.067,1.067-2.133,2.133c0,1.067-1.067,2.133-1.067,2.133l-1.067,1.067c0,0,0,0,0,1.067v1.067   c0,1.067,0,1.067-1.067,2.133c0,2.133,0,3.2,0,5.333c0,3.2,0,7.467,1.067,10.667l0,0c-1.067,5.333-2.133,9.6-4.267,13.867   c-1.067,2.133-2.133,4.267-3.2,6.4c-1.067,2.133-2.133,3.2-3.2,5.333c-2.133,5.333-2.133,9.6-2.133,14.933c0,2.133,0,4.267,0,7.467   v3.2c0,1.067,0,2.133,1.067,3.2l1.067,2.133h-2.133c-2.133,0-5.333,1.067-7.467,2.133c-1.067,1.067-2.133,2.133-3.2,2.133   c-1.067,1.067-1.067,2.133-2.133,3.2c-1.067,2.133-1.067,5.333-1.067,8.533c0,2.133,1.067,5.333,3.2,7.467l0,0v1.067   c-1.067,6.4,1.067,13.867,5.333,19.2l1.067,2.133h-2.133c-4.267,1.067-7.467,4.267-7.467,8.533c0,1.067,0,2.133,0,3.2   s0,2.133,1.067,3.2c1.067,2.133,1.067,4.267,2.133,6.4c2.133,4.267,4.267,7.467,7.467,11.733l9.6,10.667   c5.333,4.267,11.733,7.467,17.067,9.6c6.4,2.133,12.8,4.267,19.2,6.4c6.4,2.133,12.8,3.2,20.267,5.333   c4.267,1.067,9.6,1.067,13.867,2.133c-6.4,1.067-11.733,0-11.733,0h-2.133H424c-6.4-1.067-13.867-3.2-20.267-5.333   c-6.4-2.133-12.8-4.267-20.267-6.4c-6.4-2.133-12.8-5.333-18.133-9.6l0,0l-9.6-10.667c-3.2-3.2-6.4-7.467-8.533-11.733   c-1.067-2.133-2.133-4.267-2.133-6.4c0-1.067-1.067-2.133-1.067-3.2s0-2.133,0-4.267c0-2.133,1.067-5.333,3.2-7.467   c1.067-1.067,3.2-2.133,4.267-3.2c-2.133-2.133-3.2-5.333-4.267-8.533c-1.067-3.2-1.067-7.467-1.067-10.667   c-2.133-2.133-3.2-5.333-3.2-8.533s0-6.4,1.067-9.6c0-1.067,1.067-3.2,2.133-4.267c1.067-1.067,2.133-2.133,3.2-3.2   c2.133-1.067,4.267-2.133,7.467-3.2c0-1.067,0-1.067,0-2.133v-3.2c0-2.133,0-5.333-1.067-7.467c0-5.333,0-9.6,1.067-14.933   c1.067-2.133,2.133-5.333,4.267-6.4c1.067-2.133,2.133-4.267,3.2-6.4c2.133-4.267,3.2-8.533,4.267-12.8l0,0   c0-3.2-1.067-7.467-1.067-10.667c0-2.133,0-4.267,0-5.333c0-1.067,0-2.133,1.067-3.2c0,0,0-1.067,1.067-1.067   c0,0,0-1.067,1.067-1.067l0,0c0-1.067,1.067-2.133,1.067-3.2c1.067-1.067,1.067-2.133,2.133-2.133c1.067-2.133,3.2-3.2,4.267-4.267   c3.2-2.133,7.467-4.267,10.667-6.4c3.2-2.133,7.467-3.2,11.733-4.267c2.133,0,4.267-1.067,6.4-1.067c1.067,0,2.133,0,3.2,0   s2.133,1.067,3.2,1.067l0,0l0,0c1.067,4.267,3.2,9.6,5.333,13.867s4.267,8.533,7.467,12.8c5.333,8.533,12.8,16,20.267,22.4   c4.267,3.2,8.533,6.4,12.8,8.533c4.267,3.2,8.533,4.267,13.867,4.267c6.4,0,12.8-2.133,18.133-5.333   C496.533,347.733,496.533,347.733,496.533,348.8z"/>
</g>
<path style="fill:#F3705A;" d="M250.133,142.933V105.6L212.8,96c-1.067-4.267-3.2-8.533-5.333-12.8l19.2-34.133l-25.6-25.6  l-34.133,19.2c-4.267-2.133-8.533-4.267-12.8-5.333L143.467,0h-37.333L95.467,37.333c-3.2,2.133-7.467,3.2-11.733,5.333L49.6,23.467  L24,50.133l19.2,34.133c-2.133,3.2-3.2,7.467-5.333,11.733L0.533,106.667V144l37.333,10.667c1.067,4.267,3.2,8.533,5.333,12.8  L24,201.6l25.6,25.6L83.733,208c4.267,2.133,8.533,4.267,12.8,5.333l10.667,37.333h37.333l10.667-37.333  c4.267-1.067,8.533-3.2,12.8-5.333l34.133,19.2l25.6-25.6l-19.2-34.133c2.133-4.267,4.267-8.533,5.333-12.8L250.133,142.933z   M125.333,165.333c-22.4,0-40.533-18.133-40.533-40.533s18.133-40.533,40.533-40.533s40.533,18.133,40.533,40.533  S147.733,165.333,125.333,165.333z"/>
<g>
</g>
<g>
</g>
<g>
</g>
<g>
</g>
<g>
</g>
<g>
</g>
<g>
</g>
<g>
</g>
<g>
</g>
<g>
</g>
<g>
</g>
<g>
</g>
<g>
</g>
<g>
</g>
<g>
</g>
</svg>
