<?xml version="1.0" encoding="iso-8859-1"?>
<!-- Generator: Adobe Illustrator 19.0.0, SVG Export Plug-In . SVG Version: 6.00 Build 0)  -->
<svg xmlns="http://www.w3.org/2000/svg" xmlns:xlink="http://www.w3.org/1999/xlink" version="1.1" id="Layer_1" x="0px" y="0px" viewBox="0 0 512 512" style="enable-background:new 0 0 512 512;" xml:space="preserve">
<g>
	<path style="fill:#415A6B;" d="M250.667,512c-7.467-51.2-20.267-54.4-20.267-54.4c-9.6,2.133-20.267,39.467-24.533,54.4H250.667z"/>
	<path style="fill:#415A6B;" d="M44.8,512c-4.267-14.933-14.933-52.267-24.533-54.4c0,0-12.8,3.2-20.267,54.4H44.8z"/>
</g>
<path style="fill:#344A5E;" d="M39.467,512H211.2c6.4-28.8,14.933-51.2,19.2-54.4l-57.6-26.667l-48,14.933l-48-14.933L19.2,457.6  C24.533,460.8,32,483.2,39.467,512z"/>
<polygon style="fill:#CED6E0;" points="152.533,512 153.6,436.267 124.8,445.867 96,437.333 97.067,512 "/>
<polygon style="fill:#F3705A;" points="107.733,512 141.867,512 133.333,475.733 141.867,461.867 124.8,445.867 108.8,461.867   117.333,475.733 "/>
<path style="fill:#E8EAE9;" d="M124.8,444.8c0,0,28.8-18.133,30.933-34.133l10.667,19.2L146.133,473.6L124.8,444.8z"/>
<polygon style="fill:#415A6B;" points="162.133,512 189.867,462.933 172.8,454.4 189.867,446.933 162.133,420.267 139.733,512 "/>
<path style="fill:#E8EAE9;" d="M124.8,444.8c0,0-28.8-18.133-30.933-34.133l-10.667,19.2l20.267,43.733L124.8,444.8z"/>
<polygon style="fill:#415A6B;" points="60.8,462.933 88.533,512 109.867,512 88.533,420.267 59.733,446.933 76.8,454.4 "/>
<path style="fill:#F7B64C;" d="M93.867,390.4v20.267C96,426.667,124.8,444.8,124.8,444.8s28.8-18.133,30.933-34.133V390.4H93.867z"/>
<g>
	<path style="fill:#FFD15C;" d="M179.2,371.2c-2.133,9.6-8.533,17.067-13.867,16s-7.467-9.6-5.333-19.2s8.533-17.067,13.867-16   C179.2,352,181.333,361.6,179.2,371.2z"/>
	<path style="fill:#FFD15C;" d="M70.4,371.2c2.133,9.6,8.533,17.067,13.867,16c5.333-1.067,7.467-9.6,5.333-19.2   s-7.467-17.067-12.8-16C71.467,353.067,69.333,361.6,70.4,371.2z"/>
</g>
<g>
	<path style="fill:#415A6B;" d="M124.8,346.667c0,26.667-7.467,44.8-21.333,44.8s-28.8-17.067-28.8-44.8   C74.667,320,85.333,297.6,99.2,297.6S124.8,320,124.8,346.667z"/>
	<ellipse style="fill:#415A6B;" cx="131.2" cy="341.333" rx="44.8" ry="53.333"/>
</g>
<path style="fill:#FFD15C;" d="M166.4,332.8c-2.133-5.333-8.533-7.467-12.8-4.267c-6.4,6.4-16,9.6-27.733,9.6  c-11.733,0-20.267-3.2-27.733-9.6c-4.267-4.267-11.733-2.133-12.8,4.267c-2.133,7.467-4.267,14.933-4.267,23.467  c-2.133,38.4,18.133,70.4,43.733,70.4s45.867-32,45.867-69.333C170.667,348.8,168.533,340.267,166.4,332.8z"/>
<path style="fill:#344A5E;" d="M512,512H261.333l5.333-30.933c2.133-14.933,11.733-26.667,25.6-32l45.867-18.133l48,14.933  l48-14.933L480,449.067c13.867,5.333,23.467,17.067,25.6,32L512,512z"/>
<polygon style="fill:#CED6E0;" points="414.933,512 416,436.267 387.2,445.867 358.4,437.333 359.467,512 "/>
<polygon style="fill:#F3705A;" points="370.133,512 404.267,512 394.667,475.733 403.2,461.867 387.2,445.867 370.133,461.867   378.667,475.733 "/>
<path style="fill:#F7B64C;" d="M356.267,390.4v20.267c2.133,16,30.933,34.133,30.933,34.133l30.933-34.133V390.4H356.267z"/>
<g>
	<path style="fill:#415A6B;" d="M388.267,346.667c0,26.667,7.467,44.8,21.333,44.8c13.867,0,28.8-17.067,28.8-44.8   c0-26.667-10.667-49.067-24.533-49.067C400,297.6,388.267,320,388.267,346.667z"/>
	<ellipse style="fill:#415A6B;" cx="381.867" cy="341.333" rx="44.8" ry="53.333"/>
</g>
<g>
	<path style="fill:#FFD15C;" d="M441.6,371.2c-2.133,9.6-8.533,17.067-13.867,16s-7.467-9.6-5.333-19.2   c2.133-9.6,8.533-17.067,13.867-16C440.533,352,443.733,361.6,441.6,371.2z"/>
	<path style="fill:#FFD15C;" d="M332.8,371.2c2.133,9.6,8.533,17.067,13.867,16c5.333-1.067,7.467-9.6,5.333-19.2   c-2.133-9.6-8.533-17.067-13.867-16C332.8,352,330.667,361.6,332.8,371.2z"/>
	<path style="fill:#FFD15C;" d="M402.133,327.467C393.6,337.067,380.8,342.4,364.8,342.4c-7.467,0-14.933-1.067-21.333-4.267   c-1.067,4.267-1.067,7.467-1.067,11.733c-1.067,41.6,18.133,76.8,44.8,76.8c26.667,0,45.867-35.2,45.867-76.8   c0-2.133,0-4.267,0-7.467C419.2,341.333,409.6,334.933,402.133,327.467z"/>
</g>
<polygon style="fill:#E8EAE9;" points="387.2,444.8 418.133,410.667 428.8,429.867 408.533,472.533 "/>
<polygon style="fill:#415A6B;" points="435.2,512 452.267,485.333 439.467,469.333 462.933,457.6 423.467,420.267 404.267,512 "/>
<polygon style="fill:#E8EAE9;" points="387.2,444.8 356.267,410.667 345.6,429.867 365.867,472.533 "/>
<polygon style="fill:#415A6B;" points="322.133,485.333 339.2,512 370.133,512 349.867,420.267 311.467,457.6 333.867,469.333 "/>
<path style="fill:#4EC0AA;" d="M421.333,229.333H90.667c-11.733,0-21.333-9.6-21.333-21.333V21.333C69.333,9.6,78.933,0,90.667,0  H422.4c11.733,0,21.333,9.6,21.333,21.333V208C442.667,219.733,433.067,229.333,421.333,229.333z"/>
<path style="fill:#FFFFFF;" d="M104.533,160V68.267c18.133,0,33.067-14.933,33.067-33.067h236.8  c0,18.133,14.933,33.067,33.067,33.067V160c-18.133,0-33.067,14.933-33.067,33.067H137.6C137.6,174.933,122.667,160,104.533,160z"/>
<g>
	<circle style="fill:#4EC0AA;" cx="151.467" cy="114.133" r="16"/>
	<circle style="fill:#4EC0AA;" cx="360.533" cy="114.133" r="16"/>
	<path style="fill:#4EC0AA;" d="M249.6,176v-10.667c-12.8-2.133-24.533-7.467-35.2-17.067l13.867-17.067   c7.467,6.4,14.933,10.667,21.333,12.8v-22.4c-10.667-2.133-18.133-6.4-22.4-10.667c-5.333-4.267-7.467-10.667-7.467-19.2   s3.2-14.933,8.533-21.333c5.333-5.333,12.8-8.533,21.333-9.6v-7.467h16V60.8c9.6,1.067,19.2,5.333,29.867,12.8l-11.733,17.067   c-6.4-4.267-11.733-7.467-17.067-8.533v21.333c10.667,3.2,18.133,6.4,23.467,10.667c5.333,4.267,7.467,11.733,7.467,19.2   c0,7.467-3.2,16-8.533,21.333c-5.333,5.333-12.8,8.533-22.4,9.6v10.667H249.6V176z M249.6,81.067c-4.267,2.133-6.4,4.267-6.4,8.533   s2.133,7.467,6.4,8.533V81.067z M273.067,135.467c0-2.133-1.067-4.267-2.133-5.333c-1.067-1.067-3.2-2.133-6.4-4.267V144   C270.933,142.933,273.067,139.733,273.067,135.467z"/>
</g>
<path style="fill:#415A6B;" d="M306.133,364.8L306.133,364.8c-3.2,3.2-9.6,3.2-12.8,0L256,327.467L218.667,364.8  c-3.2,3.2-9.6,3.2-12.8,0l0,0c-3.2-3.2-3.2-9.6,0-12.8l41.6-41.6v-58.667c0-5.333,4.267-9.6,9.6-9.6l0,0c5.333,0,9.6,4.267,9.6,9.6  V310.4l41.6,41.6C310.4,356.267,310.4,361.6,306.133,364.8z"/>
<g>
</g>
<g>
</g>
<g>
</g>
<g>
</g>
<g>
</g>
<g>
</g>
<g>
</g>
<g>
</g>
<g>
</g>
<g>
</g>
<g>
</g>
<g>
</g>
<g>
</g>
<g>
</g>
<g>
</g>
</svg>
