<?xml version="1.0" encoding="iso-8859-1"?>
<!-- Generator: Adobe Illustrator 19.0.0, SVG Export Plug-In . SVG Version: 6.00 Build 0)  -->
<svg xmlns="http://www.w3.org/2000/svg" xmlns:xlink="http://www.w3.org/1999/xlink" version="1.1" id="Layer_1" x="0px" y="0px" viewBox="0 0 512 512" style="enable-background:new 0 0 512 512;" xml:space="preserve">
<path style="fill:#FFD15C;" d="M332.267,376.533c8.533-19.2,20.267-37.333,34.133-53.333c25.6-27.733,39.467-65.067,38.4-106.667  c-3.2-76.8-66.133-140.8-142.933-144C175.467,68.267,104,137.6,104,221.867c0,38.4,13.867,73.6,38.4,99.2  c14.933,16,25.6,34.133,34.133,53.333h155.733V376.533z"/>
<path style="fill:#415A6B;" d="M208.533,484.267C218.133,501.333,235.2,512,255.467,512s37.333-10.667,46.933-27.733H208.533z"/>
<path style="fill:#CED6E0;" d="M334.4,468.267v-91.733H176.533v91.733c0,10.667,8.533,20.267,20.267,20.267h117.333  C324.8,487.467,334.4,478.933,334.4,468.267z"/>
<path style="fill:#F3F3F3;" d="M156.267,394.667L156.267,394.667c-1.067-9.6,6.4-17.067,14.933-18.133l166.4-13.867  c9.6-1.067,17.067,6.4,18.133,14.933l0,0L156.267,394.667z"/>
<path style="fill:#E8EAE9;" d="M355.733,377.6c1.067,9.6-6.4,17.067-14.933,18.133l-166.4,14.933  c-9.6,1.067-17.067-6.4-18.133-14.933"/>
<path style="fill:#F3F3F3;" d="M156.267,451.2L156.267,451.2c-1.067-9.6,6.4-17.067,14.933-18.133l166.4-14.933  c9.6-1.067,17.067,6.4,18.133,14.933l0,0L156.267,451.2z"/>
<path style="fill:#E8EAE9;" d="M355.733,433.067c1.067,9.6-6.4,17.067-14.933,18.133l-166.4,14.933  c-9.6,1.067-17.067-6.4-18.133-14.933"/>
<path style="fill:#FFFFFF;" d="M357.867,242.133v-33.067l-30.933-4.267c-1.067-5.333-3.2-9.6-6.4-13.867l18.133-25.6L315.2,141.867  L289.6,160l0,0c-4.267-2.133-9.6-4.267-13.867-6.4l-4.267-30.933H238.4l-4.267,30.933c-5.333,1.067-9.6,3.2-13.867,6.4l0,0  l-25.6-18.133L171.2,165.333l18.133,25.6c-2.133,4.267-4.267,9.6-6.4,13.867L152,209.067v33.067l30.933,4.267  c1.067,5.333,3.2,9.6,6.4,13.867l-18.133,25.6l23.467,23.467l25.6-18.133c4.267,2.133,9.6,4.267,13.867,6.4l4.267,30.933h33.067  l4.267-30.933c5.333-1.067,9.6-3.2,13.867-6.4l25.6,18.133l23.467-23.467l-18.133-25.6c2.133-4.267,4.267-9.6,6.4-13.867  L357.867,242.133z M255.467,258.133c-18.133,0-33.067-14.933-33.067-33.067S237.333,192,255.467,192s33.067,14.933,33.067,33.067  C288.533,243.2,273.6,258.133,255.467,258.133z"/>
<g>
	<path style="fill:#FFD15C;" d="M255.467,52.267L255.467,52.267c-7.467,0-12.8-5.333-12.8-12.8V12.8c0-7.467,5.333-12.8,12.8-12.8   l0,0c6.4,0,12.8,5.333,12.8,12.8v27.733C268.267,46.933,262.933,52.267,255.467,52.267z"/>
	<path style="fill:#FFD15C;" d="M170.133,74.667L170.133,74.667c-6.4,4.267-13.867,2.133-17.067-4.267L139.2,46.933   c-3.2-6.4-1.067-13.867,4.267-17.067h1.067c6.4-3.2,13.867-1.067,17.067,4.267L175.467,57.6   C177.6,64,176.533,71.467,170.133,74.667z"/>
	<path style="fill:#FFD15C;" d="M107.2,137.6L107.2,137.6c-4.267,6.4-11.733,8.533-17.067,5.333l-23.467-13.867   c-6.4-3.2-7.467-10.667-4.267-17.067v-1.067c3.2-6.4,10.667-7.467,17.067-4.267l23.467,13.867   C108.267,123.733,110.4,131.2,107.2,137.6z"/>
	<path style="fill:#FFD15C;" d="M83.733,222.933L83.733,222.933c0,7.467-5.333,12.8-12.8,12.8H44.267c-6.4,0-12.8-5.333-12.8-12.8   v-1.067c0-6.4,5.333-12.8,12.8-12.8H72C78.4,210.133,83.733,216.533,83.733,222.933z"/>
	<path style="fill:#FFD15C;" d="M107.2,308.267L107.2,308.267c4.267,6.4,2.133,13.867-4.267,17.067L79.467,339.2   c-6.4,3.2-13.867,1.067-17.067-4.267v-1.067c-3.2-6.4-1.067-13.867,4.267-17.067l23.467-13.867   C95.467,300.8,104,302.933,107.2,308.267z"/>
	<path style="fill:#FFD15C;" d="M403.733,309.333L403.733,309.333c4.267-6.4,11.733-8.533,17.067-5.333l23.467,13.867   c6.4,3.2,7.467,10.667,4.267,17.067V336c-3.2,6.4-10.667,7.467-17.067,4.267L408,326.4   C402.667,323.2,400.533,315.733,403.733,309.333z"/>
	<path style="fill:#FFD15C;" d="M427.2,224L427.2,224c0-7.467,5.333-12.8,12.8-12.8h27.733c6.4,0,12.8,5.333,12.8,12.8l0,0   c0,6.4-5.333,12.8-12.8,12.8H440C432.533,235.733,427.2,230.4,427.2,224z"/>
	<path style="fill:#FFD15C;" d="M403.733,137.6L403.733,137.6c-4.267-6.4-2.133-13.867,4.267-17.067l23.467-13.867   c6.4-3.2,13.867-1.067,17.067,4.267V112c3.2,6.4,1.067,13.867-4.267,17.067L420.8,142.933   C415.467,146.133,406.933,144,403.733,137.6z"/>
	<path style="fill:#FFD15C;" d="M341.867,74.667L341.867,74.667c-6.4-4.267-8.533-11.733-5.333-17.067L350.4,34.133   c3.2-6.4,10.667-7.467,17.067-4.267h1.067c6.4,3.2,7.467,10.667,4.267,17.067L358.933,70.4   C354.667,76.8,347.2,78.933,341.867,74.667z"/>
</g>
<g>
</g>
<g>
</g>
<g>
</g>
<g>
</g>
<g>
</g>
<g>
</g>
<g>
</g>
<g>
</g>
<g>
</g>
<g>
</g>
<g>
</g>
<g>
</g>
<g>
</g>
<g>
</g>
<g>
</g>
</svg>
