<?xml version="1.0" encoding="iso-8859-1"?>
<!-- Generator: Adobe Illustrator 19.0.0, SVG Export Plug-In . SVG Version: 6.00 Build 0)  -->
<svg xmlns="http://www.w3.org/2000/svg" xmlns:xlink="http://www.w3.org/1999/xlink" version="1.1" id="Layer_1" x="0px" y="0px" viewBox="0 0 513.067 513.067" style="enable-background:new 0 0 513.067 513.067;" xml:space="preserve">
<path style="fill:#415A6B;" d="M279.467,222.4l13.867-28.8L265.6,171.2c1.067-7.467,2.133-14.933,1.067-21.333l30.933-19.2  L286.933,100.8l-36.267,4.267c-5.333-7.467-9.6-12.8-16-18.133l7.467-35.2l-28.8-13.867L192,66.667  c-7.467-1.067-14.933-2.133-21.333-1.067l-19.2-30.933L121.6,45.333l4.267,36.267c-7.467,4.267-12.8,9.6-18.133,14.933l-35.2-7.467  l-13.867,28.8l28.8,22.4C86.4,147.733,85.333,155.2,86.4,161.6l-30.933,20.267l10.667,29.867l36.267-4.267  c4.267,6.4,8.533,11.733,14.933,16l-7.467,35.2l28.8,13.867l22.4-28.8c7.467,1.067,14.933,2.133,21.333,1.067l19.2,30.933  l29.867-10.667L227.2,228.8c5.333-4.267,11.733-8.533,16-14.933L279.467,222.4z M160,189.333  c-19.2-8.533-26.667-30.933-18.133-50.133C150.4,120,172.8,112.533,192,121.067S218.667,152,210.133,171.2  C201.6,190.4,179.2,197.867,160,189.333z"/>
<path style="fill:#F3705A;" d="M420.267,156.267l16-14.933l-12.8-22.4c3.2-4.267,5.333-8.533,6.4-13.867l24.533-5.333l1.067-22.4  l-24.533-6.4c-1.067-5.333-3.2-9.6-5.333-13.867l13.867-21.333l-14.933-16l-21.333,12.8c-4.267-3.2-8.533-5.333-13.867-6.4L384,1.6  l-21.333-1.067l-6.4,24.533c-5.333,1.067-9.6,3.2-13.867,5.333l-21.333-13.867l-16,14.933l11.733,22.4  c-3.2,4.267-5.333,8.533-6.4,13.867l-24.533,5.333l-1.067,22.4l24.533,5.333c1.067,5.333,3.2,9.6,5.333,13.867L300.8,136l14.933,16  l22.4-12.8c4.267,3.2,8.533,5.333,13.867,6.4l5.333,24.533l22.4,1.067l6.4-24.533c4.267-1.067,9.6-3.2,13.867-5.333L420.267,156.267  z M350.933,104c-9.6-10.667-9.6-26.667,1.067-37.333c10.667-9.6,26.667-9.6,37.333,1.067c9.6,10.667,9.6,26.667-1.067,37.333  C377.6,114.667,361.6,114.667,350.933,104z"/>
<path style="fill:#66C6B9;" d="M476.8,205.333H35.2c-19.2,0-35.2,16-35.2,35.2V478.4c0,18.133,16,34.133,35.2,34.133h442.667  c19.2,0,35.2-16,35.2-35.2v-236.8C512,221.333,496,205.333,476.8,205.333z"/>
<path style="fill:#FFFFFF;" d="M46.933,414.4V303.467c28.8,0,51.2-23.467,51.2-51.2h315.733c0,28.8,23.467,51.2,51.2,51.2V414.4  c-28.8,0-51.2,23.467-51.2,51.2H98.133C98.133,437.867,74.667,414.4,46.933,414.4z"/>
<g>
	<path style="fill:#66C6B9;" d="M248.533,433.6v-12.8c-14.933-2.133-29.867-9.6-42.667-20.267l17.067-20.267   c9.6,8.533,18.133,13.867,25.6,16V369.6c-12.8-3.2-22.4-7.467-27.733-12.8c-6.4-5.333-8.533-13.867-8.533-23.467   c0-10.667,3.2-19.2,9.6-25.6c6.4-6.4,16-10.667,26.667-11.733v-8.533h19.2v9.6c11.733,2.133,24.533,6.4,36.267,14.933   l-14.933,21.333c-7.467-5.333-14.933-8.533-21.333-10.667v25.6c12.8,3.2,22.4,7.467,28.8,13.867c6.4,6.4,9.6,13.867,9.6,24.533   s-3.2,19.2-10.667,25.6c-6.4,6.4-16,10.667-27.733,11.733v12.8h-19.2V433.6z M248.533,318.4c-5.333,2.133-7.467,5.333-7.467,9.6   s2.133,8.533,7.467,10.667V318.4z M277.333,384.533c0-2.133-1.067-4.267-2.133-6.4c-1.067-2.133-4.267-3.2-7.467-4.267V395.2   C274.133,393.067,277.333,389.867,277.333,384.533z"/>
	<circle style="fill:#66C6B9;" cx="117.333" cy="358.933" r="25.6"/>
	<circle style="fill:#66C6B9;" cx="394.667" cy="358.933" r="25.6"/>
</g>
<g>
</g>
<g>
</g>
<g>
</g>
<g>
</g>
<g>
</g>
<g>
</g>
<g>
</g>
<g>
</g>
<g>
</g>
<g>
</g>
<g>
</g>
<g>
</g>
<g>
</g>
<g>
</g>
<g>
</g>
</svg>
