<?xml version="1.0" encoding="iso-8859-1"?>
<!-- Generator: Adobe Illustrator 19.0.0, SVG Export Plug-In . SVG Version: 6.00 Build 0)  -->
<svg xmlns="http://www.w3.org/2000/svg" xmlns:xlink="http://www.w3.org/1999/xlink" version="1.1" id="Layer_1" x="0px" y="0px" viewBox="0 0 513.1 513.1" style="enable-background:new 0 0 513.1 513.1;" xml:space="preserve">
<path style="fill:#8AD7F8;" d="M175.45,432l25.6-5.3V399l-25.6-5.3c-2.1-7.5-4.3-13.9-8.5-20.3l13.9-22.4l-18.1-19.2l-22.4,13.9  c-6.4-3.2-12.8-6.4-20.3-8.5l0,0l-5.3-25.6h-27.8l-5.3,25.5l0,0c-7.5,2.1-13.9,4.3-20.3,8.5l-21.3-13.9l-19.2,19.2l13.9,22.4  c-3.2,6.4-6.4,12.8-8.5,20.3l0,0L0.55,399v27.7l25.6,5.3c2.1,7.5,4.3,13.9,8.5,20.3l-13.9,22.4l19.2,19.2l22.4-13.9  c6.4,3.2,12.8,6.4,20.3,8.5l0,0l4.3,24.5h27.7l5.3-25.6l0,0c7.5-2.1,13.9-4.3,20.3-8.5l22.4,13.9l19.2-19.2l-13.9-22.4  C171.25,445.9,173.35,439.5,175.45,432L175.45,432z M100.85,440.6c-16,0-27.7-12.8-27.7-27.7c0-16,12.8-27.7,27.7-27.7  s27.7,12.8,27.7,27.7S116.85,440.6,100.85,440.6z"/>
<path style="fill:#55C0EB;" d="M100.85,367c-25.6,0-45.9,20.3-45.9,45.9s20.3,45.9,45.9,45.9s45.9-20.3,45.9-45.9  S126.45,367,100.85,367z M100.85,440.6c-16,0-27.7-12.8-27.7-27.7c0-16,12.8-27.7,27.7-27.7s27.7,12.8,27.7,27.7  S116.85,440.6,100.85,440.6z"/>
<path style="fill:#F3705A;" d="M486.95,432l25.6-5.3V399l-25.6-5.3c-2.1-7.5-4.3-13.9-8.5-20.3l13.9-22.4l-19.2-19.2l-22.4,13.9  c-6.4-3.2-12.8-6.4-20.3-8.5l0,0l-5.3-25.6h-27.7l-5.3,25.6l0,0c-7.5,2.1-13.9,4.3-20.3,8.5l-21.3-13.9l-19.2,20.3l13.9,22.4  c-3.2,6.4-6.4,12.8-8.5,20.3l0,0l-25.6,5.3v27.7l25.4,5.3c2.1,7.5,4.3,13.9,8.5,20.3l-13.9,20.3l19.2,19.2l22.4-13.9  c6.4,3.2,12.8,6.4,20.3,8.5l0,0l5.3,25.6h27.7l5.3-25.6l0,0c7.5-2.1,13.9-4.3,20.3-8.5l22.4,13.9l19.2-19.2l-13.9-22.4  C482.65,445.9,484.85,439.5,486.95,432L486.95,432z M412.25,440.6c-16,0-27.7-12.8-27.7-27.7c0-16,12.8-27.7,27.7-27.7  c14.9,0,27.7,12.8,27.7,27.7C440.05,427.8,427.25,440.6,412.25,440.6z"/>
<path style="fill:#F05540;" d="M412.25,367c-25.6,0-45.9,20.3-45.9,45.9s20.3,45.9,45.9,45.9s45.9-20.3,45.9-45.9  C458.15,387.2,437.85,367,412.25,367z M412.25,440.6c-16,0-27.7-12.8-27.7-27.7c0-16,12.8-27.7,27.7-27.7  c14.9,0,27.7,12.8,27.7,27.7C440.05,427.8,427.25,440.6,412.25,440.6z"/>
<path style="fill:#FFD15C;" d="M305.65,241.1c5.3-11.7,12.8-23.5,21.3-34.1c16-18.1,25.6-41.6,24.5-68.3  c-2.1-49.1-41.6-89.6-90.7-91.7c-55.5-2.1-100.3,41.6-100.3,96c0,24.5,9.6,46.9,24.5,64c9.6,10.7,17.1,22.4,22.4,34.1H305.65z"/>
<path style="fill:#344A5E;" d="M306.65,299.8v-58.7h-100.2v58.7c0,7.5,5.3,12.8,12.8,12.8h74.7  C301.35,312.6,306.65,306.2,306.65,299.8z"/>
<g>
	<path style="fill:#415A6B;" d="M308.85,231.5l-106.7,9.6c-1.3,0.3-2.6,0.8-3.7,1.6c-7.3,4.9-6.3,16.2,1.8,19.9   c1.3,0.6,2.7,0.9,4.1,0.9l106.7-9.6c1.4-0.3,2.8-0.9,4-1.8c7.1-5.2,5.9-16.4-2.2-19.8C311.45,231.8,310.15,231.5,308.85,231.5z"/>
	<path style="fill:#415A6B;" d="M308.85,267.8l-106.7,9.6c-1.1,0.2-2.1,0.6-3,1.1c-8.2,4.5-6.9,17,2,19.7c1,0.3,2.1,0.5,3.2,0.5   l106.7-9.6c1.1-0.2,2.1-0.6,3-1.1c8.2-4.5,6.9-17-2-19.7C310.95,267.9,309.85,267.8,308.85,267.8z"/>
</g>
<g>
	<path style="fill:#FFD15C;" d="M258.65,34.2h-4.3c-3.2,0-6.4-3.2-6.4-6.4V6.4c0-3.2,3.2-6.4,6.4-6.4h4.3c3.2,0,6.4,3.2,6.4,6.4   v21.3C265.05,32,261.85,34.2,258.65,34.2z"/>
	<path style="fill:#FFD15C;" d="M203.25,48l-3.2,2.1c-3.2,2.1-6.4,1.1-8.5-2.1l-10.7-18.1c-2.1-3.2-1.1-6.4,2.1-8.5l3.2-2.1   c3.2-2.1,6.4-1.1,8.5,2.1l10.7,18.1C207.45,42.7,206.45,45.9,203.25,48z"/>
	<path style="fill:#FFD15C;" d="M162.65,87.5l-2.1,3.2c-2.1,3.2-5.3,4.3-8.5,2.1l-18.1-10.7c-3.2-2.1-4.3-5.3-2.1-8.5l2.1-3.2   c2.1-3.2,5.3-4.3,8.5-2.1l18.1,10.7C163.75,80,164.85,84.3,162.65,87.5z"/>
	<path style="fill:#FFD15C;" d="M146.65,141.9v4.3c0,3.2-3.2,6.4-6.4,6.4h-21.3c-3.2,0-6.4-3.2-6.4-6.4v-4.3c0-3.2,3.2-6.4,6.4-6.4   h21.3C144.55,135.5,146.65,138.7,146.65,141.9z"/>
	<path style="fill:#FFD15C;" d="M160.55,196.3l2.1,3.2c2.1,3.2,1.1,6.4-2.1,8.5l-18.1,10.7c-3.2,2.1-6.4,1.1-8.5-2.1l-2.1-3.2   c-2.1-3.2-1.1-6.4,2.1-8.5l18.1-10.7C155.25,193.1,159.45,193.1,160.55,196.3z"/>
	<path style="fill:#FFD15C;" d="M350.45,200.6l2.1-3.2c2.1-3.2,5.3-4.3,8.5-2.1l18.1,10.7c3.2,2.1,4.3,5.3,2.1,8.5l-2.1,3.2   c-2.1,3.2-5.3,4.3-8.5,2.1l-18.1-10.7C349.35,207,348.25,202.7,350.45,200.6z"/>
	<path style="fill:#FFD15C;" d="M366.45,146.2v-4.3c0-3.2,3.2-6.4,6.4-6.4h21.3c3.2,0,6.4,3.2,6.4,6.4v4.3c0,3.2-3.2,6.4-6.4,6.4   h-21.3C368.55,151.5,366.45,149.4,366.45,146.2z"/>
	<path style="fill:#FFD15C;" d="M352.55,90.7l-2.1-3.2c-2.1-3.2-1.1-6.4,2.1-8.5l18.1-10.7c3.2-2.1,6.4-1.1,8.5,2.1l2.1,3.2   c2.1,3.2,1.1,6.4-2.1,8.5l-18.1,10.7C357.85,95,353.65,93.9,352.55,90.7z"/>
	<path style="fill:#FFD15C;" d="M313.05,50.2l-3.2-2.1c-3.2-2.1-4.3-5.3-2.1-8.5l10.7-18.1c2.1-3.2,5.3-4.3,8.5-2.1l3.2,2.1   c3.2,2.1,4.3,5.3,2.1,8.5l-10.7,18.1C319.45,50.2,316.25,51.2,313.05,50.2z"/>
</g>
<path style="fill:#344A5E;" d="M292.85,406.5l-28.8-28.9v-29.9c0-4.3-3.2-7.5-7.5-7.5c-4,0-7.1,2.8-7.4,6.7c0,0.3,0,0.5,0,0.8v29.8  l-28.8,28.8c-3.2,3.2-3.2,8.5,0,11.7s8.5,3.2,11.7,0l23.8-24.8l0.7-0.7l24.5,25.6c3.2,3.2,8.5,3.2,11.7,0  C296.05,415,296.05,409.7,292.85,406.5z"/>
<g>
</g>
<g>
</g>
<g>
</g>
<g>
</g>
<g>
</g>
<g>
</g>
<g>
</g>
<g>
</g>
<g>
</g>
<g>
</g>
<g>
</g>
<g>
</g>
<g>
</g>
<g>
</g>
<g>
</g>
</svg>
