<?xml version="1.0" encoding="iso-8859-1"?>
<!-- Generator: Adobe Illustrator 19.0.0, SVG Export Plug-In . SVG Version: 6.00 Build 0)  -->
<svg xmlns="http://www.w3.org/2000/svg" xmlns:xlink="http://www.w3.org/1999/xlink" version="1.1" id="Layer_1" x="0px" y="0px" viewBox="0 0 510.952 510.952" style="enable-background:new 0 0 510.952 510.952;" xml:space="preserve">
<g>
	<path style="fill:#E8EAE9;" d="M103.467,234.276C45.867,234.276,0,306.809,0,369.742c0,45.867,38.4,83.2,84.267,83.2H121.6   c45.867,0,84.267-37.333,84.267-83.2C206.933,306.809,160,234.276,103.467,234.276z"/>
	<path style="fill:#E8EAE9;" d="M125.867,253.476c-13.867-7.467-30.933-7.467-44.8,0c-11.733-17.067-25.6-39.467-43.733-68.267   c38.4-35.2,96-35.2,133.333,0C151.467,214.009,137.6,236.409,125.867,253.476z"/>
	<path style="fill:#E8EAE9;" d="M408.533,234.276c-56.533,0-103.467,73.6-103.467,135.467c0,45.867,38.4,83.2,84.267,83.2h37.333   c45.867,0,84.267-37.333,84.267-83.2C512,306.809,466.133,234.276,408.533,234.276z"/>
	<path style="fill:#E8EAE9;" d="M430.933,253.476c-13.867-7.467-30.933-7.467-44.8,0c-11.733-17.067-25.6-39.467-43.733-68.267   c38.4-35.2,96-35.2,133.333,0C456.533,214.009,442.667,236.409,430.933,253.476z"/>
</g>
<g>
	<path style="fill:#F3F3F3;" d="M293.333,166.009c-24.533,0-50.133,0-74.667,0c-5.333-30.933-39.467-55.467-65.067-83.2   c64-33.067,139.733-33.067,204.8,0C333.867,110.542,298.667,135.076,293.333,166.009z"/>
	<path style="fill:#F3F3F3;" d="M297.6,452.942c55.467,0,102.4-44.8,103.467-100.267v-1.067c0-80-65.067-203.733-145.067-203.733   S110.933,271.609,110.933,351.609v1.067c0,55.467,46.933,100.267,103.467,100.267H297.6z"/>
</g>
<g>
	<path style="fill:#415A6B;" d="M256,153.209c-18.133,0-36.267-2.133-53.333-5.333c-4.267-1.067-7.467-5.333-6.4-9.6   c1.067-4.267,5.333-7.467,9.6-6.4c33.067,6.4,67.2,6.4,101.333,0c4.267-1.067,8.533,2.133,9.6,6.4c1.067,4.267-2.133,8.533-6.4,9.6   C291.2,151.076,273.067,153.209,256,153.209z"/>
	<path style="fill:#415A6B;" d="M256,169.209c-14.933,0-28.8-1.067-43.733-4.267c-4.267-1.067-7.467-5.333-6.4-9.6   c1.067-4.267,5.333-7.467,9.6-6.4c26.667,5.333,53.333,5.333,81.067,0c4.267-1.067,8.533,2.133,9.6,6.4   c1.067,4.267-2.133,8.533-6.4,9.6C284.8,167.076,269.867,169.209,256,169.209z"/>
	<path style="fill:#415A6B;" d="M280.533,222.542c-4.267,0-8.533-3.2-8.533-8.533v-56.533c0-4.267,3.2-8.533,8.533-8.533   c5.333,0,8.533,3.2,8.533,8.533v56.533C289.067,219.342,284.8,222.542,280.533,222.542z"/>
	<path style="fill:#415A6B;" d="M254.933,193.742c-4.267,0-8.533-3.2-8.533-8.533v-26.667c0-4.267,3.2-8.533,8.533-8.533   s8.533,3.2,8.533,8.533v26.667C263.467,190.542,259.2,193.742,254.933,193.742z"/>
</g>
<path style="fill:#FFD15C;" d="M247.467,390.009v-12.8c-14.933-2.133-28.8-9.6-40.533-20.267l16-20.267  c9.6,7.467,17.067,12.8,24.533,14.933v-26.667c-12.8-3.2-21.333-7.467-26.667-12.8c-5.333-5.333-8.533-12.8-8.533-23.467  c0-9.6,3.2-18.133,9.6-24.533c6.4-6.4,14.933-10.667,25.6-11.733v-7.467h19.2v8.533c11.733,2.133,23.467,6.4,35.2,14.933  L288,288.676c-7.467-5.333-13.867-8.533-20.267-10.667v25.6c12.8,3.2,22.4,7.467,27.733,12.8c6.4,5.333,8.533,12.8,8.533,23.467  c0,9.6-3.2,18.133-9.6,24.533c-6.4,6.4-16,10.667-26.667,11.733v12.8h-20.267V390.009z M247.467,278.009  c-5.333,2.133-7.467,5.333-7.467,9.6s2.133,8.533,7.467,10.667V278.009z M275.2,342.009c0-2.133-1.067-4.267-2.133-6.4  c-1.067-2.133-3.2-3.2-7.467-4.267v21.333C272,351.609,275.2,347.342,275.2,342.009z"/>
<g>
</g>
<g>
</g>
<g>
</g>
<g>
</g>
<g>
</g>
<g>
</g>
<g>
</g>
<g>
</g>
<g>
</g>
<g>
</g>
<g>
</g>
<g>
</g>
<g>
</g>
<g>
</g>
<g>
</g>
</svg>
