<?xml version="1.0" encoding="iso-8859-1"?>
<!-- Generator: Adobe Illustrator 19.0.0, SVG Export Plug-In . SVG Version: 6.00 Build 0)  -->
<svg xmlns="http://www.w3.org/2000/svg" xmlns:xlink="http://www.w3.org/1999/xlink" version="1.1" id="Layer_1" x="0px" y="0px" viewBox="0 0 513.067 513.067" style="enable-background:new 0 0 513.067 513.067;" xml:space="preserve">
<path style="fill:#F7B64C;" d="M416.659,46.933H149.993l-13.867-32C132.926,5.333,124.393,0,113.726,0H50.793  c-12.8,0-23.467,10.667-23.467,23.467v307.2c0,12.8,10.667,23.467,23.467,23.467h365.867c12.8,0,23.467-10.667,23.467-23.467V70.4  C440.126,57.6,429.459,46.933,416.659,46.933z"/>
<path style="fill:#FFFFFF;" d="M402.793,256V96c0-5.333-4.267-8.533-8.533-8.533H72.126c-5.333-1.067-9.6,3.2-9.6,8.533v160  c0,5.333,4.267,8.533,8.533,8.533h322.133C398.526,265.6,402.793,261.333,402.793,256z"/>
<path style="fill:#E8EAE9;" d="M96.659,128L96.659,128c0,6.4,5.333,10.667,10.667,10.667h250.667c6.4,0,10.667-5.333,10.667-10.667  l0,0c0-6.4-5.333-10.667-10.667-10.667H107.326C100.926,117.333,96.659,122.667,96.659,128z"/>
<path style="fill:#FFD15C;" d="M0.659,189.867l23.467,185.6C25.193,387.2,35.859,396.8,47.593,396.8h371.2  c11.733,0,22.4-8.533,23.467-21.333l23.467-185.6c2.133-13.867-9.6-26.667-23.467-26.667H24.126  C10.259,162.133-1.474,174.933,0.659,189.867z"/>
<path style="fill:#F3705A;" d="M477.459,401.067l35.2-7.467v-38.4l-35.2-7.467c-2.133-9.6-6.4-18.133-11.733-26.667l19.2-29.867  l-25.6-27.733l-29.867,19.2c-8.533-5.333-17.067-8.533-27.733-11.733l0,0l-7.467-35.2h-38.4l-7.467,35.2l0,0  c-9.6,2.133-19.2,6.4-27.733,11.733l-29.867-19.2l-26.667,26.667l19.2,29.867c-5.333,8.533-8.533,18.133-11.733,27.733l0,0  l-35.2,7.467v38.4l35.2,7.467c2.133,9.6,6.4,19.2,11.733,27.733l-19.2,29.867l26.667,26.667l29.867-19.2  c8.533,5.333,17.067,8.533,27.733,11.733l0,0l7.467,35.2h38.4l7.467-35.2l0,0c9.6-2.133,19.2-6.4,27.733-11.733l29.867,19.2  l26.667-26.667l-19.2-29.867C471.059,419.2,474.259,410.667,477.459,401.067L477.459,401.067z M375.059,412.8  c-21.333,0-38.4-17.067-38.4-38.4c0-21.333,17.067-38.4,38.4-38.4s38.4,17.067,38.4,38.4  C413.459,395.733,396.393,412.8,375.059,412.8z"/>
<path style="fill:#F05540;" d="M375.059,311.467c-35.2,0-62.933,27.733-62.933,62.933s28.8,62.933,62.933,62.933  c35.2,0,62.933-28.8,62.933-62.933C437.993,339.2,410.259,311.467,375.059,311.467z M375.059,412.8c-21.333,0-38.4-17.067-38.4-38.4  c0-21.333,17.067-38.4,38.4-38.4s38.4,17.067,38.4,38.4C413.459,395.733,396.393,412.8,375.059,412.8z"/>
<g>
</g>
<g>
</g>
<g>
</g>
<g>
</g>
<g>
</g>
<g>
</g>
<g>
</g>
<g>
</g>
<g>
</g>
<g>
</g>
<g>
</g>
<g>
</g>
<g>
</g>
<g>
</g>
<g>
</g>
</svg>
