<?xml version="1.0" encoding="iso-8859-1"?>
<!-- Generator: Adobe Illustrator 19.0.0, SVG Export Plug-In . SVG Version: 6.00 Build 0)  -->
<svg xmlns="http://www.w3.org/2000/svg" xmlns:xlink="http://www.w3.org/1999/xlink" version="1.1" id="Layer_1" x="0px" y="0px" viewBox="0 0 511.503 511.503" style="enable-background:new 0 0 511.503 511.503;" xml:space="preserve">
<path style="fill:#E8EAE9;" d="M454.662,61.37L145.328,0.57c-14.933-3.2-29.867,7.467-33.067,22.4l-76.8,388.267  c-3.2,14.933,7.467,29.867,22.4,33.067l309.333,60.8c14.933,3.2,29.867-7.467,33.067-22.4l75.733-388.267  C479.195,79.503,469.595,64.57,454.662,61.37z"/>
<path style="fill:#F3F3F3;" d="M378.928,60.303H63.195c-16,0-27.733,12.8-27.733,27.733V483.77c0,16,12.8,27.733,27.733,27.733  h315.733c16,0,27.733-12.8,27.733-27.733V89.103C406.662,73.103,394.928,60.303,378.928,60.303z"/>
<g>
	<rect x="239.195" y="109.37" style="fill:#CED6E0;" width="122.667" height="20.267"/>
	<rect x="239.195" y="176.57" style="fill:#CED6E0;" width="122.667" height="20.267"/>
	<rect x="211.462" y="242.703" style="fill:#CED6E0;" width="150.4" height="20.267"/>
	<rect x="80.262" y="309.903" style="fill:#CED6E0;" width="280.533" height="20.267"/>
	<rect x="80.262" y="377.103" style="fill:#CED6E0;" width="280.533" height="20.267"/>
	<rect x="80.262" y="444.303" style="fill:#CED6E0;" width="280.533" height="20.267"/>
</g>
<path style="fill:#55C0EB;" d="M207.195,126.436c-23.467-4.267-42.667-12.8-52.267-17.067c-3.2-1.067-7.467-1.067-10.667,0  c-9.6,4.267-28.8,11.733-52.267,17.067c-6.4,1.067-10.667,6.4-10.667,12.8v34.133c0,40.533,26.667,75.733,65.067,87.467  c2.133,1.067,5.333,1.067,7.467,0c38.4-11.733,65.067-46.933,65.067-87.467v-34.133C218.928,133.903,213.595,128.57,207.195,126.436  z"/>
<path style="fill:#F3705A;" d="M200.795,186.17c1.067-3.2,1.067-7.467,1.067-11.733v-32c-22.4-4.267-41.6-11.733-52.267-17.067l0,0  v59.733h51.2V186.17z"/>
<g>
	<path style="fill:#FFFFFF;" d="M149.595,126.436c-10.667,4.267-29.867,11.733-52.267,17.067v32c0,4.267,0,7.467,1.067,11.733h51.2   V126.436z"/>
	<path style="fill:#FFFFFF;" d="M200.795,186.17h-51.2v59.733C177.329,237.37,196.528,213.903,200.795,186.17z"/>
</g>
<path style="fill:#F3705A;" d="M98.395,186.17c4.267,27.733,23.467,51.2,51.2,59.733l0,0V186.17H98.395z"/>
<g>
</g>
<g>
</g>
<g>
</g>
<g>
</g>
<g>
</g>
<g>
</g>
<g>
</g>
<g>
</g>
<g>
</g>
<g>
</g>
<g>
</g>
<g>
</g>
<g>
</g>
<g>
</g>
<g>
</g>
</svg>
