<?xml version="1.0" encoding="iso-8859-1"?>
<!-- Generator: Adobe Illustrator 19.0.0, SVG Export Plug-In . SVG Version: 6.00 Build 0)  -->
<svg xmlns="http://www.w3.org/2000/svg" xmlns:xlink="http://www.w3.org/1999/xlink" version="1.1" id="Layer_1" x="0px" y="0px" viewBox="0 0 511.672 511.672" style="enable-background:new 0 0 511.672 511.672;" xml:space="preserve">
<circle style="fill:#415A6B;" cx="89.333" cy="421.828" r="78.933"/>
<g>
	<circle style="fill:#344A5E;" cx="89.333" cy="421.828" r="26.667"/>
	<path style="fill:#344A5E;" d="M298.4,481.561c5.333,14.933,20.267,26.667,37.333,26.667s32-10.667,37.333-26.667H298.4z"/>
</g>
<path style="fill:#E8EAE9;" d="M408.267,393.028C410.4,359.961,426.4,330.095,452,307.695c42.667-37.333,67.2-94.933,57.6-156.8  C498.933,73.028,434.933,10.095,356,1.561c-105.6-12.8-195.2,69.333-195.2,173.867c0,53.333,23.467,101.333,61.867,133.333  c24.533,21.333,38.4,52.267,41.6,84.267H408.267z"/>
<path style="fill:#415A6B;" d="M384.8,483.695h-97.067c-12.8,0-23.467-10.667-23.467-23.467v-67.2h145.067v67.2  C408.267,473.028,397.6,483.695,384.8,483.695z"/>
<path style="fill:#55C0EB;" d="M441.333,192.495v-35.2l-27.733-6.4c-1.067-4.267-3.2-8.533-5.333-12.8l14.933-24.533l-24.533-24.533  l-24.533,14.933c-4.267-2.133-8.533-4.267-12.8-5.333l-6.4-27.733h-35.2l-6.4,27.733c-4.267,1.067-8.533,3.2-12.8,5.333L276,89.028  l-24.533,24.533l14.933,24.533c-2.133,4.267-4.267,8.533-5.333,12.8l-27.733,6.4v35.2l27.733,6.4c1.067,4.267,3.2,8.533,5.333,12.8  l-14.933,24.533L276,260.761l24.533-14.933c4.267,2.133,8.533,4.267,12.8,5.333l6.4,27.733h35.2l6.4-27.733  c4.267-1.067,8.533-3.2,12.8-5.333l24.533,14.933l24.533-24.533l-14.933-23.467c2.133-4.267,4.267-8.533,5.333-12.8L441.333,192.495  z M335.733,215.961c-22.4,0-41.6-18.133-41.6-41.6c0-22.4,18.133-41.6,41.6-41.6c22.4,0,41.6,18.133,41.6,41.6  S359.2,215.961,335.733,215.961z"/>
<path style="fill:#F3705A;" d="M89.333,511.428c-22.4,0-45.867-8.533-62.933-25.6c-35.2-35.2-35.2-91.733,0-125.867L245.067,83.695  C269.6,59.161,301.6,46.361,336.8,46.361s67.2,13.867,91.733,37.333c24.533,24.533,37.333,56.533,37.333,91.733  s-13.867,67.2-37.333,91.733L151.2,485.828C134.133,502.895,111.733,511.428,89.333,511.428z M252.533,91.161l-218.667,275.2  c-14.933,14.933-23.467,35.2-23.467,55.467c0,21.333,8.533,40.533,23.467,55.467c30.933,30.933,80,30.933,110.933,0l276.267-219.733  c22.4-22.4,34.133-52.267,34.133-83.2s-12.8-61.867-35.2-84.267s-52.267-35.2-84.267-35.2  C304.8,57.028,274.933,68.761,252.533,91.161z"/>
<g>
</g>
<g>
</g>
<g>
</g>
<g>
</g>
<g>
</g>
<g>
</g>
<g>
</g>
<g>
</g>
<g>
</g>
<g>
</g>
<g>
</g>
<g>
</g>
<g>
</g>
<g>
</g>
<g>
</g>
</svg>
