<?xml version="1.0" encoding="iso-8859-1"?>
<!-- Generator: Adobe Illustrator 19.0.0, SVG Export Plug-In . SVG Version: 6.00 Build 0)  -->
<svg xmlns="http://www.w3.org/2000/svg" xmlns:xlink="http://www.w3.org/1999/xlink" version="1.1" id="Layer_1" x="0px" y="0px" viewBox="0 0 512 512" style="enable-background:new 0 0 512 512;" xml:space="preserve">
<rect x="119.467" y="247.467" style="fill:#CED6E0;" width="76.8" height="68.267"/>
<g>
	<polygon style="fill:#55C0EB;" points="173.867,267.733 189.867,252.8 158.933,222.933 126.933,252.8 142.933,267.733  "/>
	<polygon style="fill:#55C0EB;" points="188.8,333.867 173.867,267.733 142.933,267.733 128,333.867  "/>
</g>
<path style="fill:#F7B64C;" d="M116.267,170.667v19.2c9.6,14.933,23.467,25.6,41.6,33.067c16-7.467,30.933-17.067,41.6-33.067v-19.2  H116.267z"/>
<g>
	<path style="fill:#FFD15C;" d="M230.4,119.467c-3.2,12.8-10.667,22.4-18.133,21.333S201.6,128,204.8,114.133   c3.2-13.867,10.667-22.4,18.133-21.333C230.4,94.933,233.6,106.667,230.4,119.467z"/>
	<path style="fill:#FFD15C;" d="M86.4,119.467c3.2,12.8,10.667,22.4,18.133,21.333C112,139.733,115.2,128,112,114.133   c-3.2-13.867-10.667-22.4-18.133-21.333C86.4,94.933,83.2,106.667,86.4,119.467z"/>
</g>
<path style="fill:#415A6B;" d="M212.267,132.267c8.533-23.467,13.867-48,13.867-64C226.133,29.867,195.2,0,157.867,0  S89.6,30.933,89.6,68.267c0,16,5.333,40.533,13.867,64H212.267z"/>
<path style="fill:#FFD15C;" d="M155.733,61.867c-9.6,0-19.2-1.067-27.733-2.133c-17.067-3.2-32,10.667-32,27.733V112  c0,46.933,27.733,84.267,62.933,84.267s62.933-37.333,62.933-84.267V86.4c0-18.133-17.067-30.933-34.133-26.667  C177.067,60.8,166.4,61.867,155.733,61.867z"/>
<polygon style="fill:#F3F3F3;" points="200.533,189.867 158.933,222.933 190.933,267.733 212.267,215.467 "/>
<path style="fill:#344A5E;" d="M316.8,333.867l-4.267-40.533c-2.133-22.4-17.067-41.6-37.333-51.2l-61.867-29.867l-35.2,121.6H316.8  z"/>
<polygon style="fill:#415A6B;" points="215.467,333.867 242.133,280.533 215.467,261.333 249.6,254.933 205.867,202.667   174.933,333.867 "/>
<polygon style="fill:#F3F3F3;" points="116.267,189.867 158.933,222.933 125.867,267.733 104.533,215.467 "/>
<path style="fill:#344A5E;" d="M137.6,333.867l-34.133-121.6l-60.8,29.867c-20.267,9.6-35.2,28.8-37.333,51.2L0,333.867H137.6z"/>
<polygon style="fill:#415A6B;" points="74.667,280.533 101.333,333.867 141.867,333.867 110.933,202.667 67.2,254.933   101.333,261.333 "/>
<path style="fill:#344A5E;" d="M348.8,499.2c4.267,7.467,11.733,12.8,20.267,12.8c8.533,0,17.067-5.333,20.267-12.8H348.8z"/>
<path style="fill:#FFD15C;" d="M400,469.333c1.067-22.4,10.667-42.667,26.667-57.6c20.267-18.133,32-45.867,27.733-75.733  c-5.333-38.4-37.333-70.4-75.733-74.667c-52.267-6.4-97.067,35.2-97.067,86.4c0,25.6,10.667,49.067,28.8,65.067  c17.067,14.933,26.667,36.267,26.667,57.6H400V469.333z"/>
<path style="fill:#415A6B;" d="M334.933,450.133v37.333c0,7.467,6.4,13.867,13.867,13.867h40.533c7.467,0,13.867-6.4,13.867-13.867  v-37.333H334.933z"/>
<g>
	<path style="fill:#344A5E;" d="M334.933,469.333c-4.267,0-7.467-3.2-7.467-7.467c0-4.267,3.2-8.533,7.467-8.533L403.2,448   c4.267,0,8.533,3.2,8.533,7.467c0,4.267-3.2,8.533-7.467,8.533L334.933,469.333C336,469.333,336,469.333,334.933,469.333z"/>
	<path style="fill:#344A5E;" d="M334.933,492.8c-4.267,0-7.467-3.2-7.467-7.467c0-4.267,3.2-8.533,7.467-8.533l68.267-5.333   c4.267,0,8.533,3.2,8.533,7.467c0,4.267-3.2,8.533-7.467,8.533L334.933,492.8C336,492.8,336,492.8,334.933,492.8z"/>
</g>
<g>
	<path style="fill:#FFD15C;" d="M369.067,204.8c-4.267,0-8.533,3.2-8.533,8.533V233.6c0,4.267,3.2,8.533,8.533,8.533   c4.267,0,8.533-3.2,8.533-8.533v-20.267C377.6,208,373.333,204.8,369.067,204.8z"/>
	<path style="fill:#FFD15C;" d="M297.6,224c-4.267,2.133-5.333,7.467-3.2,10.667l9.6,17.067c2.133,4.267,7.467,5.333,10.667,3.2   c4.267-2.133,5.333-7.467,3.2-10.667l-8.533-17.067C307.2,222.933,301.867,221.867,297.6,224z"/>
	<path style="fill:#FFD15C;" d="M245.333,276.267c-2.133,4.267-1.067,8.533,3.2,10.667l17.067,9.6   c4.267,2.133,8.533,1.067,10.667-3.2c2.133-4.267,1.067-8.533-3.2-10.667l-17.067-9.6C252.8,270.933,248.533,272,245.333,276.267z"/>
	<path style="fill:#FFD15C;" d="M227.2,347.733c0,4.267,3.2,8.533,8.533,8.533H256c4.267,0,8.533-3.2,8.533-8.533   c0-4.267-3.2-8.533-8.533-8.533h-21.333C230.4,339.2,227.2,342.4,227.2,347.733z"/>
	<path style="fill:#FFD15C;" d="M245.333,418.133c2.133,4.267,7.467,5.333,10.667,3.2l17.067-9.6   c4.267-2.133,5.333-7.467,3.2-10.667c-2.133-4.267-7.467-5.333-10.667-3.2l-17.067,9.6   C245.333,409.6,243.2,414.933,245.333,418.133z"/>
	<path style="fill:#FFD15C;" d="M492.8,418.133c2.133-4.267,1.067-8.533-3.2-10.667l-17.067-9.6   c-4.267-2.133-8.533-1.067-10.667,3.2c-2.133,4.267-1.067,8.533,3.2,10.667l17.067,9.6   C485.333,423.467,490.667,422.4,492.8,418.133z"/>
	<path style="fill:#FFD15C;" d="M512,347.733c0-4.267-3.2-8.533-8.533-8.533H483.2c-4.267,0-8.533,3.2-8.533,8.533   c0,4.267,3.2,8.533,8.533,8.533h20.267C508.8,355.2,512,352,512,347.733z"/>
	<path style="fill:#FFD15C;" d="M492.8,276.267c-2.133-4.267-7.467-5.333-10.667-3.2l-17.067,9.6   c-4.267,2.133-5.333,7.467-3.2,10.667c2.133,4.267,7.467,5.333,10.667,3.2l17.067-9.6C493.867,284.8,494.933,279.467,492.8,276.267   z"/>
	<path style="fill:#FFD15C;" d="M440.533,224c-4.267-2.133-8.533-1.067-10.667,3.2l-9.6,17.067c-2.133,4.267-1.067,8.533,3.2,10.667   c4.267,2.133,8.533,1.067,10.667-3.2l9.6-17.067C445.867,230.4,444.8,226.133,440.533,224z"/>
</g>
<g>
	<path style="fill:#F3705A;" d="M42.667,380.8c-1.067-10.667-1.067-21.333,0-32C64,400,117.333,432,174.933,424.533l-3.2-23.467   L241.067,448l-54.4,64l-3.2-23.467C115.2,498.133,52.267,450.133,42.667,380.8z"/>
	<path style="fill:#F3705A;" d="M469.333,131.2c1.067,10.667,1.067,21.333,0,32C448,112,394.667,80,337.067,87.467l3.2,23.467   L270.933,64l54.4-64l3.2,23.467C396.8,13.867,459.733,61.867,469.333,131.2z"/>
</g>
<g>
</g>
<g>
</g>
<g>
</g>
<g>
</g>
<g>
</g>
<g>
</g>
<g>
</g>
<g>
</g>
<g>
</g>
<g>
</g>
<g>
</g>
<g>
</g>
<g>
</g>
<g>
</g>
<g>
</g>
</svg>
