<?xml version="1.0" encoding="iso-8859-1"?>
<!-- Generator: Adobe Illustrator 19.0.0, SVG Export Plug-In . SVG Version: 6.00 Build 0)  -->
<svg xmlns="http://www.w3.org/2000/svg" xmlns:xlink="http://www.w3.org/1999/xlink" version="1.1" id="Layer_1" x="0px" y="0px" viewBox="0 0 512 512" style="enable-background:new 0 0 512 512;" xml:space="preserve">
<path style="fill:#F3F3F3;" d="M437.867,512h-364.8c-18.133,0-32-13.867-32-32V32c0-18.133,13.867-32,32-32h365.867  c18.133,0,32,13.867,32,32v448C469.867,498.133,456,512,437.867,512z"/>
<polygon style="fill:#415A6B;" points="397.333,448 397.333,433.067 383.467,433.067 383.467,448 347.2,448 347.2,433.067   333.333,433.067 333.333,448 297.067,448 297.067,433.067 284.267,433.067 284.267,448 248,448 248,433.067 234.133,433.067   234.133,448 197.867,448 197.867,433.067 184,433.067 184,448 147.733,448 147.733,433.067 134.933,433.067 134.933,448 104,448   104,418.133 120,418.133 120,404.267 104,404.267 104,368 120,368 120,354.133 104,354.133 104,318.933 120,318.933 120,305.067   104,305.067 104,268.8 120,268.8 120,254.933 104,254.933 104,218.667 120,218.667 120,204.8 104,204.8 104,168.533 120,168.533   120,155.733 104,155.733 104,125.867 83.733,125.867 83.733,468.267 427.2,468.267 427.2,448 "/>
<path style="fill:#4EC0AA;" d="M381.333,221.867l-9.6,34.133l-7.467-7.467l-75.733,75.733c-3.2,3.2-7.467,3.2-9.6,0L251.2,296.533  l-102.4,102.4l-9.6-10.667L244.8,281.6c3.2-3.2,7.467-3.2,9.6,0l27.733,27.733l71.467-70.4l-7.467-7.467L381.333,221.867z"/>
<path style="fill:#F3705A;" d="M350.4,401.067V390.4h-20.267c-2.133,0-3.2-1.067-5.333-2.133L294.933,358.4l-71.467,42.667  c-3.2,2.133-8.533,1.067-9.6-3.2l-64-125.867l12.8-6.4L222.4,384l69.333-41.6c3.2-2.133,6.4-1.067,8.533,1.067l30.933,32h18.133  V364.8l30.933,18.133L350.4,401.067z"/>
<rect x="156.267" y="103.467" style="fill:#FFD15C;" width="36.267" height="90.667"/>
<rect x="222.4" y="57.6" style="fill:#8AD7F8;" width="36.267" height="137.6"/>
<rect x="289.6" y="140.8" style="fill:#415A6B;" width="36.267" height="53.333"/>
<rect x="355.733" y="57.6" style="fill:#F3705A;" width="36.267" height="137.6"/>
<g>
</g>
<g>
</g>
<g>
</g>
<g>
</g>
<g>
</g>
<g>
</g>
<g>
</g>
<g>
</g>
<g>
</g>
<g>
</g>
<g>
</g>
<g>
</g>
<g>
</g>
<g>
</g>
<g>
</g>
</svg>
