<?xml version="1.0" encoding="iso-8859-1"?>
<!-- Generator: Adobe Illustrator 19.0.0, SVG Export Plug-In . SVG Version: 6.00 Build 0)  -->
<svg xmlns="http://www.w3.org/2000/svg" xmlns:xlink="http://www.w3.org/1999/xlink" version="1.1" id="Layer_1" x="0px" y="0px" viewBox="0 0 512 512" style="enable-background:new 0 0 512 512;" xml:space="preserve">
<g>
	<path style="fill:#FFD15C;" d="M136.533,231.467L125.867,188.8c-1.067-3.2-1.067-7.467,0-10.667   c2.133-7.467,7.467-21.333,16-26.667c12.8-7.467,35.2-14.933,52.267,9.6L201.6,176L136.533,231.467z"/>
	<path style="fill:#FFD15C;" d="M204.8,471.467c0,8.533,0,24.533-1.067,40.533h185.6l-2.133-76.8c0,0,24.533-85.333,21.333-128   c0,0,1.067-16,3.2-24.533c0,0,0-14.933-9.6-22.4c0,0-2.133-33.067-11.733-43.733c-10.667-10.667-48-20.267-48-20.267   c0-9.6-36.267-38.4-71.467-30.933c0,0-22.4-23.467-52.267-17.067c-6.4,1.067-12.8,4.267-18.133,8.533   c-8.533,6.4-23.467,19.2-33.067,24.533c-6.4,3.2-16,7.467-24.533,11.733c-9.6,4.267-17.067,12.8-19.2,23.467l-21.333,83.2   c-3.2,12.8-1.067,25.6,7.467,36.267c20.267,26.667,59.733,80,83.2,96C193.067,432,204.8,446.933,204.8,471.467z"/>
</g>
<g>
	<path style="fill:#E8EAE9;" d="M270.933,296.533c0,0,13.867,3.2,25.6,1.067s12.8,5.333,12.8,5.333s-9.6,7.467-20.267,6.4   C280.533,308.267,273.067,304,270.933,296.533z"/>
	<path style="fill:#E8EAE9;" d="M185.6,282.667c0,0-4.267-2.133-3.2-6.4V275.2c1.067-2.133,4.267-3.2,6.4-4.267   c5.333-2.133,13.867-4.267,18.133-3.2c0,0,0,11.733,6.4,17.067C213.333,283.733,196.267,285.867,185.6,282.667z"/>
</g>
<path style="fill:#F7B64C;" d="M204.8,471.467c0,8.533,0,24.533-1.067,40.533H224c-2.133-9.6-3.2-18.133-3.2-27.733l0,0  c-2.133-9.6-3.2-20.267-1.067-30.933c1.067-4.267,4.267-5.333,6.4-4.267c7.467,0,14.933,0,22.4,0c-28.8,0-57.6-17.067-70.4-42.667  c1.067,0,6.4-3.2,11.733-8.533c-4.267,3.2-8.533,5.333-13.867,7.467c6.4-3.2,10.667-8.533,11.733-16  c-2.133,6.4-7.467,11.733-14.933,11.733c-10.667-13.867-26.667-24.533-33.067-39.467c4.267-4.267,7.467-9.6,10.667-16  c-2.133,3.2-11.733,14.933-11.733,14.933c-11.733-8.533-23.467-32-22.4-44.8c0-7.467,3.2-19.2,5.333-28.8  c2.133-14.933,6.4-29.867,11.733-44.8c4.267-12.8,9.6-23.467,19.2-33.067c7.467-6.4,18.133-10.667,23.467-19.2  c2.133-3.2,5.333-6.4,8.533-8.533c3.2-5.333,6.4-11.733,4.267-14.933c-4.267,3.2-19.2,12.8-22.4,14.933  c-6.4,3.2-16,7.467-24.533,11.733c-9.6,4.267-17.067,12.8-19.2,23.467l-21.333,83.2c-3.2,12.8-1.067,25.6,7.467,36.267  c20.267,26.667,59.733,80,83.2,96C193.067,432,204.8,446.933,204.8,471.467z"/>
<path style="fill:#E8EAE9;" d="M181.333,172.8c0,0-7.467,4.267-6.4,10.667c1.067,6.4,5.333,17.067,11.733,19.2  c4.267,1.067,12.8-4.267,19.2-8.533c7.467-5.333,11.733-13.867,9.6-22.4c0-1.067,0-1.067-1.067-2.133  c-1.067-4.267-3.2-8.533-5.333-10.667c-1.067-3.2-5.333-4.267-7.467-2.133l0,0C197.333,158.933,181.333,172.8,181.333,172.8z"/>
<g>
	<path style="fill:#F7B64C;" d="M149.333,301.867c6.4-1.067,11.733-3.2,18.133-4.267s12.8-4.267,14.933-9.6   c1.067-2.133,1.067-4.267,1.067-7.467c0-11.733,1.067-22.4,1.067-34.133c-4.267,4.267-18.133,6.4-23.467,4.267   c5.333,2.133,17.067,2.133,21.333-1.067c1.067,7.467-2.133,13.867-1.067,22.4c0,4.267,0,7.467-1.067,11.733   c0,1.067-1.067,1.067-1.067,2.133c-1.067,2.133-3.2,5.333-5.333,5.333C165.333,294.4,157.867,298.667,149.333,301.867"/>
	<path style="fill:#F7B64C;" d="M258.133,263.467c0,4.267,0,7.467,0,10.667c0,3.2,1.067,6.4,2.133,8.533   c1.067,2.133,2.133,4.267,3.2,6.4c1.067,3.2,2.133,4.267,2.133,5.333c0-1.067-1.067-2.133-3.2-5.333   c-1.067-2.133-2.133-4.267-3.2-6.4c-1.067-2.133-2.133-5.333-2.133-9.6c0-3.2,0-7.467,0-10.667c0-4.267,0-7.467,0-11.733   c0-8.533,0-17.067,0-26.667c0-8.533,0-18.133,0-26.667c0-4.267,0-8.533,0-11.733c0-4.267,2.133-7.467,3.2-10.667   c3.2-5.333,7.467-8.533,10.667-10.667l0,0H272c-3.2,2.133-7.467,5.333-10.667,10.667c-1.067,3.2-2.133,6.4-3.2,10.667   c0,4.267,0,7.467,0,11.733c0,8.533,0,17.067,0,26.667c0,9.6,0,18.133-1.067,26.667C258.133,256,258.133,260.267,258.133,263.467z"/>
	<path style="fill:#F7B64C;" d="M342.4,196.267c-1.067,0-3.2,0-4.267,0s-1.067,0-2.133,0c-1.067,0-1.067,0-2.133,1.067   c-1.067,0-2.133,1.067-4.267,2.133c-5.333,2.133-9.6,6.4-13.867,10.667l-1.067,2.133l-1.067,3.2   c-1.067,2.133-1.067,4.267-2.133,5.333c-1.067,4.267-2.133,7.467-3.2,11.733c-2.133,7.467-4.267,16-5.333,23.467   c-1.067,4.267-1.067,7.467-2.133,11.733c-1.067,4.267-1.067,8.533-1.067,11.733c0,1.067,0,2.133,0,3.2c0,1.067,0,2.133,1.067,2.133   c1.067,2.133,2.133,3.2,3.2,5.333c2.133,3.2,4.267,6.4,7.467,9.6l-2.133,3.2c-3.2-3.2-5.333-6.4-7.467-9.6   c-1.067-2.133-2.133-3.2-3.2-5.333c0-1.067-1.067-2.133-1.067-3.2l0,0l0,0l0,0v-1.067c0-1.067,0-1.067,0-2.133   c0-2.133,0-4.267,0-6.4c0-2.133,0-4.267,1.067-6.4c1.067-4.267,1.067-8.533,2.133-11.733c2.133-8.533,3.2-16,5.333-23.467   c1.067-4.267,2.133-7.467,3.2-11.733c1.067-2.133,1.067-4.267,2.133-5.333l1.067-3.2l2.133-3.2l0,0l0,0   c2.133-2.133,4.267-4.267,6.4-5.333c2.133-2.133,5.333-3.2,7.467-4.267c1.067-1.067,3.2-1.067,4.267-1.067   c1.067,0,1.067,0,2.133-1.067c1.067,0,1.067,0,2.133,0C339.2,196.267,340.267,196.267,342.4,196.267L342.4,196.267   C341.333,196.267,342.4,196.267,342.4,196.267z"/>
	<path style="fill:#F7B64C;" d="M356.267,282.667c0,0,2.133-6.4,5.333-13.867c1.067-3.2,2.133-6.4,3.2-9.6   c1.067-2.133,1.067-4.267,1.067-4.267s0,2.133,0,4.267c0,3.2-1.067,6.4-2.133,9.6c-1.067,3.2-2.133,7.467-3.2,9.6   s-2.133,4.267-2.133,4.267H356.267z"/>
	<path style="fill:#F7B64C;" d="M363.733,260.267c0,0,1.067-1.067,3.2-2.133s5.333-3.2,7.467-5.333   c5.333-4.267,10.667-8.533,10.667-8.533s-1.067,1.067-3.2,3.2c-2.133,2.133-4.267,4.267-7.467,6.4   c-3.2,2.133-5.333,4.267-7.467,5.333C365.867,260.267,364.8,261.333,363.733,260.267L363.733,260.267z"/>
	<path style="fill:#F7B64C;" d="M229.333,194.133c-9.6,27.733-24.533,46.933-43.733,56.533l-1.067-2.133   c18.133-9.6,33.067-27.733,42.667-54.4c4.267-12.8,3.2-23.467-3.2-30.933c-4.267-5.333-12.8-7.467-18.133-8.533l1.067-1.067   c6.4,1.067,14.933,3.2,18.133,7.467C232.533,168.533,233.6,180.267,229.333,194.133z"/>
</g>
<g>
	<path style="fill:#E8EAE9;" d="M316.8,304c0,0,10.667,5.333,20.267,2.133c9.6-3.2,10.667,6.4,10.667,6.4s-8.533,7.467-18.133,3.2   C320,312.533,316.8,304,316.8,304z"/>
	<path style="fill:#E8EAE9;" d="M225.067,289.067c0,0,7.467,10.667,18.133,12.8c11.733,1.067,17.067-1.067,21.333-7.467   c0,0-3.2-7.467-12.8-6.4C242.133,290.133,233.6,291.2,225.067,289.067z"/>
</g>
<g>
	<path style="fill:#F7B64C;" d="M187.733,423.467c0,0,2.133,0,4.267-1.067c2.133-1.067,6.4-2.133,9.6-4.267   c3.2-2.133,6.4-4.267,8.533-5.333c2.133-1.067,4.267-3.2,4.267-3.2s-1.067,1.067-3.2,3.2c-2.133,2.133-5.333,4.267-8.533,6.4   c-3.2,2.133-6.4,3.2-9.6,4.267c-3.2,1.067-4.267,1.067-4.267,1.067L187.733,423.467z"/>
	<path style="fill:#F7B64C;" d="M200.533,438.4c0,0,1.067,0,1.067-1.067c1.067-1.067,2.133-1.067,4.267-3.2   c3.2-2.133,7.467-5.333,10.667-9.6c3.2-3.2,7.467-7.467,9.6-10.667c1.067-1.067,2.133-3.2,3.2-4.267   c1.067-1.067,1.067-1.067,1.067-1.067s0,1.067-1.067,2.133c0,1.067-1.067,2.133-2.133,4.267c-2.133,3.2-5.333,7.467-8.533,11.733   c-4.267,4.267-8.533,6.4-11.733,8.533C202.667,437.333,200.533,438.4,200.533,438.4z"/>
	<path style="fill:#F7B64C;" d="M215.467,448c0,0,0-1.067,0-2.133c0-1.067,1.067-2.133,1.067-4.267   c1.067-2.133,1.067-4.267,3.2-5.333c1.067-2.133,2.133-4.267,4.267-6.4c3.2-4.267,6.4-7.467,8.533-10.667   c2.133-3.2,4.267-4.267,4.267-4.267s-1.067,2.133-3.2,5.333c-2.133,3.2-5.333,6.4-8.533,10.667   c-3.2,4.267-5.333,7.467-7.467,11.733c-1.067,2.133-1.067,3.2-2.133,4.267C215.467,446.933,215.467,448,215.467,448z"/>
	<path style="fill:#F7B64C;" d="M209.067,439.467c0,0,1.067-1.067,3.2-2.133c2.133-1.067,4.267-2.133,6.4-4.267   c2.133-2.133,4.267-3.2,6.4-4.267c1.067-1.067,3.2-2.133,3.2-2.133s-1.067,1.067-2.133,3.2c-1.067,2.133-3.2,4.267-5.333,5.333   c-2.133,2.133-5.333,3.2-6.4,3.2C210.133,439.467,209.067,439.467,209.067,439.467z"/>
	<path style="fill:#F7B64C;" d="M259.2,297.6c0,0,2.133,3.2,5.333,8.533s6.4,12.8,10.667,20.267c2.133,3.2,3.2,7.467,5.333,10.667   c1.067,3.2,3.2,6.4,4.267,9.6c2.133,5.333,3.2,9.6,3.2,9.6l0,0c0,0-2.133-3.2-4.267-9.6c-1.067-3.2-3.2-6.4-4.267-9.6   c-1.067-3.2-3.2-7.467-5.333-10.667c-3.2-7.467-7.467-14.933-10.667-20.267c-3.2-5.333-5.333-8.533-5.333-8.533L259.2,297.6z"/>
	<path style="fill:#F7B64C;" d="M178.133,291.2c0,0-1.067,3.2-2.133,6.4c-1.067,4.267-3.2,9.6-6.4,13.867   c-2.133,5.333-5.333,9.6-7.467,13.867c-2.133,3.2-4.267,5.333-4.267,5.333s2.133-2.133,4.267-5.333   c2.133-3.2,5.333-8.533,7.467-13.867c2.133-5.333,4.267-10.667,5.333-14.933c1.067-4.267,2.133-6.4,2.133-6.4L178.133,291.2z"/>
	<path style="fill:#F7B64C;" d="M204.8,234.667c0,0,1.067,3.2,2.133,7.467c1.067,4.267,2.133,10.667,2.133,17.067   c0,2.133,0,3.2,0,5.333c0,1.067,0,3.2,0,4.267c0,3.2,1.067,5.333,2.133,7.467c1.067,2.133,1.067,4.267,2.133,5.333   c1.067,1.067,1.067,2.133,1.067,2.133s-2.133-2.133-5.333-6.4c-1.067-2.133-2.133-5.333-3.2-8.533c0-1.067,0-3.2,0-5.333   c0-1.067,0-3.2,0-4.267c0-6.4,0-12.8-1.067-17.067C204.8,237.867,204.8,234.667,204.8,234.667z"/>
	<path style="fill:#F7B64C;" d="M229.333,296.533c0,0-2.133,0-5.333,1.067s-6.4,2.133-10.667,3.2   c-7.467,3.2-14.933,7.467-14.933,7.467s1.067-1.067,4.267-3.2c2.133-2.133,6.4-4.267,9.6-5.333c4.267-2.133,7.467-3.2,10.667-3.2   c3.2-1.067,5.333-1.067,5.333-1.067L229.333,296.533z"/>
	<path style="fill:#F7B64C;" d="M182.4,277.333c0,1.067,1.067,1.067,1.067,2.133c0,1.067,0,1.067,1.067,2.133   c1.067,1.067,2.133,1.067,3.2,1.067c3.2,0,6.4,1.067,8.533,1.067h4.267c1.067,0,3.2,0,4.267,0c3.2,0,6.4,0,9.6,0   c3.2,1.067,6.4,3.2,8.533,4.267c2.133,2.133,5.333,4.267,7.467,6.4c2.133,2.133,4.267,4.267,7.467,5.333   c2.133,1.067,5.333,2.133,8.533,2.133c3.2,0,5.333,0,8.533-2.133c1.067-1.067,2.133-1.067,3.2-2.133   c1.067-1.067,2.133-2.133,4.267-3.2c1.067-1.067,4.267-1.067,5.333,0c2.133,1.067,3.2,3.2,3.2,4.267c2.133,2.133,3.2,4.267,6.4,6.4   c2.133,2.133,5.333,3.2,7.467,3.2c3.2,1.067,6.4,1.067,9.6,1.067c5.333-1.067,11.733-3.2,14.933-8.533v-1.067h1.067   c4.267,1.067,6.4,3.2,8.533,5.333s4.267,5.333,6.4,7.467s5.333,4.267,7.467,4.267c3.2,0,6.4,0,8.533-1.067   c3.2-1.067,5.333-3.2,7.467-5.333c2.133-2.133,3.2-5.333,4.267-8.533c2.133-6.4,2.133-12.8,1.067-19.2V281.6h1.067   c8.533,2.133,18.133,2.133,27.733,1.067c9.6-1.067,18.133-3.2,26.667-6.4c-8.533,3.2-17.067,5.333-26.667,7.467   c-9.6,1.067-18.133,1.067-27.733,0l1.067-1.067c1.067,6.4,1.067,13.867-1.067,20.267c-2.133,6.4-6.4,12.8-12.8,14.933   c-3.2,1.067-6.4,2.133-10.667,1.067c-3.2,0-7.467-2.133-9.6-5.333c-2.133-2.133-4.267-5.333-6.4-7.467   c-2.133-2.133-4.267-4.267-7.467-4.267h1.067c-4.267,5.333-10.667,8.533-17.067,8.533c-3.2,0-6.4,0-9.6-1.067   c-3.2-1.067-6.4-2.133-8.533-4.267c-2.133-2.133-5.333-4.267-6.4-7.467c-1.067-1.067-2.133-2.133-2.133-3.2c-1.067,0-2.133,0-3.2,0   c-1.067,1.067-2.133,1.067-3.2,2.133s-3.2,2.133-4.267,2.133c-3.2,1.067-6.4,2.133-9.6,2.133c-3.2,0-6.4-1.067-9.6-2.133   c-3.2-1.067-5.333-3.2-7.467-5.333c-2.133-2.133-4.267-4.267-7.467-6.4c-2.133-2.133-5.333-3.2-7.467-4.267   c-3.2-1.067-5.333-1.067-8.533,0c-1.067,0-3.2,0-4.267,0h-4.267c-3.2,0-6.4-1.067-9.6-1.067c-1.067,0-3.2,0-4.267-2.133   c-1.067,2.133-1.067,1.067-1.067,0s0-1.067-1.067-2.133H182.4z"/>
	<path style="fill:#F7B64C;" d="M226.133,445.867c0,0,24.533,4.267,41.6,2.133c-6.4,3.2-30.933,2.133-42.667,0L226.133,445.867z"/>
	<path style="fill:#F7B64C;" d="M292.267,438.4L292.267,438.4L292.267,438.4C293.333,438.4,292.267,438.4,292.267,438.4z    M376.533,440.533c-1.067,0-2.133,0-4.267,1.067c-5.333,0-9.6,0-14.933,1.067c-7.467,1.067-14.933,1.067-22.4,1.067   c-7.467-1.067-14.933,0-22.4-1.067c-6.4-1.067-12.8-2.133-19.2-3.2l0,0h-1.067l0,0c1.067,0,1.067,1.067,3.2,1.067   c2.133,1.067,5.333,2.133,9.6,3.2s8.533,2.133,13.867,2.133c5.333,0,10.667,1.067,16,1.067c5.333,0,11.733,0,16,0   c5.333,0,9.6-1.067,13.867-2.133c3.2-1.067,6.4-1.067,8.533-2.133c2.133,0,4.267-1.067,5.333-1.067   C380.8,440.533,378.667,440.533,376.533,440.533z"/>
</g>
<polygon style="fill:#415A6B;" points="318.933,41.6 256,104.533 194.133,41.6 225.067,41.6 225.067,0 288,0 288,41.6 "/>
<polygon style="fill:#F3705A;" points="147.2,54.4 147.2,142.933 58.667,142.933 81.067,121.6 51.2,91.733 96,46.933 124.8,76.8 "/>
<g>
	<polygon style="fill:#8AD7F8;" points="44.8,189.867 107.733,251.733 44.8,314.667 44.8,283.733 3.2,283.733 3.2,220.8 44.8,220.8     "/>
	<polygon style="fill:#8AD7F8;" points="467.2,315.733 404.267,252.8 467.2,190.933 467.2,221.867 508.8,221.867 508.8,284.8    467.2,284.8  "/>
</g>
<polygon style="fill:#F3705A;" points="449.067,148.267 361.6,148.267 361.6,59.733 382.933,81.067 412.8,52.267 456.533,96   427.733,125.867 "/>
<g>
</g>
<g>
</g>
<g>
</g>
<g>
</g>
<g>
</g>
<g>
</g>
<g>
</g>
<g>
</g>
<g>
</g>
<g>
</g>
<g>
</g>
<g>
</g>
<g>
</g>
<g>
</g>
<g>
</g>
</svg>
