<?xml version="1.0" encoding="iso-8859-1"?>
<!-- Generator: Adobe Illustrator 19.0.0, SVG Export Plug-In . SVG Version: 6.00 Build 0)  -->
<svg xmlns="http://www.w3.org/2000/svg" xmlns:xlink="http://www.w3.org/1999/xlink" version="1.1" id="Layer_1" x="0px" y="0px" viewBox="0 0 512 512" style="enable-background:new 0 0 512 512;" xml:space="preserve">
<polygon style="fill:#415A6B;" points="128,462.933 133.333,512 103.467,512 109.867,462.933 100.267,454.4 118.4,436.267   136.533,454.4 "/>
<path style="fill:#8AD7F8;" d="M236.8,512l-3.2-30.933c-2.133-17.067-13.867-30.933-30.933-36.267l-34.133-9.6L140.8,512H236.8z"/>
<path style="fill:#F3F3F3;" d="M118.4,437.333c0,0,27.733-23.467,26.667-32L156.8,432l-13.867,35.2L118.4,437.333z"/>
<polygon style="fill:#55C0EB;" points="154.667,512 185.6,461.867 169.6,451.2 182.4,448 151.467,417.067 131.2,512 "/>
<path style="fill:#8AD7F8;" d="M97.067,512l-28.8-76.8l-34.133,9.6c-16,5.333-28.8,19.2-30.933,36.267L0,512H97.067z"/>
<path style="fill:#F3F3F3;" d="M118.4,437.333c0,0-27.733-23.467-26.667-32L80,432l13.867,35.2L118.4,437.333z"/>
<polygon style="fill:#55C0EB;" points="83.2,512 106.667,512 86.4,417.067 54.4,448 68.267,451.2 52.267,461.867 "/>
<path style="fill:#F7B64C;" d="M145.067,374.4H91.733v30.933c-1.067,8.533,26.667,32,26.667,32s27.733-23.467,26.667-32V374.4z"/>
<g>
	<path style="fill:#FFD15C;" d="M172.8,356.267c-2.133,9.6-8.533,17.067-13.867,16c-5.333-1.067-8.533-9.6-6.4-20.267   c2.133-10.667,8.533-17.067,13.867-16C171.733,337.067,174.933,346.667,172.8,356.267z"/>
	<path style="fill:#FFD15C;" d="M64,356.267c2.133,9.6,8.533,17.067,13.867,16c5.333-1.067,8.533-9.6,6.4-20.267   c-2.133-10.667-8.533-17.067-13.867-16C65.067,337.067,61.867,346.667,64,356.267z"/>
	<ellipse style="fill:#FFD15C;" cx="118.4" cy="344.533" rx="44.8" ry="68.267"/>
</g>
<path style="fill:#415A6B;" d="M76.8,355.2l3.2-30.933c0,0,12.8-3.2,25.6-20.267c0,0-2.133,16-19.2,20.267c0,0,12.8,0,25.6-14.933  c10.667,11.733,26.667,18.133,46.933,18.133c0,0,4.267,13.867,4.267,28.8h2.133c9.6-33.067,14.933-71.467-29.867-76.8  c0,0-38.4-23.467-59.733,4.267c-4.267,6.4-7.467,13.867-7.467,21.333c-1.067,10.667,0,26.667,8.533,51.2h0V355.2z"/>
<path style="fill:#F3705A;" d="M379.733,141.867V105.6l-29.867-6.4c-2.133-8.533-5.333-17.067-10.667-25.6L356.267,48l-25.6-24.533  l-25.6,17.067c-7.467-4.267-16-8.533-25.6-10.667L274.133,0h-36.267l-6.4,29.867C222.933,32,214.4,35.2,205.867,40.533  l-24.533-17.067l-25.6,25.6l16,25.6c-4.267,7.467-8.533,16-10.667,25.6l-29.867,6.4v36.267l29.867,6.4  c2.133,8.533,5.333,17.067,10.667,25.6l-17.067,25.6l25.6,25.6l25.6-17.067c7.467,4.267,16,8.533,25.6,10.667l6.4,29.867h36.267  l6.4-29.867c8.533-2.133,17.067-5.333,25.6-10.667l25.6,17.067l25.6-25.6l-17.067-25.6c4.267-7.467,8.533-16,10.667-25.6  L379.733,141.867z M256,156.8c-18.133,0-32-14.933-32-32c0-18.133,14.933-32,32-32s32,14.933,32,32S274.133,156.8,256,156.8z"/>
<path style="fill:#F05540;" d="M256,64c-33.067,0-59.733,26.667-59.733,59.733s26.667,59.733,59.733,59.733  s59.733-26.667,59.733-59.733S289.067,64,256,64z M256,156.8c-18.133,0-32-14.933-32-32c0-18.133,14.933-32,32-32  c18.133,0,32,14.933,32,32S274.133,156.8,256,156.8z"/>
<path style="fill:#415A6B;" d="M306.133,395.733L306.133,395.733c-3.2,3.2-8.533,3.2-11.733,0l-38.4-38.4L216.533,396.8  c-3.2,3.2-8.533,3.2-11.733,0l0,0c-3.2-3.2-3.2-8.533,0-11.733l42.667-42.667v-59.733c0-4.267,3.2-7.467,7.467-7.467l0,0  c4.267,0,7.467,3.2,7.467,7.467V342.4l42.667,42.667C309.333,388.267,309.333,392.533,306.133,395.733z"/>
<path style="fill:#F7B64C;" d="M345.6,379.733v21.333c2.133,17.067,33.067,36.267,33.067,36.267s30.933-19.2,33.067-36.267v-21.333  H345.6z"/>
<path style="fill:#344A5E;" d="M512,512H245.333c7.467-57.6,21.333-60.8,21.333-60.8l60.8-28.8l51.2,16l50.133-16l60.8,28.8  C490.667,451.2,504.533,454.4,512,512z"/>
<polygon style="fill:#CED6E0;" points="408.533,512 409.6,428.8 378.667,438.4 348.8,428.8 349.867,512 "/>
<polygon style="fill:#F3705A;" points="356.267,512 401.067,512 387.2,467.2 395.733,455.467 378.667,438.4 361.6,455.467   370.133,467.2 "/>
<polygon style="fill:#E8EAE9;" points="378.667,437.333 411.733,401.067 423.467,421.333 402.133,467.2 "/>
<polygon style="fill:#415A6B;" points="416,512 446.933,456.533 429.867,448 448,439.467 418.133,411.733 393.6,512 "/>
<polygon style="fill:#E8EAE9;" points="378.667,437.333 345.6,401.067 334.933,421.333 356.267,467.2 "/>
<polygon style="fill:#415A6B;" points="310.4,456.533 342.4,512 363.733,512 340.267,411.733 309.333,439.467 327.467,448 "/>
<g>
	<path style="fill:#FFD15C;" d="M437.333,354.133c-3.2,9.6-9.6,17.067-14.933,16s-8.533-9.6-5.333-19.2   c2.133-9.6,9.6-17.067,14.933-16C437.333,334.933,439.467,343.467,437.333,354.133z"/>
	<path style="fill:#FFD15C;" d="M321.067,354.133c3.2,9.6,9.6,17.067,14.933,16c5.333-1.067,8.533-9.6,5.333-19.2   c-2.133-9.6-9.6-17.067-14.933-16C320,334.933,317.867,343.467,321.067,354.133z"/>
</g>
<g>
	<path style="fill:#415A6B;" d="M379.733,327.467c0,26.667-10.667,48-25.6,48c-14.933,0-27.733-21.333-28.8-48   c-1.067-28.8,9.6-52.267,25.6-52.267C365.867,275.2,378.667,299.733,379.733,327.467z"/>
	<path style="fill:#415A6B;" d="M433.067,329.6c-1.067,34.133-22.4,59.733-46.933,59.733c-25.6,0-46.933-26.667-48-59.733   c-1.067-35.2,20.267-65.067,46.933-65.067C412.8,263.467,434.133,294.4,433.067,329.6z"/>
</g>
<path style="fill:#FFD15C;" d="M403.2,321.067c-24.533,0-42.667-7.467-56.533-19.2c-9.6,10.667-16,25.6-16,42.667  c-1.067,34.133,21.333,62.933,49.067,62.933c27.733,0,50.133-28.8,49.067-62.933c0-9.6-2.133-18.133-5.333-25.6  C416,320,409.6,321.067,403.2,321.067z"/>
<g>
</g>
<g>
</g>
<g>
</g>
<g>
</g>
<g>
</g>
<g>
</g>
<g>
</g>
<g>
</g>
<g>
</g>
<g>
</g>
<g>
</g>
<g>
</g>
<g>
</g>
<g>
</g>
<g>
</g>
</svg>
