<?xml version="1.0" encoding="iso-8859-1"?>
<!-- Generator: Adobe Illustrator 19.0.0, SVG Export Plug-In . SVG Version: 6.00 Build 0)  -->
<svg xmlns="http://www.w3.org/2000/svg" xmlns:xlink="http://www.w3.org/1999/xlink" version="1.1" id="Layer_1" x="0px" y="0px" viewBox="0 0 512 512" style="enable-background:new 0 0 512 512;" xml:space="preserve">
<g>
	<path style="fill:#66C6B9;" d="M403.2,408.533c24.533-27.733,55.467-166.4,55.467-166.4s-133.333,48-157.867,75.733   c-24.533,27.733-22.4,71.467,6.4,96C336,438.4,377.6,437.333,403.2,408.533z"/>
	<path style="fill:#66C6B9;" d="M101.333,363.733c-21.333-24.533-48-141.867-48-141.867s113.067,40.533,134.4,65.067   c21.333,24.533,19.2,60.8-5.333,82.133C157.867,390.4,122.667,388.267,101.333,363.733z"/>
</g>
<polygon style="fill:#415A6B;" points="389.333,368 337.067,385.067 352,368 352,368 352,368 414.933,292.267 354.133,356.267   365.867,300.8 344.533,366.933 344.533,366.933 251.733,466.133 251.733,260.267 230.4,260.267 230.4,412.8 150.4,327.467   150.4,327.467 132.267,270.933 141.867,318.933 90.667,263.467 144,328.533 144,329.6 145.067,329.6 156.8,343.467 112,328.533   164.267,353.067 230.4,432 230.4,512 251.733,512 251.733,488.533 328.533,395.733 "/>
<circle style="fill:#FFD15C;" cx="241.067" cy="138.667" r="138.667"/>
<circle style="fill:#F7B64C;" cx="241.067" cy="138.667" r="104.533"/>
<path style="fill:#FFD15C;" d="M233.6,210.133v-12.8c-14.933-2.133-28.8-8.533-40.533-20.267l16-19.2  c8.533,7.467,17.067,12.8,24.533,14.933v-25.6c-11.733-3.2-21.333-7.467-26.667-12.8c-5.333-5.333-8.533-12.8-8.533-22.4  s3.2-18.133,9.6-24.533c6.4-6.4,14.933-10.667,25.6-11.733V67.2h18.133v8.533c11.733,2.133,23.467,6.4,34.133,14.933L272,110.933  c-7.467-5.333-13.867-8.533-20.267-10.667V124.8c12.8,3.2,21.333,7.467,27.733,12.8c6.4,5.333,8.533,12.8,8.533,23.467  c0,9.6-3.2,18.133-9.6,24.533c-6.4,6.4-16,10.667-26.667,11.733v11.733H233.6V210.133z M233.6,100.267  c-5.333,2.133-7.467,5.333-7.467,9.6s2.133,8.533,7.467,10.667V100.267z M261.333,163.2c0-2.133-1.067-4.267-2.133-6.4  c-1.067-2.133-3.2-3.2-7.467-4.267v21.333C258.133,172.8,261.333,168.533,261.333,163.2z"/>
<g>
</g>
<g>
</g>
<g>
</g>
<g>
</g>
<g>
</g>
<g>
</g>
<g>
</g>
<g>
</g>
<g>
</g>
<g>
</g>
<g>
</g>
<g>
</g>
<g>
</g>
<g>
</g>
<g>
</g>
</svg>
