<?xml version="1.0" encoding="iso-8859-1"?>
<!-- Generator: Adobe Illustrator 19.0.0, SVG Export Plug-In . SVG Version: 6.00 Build 0)  -->
<svg xmlns="http://www.w3.org/2000/svg" xmlns:xlink="http://www.w3.org/1999/xlink" version="1.1" id="Layer_1" x="0px" y="0px" viewBox="0 0 512 512" style="enable-background:new 0 0 512 512;" xml:space="preserve">
<path style="fill:#415A6B;" d="M458.667,155.733H53.333c-11.733,0-21.333,9.6-21.333,21.333v284.8h448V176  C480,164.267,470.4,155.733,458.667,155.733z"/>
<rect x="64" y="186.667" style="fill:#8AD7F8;" width="385.067" height="242.133"/>
<path style="fill:#E8EAE9;" d="M512,460.8L512,460.8H0l0,0C0,488.533,23.467,512,51.2,512h409.6C488.533,512,512,488.533,512,460.8z  "/>
<polygon style="fill:#CED6E0;" points="305.067,483.2 206.933,483.2 195.2,460.8 316.8,460.8 "/>
<path style="fill:#F3F3F3;" d="M390.4,394.667H121.6c-11.733,0-21.333-9.6-21.333-21.333v-352C100.267,9.6,109.867,0,121.6,0h268.8  c11.733,0,21.333,9.6,21.333,21.333v352C411.733,385.067,402.133,394.667,390.4,394.667z"/>
<g>
	<rect x="142.933" y="44.8" style="fill:#CED6E0;" width="226.133" height="21.333"/>
	<rect x="142.933" y="116.267" style="fill:#CED6E0;" width="100.267" height="21.333"/>
	<rect x="142.933" y="186.667" style="fill:#CED6E0;" width="226.133" height="21.333"/>
	<rect x="142.933" y="258.133" style="fill:#CED6E0;" width="226.133" height="21.333"/>
	<rect x="142.933" y="328.533" style="fill:#CED6E0;" width="226.133" height="21.333"/>
</g>
<circle style="fill:#FFFFFF;" cx="316.8" cy="236.8" r="100.267"/>
<rect x="376.512" y="296.499" transform="matrix(-0.7071 0.7071 -0.7071 -0.7071 910.3428 263.921)" style="fill:#344A5E;" width="48" height="48"/>
<path style="fill:#415A6B;" d="M396.8,316.8c-43.733,43.733-115.2,43.733-160,0s-43.733-115.2,0-160  c43.733-43.733,115.2-43.733,160,0S440.533,273.067,396.8,316.8z M254.933,174.933c-34.133,34.133-34.133,89.6,0,123.733  s89.6,34.133,123.733,0s34.133-89.6,0-123.733S289.067,140.8,254.933,174.933z"/>
<path style="fill:#F3705A;" d="M401.067,377.6l43.733,43.733c14.933,14.933,40.533,14.933,55.467,0l0,0  c14.933-14.933,14.933-40.533,0-55.467l-43.733-43.733L401.067,377.6z"/>
<rect x="425.524" y="318.987" transform="matrix(-0.7071 -0.7071 0.7071 -0.7071 493.891 921.4833)" style="fill:#F05540;" width="24.533" height="78.933"/>
<path style="fill:#F3705A;" d="M461.867,331.733l-51.2,51.2c-7.467,7.467-19.2,7.467-26.667,0s-7.467-19.2,0-26.667l51.2-51.2  c7.467-7.467,19.2-7.467,26.667,0C469.333,312.533,469.333,324.267,461.867,331.733z"/>
<path style="fill:#4EC0AA;" d="M368,198.4c-3.2-2.133-8.533-1.067-11.733,1.067L296.533,259.2L272,234.667  c-3.2-3.2-9.6-3.2-13.867,0c-3.2,3.2-3.2,9.6,0,13.867l30.933,30.933c3.2,3.2,9.6,3.2,13.867,0l66.133-66.133  C374.4,209.067,373.333,201.6,368,198.4z"/>
<g>
</g>
<g>
</g>
<g>
</g>
<g>
</g>
<g>
</g>
<g>
</g>
<g>
</g>
<g>
</g>
<g>
</g>
<g>
</g>
<g>
</g>
<g>
</g>
<g>
</g>
<g>
</g>
<g>
</g>
</svg>
