<?xml version="1.0" encoding="iso-8859-1"?>
<!-- Generator: Adobe Illustrator 19.0.0, SVG Export Plug-In . SVG Version: 6.00 Build 0)  -->
<svg xmlns="http://www.w3.org/2000/svg" xmlns:xlink="http://www.w3.org/1999/xlink" version="1.1" id="Layer_1" x="0px" y="0px" viewBox="0 0 512 512" style="enable-background:new 0 0 512 512;" xml:space="preserve">
<path style="fill:#F3F3F3;" d="M395.738,0H32.004c-18.133,0-32,13.867-32,32v448c0,18.133,13.867,32,32,32h363.733  c18.133,0,32-13.867,32-32V32C427.738,13.867,412.804,0,395.738,0z"/>
<path style="fill:#F3705A;" d="M218.671,115.2h-40.533c-2.133,0-4.267,1.067-5.333,3.2l-23.467,36.267l-18.133-96  c-1.067-3.2-3.2-5.333-6.4-5.333c-3.2,0-5.333,1.067-6.4,4.267l-25.6,58.667H59.738c-3.2,0-6.4,3.2-6.4,6.4c0,3.2,3.2,6.4,6.4,6.4  h37.333c2.133,0,5.333-1.067,6.4-4.267l18.133-42.667l17.067,91.733c0,3.2,2.133,4.267,5.333,5.333h1.067  c2.133,0,4.267-1.067,5.333-3.2l29.867-46.933h36.267V115.2H218.671z"/>
<rect x="60.804" y="382.933" style="fill:#415A6B;" width="46.933" height="75.733"/>
<rect x="147.204" y="325.333" style="fill:#F3705A;" width="46.933" height="133.333"/>
<rect x="233.604" y="354.133" style="fill:#FFD15C;" width="46.933" height="104.533"/>
<rect x="318.938" y="281.6" style="fill:#66C6B9;" width="46.933" height="177.067"/>
<rect x="376.92" y="185.397" transform="matrix(-0.7071 0.7071 -0.7071 -0.7071 824.7534 70.7687)" style="fill:#344A5E;" width="41.6" height="41.6"/>
<circle style="fill:#FFFFFF;" cx="313.604" cy="122.667" r="100.267"/>
<path style="fill:#F3705A;" d="M292.271,183.467C292.271,183.467,291.204,183.467,292.271,183.467c-5.333,0-9.6-3.2-10.667-7.467  l-16-58.667l-4.267,9.6c-2.133,4.267-5.333,6.4-9.6,6.4h-34.133c-6.4,0-10.667-4.267-10.667-10.667S211.204,112,217.604,112h26.667  l13.867-29.867c2.133-4.267,6.4-6.4,10.667-6.4s8.533,3.2,9.6,7.467l16,59.733l12.8-25.6c2.133-3.2,5.333-6.4,9.6-6.4h35.2  c6.4,0,10.667,4.267,10.667,10.667s-4.267,10.667-10.667,10.667h-27.733L301.871,176  C299.738,181.333,296.538,183.467,292.271,183.467z"/>
<path style="fill:#415A6B;" d="M393.604,202.667c-43.733,43.733-115.2,43.733-160,0s-43.733-115.2,0-160  c43.733-43.733,115.2-43.733,160,0S437.338,157.867,393.604,202.667z M251.738,60.8c-34.133,34.133-34.133,89.6,0,123.733  s89.6,34.133,123.733,0s34.133-89.6,0-123.733S285.871,26.667,251.738,60.8z"/>
<path style="fill:#F3705A;" d="M489.604,236.8l-46.933-27.733l-41.6,41.6l27.733,46.933c14.933,25.6,50.133,29.867,70.4,9.6l0,0  C519.471,286.933,515.204,251.733,489.604,236.8z"/>
<polygon style="fill:#F05540;" points="459.738,219.733 442.671,209.067 401.071,250.667 411.738,268.8 "/>
<path style="fill:#F3705A;" d="M448.004,219.733L410.671,256c-7.467,7.467-19.2,7.467-26.667,0s-7.467-19.2,0-26.667L421.338,192  c7.467-7.467,19.2-7.467,26.667,0S455.471,212.267,448.004,219.733z"/>
<g>
</g>
<g>
</g>
<g>
</g>
<g>
</g>
<g>
</g>
<g>
</g>
<g>
</g>
<g>
</g>
<g>
</g>
<g>
</g>
<g>
</g>
<g>
</g>
<g>
</g>
<g>
</g>
<g>
</g>
</svg>
