<?xml version="1.0" encoding="iso-8859-1"?>
<!-- Generator: Adobe Illustrator 19.0.0, SVG Export Plug-In . SVG Version: 6.00 Build 0)  -->
<svg xmlns="http://www.w3.org/2000/svg" xmlns:xlink="http://www.w3.org/1999/xlink" version="1.1" id="Layer_1" x="0px" y="0px" viewBox="0 0 512 512" style="enable-background:new 0 0 512 512;" xml:space="preserve">
<path style="fill:#F7B64C;" d="M166.4,235.733v59.733c0,27.733,94.933,27.733,94.933,0v-59.733H166.4z"/>
<g>
	
		<ellipse transform="matrix(0.1465 -0.9892 0.9892 0.1465 99.7206 431.1355)" style="fill:#FFD15C;" cx="299.705" cy="157.779" rx="25.6" ry="17.066"/>
	
		<ellipse transform="matrix(0.1465 0.9892 -0.9892 0.1465 264.143 8.6765)" style="fill:#FFD15C;" cx="127.043" cy="157.41" rx="25.6" ry="17.066"/>
</g>
<path style="fill:#415A6B;" d="M313.6,94.933c0,94.933-44.8,116.267-99.2,116.267s-99.2-21.333-99.2-116.267  C114.133,42.667,158.933,0,213.333,0S313.6,42.667,313.6,94.933z"/>
<path style="fill:#FFD15C;" d="M238.933,66.133c-23.467,27.733-58.667,46.933-105.6,46.933c-2.133,0-4.267,0-6.4,0  c-2.133,9.6-2.133,18.133-2.133,27.733c0,66.133,39.467,119.467,88.533,119.467s88.533-53.333,88.533-119.467  c0-11.733-1.067-23.467-4.267-35.2C274.133,99.2,253.867,84.267,238.933,66.133z"/>
<path style="fill:#415A6B;" d="M427.733,436.267H0l27.733-92.8c6.4-20.267,22.4-36.267,42.667-42.667l78.933-23.467l62.933,21.333  l62.933-21.333l78.933,23.467c20.267,6.4,37.333,22.4,42.667,42.667L427.733,436.267z"/>
<polygon style="fill:#E8EAE9;" points="168.533,315.733 213.333,298.667 263.467,312.533 224,436.267 203.733,436.267 "/>
<g>
	<polygon style="fill:#F3705A;" points="228.267,342.4 242.133,327.467 213.333,298.667 184.533,327.467 199.467,342.4  "/>
	<polygon style="fill:#F3705A;" points="242.133,436.267 185.6,436.267 199.467,342.4 228.267,342.4  "/>
</g>
<polygon style="fill:#F3F3F3;" points="261.333,246.4 277.333,278.4 245.333,344.533 213.333,298.667 "/>
<polygon style="fill:#344A5E;" points="277.333,313.6 302.933,334.933 252.8,436.267 224,436.267 268.8,262.4 311.467,302.933 "/>
<polygon style="fill:#F3F3F3;" points="166.4,246.4 150.4,278.4 182.4,344.533 213.333,298.667 "/>
<polygon style="fill:#344A5E;" points="203.733,436.267 173.867,436.267 124.8,334.933 150.4,313.6 116.267,302.933 157.867,262.4   "/>
<circle style="fill:#FFFFFF;" cx="378.667" cy="378.667" r="117.333"/>
<path style="fill:#8AD7F8;" d="M378.667,512c-73.6,0-133.333-59.733-133.333-133.333s59.733-133.333,133.333-133.333  S512,305.067,512,378.667S452.267,512,378.667,512z M378.667,277.333c-55.467,0-101.333,45.867-101.333,101.333  S323.2,480,378.667,480S480,434.133,480,378.667S434.133,277.333,378.667,277.333z"/>
<g>
	<path style="fill:#F3705A;" d="M392.533,406.4h-28.8v-13.867c0-5.333,1.067-8.533,2.133-11.733c1.067-2.133,4.267-6.4,8.533-10.667   l12.8-12.8c2.133-2.133,3.2-5.333,3.2-8.533s-1.067-6.4-3.2-8.533c-2.133-2.133-4.267-3.2-7.467-3.2c-3.2,0-6.4,1.067-8.533,4.267   c-2.133,3.2-3.2,6.4-4.267,11.733h-29.867c1.067-12.8,6.4-22.4,13.867-29.867c7.467-7.467,18.133-10.667,29.867-10.667   c11.733,0,21.333,3.2,28.8,9.6c7.467,6.4,10.667,14.933,10.667,26.667c0,5.333-1.067,8.533-2.133,11.733   c-1.067,0-2.133,1.067-2.133,2.133s-2.133,3.2-3.2,5.333c-2.133,2.133-3.2,3.2-3.2,4.267c-3.2,3.2-6.4,5.333-8.533,8.533   c-3.2,2.133-4.267,5.333-5.333,6.4c-1.067,2.133-1.067,4.267-1.067,7.467V406.4H392.533z"/>
	<circle style="fill:#F3705A;" cx="378.667" cy="429.867" r="17.067"/>
</g>
<g>
</g>
<g>
</g>
<g>
</g>
<g>
</g>
<g>
</g>
<g>
</g>
<g>
</g>
<g>
</g>
<g>
</g>
<g>
</g>
<g>
</g>
<g>
</g>
<g>
</g>
<g>
</g>
<g>
</g>
</svg>
