<?xml version="1.0" encoding="iso-8859-1"?>
<!-- Generator: Adobe Illustrator 19.0.0, SVG Export Plug-In . SVG Version: 6.00 Build 0)  -->
<svg xmlns="http://www.w3.org/2000/svg" xmlns:xlink="http://www.w3.org/1999/xlink" version="1.1" id="Layer_1" x="0px" y="0px" viewBox="0 0 512.546 512.546" style="enable-background:new 0 0 512.546 512.546;" xml:space="preserve">
<path style="fill:#F7B64C;" d="M479.207,149.607V58.94c0-11.733-9.6-21.333-21.333-21.333H168.807l-25.6-29.867  c-4.267-4.267-9.6-7.467-16-7.467H54.673c-11.733,0-21.333,9.6-21.333,21.333v128H479.207z"/>
<path style="fill:#FFD15C;" d="M0.273,174.14L30.14,389.607c1.067,10.667,10.667,18.133,21.333,18.133h408.533  c10.667,0,20.267-7.467,21.333-18.133l30.933-215.467c2.133-12.8-8.533-24.533-21.333-24.533H21.607  C8.807,149.607-1.86,161.34,0.273,174.14z"/>
<path style="fill:#FFFFFF;" d="M495.207,245.607v135.467c0,62.933-114.133,114.133-114.133,114.133s-114.133-51.2-114.133-114.133  V245.607c58.667-7.467,114.133-45.867,114.133-45.867S436.54,238.14,495.207,245.607z"/>
<path style="fill:#8AD7F8;" d="M381.073,512.273c-2.133,0-5.333,0-7.467-1.067c-12.8-5.333-124.8-57.6-124.8-130.133V245.607  c0-8.533,6.4-16,14.933-17.067c53.333-6.4,105.6-42.667,106.667-42.667c6.4-4.267,13.867-4.267,20.267,0  c0,0,53.333,36.267,106.667,42.667c8.533,1.067,14.933,8.533,14.933,17.067v135.467c0,72.533-112,124.8-124.8,130.133  C385.34,512.273,383.207,512.273,381.073,512.273z M284.007,260.54v120.533c0,38.4,65.067,78.933,97.067,94.933  c30.933-16,97.067-56.533,97.067-94.933V260.54c-41.6-8.533-78.933-28.8-97.067-39.467  C362.94,230.673,325.607,252.007,284.007,260.54z"/>
<path style="fill:#CED6E0;" d="M356.54,329.873v-32c0-12.8,10.667-24.533,24.533-24.533c12.8,0,24.533,10.667,24.533,24.533v32h16  v-32c0-21.333-18.133-39.467-39.467-39.467c-21.333,0-39.467,18.133-39.467,39.467v32H356.54z"/>
<path style="fill:#415A6B;" d="M428.007,324.54h-94.933c-5.333,0-8.533,4.267-8.533,8.533v69.333c0,5.333,4.267,8.533,8.533,8.533  h94.933c5.333,0,8.533-4.267,8.533-8.533v-69.333C437.607,328.807,433.34,324.54,428.007,324.54z"/>
<g>
</g>
<g>
</g>
<g>
</g>
<g>
</g>
<g>
</g>
<g>
</g>
<g>
</g>
<g>
</g>
<g>
</g>
<g>
</g>
<g>
</g>
<g>
</g>
<g>
</g>
<g>
</g>
<g>
</g>
</svg>
