<?xml version="1.0" encoding="iso-8859-1"?>
<!-- Generator: Adobe Illustrator 19.0.0, SVG Export Plug-In . SVG Version: 6.00 Build 0)  -->
<svg xmlns="http://www.w3.org/2000/svg" xmlns:xlink="http://www.w3.org/1999/xlink" version="1.1" id="Layer_1" x="0px" y="0px" viewBox="0 0 512 512" style="enable-background:new 0 0 512 512;" xml:space="preserve">
<path style="fill:#F3F3F3;" d="M440.533,0H71.467c-18.133,0-32,13.867-32,32v448c0,18.133,13.867,32,32,32h369.067  c18.133,0,32-13.867,32-32V32C472.533,13.867,458.667,0,440.533,0z"/>
<g>
	<rect x="252.8" y="53.333" style="fill:#CED6E0;" width="165.333" height="28.8"/>
	<rect x="252.8" y="132.267" style="fill:#CED6E0;" width="165.333" height="28.8"/>
	<rect x="285.867" y="210.133" style="fill:#CED6E0;" width="132.267" height="28.8"/>
	<rect x="285.867" y="288" style="fill:#CED6E0;" width="132.267" height="28.8"/>
	<rect x="285.867" y="365.867" style="fill:#CED6E0;" width="132.267" height="28.8"/>
	<rect x="285.867" y="443.733" style="fill:#CED6E0;" width="132.267" height="28.8"/>
</g>
<g>
	<path style="fill:#F3705A;" d="M201.6,292.267c0,9.6-3.2,18.133-8.533,24.533H131.2c-5.333-6.4-8.533-14.933-8.533-24.533   c0-19.2,13.867-35.2,32-39.467v-17.067H140.8V220.8h13.867v-16H169.6v16h13.867v14.933H169.6V252.8   C187.733,256,201.6,272,201.6,292.267z"/>
	<path style="fill:#F3705A;" d="M242.133,469.333c-1.067-12.8-10.667-22.4-23.467-22.4H105.6c-12.8,0-23.467,10.667-23.467,22.4   H242.133z"/>
	<path style="fill:#F3705A;" d="M217.6,426.667H106.667c20.267-23.467,21.333-57.6,23.467-93.867H195.2   C195.2,369.067,197.333,403.2,217.6,426.667z"/>
</g>
<g>
	<path style="fill:#F05540;" d="M117.333,323.2L117.333,323.2c0,5.333,4.267,9.6,9.6,9.6H195.2c5.333,0,9.6-4.267,9.6-9.6l0,0   c0-5.333-4.267-9.6-9.6-9.6H128C122.667,312.533,117.333,317.867,117.333,323.2z"/>
	<path style="fill:#F05540;" d="M217.6,426.667H106.667c-6.4,0-10.667,4.267-10.667,9.6s4.267,9.6,9.6,9.6h110.933   c5.333,0,9.6-4.267,9.6-9.6C227.2,430.933,222.933,426.667,217.6,426.667z"/>
</g>
<rect x="93.867" y="53.333" style="fill:#CED6E0;" width="125.867" height="106.667"/>
<g>
</g>
<g>
</g>
<g>
</g>
<g>
</g>
<g>
</g>
<g>
</g>
<g>
</g>
<g>
</g>
<g>
</g>
<g>
</g>
<g>
</g>
<g>
</g>
<g>
</g>
<g>
</g>
<g>
</g>
</svg>
