<?xml version="1.0" encoding="iso-8859-1"?>
<!-- Generator: Adobe Illustrator 19.0.0, SVG Export Plug-In . SVG Version: 6.00 Build 0)  -->
<svg xmlns="http://www.w3.org/2000/svg" xmlns:xlink="http://www.w3.org/1999/xlink" version="1.1" id="Layer_1" x="0px" y="0px" viewBox="0 0 512 512" style="enable-background:new 0 0 512 512;" xml:space="preserve">
<path style="fill:#344A5E;" d="M231.467,423.467C236.8,432,245.333,437.333,256,437.333c10.667,0,19.2-5.333,24.533-13.867H231.467z  "/>
<path style="fill:#FFD15C;" d="M300.8,369.067c5.333-19.2,16-36.267,29.867-51.2c19.2-19.2,32-45.867,32-75.733  c0-60.8-51.2-109.867-112-106.667c-55.467,3.2-99.2,48-101.333,103.467c-1.067,30.933,11.733,58.667,32,78.933  c13.867,13.867,24.533,32,29.867,51.2H300.8z"/>
<path style="fill:#415A6B;" d="M286.933,425.6h-60.8c-7.467,0-14.933-6.4-14.933-14.933V368h90.667v42.667  C300.8,419.2,294.4,425.6,286.933,425.6z"/>
<g>
	<path style="fill:#344A5E;" d="M300.8,379.733h-90.667c-6.4,0-10.667-5.333-10.667-10.667c0-5.333,5.333-10.667,10.667-10.667   H300.8c6.4,0,10.667,5.333,10.667,10.667C311.467,374.4,307.2,379.733,300.8,379.733z"/>
	<path style="fill:#344A5E;" d="M300.8,416h-90.667c-6.4,0-10.667-5.333-10.667-10.667c0-6.4,5.333-10.667,10.667-10.667H300.8   c6.4,0,10.667,5.333,10.667,10.667C311.467,411.733,307.2,416,300.8,416z"/>
</g>
<g>
	<path style="fill:#FFD15C;" d="M256,121.6c-5.333,0-8.533-4.267-8.533-8.533V83.2c0-4.267,3.2-8.533,8.533-8.533   c5.333,0,8.533,4.267,8.533,8.533V112C264.533,117.333,261.333,121.6,256,121.6z"/>
	<path style="fill:#FFD15C;" d="M170.667,156.8c-3.2,3.2-9.6,3.2-12.8,0L137.6,136.533c-3.2-3.2-3.2-9.6,0-12.8   c3.2-3.2,9.6-3.2,12.8,0L170.667,144C173.867,148.267,173.867,153.6,170.667,156.8z"/>
	<path style="fill:#FFD15C;" d="M135.467,242.133c0,5.333-4.267,8.533-8.533,8.533H97.067c-5.333,0-8.533-4.267-8.533-8.533   c0-5.333,4.267-8.533,8.533-8.533h28.8C131.2,233.6,135.467,236.8,135.467,242.133z"/>
	<path style="fill:#FFD15C;" d="M170.667,327.467c3.2,3.2,3.2,9.6,0,12.8L150.4,360.533c-3.2,3.2-9.6,3.2-12.8,0   c-3.2-3.2-3.2-9.6,0-12.8l20.267-20.267C162.133,324.267,167.467,324.267,170.667,327.467z"/>
	<path style="fill:#FFD15C;" d="M341.333,327.467c3.2-3.2,9.6-3.2,12.8,0l20.267,20.267c3.2,3.2,3.2,9.6,0,12.8   c-3.2,3.2-9.6,3.2-12.8,0l-20.267-20.267C338.133,337.067,338.133,330.667,341.333,327.467z"/>
	<path style="fill:#FFD15C;" d="M376.533,242.133c0-5.333,4.267-8.533,8.533-8.533h28.8c5.333,0,8.533,4.267,8.533,8.533   s-4.267,8.533-8.533,8.533h-28.8C380.8,251.733,376.533,247.467,376.533,242.133z"/>
	<path style="fill:#FFD15C;" d="M341.333,156.8c-3.2-3.2-3.2-9.6,0-12.8l20.267-20.267c3.2-3.2,9.6-3.2,12.8,0   c3.2,3.2,3.2,9.6,0,12.8L354.133,156.8C349.867,161.067,344.533,161.067,341.333,156.8z"/>
</g>
<path style="fill:#415A6B;" d="M132.267,105.6l-6.4-23.467C68.267,99.2,32,151.467,35.2,209.067c-5.333-8.533-9.6-18.133-12.8-28.8  c-19.2-67.2,19.2-137.6,86.4-156.8L101.333,0l88.533,30.933L132.267,105.6z"/>
<path style="fill:#4EC0AA;" d="M105.6,379.733l-23.467,6.4c17.067,56.533,70.4,92.8,126.933,90.667  c-8.533,5.333-18.133,9.6-28.8,12.8c-67.2,19.2-137.6-18.133-156.8-85.333L0,410.667l30.933-88.533L105.6,379.733z"/>
<path style="fill:#F3705A;" d="M379.733,406.4l6.4,23.467c56.533-17.067,92.8-70.4,90.667-126.933c5.333,8.533,9.6,18.133,12.8,28.8  c19.2,67.2-18.133,137.6-85.333,156.8l6.4,23.467l-88.533-30.933L379.733,406.4z"/>
<path style="fill:#8AD7F8;" d="M406.4,132.267l23.467-6.4C412.8,68.267,360.533,32,302.933,35.2c8.533-5.333,18.133-9.6,28.8-12.8  c67.2-19.2,137.6,18.133,156.8,85.333l23.467-6.4l-30.933,88.533L406.4,132.267z"/>
<g>
</g>
<g>
</g>
<g>
</g>
<g>
</g>
<g>
</g>
<g>
</g>
<g>
</g>
<g>
</g>
<g>
</g>
<g>
</g>
<g>
</g>
<g>
</g>
<g>
</g>
<g>
</g>
<g>
</g>
</svg>
