<?xml version="1.0" encoding="iso-8859-1"?>
<!-- Generator: Adobe Illustrator 19.0.0, SVG Export Plug-In . SVG Version: 6.00 Build 0)  -->
<svg xmlns="http://www.w3.org/2000/svg" xmlns:xlink="http://www.w3.org/1999/xlink" version="1.1" id="Layer_1" x="0px" y="0px" viewBox="0 0 512 512" style="enable-background:new 0 0 512 512;" xml:space="preserve">
<path style="fill:#F3F3F3;" d="M385.067,0h-342.4C19.2,0,0,19.2,0,42.667v426.667C0,492.8,19.2,512,42.667,512l0,0h385.067V42.667  C427.733,19.2,408.533,0,385.067,0z"/>
<polygon style="fill:#F3705A;" points="198.4,54.4 198.4,78.933 371.2,78.933 371.2,54.4 "/>
<g>
	<polygon style="fill:#E8EAE9;" points="198.4,123.733 198.4,147.2 371.2,147.2 371.2,123.733  "/>
	<polygon style="fill:#E8EAE9;" points="198.4,192 198.4,216.533 371.2,216.533 371.2,192  "/>
	<polygon style="fill:#E8EAE9;" points="371.2,284.8 371.2,260.267 55.467,260.267 55.467,284.8  "/>
	<polygon style="fill:#E8EAE9;" points="371.2,353.067 371.2,328.533 55.467,328.533 55.467,353.067  "/>
	<polygon style="fill:#E8EAE9;" points="371.2,421.333 371.2,396.8 55.467,396.8 55.467,421.333  "/>
</g>
<path style="fill:#415A6B;" d="M101.333,216.533v-13.867c-17.067-2.133-32-9.6-45.867-22.4l19.2-23.467  c10.667,8.533,19.2,14.933,27.733,17.067v-28.8c-13.867-3.2-23.467-8.533-29.867-13.867c-6.4-6.4-9.6-14.933-9.6-25.6  s3.2-20.267,10.667-27.733C80,70.4,89.6,66.133,101.333,64v-9.6H121.6V64c12.8,2.133,25.6,7.467,39.467,16l-16,23.467  c-8.533-6.4-16-9.6-23.467-11.733v27.733c13.867,3.2,24.533,8.533,30.933,14.933c6.4,6.4,9.6,14.933,9.6,25.6  c0,11.733-4.267,20.267-11.733,27.733s-17.067,11.733-29.867,12.8V214.4h-19.2V216.533z M101.333,91.733  C96,93.867,93.867,97.067,93.867,102.4c0,5.333,3.2,9.6,8.533,11.733v-22.4H101.333z M132.267,163.2c0-3.2-1.067-5.333-2.133-6.4  c-1.067-2.133-4.267-3.2-7.467-5.333V176C129.067,172.8,132.267,168.533,132.267,163.2z"/>
<path style="fill:#8AD7F8;" d="M84.267,469.333C84.267,492.8,65.067,512,41.6,512h427.733C492.8,512,512,492.8,512,469.333H84.267z"/>
<g>
</g>
<g>
</g>
<g>
</g>
<g>
</g>
<g>
</g>
<g>
</g>
<g>
</g>
<g>
</g>
<g>
</g>
<g>
</g>
<g>
</g>
<g>
</g>
<g>
</g>
<g>
</g>
<g>
</g>
</svg>
