<?xml version="1.0" encoding="iso-8859-1"?>
<!-- Generator: Adobe Illustrator 19.0.0, SVG Export Plug-In . SVG Version: 6.00 Build 0)  -->
<svg xmlns="http://www.w3.org/2000/svg" xmlns:xlink="http://www.w3.org/1999/xlink" version="1.1" id="Layer_1" x="0px" y="0px" viewBox="0 0 512 512" style="enable-background:new 0 0 512 512;" xml:space="preserve">
<path style="fill:#FFD15C;" d="M512,318.933L512,318.933c0-13.867-11.733-24.533-24.533-24.533H24.533  C10.667,294.4,0,306.133,0,318.933l0,0c0,13.867,11.733,24.533,24.533,24.533H486.4C500.267,343.467,512,332.8,512,318.933z"/>
<g>
	<rect x="24.533" y="343.467" style="fill:#F7B64C;" width="460.8" height="167.467"/>
	<path style="fill:#F7B64C;" d="M382.933,293.333v-65.067c0-13.867-9.6-26.667-23.467-30.933c-19.2-5.333-37.333-9.6-56.533-12.8   c-10.667-1.067-18.133-9.6-18.133-20.267v-43.733h-58.667v43.733c0,10.667-7.467,19.2-18.133,20.267   c-19.2,2.133-37.333,6.4-56.533,11.733C137.6,200.533,128,213.333,128,227.2v65.067h254.933V293.333z"/>
</g>
<path style="fill:#F3705A;" d="M382.933,293.333v-65.067c0-13.867-9.6-26.667-23.467-30.933C341.333,192,322.133,187.733,304,185.6  c0,1.067,0,1.067,0,2.133c0,25.6-48,46.933-48,46.933s-48-21.333-48-48c0-1.067,0-1.067,0-2.133  c-19.2,2.133-37.333,6.4-55.467,11.733c-13.867,4.267-23.467,17.067-23.467,30.933v65.067h253.867V293.333z"/>
<path style="fill:#FFD15C;" d="M256,86.4c-17.067,0-33.067-5.333-45.867-14.933C204.8,83.2,202.667,96,202.667,110.933  c0,42.667,23.467,76.8,53.333,76.8s53.333-34.133,53.333-76.8c0-13.867-3.2-27.733-7.467-39.467  C289.067,81.067,273.067,86.4,256,86.4z"/>
<path style="fill:#415A6B;" d="M328.533,94.933c0,110.933-16,132.267-51.2,137.6c32-49.067,26.667-112,20.267-152.533  c-28.8,10.667-56.533,10.667-85.333,0c-6.4,40.533-10.667,103.467,20.267,152.533c-35.2-4.267-51.2-26.667-51.2-137.6  c0-66.133,33.067-93.867,72.533-93.867S328.533,28.8,328.533,94.933z"/>
<circle style="fill:#FFFFFF;" cx="254.933" cy="427.733" r="62.933"/>
<g>
	<rect x="243.2" y="416" style="fill:#F3705A;" width="23.467" height="54.4"/>
	<circle style="fill:#F3705A;" cx="254.933" cy="395.733" r="11.733"/>
</g>
<g>
</g>
<g>
</g>
<g>
</g>
<g>
</g>
<g>
</g>
<g>
</g>
<g>
</g>
<g>
</g>
<g>
</g>
<g>
</g>
<g>
</g>
<g>
</g>
<g>
</g>
<g>
</g>
<g>
</g>
</svg>
