<?xml version="1.0" encoding="iso-8859-1"?>
<!-- Generator: Adobe Illustrator 19.0.0, SVG Export Plug-In . SVG Version: 6.00 Build 0)  -->
<svg xmlns="http://www.w3.org/2000/svg" xmlns:xlink="http://www.w3.org/1999/xlink" version="1.1" id="Layer_1" x="0px" y="0px" viewBox="0 0 513.484 513.484" style="enable-background:new 0 0 513.484 513.484;" xml:space="preserve">
<path style="fill:#E8EAE9;" d="M383.753,363.325c7.467,54.4,5.333,121.6,5.333,121.6h-62.933c-1.067-16-6.4-36.267-11.733-55.467  c-6.4-22.4-28.8-34.133-51.2-32c-23.467,5.333-39.467-5.333-53.333-25.6c-8.533,9.6-20.267,14.933-34.133,14.933  c-18.133,0-34.133-10.667-41.6-26.667c-19.2,10.667-42.667,9.6-60.8-5.333c-16-13.867-23.467-35.2-19.2-55.467  c-25.6,2.133-48-14.933-53.333-39.467c-4.267-22.4,8.533-44.8,28.8-53.333c-12.8-20.267-12.8-48,2.133-68.267  c14.933-21.333,41.6-30.933,66.133-25.6c0-12.8,4.267-25.6,12.8-35.2c18.133-21.333,49.067-24.533,71.467-8.533  c9.6-14.933,25.6-25.6,43.733-25.6c11.733,0,22.4,4.267,30.933,10.667c14.933-20.267,40.533-29.867,66.133-23.467  c24.533,6.4,42.667,25.6,48,49.067c16-6.4,33.067-9.6,51.2-7.467c56.533,6.4,97.067,56.533,90.667,113.067  c-5.333,46.933-41.6,83.2-86.4,89.6C448.82,314.258,424.286,361.191,383.753,363.325z"/>
<path style="fill:#8AD7F8;" d="M309.086,252.391l1.067-32l-30.933-9.6c-1.067-5.333-3.2-9.6-5.333-13.867l17.067-27.733  l-21.333-23.467l-29.867,14.933c-4.267-2.133-8.533-4.267-13.867-6.4l-7.467-32l-32-1.067l-9.6,30.933  c-5.333,1.067-9.6,3.2-13.867,5.333l-27.733-17.067l-23.467,21.333l14.933,28.8c-2.133,4.267-4.267,8.533-6.4,13.867l-32,7.467  l-2.133,34.133l30.933,9.6c1.067,5.333,3.2,9.6,5.333,13.867l-17.067,27.733l21.333,23.467l28.8-14.933  c4.267,2.133,8.533,4.267,13.867,6.4l8.533,32l32,1.067l9.6-30.933c5.333-1.067,9.6-3.2,13.867-5.333l27.733,17.067l23.467-21.333  l-14.933-28.8c2.133-4.267,4.267-8.533,6.4-13.867L309.086,252.391z M197.086,267.325c-19.2-1.067-34.133-16-33.067-35.2  c1.067-19.2,16-34.133,35.2-33.067c19.2,1.067,34.133,16,33.067,35.2C231.22,253.458,216.286,268.391,197.086,267.325z"/>
<path style="fill:#F3705A;" d="M413.62,226.791l9.6-17.067l-13.867-14.933c1.067-3.2,1.067-6.4,1.067-9.6l18.133-10.667l-5.333-19.2  l-20.267-1.067c-2.133-3.2-3.2-5.333-5.333-7.467l5.333-20.267l-17.067-8.533l-14.933,13.867c-3.2-1.067-6.4-1.067-9.6-1.067  l-10.667-18.133l-18.133,5.333l-1.067,20.267c-3.2,2.133-5.333,3.2-7.467,5.333l-20.267-5.333l-9.6,17.067l13.867,14.933  c-1.067,3.2-1.067,6.4-1.067,9.6l-18.133,10.667l5.333,19.2l20.267,1.067c2.133,3.2,3.2,5.333,5.333,7.467l-5.333,20.267l17.067,9.6  l14.933-13.867c3.2,1.067,6.4,1.067,9.6,1.067l10.667,18.133l19.2-5.333l1.067-20.267c2.133-2.133,5.333-3.2,7.467-5.333  L413.62,226.791z M347.486,201.191c-9.6-6.4-13.867-19.2-7.467-28.8c6.4-9.6,19.2-13.867,28.8-7.467s13.867,19.2,7.467,28.8  C370.953,203.325,358.153,206.525,347.486,201.191z"/>
<g>
</g>
<g>
</g>
<g>
</g>
<g>
</g>
<g>
</g>
<g>
</g>
<g>
</g>
<g>
</g>
<g>
</g>
<g>
</g>
<g>
</g>
<g>
</g>
<g>
</g>
<g>
</g>
<g>
</g>
</svg>
