<?xml version="1.0" encoding="iso-8859-1"?>
<!-- Generator: Adobe Illustrator 19.0.0, SVG Export Plug-In . SVG Version: 6.00 Build 0)  -->
<svg xmlns="http://www.w3.org/2000/svg" xmlns:xlink="http://www.w3.org/1999/xlink" version="1.1" id="Layer_1" x="0px" y="0px" viewBox="0 0 512 512" style="enable-background:new 0 0 512 512;" xml:space="preserve">
<g>
	<path style="fill:#F7B64C;" d="M231.467,342.4L0,315.733v118.4l82.133,3.2l183.467,6.4h1.067v-102.4   C250.667,345.6,231.467,342.4,231.467,342.4z"/>
	<path style="fill:#F7B64C;" d="M57.6,412.8c1.067,7.467,3.2,16,5.333,23.467l20.267,1.067l135.467,5.333   c2.133-8.533-6.4-53.333-8.533-61.867c0-3.2-1.067-20.267,1.067-32c0-2.133,2.133-4.267,4.267-5.333c1.067,0,2.133-1.067,3.2-1.067   c2.133,0,4.267,0,6.4-1.067c1.067,0,2.133,0,3.2,0l0,0c-9.6-3.2-108.8-12.8-173.867-20.267c0,3.2-1.067,6.4-1.067,10.667   C46.933,365.867,57.6,411.733,57.6,412.8z"/>
</g>
<path style="fill:#FFD15C;" d="M214.4,308.267c0,0-18.133-11.733-34.133-27.733c-14.933-16-9.6-50.133-9.6-50.133L196.267,0h-118.4  l-3.2,80l-6.4,183.467l-2.133,16c0,0-7.467,18.133-11.733,52.267s7.467,80,7.467,80C64,432,74.667,457.6,74.667,457.6  s5.333,13.867,19.2,11.733c13.867-3.2,13.867-10.667,13.867-10.667s4.267,7.467,17.067,7.467c12.8,0,16-9.6,16-9.6  s7.467,13.867,22.4,9.6c14.933-5.333,13.867-17.067,13.867-17.067c2.133,3.2,13.867,17.067,25.6,11.733  C214.4,456.533,217.6,448,217.6,432c0-9.6-8.533-52.267-8.533-52.267s-1.067-20.267,1.067-33.067  c1.067-8.533,8.533-8.533,12.8-7.467c0,0,2.133,0,3.2,1.067C229.333,321.067,214.4,308.267,214.4,308.267z"/>
<g>
	<path style="fill:#F7B64C;" d="M108.8,461.867V460.8c0-1.067-1.067-3.2-1.067-5.333c0-2.133-1.067-3.2-1.067-5.333   c0-2.133-1.067-3.2-1.067-5.333c-1.067-3.2-2.133-7.467-3.2-10.667c-1.067-3.2-2.133-6.4-3.2-8.533c-2.133-2.133-3.2-4.267-3.2-6.4   c-1.067-1.067-1.067-2.133-1.067-2.133s0,1.067,1.067,2.133c0,1.067,1.067,4.267,2.133,6.4c1.067,2.133,2.133,5.333,3.2,8.533   c1.067,3.2,2.133,6.4,3.2,10.667c1.067,3.2,2.133,7.467,3.2,10.667c0,1.067,1.067,2.133,1.067,3.2l0,0   C108.8,458.667,107.733,459.733,108.8,461.867z"/>
	<path style="fill:#F7B64C;" d="M174.933,440.533c0-1.067-1.067-3.2-1.067-4.267c0-1.067-1.067-3.2-1.067-4.267   c-1.067-3.2-1.067-5.333-2.133-8.533C169.6,419.2,168.533,416,168.533,416s0,1.067,0,2.133c0,1.067,0,3.2,0,6.4   c0,1.067,0,2.133,0,4.267c0,1.067,0,3.2,1.067,4.267c0,3.2,1.067,6.4,2.133,9.6c0,1.067,1.067,3.2,1.067,4.267   c0,1.067,1.067,3.2,1.067,4.267c0,1.067,1.067,2.133,3.2,3.2c0-1.067-1.067-2.133-1.067-3.2   C176,446.933,176,443.733,174.933,440.533z"/>
	<path style="fill:#F7B64C;" d="M179.2,454.4c0,0-9.6-38.4-10.667-42.667c0,0-1.067,12.8,7.467,40.533V451.2   C174.933,450.133,177.067,452.267,179.2,454.4z"/>
	<path style="fill:#F7B64C;" d="M139.733,457.6c0,0-4.267-12.8-6.4-23.467c-1.067-5.333-2.133-10.667-5.333-16v-1.067   c0,0,4.267,5.333,8.533,21.333c0,0,6.4,21.333,7.467,23.467C142.933,461.867,139.733,458.667,139.733,457.6z"/>
	<path style="fill:#F7B64C;" d="M171.733,217.6C176,192,183.467,107.733,189.867,50.133"/>
	<path style="fill:#F7B64C;" d="M99.2,55.467c-7.467,1.067-16,3.2-23.467,5.333L74.667,80L70.4,215.467   c8.533,2.133,53.333-6.4,61.867-8.533c3.2,0,20.267-1.067,32,1.067c2.133,0,4.267,2.133,5.333,4.267c0,1.067,1.067,2.133,1.067,3.2   c0,2.133,0,4.267,1.067,6.4c0,1.067,0,2.133,0,3.2l0,0c3.2-9.6,12.8-108.8,20.267-173.867c-3.2,0-6.4-1.067-10.667-1.067   C146.133,43.733,101.333,55.467,99.2,55.467z"/>
	<path style="fill:#F7B64C;" d="M432,72.533l-183.467-6.4l-16-2.133c0,0-18.133-7.467-52.267-11.733s-80,7.467-80,7.467   C80,61.867,54.4,71.467,54.4,71.467s-13.867,6.4-11.733,19.2c3.2,13.867,10.667,13.867,10.667,13.867s-7.467,4.267-7.467,17.067   s9.6,16,9.6,16s-13.867,7.467-9.6,22.4c5.333,14.933,17.067,13.867,17.067,13.867c-3.2,2.133-17.067,13.867-11.733,25.6   c4.267,10.667,11.733,13.867,27.733,13.867c9.6,0,52.267-8.533,52.267-8.533s20.267-1.067,33.067,1.067   c8.533,1.067,8.533,8.533,7.467,12.8c0,0,0,2.133-1.067,3.2c19.2,5.333,33.067-9.6,33.067-9.6s11.733-18.133,27.733-34.133   c16-14.933,50.133-9.6,50.133-9.6l230.4,25.6v-118.4L432,72.533z"/>
</g>
<g>
	<path style="fill:#FFD15C;" d="M51.2,106.667h1.067c1.067,0,3.2-1.067,4.267-1.067c2.133,0,3.2-1.067,5.333-1.067   s3.2-1.067,5.333-1.067c3.2-1.067,7.467-2.133,10.667-3.2c3.2-2.133,6.4-3.2,8.533-4.267c2.133-1.067,4.267-2.133,6.4-2.133   c1.067-1.067,2.133-1.067,2.133-1.067s-1.067,0-2.133,1.067c-1.067,0-4.267,1.067-6.4,2.133c-3.2-1.067-6.4,0-9.6,1.067   c-3.2,1.067-6.4,2.133-10.667,3.2c-3.2,1.067-7.467,2.133-10.667,3.2c0,0-1.067,1.067-2.133,1.067l0,0   C53.333,104.533,52.267,105.6,51.2,106.667z"/>
	<path style="fill:#FFD15C;" d="M71.467,171.733c1.067,0,3.2-1.067,4.267-1.067s3.2-1.067,4.267-1.067   c3.2-1.067,5.333-1.067,8.533-2.133C92.8,166.4,96,165.333,96,165.333s-1.067,0-2.133,0s-3.2,0-6.4,0c-1.067,0-2.133,0-4.267,0   c-1.067,0-3.2,0-4.267,1.067c-3.2,0-6.4,1.067-9.6,2.133c-1.067,0-3.2,1.067-4.267,1.067c-1.067,0-3.2,1.067-4.267,1.067   s-2.133,1.067-3.2,3.2c1.067,0,2.133-1.067,3.2-1.067C66.133,173.867,68.267,172.8,71.467,171.733z"/>
	<path style="fill:#FFD15C;" d="M58.667,176c0,0,38.4-9.6,42.667-10.667c0,0-12.8-1.067-40.533,7.467h1.067   C61.867,172.8,59.733,174.933,58.667,176z"/>
	<path style="fill:#FFD15C;" d="M54.4,136.533c0,0,12.8-4.267,23.467-6.4c5.333-1.067,10.667-2.133,16-5.333h1.067   c0,0-5.333,4.267-21.333,8.533c0,0-21.333,6.4-23.467,7.467C50.133,140.8,53.333,137.6,54.4,136.533z"/>
</g>
<g>
	<path style="fill:#F7B64C;" d="M456.533,97.067c-1.067-7.467-3.2-16-5.333-23.467L432,72.533l-135.467-4.267   c-2.133,8.533,6.4,53.333,8.533,61.867c0,3.2,1.067,20.267-1.067,32c0,2.133-2.133,4.267-4.267,5.333   c-1.067,0-2.133,1.067-3.2,1.067c-2.133,0-4.267,0-6.4,1.067c-1.067,0-2.133,0-3.2,0l0,0c9.6,3.2,108.8,12.8,173.867,20.267   c0-3.2,1.067-6.4,1.067-10.667C468.267,144,456.533,99.2,456.533,97.067z"/>
	<path style="fill:#F7B64C;" d="M294.4,170.667C320,174.933,404.267,182.4,461.867,188.8"/>
</g>
<path style="fill:#FFD15C;" d="M439.467,429.867l6.4-183.467l2.133-16c0,0,7.467-18.133,11.733-52.267s-7.467-80-7.467-80  c-3.2-19.2-12.8-44.8-12.8-44.8s-5.333-13.867-19.2-11.733C406.4,44.8,406.4,52.267,406.4,52.267s-4.267-7.467-17.067-7.467  c-12.8,0-16,9.6-16,9.6s-7.467-13.867-22.4-9.6C336,50.133,337.067,61.867,337.067,61.867c-2.133-3.2-13.867-17.067-25.6-11.733  c-9.6,3.2-12.8,11.733-11.733,26.667c0,9.6,8.533,52.267,8.533,52.267s1.067,20.267-1.067,33.067  c-1.067,8.533-8.533,8.533-12.8,8.533c0,0-2.133,0-3.2-1.067c-5.333,19.2,9.6,33.067,9.6,33.067s18.133,11.733,34.133,27.733  c14.933,16,9.6,50.133,9.6,50.133L317.867,512h118.4L439.467,429.867z"/>
<g>
	<path style="fill:#F7B64C;" d="M405.333,49.067v1.067c0,1.067,1.067,3.2,1.067,5.333s1.067,3.2,1.067,5.333s1.067,3.2,1.067,5.333   c1.067,3.2,2.133,7.467,3.2,10.667c1.067,3.2,2.133,6.4,3.2,8.533c1.067,2.133,2.133,4.267,2.133,6.4   c1.067,1.067,1.067,2.133,1.067,2.133s0-1.067-1.067-2.133c0-1.067-1.067-4.267-2.133-6.4c2.133-4.267,1.067-6.4,0-10.667   c-1.067-3.2-2.133-6.4-3.2-10.667c-1.067-3.2-2.133-7.467-3.2-10.667c0-1.067-1.067-2.133-1.067-3.2l0,0   C407.467,50.133,407.467,50.133,405.333,49.067z"/>
	<path style="fill:#F7B64C;" d="M340.267,69.333c0,1.067,1.067,3.2,1.067,4.267s1.067,3.2,1.067,4.267   c1.067,3.2,1.067,5.333,2.133,8.533c1.067,4.267,2.133,7.467,2.133,7.467s0-1.067,0-2.133s0-3.2,0-6.4c0-1.067,0-2.133,0-4.267   c0-1.067,0-3.2-1.067-4.267c0-3.2-1.067-6.4-2.133-9.6c0-1.067-1.067-3.2-1.067-4.267s-1.067-3.2-1.067-4.267s-1.067-2.133-3.2-3.2   c0,1.067,1.067,2.133,1.067,3.2C338.133,64,339.2,67.2,340.267,69.333z"/>
	<path style="fill:#F7B64C;" d="M336,56.533c0,0,9.6,38.4,10.667,42.667c0,0,1.067-12.8-7.467-40.533v1.067   C339.2,60.8,338.133,57.6,336,56.533z"/>
	<path style="fill:#F7B64C;" d="M375.467,53.333c0,0,4.267,12.8,6.4,23.467c1.067,5.333,2.133,10.667,5.333,16v1.067   c0,0-4.267-5.333-8.533-21.333c0,0-6.4-21.333-7.467-23.467C372.267,48,374.4,51.2,375.467,53.333z"/>
	<path style="fill:#F7B64C;" d="M414.933,454.4c7.467-1.067,16-3.2,23.467-5.333l1.067-19.2L444.8,294.4   c-8.533-2.133-53.333,6.4-61.867,8.533c-3.2,0-20.267,1.067-32-1.067c-2.133,0-4.267-2.133-5.333-4.267   c0-1.067-1.067-2.133-1.067-3.2c0-2.133,0-4.267-1.067-6.4c0-1.067,0-2.133,0-3.2l0,0c-3.2,9.6-12.8,108.8-20.267,173.867   c3.2,0,6.4,1.067,10.667,1.067C368,466.133,413.867,455.467,414.933,454.4z"/>
	<path style="fill:#F7B64C;" d="M342.4,292.267c-4.267,25.6-11.733,109.867-18.133,167.467"/>
	<path style="fill:#F7B64C;" d="M471.467,419.2c-3.2-13.867-10.667-13.867-10.667-13.867s7.467-4.267,7.467-17.067   c0-12.8-9.6-16-9.6-16s13.867-7.467,9.6-22.4C462.933,334.933,451.2,336,451.2,336c3.2-2.133,17.067-13.867,11.733-25.6   c-4.267-11.733-12.8-14.933-28.8-14.933c-9.6,0-52.267,8.533-52.267,8.533s-20.267,1.067-33.067-1.067   c-8.533-1.067-8.533-8.533-7.467-12.8c0,0,0-2.133,1.067-3.2c-19.2-5.333-33.067,9.6-33.067,9.6S297.6,314.667,281.6,330.667   c-5.333,5.333-12.8,7.467-19.2,9.6v102.4h3.2l16,2.133c0,0,18.133,7.467,52.267,11.733s80-7.467,80-7.467   c19.2-3.2,44.8-12.8,44.8-12.8S473.6,433.067,471.467,419.2z"/>
</g>
<path style="fill:#FFD15C;" d="M464,403.2h-1.067c-1.067,0-3.2,1.067-5.333,1.067c-2.133,0-3.2,1.067-5.333,1.067  s-3.2,1.067-5.333,1.067c-3.2,1.067-7.467,2.133-10.667,3.2s-6.4,2.133-8.533,3.2s-4.267,2.133-6.4,2.133  C420.267,416,419.2,416,419.2,416s1.067,0,2.133-1.067c1.067,0,4.267-1.067,6.4-2.133c2.133-1.067,5.333-2.133,8.533-3.2  s6.4-2.133,10.667-3.2c3.2-1.067,7.467-2.133,10.667-3.2c1.067,0,2.133-1.067,3.2-1.067l0,0  C460.8,402.133,461.867,405.333,464,403.2z"/>
<path style="fill:#F7B64C;" d="M442.667,338.133c-1.067,0-3.2,1.067-4.267,1.067c-1.067,0-3.2,1.067-4.267,1.067  c-3.2,1.067-5.333,1.067-8.533,2.133c-4.267,1.067-7.467,2.133-7.467,2.133s1.067,0,2.133,0c1.067,0,3.2,0,6.4,0  c1.067,0,2.133,0,4.267,0c1.067,0,3.2,0,4.267-1.067c3.2,0,6.4-1.067,9.6-2.133c1.067,0,3.2-1.067,4.267-1.067  c1.067,0,3.2-1.067,4.267-1.067c1.067,0,2.133-1.067,3.2-3.2c-1.067,0-2.133,1.067-3.2,1.067  C449.067,336,445.867,337.067,442.667,338.133z"/>
<g>
	<path style="fill:#FFD15C;" d="M456.533,333.867c0,0-38.4,9.6-42.667,10.667c0,0,12.8,1.067,40.533-7.467h-1.067   C452.267,337.067,454.4,336,456.533,333.867z"/>
	<path style="fill:#FFD15C;" d="M459.733,373.333c0,0-12.8,4.267-23.467,6.4c-5.333,1.067-10.667,2.133-16,5.333H419.2   c0,0,5.333-4.267,21.333-8.533c0,0,21.333-6.4,23.467-7.467C464,370.133,460.8,373.333,459.733,373.333z"/>
</g>
<g>
</g>
<g>
</g>
<g>
</g>
<g>
</g>
<g>
</g>
<g>
</g>
<g>
</g>
<g>
</g>
<g>
</g>
<g>
</g>
<g>
</g>
<g>
</g>
<g>
</g>
<g>
</g>
<g>
</g>
</svg>
