<?xml version="1.0" encoding="iso-8859-1"?>
<!-- Generator: Adobe Illustrator 19.0.0, SVG Export Plug-In . SVG Version: 6.00 Build 0)  -->
<svg xmlns="http://www.w3.org/2000/svg" xmlns:xlink="http://www.w3.org/1999/xlink" version="1.1" id="Layer_1" x="0px" y="0px" viewBox="0 0 512 512" style="enable-background:new 0 0 512 512;" xml:space="preserve">
<path style="fill:#F3F3F3;" d="M434.133,155.58c0-19.2-9.6-37.333-26.667-48c-14.933-9.6-33.067-11.733-49.067-6.4  c-16-42.667-50.133-77.867-97.067-92.8C180.267-19.353,92.8,25.447,66.133,106.513c-9.6,27.733-9.6,56.533-4.267,83.2  C27.733,193.98,0,224.913,0,261.18c0,39.467,32,71.467,71.467,71.467h352c49.067,0,88.533-39.467,88.533-88.533  C512,198.247,477.867,160.913,434.133,155.58z"/>
<path style="fill:#415A6B;" d="M421.333,371.047H90.667c-8.533,0-16-7.467-16-16v-83.2c0-8.533,6.4-16,16-16H422.4  c8.533,0,16,7.467,16,16v83.2C437.333,363.58,430.933,371.047,421.333,371.047z"/>
<circle style="fill:#F3705A;" cx="124.8" cy="313.447" r="19.2"/>
<circle style="fill:#FFFFFF;" cx="188.8" cy="313.447" r="19.2"/>
<circle style="fill:#FFD15C;" cx="252.8" cy="313.447" r="19.2"/>
<path style="fill:#415A6B;" d="M421.333,511.847H90.667c-9.6,0-16-7.467-16-16v-83.2c0-8.533,7.467-16,16-16H422.4  c8.533,0,16,7.467,16,16v83.2C437.333,504.38,430.933,511.847,421.333,511.847z"/>
<circle style="fill:#F3705A;" cx="124.8" cy="454.247" r="19.2"/>
<circle style="fill:#FFFFFF;" cx="188.8" cy="454.247" r="19.2"/>
<circle style="fill:#FFD15C;" cx="252.8" cy="454.247" r="19.2"/>
<rect x="90.667" y="371.047" style="fill:#344A5E;" width="330.667" height="26.667"/>
<g>
</g>
<g>
</g>
<g>
</g>
<g>
</g>
<g>
</g>
<g>
</g>
<g>
</g>
<g>
</g>
<g>
</g>
<g>
</g>
<g>
</g>
<g>
</g>
<g>
</g>
<g>
</g>
<g>
</g>
</svg>
