<?xml version="1.0" encoding="iso-8859-1"?>
<!-- Generator: Adobe Illustrator 19.0.0, SVG Export Plug-In . SVG Version: 6.00 Build 0)  -->
<svg xmlns="http://www.w3.org/2000/svg" xmlns:xlink="http://www.w3.org/1999/xlink" version="1.1" id="Layer_1" x="0px" y="0px" viewBox="0 0 512.17 512.17" style="enable-background:new 0 0 512.17 512.17;" xml:space="preserve">
<path style="fill:#344A5E;" d="M201.081,470.57c7.467,24.533,28.8,41.6,55.467,41.6c26.667,0,49.067-18.133,55.467-41.6H201.081z"/>
<path style="fill:#E8EAE9;" d="M323.748,380.97c3.2-33.067,19.2-62.933,44.8-85.333c36.267-32,58.667-80,56.533-132.267  c-2.133-86.4-72.533-158.933-160-163.2C168.015-4.097,86.948,72.703,86.948,169.77c0,50.133,22.4,96,57.6,126.933  c25.6,22.4,41.6,52.267,44.8,85.333h134.4V380.97z"/>
<path style="fill:#415A6B;" d="M351.481,414.036c0-11.733-9.6-20.267-20.267-20.267c11.733,0,20.267-9.6,20.267-20.267  c0-10.667-9.6-20.267-20.267-20.267H182.948c-11.733,0-20.267,9.6-20.267,20.267c0,10.667,9.6,20.267,20.267,20.267  c-11.733,0-20.267,9.6-20.267,20.267c0,11.733,9.6,20.267,20.267,20.267c-11.733,0-20.267,9.6-20.267,20.267  c0,11.733,9.6,20.267,20.267,20.267h148.267c11.733,0,20.267-9.6,20.267-20.267c0-11.733-9.6-20.267-20.267-20.267  C341.881,434.303,351.481,425.77,351.481,414.036z"/>
<path id="SVGCleanerId_0" style="fill:#FFD15C;" d="M219.215,62.036c-14.933,0-26.667,11.733-26.667,26.667c0,1.067,0,2.133,0,3.2  c-8.533,1.067-18.133,5.333-23.467,12.8c-2.133,3.2-3.2,6.4-4.267,9.6c-5.333,0-11.733,3.2-14.933,8.533s-3.2,10.667-1.067,16  c-10.667,7.467-18.133,20.267-18.133,34.133c0,21.333,14.933,38.4,35.2,41.6c-3.2,7.467-3.2,17.067,0,25.6  c7.467,14.933,24.533,21.333,39.467,14.933c-1.067,2.133-2.133,5.333-2.133,8.533c0,11.733,8.533,20.267,20.267,20.267  s20.267-8.533,20.267-20.267V88.703C245.881,73.77,234.148,62.036,219.215,62.036z"/>
<g>
	<path id="SVGCleanerId_0_1_" style="fill:#FFD15C;" d="M219.215,62.036c-14.933,0-26.667,11.733-26.667,26.667   c0,1.067,0,2.133,0,3.2c-8.533,1.067-18.133,5.333-23.467,12.8c-2.133,3.2-3.2,6.4-4.267,9.6c-5.333,0-11.733,3.2-14.933,8.533   s-3.2,10.667-1.067,16c-10.667,7.467-18.133,20.267-18.133,34.133c0,21.333,14.933,38.4,35.2,41.6c-3.2,7.467-3.2,17.067,0,25.6   c7.467,14.933,24.533,21.333,39.467,14.933c-1.067,2.133-2.133,5.333-2.133,8.533c0,11.733,8.533,20.267,20.267,20.267   s20.267-8.533,20.267-20.267V88.703C245.881,73.77,234.148,62.036,219.215,62.036z"/>
</g>
<g>
	<path style="fill:#F7B64C;" d="M225.615,289.236c-13.867,0-25.6-11.733-25.6-25.6v-1.067c-14.933,2.133-29.867-5.333-37.333-20.267   c-3.2-7.467-4.267-16-2.133-23.467c-20.267-6.4-33.067-24.533-33.067-44.8c0-13.867,6.4-27.733,17.067-36.267   c-1.067-5.333,0-11.733,2.133-16c3.2-5.333,8.533-9.6,14.933-10.667c1.067-3.2,2.133-5.333,4.267-7.467   c5.333-7.467,12.8-12.8,21.333-14.933c0-17.067,14.933-30.933,32-30.933s32,13.867,32,32v174.933   C251.215,277.503,239.481,289.236,225.615,289.236z M207.481,249.77c1.067,0,3.2,0,3.2,1.067c1.067,1.067,2.133,4.267,1.067,5.333   c-1.067,2.133-1.067,4.267-1.067,6.4c0,8.533,6.4,14.933,14.933,14.933s14.933-6.4,14.933-14.933V88.703   c0-11.733-9.6-21.333-21.333-21.333s-21.333,9.6-21.333,21.333c0,1.067,0,1.067,0,2.133v1.067c0,1.067,0,3.2-1.067,4.267   c-1.067,1.067-2.133,2.133-3.2,2.133c-7.467,0-14.933,4.267-19.2,10.667c-1.067,2.133-2.133,4.267-3.2,8.533   c-1.067,2.133-2.133,4.267-5.333,4.267c-4.267,0-8.533,2.133-10.667,6.4c-2.133,3.2-2.133,7.467-1.067,10.667   c1.067,2.133,0,5.333-2.133,6.4c-9.6,6.4-16,18.133-16,29.867c0,18.133,12.8,33.067,30.933,36.267c2.133,0,3.2,1.067,4.267,3.2   c1.067,1.067,1.067,3.2,0,4.267c-3.2,6.4-3.2,13.867,0,20.267c5.333,11.733,20.267,17.067,32,11.733   C205.348,249.77,206.415,249.77,207.481,249.77z"/>
	<path style="fill:#F7B64C;" d="M216.015,103.636c3.2,0,5.333-2.133,5.333-5.333s-2.133-5.333-5.333-6.4   c-9.6-1.067-18.133-5.333-22.4-9.6c-1.067,3.2-1.067,6.4-1.067,9.6c0,1.067,0,2.133,0,3.2   C198.948,99.37,206.415,103.636,216.015,103.636L216.015,103.636z"/>
	<path style="fill:#F7B64C;" d="M189.348,143.103L189.348,143.103c3.2,0,6.4-2.133,6.4-4.267c1.067-3.2-1.067-6.4-4.267-6.4   c-13.867-3.2-19.2-11.733-21.333-17.067l0,0c-4.267,0-7.467,2.133-10.667,4.267C162.681,128.17,171.215,139.903,189.348,143.103z"/>
	<path style="fill:#F7B64C;" d="M169.081,132.436v-6.4c-5.333,4.267-11.733,14.933-5.333,29.867c1.067,2.133,4.267,4.267,7.467,3.2   s4.267-4.267,3.2-7.467c-5.333-11.733,2.133-17.067,2.133-17.067c1.067-1.067,1.067-1.067,2.133-2.133H169.081z"/>
	<path style="fill:#F7B64C;" d="M179.748,208.17c3.2-7.467,2.133-16-2.133-24.533c-1.067-3.2-4.267-4.267-7.467-2.133   c-3.2,1.067-4.267,4.267-2.133,7.467c3.2,5.333,3.2,10.667,2.133,14.933c-3.2,7.467-13.867,11.733-13.867,11.733   s-1.067,0-1.067,1.067c5.333,2.133,10.667,3.2,16,3.2l0,0C174.415,216.703,177.615,213.503,179.748,208.17z"/>
	<path style="fill:#F7B64C;" d="M205.348,202.836c-3.2-8.533-8.533-11.733-12.8-12.8c-6.4-2.133-12.8-1.067-16,1.067   c0,3.2-1.067,7.467-4.267,10.667l0,0c2.133,1.067,4.267,2.133,6.4,1.067c0,0,5.333-3.2,10.667-1.067   c2.133,1.067,4.267,3.2,5.333,6.4c1.067,2.133,3.2,3.2,5.333,3.2c1.067,0,1.067,0,2.133,0   C204.281,209.236,206.415,206.036,205.348,202.836z"/>
	<path style="fill:#F7B64C;" d="M220.281,249.77c2.133-1.067,5.333-1.067,7.467,0c3.2,1.067,6.4,0,7.467-3.2   c1.067-3.2,0-6.4-3.2-7.467c-5.333-2.133-10.667-2.133-16,0c-8.533,4.267-14.933,13.867-19.2,21.333c5.333,0,9.6,0,14.933-2.133   C213.881,254.036,217.081,250.836,220.281,249.77z"/>
	<path style="fill:#F7B64C;" d="M209.615,246.57L209.615,246.57c3.2,0,7.467,1.067,10.667,1.067c3.2-12.8-6.4-23.467-11.733-26.667   c-2.133-2.133-6.4-1.067-7.467,2.133c-2.133,2.133-1.067,6.4,1.067,7.467C203.215,230.57,212.815,236.97,209.615,246.57z"/>
	<path style="fill:#F7B64C;" d="M229.881,171.903c-7.467,4.267-18.133,16-10.667,38.4c1.067,2.133,4.267,3.2,6.4,3.2   c3.2-1.067,5.333-4.267,4.267-7.467c-5.333-18.133,4.267-23.467,5.333-24.533c1.067-1.067,2.133-2.133,3.2-3.2   C235.215,176.17,232.015,174.036,229.881,171.903z"/>
	<path style="fill:#F7B64C;" d="M208.548,122.836c-1.067,3.2,0,6.4,2.133,7.467c1.067,0,2.133,1.067,2.133,1.067   c2.133,0,4.267-1.067,5.333-3.2c6.4-12.8,19.2-13.867,26.667-12.8v-11.733C233.081,102.57,216.015,105.77,208.548,122.836z"/>
	<path style="fill:#F7B64C;" d="M235.215,170.836c-3.2-3.2-4.267-7.467-4.267-12.8c0-3.2-2.133-5.333-5.333-5.333   s-5.333,2.133-5.333,5.333c0,8.533,3.2,16,8.533,21.333c5.333,4.267,11.733,6.4,17.067,7.467v-11.733   C241.615,175.103,238.415,174.036,235.215,170.836z"/>
</g>
<path id="SVGCleanerId_1" style="fill:#FFD15C;" d="M293.881,62.036c14.933,0,26.667,11.733,26.667,26.667c0,1.067,0,2.133,0,3.2  c8.533,1.067,18.133,5.333,23.467,12.8c2.133,3.2,3.2,6.4,4.267,9.6c5.333,0,11.733,3.2,14.933,8.533c3.2,5.333,3.2,10.667,1.067,16  c10.667,7.467,18.133,20.267,18.133,34.133c0,21.333-14.933,38.4-35.2,41.6c3.2,7.467,3.2,17.067,0,25.6  c-7.467,14.933-24.533,21.333-39.467,14.933c1.067,2.133,2.133,5.333,2.133,8.533c0,11.733-8.533,20.267-20.267,20.267  s-22.4-9.6-22.4-20.267V88.703C267.215,73.77,278.948,62.036,293.881,62.036z"/>
<g>
	<path id="SVGCleanerId_1_1_" style="fill:#FFD15C;" d="M293.881,62.036c14.933,0,26.667,11.733,26.667,26.667   c0,1.067,0,2.133,0,3.2c8.533,1.067,18.133,5.333,23.467,12.8c2.133,3.2,3.2,6.4,4.267,9.6c5.333,0,11.733,3.2,14.933,8.533   c3.2,5.333,3.2,10.667,1.067,16c10.667,7.467,18.133,20.267,18.133,34.133c0,21.333-14.933,38.4-35.2,41.6   c3.2,7.467,3.2,17.067,0,25.6c-7.467,14.933-24.533,21.333-39.467,14.933c1.067,2.133,2.133,5.333,2.133,8.533   c0,11.733-8.533,20.267-20.267,20.267s-22.4-9.6-22.4-20.267V88.703C267.215,73.77,278.948,62.036,293.881,62.036z"/>
</g>
<g>
	<path style="fill:#F7B64C;" d="M261.881,263.636V88.703c0-17.067,13.867-32,32-32c17.067,0,30.933,13.867,32,30.933   c8.533,2.133,17.067,7.467,21.333,14.933c1.067,2.133,3.2,5.333,4.267,7.467c6.4,1.067,11.733,5.333,14.933,10.667   c3.2,5.333,3.2,10.667,2.133,16c10.667,8.533,17.067,22.4,17.067,36.267c0,21.333-13.867,39.467-33.067,44.8   c2.133,7.467,1.067,16-2.133,23.467c-6.4,13.867-22.4,22.4-37.333,20.267v1.067c0,13.867-11.733,25.6-25.6,25.6   C273.615,289.236,261.881,277.503,261.881,263.636z M307.748,250.836c12.8,5.333,26.667,0,32-11.733c3.2-6.4,3.2-13.867,0-20.267   c-1.067-1.067-1.067-3.2,0-4.267c1.067-1.067,2.133-2.133,4.267-3.2c18.133-3.2,30.933-18.133,30.933-36.267   c0-11.733-6.4-23.467-16-29.867c-2.133-1.067-3.2-4.267-2.133-6.4c1.067-3.2,1.067-7.467-1.067-10.667   c-2.133-3.2-6.4-6.4-10.667-6.4c-2.133,0-4.267-2.133-5.333-4.267c-1.067-3.2-2.133-5.333-3.2-8.533   c-4.267-6.4-11.733-10.667-19.2-10.667c-1.067,0-3.2-1.067-3.2-2.133c-1.067-1.067-1.067-2.133-1.067-4.267v-1.067   c0-1.067,0-1.067,0-2.133c0-11.733-9.6-21.333-21.333-21.333s-21.333,9.6-21.333,21.333v174.933c0,8.533,6.4,14.933,14.933,14.933   s14.933-6.4,14.933-14.933c0-2.133,0-4.267-1.067-6.4c-1.067-2.133,0-4.267,1.067-5.333c1.067-1.067,2.133-1.067,3.2-1.067   C306.681,249.77,307.748,249.77,307.748,250.836z"/>
	<path style="fill:#F7B64C;" d="M299.215,103.636c-3.2,0-5.333-3.2-5.333-6.4c0-3.2,3.2-5.333,6.4-5.333   c9.6,1.067,18.133-3.2,23.467-7.467c1.067,3.2,1.067,6.4,1.067,9.6c0,1.067,0,2.133-1.067,3.2   C317.348,101.503,308.815,103.636,299.215,103.636L299.215,103.636z"/>
	<path style="fill:#F7B64C;" d="M324.815,138.836C324.815,138.836,323.748,138.836,324.815,138.836c-3.2,0-6.4-2.133-6.4-4.267   c-1.067-3.2,1.067-6.4,4.267-6.4c13.867-3.2,19.2-11.733,21.333-17.067l0,0c4.267,0,7.467,2.133,10.667,4.267   C351.481,124.97,342.948,135.636,324.815,138.836z"/>
	<path style="fill:#F7B64C;" d="M339.748,131.37v-6.4c5.333,4.267,11.733,14.933,5.333,29.867c-1.067,2.133-4.267,4.267-7.467,3.2   c-3.2-1.067-4.267-4.267-3.2-7.467c5.333-11.733-2.133-17.067-2.133-17.067c-1.067-1.067-1.067-1.067-2.133-2.133H339.748z"/>
	<path style="fill:#F7B64C;" d="M333.348,212.436c-6.4-5.333-9.6-12.8-10.667-22.4c0-3.2,2.133-5.333,5.333-6.4   c3.2,0,5.333,2.133,6.4,5.333c0,6.4,2.133,10.667,5.333,13.867c6.4,5.333,17.067,3.2,17.067,3.2h1.067   c-3.2,4.267-7.467,8.533-11.733,10.667l0,0C341.881,216.703,337.615,215.636,333.348,212.436z"/>
	<path style="fill:#F7B64C;" d="M304.548,214.57c1.067-8.533,6.4-12.8,9.6-14.933c5.333-3.2,11.733-3.2,16-3.2   c1.067,3.2,3.2,6.4,6.4,9.6l0,0c-1.067,2.133-4.267,3.2-6.4,2.133c0,0-6.4-2.133-10.667,1.067c-2.133,1.067-3.2,4.267-4.267,7.467   c0,2.133-2.133,4.267-4.267,4.267c-1.067,0-1.067,0-2.133,0C305.615,220.97,303.481,217.77,304.548,214.57z"/>
	<path style="fill:#F7B64C;" d="M306.681,259.37l7.467-1.067c-2.133-6.4-4.267-14.933-10.667-19.2c-4.267-4.267-9.6-6.4-14.933-6.4   c-3.2,0-5.333,3.2-5.333,6.4c0,3.2,3.2,5.333,6.4,5.333c3.2,0,5.333,1.067,7.467,2.133c3.2,2.133,4.267,6.4,6.4,10.667   c2.133,1.067,3.2,2.133,5.333,3.2L306.681,259.37z"/>
	<path style="fill:#F7B64C;" d="M302.415,248.703L302.415,248.703c-3.2-2.133-6.4-4.267-9.6-6.4   c6.4-11.733,20.267-12.8,26.667-11.733c3.2,0,5.333,3.2,4.267,6.4c0,3.2-3.2,5.333-6.4,4.267   C318.415,241.236,306.681,239.103,302.415,248.703z"/>
	<path style="fill:#F7B64C;" d="M283.215,151.636c7.467-4.267,18.133-16,10.667-38.4c-1.067-2.133-4.267-3.2-6.4-3.2   c-3.2,1.067-5.333,4.267-4.267,7.467c6.4,17.067-4.267,23.467-5.333,24.533c-1.067,1.067-2.133,2.133-3.2,3.2   C277.881,147.37,281.081,148.436,283.215,151.636z"/>
	<path style="fill:#F7B64C;" d="M294.948,207.103c-1.067,0-1.067,1.067-2.133,1.067c-2.133,0-4.267-1.067-5.333-3.2   c-4.267-8.533-11.733-11.733-19.2-12.8v-11.733c10.667,1.067,22.4,5.333,28.8,19.2   C299.215,202.836,298.148,206.036,294.948,207.103z"/>
	<path style="fill:#F7B64C;" d="M277.881,151.636c3.2,3.2,4.267,7.467,4.267,12.8c0,3.2,2.133,5.333,5.333,5.333   c3.2,0,5.333-2.133,5.333-5.333c0-8.533-3.2-16-8.533-21.333c-5.333-4.267-11.733-6.4-17.067-7.467v11.733   C271.481,148.436,274.681,149.503,277.881,151.636z"/>
</g>
<g>
</g>
<g>
</g>
<g>
</g>
<g>
</g>
<g>
</g>
<g>
</g>
<g>
</g>
<g>
</g>
<g>
</g>
<g>
</g>
<g>
</g>
<g>
</g>
<g>
</g>
<g>
</g>
<g>
</g>
</svg>
