<?xml version="1.0" encoding="iso-8859-1"?>
<!-- Generator: Adobe Illustrator 19.0.0, SVG Export Plug-In . SVG Version: 6.00 Build 0)  -->
<svg xmlns="http://www.w3.org/2000/svg" xmlns:xlink="http://www.w3.org/1999/xlink" version="1.1" id="Layer_1" x="0px" y="0px" viewBox="0 0 514.778 514.778" style="enable-background:new 0 0 514.778 514.778;" xml:space="preserve">
<g>
	<path style="fill:#55C0EB;" d="M402.139,65.211H32.005c-18.133,0-32,13.867-32,32v260.267c0,18.133,13.867,32,32,32h370.133   c18.133,0,32-13.867,32-32V97.211C434.139,79.078,419.206,65.211,402.139,65.211z"/>
	<path style="fill:#55C0EB;" d="M295.472,99.344H137.605V40.678c0-22.4,18.133-39.467,39.467-39.467h77.867   c22.4,0,39.467,18.133,39.467,39.467v58.667H295.472z M164.272,72.678h104.533v-32c0-7.467-6.4-12.8-12.8-12.8h-77.867   c-7.467,0-12.8,6.4-12.8,12.8v32H164.272z"/>
</g>
<rect x="290.286" y="341.156" transform="matrix(-0.5097 0.8604 -0.8604 -0.5097 809.6707 285.9501)" style="fill:#344A5E;" width="66.136" height="65.069"/>
<circle style="fill:#FFFFFF;" cx="174.939" cy="286.011" r="155.733"/>
<rect x="60.805" y="329.744" style="fill:#66C6B9;" width="35.2" height="40.533"/>
<rect x="123.739" y="252.944" style="fill:#415A6B;" width="35.2" height="117.333"/>
<rect x="185.605" y="277.478" style="fill:#F3705A;" width="35.2" height="92.8"/>
<rect x="248.539" y="210.278" style="fill:#FFD15C;" width="35.2" height="160"/>
<path style="fill:#415A6B;" d="M325.339,374.544c-49.067,83.2-156.8,110.933-240,60.8s-109.867-155.733-60.8-238.933  s156.8-109.867,238.933-60.8S374.405,292.411,325.339,374.544z M56.539,215.611c-38.4,65.067-17.067,149.333,48,188.8  c65.067,38.4,149.333,17.067,188.8-48c38.4-65.067,17.067-149.333-48-188.8C179.205,129.211,94.939,150.544,56.539,215.611z"/>
<path style="fill:#F3705A;" d="M419.206,504.678c-48-28.8-89.6-75.733-89.6-75.733l44.8-75.733c0,0,61.867,14.933,109.867,42.667  c29.867,17.067,39.467,56.533,21.333,86.4l0,0C487.472,512.144,449.072,522.811,419.206,504.678z"/>
<path style="fill:#F05540;" d="M411.739,363.878l-54.4,92.8c-17.067-16-27.733-27.733-27.733-27.733l44.8-75.733  C374.405,352.144,389.339,356.411,411.739,363.878z"/>
<path style="fill:#F3705A;" d="M389.339,355.344l-51.2,86.4c-4.267,7.467-13.867,9.6-20.267,5.333  c-6.4-4.267-9.6-13.867-5.333-20.267l51.2-86.4c4.267-7.467,13.867-9.6,20.267-5.333S393.605,347.878,389.339,355.344z"/>
<g>
</g>
<g>
</g>
<g>
</g>
<g>
</g>
<g>
</g>
<g>
</g>
<g>
</g>
<g>
</g>
<g>
</g>
<g>
</g>
<g>
</g>
<g>
</g>
<g>
</g>
<g>
</g>
<g>
</g>
</svg>
