<?xml version="1.0" encoding="iso-8859-1"?>
<!-- Generator: Adobe Illustrator 19.0.0, SVG Export Plug-In . SVG Version: 6.00 Build 0)  -->
<svg xmlns="http://www.w3.org/2000/svg" xmlns:xlink="http://www.w3.org/1999/xlink" version="1.1" id="Layer_1" x="0px" y="0px" viewBox="0 0 513.708 513.708" style="enable-background:new 0 0 513.708 513.708;" xml:space="preserve">
<path style="fill:#F05540;" d="M436.909,118.879c-3.2-39.467-62.933-71.467-136.533-71.467s-133.333,32-136.533,71.467H436.909z"/>
<polygon style="fill:#F3F3F3;" points="430.509,207.412 480.642,53.812 421.975,105.012 381.442,33.546 346.242,100.746   304.642,0.479 263.042,100.746 227.842,33.546 187.308,105.012 128.642,53.812 178.775,207.412 "/>
<g>
	<path style="fill:#E8EAE9;" d="M436.909,224.479c-1.067,0-2.133,0-3.2,0c-85.333-22.4-174.933-22.4-259.2,0   c-6.4,2.133-12.8-2.133-14.933-8.533s2.133-12.8,8.533-14.933c88.533-23.467,182.4-23.467,272,0   c6.4,2.133,10.667,8.533,8.533,14.933C447.575,221.279,442.242,224.479,436.909,224.479z"/>
	<path style="fill:#E8EAE9;" d="M436.909,293.812c-1.067,0-2.133,0-3.2,0c-85.333-22.4-174.933-22.4-259.2,0   c-6.4,2.133-12.8-2.133-14.933-8.533s2.133-12.8,8.533-14.933c88.533-23.467,182.4-23.467,272,0   c6.4,2.133,10.667,8.533,8.533,14.933C447.575,290.612,442.242,293.812,436.909,293.812z"/>
</g>
<path style="fill:#F3F3F3;" d="M436.909,270.346c-87.467-23.467-178.133-23.467-265.6,0c0-14.933,0-30.933,0-45.867  c87.467-23.467,178.133-23.467,265.6,0C436.909,239.412,436.909,254.346,436.909,270.346z"/>
<path style="fill:#62CEEF;" d="M219.308,243.679c-1.067-2.133-2.133-4.267-4.267-6.4c1.067-2.133,2.133-5.333,4.267-7.467  c2.133,0,5.333-1.067,7.467-1.067c1.067,2.133,2.133,4.267,4.267,6.4c-1.067,2.133-2.133,5.333-4.267,7.467  C224.642,242.612,222.508,243.679,219.308,243.679z"/>
<path style="fill:#8AD7F8;" d="M227.842,228.746c1.067,2.133,2.133,4.267,4.267,6.4c2.133,0,4.267-1.067,6.4-1.067  c-2.133-4.267-5.333-7.467-7.467-11.733C229.975,224.479,228.908,226.612,227.842,228.746z"/>
<path style="fill:#55C0EB;" d="M227.842,242.612c1.067-2.133,2.133-5.333,4.267-7.467c2.133,0,4.267-1.067,6.4-1.067  c-2.133,4.267-5.333,8.533-7.467,13.867C229.975,245.812,228.908,243.679,227.842,242.612z"/>
<path style="fill:#8AD7F8;" d="M219.308,243.679c2.133,0,5.333-1.067,7.467-1.067c1.067,2.133,2.133,3.2,3.2,5.333  c-5.333,1.067-9.6,1.067-14.933,2.133C217.175,247.946,218.242,245.812,219.308,243.679z"/>
<path style="fill:#55C0EB;" d="M219.308,243.679c-1.067-2.133-2.133-4.267-4.267-6.4c-2.133,0-4.267,1.067-6.4,1.067  c2.133,3.2,4.267,7.467,7.467,10.667C217.175,247.946,218.242,245.812,219.308,243.679z"/>
<path style="fill:#8AD7F8;" d="M219.308,229.812c-1.067,2.133-2.133,5.333-4.267,7.467c-2.133,0-4.267,1.067-6.4,1.067  c2.133-4.267,4.267-9.6,7.467-13.867C217.175,226.612,218.242,228.746,219.308,229.812z"/>
<path style="fill:#55C0EB;" d="M227.842,228.746c-2.133,0-5.333,1.067-7.467,1.067c-1.067-2.133-2.133-3.2-3.2-5.333  c5.333-1.067,9.6-1.067,14.933-2.133C229.975,224.479,228.908,226.612,227.842,228.746z"/>
<path style="fill:#62CEEF;" d="M300.375,236.212c-1.067-2.133-2.133-4.267-4.267-6.4c1.067-2.133,2.133-4.267,4.267-6.4  c2.133,0,5.333,0,7.467,0c1.067,2.133,2.133,4.267,4.267,6.4c-1.067,2.133-2.133,4.267-4.267,6.4  C305.708,236.212,303.575,236.212,300.375,236.212z"/>
<path style="fill:#8AD7F8;" d="M308.908,223.412c1.067,2.133,2.133,4.267,4.267,6.4c2.133,0,4.267,0,6.4,0  c-2.133-4.267-5.333-8.533-7.467-12.8C311.042,219.146,309.975,221.279,308.908,223.412z"/>
<path style="fill:#55C0EB;" d="M308.908,236.212c1.067-2.133,2.133-4.267,4.267-6.4c2.133,0,4.267,0,6.4,0  c-2.133,4.267-5.333,8.533-7.467,12.8C311.042,240.479,309.975,238.346,308.908,236.212z"/>
<path style="fill:#8AD7F8;" d="M300.375,236.212c2.133,0,5.333,0,7.467,0c1.067,2.133,2.133,4.267,3.2,5.333  c-5.333,0-9.6,0-14.933,0C298.242,240.479,299.309,238.346,300.375,236.212z"/>
<path style="fill:#55C0EB;" d="M300.375,236.212c-1.067-2.133-2.133-4.267-4.267-6.4c-2.133,0-4.267,0-6.4,0  c2.133,4.267,5.333,8.533,7.467,12.8C298.242,240.479,299.309,238.346,300.375,236.212z"/>
<path style="fill:#8AD7F8;" d="M300.375,223.412c-1.067,2.133-2.133,4.267-4.267,6.4c-2.133,0-4.267,0-6.4,0  c2.133-4.267,5.333-8.533,7.467-12.8C298.242,219.146,299.309,221.279,300.375,223.412z"/>
<path style="fill:#55C0EB;" d="M308.908,223.412c-2.133,0-5.333,0-7.467,0c-1.067-2.133-2.133-4.267-3.2-5.333  c5.333,0,9.6,0,14.933,0C311.042,219.146,309.975,221.279,308.908,223.412z"/>
<path style="fill:#62CEEF;" d="M381.442,242.612c-1.067-2.133-2.133-5.333-4.267-7.467c1.067-2.133,2.133-4.267,4.267-6.4  c2.133,0,5.333,1.067,7.467,1.067c1.067,2.133,2.133,5.333,4.267,7.467c-1.067,2.133-2.133,4.267-4.267,6.4  C386.775,243.679,384.642,242.612,381.442,242.612z"/>
<path style="fill:#8AD7F8;" d="M388.909,229.812c1.067,2.133,2.133,5.333,4.267,7.467c2.133,0,4.267,1.067,6.4,1.067  c-2.133-4.267-4.267-9.6-7.467-13.867C392.108,226.612,391.042,228.746,388.909,229.812z"/>
<path style="fill:#55C0EB;" d="M388.909,243.679c1.067-2.133,2.133-4.267,4.267-6.4c2.133,0,4.267,1.067,6.4,1.067  c-2.133,3.2-4.267,7.467-7.467,10.667C392.108,247.946,391.042,245.812,388.909,243.679z"/>
<path style="fill:#8AD7F8;" d="M381.442,242.612c2.133,0,5.333,1.067,7.467,1.067c1.067,2.133,2.133,4.267,3.2,6.4  c-5.333-1.067-9.6-1.067-14.933-2.133C379.308,245.812,380.375,243.679,381.442,242.612z"/>
<path style="fill:#55C0EB;" d="M381.442,242.612c-1.067-2.133-2.133-5.333-4.267-7.467c-2.133,0-4.267-1.067-6.4-1.067  c2.133,4.267,5.333,8.533,7.467,13.867C379.308,245.812,380.375,243.679,381.442,242.612z"/>
<path style="fill:#8AD7F8;" d="M381.442,228.746c-1.067,2.133-2.133,4.267-4.267,6.4c-2.133,0-4.267-1.067-6.4-1.067  c2.133-4.267,5.333-7.467,7.467-11.733C379.308,224.479,380.375,226.612,381.442,228.746z"/>
<path style="fill:#55C0EB;" d="M388.909,229.812c-2.133,0-5.333-1.067-7.467-1.067c-1.067-2.133-2.133-4.267-3.2-6.4  c5.333,1.067,9.6,1.067,14.933,2.133C392.108,226.612,391.042,228.746,388.909,229.812z"/>
<circle style="fill:#415A6B;" cx="228.908" cy="147.679" r="17.067"/>
<circle style="fill:#F3705A;" cx="228.908" cy="147.679" r="12.8"/>
<ellipse transform="matrix(-0.7072 -0.7071 0.7071 -0.7072 280.6387 401.7185)" style="fill:#FFFFFF;" cx="223.51" cy="142.743" rx="2.133" ry="5.334"/>
<circle style="fill:#415A6B;" cx="380.375" cy="147.679" r="17.067"/>
<circle style="fill:#F3705A;" cx="380.375" cy="147.679" r="12.8"/>
<ellipse transform="matrix(-0.7072 -0.7071 0.7071 -0.7072 539.228 508.0032)" style="fill:#FFFFFF;" cx="374.814" cy="142.335" rx="2.133" ry="5.334"/>
<circle style="fill:#415A6B;" cx="304.642" cy="119.946" r="20.267"/>
<circle style="fill:#8AD7F8;" cx="304.642" cy="119.946" r="16"/>
<ellipse transform="matrix(-0.7072 -0.7071 0.7071 -0.7072 428.7671 404.7957)" style="fill:#FFFFFF;" cx="298.211" cy="113.606" rx="3.2" ry="6.4"/>
<path style="fill:#FFD15C;" d="M492.375,242.612l-10.667,3.2c0,0-34.133,25.6-48,40.533c0,0-37.333,23.467-41.6,30.933  c0,0-40.533-2.133-53.333,5.333c0,0-44.8-3.2-59.733-12.8c-16-10.667-39.467-13.867-60.8-13.867c0,0-62.933-2.133-107.733,22.4  c-43.733,25.6-77.867,44.8-77.867,44.8l52.267,83.2l66.133-33.067c0,0,109.867,14.933,133.333,25.6  c23.467,11.733,36.267,9.6,49.067-3.2s78.933-58.667,88.533-64c0,0,13.867-4.267,26.667-28.8c2.133-4.267,3.2-6.4,4.267-7.467  l43.733-56.533l17.067-16C511.575,261.812,514.775,242.612,492.375,242.612z"/>
<path style="fill:#E8EAE9;" d="M412.375,333.279c-5.333-12.8-18.133-9.6-18.133-9.6s0,0-6.4,1.067  c-6.4,1.067-7.467,5.333-7.467,5.333c2.133,6.4,2.133,14.933,2.133,21.333c2.133,7.467,21.333,2.133,21.333,2.133  C413.442,350.346,415.575,342.879,412.375,333.279z"/>
<path style="fill:#F7B64C;" d="M249.175,380.212c-1.067,0-2.133,1.067-4.267,1.067C245.975,381.279,248.108,381.279,249.175,380.212  z"/>
<rect x="51.068" y="349.552" transform="matrix(0.3453 0.9385 -0.9385 0.3453 438.2035 131.755)" style="fill:#E8EAE9;" width="147.201" height="60.8"/>
<rect x="28.612" y="316.138" transform="matrix(-0.9385 0.3453 -0.3453 -0.9385 298.8389 763.5794)" style="fill:#415A6B;" width="105.601" height="184.535"/>
<path style="fill:#F7B64C;" d="M421.975,335.412L421.975,335.412c0-1.067,0-1.067,0-1.067c0-2.133-1.067-3.2-2.133-5.333l0,0l0,0  c0-1.067-1.067-1.067-1.067-2.133l0,0c0,0-5.333-10.667-24.533-12.8l-2.133,2.133c0,0,3.2,0,6.4,1.067  c2.133,0,4.267,1.067,7.467,2.133c5.333,3.2,9.6,8.533,11.733,13.867c0,1.067,1.067,3.2,0,4.267c0,6.4-4.267,16-20.267,20.267  c-11.733,3.2-23.467,6.4-36.267,10.667c-4.267,1.067-7.467,2.133-11.733,2.133s-8.533,0-12.8,0  c-9.6-1.067-18.133-1.067-27.733-2.133c-5.333-1.067-9.6-1.067-14.933-1.067c-4.267,0-7.467,1.067-11.733,2.133  c-5.333,1.067-10.667,2.133-16,3.2c-8.533,2.133-17.067,3.2-25.6,1.067l0,0c3.2,1.067,6.4,2.133,9.6,2.133  c-1.067,1.067-2.133,2.133-3.2,3.2c3.2-1.067,5.333-2.133,7.467-4.267c-1.067,2.133-2.133,3.2-4.267,5.333  c2.133,0,4.267-3.2,6.4-2.133c10.667-3.2,21.333-5.333,33.067-6.4c-2.133,3.2-4.267,7.467-6.4,10.667  c4.267-3.2,7.467-7.467,10.667-11.733c3.2,1.067,4.267,1.067,7.467,2.133c1.067,4.267,3.2,8.533,5.333,12.8  c-1.067-3.2-1.067-7.467-2.133-10.667c1.067,0,2.133,0,4.267,0c-1.067-1.067-2.133-1.067-4.267-2.133h1.067l0,0l0,0  c5.333,1.067,11.733,2.133,17.067,3.2l0,0c5.333,1.067,11.733,1.067,19.2,1.067c2.133,0,4.267,0,6.4-1.067h1.067  c8.533-1.067,18.133-3.2,26.667-5.333c1.067,0,1.067,0,2.133-1.067c1.067,0,2.133-1.067,3.2-1.067  c2.133-1.067,5.333-1.067,7.467-2.133c4.267-1.067,7.467-2.133,7.467-3.2c0,0,23.467-8.533,23.467-24.533  C421.975,337.546,421.975,336.479,421.975,335.412z"/>
<path style="fill:#E8EAE9;" d="M494.509,277.812l-2.133-7.467c0,0,11.733-17.067,19.2-8.533"/>
<g>
</g>
<g>
</g>
<g>
</g>
<g>
</g>
<g>
</g>
<g>
</g>
<g>
</g>
<g>
</g>
<g>
</g>
<g>
</g>
<g>
</g>
<g>
</g>
<g>
</g>
<g>
</g>
<g>
</g>
</svg>
