<?xml version="1.0" encoding="iso-8859-1"?>
<!-- Generator: Adobe Illustrator 19.0.0, SVG Export Plug-In . SVG Version: 6.00 Build 0)  -->
<svg xmlns="http://www.w3.org/2000/svg" xmlns:xlink="http://www.w3.org/1999/xlink" version="1.1" id="Layer_1" x="0px" y="0px" viewBox="0 0 512 512" style="enable-background:new 0 0 512 512;" xml:space="preserve">
<path style="fill:#F3F3F3;" d="M499.549,218.667c0,60.8-25.6,116.267-65.067,155.733c-37.333,36.267-57.6,86.4-60.8,137.6H141.149  v-58.667H98.483c-19.2,0-35.2-16-35.2-35.2v-74.667H27.016c-10.667,0-18.133-10.667-12.8-20.267l49.067-104.533  c0-60.8,24.533-115.2,64-154.667S221.149,0,281.949,0c59.733,0,114.133,24.533,153.6,64  C476.083,103.467,499.549,157.867,499.549,218.667z"/>
<path style="fill:#F3705A;" d="M121.949,262.4c-10.667-38.4,48-85.333,136.533-108.8c87.467-23.467,162.133-11.733,172.8,26.667  l-20.267,5.333c-6.4-22.4-70.4-32-147.2-11.733s-126.933,60.8-121.6,83.2L121.949,262.4z"/>
<path style="fill:#4EC0AA;" d="M388.616,333.867l-14.933-14.933c16-16-7.467-76.8-62.933-133.333s-116.267-80-133.333-62.933  l-14.933-14.933c27.733-27.733,98.133-1.067,162.133,62.933S417.416,305.067,388.616,333.867z"/>
<path style="fill:#FFD15C;" d="M235.016,375.467l5.333-20.267c22.4,6.4,62.933-44.8,83.2-121.6c9.6-37.333,13.867-73.6,10.667-102.4  c-3.2-24.533-10.667-41.6-22.4-44.8l5.333-20.267c20.267,5.333,33.067,27.733,37.333,61.867c4.267,30.933,0,70.4-10.667,109.867  C320.349,326.4,273.416,385.067,235.016,375.467z"/>
<path style="fill:#F3705A;" d="M131.549,278.4c-5.333-5.333-8.533-10.667-9.6-17.067L142.216,256c3.2,10.667,19.2,19.2,44.8,22.4  c28.8,3.2,65.067,0,102.4-10.667c76.8-20.267,126.933-60.8,121.6-83.2l20.267-5.333c10.667,38.4-48,85.333-136.533,108.8  c-39.467,10.667-78.933,14.933-109.867,10.667C160.349,296.533,142.216,289.067,131.549,278.4z"/>
<path style="fill:#4EC0AA;" d="M226.483,269.867c-64-64-91.733-134.4-62.933-162.133l14.933,14.933  c-16,16,7.467,76.8,62.933,133.333s116.267,80,133.333,62.933l14.933,14.933C360.883,361.6,290.483,334.933,226.483,269.867z"/>
<path style="fill:#FFD15C;" d="M217.949,364.8c-24.533-24.533-29.867-88.533-9.6-162.133c23.467-87.467,70.4-146.133,108.8-136.533  L311.816,86.4c-22.4-6.4-62.933,44.8-83.2,121.6s-10.667,140.8,11.733,147.2l-5.333,20.267  C228.616,373.333,223.283,370.133,217.949,364.8z"/>
<g>
</g>
<g>
</g>
<g>
</g>
<g>
</g>
<g>
</g>
<g>
</g>
<g>
</g>
<g>
</g>
<g>
</g>
<g>
</g>
<g>
</g>
<g>
</g>
<g>
</g>
<g>
</g>
<g>
</g>
</svg>
