<?xml version="1.0" encoding="iso-8859-1"?>
<!-- Generator: Adobe Illustrator 19.0.0, SVG Export Plug-In . SVG Version: 6.00 Build 0)  -->
<svg xmlns="http://www.w3.org/2000/svg" xmlns:xlink="http://www.w3.org/1999/xlink" version="1.1" id="Layer_1" x="0px" y="0px" viewBox="0 0 512 512" style="enable-background:new 0 0 512 512;" xml:space="preserve">
<path style="fill:#66C6B9;" d="M480,0H32C13.867,0,0,13.867,0,32v448c0,18.133,13.867,32,32,32h448c18.133,0,32-13.867,32-32V32  C512,13.867,498.133,0,480,0z"/>
<rect x="42.667" y="42.667" style="fill:#F3F3F3;" width="426.667" height="426.667"/>
<path style="fill:#FFD15C;" d="M348.8,269.867H256c-7.467,0-13.867-6.4-13.867-13.867V128c0-7.467,6.4-13.867,13.867-13.867  c7.467,0,13.867,6.4,13.867,13.867v115.2H348.8c7.467,0,13.867,6.4,13.867,13.867C362.667,264.533,355.2,269.867,348.8,269.867z"/>
<circle style="fill:#F05540;" cx="256" cy="256" r="35.2"/>
<circle style="fill:#F3705A;" cx="256" cy="256" r="12.8"/>
<g>
	<circle style="fill:#CED6E0;" cx="256" cy="76.8" r="12.8"/>
	<circle style="fill:#CED6E0;" cx="129.067" cy="129.067" r="12.8"/>
	<circle style="fill:#CED6E0;" cx="76.8" cy="256" r="12.8"/>
	<circle style="fill:#CED6E0;" cx="129.067" cy="382.933" r="12.8"/>
	<circle style="fill:#CED6E0;" cx="256" cy="435.2" r="12.8"/>
	<circle style="fill:#CED6E0;" cx="382.933" cy="382.933" r="12.8"/>
	<circle style="fill:#CED6E0;" cx="435.2" cy="256" r="12.8"/>
	<circle style="fill:#CED6E0;" cx="382.933" cy="129.067" r="12.8"/>
</g>
<g>
</g>
<g>
</g>
<g>
</g>
<g>
</g>
<g>
</g>
<g>
</g>
<g>
</g>
<g>
</g>
<g>
</g>
<g>
</g>
<g>
</g>
<g>
</g>
<g>
</g>
<g>
</g>
<g>
</g>
</svg>
