<?xml version="1.0" encoding="iso-8859-1"?>
<!-- Generator: Adobe Illustrator 19.0.0, SVG Export Plug-In . SVG Version: 6.00 Build 0)  -->
<svg xmlns="http://www.w3.org/2000/svg" xmlns:xlink="http://www.w3.org/1999/xlink" version="1.1" id="Layer_1" x="0px" y="0px" viewBox="0 0 512 512" style="enable-background:new 0 0 512 512;" xml:space="preserve">
<g>
	<polygon style="fill:#66C6B9;" points="310.4,102.4 291.2,141.867 247.467,148.267 279.467,178.133 272,221.867 310.4,201.6    349.867,221.867 342.4,178.133 373.333,148.267 330.667,141.867  "/>
	<polygon style="fill:#66C6B9;" points="62.933,102.4 43.733,141.867 0,148.267 30.933,178.133 24.533,221.867 62.933,201.6    101.333,221.867 93.867,178.133 125.867,148.267 82.133,141.867  "/>
</g>
<polygon style="fill:#F3705A;" points="186.667,37.333 156.8,98.133 89.6,107.733 138.667,154.667 126.933,221.867 186.667,190.933   246.4,221.867 235.733,154.667 283.733,107.733 216.533,98.133 "/>
<path style="fill:#FFD15C;" d="M0,268.8c0,0,38.4,25.6,50.133,30.933c0,0,29.867,23.467,48,29.867c18.133,7.467,71.467,32,71.467,32  s14.933,20.267,45.867,19.2c30.933-1.067,99.2,2.133,99.2,2.133s59.733,8.533,74.667,14.933l83.2-81.067l-80-43.733  c-25.6-13.867-53.333-21.333-83.2-20.267c-17.067,1.067-35.2,4.267-50.133,13.867c0,0-44.8,10.667-81.067,12.8s-48,10.667-48,10.667  s-9.6-6.4-23.467-5.333c0,0-21.333-13.867-39.467-13.867c0,0-34.133-21.333-51.2-17.067C0,258.133,0,268.8,0,268.8z"/>
<path style="fill:#F7B64C;" d="M285.867,339.2l-24.533-3.2l-12.8-2.133l-6.4-1.067c-2.133,0-4.267-1.067-6.4-1.067  c-4.267,0-8.533,0-12.8,0h-12.8c-8.533,0-17.067,0-25.6,1.067l0,0c-4.267,0-8.533-1.067-12.8-1.067l-12.8-1.067l-26.667-2.133l0,0  c-2.133,0-4.267-1.067-6.4-3.2c-2.133-1.067-3.2-3.2-5.333-5.333c-2.133-4.267-2.133-8.533-2.133-13.867c0-1.067,0-2.133,1.067-3.2  c0-1.067,1.067-2.133,1.067-3.2c1.067-2.133,2.133-4.267,3.2-5.333c1.067-2.133,2.133-3.2,4.267-5.333c1.067,0,1.067,0,1.067,0l0,0  c-1.067,2.133-3.2,3.2-4.267,5.333c-1.067,2.133-2.133,3.2-3.2,5.333c-1.067,2.133-1.067,4.267-1.067,6.4  c-1.067,4.267,0,8.533,2.133,12.8c1.067,2.133,2.133,3.2,4.267,4.267s3.2,2.133,5.333,2.133c8.533,0,17.067,1.067,26.667,1.067  l26.667,1.067l0,0c8.533,0,17.067,0,25.6,0H224c4.267,0,8.533,0,12.8,1.067c2.133,0,4.267,1.067,6.4,1.067l6.4,1.067l12.8,2.133  L285.867,339.2z"/>
<path style="fill:#F3F3F3;" d="M161.067,309.333c0,5.333-1.067,8.533-6.4,11.733c-5.333,2.133-16,2.133-18.133,2.133  c-10.667,0-10.667-27.733,0-27.733c4.267,0,13.867-1.067,17.067-1.067C157.867,295.467,161.067,302.933,161.067,309.333z"/>
<polygon style="fill:#E8EAE9;" points="456.533,289.067 418.133,426.667 358.4,410.667 395.733,273.067 "/>
<polygon style="fill:#415A6B;" points="512,285.867 460.8,474.667 370.133,450.133 422.4,261.333 "/>
<path style="fill:#F3F3F3;" d="M24.533,284.8c0,0,4.267-7.467,1.067-10.667c-3.2-3.2-21.333-10.667-25.6-5.333"/>
<g>
</g>
<g>
</g>
<g>
</g>
<g>
</g>
<g>
</g>
<g>
</g>
<g>
</g>
<g>
</g>
<g>
</g>
<g>
</g>
<g>
</g>
<g>
</g>
<g>
</g>
<g>
</g>
<g>
</g>
</svg>
