<?xml version="1.0" encoding="iso-8859-1"?>
<!-- Generator: Adobe Illustrator 19.0.0, SVG Export Plug-In . SVG Version: 6.00 Build 0)  -->
<svg xmlns="http://www.w3.org/2000/svg" xmlns:xlink="http://www.w3.org/1999/xlink" version="1.1" id="Layer_1" x="0px" y="0px" viewBox="0 0 512 512" style="enable-background:new 0 0 512 512;" xml:space="preserve">
<path style="fill:#415A6B;" d="M480,0H32C13.867,0,0,13.867,0,32v317.867c0,18.133,13.867,32,32,32h448c18.133,0,32-13.867,32-32V32  C512,13.867,498.133,0,480,0z"/>
<rect x="53.333" y="53.333" style="fill:#E8EAE9;" width="405.333" height="275.2"/>
<path style="fill:#66C6B9;" d="M458.667,334.933H53.333c-3.2,0-6.4-3.2-6.4-6.4v-275.2c0-3.2,3.2-6.4,6.4-6.4h405.333  c3.2,0,6.4,3.2,6.4,6.4v275.2C465.067,331.733,461.867,334.933,458.667,334.933z M59.733,321.067h392.533V59.733H59.733V321.067z"/>
<g>
	<rect x="96" y="171.733" style="fill:#CED6E0;" width="320" height="17.067"/>
	<rect x="96" y="224" style="fill:#CED6E0;" width="320" height="17.067"/>
	<rect x="96" y="276.267" style="fill:#CED6E0;" width="320" height="17.067"/>
	<rect x="158.933" y="88.533" style="fill:#CED6E0;" width="194.133" height="40.533"/>
</g>
<g>
	<polygon style="fill:#F3705A;" points="129.067,370.133 179.2,512 199.467,469.333 242.133,489.6 200.533,370.133  "/>
	<polygon style="fill:#F3705A;" points="83.2,370.133 41.6,489.6 84.267,469.333 104.533,512 154.667,370.133  "/>
</g>
<circle style="fill:#FFD15C;" cx="141.867" cy="322.133" r="92.8"/>
<circle style="fill:#F7B64C;" cx="141.867" cy="322.133" r="60.8"/>
<g>
</g>
<g>
</g>
<g>
</g>
<g>
</g>
<g>
</g>
<g>
</g>
<g>
</g>
<g>
</g>
<g>
</g>
<g>
</g>
<g>
</g>
<g>
</g>
<g>
</g>
<g>
</g>
<g>
</g>
</svg>
