<?xml version="1.0" encoding="iso-8859-1"?>
<!-- Generator: Adobe Illustrator 19.0.0, SVG Export Plug-In . SVG Version: 6.00 Build 0)  -->
<svg xmlns="http://www.w3.org/2000/svg" xmlns:xlink="http://www.w3.org/1999/xlink" version="1.1" id="Layer_1" x="0px" y="0px" viewBox="0 0 492.8 492.8" style="enable-background:new 0 0 492.8 492.8;" xml:space="preserve">
<g>
	<path style="fill:#FFD15C;" d="M316.8,227.2c-3.2,12.8-10.667,22.4-17.067,21.333c-6.4-1.067-9.6-12.8-7.467-25.6   s10.667-22.4,17.067-21.333C315.733,202.667,318.933,214.4,316.8,227.2z"/>
	<path style="fill:#FFD15C;" d="M176,227.2c3.2,12.8,10.667,22.4,17.067,21.333c6.4-1.067,9.6-12.8,7.467-25.6   c-2.133-12.8-10.667-22.4-17.067-21.333C177.067,202.667,173.867,214.4,176,227.2z"/>
</g>
<g>
	<ellipse style="fill:#415A6B;" cx="236.8" cy="183.467" rx="59.733" ry="67.2"/>
	<path style="fill:#415A6B;" d="M311.467,194.133c-6.4,37.333-29.867,67.2-52.267,67.2s-35.2-29.867-28.8-67.2   c6.4-37.333,29.867-67.2,52.267-67.2C305.067,126.933,317.867,156.8,311.467,194.133z"/>
</g>
<path style="fill:#344A5E;" d="M330.667,466.133l80-78.933c-5.333-21.333-19.2-39.467-39.467-49.067l-70.4-33.067L246.4,326.4  L192,305.067l-70.4,33.067c-20.267,9.6-34.133,27.733-39.467,49.067L160,466.133H330.667z"/>
<polygon style="fill:#E8EAE9;" points="256,466.133 289.067,336 197.333,336 235.733,466.133 "/>
<polygon style="fill:#F3705A;" points="227.2,466.133 265.6,466.133 279.467,437.333 257.067,365.867 267.733,347.733 246.4,326.4   225.067,347.733 235.733,365.867 213.333,437.333 "/>
<g>
	<path style="fill:#F3F3F3;" d="M246.4,326.4c0,0,37.333-24.533,39.467-45.867l13.867,24.533l-25.6,56.533L246.4,326.4z"/>
	<path style="fill:#F3F3F3;" d="M246.4,326.4c0,0-37.333-24.533-39.467-45.867l-13.867,24.533l25.6,56.533L246.4,326.4z"/>
</g>
<path style="fill:#F7B64C;" d="M206.933,256v25.6c3.2,21.333,39.467,45.867,39.467,45.867s37.333-24.533,39.467-45.867V256H206.933z  "/>
<g>
	<polygon style="fill:#415A6B;" points="268.8,466.133 317.867,381.867 300.8,348.8 332.8,341.333 292.267,291.2 254.933,466.133     "/>
	<polygon style="fill:#415A6B;" points="174.933,381.867 224,466.133 237.867,466.133 200.533,291.2 160,341.333 192,348.8  "/>
</g>
<path style="fill:#FFD15C;" d="M190.933,179.2c-3.2,10.667-5.333,22.4-5.333,34.133c0,46.933,27.733,84.267,60.8,84.267  c34.133,0,60.8-37.333,60.8-84.267c0-25.6-8.533-49.067-21.333-64C257.067,167.467,224,178.133,190.933,179.2z"/>
<path style="fill:#E8EAE9;" d="M330.667,476.8H162.133c-3.2,0-5.333-1.067-7.467-3.2L35.2,354.133c-2.133-2.133-3.2-4.267-3.2-7.467  V178.133c0-3.2,1.067-5.333,3.2-7.467L154.667,51.2c2.133-2.133,4.267-3.2,7.467-3.2h168.533c3.2,0,5.333,1.067,7.467,3.2  L457.6,170.667c2.133,2.133,3.2,4.267,3.2,7.467v168.533c0,3.2-1.067,5.333-3.2,7.467L338.133,473.6  C336,475.733,333.867,476.8,330.667,476.8z M166.4,455.467h160L439.467,342.4v-160L326.4,69.333h-160L53.333,182.4v160  L166.4,455.467z"/>
<circle style="fill:#FFD15C;" cx="162.133" cy="58.667" r="42.667"/>
<circle style="fill:#8AD7F8;" cx="330.667" cy="58.667" r="42.667"/>
<circle style="fill:#F3705A;" cx="450.133" cy="177.067" r="42.667"/>
<circle style="fill:#66C6B9;" cx="42.667" cy="177.067" r="42.667"/>
<circle style="fill:#FFD15C;" cx="450.133" cy="342.4" r="42.667"/>
<circle style="fill:#F3705A;" cx="42.667" cy="342.4" r="42.667"/>
<g>
</g>
<g>
</g>
<g>
</g>
<g>
</g>
<g>
</g>
<g>
</g>
<g>
</g>
<g>
</g>
<g>
</g>
<g>
</g>
<g>
</g>
<g>
</g>
<g>
</g>
<g>
</g>
<g>
</g>
</svg>
