<?xml version="1.0" encoding="iso-8859-1"?>
<!-- Generator: Adobe Illustrator 19.0.0, SVG Export Plug-In . SVG Version: 6.00 Build 0)  -->
<svg xmlns="http://www.w3.org/2000/svg" xmlns:xlink="http://www.w3.org/1999/xlink" version="1.1" id="Layer_1" x="0px" y="0px" viewBox="0 0 512.127 512.127" style="enable-background:new 0 0 512.127 512.127;" xml:space="preserve">
<path style="fill:#F3F3F3;" d="M132.33,512.127h258.133c3.2-46.933,24.533-90.667,57.6-124.8c39.467-40.533,64-97.067,64-158.933  l0,0c0-129.067-106.667-232.533-236.8-228.267C151.53,4.394,55.53,109.994,55.53,233.727l0,0L0.064,367.061H55.53v65.067  c0,13.867,11.733,25.6,24.533,25.6h52.267V512.127z"/>
<polygon style="fill:#FFD15C;" points="314.73,124.927 342.464,124.927 289.13,63.061 235.797,124.927 263.53,124.927   263.53,175.061 314.73,175.061 "/>
<polygon style="fill:#F3705A;" points="263.53,317.994 235.797,317.994 289.13,379.861 342.464,317.994 314.73,317.994   314.73,267.861 263.53,267.861 "/>
<polygon style="fill:#8AD7F8;" points="446.997,220.927 385.13,168.661 385.13,195.327 336.064,195.327 336.064,247.594   385.13,247.594 385.13,274.261 "/>
<polygon style="fill:#415A6B;" points="193.13,195.327 193.13,168.661 131.264,220.927 193.13,274.261 193.13,247.594   242.197,247.594 242.197,195.327 "/>
<g>
</g>
<g>
</g>
<g>
</g>
<g>
</g>
<g>
</g>
<g>
</g>
<g>
</g>
<g>
</g>
<g>
</g>
<g>
</g>
<g>
</g>
<g>
</g>
<g>
</g>
<g>
</g>
<g>
</g>
</svg>
