<?xml version="1.0" encoding="iso-8859-1"?>
<!-- Generator: Adobe Illustrator 19.0.0, SVG Export Plug-In . SVG Version: 6.00 Build 0)  -->
<svg xmlns="http://www.w3.org/2000/svg" xmlns:xlink="http://www.w3.org/1999/xlink" version="1.1" id="Layer_1" x="0px" y="0px" viewBox="0 0 512 512" style="enable-background:new 0 0 512 512;" xml:space="preserve">
<path style="fill:#344A5E;" d="M512,511.92l-19.2-89.6c-6.4-28.8-26.7-52.3-55.5-61.9l-103.5-34.1l-77.8,30.9l-78.9-30.9  l-102.4,35.2c-27.7,9.6-49.1,33.1-55.5,61.9L0,511.92H512z"/>
<polygon style="fill:#E8EAE9;" points="282.7,511.92 318.9,370.02 184.5,370.02 226.1,511.92 "/>
<polygon style="fill:#F3705A;" points="210.1,511.92 301.9,511.92 270.9,413.82 286.9,388.22 256,357.22 225.1,388.22 241.1,413.82   "/>
<g>
	<polygon style="fill:#F3F3F3;" points="256,357.22 313.6,292.22 333.9,327.42 296.5,408.42  "/>
	<path style="fill:#F3F3F3;" d="M256,357.22c0,0-53.3-35.2-57.6-66.1l-20.3,35.2l37.3,81.1L256,357.22z"/>
</g>
<g>
	<polygon style="fill:#415A6B;" points="330.7,511.92 388.3,433.02 344.5,401.02 388.3,370.02 322.1,306.02 278.4,511.92  "/>
	<polygon style="fill:#415A6B;" points="181.3,511.92 233.6,511.92 189.9,306.02 123.7,370.02 167.5,401.02 123.7,433.02  "/>
</g>
<path style="fill:#FFD15C;" d="M416,142.82c-7.3,3.1-14.4,3.7-21.3,0c0-23.5-59.7-49.1-138.7-49.1s-138.7,25.6-138.7,49.1  c-7.1,3.5-14.2,3.6-21.3,0c0-39.5,68.3-70.4,160-70.4S416,103.42,416,142.82z"/>
<path style="fill:#8AD7F8;" d="M176,281.52c-34.1-20.3-26.7-94.9,19.2-172.8C241.1,29.82,300.8-13.98,336,5.22l-10.7,18.1  c-20.3-11.7-72.5,26.7-112,96s-46.9,133.3-26.7,145.1L176,281.52z"/>
<path style="fill:#F3705A;" d="M336,282.62c-8.6-4.6-12.6-10.5-10.7-18.1c20.3-11.7,12.8-76-26.7-145.3  c-19.2-33.1-42.7-61.9-65.1-80c-20.3-16-37.3-21.1-46.9-15.7L176,5.22c18.1-10.7,42.7-4.5,70.4,16.8c24.5,19.2,50.1,50.1,70.4,85.3  C362.7,187.42,370.1,262.32,336,282.62z"/>
<path style="fill:#8AD7F8;" d="M195.2,285.82c-6.4,0-13.9-1.1-19.2-4.3c0.4-8.4,4.2-13.9,10.7-17.1c9.6,5.3,27.7-1.1,48-17.1  c22.4-18.1,45.9-45.9,65.1-80c39.5-69.3,45.9-132.3,25.6-144c-2-7,2.2-16.3,10.7-18.1c34.1,20.3,27.7,93.9-18.1,171.7  c-20.3,35.2-45.9,66.1-70.4,85.3C227.2,278.32,210.1,285.82,195.2,285.82z"/>
<path style="fill:#FFD15C;" d="M256,213.22c-90.7,0-160-29.9-160-70.4h21.3c0,23.5,59.7,49.1,138.7,49.1s138.7-25.6,138.7-49.1H416  C416,183.42,346.7,213.22,256,213.22z"/>
<path style="fill:#F3705A;" d="M316.8,285.82c-35.2,0-84.3-41.6-121.6-107.7c-45.9-79-53.3-153.7-19.2-172.9  c6.6,3.8,9.6,10.3,10.7,18.1c-20.3,11.7-12.8,75.7,26.7,145.1s91.7,106.7,112,96l10.7,18.1C330.7,284.72,324.3,285.82,316.8,285.82z  "/>
<g>
</g>
<g>
</g>
<g>
</g>
<g>
</g>
<g>
</g>
<g>
</g>
<g>
</g>
<g>
</g>
<g>
</g>
<g>
</g>
<g>
</g>
<g>
</g>
<g>
</g>
<g>
</g>
<g>
</g>
</svg>
