<?xml version="1.0" encoding="iso-8859-1"?>
<!-- Generator: Adobe Illustrator 19.0.0, SVG Export Plug-In . SVG Version: 6.00 Build 0)  -->
<svg xmlns="http://www.w3.org/2000/svg" xmlns:xlink="http://www.w3.org/1999/xlink" version="1.1" id="Layer_1" x="0px" y="0px" viewBox="0 0 512 512" style="enable-background:new 0 0 512 512;" xml:space="preserve">
<circle style="fill:#66C6B9;" cx="256" cy="256" r="256"/>
<circle style="fill:#FFFFFF;" cx="256" cy="256" r="205.867"/>
<polygon style="fill:#F3705A;" points="356.267,157.867 356.267,157.867 252.8,216.533 296.533,260.267 "/>
<circle style="fill:#344A5E;" cx="256" cy="256" r="48"/>
<circle style="fill:#415A6B;" cx="256" cy="256" r="22.4"/>
<g>
	<path style="fill:#CED6E0;" d="M256,102.4L256,102.4c-4.267,0-7.467-3.2-7.467-7.467V81.067c0-4.267,3.2-7.467,7.467-7.467l0,0   c4.267,0,7.467,3.2,7.467,7.467v12.8C263.467,98.133,260.267,102.4,256,102.4z"/>
	<path style="fill:#CED6E0;" d="M147.2,147.2L147.2,147.2c-3.2,3.2-8.533,3.2-11.733,0l-9.6-9.6c-3.2-3.2-3.2-8.533,0-11.733l0,0   c3.2-3.2,8.533-3.2,11.733,0l9.6,9.6C150.4,138.667,150.4,144,147.2,147.2z"/>
	<path style="fill:#CED6E0;" d="M102.4,256L102.4,256c0,4.267-3.2,7.467-7.467,7.467H81.067c-4.267,0-7.467-3.2-7.467-7.467l0,0   c0-4.267,3.2-7.467,7.467-7.467h12.8C98.133,248.533,102.4,251.733,102.4,256z"/>
	<path style="fill:#CED6E0;" d="M147.2,364.8L147.2,364.8c3.2,3.2,3.2,8.533,0,11.733l-9.6,9.6c-3.2,3.2-8.533,3.2-11.733,0l0,0   c-3.2-3.2-3.2-8.533,0-11.733l9.6-9.6C138.667,361.6,144,361.6,147.2,364.8z"/>
	<path style="fill:#CED6E0;" d="M256,409.6L256,409.6c4.267,0,7.467,3.2,7.467,7.467v12.8c0,4.267-3.2,7.467-7.467,7.467l0,0   c-4.267,0-7.467-3.2-7.467-7.467v-12.8C248.533,413.867,251.733,409.6,256,409.6z"/>
	<path style="fill:#CED6E0;" d="M364.8,364.8L364.8,364.8c3.2-3.2,8.533-3.2,11.733,0l9.6,9.6c3.2,3.2,3.2,8.533,0,11.733l0,0   c-3.2,3.2-8.533,3.2-11.733,0l-9.6-9.6C361.6,373.333,361.6,368,364.8,364.8z"/>
	<path style="fill:#CED6E0;" d="M409.6,256L409.6,256c0-4.267,3.2-7.467,7.467-7.467h12.8c4.267,0,7.467,3.2,7.467,7.467l0,0   c0,4.267-3.2,7.467-7.467,7.467h-12.8C413.867,263.467,409.6,260.267,409.6,256z"/>
	<path style="fill:#CED6E0;" d="M364.8,147.2L364.8,147.2c-3.2-3.2-3.2-8.533,0-11.733l9.6-9.6c3.2-3.2,8.533-3.2,11.733,0l0,0   c3.2,3.2,3.2,8.533,0,11.733l-9.6,9.6C373.333,150.4,368,150.4,364.8,147.2z"/>
</g>
<g>
</g>
<g>
</g>
<g>
</g>
<g>
</g>
<g>
</g>
<g>
</g>
<g>
</g>
<g>
</g>
<g>
</g>
<g>
</g>
<g>
</g>
<g>
</g>
<g>
</g>
<g>
</g>
<g>
</g>
</svg>
