<?xml version="1.0" encoding="iso-8859-1"?>
<!-- Generator: Adobe Illustrator 19.0.0, SVG Export Plug-In . SVG Version: 6.00 Build 0)  -->
<svg xmlns="http://www.w3.org/2000/svg" xmlns:xlink="http://www.w3.org/1999/xlink" version="1.1" id="Layer_1" x="0px" y="0px" viewBox="0 0 513.067 513.067" style="enable-background:new 0 0 513.067 513.067;" xml:space="preserve">
<path style="fill:#415A6B;" d="M487.467,420.8H24.533V83.733c0-11.733,9.6-21.333,21.333-21.333H467.2  c11.733,0,21.333,9.6,21.333,21.333V420.8H487.467z"/>
<path style="fill:#CED6E0;" d="M0,390.933L0,390.933C0,424,26.667,450.667,59.733,450.667h393.6  c33.067,0,59.733-26.667,59.733-59.733l0,0H0z"/>
<rect x="56.533" y="94.4" style="fill:#FFFFFF;" width="400" height="253.867"/>
<g>
	<rect x="104.533" y="140.267" style="fill:#E8EAE9;" width="210.133" height="14.933"/>
	<rect x="104.533" y="189.333" style="fill:#E8EAE9;" width="210.133" height="14.933"/>
	<rect x="104.533" y="238.4" style="fill:#E8EAE9;" width="210.133" height="14.933"/>
	<rect x="104.533" y="288.533" style="fill:#E8EAE9;" width="210.133" height="14.933"/>
</g>
<path style="fill:#F3705A;" d="M365.867,309.867l64,64c12.8,12.8,34.133,12.8,46.933,0c12.8-12.8,12.8-34.133,0-46.933l-64-64  L365.867,309.867z"/>
<circle style="fill:#8AD7F8;" cx="328.533" cy="223.467" r="99.2"/>
<path style="fill:#FFFFFF;" d="M384,217.067c-2.133,0-4.267,1.067-5.333,3.2L371.2,235.2l-4.267-13.867  c-1.067-3.2-3.2-4.267-6.4-4.267H342.4l-8.533-13.867c-1.067-2.133-4.267-3.2-6.4-3.2c-2.133,0-4.267,2.133-5.333,4.267L310.4,248  l-14.933-68.267c-1.067-3.2-3.2-4.267-5.333-5.333c-3.2,0-5.333,1.067-6.4,4.267l-16,38.4h-29.867v12.8H272  c2.133,0,5.333-1.067,6.4-4.267l9.6-23.467l16,75.733c1.067,3.2,3.2,5.333,6.4,5.333l0,0c3.2,0,5.333-2.133,6.4-4.267l14.933-55.467  l3.2,4.267c1.067,2.133,3.2,3.2,5.333,3.2h16l7.467,25.6c1.067,2.133,3.2,4.267,5.333,4.267c3.2,0,5.333-1.067,6.4-3.2l12.8-25.6h32  v-12.8H384V217.067z"/>
<path style="fill:#415A6B;" d="M328.533,335.467c-61.867,0-112-50.133-112-112c0-29.867,11.733-58.667,33.067-78.933  c21.333-21.333,49.067-33.067,78.933-33.067c61.867,0,112,50.133,112,112C441.6,285.333,390.4,335.467,328.533,335.467z   M328.533,137.067c-23.467,0-44.8,8.533-60.8,25.6c-16,16-25.6,38.4-25.6,60.8c0,48,38.4,86.4,86.4,86.4s86.4-38.4,86.4-86.4  S376.533,137.067,328.533,137.067z"/>
<polygon style="fill:#ADB3BA;" points="315.733,414.4 326.4,390.933 185.6,390.933 196.267,414.4 "/>
<g>
</g>
<g>
</g>
<g>
</g>
<g>
</g>
<g>
</g>
<g>
</g>
<g>
</g>
<g>
</g>
<g>
</g>
<g>
</g>
<g>
</g>
<g>
</g>
<g>
</g>
<g>
</g>
<g>
</g>
</svg>
