<?xml version="1.0" encoding="iso-8859-1"?>
<!-- Generator: Adobe Illustrator 19.0.0, SVG Export Plug-In . SVG Version: 6.00 Build 0)  -->
<svg xmlns="http://www.w3.org/2000/svg" xmlns:xlink="http://www.w3.org/1999/xlink" version="1.1" id="Layer_1" x="0px" y="0px" viewBox="0 0 513.708 513.708" style="enable-background:new 0 0 513.708 513.708;" xml:space="preserve">
<path style="fill:#4EC0AA;" d="M273.708,225.389l-8.533-38.4c-4.267-17.067-16-32-33.067-37.333l-34.133-12.8l-39.467,11.733  l-39.467-11.733l-34.133,11.733c-17.067,6.4-28.8,20.267-33.067,37.333l-8.533,38.4h230.4V225.389z"/>
<polygon style="fill:#CED6E0;" points="183.042,141.122 158.508,148.589 135.042,141.122 136.108,209.389 181.975,209.389 "/>
<polygon style="fill:#415A6B;" points="144.642,225.389 172.375,225.389 176.642,216.855 165.975,174.189 172.375,162.455   158.508,148.589 145.708,162.455 152.108,174.189 141.442,216.855 "/>
<path style="fill:#E8EAE9;" d="M158.508,148.589c0,0,23.467-14.933,25.6-28.8l8.533,16l-16,35.2L158.508,148.589z"/>
<polygon style="fill:#66C6B9;" points="176.642,225.389 212.908,163.522 199.042,156.055 212.908,150.722 189.442,127.255   165.975,225.389 "/>
<path style="fill:#E8EAE9;" d="M158.508,148.589c0,0-23.467-14.933-25.6-28.8l-8.533,16l17.067,36.267L158.508,148.589z"/>
<polygon style="fill:#66C6B9;" points="105.175,163.522 140.375,225.389 151.042,225.389 128.642,127.255 105.175,150.722   119.042,156.055 "/>
<path style="fill:#F7B64C;" d="M132.908,102.722v16c2.133,13.867,25.6,28.8,25.6,28.8s23.467-14.933,25.6-28.8v-16H132.908z"/>
<g>
	<path style="fill:#FFD15C;" d="M122.242,61.122c-1.067,5.333-2.133,9.6-2.133,16c0,26.667,17.067,48,39.467,48   c21.333,0,39.467-21.333,39.467-48c0-6.4-1.067-12.8-3.2-18.133C184.108,7.789,122.242,15.255,122.242,61.122z"/>
	<path style="fill:#FFD15C;" d="M204.375,78.189c-2.133,8.533-6.4,13.867-10.667,13.867c-4.267-1.067-6.4-8.533-4.267-16   c2.133-7.467,6.4-13.867,10.667-13.867S205.442,69.655,204.375,78.189z"/>
	<path style="fill:#FFD15C;" d="M113.708,78.189c2.133,8.533,6.4,13.867,10.667,13.867c4.267-1.067,6.4-8.533,4.267-16   c-2.133-8.533-6.4-13.867-10.667-13.867S111.575,69.655,113.708,78.189z"/>
</g>
<path style="fill:#415A6B;" d="M122.242,78.189c0-3.2,0-5.333,0-7.467c1.067-32,43.733-45.867,64-21.333  c1.067,1.067,1.067,2.133,1.067,2.133c0-4.267-3.2-9.6-3.2-9.6c9.6,7.467,11.733,24.533,9.6,36.267h2.133  c4.267-14.933,6.4-35.2,6.4-35.2c0-59.733-62.933-42.667-66.133-29.867c-26.667-13.867-23.467,40.533-16,65.067H122.242z"/>
<path style="fill:#4EC0AA;" d="M511.575,225.389l-8.533-38.4c-4.267-17.067-16-32-33.067-37.333l-34.133-12.8l-39.467,11.733  l-39.467-11.733l-34.133,12.8c-17.067,6.4-28.8,20.267-33.067,37.333l-8.533,38.4H511.575z"/>
<polygon style="fill:#CED6E0;" points="420.909,141.122 396.375,148.589 372.909,141.122 373.975,209.389 419.842,209.389 "/>
<polygon style="fill:#415A6B;" points="382.509,225.389 410.242,225.389 414.509,216.855 403.842,174.189 410.242,162.455   396.375,148.589 383.575,162.455 389.975,174.189 379.308,216.855 "/>
<path style="fill:#E8EAE9;" d="M396.375,148.589c0,0,23.467-14.933,25.6-28.8l8.533,16l-16,35.2L396.375,148.589z"/>
<polygon style="fill:#66C6B9;" points="415.575,225.389 450.775,163.522 436.909,156.055 450.775,150.722 427.308,127.255   403.842,225.389 "/>
<path style="fill:#E8EAE9;" d="M396.375,148.589c0,0-23.467-14.933-25.6-28.8l-8.533,16l17.067,36.267L396.375,148.589z"/>
<polygon style="fill:#66C6B9;" points="343.042,163.522 378.242,225.389 388.909,225.389 366.509,127.255 343.042,150.722   356.909,156.055 "/>
<path style="fill:#F7B64C;" d="M370.775,102.722v16c2.133,13.867,25.6,28.8,25.6,28.8s23.467-14.933,25.6-28.8v-16H370.775z"/>
<g>
	<path style="fill:#FFD15C;" d="M360.108,61.122c-1.067,5.333-2.133,9.6-2.133,16c0,26.667,17.067,48,39.467,48   c21.333,0,39.467-21.333,39.467-48c0-6.4-1.067-12.8-3.2-18.133C421.975,7.789,360.108,15.255,360.108,61.122z"/>
	<path style="fill:#FFD15C;" d="M442.242,78.189c-2.133,8.533-6.4,13.867-10.667,13.867c-5.333-1.067-7.467-8.533-5.333-17.067   c2.133-8.533,6.4-13.867,10.667-13.867C441.175,62.189,443.308,69.655,442.242,78.189z"/>
	<path style="fill:#FFD15C;" d="M351.575,78.189c2.133,8.533,6.4,13.867,10.667,13.867c4.267-1.067,6.4-8.533,4.267-16   c-2.133-7.467-6.4-13.867-10.667-13.867C351.575,62.189,349.442,69.655,351.575,78.189z"/>
</g>
<g>
	<path style="fill:#415A6B;" d="M361.175,78.189c0-3.2,0-5.333,0-7.467c1.067-32,43.733-45.867,64-21.333   c1.067,1.067,1.067,2.133,1.067,2.133c0-4.267-3.2-9.6-3.2-9.6c9.6,7.467,11.733,24.533,9.6,36.267h2.133   c3.2-14.933,5.333-35.2,5.333-35.2c0-59.733-62.933-42.667-66.133-29.867c-26.667-13.867-22.4,40.533-16,65.067H361.175z"/>
	<path style="fill:#415A6B;" d="M329.175,109.122c0,0-2.133,24.533-6.4,41.6h-3.2c1.067-5.333,1.067-11.733,0-17.067   c-1.067,11.733-9.6,23.467-25.6,23.467c-8.533,0-14.933-3.2-19.2-8.533c-1.067,0-2.133,0-3.2-1.067c-3.2,2.133-7.467,3.2-12.8,3.2   c-11.733,0-19.2-6.4-23.467-14.933c0,2.133,0,3.2,0,5.333c0,3.2,0,5.333,0,9.6h-3.2c-8.533-28.8-12.8-92.8,19.2-76.8   C254.508,60.055,329.175,39.789,329.175,109.122z"/>
</g>
<path style="fill:#344A5E;" d="M412.375,323.522l-9.6-45.867c-4.267-20.267-19.2-37.333-38.4-43.733l-40.533-14.933l-45.867,13.867  l-45.867-13.867l-40.533,14.933c-19.2,7.467-34.133,23.467-38.4,43.733l-9.6,44.8h268.8V323.522z"/>
<polygon style="fill:#CED6E0;" points="305.708,225.389 277.975,233.922 250.242,225.389 251.309,304.322 304.642,304.322 "/>
<polygon style="fill:#F3705A;" points="261.975,323.522 293.975,323.522 298.242,313.922 285.442,262.722 293.975,254.189   277.975,233.922 261.975,254.189 269.442,262.722 257.708,313.922 "/>
<polyline style="fill:#E8EAE9;" points="318.508,217.922 299.309,260.589 277.975,233.922 "/>
<path style="fill:#F7B64C;" d="M248.108,180.589v19.2c2.133,16,29.867,34.133,29.867,34.133s27.733-18.133,29.867-34.133v-19.2  H248.108z"/>
<polyline style="fill:#E8EAE9;" points="277.975,233.922 307.842,199.789 318.508,217.922 "/>
<polygon style="fill:#415A6B;" points="304.642,323.522 336.642,272.322 320.642,263.789 349.442,240.322 313.175,209.389   286.508,323.522 "/>
<polygon style="fill:#E8EAE9;" points="277.975,233.922 248.108,199.789 237.442,217.922 256.642,260.589 "/>
<polygon style="fill:#415A6B;" points="251.309,323.522 219.308,272.322 235.309,263.789 206.508,240.322 241.708,209.389   269.442,323.522 "/>
<g>
	<path style="fill:#FFD15C;" d="M330.242,150.722c-2.133,9.6-7.467,17.067-12.8,16c-5.333-1.067-7.467-9.6-5.333-19.2   c2.133-9.6,7.467-17.067,12.8-16C330.242,132.589,332.375,141.122,330.242,150.722z"/>
	<path style="fill:#FFD15C;" d="M224.642,150.722c2.133,9.6,7.467,17.067,12.8,16c5.333-1.067,7.467-9.6,5.333-19.2   c-2.133-9.6-7.467-17.067-12.8-16C225.708,132.589,222.508,141.122,224.642,150.722z"/>
	<path style="fill:#FFD15C;" d="M492.375,242.455l-10.667,3.2c0,0-34.133,25.6-48,40.533c0,0-37.333,23.467-41.6,30.933   c0,0-40.533-2.133-53.333,5.333c0,0-44.8-3.2-59.733-12.8c-16-10.667-39.467-13.867-60.8-13.867c0,0-62.933-2.133-107.733,22.4   c-43.733,25.6-77.867,44.8-77.867,44.8l52.267,83.2l66.133-33.067c0,0,109.867,14.933,133.333,25.6   c23.467,11.733,36.267,9.6,49.067-3.2s78.933-58.667,88.533-64c0,0,13.867-4.267,26.667-28.8c2.133-4.267,3.2-6.4,4.267-7.467   l43.733-56.533l17.067-16C511.575,261.655,514.775,242.455,492.375,242.455z"/>
</g>
<path style="fill:#E8EAE9;" d="M412.375,333.122c-5.333-12.8-18.133-9.6-18.133-9.6s0,0-6.4,1.067  c-6.4,1.067-7.467,5.333-7.467,5.333c2.133,6.4,2.133,14.933,2.133,21.333c2.133,7.467,21.333,2.133,21.333,2.133  C413.442,350.189,415.575,342.722,412.375,333.122z"/>
<path style="fill:#F7B64C;" d="M249.175,380.055c-1.067,0-2.133,1.067-4.267,1.067C245.975,381.122,248.108,381.122,249.175,380.055  z"/>
<rect x="51.068" y="349.395" transform="matrix(0.3453 0.9385 -0.9385 0.3453 438.0561 131.6522)" style="fill:#E8EAE9;" width="147.201" height="60.8"/>
<rect x="28.612" y="315.981" transform="matrix(-0.9385 0.3453 -0.3453 -0.9385 298.7847 763.275)" style="fill:#415A6B;" width="105.601" height="184.535"/>
<path style="fill:#F7B64C;" d="M421.975,335.255L421.975,335.255c0-1.067,0-1.067,0-1.067c0-2.133-1.067-3.2-2.133-5.333l0,0l0,0  c0-1.067-1.067-1.067-1.067-2.133l0,0c0,0-5.333-10.667-24.533-12.8l-2.133,2.133c0,0,3.2,0,6.4,1.067  c2.133,0,4.267,1.067,7.467,2.133c5.333,3.2,9.6,8.533,11.733,13.867c0,1.067,1.067,3.2,0,4.267c0,6.4-4.267,16-20.267,20.267  c-11.733,3.2-23.467,6.4-36.267,10.667c-4.267,1.067-7.467,2.133-11.733,2.133s-8.533,0-12.8,0  c-9.6-1.067-18.133-1.067-27.733-2.133c-5.333-1.067-9.6-1.067-14.933-1.067c-4.267,0-7.467,1.067-11.733,2.133  c-5.333,1.067-10.667,2.133-16,3.2c-8.533,2.133-17.067,3.2-25.6,1.067l0,0c3.2,1.067,6.4,2.133,9.6,2.133  c-1.067,1.067-2.133,2.133-3.2,3.2c3.2-1.067,5.333-2.133,7.467-4.267c-1.067,2.133-2.133,3.2-4.267,5.333  c2.133,0,4.267-3.2,6.4-2.133c10.667-3.2,21.333-5.333,33.067-6.4c-2.133,3.2-4.267,7.467-6.4,10.667  c4.267-3.2,7.467-7.467,10.667-11.733c3.2,1.067,4.267,1.067,7.467,2.133c1.067,4.267,3.2,8.533,5.333,12.8  c-1.067-3.2-1.067-7.467-2.133-10.667c1.067,0,2.133,0,4.267,0c-1.067-1.067-2.133-1.067-4.267-2.133h1.067l0,0l0,0  c5.333,1.067,11.733,2.133,17.067,3.2l0,0c5.333,1.067,11.733,1.067,19.2,1.067c2.133,0,4.267,0,6.4-1.067h1.067  c8.533-1.067,18.133-3.2,26.667-5.333c1.067,0,1.067,0,2.133-1.067c1.067,0,2.133-1.067,3.2-1.067  c2.133-1.067,5.333-1.067,7.467-2.133c4.267-1.067,7.467-2.133,7.467-3.2c0,0,23.467-8.533,23.467-24.533  C421.975,337.389,421.975,336.322,421.975,335.255z"/>
<path style="fill:#E8EAE9;" d="M494.509,277.655l-2.133-7.467c0,0,11.733-17.067,19.2-8.533"/>
<path style="fill:#FFD15C;" d="M276.908,110.189c-13.867,0-25.6-3.2-35.2-7.467c-6.4,10.667-9.6,24.533-9.6,38.4  c0,35.2,20.267,62.933,45.867,62.933c25.6,0,45.867-28.8,45.867-62.933c0-14.933-4.267-28.8-9.6-39.467  C303.575,106.989,290.775,110.189,276.908,110.189z"/>
<g>
</g>
<g>
</g>
<g>
</g>
<g>
</g>
<g>
</g>
<g>
</g>
<g>
</g>
<g>
</g>
<g>
</g>
<g>
</g>
<g>
</g>
<g>
</g>
<g>
</g>
<g>
</g>
<g>
</g>
</svg>
