<?xml version="1.0" encoding="iso-8859-1"?>
<!-- Generator: Adobe Illustrator 19.0.0, SVG Export Plug-In . SVG Version: 6.00 Build 0)  -->
<svg xmlns="http://www.w3.org/2000/svg" xmlns:xlink="http://www.w3.org/1999/xlink" version="1.1" id="Layer_1" x="0px" y="0px" viewBox="0 0 512 512" style="enable-background:new 0 0 512 512;" xml:space="preserve">
<path id="SVGCleanerId_0" style="fill:#F3705A;" d="M436.267,498.715c-28.8-61.867-116.267-36.267-145.067-99.2  c25.6-37.333,50.133-74.667,75.733-112c28.8,61.867,116.267,36.267,145.067,98.133C486.4,422.982,461.867,460.315,436.267,498.715z"/>
<g>
	<path id="SVGCleanerId_0_1_" style="fill:#F3705A;" d="M436.267,498.715c-28.8-61.867-116.267-36.267-145.067-99.2   c25.6-37.333,50.133-74.667,75.733-112c28.8,61.867,116.267,36.267,145.067,98.133C486.4,422.982,461.867,460.315,436.267,498.715z   "/>
</g>
<path style="fill:#344A5E;" d="M216.533,509.382c-5.333-3.2-7.467-11.733-3.2-17.067L358.4,278.982  c3.2-5.333,11.733-7.467,17.067-3.2c5.333,3.2,7.467,11.733,3.2,17.067L233.6,506.182  C229.333,511.515,221.867,513.648,216.533,509.382z"/>
<path id="SVGCleanerId_1" style="fill:#F3705A;" d="M75.733,498.715c28.8-61.867,116.267-36.267,145.067-99.2  c-25.6-37.333-50.133-74.667-75.733-112C116.267,349.382,28.8,323.782,0,385.648C25.6,422.982,50.133,460.315,75.733,498.715z"/>
<g>
	<path id="SVGCleanerId_1_1_" style="fill:#F3705A;" d="M75.733,498.715c28.8-61.867,116.267-36.267,145.067-99.2   c-25.6-37.333-50.133-74.667-75.733-112C116.267,349.382,28.8,323.782,0,385.648C25.6,422.982,50.133,460.315,75.733,498.715z"/>
</g>
<path style="fill:#415A6B;" d="M295.467,509.382c5.333-3.2,7.467-11.733,3.2-17.067L153.6,278.982  c-3.2-5.333-11.733-7.467-17.067-3.2c-5.333,3.2-7.467,11.733-3.2,17.067L278.4,506.182  C282.667,511.515,290.133,513.648,295.467,509.382z"/>
<path style="fill:#FFD15C;" d="M240,142.448c0,0-1.067-21.333,6.4-37.333c4.267-20.267,2.133-21.333,2.133-21.333l-17.067-57.6  c0,0-5.333-19.2,11.733-24.533s25.6,7.467,25.6,7.467s24.533,35.2,23.467,57.6c-1.067,21.333-4.267,27.733,3.2,39.467  s9.6,29.867,9.6,29.867s8.533,22.4,7.467,27.733c0,0,17.067,9.6,13.867,29.867c-3.2,21.333-4.267,18.133-4.267,18.133  s12.8,8.533,9.6,27.733c-2.133,19.2-9.6,21.333-9.6,21.333s6.4,9.6,5.333,22.4c-1.067,17.067-11.733,17.067-11.733,17.067  s0,22.4-3.2,28.8s-16,11.733-19.2,11.733c-3.2,0-24.533,3.2-24.533,3.2s-11.733,10.667-24.533,9.6s-37.333-11.733-37.333-11.733  s-12.8-3.2-12.8-42.667c0,0-10.667-12.8-8.533-35.2c0,0,0-8.533-4.267-16c0,0-5.333-16,3.2-27.733  c3.2-9.6,1.067-27.733,1.067-27.733s-6.4-23.467,19.2-36.267c8.533-4.267,20.267-5.333,20.267-5.333S236.8,141.382,240,142.448z"/>
<g>
	<path style="fill:#F7B64C;" d="M251.733,77.382c0,0,2.133,1.067,6.4,1.067c4.267,0,8.533,0,13.867-1.067   c2.133,0,5.333-1.067,7.467-2.133c2.133-1.067,4.267-2.133,6.4-2.133c3.2-1.067,5.333-3.2,5.333-3.2s-2.133,2.133-5.333,4.267   c-3.2,2.133-7.467,4.267-12.8,6.4c-5.333,1.067-10.667,1.067-14.933,0S251.733,77.382,251.733,77.382z"/>
	<path style="fill:#F7B64C;" d="M263.467,75.248c0,0,2.133-1.067,4.267-2.133c1.067,0,2.133-1.067,4.267-2.133   c1.067,0,1.067-1.067,2.133-1.067l2.133-1.067c3.2-1.067,6.4-3.2,8.533-3.2c2.133-1.067,4.267-1.067,4.267-1.067   s-1.067,1.067-3.2,2.133s-5.333,3.2-8.533,4.267l-2.133,1.067c-1.067,0-2.133,1.067-2.133,1.067   c-2.133,1.067-4.267,1.067-5.333,1.067C264.533,75.248,263.467,75.248,263.467,75.248z"/>
	<path style="fill:#F7B64C;" d="M283.733,156.315c0,0,0,0-1.067,0c-1.067,0-2.133-1.067-3.2-2.133   c-2.133-2.133-4.267-5.333-6.4-8.533s-4.267-6.4-5.333-8.533c-1.067-2.133-2.133-4.267-2.133-4.267s1.067,2.133,2.133,4.267   c1.067,2.133,3.2,5.333,6.4,8.533c2.133,3.2,5.333,5.333,7.467,7.467c1.067,1.067,2.133,1.067,2.133,1.067c1.067,0,1.067,0,1.067,0   L283.733,156.315z"/>
	<path style="fill:#F7B64C;" d="M249.6,211.782c0,0-10.667-2.133-14.933-6.4C233.6,205.382,247.467,210.715,249.6,211.782   l18.133-2.133l-14.933-4.267c0,0,18.133,2.133,23.467,5.333c0,0,26.667,8.533,41.6,0l4.267,1.067v1.067c0,0-3.2-1.067-4.267,0   c-2.133,0-13.867,3.2-25.6,1.067c-11.733-2.133-20.267-4.267-20.267-4.267L249.6,211.782z"/>
	<path style="fill:#F7B64C;" d="M299.733,216.048c-3.2,0-5.333,0-8.533-1.067c-11.733-2.133-19.2-3.2-20.267-4.267l-21.333,1.067   l0,0c0,0-10.667-2.133-16-6.4l-3.2-3.2l3.2,1.067c5.333,2.133,13.867,5.333,16,6.4l12.8-1.067l-10.667-3.2v-1.067   c1.067,0,18.133,2.133,23.467,5.333c0,0,26.667,7.467,40.533,0l0,0l5.333,1.067v3.2H320c-1.067,0-3.2-1.067-4.267,0   C315.733,213.915,308.267,216.048,299.733,216.048z"/>
	<path style="fill:#F7B64C;" d="M235.733,303.515c0,0,4.267-3.2,20.267-3.2c17.067,1.067,17.067,1.067,17.067,1.067   s36.267,3.2,42.667-1.067v1.067c0,0-14.933,2.133-28.8,1.067c-13.867-1.067-13.867-1.067-13.867-1.067   S241.067,299.249,235.733,303.515z"/>
	<path style="fill:#F7B64C;" d="M234.667,146.715c-1.067,0-1.067,0-1.067,0C234.667,146.715,234.667,146.715,234.667,146.715z"/>
	<path style="fill:#F7B64C;" d="M304,157.382l-18.133-2.133l-3.2-8.533l2.133,8.533c0,0-7.467-2.133-12.8-12.8   c1.067,2.133,5.333,9.6,8.533,12.8l0,0H275.2l-3.2-4.267c-6.4-8.533-12.8-17.067-21.333-25.6l0,0l0,0   c7.467,8.533,14.933,18.133,21.333,26.667v1.067h-4.267c0,0-3.2-9.6-20.267-12.8c0,0,13.867,5.333,17.067,11.733   c-2.133-1.067-9.6-3.2-12.8-3.2c0,0-11.733-3.2-17.067-4.267c3.2,1.067,11.733,2.133,13.867,4.267l-22.4-1.067   c0,0,11.733,1.067,13.867,3.2c0,0,13.867-1.067,26.667,4.267c2.133,0,7.467,0,12.8,0l0,0h2.133c9.6,0,22.4,2.133,28.8,6.4   C309.333,161.648,306.133,159.515,304,157.382z"/>
	<path style="fill:#F7B64C;" d="M320,299.249c-2.133,1.067-3.2,1.067-3.2,1.067s0,1.067,0,2.133c-1.067,0-11.733,2.133-21.333,2.133   c-2.133,0-4.267,0-7.467,0l-13.867-1.067c-8.533-1.067-33.067-2.133-37.333,1.067l-2.133-2.133c0,0,4.267-3.2,18.133-3.2   c1.067,0,2.133,0,3.2,0h17.067c0,0,36.267,3.2,42.667,0H320z"/>
	<path style="fill:#F7B64C;" d="M308.267,265.115c0,0,8.533,0,14.933-2.133c-1.067-1.067-1.067-2.133-1.067-2.133s0,0,1.067,0   c0,0-8.533,2.133-10.667,2.133H307.2l-13.867-2.133l-17.067-1.067c-8.533,0-28.8-3.2-28.8-3.2l2.133,1.067l-6.4,1.067   c5.333,1.067,26.667,4.267,35.2,4.267C286.933,261.915,308.267,265.115,308.267,265.115z"/>
</g>
<g>
</g>
<g>
</g>
<g>
</g>
<g>
</g>
<g>
</g>
<g>
</g>
<g>
</g>
<g>
</g>
<g>
</g>
<g>
</g>
<g>
</g>
<g>
</g>
<g>
</g>
<g>
</g>
<g>
</g>
</svg>
