<?xml version="1.0" encoding="iso-8859-1"?>
<!-- Generator: Adobe Illustrator 19.0.0, SVG Export Plug-In . SVG Version: 6.00 Build 0)  -->
<svg xmlns="http://www.w3.org/2000/svg" xmlns:xlink="http://www.w3.org/1999/xlink" version="1.1" id="Layer_1" x="0px" y="0px" viewBox="0 0 512 512" style="enable-background:new 0 0 512 512;" xml:space="preserve">
<polygon style="fill:#F7B64C;" points="94.933,122.667 94.933,134.4 122.667,154.667 150.4,134.4 150.4,122.667 "/>
<g>
	
		<ellipse transform="matrix(0.1752 -0.9845 0.9845 0.1752 56.2561 233.3749)" style="fill:#FFD15C;" cx="167.414" cy="83.112" rx="14.933" ry="8.533"/>
	
		<ellipse transform="matrix(0.1752 0.9845 -0.9845 0.1752 145.1406 -7.9196)" style="fill:#FFD15C;" cx="77.297" cy="82.665" rx="14.933" ry="8.533"/>
</g>
<path style="fill:#415A6B;" d="M176,42.667c0,23.467-14.933,73.6-53.333,73.6s-53.333-50.133-53.333-73.6S92.8,0,122.667,0  C152.533,0,176,19.2,176,42.667z"/>
<path style="fill:#FFD15C;" d="M167.467,68.267c1.067,7.467,1.067,14.933,0,22.4l0,0c-5.333,28.8-22.4,49.067-44.8,49.067  S78.933,115.2,76.8,86.4c0-9.6-3.2-45.867,12.8-48c13.867-2.133,22.4,4.267,22.4,4.267s8.533,7.467,19.2,0c0,0,9.6-7.467,22.4-4.267  C162.133,39.467,166.4,54.4,167.467,68.267z"/>
<path style="fill:#E8EAE9;" d="M245.333,279.467H0l8.533-70.4C9.6,198.4,16,188.8,25.6,183.467L85.333,150.4l37.333,4.267L160,150.4  l58.667,33.067c9.6,5.333,16,14.933,17.067,25.6L245.333,279.467z"/>
<g>
	<polygon style="fill:#F05540;" points="131.2,177.067 137.6,170.667 122.667,154.667 107.733,170.667 114.133,177.067  "/>
	<polygon style="fill:#F05540;" points="114.133,177.067 99.2,279.467 122.667,279.467 147.2,279.467 131.2,177.067  "/>
</g>
<g>
	<polygon style="fill:#F3F3F3;" points="150.4,134.4 122.667,154.667 138.667,177.067 161.067,150.4  "/>
	<polygon style="fill:#F3F3F3;" points="94.933,134.4 122.667,154.667 106.667,177.067 85.333,150.4  "/>
</g>
<path style="fill:#E8EAE9;" d="M512,279.467H266.667l6.4-62.933c2.133-22.4,16-41.6,35.2-51.2c51.2-24.533,110.933-24.533,162.133,0  c20.267,9.6,33.067,29.867,35.2,51.2L512,279.467z"/>
<path style="fill:#F7B64C;" d="M361.6,122.667V134.4c6.4,10.667,16,18.133,27.733,20.267c10.667-2.133,21.333-9.6,27.733-20.267  v-11.733H361.6z"/>
<g>
	
		<ellipse transform="matrix(0.1752 -0.9845 0.9845 0.1752 276.104 495.9714)" style="fill:#FFD15C;" cx="434.065" cy="83.197" rx="14.933" ry="8.533"/>
	
		<ellipse transform="matrix(0.1752 0.9845 -0.9845 0.1752 364.7644 -269.9711)" style="fill:#FFD15C;" cx="343.51" cy="82.719" rx="14.933" ry="8.533"/>
</g>
<path style="fill:#415A6B;" d="M442.667,42.667c0,23.467-14.933,73.6-53.333,73.6S336,66.133,336,42.667S359.467,0,389.333,0  C419.2,0,442.667,19.2,442.667,42.667z"/>
<path style="fill:#FFD15C;" d="M432,50.133c-8.533-4.267-16-10.667-22.4-19.2c-12.8,16-32,26.667-57.6,26.667  c-3.2,0-5.333,0-8.533,0c-1.067,9.6,0,19.2,0,23.467c1.067,32,23.467,58.667,45.867,58.667c21.333,0,39.467-22.4,44.8-53.333l0,0  c1.067-7.467,1.067-16,0-24.533C434.133,57.6,433.067,53.333,432,50.133z"/>
<g>
	<path style="fill:#F05540;" d="M396.8,185.6l7.467-12.8c0,0-9.6-18.133-16-18.133c-6.4,0-16,18.133-16,18.133l7.467,12.8H396.8z"/>
	<polygon style="fill:#F05540;" points="380.8,185.6 366.933,246.4 389.333,279.467 411.733,246.4 396.8,185.6  "/>
</g>
<g>
	<path style="fill:#F3F3F3;" d="M417.067,132.267c-6.4,10.667-27.733,22.4-27.733,22.4s18.133,24.533,21.333,33.067l16-37.333   L417.067,132.267z"/>
	<path style="fill:#F3F3F3;" d="M361.6,132.267c6.4,10.667,27.733,22.4,27.733,22.4S371.2,179.2,368,187.733L352,150.4   L361.6,132.267z"/>
</g>
<path style="fill:#344A5E;" d="M124.8,279.467h120.533l-8.533-70.4c-1.067-10.667-7.467-20.267-17.067-25.6L161.067,150.4h-3.2  v66.133H140.8v18.133h-4.267L124.8,279.467z"/>
<polygon style="fill:#415A6B;" points="155.733,141.867 180.267,171.733 163.2,189.867 177.067,198.4 124.8,279.467 "/>
<path style="fill:#344A5E;" d="M121.6,279.467H0l8.533-70.4C9.6,198.4,16,188.8,25.6,183.467L85.333,150.4h3.2v66.133h18.133v18.133  h4.267L121.6,279.467z"/>
<polygon style="fill:#415A6B;" points="90.667,141.867 65.067,171.733 82.133,189.867 69.333,198.4 121.6,279.467 "/>
<path style="fill:#344A5E;" d="M512,279.467H389.333L426.667,150.4c14.933,3.2,28.8,7.467,42.667,14.933  c20.267,9.6,33.067,29.867,35.2,51.2L512,279.467z"/>
<polygon style="fill:#415A6B;" points="421.333,139.733 446.933,161.067 426.667,173.867 443.733,189.867 389.333,279.467 "/>
<path style="fill:#344A5E;" d="M266.667,279.467h122.667L352,149.333c-14.933,3.2-28.8,7.467-42.667,14.933  c-20.267,9.6-33.067,29.867-35.2,51.2L266.667,279.467z"/>
<polygon style="fill:#415A6B;" points="357.333,139.733 330.667,161.067 352,173.867 333.867,189.867 389.333,279.467 "/>
<rect x="339.18" y="359.767" transform="matrix(-0.7071 -0.7071 0.7071 -0.7071 351.3807 925.8795)" style="fill:#344A5E;" width="56.533" height="60.799"/>
<path style="fill:#F3705A;" d="M355.2,441.6l57.6,57.6c17.067,17.067,45.867,17.067,64,0c17.067-17.067,17.067-45.867,0-62.933  l-57.6-57.6L355.2,441.6z"/>
<rect x="382.858" y="371.304" transform="matrix(0.7071 0.7071 -0.7071 0.7071 409.4901 -156.3899)" style="fill:#F05540;" width="21.333" height="89.599"/>
<path style="fill:#F3705A;" d="M421.333,380.8l-64,64c-5.333,5.333-13.867,5.333-19.2,0c-5.333-5.333-5.333-13.867,0-19.2l64-64  c5.333-5.333,13.867-5.333,19.2,0C426.667,365.867,426.667,375.467,421.333,380.8z"/>
<circle style="fill:#FFFFFF;" cx="251.733" cy="275.2" r="129.067"/>
<path style="fill:#8AD7F8;" d="M251.733,421.333C170.667,421.333,105.6,355.2,105.6,275.2S171.733,128,251.733,128  s146.133,66.133,146.133,146.133S332.8,421.333,251.733,421.333z M251.733,163.2c-61.867,0-112,50.133-112,112s50.133,112,112,112  s112-50.133,112-112S313.6,163.2,251.733,163.2z"/>
<path style="fill:#FFD15C;" d="M333.867,275.2H323.2c0-11.733-30.933-25.6-71.467-25.6s-71.467,13.867-71.467,25.6H169.6  c0-20.267,35.2-36.267,82.133-36.267S333.867,254.933,333.867,275.2z"/>
<path style="fill:#415A6B;" d="M211.2,346.667c-18.133-10.667-13.867-49.067,9.6-89.6c23.467-40.533,54.4-64,72.533-53.333  l-5.333,9.6c-10.667-6.4-37.333,13.867-57.6,49.067c-20.267,35.2-24.533,68.267-13.867,74.667L211.2,346.667z"/>
<path style="fill:#F3705A;" d="M293.333,346.667l-5.333-9.6c10.667-6.4,6.4-39.467-13.867-74.667c-9.6-17.067-22.4-32-34.133-41.6  c-10.667-8.533-19.2-10.667-24.533-8.533l-5.333-9.6c9.6-5.333,22.4-2.133,36.267,9.6c12.8,9.6,25.6,25.6,36.267,43.733  C307.2,297.6,311.467,336,293.333,346.667z"/>
<path style="fill:#415A6B;" d="M220.8,348.8c-3.2,0-6.4-1.067-9.6-2.133l5.333-9.6c5.333,3.2,13.867,0,24.533-8.533  c11.733-9.6,23.467-23.467,34.133-41.6c20.267-35.2,24.533-68.267,13.867-74.667l5.333-9.6c18.133,10.667,13.867,49.067-9.6,89.6  C274.133,310.4,261.333,326.4,248.533,336C236.8,344.533,228.267,348.8,220.8,348.8z"/>
<path style="fill:#FFD15C;" d="M251.733,311.467c-46.933,0-82.133-16-82.133-36.267h10.667c0,11.733,30.933,25.6,71.467,25.6  s71.467-13.867,71.467-25.6h10.667C333.867,295.467,298.667,311.467,251.733,311.467z"/>
<path style="fill:#F3705A;" d="M283.733,348.8c-18.133,0-42.667-21.333-62.933-55.467c-23.467-40.533-27.733-78.933-9.6-89.6  l5.333,9.6c-10.667,6.4-6.4,39.467,13.867,74.667s46.933,55.467,57.6,49.067l5.333,9.6C290.133,347.733,286.933,348.8,283.733,348.8  z"/>
<g>
</g>
<g>
</g>
<g>
</g>
<g>
</g>
<g>
</g>
<g>
</g>
<g>
</g>
<g>
</g>
<g>
</g>
<g>
</g>
<g>
</g>
<g>
</g>
<g>
</g>
<g>
</g>
<g>
</g>
</svg>
