<?xml version="1.0" encoding="iso-8859-1"?>
<!-- Generator: Adobe Illustrator 19.0.0, SVG Export Plug-In . SVG Version: 6.00 Build 0)  -->
<svg xmlns="http://www.w3.org/2000/svg" xmlns:xlink="http://www.w3.org/1999/xlink" version="1.1" id="Layer_1" x="0px" y="0px" viewBox="0 0 513.708 513.708" style="enable-background:new 0 0 513.708 513.708;" xml:space="preserve">
<path style="fill:#F3705A;" d="M269.442,251.146c7.467,4.267,16,7.467,23.467,9.6l8.533,37.333h48l8.533-37.333  c8.533-2.133,16-5.333,23.467-9.6l32,20.267l34.133-34.133l-20.267-32c4.267-7.467,7.467-14.933,9.6-23.467l37.333-8.533v-48  l-37.333-8.533c-2.133-8.533-5.333-16-9.6-23.467l20.267-32l-34.133-34.133l-32,21.333c-7.467-4.267-14.933-7.467-23.467-9.6  l-8.533-38.4h-48l-8.533,37.333c-7.467,2.133-16,5.333-23.467,10.667l-33.067-21.333l-34.133,34.133l21.333,32  c-4.267,7.467-7.467,14.933-9.6,23.467l-37.333,8.533v48l37.333,8.533c2.133,8.533,5.333,16,9.6,23.467l-21.333,32l34.133,34.133  L269.442,251.146z"/>
<path style="fill:#FFD15C;" d="M492.375,242.612l-10.667,3.2c0,0-34.133,25.6-48,40.533c0,0-37.333,23.467-41.6,30.933  c0,0-40.533-2.133-53.333,5.333c0,0-44.8-3.2-59.733-12.8c-16-10.667-39.467-13.867-60.8-13.867c0,0-62.933-2.133-107.733,22.4  c-43.733,25.6-77.867,44.8-77.867,44.8l52.267,83.2l66.133-33.067c0,0,109.867,14.933,133.333,25.6  c23.467,11.733,36.267,9.6,49.067-3.2s78.933-58.667,88.533-64c0,0,13.867-4.267,26.667-28.8c2.133-4.267,3.2-6.4,4.267-7.467  l43.733-56.533l17.067-16C511.575,261.812,514.775,242.612,492.375,242.612z"/>
<path style="fill:#E8EAE9;" d="M412.375,333.279c-5.333-12.8-18.133-9.6-18.133-9.6s0,0-6.4,1.067  c-6.4,1.067-7.467,5.333-7.467,5.333c2.133,6.4,2.133,14.933,2.133,21.333c2.133,7.467,21.333,2.133,21.333,2.133  C413.442,350.346,415.575,342.879,412.375,333.279z"/>
<path style="fill:#F7B64C;" d="M249.175,380.212c-1.067,0-2.133,1.067-4.267,1.067C245.975,381.279,248.108,381.279,249.175,380.212  z"/>
<rect x="51.068" y="349.552" transform="matrix(0.3453 0.9385 -0.9385 0.3453 438.2035 131.755)" style="fill:#E8EAE9;" width="147.201" height="60.8"/>
<rect x="28.612" y="316.138" transform="matrix(-0.9385 0.3453 -0.3453 -0.9385 298.8389 763.5794)" style="fill:#415A6B;" width="105.601" height="184.535"/>
<path style="fill:#F7B64C;" d="M421.975,335.412L421.975,335.412c0-1.067,0-1.067,0-1.067c0-2.133-1.067-3.2-2.133-5.333l0,0l0,0  c0-1.067-1.067-1.067-1.067-2.133l0,0c0,0-5.333-10.667-24.533-12.8l-2.133,2.133c0,0,3.2,0,6.4,1.067  c2.133,0,4.267,1.067,7.467,2.133c5.333,3.2,9.6,8.533,11.733,13.867c0,1.067,1.067,3.2,0,4.267c0,6.4-4.267,16-20.267,20.267  c-11.733,3.2-23.467,6.4-36.267,10.667c-4.267,1.067-7.467,2.133-11.733,2.133s-8.533,0-12.8,0  c-9.6-1.067-18.133-1.067-27.733-2.133c-5.333-1.067-9.6-1.067-14.933-1.067c-4.267,0-7.467,1.067-11.733,2.133  c-5.333,1.067-10.667,2.133-16,3.2c-8.533,2.133-17.067,3.2-25.6,1.067l0,0c3.2,1.067,6.4,2.133,9.6,2.133  c-1.067,1.067-2.133,2.133-3.2,3.2c3.2-1.067,5.333-2.133,7.467-4.267c-1.067,2.133-2.133,3.2-4.267,5.333  c2.133,0,4.267-3.2,6.4-2.133c10.667-3.2,21.333-5.333,33.067-6.4c-2.133,3.2-4.267,7.467-6.4,10.667  c4.267-3.2,7.467-7.467,10.667-11.733c3.2,1.067,4.267,1.067,7.467,2.133c1.067,4.267,3.2,8.533,5.333,12.8  c-1.067-3.2-1.067-7.467-2.133-10.667c1.067,0,5.333-1.067,6.4-1.067c-1.067-1.067-4.267-1.067-6.4-1.067h1.067l0,0l0,0  c5.333,1.067,11.733,2.133,17.067,3.2l0,0c5.333,1.067,11.733,1.067,19.2,1.067c2.133,0,4.267,0,6.4-1.067h1.067  c8.533-1.067,18.133-3.2,26.667-5.333c1.067,0,1.067,0,2.133-1.067c1.067,0,2.133-1.067,3.2-1.067  c2.133-1.067,5.333-1.067,7.467-2.133c4.267-1.067,7.467-2.133,7.467-3.2c0,0,23.467-8.533,23.467-24.533  C421.975,337.546,421.975,336.479,421.975,335.412z"/>
<polygon style="fill:#FFFFFF;" points="325.975,78.346 341.975,130.612 397.442,130.612 352.642,162.612 369.708,213.812   325.975,181.812 281.175,213.812 298.242,162.612 254.508,130.612 308.908,130.612 "/>
<path style="fill:#E8EAE9;" d="M494.509,277.812l-2.133-7.467c0,0,11.733-17.067,19.2-8.533"/>
<g>
</g>
<g>
</g>
<g>
</g>
<g>
</g>
<g>
</g>
<g>
</g>
<g>
</g>
<g>
</g>
<g>
</g>
<g>
</g>
<g>
</g>
<g>
</g>
<g>
</g>
<g>
</g>
<g>
</g>
</svg>
