<?xml version="1.0" encoding="iso-8859-1"?>
<!-- Generator: Adobe Illustrator 19.0.0, SVG Export Plug-In . SVG Version: 6.00 Build 0)  -->
<svg xmlns="http://www.w3.org/2000/svg" xmlns:xlink="http://www.w3.org/1999/xlink" version="1.1" id="Layer_1" x="0px" y="0px" viewBox="0 0 512 512" style="enable-background:new 0 0 512 512;" xml:space="preserve">
<path style="fill:#8AD7F8;" d="M398.4,439.467H32.533c-18.133,0-32-13.867-32-32v-323.2c0-18.133,13.867-32,32-32H398.4  c18.133,0,32,13.867,32,32v323.2C430.4,424.533,416.533,439.467,398.4,439.467z"/>
<rect x="43.2" y="148.267" style="fill:#FFFFFF;" width="344.533" height="247.467"/>
<g>
	<rect x="69.867" y="174.933" style="fill:#415A6B;" width="74.667" height="50.133"/>
	<rect x="178.667" y="174.933" style="fill:#415A6B;" width="74.667" height="50.133"/>
	<rect x="286.4" y="174.933" style="fill:#415A6B;" width="74.667" height="50.133"/>
	<rect x="69.867" y="247.467" style="fill:#415A6B;" width="74.667" height="50.133"/>
	<rect x="178.667" y="247.467" style="fill:#415A6B;" width="74.667" height="50.133"/>
	<rect x="286.4" y="247.467" style="fill:#415A6B;" width="74.667" height="50.133"/>
	<rect x="69.867" y="320" style="fill:#415A6B;" width="74.667" height="50.133"/>
	<rect x="178.667" y="320" style="fill:#415A6B;" width="74.667" height="50.133"/>
	<rect x="286.4" y="320" style="fill:#415A6B;" width="74.667" height="50.133"/>
	<path style="fill:#415A6B;" d="M100.8,0L100.8,0C88,0,77.333,10.667,77.333,23.467v58.667c0,12.8,10.667,23.467,23.467,23.467l0,0   c12.8,0,23.467-10.667,23.467-23.467V23.467C124.267,10.667,113.6,0,100.8,0z"/>
	<path style="fill:#415A6B;" d="M330.133,0L330.133,0c-12.8,0-23.467,10.667-23.467,23.467v58.667   c0,12.8,10.667,23.467,23.467,23.467l0,0c12.8,0,23.467-10.667,23.467-23.467V23.467C353.6,10.667,342.933,0,330.133,0z"/>
</g>
<path style="fill:#F3F3F3;" d="M393.067,412.8v66.133h-30.933c-19.2,0-35.2,14.933-38.4,33.067H504  c-2.133-19.2-18.133-33.067-38.4-33.067h-30.933V412.8c45.867-25.6,76.8-74.667,76.8-129.067v-97.067h-195.2v97.067  C316.267,338.133,347.2,387.2,393.067,412.8z"/>
<path style="fill:#F3705A;" d="M341.867,245.333v38.4c0,48,28.8,91.733,72.533,110.933c43.733-19.2,72.533-62.933,72.533-110.933  v-38.4H341.867z"/>
<g>
</g>
<g>
</g>
<g>
</g>
<g>
</g>
<g>
</g>
<g>
</g>
<g>
</g>
<g>
</g>
<g>
</g>
<g>
</g>
<g>
</g>
<g>
</g>
<g>
</g>
<g>
</g>
<g>
</g>
</svg>
