<?xml version="1.0" encoding="iso-8859-1"?>
<!-- Generator: Adobe Illustrator 19.0.0, SVG Export Plug-In . SVG Version: 6.00 Build 0)  -->
<svg xmlns="http://www.w3.org/2000/svg" xmlns:xlink="http://www.w3.org/1999/xlink" version="1.1" id="Layer_1" x="0px" y="0px" viewBox="0 0 511.996 511.996" style="enable-background:new 0 0 511.996 511.996;" xml:space="preserve">
<path style="fill:#F3F3F3;" d="M76.265,286.93c-41.6,0-75.733-34.133-75.733-75.733c0-40.533,30.933-73.6,71.467-75.733  c3.2-17.067,14.933-33.067,32-40.533c19.2-8.533,40.533-5.333,55.467,5.333c12.8-64,73.6-107.733,139.733-99.2  c68.267,9.6,116.267,72.533,106.667,140.8c9.6-4.267,19.2-6.4,29.867-6.4c41.6,0,75.733,34.133,75.733,75.733  s-34.133,75.733-75.733,75.733L76.265,286.93L76.265,286.93z"/>
<g>
	<path style="fill:#FFD15C;" d="M256.532,241.063c-70.4,0-128,90.667-128,167.467c0,56.533,48,103.467,104.533,103.467h45.867   c56.533,0,104.533-45.867,104.533-103.467C384.532,331.73,326.932,241.063,256.532,241.063z"/>
	<path style="fill:#FFD15C;" d="M284.265,266.663c-17.067-9.6-38.4-9.6-56.533,0c-13.867-21.333-32-49.067-54.4-84.267   c46.933-43.733,118.4-43.733,165.333,0C316.265,217.596,298.132,244.263,284.265,266.663z"/>
</g>
<path style="fill:#F7B64C;" d="M249.065,468.263v-13.867c-16-2.133-29.867-9.6-43.733-21.333l17.067-21.333  c9.6,8.533,18.133,13.867,26.667,16v-27.733c-12.8-3.2-22.4-7.467-28.8-13.867c-6.4-4.267-9.6-12.8-9.6-23.467  s3.2-19.2,10.667-26.667c7.467-6.4,16-10.667,27.733-12.8v-9.6h20.267v9.6c12.8,2.133,24.533,6.4,37.333,16l-14.933,22.4  c-7.467-5.333-14.933-9.6-21.333-11.733v26.667c13.867,3.2,23.467,8.533,29.867,13.867c6.4,5.333,9.6,13.867,9.6,24.533  c0,10.667-3.2,19.2-10.667,26.667s-17.067,10.667-28.8,12.8v12.8h-21.333V468.263z M249.065,349.863  c-5.333,2.133-8.533,5.333-8.533,10.667c0,5.333,3.2,8.533,8.533,11.733V349.863z M277.865,418.13c0-2.133-1.067-4.267-2.133-6.4  c-1.067-2.133-4.267-3.2-7.467-5.333v23.467C274.665,427.73,277.865,423.463,277.865,418.13z"/>
<g>
</g>
<g>
</g>
<g>
</g>
<g>
</g>
<g>
</g>
<g>
</g>
<g>
</g>
<g>
</g>
<g>
</g>
<g>
</g>
<g>
</g>
<g>
</g>
<g>
</g>
<g>
</g>
<g>
</g>
</svg>
