<?xml version="1.0" encoding="iso-8859-1"?>
<!-- Generator: Adobe Illustrator 19.0.0, SVG Export Plug-In . SVG Version: 6.00 Build 0)  -->
<svg xmlns="http://www.w3.org/2000/svg" xmlns:xlink="http://www.w3.org/1999/xlink" version="1.1" id="Layer_1" x="0px" y="0px" viewBox="0 0 512 512" style="enable-background:new 0 0 512 512;" xml:space="preserve">
<g>
	<path style="fill:#415A6B;" d="M165.333,321.067c0,6.4-2.133,13.867-3.2,20.267l94.933,19.2v-20.267L165.333,321.067z"/>
	<path style="fill:#415A6B;" d="M142.933,259.2l52.267-73.6c-6.4-3.2-11.733-7.467-16-11.733l-52.267,74.667   C132.267,250.667,137.6,254.933,142.933,259.2z"/>
</g>
<circle style="fill:#F3F3F3;" cx="238.933" cy="105.6" r="90.667"/>
<g>
	<path style="fill:#415A6B;" d="M302.933,183.467V153.6c0-10.667-6.4-20.267-17.067-24.533c-30.933-10.667-64-10.667-94.933,0   c-10.667,3.2-17.067,13.867-17.067,24.533v29.867H302.933z"/>
	<circle style="fill:#415A6B;" cx="238.933" cy="80" r="27.733"/>
</g>
<path style="fill:#FFD15C;" d="M238.933,211.2c-58.667,0-105.6-46.933-105.6-105.6S180.267,0,238.933,0s105.6,46.933,105.6,105.6  S296.533,211.2,238.933,211.2z M238.933,29.867c-41.6,0-75.733,34.133-75.733,75.733s34.133,75.733,75.733,75.733  s75.733-34.133,75.733-75.733S280.533,29.867,238.933,29.867z"/>
<circle style="fill:#F3F3F3;" cx="372.267" cy="372.267" r="124.8"/>
<g>
	<path style="fill:#415A6B;" d="M467.2,453.333v-7.467c0-16-10.667-30.933-25.6-36.267c-44.8-16-93.867-16-138.667,0   c-14.933,5.333-25.6,19.2-25.6,36.267v7.467c12.8,12.8,20.267,20.267,34.133,34.133h122.667   C446.933,473.6,454.4,466.133,467.2,453.333z"/>
	<circle style="fill:#415A6B;" cx="372.267" cy="337.067" r="40.533"/>
</g>
<path style="fill:#F3705A;" d="M372.267,512c-76.8,0-139.733-62.933-139.733-139.733s62.933-139.733,139.733-139.733  S512,295.467,512,372.267S449.067,512,372.267,512z M372.267,263.467c-60.8,0-109.867,49.067-109.867,109.867  S311.467,483.2,372.267,483.2s109.867-49.067,109.867-109.867S433.067,263.467,372.267,263.467z"/>
<circle style="fill:#F3F3F3;" cx="90.667" cy="315.733" r="75.733"/>
<g>
	<path style="fill:#F3705A;" d="M145.067,385.067v-30.933c0-9.6-5.333-17.067-14.933-20.267c-25.6-9.6-54.4-9.6-81.067,0   c-8.533,3.2-14.933,11.733-14.933,20.267v30.933H145.067z"/>
	<circle style="fill:#F3705A;" cx="90.667" cy="291.2" r="23.467"/>
</g>
<path style="fill:#66C6B9;" d="M90.667,406.4C40.533,406.4,0,365.867,0,315.733s40.533-90.667,90.667-90.667  s90.667,40.533,90.667,90.667S139.733,406.4,90.667,406.4z M90.667,246.4c-38.4,0-69.333,30.933-69.333,69.333  s30.933,69.333,69.333,69.333S160,354.133,160,315.733S129.067,246.4,90.667,246.4z"/>
<g>
</g>
<g>
</g>
<g>
</g>
<g>
</g>
<g>
</g>
<g>
</g>
<g>
</g>
<g>
</g>
<g>
</g>
<g>
</g>
<g>
</g>
<g>
</g>
<g>
</g>
<g>
</g>
<g>
</g>
</svg>
