<?xml version="1.0" encoding="iso-8859-1"?>
<!-- Generator: Adobe Illustrator 19.0.0, SVG Export Plug-In . SVG Version: 6.00 Build 0)  -->
<svg xmlns="http://www.w3.org/2000/svg" xmlns:xlink="http://www.w3.org/1999/xlink" version="1.1" id="Layer_1" x="0px" y="0px" viewBox="0 0 512.224 512.224" style="enable-background:new 0 0 512.224 512.224;" xml:space="preserve">
<path style="fill:#F3F3F3;" d="M17.896,218.891c0,60.8,25.6,116.267,65.067,155.733c37.333,36.267,57.6,86.4,60.8,137.6h233.6  v-58.667h42.667c19.2,0,35.2-16,35.2-35.2v-74.667h36.267c10.667,0,18.133-10.667,12.8-20.267l-49.067-104.533  c0-60.8-24.533-115.2-64-154.667c-39.467-39.467-93.867-64-154.667-64c-59.733,0-115.2,24.533-154.667,64  S17.896,158.091,17.896,218.891z"/>
<path style="fill:#66C6B9;" d="M363.496,180.491c-25.6,39.467-71.467,57.6-110.933,35.2s-58.667-76.8-33.067-117.333  c18.133-44.8,203.733-102.4,208-98.133C423.229-4.043,382.696,134.624,363.496,180.491z"/>
<path style="fill:#415A6B;" d="M356.029,58.891c-78.933,84.267-124.8,195.2-126.933,314.667c-6.4-3.2-12.8-7.467-19.2-10.667  C218.429,246.624,270.696,138.891,356.029,58.891z"/>
<path style="fill:#66C6B9;" d="M85.096,234.891c26.667,27.733,66.133,35.2,93.867,10.667s34.133-70.4,8.533-98.133  c-22.4-33.067-178.133-49.067-181.333-44.8C8.296,98.357,62.696,201.824,85.096,234.891z"/>
<path style="fill:#415A6B;" d="M225.896,322.357c-29.867-75.733-83.2-140.8-153.6-184.533  c68.267,49.067,119.467,120.533,142.933,203.733C218.429,334.091,221.629,327.691,225.896,322.357z"/>
<g>
</g>
<g>
</g>
<g>
</g>
<g>
</g>
<g>
</g>
<g>
</g>
<g>
</g>
<g>
</g>
<g>
</g>
<g>
</g>
<g>
</g>
<g>
</g>
<g>
</g>
<g>
</g>
<g>
</g>
</svg>
