<?xml version="1.0" encoding="iso-8859-1"?>
<!-- Generator: Adobe Illustrator 19.0.0, SVG Export Plug-In . SVG Version: 6.00 Build 0)  -->
<svg xmlns="http://www.w3.org/2000/svg" xmlns:xlink="http://www.w3.org/1999/xlink" version="1.1" id="Layer_1" x="0px" y="0px" viewBox="0 0 512 512" style="enable-background:new 0 0 512 512;" xml:space="preserve">
<path style="fill:#F3F3F3;" d="M512,122.667V480c0,18.133-13.867,32-32,32H32c-18.133,0-32-13.867-32-32V122.667H512z"/>
<path style="fill:#F3705A;" d="M512,122.667V32c0-18.133-13.867-32-32-32H32C13.867,0,0,13.867,0,32v90.667H512z"/>
<circle style="fill:#FFFFFF;" cx="67.2" cy="60.8" r="24.533"/>
<circle style="fill:#8AD7F8;" cx="134.4" cy="60.8" r="24.533"/>
<circle style="fill:#FFD15C;" cx="200.533" cy="60.8" r="24.533"/>
<path style="fill:#F3F3F3;" d="M401.067,443.733c13.867-24.533,22.4-53.333,22.4-84.267C423.467,266.667,348.8,192,256,192  S88.533,266.667,88.533,359.467c0,30.933,8.533,59.733,22.4,84.267L401.067,443.733L401.067,443.733z"/>
<polygon style="fill:#F3705A;" points="286.933,389.333 225.067,389.333 256,281.6 "/>
<path style="fill:#55C0EB;" d="M305.067,433.067c0-2.133,1.067-5.333,1.067-7.467c0-27.733-22.4-50.133-50.133-50.133  s-50.133,22.4-50.133,50.133c0,2.133,0,5.333,1.067,7.467H305.067z"/>
<path style="fill:#415A6B;" d="M401.067,462.933H110.933c-7.467,0-13.867-3.2-17.067-9.6c-17.067-28.8-25.6-60.8-25.6-93.867  C68.267,256,152.533,172.8,254.933,172.8S442.667,256,442.667,359.467c0,33.067-8.533,65.067-25.6,93.867  C413.867,459.733,407.467,462.933,401.067,462.933z M122.667,423.467h265.6c9.6-20.267,14.933-41.6,14.933-64  c0-81.067-66.133-148.267-148.267-148.267s-148.267,66.133-148.267,148.267C107.733,381.867,113.067,403.2,122.667,423.467z"/>
<g>
	<circle style="fill:#CED6E0;" cx="256" cy="242.133" r="12.8"/>
	<circle style="fill:#CED6E0;" cx="173.867" cy="275.2" r="12.8"/>
	<circle style="fill:#CED6E0;" cx="138.667" cy="357.333" r="12.8"/>
	<circle style="fill:#CED6E0;" cx="371.2" cy="359.467" r="12.8"/>
	<circle style="fill:#CED6E0;" cx="338.133" cy="276.267" r="12.8"/>
</g>
<g>
</g>
<g>
</g>
<g>
</g>
<g>
</g>
<g>
</g>
<g>
</g>
<g>
</g>
<g>
</g>
<g>
</g>
<g>
</g>
<g>
</g>
<g>
</g>
<g>
</g>
<g>
</g>
<g>
</g>
</svg>
