<?xml version="1.0" encoding="iso-8859-1"?>
<!-- Generator: Adobe Illustrator 19.0.0, SVG Export Plug-In . SVG Version: 6.00 Build 0)  -->
<svg xmlns="http://www.w3.org/2000/svg" xmlns:xlink="http://www.w3.org/1999/xlink" version="1.1" id="Layer_1" x="0px" y="0px" viewBox="0 0 512 512" style="enable-background:new 0 0 512 512;" xml:space="preserve">
<path style="fill:#66C6B9;" d="M380.8,189.867c-23.467,35.2-72.533,44.8-107.733,21.333s-44.8-72.533-21.333-107.733  C275.2,68.267,413.867,0,413.867,0S404.267,153.6,380.8,189.867z"/>
<path style="fill:#415A6B;" d="M245.333,275.2h19.2c16-102.4,114.133-220.8,114.133-220.8S269.867,163.2,245.333,275.2z"/>
<path style="fill:#66C6B9;" d="M165.333,244.267c21.333,17.067,51.2,12.8,68.267-7.467c17.067-21.333,12.8-51.2-7.467-68.267  S109.867,137.6,109.867,137.6S144,227.2,165.333,244.267z"/>
<g>
	<path style="fill:#415A6B;" d="M262.4,269.867l-11.733,3.2C221.867,214.4,139.733,163.2,139.733,163.2   S226.133,206.933,262.4,269.867z"/>
	<path style="fill:#415A6B;" d="M446.933,411.733c-6.4,0-10.667-4.267-10.667-10.667v-76.8H75.733v76.8   c0,6.4-4.267,10.667-10.667,10.667S54.4,407.467,54.4,401.067V313.6c0-6.4,4.267-10.667,10.667-10.667h380.8   c6.4,0,10.667,4.267,10.667,10.667v87.467C457.6,406.4,452.267,411.733,446.933,411.733z"/>
	<rect x="245.333" y="260.267" style="fill:#415A6B;" width="21.333" height="140.8"/>
</g>
<path style="fill:#F3705A;" d="M109.867,380.8H21.333C9.6,380.8,0,390.4,0,402.133v88.533C0,502.4,9.6,512,21.333,512h88.533  c11.733,0,21.333-9.6,21.333-21.333v-88.533C131.2,390.4,121.6,380.8,109.867,380.8z"/>
<path style="fill:#FFD15C;" d="M299.733,380.8H211.2c-11.733,0-21.333,9.6-21.333,21.333v88.533c0,11.733,9.6,21.333,21.333,21.333  h88.533c11.733,0,21.333-9.6,21.333-21.333v-88.533C321.067,390.4,312.533,380.8,299.733,380.8z"/>
<path style="fill:#8AD7F8;" d="M490.667,380.8h-88.533c-11.733,0-21.333,9.6-21.333,21.333v88.533  c0,11.733,9.6,21.333,21.333,21.333h88.533C502.4,512,512,502.4,512,490.667v-88.533C512,390.4,502.4,380.8,490.667,380.8z"/>
<g>
</g>
<g>
</g>
<g>
</g>
<g>
</g>
<g>
</g>
<g>
</g>
<g>
</g>
<g>
</g>
<g>
</g>
<g>
</g>
<g>
</g>
<g>
</g>
<g>
</g>
<g>
</g>
<g>
</g>
</svg>
