<?xml version="1.0" encoding="iso-8859-1"?>
<!-- Generator: Adobe Illustrator 19.0.0, SVG Export Plug-In . SVG Version: 6.00 Build 0)  -->
<svg xmlns="http://www.w3.org/2000/svg" xmlns:xlink="http://www.w3.org/1999/xlink" version="1.1" id="Layer_1" x="0px" y="0px" viewBox="0 0 512 512" style="enable-background:new 0 0 512 512;" xml:space="preserve">
<path style="fill:#E8EAE9;" d="M480,0H32C13.867,0,0,13.867,0,32v448c0,18.133,13.867,32,32,32h448c18.133,0,32-13.867,32-32V32  C512,13.867,498.133,0,480,0z"/>
<path style="fill:#F3705A;" d="M512,32v85.333H0V32C0,13.867,13.867,0,32,0h448C498.133,0,512,13.867,512,32z"/>
<rect x="42.667" y="160" style="fill:#FFFFFF;" width="426.667" height="309.333"/>
<circle style="fill:#FFD15C;" cx="202.667" cy="58.667" r="23.467"/>
<circle style="fill:#8AD7F8;" cx="132.267" cy="58.667" r="23.467"/>
<circle style="fill:#415A6B;" cx="61.867" cy="58.667" r="23.467"/>
<path style="fill:#8AD7F8;" d="M297.6,370.133v-32l-28.8-7.467c-1.067-3.2-3.2-7.467-4.267-10.667l14.933-25.6L256,269.867  L230.4,284.8c-3.2-2.133-7.467-3.2-10.667-4.267l-7.467-28.8h-32l-7.467,28.8c-3.2,1.067-7.467,2.133-10.667,4.267l-25.6-14.933  l-22.4,23.467l14.933,25.6c-2.133,3.2-3.2,7.467-4.267,10.667L96,337.067v32l28.8,7.467c1.067,3.2,3.2,7.467,4.267,10.667  l-14.933,25.6l22.4,22.4l25.6-14.933c3.2,2.133,6.4,3.2,10.667,4.267l7.467,28.8h32l7.467-28.8c3.2-1.067,7.467-3.2,10.667-4.267  L256,435.2l23.467-22.4l-14.933-25.6c2.133-3.2,3.2-7.467,4.267-10.667L297.6,370.133z M196.267,386.133  c-18.133,0-33.067-14.933-33.067-33.067c0-18.133,14.933-33.067,33.067-33.067s33.067,14.933,33.067,33.067  C228.267,371.2,214.4,386.133,196.267,386.133z"/>
<path style="fill:#415A6B;" d="M393.6,308.267l14.933-19.2l-13.867-18.133c1.067-3.2,2.133-5.333,2.133-8.533l21.333-8.533  l-3.2-24.533l-22.4-3.2c-1.067-2.133-3.2-5.333-4.267-7.467l8.533-21.333L377.6,182.4l-18.133,13.867  c-3.2-1.067-5.333-2.133-8.533-2.133L342.4,172.8l-24.533,3.2l-3.2,22.4c-2.133,1.067-5.333,3.2-7.467,4.267l-21.333-8.533  l-14.933,19.2l13.867,18.133c-1.067,3.2-2.133,5.333-2.133,8.533l-21.333,8.533l3.2,24.533L288,277.333  c1.067,2.133,3.2,5.333,4.267,7.467l-8.533,21.333l19.2,14.933l18.133-13.867c3.2,1.067,5.333,2.133,8.533,2.133l8.533,21.333  l24.533-3.2l3.2-22.4c2.133-1.067,5.333-3.2,7.467-4.267L393.6,308.267z M324.267,272c-10.667-8.533-12.8-24.533-4.267-35.2  c8.533-10.667,24.533-12.8,35.2-4.267c10.667,8.533,12.8,24.533,4.267,35.2C350.933,278.4,336,280.533,324.267,272z"/>
<g>
</g>
<g>
</g>
<g>
</g>
<g>
</g>
<g>
</g>
<g>
</g>
<g>
</g>
<g>
</g>
<g>
</g>
<g>
</g>
<g>
</g>
<g>
</g>
<g>
</g>
<g>
</g>
<g>
</g>
</svg>
