<?xml version="1.0" encoding="iso-8859-1"?>
<!-- Generator: Adobe Illustrator 19.0.0, SVG Export Plug-In . SVG Version: 6.00 Build 0)  -->
<svg xmlns="http://www.w3.org/2000/svg" xmlns:xlink="http://www.w3.org/1999/xlink" version="1.1" id="Layer_1" x="0px" y="0px" viewBox="0 0 513.271 513.271" style="enable-background:new 0 0 513.271 513.271;" xml:space="preserve">
<path style="fill:#F3F3F3;" d="M288,0.636H32c-18.133,0-32,13.867-32,32v448c0,18.133,13.867,32,32,32h338.133  c18.133,0,32-13.867,32-32V113.702L288,0.636z"/>
<g>
	<rect x="42.667" y="215.036" style="fill:#CED6E0;" width="316.8" height="27.733"/>
	<rect x="42.667" y="136.102" style="fill:#CED6E0;" width="316.8" height="27.733"/>
	<rect x="42.667" y="58.236" style="fill:#CED6E0;" width="183.467" height="27.733"/>
</g>
<path style="fill:#8AD7F8;" d="M228.267,469.969l24.533-9.6l-2.133-24.533c5.333-4.267,9.6-8.533,12.8-12.8L288,425.169l9.6-24.533  l-19.2-17.067c1.067-6.4,1.067-12.8,0-19.2l19.2-16l-9.6-24.533l-24.533,2.133c-4.267-5.333-8.533-9.6-12.8-13.867l2.133-24.533  l-25.6-9.6l-16,19.2c-6.4-1.067-12.8-1.067-19.2,0l-16-19.2l-23.467,10.667l2.133,24.533c-5.333,4.267-9.6,8.533-12.8,12.8  l-24.533-2.133l-9.6,24.533l19.2,16c-1.067,6.4-1.067,12.8,0,19.2l-19.2,16l9.6,24.533l24.533-2.133  c4.267,5.333,8.533,9.6,12.8,12.8l-2.133,24.533l24.533,9.6l16-19.2c6.4,1.067,12.8,1.067,19.2,0L228.267,469.969z M173.867,385.702  c-6.4-16,1.067-34.133,17.067-40.533s34.133,1.067,40.533,17.067c6.4,16-1.067,34.133-17.067,40.533  C198.4,409.169,180.267,401.702,173.867,385.702z"/>
<path style="fill:#55C0EB;" d="M182.4,325.969c-26.667,10.667-39.467,41.6-27.733,68.267c10.667,26.667,41.6,39.467,68.267,27.733  c26.667-10.667,39.467-41.6,27.733-68.267C238.933,328.102,209.067,315.302,182.4,325.969z M214.4,402.769  c-16,6.4-34.133-1.067-40.533-17.067c-6.4-16,1.067-34.133,17.067-40.533s34.133,1.067,40.533,17.067  C237.867,378.236,230.4,396.369,214.4,402.769z"/>
<polygon style="fill:#ADB3BA;" points="288,0.636 401.067,113.702 288,113.702 "/>
<g>
	<path style="fill:#415A6B;" d="M505.6,67.836h-33.067v18.133H496v88.533c0,5.333,4.267,8.533,8.533,8.533   c5.333,0,8.533-4.267,8.533-8.533V77.436C514.133,71.036,510.933,67.836,505.6,67.836z"/>
	<circle style="fill:#415A6B;" cx="453.333" cy="40.102" r="18.133"/>
</g>
<path style="fill:#F3705A;" d="M434.133,40.102c-5.333,0-9.6,4.267-9.6,9.6v212.267c0,73.6,9.6,147.2,28.8,218.667l0,0  c19.2-71.467,28.8-145.067,28.8-218.667V49.702c0-5.333-4.267-9.6-9.6-9.6L434.133,40.102z"/>
<path style="fill:#415A6B;" d="M443.733,436.902c3.2,14.933,6.4,28.8,10.667,43.733l0,0c4.267-13.867,7.467-28.8,9.6-43.733H443.733  z"/>
<rect x="425.6" y="202.236" style="fill:#F05540;" width="56.533" height="34.133"/>
<g>
</g>
<g>
</g>
<g>
</g>
<g>
</g>
<g>
</g>
<g>
</g>
<g>
</g>
<g>
</g>
<g>
</g>
<g>
</g>
<g>
</g>
<g>
</g>
<g>
</g>
<g>
</g>
<g>
</g>
</svg>
