<?xml version="1.0" encoding="iso-8859-1"?>
<!-- Generator: Adobe Illustrator 19.0.0, SVG Export Plug-In . SVG Version: 6.00 Build 0)  -->
<svg xmlns="http://www.w3.org/2000/svg" xmlns:xlink="http://www.w3.org/1999/xlink" version="1.1" id="Layer_1" x="0px" y="0px" viewBox="0 0 512 512" style="enable-background:new 0 0 512 512;" xml:space="preserve">
<path style="fill:#F3705A;" d="M299.733,220.8v-66.133c0-78.933-30.933-142.933-69.333-142.933c-5.333,0-10.667,1.067-16,4.267  C200.533,5.333,186.667,0,170.667,0C118.4,0,75.733,67.2,75.733,149.333c0,8.533,0,16,1.067,23.467  c1.067,37.333-5.333,107.733-53.333,126.933h320C316.8,285.867,299.733,251.733,299.733,220.8z"/>
<path style="fill:#F7B64C;" d="M375.467,459.733v-115.2c0-28.8-20.267-54.4-48-61.867c-24.533-6.4-49.067-10.667-73.6-13.867  c-10.667-1.067-19.2-10.667-19.2-21.333v-54.4h-91.733v54.4c0,10.667-8.533,20.267-19.2,21.333  c-24.533,3.2-50.133,7.467-73.6,13.867C20.267,290.133,0,315.733,0,344.533v115.2H375.467z"/>
<path style="fill:#415A6B;" d="M375.467,344.533v115.2H0v-115.2c0-28.8,20.267-54.4,48-61.867c24.533-6.4,49.067-10.667,73.6-13.867  h1.067c8.533,49.067,34.133,84.267,64,84.267s55.467-35.2,64-84.267h1.067c24.533,3.2,50.133,7.467,73.6,13.867  C355.2,290.133,375.467,315.733,375.467,344.533z"/>
<path style="fill:#FFD15C;" d="M124.8,123.733c-4.267,0-8.533,0-12.8-1.067c-1.067,8.533-2.133,17.067-2.133,25.6  C109.867,208,145.067,256,187.733,256S265.6,208,265.6,148.267c0-32-10.667-60.8-26.667-81.067  C215.467,101.333,177.067,123.733,124.8,123.733z"/>
<g>
	<path style="fill:#415A6B;" d="M283.733,167.467c-2.133,0-4.267,2.133-4.267,4.267v38.4l-85.333,14.933v8.533l89.6-16   c2.133,0,3.2-2.133,3.2-4.267v-41.6C288,169.6,285.867,167.467,283.733,167.467z"/>
	<path style="fill:#415A6B;" d="M292.267,157.867l-12.8-4.267c10.667-34.133,2.133-70.4-22.4-93.867   C220.8,23.467,160,24.533,121.6,62.933C97.067,87.467,87.467,121.6,94.933,154.667l-13.867,3.2   c-8.533-37.333,3.2-76.8,30.933-104.533c43.733-43.733,113.067-44.8,154.667-3.2C294.4,77.867,304,119.467,292.267,157.867z"/>
	<path style="fill:#415A6B;" d="M300.8,160c0,19.2-14.933,34.133-34.133,34.133v-67.2C285.867,125.867,300.8,141.867,300.8,160z"/>
</g>
<path style="fill:#E8EAE9;" d="M261.333,204.8c-6.4,0-10.667-4.267-10.667-10.667v-67.2c0-6.4,4.267-10.667,10.667-10.667  c6.4,0,10.667,4.267,10.667,10.667v67.2C272,199.467,267.733,204.8,261.333,204.8z"/>
<path style="fill:#415A6B;" d="M74.667,160c0,19.2,14.933,34.133,34.133,34.133v-67.2C89.6,125.867,74.667,141.867,74.667,160z"/>
<path style="fill:#E8EAE9;" d="M113.067,204.8c-6.4,0-10.667-4.267-10.667-10.667v-67.2c0-6.4,4.267-10.667,10.667-10.667  s10.667,4.267,10.667,10.667v67.2C123.733,199.467,119.467,204.8,113.067,204.8z"/>
<ellipse style="fill:#415A6B;" cx="187.733" cy="230.4" rx="14.933" ry="11.733"/>
<path style="fill:#8AD7F8;" d="M455.467,426.667v-35.2l-26.667-8.533c-1.067-3.2-2.133-7.467-4.267-10.667l12.8-24.533L412.8,323.2  L388.267,336c-3.2-2.133-7.467-3.2-10.667-4.267l-8.533-26.667h-35.2l-8.533,26.667c-3.2,1.067-7.467,2.133-10.667,4.267  l-24.533-12.8l-23.467,24.533l12.8,24.533c-2.133,3.2-3.2,6.4-4.267,10.667l-26.667,8.533v35.2L275.2,435.2  c1.067,3.2,2.133,7.467,4.267,10.667l-12.8,23.467l24.533,24.533l24.533-12.8c3.2,2.133,6.4,3.2,10.667,4.267L334.933,512h35.2  l8.533-26.667c3.2-1.067,7.467-2.133,10.667-4.267l24.533,12.8l23.467-24.533l-12.8-24.533c2.133-3.2,3.2-7.467,4.267-10.667  L455.467,426.667z M352,441.6c-18.133,0-33.067-14.933-33.067-33.067c0-18.133,14.933-33.067,33.067-33.067  c18.133,0,33.067,14.933,33.067,33.067S370.133,441.6,352,441.6z"/>
<path style="fill:#55C0EB;" d="M352,352c-32,0-57.6,25.6-57.6,57.6s25.6,57.6,57.6,57.6s57.6-25.6,57.6-57.6  C408.533,377.6,382.933,352,352,352z M352,441.6c-18.133,0-33.067-14.933-33.067-33.067c0-18.133,14.933-33.067,33.067-33.067  c18.133,0,33.067,14.933,33.067,33.067S370.133,441.6,352,441.6z"/>
<path style="fill:#F3705A;" d="M512,274.133V256l-20.267-4.267c-1.067-4.267-3.2-8.533-5.333-12.8l11.733-18.133l-12.8-12.8  L467.2,219.733c-4.267-2.133-8.533-4.267-12.8-5.333l-4.267-20.267H432l-5.333,20.267c-4.267,1.067-8.533,3.2-12.8,5.333L396.8,208  L384,220.8l11.733,17.067c-2.133,4.267-4.267,8.533-5.333,12.8L369.067,256v18.133l20.267,4.267c1.067,4.267,3.2,9.6,5.333,12.8  L384,309.333l12.8,12.8l18.133-11.733c4.267,2.133,8.533,4.267,12.8,5.333L432,336h18.133l4.267-20.267  c4.267-1.067,8.533-3.2,12.8-5.333l18.133,11.733l12.8-12.8L486.4,291.2c2.133-4.267,4.267-8.533,5.333-12.8L512,274.133z   M440.533,297.6c-18.133,0-33.067-14.933-33.067-33.067c0-18.133,14.933-33.067,33.067-33.067c18.133,0,33.067,14.933,33.067,33.067  C473.6,283.733,458.667,297.6,440.533,297.6z M440.533,279.467c-7.467,0-14.933-6.4-14.933-14.933S432,249.6,440.533,249.6  c8.533,0,14.933,6.4,14.933,14.933S448,279.467,440.533,279.467z"/>
<g>
</g>
<g>
</g>
<g>
</g>
<g>
</g>
<g>
</g>
<g>
</g>
<g>
</g>
<g>
</g>
<g>
</g>
<g>
</g>
<g>
</g>
<g>
</g>
<g>
</g>
<g>
</g>
<g>
</g>
</svg>
