<?xml version="1.0" encoding="iso-8859-1"?>
<!-- Generator: Adobe Illustrator 19.0.0, SVG Export Plug-In . SVG Version: 6.00 Build 0)  -->
<svg xmlns="http://www.w3.org/2000/svg" xmlns:xlink="http://www.w3.org/1999/xlink" version="1.1" id="Layer_1" x="0px" y="0px" viewBox="0 0 512 512" style="enable-background:new 0 0 512 512;" xml:space="preserve">
<rect x="217.6" y="238.933" style="fill:#CED6E0;" width="76.8" height="76.8"/>
<g>
	<polygon style="fill:#F3705A;" points="270.933,262.4 286.933,247.467 256,216.533 225.067,247.467 241.067,262.4  "/>
	<polygon style="fill:#F3705A;" points="286.933,328.533 270.933,262.4 241.067,262.4 225.067,328.533  "/>
</g>
<g>
	<path style="fill:#344A5E;" d="M414.933,328.533l-5.333-54.4c-2.133-21.333-16-38.4-36.267-44.8L326.4,214.4l-50.133,113.067   h138.667V328.533z"/>
	<path style="fill:#344A5E;" d="M235.733,328.533L185.6,215.467L138.667,230.4c-20.267,6.4-34.133,23.467-36.267,44.8l-5.333,54.4   h138.667V328.533z"/>
</g>
<path style="fill:#F7B64C;" d="M297.6,148.267L256,115.2l-41.6,33.067v35.2c9.6,14.933,23.467,25.6,41.6,33.067  c16-7.467,30.933-17.067,41.6-33.067V148.267z"/>
<g>
	<path style="fill:#F3F3F3;" d="M297.6,183.467C286.933,198.4,256,216.533,256,216.533l33.067,44.8l21.333-52.267L297.6,183.467z"/>
	<path style="fill:#F3F3F3;" d="M213.333,183.467c10.667,14.933,41.6,33.067,41.6,33.067l-33.067,44.8l-21.333-52.267   L213.333,183.467z"/>
</g>
<g>
	<polygon style="fill:#415A6B;" points="221.867,328.533 245.333,328.533 211.2,190.933 167.467,233.6 185.6,237.867    164.267,251.733  "/>
	<polygon style="fill:#415A6B;" points="290.133,328.533 347.733,251.733 326.4,237.867 344.533,233.6 300.8,190.933    266.667,328.533  "/>
</g>
<g>
	<path style="fill:#FFD15C;" d="M328.533,119.467c-3.2,12.8-10.667,22.4-18.133,21.333s-10.667-12.8-7.467-26.667   s10.667-22.4,18.133-21.333C327.467,94.933,331.733,106.667,328.533,119.467z"/>
	<path style="fill:#FFD15C;" d="M183.467,119.467c3.2,12.8,10.667,22.4,18.133,21.333s10.667-12.8,7.467-26.667   S198.4,91.733,190.933,92.8C184.533,94.933,180.267,106.667,183.467,119.467z"/>
</g>
<path style="fill:#415A6B;" d="M310.4,132.267c8.533-23.467,13.867-48,13.867-64C324.267,30.933,293.333,0,256,0  s-68.267,30.933-68.267,68.267c0,16,5.333,40.533,13.867,64H310.4z"/>
<g>
	<path style="fill:#FFD15C;" d="M252.8,61.867c-16,0-30.933-2.133-43.733-6.4c-9.6,14.933-16,34.133-16,55.467   c0,46.933,27.733,84.267,62.933,84.267s62.933-37.333,62.933-84.267c0-22.4-6.4-42.667-17.067-57.6   C286.933,58.667,270.933,61.867,252.8,61.867z"/>
	<rect y="328.533" style="fill:#FFD15C;" width="512" height="51.2"/>
</g>
<rect x="35.2" y="379.733" style="fill:#F7B64C;" width="441.6" height="132.267"/>
<g>
	<polygon style="fill:#344A5E;" points="475.733,328.533 460.8,328.533 460.8,248.533 403.2,180.267 414.933,170.667 475.733,243.2     "/>
	
		<ellipse transform="matrix(0.7071 -0.7071 0.7071 0.7071 -3.9453 341.1541)" style="fill:#344A5E;" cx="409.837" cy="175.34" rx="21.333" ry="26.666"/>
</g>
<g>
</g>
<g>
</g>
<g>
</g>
<g>
</g>
<g>
</g>
<g>
</g>
<g>
</g>
<g>
</g>
<g>
</g>
<g>
</g>
<g>
</g>
<g>
</g>
<g>
</g>
<g>
</g>
<g>
</g>
</svg>
