<?xml version="1.0" encoding="iso-8859-1"?>
<!-- Generator: Adobe Illustrator 19.0.0, SVG Export Plug-In . SVG Version: 6.00 Build 0)  -->
<svg xmlns="http://www.w3.org/2000/svg" xmlns:xlink="http://www.w3.org/1999/xlink" version="1.1" id="Layer_1" x="0px" y="0px" viewBox="0 0 512 512" style="enable-background:new 0 0 512 512;" xml:space="preserve">
<rect x="104.533" y="102.4" style="fill:#F3705A;" width="302.933" height="302.933"/>
<g>
	<polygon style="fill:#415A6B;" points="35.2,178.133 0,178.133 0,0 178.133,0 178.133,35.2 35.2,35.2  "/>
	<polygon style="fill:#415A6B;" points="333.867,35.2 333.867,0 512,0 512,178.133 476.8,178.133 476.8,35.2  "/>
	<polygon style="fill:#415A6B;" points="476.8,333.867 512,333.867 512,512 333.867,512 333.867,476.8 476.8,476.8  "/>
	<polygon style="fill:#415A6B;" points="178.133,476.8 178.133,512 0,512 0,333.867 35.2,333.867 35.2,476.8  "/>
</g>
<path style="fill:#FFD15C;" d="M446.933,512V379.733c0-13.867-9.6-27.733-23.467-29.867c-18.133-3.2-33.067,10.667-33.067,27.733  v-8.533c0-13.867-9.6-27.733-23.467-29.867c-18.133-3.2-33.067,10.667-33.067,27.733V358.4c0-13.867-9.6-27.733-23.467-29.867  c-18.133-3.2-33.067,10.667-33.067,27.733v-105.6c0-13.867-9.6-27.733-23.467-29.867c-18.133-3.2-33.067,10.667-33.067,27.733V416  l-32-44.8c-9.6-12.8-26.667-16-39.467-6.4c-12.8,8.533-16,26.667-6.4,39.467L219.733,512H446.933z"/>
<g>
	<path style="fill:#FFFFFF;" d="M248.533,204.8c-3.2,0-6.4-3.2-6.4-6.4v-25.6c0-3.2,3.2-6.4,6.4-6.4s6.4,3.2,6.4,6.4v25.6   C254.933,201.6,252.8,204.8,248.533,204.8z"/>
	<path style="fill:#FFFFFF;" d="M225.067,210.133c-3.2,2.133-7.467,1.067-9.6-2.133l-12.8-22.4c-2.133-3.2-1.067-7.467,2.133-9.6   c3.2-2.133,7.467-1.067,9.6,2.133l12.8,22.4C229.333,204.8,228.267,209.067,225.067,210.133z"/>
	<path style="fill:#FFFFFF;" d="M208,228.267c-2.133,3.2-6.4,4.267-9.6,2.133L176,217.6c-3.2-2.133-4.267-6.4-2.133-9.6   c2.133-3.2,6.4-4.267,9.6-2.133l22.4,12.8C209.067,220.8,210.133,225.067,208,228.267z"/>
	<path style="fill:#FFFFFF;" d="M201.6,251.733c0,3.2-3.2,6.4-6.4,6.4h-25.6c-3.2,0-6.4-3.2-6.4-6.4s3.2-6.4,6.4-6.4h25.6   C198.4,244.267,201.6,247.467,201.6,251.733z"/>
	<path style="fill:#FFFFFF;" d="M208,274.133c2.133,3.2,1.067,7.467-2.133,9.6l-22.4,12.8c-3.2,2.133-7.467,1.067-9.6-2.133   c-2.133-3.2-1.067-7.467,2.133-9.6l22.4-12.8C201.6,269.867,205.867,270.933,208,274.133z"/>
	<path style="fill:#FFFFFF;" d="M289.067,274.133c2.133-3.2,6.4-4.267,9.6-2.133l22.4,12.8c3.2,2.133,4.267,6.4,2.133,9.6   c-2.133,3.2-6.4,4.267-9.6,2.133l-22.4-12.8C288,281.6,286.933,277.333,289.067,274.133z"/>
	<path style="fill:#FFFFFF;" d="M295.467,250.667c0-3.2,3.2-6.4,6.4-6.4h25.6c3.2,0,6.4,3.2,6.4,6.4s-3.2,6.4-6.4,6.4h-25.6   C298.667,258.133,295.467,254.933,295.467,250.667z"/>
	<path style="fill:#FFFFFF;" d="M289.067,228.267c-2.133-3.2-1.067-7.467,2.133-9.6l22.4-12.8c3.2-2.133,7.467-1.067,9.6,2.133   c2.133,3.2,1.067,7.467-2.133,9.6l-22.4,12.8C295.467,232.533,291.2,231.467,289.067,228.267z"/>
	<path style="fill:#FFFFFF;" d="M272,210.133c-3.2-2.133-4.267-6.4-2.133-9.6l12.8-22.4c2.133-3.2,6.4-4.267,9.6-2.133   c3.2,2.133,4.267,6.4,2.133,9.6L281.6,208C279.467,211.2,275.2,212.267,272,210.133z"/>
</g>
<g>
</g>
<g>
</g>
<g>
</g>
<g>
</g>
<g>
</g>
<g>
</g>
<g>
</g>
<g>
</g>
<g>
</g>
<g>
</g>
<g>
</g>
<g>
</g>
<g>
</g>
<g>
</g>
<g>
</g>
</svg>
