<?xml version="1.0" encoding="iso-8859-1"?>
<!-- Generator: Adobe Illustrator 19.0.0, SVG Export Plug-In . SVG Version: 6.00 Build 0)  -->
<svg xmlns="http://www.w3.org/2000/svg" xmlns:xlink="http://www.w3.org/1999/xlink" version="1.1" id="Layer_1" x="0px" y="0px" viewBox="0 0 512.177 512.177" style="enable-background:new 0 0 512.177 512.177;" xml:space="preserve">
<polygon style="fill:#F3F3F3;" points="293.333,0.089 406.4,113.155 406.4,512.089 0,512.089 0,0.089 "/>
<rect x="171.733" y="399.022" style="fill:#F3705A;" width="38.4" height="70.4"/>
<rect x="107.733" y="370.222" style="fill:#4EC0AA;" width="38.4" height="99.2"/>
<rect x="42.667" y="421.422" style="fill:#415A6B;" width="38.4" height="48"/>
<rect x="236.8" y="339.289" style="fill:#FFD15C;" width="38.4" height="130.133"/>
<g>
	<polygon style="fill:#CED6E0;" points="293.333,0.089 406.4,113.155 293.333,113.155  "/>
	<rect x="42.667" y="224.089" style="fill:#CED6E0;" width="321.067" height="20.267"/>
	<rect x="42.667" y="276.355" style="fill:#CED6E0;" width="192" height="20.267"/>
</g>
<path style="fill:#8AD7F8;" d="M240,204.889c-37.333,37.333-37.333,97.067,0,134.4s97.067,37.333,134.4,0s37.333-97.067,0-134.4  S277.333,168.622,240,204.889z"/>
<rect x="371.394" y="335.583" transform="matrix(-0.7071 0.7071 -0.7071 -0.7071 922.8041 331.5939)" style="fill:#344A5E;" width="42.666" height="42.666"/>
<path style="fill:#415A6B;" d="M388.267,353.155c-44.8,44.8-116.267,44.8-161.067,0s-44.8-116.267,0-161.067  s116.267-43.733,161.067,0S432,308.355,388.267,353.155z M248.533,213.422c-32,32-32,85.333,0,117.333s85.333,32,117.333,0  s32-85.333,0-117.333S281.6,181.422,248.533,213.422z"/>
<path style="fill:#F3705A;" d="M494.933,401.155l-64-45.867l-39.467,39.467l45.867,64c14.933,21.333,44.8,23.467,62.933,5.333  C518.4,447.022,515.2,416.089,494.933,401.155z"/>
<polygon style="fill:#F05540;" points="444.8,365.955 429.867,355.289 391.467,394.755 401.067,409.689 "/>
<path style="fill:#F3705A;" d="M432,359.555l-37.333,37.333c-4.267,4.267-12.8,4.267-17.067,0c-4.267-4.267-4.267-12.8,0-17.067  l36.267-36.267c4.267-4.267,12.8-4.267,17.067,0C436.267,347.822,436.267,355.289,432,359.555z"/>
<g>
	<path style="fill:#FFFFFF;" d="M318.933,292.355h-22.4v-10.667c0-4.267,0-7.467,1.067-9.6s3.2-4.267,6.4-8.533l9.6-10.667   c1.067-2.133,2.133-4.267,2.133-6.4c0-3.2-1.067-5.333-2.133-7.467c-1.067-2.133-3.2-3.2-6.4-3.2c-2.133,0-4.267,1.067-6.4,3.2   c-1.067,3.2-2.133,6.4-2.133,9.6H275.2c1.067-9.6,4.267-18.133,10.667-23.467s13.867-8.533,23.467-8.533s17.067,2.133,22.4,7.467   c5.333,5.333,8.533,11.733,8.533,21.333c0,4.267,0,6.4-1.067,8.533c-1.067,2.133-2.133,3.2-2.133,4.267   c0,1.067-1.067,2.133-3.2,4.267c-1.067,2.133-2.133,3.2-3.2,3.2c-2.133,2.133-4.267,4.267-6.4,6.4   c-2.133,2.133-3.2,4.267-4.267,5.333c-1.067,1.067-1.067,3.2-1.067,6.4V292.355z"/>
	<circle style="fill:#FFFFFF;" cx="308.267" cy="314.755" r="12.8"/>
</g>
<path style="fill:#344A5E;" d="M210.133,197.422H42.667l4.267-21.333c2.133-10.667,9.6-20.267,20.267-24.533l27.733-11.733l32,9.6  l32-9.6l27.733,11.733c10.667,4.267,18.133,12.8,20.267,24.533L210.133,197.422z"/>
<polygon style="fill:#CED6E0;" points="145.067,197.422 146.133,145.155 126.933,150.489 107.733,145.155 107.733,197.422 "/>
<polygon style="fill:#F3705A;" points="110.933,197.422 142.933,197.422 132.267,168.622 137.6,161.155 126.933,150.489   115.2,161.155 121.6,168.622 "/>
<path style="fill:#E8EAE9;" d="M126.933,150.489c0,0,19.2-11.733,20.267-23.467l7.467,12.8l-13.867,28.8L126.933,150.489z"/>
<polygon style="fill:#415A6B;" points="149.333,197.422 169.6,162.222 158.933,156.889 169.6,151.555 151.467,133.422   136.533,197.422 "/>
<path style="fill:#E8EAE9;" d="M126.933,150.489c0,0-19.2-11.733-20.267-23.467l-7.467,12.8l13.867,28.8L126.933,150.489z"/>
<polygon style="fill:#415A6B;" points="83.2,162.222 103.467,197.422 117.333,197.422 102.4,133.422 83.2,151.555 94.933,156.889   "/>
<path style="fill:#F7B64C;" d="M105.6,114.222v12.8c1.067,10.667,20.267,23.467,20.267,23.467s19.2-11.733,20.267-23.467v-12.8  H105.6z"/>
<g>
	<path style="fill:#415A6B;" d="M126.933,83.289c0,17.067-7.467,30.933-16,30.933S92.8,101.422,92.8,83.289   c-1.067-18.133,6.4-33.067,16-33.067C118.4,50.222,126.933,65.155,126.933,83.289z"/>
	<path style="fill:#415A6B;" d="M163.2,80.089c-1.067,19.2-14.933,34.133-32,34.133s-30.933-14.933-30.933-34.133   c-1.067-20.267,13.867-37.333,32-37.333S164.267,59.822,163.2,80.089z"/>
</g>
<g>
	<path style="fill:#FFD15C;" d="M156.8,81.155c-13.867-2.133-28.8-6.4-40.533-13.867c-5.333,8.533-11.733,16-21.333,20.267   c0,2.133,0,5.333,0,7.467c1.067,22.4,14.933,40.533,32,40.533s30.933-17.067,32-40.533C158.933,90.755,157.867,85.422,156.8,81.155   z"/>
	<path style="fill:#FFD15C;" d="M163.2,99.289c-2.133,6.4-6.4,10.667-9.6,9.6c-3.2-1.067-5.333-6.4-3.2-12.8   c2.133-6.4,6.4-10.667,9.6-10.667C163.2,87.555,165.333,92.889,163.2,99.289z"/>
	<path style="fill:#FFD15C;" d="M89.6,99.289c2.133,6.4,6.4,10.667,9.6,9.6c3.2-1.067,5.333-6.4,3.2-12.8   c-2.133-6.4-6.4-10.667-9.6-10.667C89.6,87.555,88.533,92.889,89.6,99.289z"/>
</g>
<g>
</g>
<g>
</g>
<g>
</g>
<g>
</g>
<g>
</g>
<g>
</g>
<g>
</g>
<g>
</g>
<g>
</g>
<g>
</g>
<g>
</g>
<g>
</g>
<g>
</g>
<g>
</g>
<g>
</g>
</svg>
