<?xml version="1.0" encoding="iso-8859-1"?>
<!-- Generator: Adobe Illustrator 19.0.0, SVG Export Plug-In . SVG Version: 6.00 Build 0)  -->
<svg xmlns="http://www.w3.org/2000/svg" xmlns:xlink="http://www.w3.org/1999/xlink" version="1.1" id="Layer_1" x="0px" y="0px" viewBox="0 0 512 512" style="enable-background:new 0 0 512 512;" xml:space="preserve">
<path style="fill:#F3F3F3;" d="M177.6,512L57.067,391.467V32c0-18.133,13.867-32,32-32h333.867c18.133,0,32,13.867,32,32v448  c0,18.133-13.867,32-32,32H177.6z"/>
<polygon style="fill:#55C0EB;" points="177.6,512 57.067,391.467 177.6,391.467 "/>
<g>
	<rect x="111.467" y="129.067" style="fill:#CED6E0;" width="291.2" height="24.533"/>
	<rect x="111.467" y="205.867" style="fill:#CED6E0;" width="291.2" height="24.533"/>
	<rect x="111.467" y="52.267" style="fill:#CED6E0;" width="291.2" height="24.533"/>
	<path style="fill:#CED6E0;" d="M356.8,460.8H216c-6.4,0-10.667-4.267-10.667-10.667V308.267c0-6.4,4.267-10.667,10.667-10.667   h141.867c6.4,0,10.667,4.267,10.667,10.667v141.867C367.467,455.467,363.2,460.8,356.8,460.8z M226.667,439.467H347.2V318.933   H226.667V439.467z"/>
</g>
<path style="fill:#F3705A;" d="M300.267,424.533c-3.2,0-7.467-1.067-9.6-4.267L244.8,374.4c-5.333-5.333-5.333-13.867,0-19.2  c5.333-5.333,13.867-5.333,19.2,0l33.067,33.067c20.267-36.267,45.867-66.133,76.8-88.533c6.4-4.267,14.933-3.2,19.2,3.2  c4.267,6.4,3.2,14.933-3.2,19.2c-32,23.467-57.6,55.467-76.8,94.933c-2.133,4.267-5.333,6.4-9.6,7.467  C301.333,424.533,301.333,424.533,300.267,424.533z"/>
<g>
</g>
<g>
</g>
<g>
</g>
<g>
</g>
<g>
</g>
<g>
</g>
<g>
</g>
<g>
</g>
<g>
</g>
<g>
</g>
<g>
</g>
<g>
</g>
<g>
</g>
<g>
</g>
<g>
</g>
</svg>
