<?xml version="1.0" encoding="iso-8859-1"?>
<!-- Generator: Adobe Illustrator 19.0.0, SVG Export Plug-In . SVG Version: 6.00 Build 0)  -->
<svg xmlns="http://www.w3.org/2000/svg" xmlns:xlink="http://www.w3.org/1999/xlink" version="1.1" id="Layer_1" x="0px" y="0px" viewBox="0 0 512 512" style="enable-background:new 0 0 512 512;" xml:space="preserve">
<circle style="fill:#F3705A;" cx="312.533" cy="80" r="80"/>
<circle style="fill:#FFFFFF;" cx="312.533" cy="80" r="60.8"/>
<g>
	<path style="fill:#415A6B;" d="M338.133,87.467h-25.6c-3.2,0-6.4-3.2-6.4-6.4V38.4c0-3.2,3.2-6.4,6.4-6.4c3.2,0,6.4,3.2,6.4,6.4   v35.2h19.2c3.2,0,6.4,3.2,6.4,6.4C344.533,84.267,341.333,87.467,338.133,87.467z"/>
	<rect x="374.4" y="308.267" style="fill:#415A6B;" width="59.733" height="17.067"/>
	<path style="fill:#415A6B;" d="M457.6,347.733L457.6,347.733c0-12.8-10.667-22.4-22.4-22.4h-59.733c-12.8,0-22.4,10.667-22.4,22.4   l0,0H457.6z"/>
</g>
<path style="fill:#55C0EB;" d="M290.133,344.533H29.867l7.467-33.067c3.2-17.067,14.933-30.933,30.933-37.333l42.667-17.067L160,272  l49.067-14.933l42.667,17.067c16,6.4,27.733,20.267,30.933,37.333L290.133,344.533z"/>
<polygon style="fill:#CED6E0;" points="188.8,344.533 189.867,263.467 160,273.067 130.133,263.467 131.2,344.533 "/>
<polygon style="fill:#F3705A;" points="135.467,344.533 184.533,344.533 168.533,299.733 177.067,289.067 160,273.067   142.933,289.067 151.467,299.733 "/>
<path style="fill:#E8EAE9;" d="M160,272c0,0,29.867-19.2,32-35.2l11.733,19.2L182.4,300.8L160,272z"/>
<polygon style="fill:#8AD7F8;" points="196.267,344.533 227.2,291.2 210.133,282.667 227.2,274.133 198.4,246.4 174.933,344.533 "/>
<path style="fill:#E8EAE9;" d="M160,272c0,0-29.867-19.2-32-35.2L117.333,256l21.333,44.8L160,272z"/>
<polygon style="fill:#8AD7F8;" points="92.8,291.2 123.733,344.533 145.067,344.533 121.6,246.4 92.8,274.133 110.933,282.667 "/>
<path style="fill:#F7B64C;" d="M128,215.467v20.267c2.133,17.067,32,35.2,32,35.2s29.867-19.2,32-35.2v-20.267H128z"/>
<g>
	<path style="fill:#415A6B;" d="M160,168.533c0,26.667-11.733,48-25.6,48c-13.867,0-26.667-21.333-27.733-48   c-1.067-27.733,10.667-52.267,25.6-52.267S160,140.8,160,168.533z"/>
	<path style="fill:#415A6B;" d="M216.533,163.2c-1.067,29.867-23.467,52.267-49.067,52.267s-46.933-23.467-48-52.267   c-1.067-30.933,21.333-57.6,49.067-57.6C196.267,105.6,218.667,132.267,216.533,163.2z"/>
</g>
<g>
	<path style="fill:#FFD15C;" d="M208,165.333c-22.4-2.133-44.8-9.6-62.933-22.4c-8.533,13.867-19.2,25.6-33.067,32   c0,4.267-1.067,7.467,0,11.733c1.067,35.2,23.467,61.867,49.067,61.867s48-26.667,49.067-61.867   C210.133,179.2,209.067,172.8,208,165.333z"/>
	<path style="fill:#FFD15C;" d="M216.533,193.067c-2.133,9.6-9.6,17.067-14.933,16c-5.333-1.067-7.467-9.6-5.333-19.2   c2.133-9.6,9.6-17.067,14.933-16C217.6,174.933,219.733,183.467,216.533,193.067z"/>
	<path style="fill:#FFD15C;" d="M103.467,193.067c2.133,9.6,9.6,17.067,14.933,16c5.333-1.067,7.467-9.6,5.333-19.2   s-9.6-17.067-14.933-16C103.467,174.933,100.267,183.467,103.467,193.067z"/>
	<rect y="344.533" style="fill:#FFD15C;" width="512" height="45.867"/>
</g>
<rect x="42.667" y="391.467" style="fill:#F7B64C;" width="426.667" height="120.533"/>
<path style="fill:#415A6B;" d="M485.333,167.467H323.2c-6.4,0-10.667,4.267-10.667,10.667V297.6c0,6.4,4.267,10.667,10.667,10.667  h163.2c6.4,0,10.667-4.267,10.667-10.667V178.133C496,171.733,491.733,167.467,485.333,167.467z"/>
<g>
</g>
<g>
</g>
<g>
</g>
<g>
</g>
<g>
</g>
<g>
</g>
<g>
</g>
<g>
</g>
<g>
</g>
<g>
</g>
<g>
</g>
<g>
</g>
<g>
</g>
<g>
</g>
<g>
</g>
</svg>
