<?xml version="1.0" encoding="iso-8859-1"?>
<!-- Generator: Adobe Illustrator 19.0.0, SVG Export Plug-In . SVG Version: 6.00 Build 0)  -->
<svg xmlns="http://www.w3.org/2000/svg" xmlns:xlink="http://www.w3.org/1999/xlink" version="1.1" id="Layer_1" x="0px" y="0px" viewBox="0 0 512 512" style="enable-background:new 0 0 512 512;" xml:space="preserve">
<g>
	<polygon style="fill:#415A6B;" points="330.667,206.933 283.733,283.733 299.733,283.733 346.667,206.933  "/>
	<polygon style="fill:#415A6B;" points="166.4,206.933 213.333,283.733 228.267,283.733 181.333,206.933  "/>
</g>
<path style="fill:#344A5E;" d="M230.4,494.933c4.267,9.6,13.867,17.067,25.6,17.067s21.333-7.467,25.6-17.067H230.4z"/>
<path style="fill:#FFD15C;" d="M259.2,256c-48-2.133-88.533,37.333-88.533,85.333c0,23.467,9.6,44.8,25.6,60.8  c16,14.933,23.467,36.267,24.533,58.667h70.4c1.067-22.4,10.667-43.733,26.667-59.733c14.933-17.067,23.467-38.4,23.467-61.867  C340.267,295.467,304,258.133,259.2,256z"/>
<path style="fill:#415A6B;" d="M214.4,429.867V483.2c0,8.533,6.4,14.933,14.933,14.933H281.6c8.533,0,14.933-6.4,14.933-14.933  v-53.333H214.4z"/>
<g>
	<path style="fill:#344A5E;" d="M297.6,428.8h-83.2c-5.333,0-9.6,4.267-9.6,9.6c0,5.333,4.267,9.6,9.6,9.6h83.2   c5.333,0,9.6-4.267,9.6-9.6C307.2,434.133,302.933,428.8,297.6,428.8z"/>
	<path style="fill:#344A5E;" d="M297.6,460.8h-83.2c-5.333,0-9.6,4.267-9.6,9.6c0,5.333,4.267,9.6,9.6,9.6h83.2   c5.333,0,9.6-4.267,9.6-9.6C307.2,465.067,302.933,460.8,297.6,460.8z"/>
</g>
<circle style="fill:#F3F3F3;" cx="120.533" cy="120.533" r="104.533"/>
<g>
	<path style="fill:#415A6B;" d="M135.467,87.467C135.467,102.4,110.933,192,94.933,192S80,102.4,80,87.467   s12.8-27.733,27.733-27.733S135.467,71.467,135.467,87.467z"/>
	<path style="fill:#415A6B;" d="M163.2,134.4c-3.2,34.133-9.6,61.867-20.267,61.867c-10.667,0-20.267-27.733-20.267-61.867   S140.8,64,151.467,64C164.267,62.933,166.4,99.2,163.2,134.4z"/>
</g>
<path style="fill:#F7B64C;" d="M182.4,216.533v-28.8c0-9.6-6.4-18.133-16-20.267c-6.4-2.133-12.8-3.2-19.2-4.267  c-6.4-1.067-11.733-6.4-11.733-12.8v-12.8H105.6v12.8c0,6.4-5.333,11.733-11.733,12.8s-12.8,2.133-19.2,4.267  c-9.6,2.133-16,10.667-16,20.267v28.8H182.4z"/>
<path style="fill:#55C0EB;" d="M182.4,216.533v-28.8c0-9.6-6.4-18.133-16-20.267c-5.333-1.067-10.667-2.133-17.067-3.2  c-1.067,14.933-28.8,26.667-28.8,26.667S92.8,179.2,91.733,164.267c-5.333,1.067-10.667,2.133-17.067,3.2  c-9.6,2.133-16,10.667-16,20.267v28.8H182.4z"/>
<g>
	<ellipse style="fill:#FFD15C;" cx="120.533" cy="117.333" rx="25.6" ry="35.2"/>
	<path style="fill:#FFD15C;" d="M138.667,87.467c-20.267,0-20.267,34.133,0,34.133S158.933,87.467,138.667,87.467z"/>
	<path style="fill:#FFD15C;" d="M104.533,88.533c-20.267,0-20.267,36.267,0,36.267C124.8,124.8,124.8,88.533,104.533,88.533z"/>
</g>
<path style="fill:#415A6B;" d="M97.067,130.133l-3.2-25.6c0,0,32,7.467,45.867-10.667c0,0,9.6,1.067,8.533,11.733l-2.133,21.333  c12.8-9.6,35.2-70.4-8.533-66.133c0,0-28.8-21.333-48-1.067c-7.467,7.467-10.667,18.133-9.6,28.8  C82.133,99.2,85.333,114.133,97.067,130.133z"/>
<path style="fill:#F3705A;" d="M120.533,242.133C54.4,242.133,0,187.733,0,120.533S54.4,0,120.533,0s120.533,54.4,120.533,120.533  S187.733,242.133,120.533,242.133z M120.533,32C71.467,32,32,71.467,32,120.533s40.533,89.6,89.6,89.6s89.6-40.533,89.6-89.6  S169.6,32,120.533,32z"/>
<circle style="fill:#F3F3F3;" cx="391.467" cy="120.533" r="104.533"/>
<rect x="371.2" y="173.867" style="fill:#CED6E0;" width="39.467" height="39.467"/>
<g>
	<polygon style="fill:#F3705A;" points="398.933,187.733 406.4,180.267 391.467,165.333 376.533,180.267 384,187.733  "/>
	<polygon style="fill:#F3705A;" points="404.267,228.267 398.933,187.733 384,187.733 378.667,228.267  "/>
</g>
<g>
	<path style="fill:#344A5E;" d="M468.267,205.867l-1.067-12.8c-1.067-12.8-11.733-23.467-23.467-25.6l-18.133-3.2l-23.467,64   L468.267,205.867z"/>
	<path style="fill:#344A5E;" d="M381.867,228.267l-23.467-64l-18.133,3.2c-12.8,2.133-22.4,12.8-23.467,25.6l-1.067,7.467   L381.867,228.267z"/>
</g>
<path style="fill:#F7B64C;" d="M408.533,124.8h-35.2v20.267c-1.067,6.4,17.067,21.333,17.067,21.333s18.133-14.933,17.067-21.333  L408.533,124.8z"/>
<g>
	<path style="fill:#FFD15C;" d="M426.667,109.867c-1.067,6.4-5.333,11.733-9.6,10.667c-4.267-1.067-5.333-6.4-4.267-12.8   c1.067-6.4,5.333-11.733,9.6-10.667C426.667,97.067,427.733,103.467,426.667,109.867z"/>
	<path style="fill:#FFD15C;" d="M355.2,109.867c1.067,6.4,5.333,11.733,9.6,10.667c4.267-1.067,5.333-6.4,4.267-12.8   s-5.333-11.733-9.6-10.667C356.267,97.067,354.133,103.467,355.2,109.867z"/>
	<ellipse style="fill:#FFD15C;" cx="391.467" cy="105.6" rx="29.867" ry="44.8"/>
</g>
<path style="fill:#415A6B;" d="M362.667,114.133l2.133-29.867c0,0,8.533,0,17.067-11.733c0,0-1.067,10.667-13.867,13.867  c0,0,8.533,0,17.067-10.667c7.467,8.533,18.133,11.733,32,11.733c0,0,5.333,14.933,2.133,26.667l0,0  c7.467-23.467,16-55.467-18.133-59.733c0,0-25.6-16-40.533,3.2c-3.2,4.267-5.333,9.6-5.333,13.867  C355.2,81.067,354.133,93.867,362.667,114.133L362.667,114.133z"/>
<path style="fill:#F3F3F3;" d="M391.467,165.333c0,0,18.133-14.933,17.067-21.333L416,161.067l-8.533,23.467L391.467,165.333z"/>
<polygon style="fill:#415A6B;" points="412.8,228.267 437.333,198.4 420.267,184.533 440.533,176 413.867,156.8 396.8,228.267 "/>
<path style="fill:#F3F3F3;" d="M391.467,165.333c0,0-18.133-14.933-17.067-21.333l-7.467,17.067l8.533,23.467L391.467,165.333z"/>
<polygon style="fill:#415A6B;" points="344.533,198.4 370.133,228.267 385.067,228.267 368,156.8 341.333,176 361.6,184.533 "/>
<path style="fill:#66C6B9;" d="M391.467,242.133c-66.133,0-120.533-54.4-120.533-120.533S324.267,0,391.467,0S512,54.4,512,120.533  S457.6,242.133,391.467,242.133z M391.467,32c-49.067,0-89.6,40.533-89.6,89.6s40.533,89.6,89.6,89.6s89.6-40.533,89.6-89.6  S440.533,32,391.467,32z"/>
<g>
	<path style="fill:#FFD15C;" d="M256,213.333c-4.267,0-7.467,3.2-7.467,7.467v13.867c0,4.267,3.2,7.467,7.467,7.467   c4.267,0,7.467-3.2,7.467-7.467v-12.8C263.467,217.6,260.267,213.333,256,213.333z"/>
	<path style="fill:#FFD15C;" d="M146.133,277.333c-2.133,3.2-1.067,8.533,3.2,9.6l11.733,6.4c3.2,2.133,8.533,1.067,9.6-3.2   c2.133-3.2,1.067-8.533-3.2-9.6l-11.733-6.4C152.533,273.067,148.267,274.133,146.133,277.333z"/>
	<path style="fill:#FFD15C;" d="M129.067,341.333c0,4.267,3.2,7.467,7.467,7.467h12.8c4.267,0,7.467-3.2,7.467-7.467   c0-4.267-3.2-7.467-7.467-7.467h-12.8C132.267,333.867,129.067,337.067,129.067,341.333z"/>
	<path style="fill:#FFD15C;" d="M146.133,405.333c2.133,3.2,6.4,4.267,9.6,3.2l11.733-6.4c3.2-2.133,4.267-6.4,3.2-9.6   c-2.133-3.2-6.4-4.267-9.6-3.2l-12.8,5.333C145.067,396.8,144,401.067,146.133,405.333z"/>
	<path style="fill:#FFD15C;" d="M366.933,405.333c2.133-3.2,1.067-8.533-3.2-9.6l-11.733-6.4c-3.2-2.133-8.533-1.067-9.6,3.2   c-2.133,3.2-1.067,8.533,3.2,9.6l11.733,6.4C360.533,409.6,364.8,408.533,366.933,405.333z"/>
	<path style="fill:#FFD15C;" d="M384,341.333c0-4.267-3.2-7.467-7.467-7.467h-12.8c-4.267,0-7.467,3.2-7.467,7.467   s3.2,7.467,7.467,7.467h12.8C380.8,348.8,384,345.6,384,341.333z"/>
	<path style="fill:#FFD15C;" d="M366.933,277.333c-2.133-3.2-6.4-4.267-9.6-3.2l-11.733,6.4c-3.2,2.133-4.267,6.4-3.2,9.6   c2.133,3.2,6.4,4.267,9.6,3.2l11.733-6.4C366.933,285.867,369.067,281.6,366.933,277.333z"/>
</g>
<g>
</g>
<g>
</g>
<g>
</g>
<g>
</g>
<g>
</g>
<g>
</g>
<g>
</g>
<g>
</g>
<g>
</g>
<g>
</g>
<g>
</g>
<g>
</g>
<g>
</g>
<g>
</g>
<g>
</g>
</svg>
