<?xml version="1.0" encoding="iso-8859-1"?>
<!-- Generator: Adobe Illustrator 19.0.0, SVG Export Plug-In . SVG Version: 6.00 Build 0)  -->
<svg xmlns="http://www.w3.org/2000/svg" xmlns:xlink="http://www.w3.org/1999/xlink" version="1.1" id="Layer_1" x="0px" y="0px" viewBox="0 0 512 512" style="enable-background:new 0 0 512 512;" xml:space="preserve">
<path style="fill:#344A5E;" d="M512,248.533L506.667,224c-3.2-16-13.867-28.8-29.867-35.2l-39.467-17.067L390.4,186.667  l-46.933-14.933l-40.533,16c-14.933,6.4-25.6,19.2-29.867,35.2l-5.333,24.533H512V248.533z"/>
<polygon style="fill:#CED6E0;" points="418.133,248.533 419.2,178.133 390.4,186.667 362.667,178.133 363.733,248.533 "/>
<polygon style="fill:#F3705A;" points="369.067,248.533 411.733,248.533 398.933,212.267 406.4,202.667 390.4,186.667   374.4,202.667 382.933,212.267 "/>
<path style="fill:#E8EAE9;" d="M390.4,186.667c0,0,27.733-18.133,29.867-34.133l10.667,18.133l-19.2,42.667L390.4,186.667z"/>
<polygon style="fill:#415A6B;" points="428.8,248.533 453.333,203.733 437.333,196.267 454.4,188.8 426.667,162.133 406.4,248.533   "/>
<path style="fill:#E8EAE9;" d="M390.4,186.667c0,0-27.733-18.133-29.867-34.133l-10.667,18.133l19.2,42.667L390.4,186.667z"/>
<polygon style="fill:#415A6B;" points="327.467,203.733 353.067,248.533 375.467,248.533 354.133,162.133 326.4,188.8   343.467,196.267 "/>
<path style="fill:#F7B64C;" d="M360.533,133.333v19.2c2.133,16,29.867,34.133,29.867,34.133s27.733-18.133,29.867-34.133v-19.2  H360.533z"/>
<g>
	<path style="fill:#415A6B;" d="M390.4,88.533c0,25.6-10.667,45.867-24.533,45.867s-24.533-20.267-25.6-45.867   c-1.067-26.667,9.6-49.067,24.533-49.067S390.4,61.867,390.4,88.533z"/>
	<path style="fill:#415A6B;" d="M443.733,83.2c-1.067,27.733-22.4,50.133-45.867,50.133c-24.533,0-44.8-21.333-45.867-50.133   c-1.067-29.867,20.267-54.4,46.933-54.4C425.6,28.8,445.867,53.333,443.733,83.2z"/>
</g>
<g>
	<path style="fill:#FFD15C;" d="M435.2,85.333c-20.267-2.133-41.6-9.6-59.733-21.333c-8.533,12.8-18.133,23.467-30.933,29.867   c0,3.2-1.067,7.467,0,10.667c1.067,33.067,22.4,58.667,46.933,58.667c24.533,0,44.8-25.6,46.933-58.667   C437.333,98.133,437.333,91.733,435.2,85.333z"/>
	<path style="fill:#FFD15C;" d="M443.733,110.933c-2.133,9.6-8.533,16-13.867,14.933s-7.467-8.533-5.333-18.133   c2.133-9.6,8.533-16,13.867-14.933C444.8,93.867,446.933,102.4,443.733,110.933z"/>
	<path style="fill:#FFD15C;" d="M337.067,110.933c2.133,9.6,8.533,16,13.867,14.933c5.333-1.067,7.467-8.533,5.333-18.133   s-8.533-16-13.867-14.933C337.067,93.867,333.867,102.4,337.067,110.933z"/>
</g>
<path style="fill:#F3705A;" d="M196.267,222.933H18.133l0,0c17.067-25.6,26.667-55.467,26.667-86.4v-44.8  c0-35.2,27.733-62.933,62.933-62.933l0,0c35.2,0,62.933,27.733,62.933,62.933V137.6C169.6,167.467,179.2,197.333,196.267,222.933  L196.267,222.933z"/>
<g>
	<path style="fill:#344A5E;" d="M107.733,252.8l-41.6-68.267L35.2,195.2C13.867,202.667,0,221.867,0,243.2v9.6L107.733,252.8   L107.733,252.8z"/>
	<path style="fill:#344A5E;" d="M214.4,252.8v-9.6c0-21.333-13.867-40.533-34.133-48l-30.933-10.667l-41.6,68.267H214.4z"/>
</g>
<polygon style="fill:#CED6E0;" points="107.733,252.8 147.2,192 75.733,192 "/>
<g>
	<polygon style="fill:#F3F3F3;" points="137.6,167.467 107.733,192 133.333,221.867 147.2,185.6  "/>
	<polygon style="fill:#F3F3F3;" points="76.8,167.467 68.267,185.6 81.067,221.867 107.733,192  "/>
</g>
<polygon style="fill:#F7B64C;" points="137.6,140.8 107.733,116.267 76.8,140.8 76.8,167.467 107.733,192 137.6,167.467 "/>
<path style="fill:#FFD15C;" d="M152.533,82.133c-16,9.6-35.2,13.867-54.4,13.867c-12.8,0-25.6-2.133-37.333-5.333  c0,2.133,0,9.6,0,10.667c0,40.533,20.267,73.6,46.933,73.6s46.933-33.067,46.933-73.6c0-1.067,0-3.2,0-4.267  C153.6,93.867,153.6,84.267,152.533,82.133z"/>
<g>
	<polygon style="fill:#415A6B;" points="53.333,225.067 107.733,252.8 107.733,252.8 73.6,173.867 49.067,205.867 68.267,208  "/>
	<polygon style="fill:#415A6B;" points="107.733,252.8 161.067,225.067 147.2,208 165.333,205.867 141.867,173.867  "/>
</g>
<path style="fill:#F3F3F3;" d="M256,425.6c-67.2,0-120.533-54.4-120.533-120.533c0-67.2,54.4-120.533,120.533-120.533  s120.533,54.4,120.533,120.533S322.133,425.6,256,425.6z"/>
<path style="fill:#344A5E;" d="M357.333,377.6c-1.067-8.533-13.867-11.733-21.333-14.933l-37.333-12.8L256,362.667l-42.667-12.8  L176,363.733c-10.667,3.2-26.667,9.6-26.667,20.267C148.267,439.467,368,432,357.333,377.6z"/>
<polygon style="fill:#CED6E0;" points="280.533,419.2 281.6,355.2 256,362.667 230.4,355.2 231.467,419.2 "/>
<polygon style="fill:#F3705A;" points="241.067,419.2 269.867,419.2 263.467,390.4 270.933,377.6 256,362.667 241.067,377.6   248.533,390.4 "/>
<path style="fill:#E8EAE9;" d="M256,362.667c0,0,25.6-16,27.733-30.933l9.6,17.067L275.2,388.267L256,362.667z"/>
<polygon style="fill:#415A6B;" points="291.2,419.2 314.667,378.667 298.667,371.2 314.667,364.8 289.067,340.267 269.867,419.2 "/>
<path style="fill:#E8EAE9;" d="M256,362.667c0,0-25.6-16-27.733-30.933l-9.6,17.067l18.133,39.467L256,362.667z"/>
<polygon style="fill:#415A6B;" points="197.333,378.667 220.8,419.2 241.067,419.2 222.933,340.267 197.333,364.8 212.267,371.2 "/>
<path style="fill:#F7B64C;" d="M228.267,313.6v18.133C230.4,345.6,256,362.667,256,362.667s25.6-16,27.733-30.933V313.6H228.267z"/>
<g>
	<path style="fill:#FFD15C;" d="M291.2,256c-17.067,0-33.067-4.267-44.8-12.8c-7.467,12.8-18.133,21.333-30.933,24.533   c-1.067,5.333-2.133,10.667-2.133,17.067c0,28.8,19.2,51.2,42.667,51.2s42.667-23.467,42.667-51.2   C298.667,274.133,295.467,263.467,291.2,256z"/>
	<path style="fill:#FFD15C;" d="M256,219.733c-54.4,0-55.467,85.333,0,85.333S311.467,219.733,256,219.733z"/>
</g>
<path style="fill:#415A6B;" d="M304,254.933c0,9.6-3.2,20.267-9.6,29.867c-1.067-8.533-2.133-22.4,1.067-27.733  c4.267-7.467-3.2-13.867-11.733-10.667c-22.4,11.733-53.333,0-53.333,0c-8.533-3.2-16,3.2-11.733,10.667  c3.2,5.333,3.2,19.2,1.067,27.733c-6.4-9.6-9.6-20.267-9.6-29.867c0-23.467,20.267-42.667,45.867-42.667  C282.667,212.267,304,231.467,304,254.933z"/>
<g>
	<path style="fill:#FFD15C;" d="M305.067,285.867c-2.133,8.533-7.467,14.933-11.733,14.933c-4.267-1.067-7.467-8.533-5.333-18.133   c2.133-8.533,7.467-14.933,11.733-14.933C304,269.867,307.2,277.333,305.067,285.867z"/>
	<path style="fill:#FFD15C;" d="M206.933,285.867c2.133,8.533,7.467,14.933,11.733,14.933c4.267-1.067,7.467-8.533,5.333-18.133   c-2.133-8.533-7.467-14.933-11.733-14.933C208,269.867,204.8,277.333,206.933,285.867z"/>
</g>
<path style="fill:#8AD7F8;" d="M416,392.533l18.133-49.067L397.867,316.8c1.067-11.733,1.067-23.467-1.067-34.133l34.133-28.8  L409.6,206.933l-44.8,6.4c-7.467-8.533-16-16-25.6-23.467l3.2-44.8l-49.067-18.133L266.667,163.2  c-11.733-1.067-23.467-1.067-34.133,1.067l-28.8-34.133L156.8,151.467l6.4,44.8c-8.533,7.467-16,16-23.467,24.533L96,217.6  l-18.133,49.067l36.267,26.667c-1.067,11.733,0,23.467,1.067,34.133l-34.133,28.8L102.4,403.2l43.733-6.4  c7.467,8.533,16,17.067,25.6,23.467l-3.2,44.8L217.6,483.2l26.667-36.267C256,448,267.733,448,278.4,445.867L307.2,480  l46.933-21.333l-6.4-43.733c8.533-7.467,16-16,23.467-25.6L416,392.533z M218.667,404.267  c-55.467-20.267-83.2-82.133-62.933-136.533c20.267-55.467,82.133-83.2,136.533-62.933c55.467,20.267,83.2,82.133,62.933,136.533  C334.933,396.8,274.133,425.6,218.667,404.267z"/>
<g>
</g>
<g>
</g>
<g>
</g>
<g>
</g>
<g>
</g>
<g>
</g>
<g>
</g>
<g>
</g>
<g>
</g>
<g>
</g>
<g>
</g>
<g>
</g>
<g>
</g>
<g>
</g>
<g>
</g>
</svg>
