<?xml version="1.0" encoding="iso-8859-1"?>
<!-- Generator: Adobe Illustrator 19.0.0, SVG Export Plug-In . SVG Version: 6.00 Build 0)  -->
<svg xmlns="http://www.w3.org/2000/svg" xmlns:xlink="http://www.w3.org/1999/xlink" version="1.1" id="Layer_1" x="0px" y="0px" viewBox="0 0 512 512" style="enable-background:new 0 0 512 512;" xml:space="preserve">
<path style="fill:#F3F3F3;" d="M387.2,0H32C13.867,0,0,13.867,0,32v448c0,18.133,13.867,32,32,32h355.2c18.133,0,32-13.867,32-32V32  C419.2,13.867,405.333,0,387.2,0z"/>
<path style="fill:#8AD7F8;" d="M493.867,342.4l-25.6-25.6l-25.6,13.867c-3.2-2.133-7.467-3.2-10.667-4.267l-8.533-27.733H387.2  l-8.533,27.733c-3.2,1.067-7.467,3.2-10.667,4.267L342.4,316.8l-26.667,24.533l12.8,25.6c-2.133,3.2-3.2,7.467-4.267,10.667  l-27.733,8.533V422.4l27.733,8.533c1.067,3.2,3.2,7.467,4.267,10.667l-13.867,25.6l25.6,25.6l25.6-13.867  c3.2,2.133,7.467,3.2,10.667,4.267l8.533,27.733h36.267l8.533-27.733c3.2-1.067,7.467-3.2,10.667-4.267l25.6,13.867l25.6-25.6  L480,442.667c2.133-3.2,3.2-7.467,4.267-10.667L512,423.467V387.2l-27.733-8.533C483.2,374.4,481.067,371.2,480,368L493.867,342.4z   M428.8,428.8c-13.867,12.8-35.2,13.867-48,0s-12.8-35.2,0-48s35.2-13.867,48,0C442.667,393.6,442.667,416,428.8,428.8z"/>
<path style="fill:#55C0EB;" d="M362.667,362.667c-23.467,23.467-23.467,60.8,0,84.267s60.8,23.467,84.267,0s23.467-60.8,0-84.267  S386.133,339.2,362.667,362.667z M428.8,428.8c-13.867,12.8-35.2,13.867-48,0s-12.8-35.2,0-48c13.867-12.8,35.2-13.867,48,0  C442.667,393.6,442.667,416,428.8,428.8z"/>
<path style="fill:#415A6B;" d="M373.333,93.867c-1.067-3.2-2.133-5.333-4.267-6.4L313.6,53.333c-5.333-3.2-11.733-1.067-14.933,3.2  c-3.2,5.333-1.067,11.733,3.2,14.933l33.067,20.267l-13.867,3.2C245.333,112,178.133,155.733,134.4,220.8  c-44.8,66.133-60.8,146.133-45.867,224c1.067,6.4,7.467,9.6,12.8,8.533c5.333-1.067,8.533-6.4,7.467-12.8  c-13.867-72.533,1.067-146.133,42.667-208C192,172.8,254.933,132.267,324.267,116.267l13.867-3.2l-18.133,32  c-3.2,5.333-1.067,11.733,3.2,14.933l0,0c5.333,3.2,11.733,1.067,14.933-3.2l34.133-54.4C373.333,99.2,374.4,97.067,373.333,93.867z  "/>
<g>
	<path style="fill:#F3705A;" d="M289.067,250.667l23.467-23.467c4.267-4.267,4.267-10.667,0-14.933s-10.667-4.267-14.933,0   l-23.467,23.467l-23.467-23.467C246.4,208,240,208,235.733,212.267s-4.267,10.667,0,14.933l23.467,23.467l-23.467,23.467   c-4.267,4.267-4.267,10.667,0,14.933s10.667,4.267,14.933,0l23.467-23.467l23.467,23.467c4.267,4.267,10.667,4.267,14.933,0   s4.267-10.667,0-14.933L289.067,250.667z"/>
	<path style="fill:#F3705A;" d="M128,105.6l23.467-23.467c4.267-4.267,4.267-10.667,0-14.933s-10.667-4.267-14.933,0l-23.467,23.467   L89.6,67.2c-4.267-4.267-10.667-4.267-14.933,0c-4.267,4.267-4.267,10.667,0,14.933L98.133,105.6l-23.467,23.467   c-4.267,4.267-4.267,10.667,0,14.933c4.267,4.267,10.667,4.267,14.933,0l23.467-23.467L136.533,144   c4.267,4.267,10.667,4.267,14.933,0s4.267-10.667,0-14.933L128,105.6z"/>
	<path style="fill:#F3705A;" d="M193.067,412.8c-26.667,0-48-21.333-48-48s21.333-48,48-48s48,21.333,48,48   S218.667,412.8,193.067,412.8z M193.067,339.2c-14.933,0-26.667,11.733-26.667,26.667s11.733,26.667,26.667,26.667   c14.933,0,26.667-11.733,26.667-26.667C218.667,350.933,206.933,339.2,193.067,339.2z"/>
</g>
<g>
</g>
<g>
</g>
<g>
</g>
<g>
</g>
<g>
</g>
<g>
</g>
<g>
</g>
<g>
</g>
<g>
</g>
<g>
</g>
<g>
</g>
<g>
</g>
<g>
</g>
<g>
</g>
<g>
</g>
</svg>
