<?xml version="1.0" encoding="iso-8859-1"?>
<!-- Generator: Adobe Illustrator 19.0.0, SVG Export Plug-In . SVG Version: 6.00 Build 0)  -->
<svg xmlns="http://www.w3.org/2000/svg" xmlns:xlink="http://www.w3.org/1999/xlink" version="1.1" id="Layer_1" x="0px" y="0px" viewBox="0 0 512 512" style="enable-background:new 0 0 512 512;" xml:space="preserve">
<rect x="100.8" style="fill:#F3F3F3;" width="343.467" height="512"/>
<g>
	<rect x="156.267" y="53.333" style="fill:#CED6E0;" width="240" height="24.533"/>
	<rect x="156.267" y="118.4" style="fill:#CED6E0;" width="240" height="24.533"/>
	<rect x="156.267" y="182.4" style="fill:#CED6E0;" width="117.333" height="24.533"/>
</g>
<path style="fill:#F3705A;" d="M100.8,0H50.667C22.933,0,0.533,22.4,0.533,50.133v411.733C0.533,489.6,22.933,512,50.667,512H100.8  V0z"/>
<g>
	<path style="fill:#415A6B;" d="M353.6,429.867v-19.2l-22.4-4.267c-2.133-8.533-5.333-17.067-10.667-24.533l12.8-19.2l-12.8-12.8   l-19.2,12.8c-7.467-5.333-16-8.533-24.533-10.667l-4.267-22.4h-19.2l-4.267,22.4c-8.533,2.133-17.067,5.333-24.533,10.667   L203.2,348.8l-12.8,13.867l12.8,19.2c-5.333,7.467-8.533,16-10.667,24.533l-22.4,4.267v19.2l22.4,4.267   c2.133,8.533,5.333,17.067,10.667,24.533l-12.8,19.2l12.8,12.8l19.2-12.8c7.467,5.333,16,8.533,24.533,10.667l4.267,22.4h19.2   l4.267-22.4c8.533-2.133,17.067-5.333,24.533-10.667l19.2,12.8l12.8-12.8l-10.667-19.2c5.333-7.467,8.533-16,10.667-24.533   L353.6,429.867z M261.867,459.733c-21.333,0-39.467-18.133-39.467-39.467c0-21.333,17.067-39.467,39.467-39.467   c21.333,0,39.467,17.067,39.467,39.467S283.2,459.733,261.867,459.733z"/>
	<circle style="fill:#415A6B;" cx="261.867" cy="420.267" r="19.2"/>
</g>
<path style="fill:#8AD7F8;" d="M490.133,359.467l17.067-32L486.933,307.2C488,302.933,488,299.733,488,295.467l23.467-16  l-10.667-35.2H472c-2.133-3.2-4.267-6.4-7.467-9.6l5.333-27.733l-32-17.067L417.6,210.133c-4.267-1.067-7.467-1.067-11.733-1.067  l-16-23.467l-35.2,10.667v28.8c-3.2,2.133-6.4,4.267-9.6,7.467l-27.733-5.333l-17.067,32l20.267,20.267c0,2.133,0,5.333,0,9.6  l-23.467,16l10.667,35.2h28.8c2.133,3.2,4.267,6.4,7.467,9.6l-5.333,27.733l32,17.067l20.267-20.267  c4.267,1.067,7.467,1.067,11.733,1.067l16,23.467l35.2-10.667v-28.8c3.2-2.133,6.4-4.267,9.6-7.467L490.133,359.467z M392,315.733  c-12.8-7.467-18.133-23.467-10.667-36.267S404.8,261.333,417.6,268.8c12.8,7.467,18.133,23.467,10.667,36.267  S404.8,323.2,392,315.733z"/>
<path style="fill:#55C0EB;" d="M430.4,243.2c-26.667-14.933-60.8-4.267-74.667,22.4c-14.933,26.667-4.267,60.8,22.4,74.667  c26.667,14.933,60.8,4.267,74.667-22.4C467.733,292.267,457.067,258.133,430.4,243.2z M392,315.733  c-12.8-7.467-18.133-23.467-10.667-36.267S404.8,261.333,417.6,268.8c12.8,7.467,18.133,23.467,10.667,36.267  S404.8,323.2,392,315.733z"/>
<g>
</g>
<g>
</g>
<g>
</g>
<g>
</g>
<g>
</g>
<g>
</g>
<g>
</g>
<g>
</g>
<g>
</g>
<g>
</g>
<g>
</g>
<g>
</g>
<g>
</g>
<g>
</g>
<g>
</g>
</svg>
