<?xml version="1.0" encoding="iso-8859-1"?>
<!-- Generator: Adobe Illustrator 19.0.0, SVG Export Plug-In . SVG Version: 6.00 Build 0)  -->
<svg xmlns="http://www.w3.org/2000/svg" xmlns:xlink="http://www.w3.org/1999/xlink" version="1.1" id="Layer_1" x="0px" y="0px" viewBox="0 0 512.373 512.373" style="enable-background:new 0 0 512.373 512.373;" xml:space="preserve">
<path style="fill:#F3F3F3;" d="M155.779,11.039c155.733-48,298.667,67.2,298.667,216.533l56.533,118.4  c4.267,8.533-2.133,18.133-11.733,18.133h-45.867v74.667c0,18.133-14.933,33.067-33.067,33.067h-48v40.533h-275.2  c-7.467-56.533-27.733-112-58.667-160c-24.533-36.267-38.4-78.933-38.4-124.8l0,0C0.046,129.439,61.913,39.839,155.779,11.039z"/>
<g>
	<polygon style="fill:#F05540;" points="222.979,359.839 373.379,200.906 72.579,200.906  "/>
	<polygon style="fill:#F05540;" points="120.579,132.639 72.579,200.906 373.379,200.906 326.446,132.639  "/>
</g>
<polygon style="fill:#F45C4D;" points="222.979,359.839 276.313,200.906 170.713,200.906 "/>
<g>
	<polygon style="fill:#F3705A;" points="222.979,132.639 170.713,200.906 276.313,200.906  "/>
	<polygon style="fill:#F3705A;" points="276.313,200.906 326.446,132.639 373.379,200.906  "/>
	<polygon style="fill:#F3705A;" points="170.713,200.906 120.579,132.639 72.579,200.906  "/>
</g>
<g>
</g>
<g>
</g>
<g>
</g>
<g>
</g>
<g>
</g>
<g>
</g>
<g>
</g>
<g>
</g>
<g>
</g>
<g>
</g>
<g>
</g>
<g>
</g>
<g>
</g>
<g>
</g>
<g>
</g>
</svg>
