<?xml version="1.0" encoding="iso-8859-1"?>
<!-- Generator: Adobe Illustrator 19.0.0, SVG Export Plug-In . SVG Version: 6.00 Build 0)  -->
<svg xmlns="http://www.w3.org/2000/svg" xmlns:xlink="http://www.w3.org/1999/xlink" version="1.1" id="Layer_1" x="0px" y="0px" viewBox="0 0 511.467 511.467" style="enable-background:new 0 0 511.467 511.467;" xml:space="preserve">
<path style="fill:#F7B64C;" d="M240.8,4C206.667,21.067,123.467,63.733,69.067,77.6c-13.867,3.2-24.533,16-24.533,30.933v162.133  c0,119.467,87.467,221.867,205.867,240c3.2,1.067,7.467,1.067,10.667,0c118.4-18.133,205.867-120.533,205.867-240V109.6  c0-14.933-9.6-27.733-24.533-30.933C388,63.733,304.8,21.067,270.667,4C261.067-1.333,250.4-1.333,240.8,4z"/>
<path style="fill:#F3F3F3;" d="M255.733,458.4c-91.733-16-156.8-93.867-156.8-187.733V125.6c51.2-16,116.267-48,156.8-69.333  C296.267,77.6,361.333,109.6,413.6,125.6v146.133C412.533,363.467,347.467,442.4,255.733,458.4z"/>
<polygon style="fill:#CED6E0;" points="228,465.867 316.533,378.4 255.733,317.6 213.067,365.6 219.467,465.867 "/>
<polygon style="fill:#F05540;" points="271.733,359.2 284.533,346.4 255.733,317.6 226.933,346.4 239.733,359.2 "/>
<polygon style="fill:#F3705A;" points="281.333,465.867 271.733,359.2 239.733,359.2 230.133,465.867 "/>
<polygon style="fill:#F3F3F3;" points="295.2,271.733 308,292 285.6,354.933 255.733,317.6 "/>
<path style="fill:#344A5E;" d="M415.733,399.733L410.4,372c-5.333-28.8-25.6-52.267-53.333-61.867l-41.6-14.933l-50.133,171.733  L415.733,399.733z"/>
<polygon style="fill:#415A6B;" points="276,465.867 333.6,372 311.2,336.8 341.067,318.667 301.6,282.4 262.133,465.867 "/>
<polygon style="fill:#F3F3F3;" points="216.267,271.733 202.4,292 224.8,354.933 255.733,317.6 "/>
<path style="fill:#344A5E;" d="M246.133,465.867L196,294.133l-41.6,14.933c-27.733,9.6-48,34.133-53.333,61.867l-3.2,19.2  L246.133,465.867z"/>
<polygon style="fill:#415A6B;" points="177.867,372 235.467,465.867 249.333,465.867 208.8,282.4 170.4,318.667 200.267,336.8 "/>
<polygon style="fill:#F7B64C;" points="216.267,209.867 216.267,271.733 255.733,317.6 295.2,271.733 295.2,209.867 "/>
<g>
	<path style="fill:#FFD15C;" d="M299.467,146.933c-2.133-2.133-4.267-2.133-5.333-1.067c-10.667-11.733-23.467-19.2-38.4-19.2   c-13.867,0-26.667,6.4-37.333,17.067c-1.067,0-2.133,0-3.2,1.067c-10.667,8.533-21.333,16-22.4,30.933   c0,5.333,2.133,10.667,5.333,14.933c-1.067,4.267-1.067,9.6-1.067,14.933c0,42.667,26.667,77.867,58.667,77.867   c33.067,0,58.667-35.2,58.667-77.867c0-5.333,0-10.667-1.067-14.933C322.933,173.6,310.133,158.667,299.467,146.933z"/>
	
		<ellipse transform="matrix(0.1905 -0.9817 0.9817 0.1905 50.3756 478.6507)" style="fill:#FFD15C;" cx="315.419" cy="208.78" rx="18.134" ry="11.733"/>
	
		<ellipse transform="matrix(0.1905 0.9817 -0.9817 0.1905 361.3367 -21.9648)" style="fill:#FFD15C;" cx="193.987" cy="208.115" rx="18.134" ry="11.733"/>
</g>
<path style="fill:#415A6B;" d="M321.867,161.867c0,9.6-3.2,25.6-9.6,42.667l-1.067-38.4c0,0,0-18.133-21.333-6.4  c-20.267,6.4-42.667,7.467-69.333,0c-20.267-11.733-21.333,6.4-21.333,6.4l-1.067,38.4c-5.333-16-8.533-34.133-8.533-42.667  c0-26.667,29.867-48,66.133-48C292,113.867,321.867,135.2,321.867,161.867z"/>
<path style="fill:#66C6B9;" d="M442.4,77.6C388,63.733,304.8,21.067,270.667,4c-9.6-5.333-20.267-5.333-29.867,0  C206.667,21.067,123.467,63.733,69.067,77.6c-13.867,3.2-24.533,16-24.533,30.933v162.133c0,120.533,87.467,221.867,205.867,240  c3.2,0,7.467,0,10.667,0c118.4-18.133,205.867-120.533,205.867-240V109.6C465.867,94.667,456.267,81.867,442.4,77.6z   M412.533,270.667c0,92.8-66.133,171.733-157.867,187.733c-91.733-16-156.8-93.867-156.8-187.733V125.6  c51.2-16,116.267-48,156.8-69.333c41.6,21.333,105.6,53.333,157.867,69.333V270.667z"/>
<g>
</g>
<g>
</g>
<g>
</g>
<g>
</g>
<g>
</g>
<g>
</g>
<g>
</g>
<g>
</g>
<g>
</g>
<g>
</g>
<g>
</g>
<g>
</g>
<g>
</g>
<g>
</g>
<g>
</g>
</svg>
