<?xml version="1.0" encoding="iso-8859-1"?>
<!-- Generator: Adobe Illustrator 19.0.0, SVG Export Plug-In . SVG Version: 6.00 Build 0)  -->
<svg xmlns="http://www.w3.org/2000/svg" xmlns:xlink="http://www.w3.org/1999/xlink" version="1.1" id="Layer_1" x="0px" y="0px" viewBox="0 0 512 512" style="enable-background:new 0 0 512 512;" xml:space="preserve">
<path style="fill:#415A6B;" d="M405.333,230.4v83.2H384v-72.533H128V313.6h-21.333v-83.2c0-6.4,4.267-10.667,10.667-10.667h128  v-70.4h21.333V220.8h128C400,219.733,405.333,225.067,405.333,230.4z"/>
<path style="fill:#F3F3F3;" d="M490.667,0H21.333C9.6,0,0,9.6,0,21.333v123.733C0,156.8,9.6,166.4,21.333,166.4h469.333  c11.733,0,21.333-9.6,21.333-21.333V21.333C512,9.6,502.4,0,490.667,0z"/>
<circle style="fill:#F3705A;" cx="70.4" cy="83.2" r="27.733"/>
<circle style="fill:#8AD7F8;" cx="146.133" cy="83.2" r="27.733"/>
<g>
	<circle style="fill:#FFD15C;" cx="221.867" cy="83.2" r="27.733"/>
	<path style="fill:#FFD15C;" d="M512,413.867v-40.533l-29.867-9.6c-1.067-4.267-3.2-8.533-5.333-11.733l14.933-27.733L464,295.467   L436.267,310.4c-4.267-2.133-7.467-3.2-11.733-5.333l-9.6-29.867h-39.467l-9.6,29.867c-4.267,1.067-8.533,3.2-11.733,5.333   L326.4,295.467l-28.8,28.8L312.533,352c-2.133,4.267-3.2,7.467-5.333,11.733l-29.867,9.6v40.533l29.867,9.6   c1.067,4.267,3.2,8.533,5.333,11.733L297.6,462.933l28.8,28.8l27.733-14.933c4.267,2.133,7.467,3.2,11.733,5.333l9.6,29.867H416   l9.6-29.867c4.267-1.067,8.533-3.2,11.733-5.333l27.733,14.933l27.733-28.8L477.867,435.2c2.133-4.267,3.2-7.467,5.333-11.733   L512,413.867z M394.667,432c-20.267,0-37.333-17.067-37.333-37.333c0-20.267,17.067-37.333,37.333-37.333   c20.267,0,37.333,17.067,37.333,37.333C432,414.933,414.933,432,394.667,432z"/>
</g>
<path style="fill:#F7B64C;" d="M394.667,329.6c-36.267,0-65.067,28.8-65.067,65.067s28.8,65.067,65.067,65.067  s65.067-28.8,65.067-65.067C459.733,358.4,429.867,329.6,394.667,329.6z M394.667,432c-20.267,0-37.333-17.067-37.333-37.333  c0-20.267,17.067-37.333,37.333-37.333c20.267,0,37.333,17.067,37.333,37.333C432,414.933,414.933,432,394.667,432z"/>
<path style="fill:#8AD7F8;" d="M235.733,413.867v-40.533l-29.867-9.6c-1.067-4.267-3.2-8.533-5.333-11.733l14.933-27.733  l-27.733-28.8L160,310.4c-4.267-2.133-7.467-3.2-11.733-5.333l-9.6-29.867H98.133l-9.6,29.867c-4.267,1.067-8.533,3.2-11.733,5.333  l-27.733-14.933l-28.8,28.8L35.2,352c-2.133,4.267-3.2,7.467-5.333,11.733L0,374.4v40.533l29.867,9.6  c1.067,4.267,3.2,8.533,5.333,11.733L20.267,464l28.8,28.8L76.8,477.867c4.267,2.133,7.467,3.2,11.733,5.333l9.6,28.8h40.533  l9.6-29.867c4.267-1.067,8.533-3.2,11.733-5.333l27.733,14.933l27.733-28.8L200.533,435.2c2.133-4.267,3.2-7.467,5.333-11.733  L235.733,413.867z M117.333,432C97.067,432,80,414.933,80,394.667c0-20.267,17.067-37.333,37.333-37.333  s37.333,17.067,37.333,37.333C155.733,414.933,138.667,432,117.333,432z"/>
<path style="fill:#55C0EB;" d="M117.333,329.6c-36.267,0-65.067,28.8-65.067,65.067s28.8,65.067,65.067,65.067  s65.067-28.8,65.067-65.067C183.467,358.4,153.6,329.6,117.333,329.6z M117.333,432C97.067,432,80,414.933,80,394.667  c0-20.267,17.067-37.333,37.333-37.333s37.333,17.067,37.333,37.333C155.733,414.933,138.667,432,117.333,432z"/>
<g>
</g>
<g>
</g>
<g>
</g>
<g>
</g>
<g>
</g>
<g>
</g>
<g>
</g>
<g>
</g>
<g>
</g>
<g>
</g>
<g>
</g>
<g>
</g>
<g>
</g>
<g>
</g>
<g>
</g>
</svg>
