<?xml version="1.0" encoding="iso-8859-1"?>
<!-- Generator: Adobe Illustrator 19.0.0, SVG Export Plug-In . SVG Version: 6.00 Build 0)  -->
<svg xmlns="http://www.w3.org/2000/svg" xmlns:xlink="http://www.w3.org/1999/xlink" version="1.1" id="Layer_1" x="0px" y="0px" viewBox="0 0 483.175 483.175" style="enable-background:new 0 0 483.175 483.175;" xml:space="preserve">
<path style="fill:#F3F3F3;" d="M1.722,324.241l52.267-109.867c1.067-140.8,135.467-249.6,282.667-203.733  c88.533,26.667,146.133,110.933,146.133,203.733l0,0c0,43.733-12.8,84.267-35.2,118.4c-29.867,44.8-49.067,97.067-55.467,150.4  H130.789v-53.333h-44.8c-17.067,0-30.933-13.867-30.933-30.933v-54.4H14.522C3.856,343.441-2.544,332.775,1.722,324.241z"/>
<path style="fill:#F7B64C;" d="M375.056,264.508c0,25.6-22.4,45.867-51.2,45.867s-50.133-20.267-50.133-45.867H375.056z"/>
<path style="fill:#FFD15C;" d="M273.722,264.508c0,0,25.6-51.2,23.467-85.333h56.533c-2.133,34.133,23.467,85.333,23.467,85.333  H273.722z"/>
<circle style="fill:#F7B64C;" cx="324.922" cy="121.575" r="30.933"/>
<path style="fill:#FFD15C;" d="M364.389,135.441c0,25.6-18.133,46.933-39.467,46.933s-39.467-21.333-39.467-46.933H364.389z"/>
<path style="fill:#F7B64C;" d="M352.656,188.775h-56.533c-6.4,0-11.733-5.333-11.733-11.733l0,0c0-6.4,5.333-11.733,11.733-11.733  h56.533c6.4,0,11.733,5.333,11.733,11.733v1.067C364.389,184.508,359.056,188.775,352.656,188.775z"/>
<path style="fill:#FFD15C;" d="M373.989,316.775h-98.133c-8.533,0-14.933-6.4-14.933-14.933v-1.067  c0-8.533,6.4-14.933,14.933-14.933h98.133c8.533,0,14.933,6.4,14.933,14.933v1.067C388.922,309.308,381.456,316.775,373.989,316.775  z"/>
<path style="fill:#344A5E;" d="M231.056,293.308h-73.6c-12.8,0-22.4,9.6-22.4,22.4v1.067h119.467v-1.067  C253.456,302.908,243.856,293.308,231.056,293.308z"/>
<g>
	<path style="fill:#415A6B;" d="M223.589,156.775c0,29.867-12.8,53.333-29.867,53.333c-16,0-29.867-23.467-29.867-53.333h11.733   v12.8h12.8v-12.8h12.8v12.8h11.733v-12.8H223.589z"/>
	<path style="fill:#415A6B;" d="M229.989,293.308h-72.533c0,0,19.2-39.467,19.2-87.467h35.2   C211.856,252.775,229.989,293.308,229.989,293.308z"/>
</g>
<path style="fill:#344A5E;" d="M217.189,206.908h-46.933c-4.267,0-7.467-3.2-7.467-7.467l0,0c0-4.267,3.2-7.467,7.467-7.467h46.933  c4.267,0,7.467,3.2,7.467,7.467l0,0C225.722,202.641,221.456,206.908,217.189,206.908z"/>
<g>
</g>
<g>
</g>
<g>
</g>
<g>
</g>
<g>
</g>
<g>
</g>
<g>
</g>
<g>
</g>
<g>
</g>
<g>
</g>
<g>
</g>
<g>
</g>
<g>
</g>
<g>
</g>
<g>
</g>
</svg>
