<?xml version="1.0" encoding="iso-8859-1"?>
<!-- Generator: Adobe Illustrator 19.0.0, SVG Export Plug-In . SVG Version: 6.00 Build 0)  -->
<svg xmlns="http://www.w3.org/2000/svg" xmlns:xlink="http://www.w3.org/1999/xlink" version="1.1" id="Layer_1" x="0px" y="0px" viewBox="0 0 512 512" style="enable-background:new 0 0 512 512;" xml:space="preserve">
<path style="fill:#415A6B;" d="M380.267,512h-249.6c-18.133,0-32-13.867-32-32V32c0-18.133,13.867-32,32-32h250.667  c18.133,0,32,13.867,32,32v448C412.267,498.133,398.4,512,380.267,512z"/>
<rect x="98.667" y="62.933" style="fill:#E8EAE9;" width="314.667" height="355.2"/>
<path style="fill:#F3705A;" d="M125.333,379.733V332.8c0-6.4,5.333-11.733,11.733-11.733H184c6.4,0,11.733,5.333,11.733,11.733  v46.933c0,6.4-5.333,11.733-11.733,11.733h-46.933C130.667,391.467,125.333,386.133,125.333,379.733z"/>
<path style="fill:#66C6B9;" d="M220.267,379.733V332.8c0-6.4,5.333-11.733,11.733-11.733h46.933c6.4,0,11.733,5.333,11.733,11.733  v46.933c0,6.4-5.333,11.733-11.733,11.733H232C225.6,391.467,220.267,386.133,220.267,379.733z"/>
<path style="fill:#FFD15C;" d="M315.2,379.733V332.8c0-6.4,5.333-11.733,11.733-11.733h46.933c6.4,0,11.733,5.333,11.733,11.733  v46.933c0,6.4-5.333,11.733-11.733,11.733h-46.933C320.533,391.467,315.2,386.133,315.2,379.733z"/>
<circle style="fill:#344A5E;" cx="255.467" cy="465.067" r="25.6"/>
<path style="fill:#415A6B;" d="M309.867,224c4.267,0,7.467-3.2,10.667-9.6c3.2-6.4,4.267-14.933,4.267-24.533  c0-21.333-6.4-38.4-18.133-52.267c-11.733-13.867-28.8-21.333-49.067-21.333s-37.333,7.467-51.2,22.4  c-13.867,14.933-21.333,32-21.333,52.267s6.4,37.333,20.267,51.2C218.133,256,235.2,262.4,254.4,262.4  c14.933,0,28.8-5.333,40.533-17.067l9.6,16c-6.4,5.333-13.867,9.6-23.467,12.8c-9.6,3.2-18.133,5.333-26.667,5.333  c-25.6,0-45.867-8.533-62.933-25.6s-25.6-37.333-25.6-62.933S174.4,144,192.533,125.867S232,99.2,256.533,99.2  c25.6,0,45.867,8.533,62.933,25.6s25.6,38.4,25.6,64c0,17.067-3.2,29.867-10.667,39.467c-6.4,9.6-16,14.933-26.667,14.933  c-5.333,0-10.667-2.133-16-5.333c-4.267-3.2-8.533-7.467-9.6-12.8c-8.533,10.667-19.2,16-32,16s-23.467-5.333-33.067-14.933  S203.2,204.8,203.2,189.867s4.267-27.733,12.8-37.333c8.533-10.667,19.2-14.933,33.067-14.933c4.267,0,9.6,1.067,13.867,3.2  s7.467,4.267,8.533,6.4l3.2,3.2v-9.6H302.4v72.533C303.467,220.8,305.6,224,309.867,224z M275.733,189.867  c0-7.467-2.133-13.867-6.4-19.2s-9.6-7.467-16-7.467c-6.4,0-11.733,2.133-16,7.467C233.067,176,232,181.333,232,188.8  c0,7.467,2.133,13.867,5.333,19.2c4.267,5.333,8.533,8.533,16,8.533c6.4,0,11.733-2.133,16-7.467  C273.6,203.733,275.733,198.4,275.733,189.867z"/>
<path style="fill:#344A5E;" d="M283.2,38.4h-55.467c-4.267,0-7.467-3.2-7.467-7.467l0,0c0-4.267,3.2-7.467,7.467-7.467H283.2  c4.267,0,7.467,3.2,7.467,7.467l0,0C290.667,35.2,287.467,38.4,283.2,38.4z"/>
<g>
</g>
<g>
</g>
<g>
</g>
<g>
</g>
<g>
</g>
<g>
</g>
<g>
</g>
<g>
</g>
<g>
</g>
<g>
</g>
<g>
</g>
<g>
</g>
<g>
</g>
<g>
</g>
<g>
</g>
</svg>
