<?xml version="1.0" encoding="iso-8859-1"?>
<!-- Generator: Adobe Illustrator 19.0.0, SVG Export Plug-In . SVG Version: 6.00 Build 0)  -->
<svg xmlns="http://www.w3.org/2000/svg" xmlns:xlink="http://www.w3.org/1999/xlink" version="1.1" id="Layer_1" x="0px" y="0px" viewBox="0 0 512 512" style="enable-background:new 0 0 512 512;" xml:space="preserve">
<path style="fill:#F3F3F3;" d="M217.6,186.667V18.133H116.267V185.6C49.067,208,0,270.933,0,345.6C0,437.333,74.667,512,166.4,512  s166.4-74.667,166.4-166.4C333.867,270.933,284.8,208,217.6,186.667z"/>
<path style="fill:#8AD7F8;" d="M32,308.267C28.8,320,26.667,332.8,26.667,345.6c0,76.8,62.933,139.733,139.733,139.733  S306.133,422.4,306.133,345.6c0-12.8-2.133-25.6-5.333-37.333L32,308.267L32,308.267z"/>
<rect x="116.267" y="18.133" style="fill:#E8EAE9;" width="101.333" height="37.333"/>
<path style="fill:#F3F3F3;" d="M217.6,37.333H116.267c-10.667,0-19.2-8.533-19.2-18.133S105.6,0,116.267,0H217.6  c10.667,0,19.2,8.533,19.2,19.2S227.2,37.333,217.6,37.333z"/>
<g>
	<circle style="fill:#55C0EB;" cx="107.733" cy="394.667" r="30.933"/>
	<circle style="fill:#55C0EB;" cx="234.667" cy="357.333" r="21.333"/>
</g>
<circle style="fill:#8AD7F8;" cx="155.733" cy="247.467" r="17.067"/>
<path style="fill:#F3F3F3;" d="M488.533,449.067v-233.6H361.6v233.6c0,35.2,28.8,62.933,62.933,62.933l0,0  C459.733,512,488.533,483.2,488.533,449.067z"/>
<path style="fill:#F3705A;" d="M382.933,370.133V448c0,23.467,19.2,41.6,41.6,41.6c23.467,0,41.6-19.2,41.6-41.6v-77.867H382.933z"/>
<rect x="361.6" y="215.467" style="fill:#E8EAE9;" width="126.933" height="46.933"/>
<path style="fill:#F3F3F3;" d="M488.533,238.933H361.6c-12.8,0-23.467-10.667-23.467-23.467c0-12.8,10.667-23.467,23.467-23.467  h126.933c12.8,0,23.467,10.667,23.467,23.467C512,228.267,501.333,238.933,488.533,238.933z"/>
<circle style="fill:#F05540;" cx="414.933" cy="430.933" r="14.933"/>
<g>
	<circle style="fill:#F3705A;" cx="444.8" cy="326.4" r="14.933"/>
	<circle style="fill:#F3705A;" cx="407.467" cy="292.267" r="11.733"/>
</g>
<g>
</g>
<g>
</g>
<g>
</g>
<g>
</g>
<g>
</g>
<g>
</g>
<g>
</g>
<g>
</g>
<g>
</g>
<g>
</g>
<g>
</g>
<g>
</g>
<g>
</g>
<g>
</g>
<g>
</g>
</svg>
