<?xml version="1.0" encoding="iso-8859-1"?>
<!-- Generator: Adobe Illustrator 19.0.0, SVG Export Plug-In . SVG Version: 6.00 Build 0)  -->
<svg xmlns="http://www.w3.org/2000/svg" xmlns:xlink="http://www.w3.org/1999/xlink" version="1.1" id="Layer_1" x="0px" y="0px" viewBox="0 0 512 512" style="enable-background:new 0 0 512 512;" xml:space="preserve">
<path style="fill:#415A6B;" d="M372.8,512H32.533c-18.133,0-32-13.867-32-32V92.8c0-18.133,13.867-32,32-32H372.8  c18.133,0,32,13.867,32,32V480C404.8,498.133,389.867,512,372.8,512z"/>
<rect x="46.4" y="106.667" style="fill:#FFFFFF;" width="311.467" height="359.467"/>
<path style="fill:#E8EAE9;" d="M169.067,420.267h-73.6c-5.333,0-9.6-4.267-9.6-8.533v-74.667c0-4.267,4.267-8.533,8.533-8.533H168  c4.267,0,8.533,4.267,8.533,8.533v74.667C177.6,416,173.333,420.267,169.067,420.267z M104,403.2h56.533v-57.6H104V403.2z"/>
<g>
	<rect x="208.533" y="386.133" style="fill:#CED6E0;" width="53.333" height="23.467"/>
	<rect x="208.533" y="339.2" style="fill:#CED6E0;" width="106.667" height="23.467"/>
</g>
<path style="fill:#66C6B9;" d="M131.733,401.067c-2.133,0-4.267-1.067-6.4-2.133L94.4,368c-3.2-3.2-3.2-8.533,0-11.733  c3.2-3.2,8.533-3.2,11.733,0l22.4,22.4c11.733-20.267,30.933-38.4,60.8-55.467c4.267-2.133,9.6-1.067,11.733,3.2  s1.067,9.6-3.2,11.733c-30.933,18.133-50.133,36.267-58.667,57.6c-1.067,2.133-3.2,4.267-6.4,5.333  C132.8,401.067,131.733,401.067,131.733,401.067z"/>
<path style="fill:#E8EAE9;" d="M169.067,272h-73.6c-4.267,0-8.533-4.267-8.533-8.533V188.8c0-4.267,4.267-8.533,8.533-8.533h73.6  c4.267,0,8.533,4.267,8.533,8.533v74.667C177.6,268.8,173.333,272,169.067,272z M104,254.933h56.533v-57.6H104V254.933z"/>
<g>
	<rect x="208.533" y="237.867" style="fill:#CED6E0;" width="53.333" height="23.467"/>
	<rect x="208.533" y="192" style="fill:#CED6E0;" width="106.667" height="23.467"/>
</g>
<path style="fill:#66C6B9;" d="M131.733,252.8c-2.133,0-4.267-1.067-6.4-2.133L94.4,219.733c-3.2-3.2-3.2-8.533,0-11.733  c3.2-3.2,8.533-3.2,11.733,0l22.4,22.4c11.733-20.267,30.933-38.4,60.8-55.467c4.267-2.133,9.6-1.067,11.733,3.2  s1.067,9.6-3.2,11.733c-30.933,18.133-50.133,36.267-58.667,57.6c-1.067,2.133-3.2,4.267-6.4,5.333  C132.8,252.8,131.733,252.8,131.733,252.8z"/>
<path style="fill:#F3705A;" d="M261.867,41.6h-16C244.8,19.2,226.667,0,203.2,0s-41.6,18.133-42.667,41.6h-16  c-21.333,0-38.4,17.067-38.4,38.4v42.667h195.2V80C300.267,58.667,283.2,41.6,261.867,41.6z M202.133,49.067  c-6.4,0-11.733-5.333-11.733-11.733S195.733,25.6,202.133,25.6s11.733,5.333,11.733,11.733S208.533,49.067,202.133,49.067z"/>
<path style="fill:#FFD15C;" d="M384.533,428.8v-34.133l-25.6-7.467c-1.067-3.2-2.133-7.467-4.267-10.667l12.8-23.467L344,329.6  l-23.467,12.8c-3.2-2.133-6.4-3.2-10.667-4.267l-7.467-25.6h-34.133l-7.467,25.6c-3.2,1.067-7.467,2.133-10.667,4.267l-23.467-12.8  L203.2,353.067l12.8,23.467c-2.133,3.2-3.2,6.4-4.267,10.667l-25.6,7.467V428.8l25.6,7.467c1.067,3.2,2.133,6.4,4.267,10.667  L203.2,470.4l23.467,23.467l23.467-12.8c3.2,2.133,6.4,3.2,10.667,4.267l7.467,25.6H302.4l7.467-25.6  c3.2-1.067,7.467-2.133,10.667-4.267l23.467,12.8l23.467-23.467l-12.8-23.467c2.133-3.2,3.2-6.4,4.267-10.667L384.533,428.8z   M285.333,437.333c-13.867,0-24.533-10.667-24.533-24.533s10.667-24.533,24.533-24.533c13.867,0,24.533,10.667,24.533,24.533  C309.867,425.6,299.2,437.333,285.333,437.333z"/>
<path style="fill:#F7B64C;" d="M285.333,360.533c-28.8,0-51.2,23.467-51.2,51.2c0,28.8,23.467,51.2,51.2,51.2  c28.8,0,51.2-23.467,51.2-51.2C336.533,384,313.067,360.533,285.333,360.533z M285.333,437.333  c-13.867,0-24.533-10.667-24.533-24.533s10.667-24.533,24.533-24.533c13.867,0,24.533,10.667,24.533,24.533  C309.867,425.6,299.2,437.333,285.333,437.333z"/>
<path style="fill:#8AD7F8;" d="M477.333,388.267l19.2-18.133l-9.6-19.2c1.067-2.133,2.133-5.333,3.2-7.467l20.267-5.333  l1.067-26.667l-20.267-6.4c-1.067-3.2-2.133-5.333-3.2-8.533l10.667-18.133l-18.133-19.2l-18.133,7.467  c-2.133-1.067-5.333-2.133-8.533-3.2l-5.333-21.333l-26.667-1.067l-6.4,20.267c-3.2,1.067-5.333,2.133-8.533,3.2L388.8,253.867  L369.6,272l9.6,19.2c-1.067,2.133-2.133,5.333-3.2,7.467L355.733,304l-1.067,26.667l20.267,6.4c1.067,3.2,2.133,5.333,3.2,8.533  l-10.667,18.133l18.133,19.2l19.2-9.6c2.133,1.067,5.333,2.133,7.467,3.2L417.6,396.8l26.667,1.067l6.4-20.267  c3.2-1.067,5.333-2.133,8.533-3.2L477.333,388.267z M418.667,334.933c-7.467-7.467-7.467-20.267,1.067-27.733  c7.467-7.467,20.267-7.467,27.733,1.067c7.467,7.467,7.467,20.267-1.067,27.733C438.933,343.467,426.133,342.4,418.667,334.933z"/>
<path style="fill:#55C0EB;" d="M462.4,293.333c-14.933-16-41.6-17.067-57.6-2.133c-16,14.933-17.067,41.6-2.133,57.6  c14.933,16,41.6,17.067,57.6,2.133C477.333,334.933,478.4,309.333,462.4,293.333z M418.667,334.933  c-7.467-7.467-7.467-20.267,1.067-27.733c7.467-7.467,20.267-7.467,27.733,1.067c7.467,8.533,7.467,20.267-1.067,27.733  C438.933,343.467,426.133,342.4,418.667,334.933z"/>
<g>
</g>
<g>
</g>
<g>
</g>
<g>
</g>
<g>
</g>
<g>
</g>
<g>
</g>
<g>
</g>
<g>
</g>
<g>
</g>
<g>
</g>
<g>
</g>
<g>
</g>
<g>
</g>
<g>
</g>
</svg>
