<?xml version="1.0" encoding="iso-8859-1"?>
<!-- Generator: Adobe Illustrator 19.0.0, SVG Export Plug-In . SVG Version: 6.00 Build 0)  -->
<svg xmlns="http://www.w3.org/2000/svg" xmlns:xlink="http://www.w3.org/1999/xlink" version="1.1" id="Layer_1" x="0px" y="0px" viewBox="0 0 512 512" style="enable-background:new 0 0 512 512;" xml:space="preserve">
<path style="fill:#E8EAE9;" d="M394.667,426.667H32c-18.133,0-32-13.867-32-32V32C0,13.867,13.867,0,32,0h362.667  c18.133,0,32,13.867,32,32v362.667C426.667,412.8,412.8,426.667,394.667,426.667z"/>
<rect x="35.2" y="107.733" style="fill:#FFFFFF;" width="355.2" height="283.733"/>
<g>
	<rect x="71.467" y="150.4" style="fill:#CED6E0;" width="284.8" height="20.267"/>
	<rect x="71.467" y="210.133" style="fill:#CED6E0;" width="105.6" height="19.2"/>
	<rect x="71.467" y="268.8" style="fill:#CED6E0;" width="105.6" height="19.2"/>
	<rect x="71.467" y="328.533" style="fill:#CED6E0;" width="105.6" height="20.267"/>
</g>
<circle style="fill:#FFD15C;" cx="57.6" cy="53.333" r="21.333"/>
<circle style="fill:#8AD7F8;" cx="118.4" cy="53.333" r="21.333"/>
<circle style="fill:#F3705A;" cx="180.267" cy="53.333" r="21.333"/>
<rect x="358.375" y="363.691" transform="matrix(-0.7071 0.7071 -0.7071 -0.7071 938.5721 388.7454)" style="fill:#344A5E;" width="60.799" height="50.133"/>
<path style="fill:#F3705A;" d="M381.867,443.733l55.467,55.467c17.067,17.067,44.8,17.067,61.867,0s17.067-44.8,0-61.867  l-55.467-55.467L381.867,443.733z"/>
<rect x="409.813" y="377.179" transform="matrix(0.7071 0.7071 -0.7071 0.7071 420.7856 -174.0419)" style="fill:#F05540;" width="21.333" height="87.466"/>
<path style="fill:#F3705A;" d="M446.933,385.067l-61.867,61.867c-5.333,5.333-13.867,5.333-20.267,0  c-5.333-5.333-5.333-13.867,0-20.267l61.867-61.867c5.333-5.333,13.867-5.333,20.267,0  C452.267,371.2,452.267,379.733,446.933,385.067z"/>
<circle style="fill:#FFFFFF;" cx="283.733" cy="283.733" r="123.733"/>
<g>
	<rect x="173.867" y="203.733" style="fill:#CED6E0;" width="181.333" height="32"/>
	<rect x="173.867" y="263.467" style="fill:#CED6E0;" width="181.333" height="32"/>
	<rect x="173.867" y="322.133" style="fill:#CED6E0;" width="181.333" height="32"/>
</g>
<path style="fill:#415A6B;" d="M382.933,382.933c-54.4,54.4-144,54.4-198.4,0s-54.4-144,0-198.4s144-54.4,198.4,0  C438.4,240,438.4,328.533,382.933,382.933z M209.067,209.067c-41.6,41.6-41.6,108.8,0,150.4s108.8,41.6,150.4,0s41.6-108.8,0-150.4  S250.667,167.467,209.067,209.067z"/>
<g>
</g>
<g>
</g>
<g>
</g>
<g>
</g>
<g>
</g>
<g>
</g>
<g>
</g>
<g>
</g>
<g>
</g>
<g>
</g>
<g>
</g>
<g>
</g>
<g>
</g>
<g>
</g>
<g>
</g>
</svg>
