<?xml version="1.0" encoding="iso-8859-1"?>
<!-- Generator: Adobe Illustrator 19.0.0, SVG Export Plug-In . SVG Version: 6.00 Build 0)  -->
<svg xmlns="http://www.w3.org/2000/svg" xmlns:xlink="http://www.w3.org/1999/xlink" version="1.1" id="Layer_1" x="0px" y="0px" viewBox="0 0 510.933 510.933" style="enable-background:new 0 0 510.933 510.933;" xml:space="preserve">
<path style="fill:#F3F3F3;" d="M444.171,0H68.704c-19.2,0-35.2,16-35.2,34.133V476.8c0,19.2,16,34.133,34.133,34.133h375.467  c19.2,0,34.133-16,34.133-34.133V34.133C479.371,16,463.371,0,444.171,0z"/>
<g>
	<rect x="218.038" y="414.933" style="fill:#CED6E0;" width="164.267" height="22.4"/>
	<rect x="218.038" y="363.733" style="fill:#CED6E0;" width="214.4" height="22.4"/>
</g>
<polygon style="fill:#F3705A;" points="139.104,344.533 157.238,381.867 197.771,387.2 167.904,416 175.371,456.533   139.104,437.333 102.838,456.533 109.238,416 80.438,387.2 120.971,381.867 "/>
<g>
	<rect x="218.038" y="270.933" style="fill:#CED6E0;" width="164.267" height="22.4"/>
	<rect x="218.038" y="218.667" style="fill:#CED6E0;" width="214.4" height="22.4"/>
</g>
<polygon style="fill:#F3705A;" points="139.104,200.533 157.238,236.8 197.771,243.2 167.904,270.933 175.371,311.467   139.104,292.267 102.838,311.467 109.238,270.933 80.438,243.2 120.971,236.8 "/>
<g>
	<rect x="218.038" y="125.867" style="fill:#CED6E0;" width="164.267" height="22.4"/>
	<rect x="218.038" y="74.667" style="fill:#CED6E0;" width="214.4" height="22.4"/>
</g>
<polygon style="fill:#F3705A;" points="139.104,55.467 157.238,92.8 197.771,98.133 167.904,126.933 175.371,167.467   139.104,148.267 102.838,167.467 109.238,126.933 80.438,98.133 120.971,92.8 "/>
<g>
</g>
<g>
</g>
<g>
</g>
<g>
</g>
<g>
</g>
<g>
</g>
<g>
</g>
<g>
</g>
<g>
</g>
<g>
</g>
<g>
</g>
<g>
</g>
<g>
</g>
<g>
</g>
<g>
</g>
</svg>
