<?xml version="1.0" encoding="iso-8859-1"?>
<!-- Generator: Adobe Illustrator 19.0.0, SVG Export Plug-In . SVG Version: 6.00 Build 0)  -->
<svg xmlns="http://www.w3.org/2000/svg" xmlns:xlink="http://www.w3.org/1999/xlink" version="1.1" id="Layer_1" x="0px" y="0px" viewBox="0 0 512 512" style="enable-background:new 0 0 512 512;" xml:space="preserve">
<path style="fill:#8AD7F8;" d="M429.867,222.933L457.6,211.2l-3.2-28.8c5.333-4.267,10.667-9.6,14.933-16l28.8,2.133l11.733-28.8  l-22.4-18.133c1.067-7.467,1.067-14.933,0-22.4L512,82.133l-11.733-28.8l-28.8,3.2c-4.267-6.4-9.6-10.667-16-16l3.2-28.8L429.867,0  l-19.2,22.4c-7.467-1.067-14.933-1.067-21.333,0L371.2,0l-27.733,11.733l2.133,28.8c-5.333,4.267-10.667,9.6-14.933,14.933  L300.8,53.333l-11.733,27.733l22.4,18.133c-1.067,7.467-1.067,14.933,0,22.4l-22.4,19.2l11.733,27.733l28.8-3.2  c4.267,6.4,9.6,10.667,16,16l-2.133,28.8l27.733,11.733l19.2-22.4c7.467,1.067,14.933,1.067,21.333,0L429.867,222.933z   M365.867,125.867c-8.533-19.2,1.067-41.6,20.267-49.067c19.2-8.533,41.6,1.067,49.067,20.267c8.533,19.2-1.067,41.6-20.267,49.067  C395.733,154.667,373.333,145.067,365.867,125.867z"/>
<path style="fill:#55C0EB;" d="M377.6,55.467c-30.933,12.8-45.867,48-33.067,78.933c12.8,30.933,48,45.867,78.933,33.067  c30.933-12.8,45.867-48,33.067-78.933C443.733,57.6,408.533,42.667,377.6,55.467z M414.933,146.133  c-19.2,8.533-41.6-1.067-49.067-20.267c-8.533-19.2,1.067-41.6,20.267-49.067c19.2-8.533,41.6,1.067,49.067,20.267  C443.733,116.267,434.133,138.667,414.933,146.133z"/>
<path style="fill:#415A6B;" d="M366.933,353.067V304l-44.8-13.867c-3.2-11.733-7.467-22.4-13.867-32l21.333-41.6l-34.133-35.2  l-41.6,21.333C243.2,197.333,232.533,192,220.8,188.8L206.933,144h-49.067L144,188.8c-11.733,3.2-22.4,7.467-33.067,13.867  l-41.6-21.333l-35.2,35.2l21.333,41.6c-5.333,9.6-10.667,21.333-13.867,32L0,304v49.067l44.8,13.867  c3.2,11.733,7.467,22.4,13.867,32l-21.333,41.6l35.2,34.133l41.6-21.333C124.8,458.667,135.467,464,147.2,467.2l13.867,44.8h49.067  L224,467.2c11.733-3.2,22.4-7.467,33.067-13.867l41.6,21.333l35.2-34.133l-21.333-41.6c5.333-9.6,10.667-21.333,13.867-32  L366.933,353.067z M183.467,384C152.533,384,128,359.467,128,328.533s24.533-55.467,55.467-55.467s55.467,24.533,55.467,55.467  C238.933,359.467,214.4,384,183.467,384z"/>
<path style="fill:#344A5E;" d="M183.467,237.867c-50.133,0-90.667,40.533-90.667,90.667s40.533,90.667,90.667,90.667  s90.667-40.533,90.667-90.667C274.133,278.4,233.6,237.867,183.467,237.867z M183.467,384C152.533,384,128,359.467,128,328.533  s24.533-55.467,55.467-55.467s55.467,24.533,55.467,55.467C238.933,359.467,214.4,384,183.467,384z"/>
<circle style="fill:#F3F3F3;" cx="372.267" cy="372.267" r="123.733"/>
<path style="fill:#F3705A;" d="M372.267,512c-76.8,0-139.733-62.933-139.733-139.733s62.933-139.733,139.733-139.733  S512,296.533,512,372.267S449.067,512,372.267,512z M372.267,265.6c-58.667,0-107.733,48-107.733,107.733S313.6,480,372.267,480  S480,432,480,372.267S432,265.6,372.267,265.6z"/>
<path style="fill:#66C6B9;" d="M442.667,325.333c-5.333-5.333-13.867-5.333-19.2,0l-72.533,72.533L323.2,370.133  c-5.333-5.333-13.867-5.333-19.2,0l0,0c-5.333,5.333-5.333,13.867,0,19.2l37.333,37.333c5.333,5.333,13.867,5.333,19.2,0l83.2-83.2  C448,339.2,448,330.667,442.667,325.333z"/>
<g>
</g>
<g>
</g>
<g>
</g>
<g>
</g>
<g>
</g>
<g>
</g>
<g>
</g>
<g>
</g>
<g>
</g>
<g>
</g>
<g>
</g>
<g>
</g>
<g>
</g>
<g>
</g>
<g>
</g>
</svg>
