<?xml version="1.0" encoding="iso-8859-1"?>
<!-- Generator: Adobe Illustrator 19.0.0, SVG Export Plug-In . SVG Version: 6.00 Build 0)  -->
<svg xmlns="http://www.w3.org/2000/svg" xmlns:xlink="http://www.w3.org/1999/xlink" version="1.1" id="Layer_1" x="0px" y="0px" viewBox="0 0 513.067 513.067" style="enable-background:new 0 0 513.067 513.067;" xml:space="preserve">
<path style="fill:#415A6B;" d="M512,289.067v-67.2L449.067,211.2c-5.333-22.4-13.867-43.733-25.6-61.867l37.333-51.2L413.867,51.2  l-51.2,37.333c-19.2-11.733-39.467-20.267-61.867-25.6L290.133,0h-67.2l-10.667,62.933c-22.4,5.333-43.733,13.867-61.867,25.6  L98.133,51.2L51.2,98.133l37.333,51.2c-11.733,19.2-21.333,39.467-25.6,62.933L1.067,222.933v67.2L62.933,300.8  c5.333,22.4,13.867,43.733,25.6,62.933l-37.333,51.2l46.933,46.933l51.2-37.333c19.2,11.733,39.467,21.333,61.867,25.6  l10.667,62.933h67.2l10.667-62.933c22.4-5.333,43.733-13.867,61.867-25.6l51.2,37.333l46.933-46.933l-37.333-51.2  c11.733-19.2,20.267-39.467,25.6-61.867L512,289.067z M256,388.267c-73.6,0-132.267-59.733-132.267-132.267  S182.4,123.733,256,123.733S388.267,182.4,388.267,256S329.6,388.267,256,388.267z"/>
<path style="fill:#FFD15C;" d="M256,388.267c-73.6,0-133.333-59.733-133.333-132.267S182.4,122.667,256,122.667  S388.267,182.4,388.267,256S329.6,388.267,256,388.267z"/>
<path style="fill:#FFFFFF;" d="M388.267,256c-73.6,102.4-192,102.4-265.6,0C196.267,153.6,315.733,153.6,388.267,256z"/>
<circle style="fill:#8AD7F8;" cx="256" cy="256" r="52.267"/>
<circle style="fill:#415A6B;" cx="256" cy="256" r="19.2"/>
<g>
	<circle style="fill:#FFFFFF;" cx="267.733" cy="243.2" r="8.533"/>
	<circle style="fill:#FFFFFF;" cx="282.667" cy="228.267" r="5.333"/>
</g>
<g>
</g>
<g>
</g>
<g>
</g>
<g>
</g>
<g>
</g>
<g>
</g>
<g>
</g>
<g>
</g>
<g>
</g>
<g>
</g>
<g>
</g>
<g>
</g>
<g>
</g>
<g>
</g>
<g>
</g>
</svg>
