<?xml version="1.0" encoding="iso-8859-1"?>
<!-- Generator: Adobe Illustrator 19.0.0, SVG Export Plug-In . SVG Version: 6.00 Build 0)  -->
<svg xmlns="http://www.w3.org/2000/svg" xmlns:xlink="http://www.w3.org/1999/xlink" version="1.1" id="Layer_1" x="0px" y="0px" viewBox="0 0 510.933 510.933" style="enable-background:new 0 0 510.933 510.933;" xml:space="preserve">
<g>
	
		<ellipse transform="matrix(0.1752 -0.9845 0.9845 0.1752 41.1159 475.7711)" style="fill:#FFD15C;" cx="304.515" cy="213.346" rx="15.999" ry="8.533"/>
	
		<ellipse transform="matrix(0.1752 0.9845 -0.9845 0.1752 382.3293 -29.785)" style="fill:#FFD15C;" cx="208.941" cy="213.295" rx="15.999" ry="8.533"/>
</g>
<path style="fill:#415A6B;" d="M313.067,170.667c0,25.6-16,77.867-56.533,77.867S200,195.2,200,170.667s25.6-45.867,56.533-45.867  C288.533,125.867,313.067,146.133,313.067,170.667z"/>
<path style="fill:#E8EAE9;" d="M342.933,299.733c-7.467-3.2-14.933-6.4-22.4-8.533h-128c-7.467,2.133-14.933,5.333-22.4,8.533  c-12.8,6.4-23.467,17.067-29.867,28.8c26.667,35.2,68.267,57.6,115.2,57.6s89.6-22.4,115.2-57.6  C365.333,316.8,355.733,306.133,342.933,299.733z"/>
<path style="fill:#F7B64C;" d="M226.667,256v11.733c6.4,11.733,17.067,19.2,29.867,21.333c11.733-2.133,22.4-10.667,29.867-21.333  V256H226.667z"/>
<g>
	<path style="fill:#8AD7F8;" d="M265.067,323.2l8.533-13.867c0,0-10.667-19.2-17.067-19.2c-6.4,0-17.067,19.2-17.067,19.2L248,323.2   H265.067z"/>
	<path style="fill:#8AD7F8;" d="M233.067,384c7.467,1.067,14.933,2.133,23.467,2.133c8.533,0,16-1.067,23.467-2.133l-14.933-61.867   H248L233.067,384z"/>
</g>
<g>
	<path style="fill:#344A5E;" d="M342.933,299.733C328,292.267,313.067,288,297.067,284.8L267.2,386.133   c42.667-3.2,80-24.533,104.533-57.6C365.333,316.8,355.733,306.133,342.933,299.733z"/>
	<path style="fill:#344A5E;" d="M216,284.8c-16,3.2-30.933,8.533-45.867,14.933c-12.8,6.4-23.467,17.067-29.867,28.8   c24.533,32,61.867,53.333,104.533,56.533L216,284.8z"/>
</g>
<path style="fill:#FFD15C;" d="M257.6,163.2c-9.6,0-18.133-1.067-26.667-3.2c-9.6-2.133-19.2,4.267-21.333,14.933  c-1.067,6.4-2.133,13.867-2.133,21.333c0,42.667,21.333,76.8,48,76.8c26.667,0,48-34.133,48-76.8c0-7.467-1.067-13.867-2.133-21.333  c-2.133-9.6-10.667-16-20.267-13.867C274.667,162.133,266.133,163.2,257.6,163.2z"/>
<g>
	<path style="fill:#F3F3F3;" d="M286.4,265.6c-7.467,11.733-29.867,24.533-29.867,24.533s19.2,26.667,22.4,35.2L296,285.867   L286.4,265.6z"/>
	<path style="fill:#F3F3F3;" d="M226.667,265.6c7.467,11.733,29.867,23.467,29.867,23.467s-19.2,26.667-22.4,35.2L217.067,284.8   L226.667,265.6z"/>
</g>
<g>
	<path style="fill:#415A6B;" d="M221.333,276.267l-32,29.867l23.467,12.8L191.467,332.8l37.333,50.133   c6.4,1.067,12.8,2.133,19.2,2.133L221.333,276.267z"/>
	<path style="fill:#415A6B;" d="M291.733,276.267l-26.667,109.867c6.4,0,12.8-1.067,19.2-2.133l37.333-50.133L300.267,320   l23.467-12.8L291.733,276.267z"/>
</g>
<path style="fill:#F3705A;" d="M497.6,241.067h-17.067c-8.533-112-97.067-200.533-209.067-208V14.933  C271.467,6.4,265.067,0,256.533,0S241.6,6.4,241.6,14.933V32c-112,8.533-200.533,97.067-208,209.067H15.467  c-8.533,0-14.933,6.4-14.933,14.933s6.4,14.933,14.933,14.933h17.067c7.467,112,97.067,200.533,208,208V496  c0,8.533,6.4,14.933,14.933,14.933S270.4,504.533,270.4,496v-17.067c112-7.467,200.533-97.067,208-208h17.067  c8.533,0,14.933-6.4,14.933-14.933S506.133,241.067,497.6,241.067z M271.467,439.467V422.4c0-8.533-6.4-14.933-14.933-14.933  s-14.933,6.4-14.933,14.933v17.067C152,432,81.6,360.533,74.133,272H91.2c8.533,0,14.933-6.4,14.933-14.933  s-6.4-14.933-14.933-14.933H73.067c7.467-89.6,78.933-160,167.467-167.467v17.067c0,8.533,6.4,14.933,14.933,14.933  s14.933-6.4,14.933-14.933v-19.2C360,80,430.4,151.467,437.867,240H420.8c-8.533,0-14.933,6.4-14.933,14.933  c0,8.533,6.4,14.933,14.933,14.933h17.067C432.533,360.533,361.067,432,271.467,439.467z"/>
<g>
</g>
<g>
</g>
<g>
</g>
<g>
</g>
<g>
</g>
<g>
</g>
<g>
</g>
<g>
</g>
<g>
</g>
<g>
</g>
<g>
</g>
<g>
</g>
<g>
</g>
<g>
</g>
<g>
</g>
</svg>
