<?xml version="1.0" encoding="iso-8859-1"?>
<!-- Generator: Adobe Illustrator 19.0.0, SVG Export Plug-In . SVG Version: 6.00 Build 0)  -->
<svg xmlns="http://www.w3.org/2000/svg" xmlns:xlink="http://www.w3.org/1999/xlink" version="1.1" id="Layer_1" x="0px" y="0px" viewBox="0 0 513.067 513.067" style="enable-background:new 0 0 513.067 513.067;" xml:space="preserve">
<path style="fill:#66C6B9;" d="M330.933,512.533H32.267c-18.133,0-32-13.867-32-32v-390.4c0-18.133,13.867-32,32-32h298.667  c18.133,0,32,13.867,32,32v390.4C362.933,498.667,349.067,512.533,330.933,512.533z"/>
<rect x="39.733" y="97.6" style="fill:#FFFFFF;" width="283.733" height="374.4"/>
<path style="fill:#415A6B;" d="M220,43.2c1.067-11.733-2.133-23.467-10.667-32c-14.933-14.933-39.467-14.933-54.4,0  c-8.533,8.533-11.733,20.267-10.667,32C104.8,51.733,85.6,76.267,84.533,108.267h195.2C278.667,76.267,259.467,51.733,220,43.2z   M167.733,38.933c0-7.467,6.4-13.867,13.867-13.867s13.867,6.4,13.867,13.867S189.067,52.8,181.6,52.8  C174.133,52.8,167.733,46.4,167.733,38.933z"/>
<path style="fill:#E8EAE9;" d="M135.733,443.2H79.2c-3.2,0-6.4-3.2-6.4-6.4v-57.6c0-3.2,3.2-6.4,6.4-6.4h56.533  c3.2,0,6.4,3.2,6.4,6.4v57.6C143.2,440,140,443.2,135.733,443.2z M88.8,427.2h38.4v-38.4H88.8V427.2z"/>
<g>
	<rect x="167.733" y="416.533" style="fill:#CED6E0;" width="123.733" height="18.133"/>
	<rect x="167.733" y="380.267" style="fill:#CED6E0;" width="123.733" height="18.133"/>
</g>
<polygon style="fill:#F3705A;" points="102.667,435.733 70.667,403.733 79.2,395.2 102.667,417.6 147.467,372.8 156,381.333 "/>
<path style="fill:#E8EAE9;" d="M135.733,333.333H79.2c-3.2,0-6.4-3.2-6.4-6.4v-57.6c0-3.2,3.2-6.4,6.4-6.4h56.533  c3.2,0,6.4,3.2,6.4,6.4v57.6C143.2,331.2,140,333.333,135.733,333.333z M88.8,317.333h38.4v-38.4H88.8V317.333z"/>
<g>
	<rect x="167.733" y="307.733" style="fill:#CED6E0;" width="123.733" height="18.133"/>
	<rect x="167.733" y="271.467" style="fill:#CED6E0;" width="123.733" height="18.133"/>
</g>
<polygon style="fill:#F3705A;" points="102.667,326.933 70.667,294.933 79.2,286.4 102.667,308.8 147.467,264 156,272.533 "/>
<path style="fill:#E8EAE9;" d="M135.733,224.533H79.2c-3.2,0-6.4-3.2-6.4-6.4v-57.6c0-3.2,3.2-6.4,6.4-6.4h56.533  c3.2,0,6.4,3.2,6.4,6.4v57.6C143.2,221.333,140,224.533,135.733,224.533z M88.8,208.533h38.4v-38.4H88.8V208.533z"/>
<g>
	<rect x="167.733" y="197.867" style="fill:#CED6E0;" width="123.733" height="18.133"/>
	<rect x="167.733" y="162.667" style="fill:#CED6E0;" width="123.733" height="18.133"/>
</g>
<polygon style="fill:#F3705A;" points="102.667,217.067 70.667,186.133 79.2,176.533 102.667,200 147.467,155.2 156,163.733 "/>
<rect x="377.62" y="382.226" transform="matrix(-0.7071 0.7071 -0.7071 -0.7071 975.8959 403.955)" style="fill:#344A5E;" width="53.333" height="43.733"/>
<path style="fill:#F3705A;" d="M398.133,452.8l49.067,49.067c14.933,14.933,39.467,14.933,54.4,0  c14.933-14.933,14.933-39.467,0-54.4L452.533,398.4L398.133,452.8z"/>
<rect x="423.353" y="394.03" transform="matrix(0.7071 0.7071 -0.7071 0.7071 432.4266 -179.1113)" style="fill:#F05540;" width="18.133" height="76.799"/>
<path style="fill:#F3705A;" d="M455.733,401.6l-54.4,54.4c-5.333,5.333-12.8,5.333-17.067,0c-5.333-5.333-5.333-12.8,0-17.067  l53.333-54.4c5.333-5.333,12.8-5.333,17.067,0C458.933,389.867,460,396.267,455.733,401.6z"/>
<circle style="fill:#FFFFFF;" cx="312.8" cy="313.067" r="107.733"/>
<path style="fill:#415A6B;" d="M399.2,399.467c-48,48-125.867,48-173.867,0s-48-125.867,0-173.867s125.867-48,173.867,0  S447.2,351.467,399.2,399.467z M246.667,246.933c-36.267,36.267-36.267,96,0,132.267s96,36.267,132.267,0s36.267-96,0-132.267  S282.933,210.667,246.667,246.933z"/>
<g>
	<circle style="fill:#FFD15C;" cx="312.8" cy="366.4" r="17.067"/>
	<path style="fill:#FFD15C;" d="M355.467,280c0-11.733-4.267-21.333-11.733-27.733c-7.467-6.4-17.067-9.6-29.867-9.6   c-11.733,0-22.4,3.2-30.933,10.667s-12.8,18.133-13.867,30.933H300c0-5.333,2.133-8.533,4.267-11.733s5.333-4.267,8.533-4.267   c3.2,0,6.4,1.067,8.533,3.2s3.2,5.333,3.2,9.6c0,3.2-1.067,6.4-3.2,9.6l-12.8,13.867c-4.267,4.267-7.467,8.533-8.533,10.667   c-1.067,3.2-2.133,6.4-2.133,11.733v14.933h29.867c0,0,0,0,0-11.733s9.6-17.067,9.6-17.067   C356.533,297.067,355.467,280,355.467,280z"/>
</g>
<g>
</g>
<g>
</g>
<g>
</g>
<g>
</g>
<g>
</g>
<g>
</g>
<g>
</g>
<g>
</g>
<g>
</g>
<g>
</g>
<g>
</g>
<g>
</g>
<g>
</g>
<g>
</g>
<g>
</g>
</svg>
