<?xml version="1.0" encoding="iso-8859-1"?>
<!-- Generator: Adobe Illustrator 19.0.0, SVG Export Plug-In . SVG Version: 6.00 Build 0)  -->
<svg xmlns="http://www.w3.org/2000/svg" xmlns:xlink="http://www.w3.org/1999/xlink" version="1.1" id="Layer_1" x="0px" y="0px" viewBox="0 0 516.267 516.267" style="enable-background:new 0 0 516.267 516.267;" xml:space="preserve">
<polygon style="fill:#F3705A;" points="179.2,327.467 179.2,516.267 258.133,464 337.067,516.267 337.067,327.467 "/>
<circle style="fill:#FFD15C;" cx="258.133" cy="190.933" r="190.933"/>
<circle style="fill:#FFFFFF;" cx="258.133" cy="190.933" r="134.4"/>
<path style="fill:#415A6B;" d="M342.4,128L342.4,128c-7.467-7.467-18.133-7.467-25.6,0l-88.533,87.467l-28.8-28.8  c-7.467-7.467-18.133-7.467-25.6,0c-7.467,7.467-7.467,18.133,0,25.6l41.6,41.6c7.467,7.467,18.133,7.467,25.6,0L341.333,153.6  C348.8,146.133,348.8,135.467,342.4,128z"/>
<g>
</g>
<g>
</g>
<g>
</g>
<g>
</g>
<g>
</g>
<g>
</g>
<g>
</g>
<g>
</g>
<g>
</g>
<g>
</g>
<g>
</g>
<g>
</g>
<g>
</g>
<g>
</g>
<g>
</g>
</svg>
