<?xml version="1.0" encoding="iso-8859-1"?>
<!-- Generator: Adobe Illustrator 19.0.0, SVG Export Plug-In . SVG Version: 6.00 Build 0)  -->
<svg xmlns="http://www.w3.org/2000/svg" xmlns:xlink="http://www.w3.org/1999/xlink" version="1.1" id="Layer_1" x="0px" y="0px" viewBox="0 0 512 512" style="enable-background:new 0 0 512 512;" xml:space="preserve">
<path style="fill:#CED6E0;" d="M512,277.333v188.8c0,25.6-20.267,45.867-45.867,45.867c-25.6,0-45.867-20.267-45.867-45.867v-188.8  H512z"/>
<path style="fill:#F3F3F3;" d="M45.867,512C20.267,512,0,491.733,0,466.133V45.867C0,20.267,20.267,0,45.867,0h329.6  c25.6,0,45.867,20.267,45.867,45.867v420.267c0,25.6,20.267,45.867,45.867,45.867H45.867z"/>
<g>
	<rect x="205.867" y="58.667" style="fill:#CED6E0;" width="160" height="21.333"/>
	<rect x="205.867" y="133.333" style="fill:#CED6E0;" width="160" height="21.333"/>
	<rect x="205.867" y="208" style="fill:#CED6E0;" width="160" height="21.333"/>
	<rect x="55.467" y="282.667" style="fill:#CED6E0;" width="310.4" height="21.333"/>
	<rect x="55.467" y="357.333" style="fill:#CED6E0;" width="310.4" height="21.333"/>
	<rect x="55.467" y="432" style="fill:#CED6E0;" width="310.4" height="21.333"/>
</g>
<path style="fill:#FFD15C;" d="M104.533,233.6v-16C86.4,214.4,70.4,206.933,54.4,193.067L74.667,169.6  c10.667,9.6,21.333,16,29.867,18.133v-32c-14.933-4.267-25.6-8.533-33.067-14.933c-6.4-6.4-10.667-16-10.667-27.733  s4.267-22.4,11.733-29.867C80,75.733,90.667,70.4,103.467,69.333V58.667H128v10.667c13.867,2.133,28.8,7.467,42.667,18.133  l-17.067,25.6c-8.533-6.4-17.067-10.667-24.533-12.8V131.2c14.933,4.267,26.667,9.6,34.133,16c7.467,6.4,10.667,16,10.667,28.8  c0,12.8-4.267,22.4-11.733,29.867c-8.533,7.467-19.2,12.8-33.067,13.867v14.933h-24.533V233.6z M104.533,99.2  C99.2,101.333,96,104.533,96,110.933c0,5.333,3.2,9.6,9.6,12.8V99.2H104.533z M138.667,176c0-3.2-1.067-5.333-2.133-7.467  s-4.267-4.267-8.533-5.333v26.667C134.4,186.667,138.667,182.4,138.667,176z"/>
<g>
</g>
<g>
</g>
<g>
</g>
<g>
</g>
<g>
</g>
<g>
</g>
<g>
</g>
<g>
</g>
<g>
</g>
<g>
</g>
<g>
</g>
<g>
</g>
<g>
</g>
<g>
</g>
<g>
</g>
</svg>
