<?xml version="1.0" encoding="iso-8859-1"?>
<!-- Generator: Adobe Illustrator 19.0.0, SVG Export Plug-In . SVG Version: 6.00 Build 0)  -->
<svg xmlns="http://www.w3.org/2000/svg" xmlns:xlink="http://www.w3.org/1999/xlink" version="1.1" id="Layer_1" x="0px" y="0px" viewBox="0 0 512.129 512.129" style="enable-background:new 0 0 512.129 512.129;" xml:space="preserve">
<path style="fill:#F3F3F3;" d="M276.251,0.129c-122.667,4.267-217.6,108.8-217.6,231.467l-54.4,117.333  c-3.2,7.467,2.133,16,10.667,16h43.733v52.267c0,19.2,16,35.2,35.2,35.2h59.733v59.733h249.6c2.133-52.267,22.4-102.4,55.467-144  c32-38.4,50.133-88.533,50.133-141.867C510.918,98.262,405.318-4.138,276.251,0.129z"/>
<g>
	<polygon style="fill:#F3705A;" points="199.451,180.395 180.251,180.395 180.251,116.395 243.184,116.395 243.184,136.662    199.451,136.662  "/>
	<polygon style="fill:#F3705A;" points="399.984,180.395 379.718,180.395 379.718,136.662 335.984,136.662 335.984,116.395    399.984,116.395  "/>
	<polygon style="fill:#F3705A;" points="399.984,336.129 335.984,336.129 335.984,316.929 379.718,316.929 379.718,273.195    399.984,273.195  "/>
	<polygon style="fill:#F3705A;" points="243.184,336.129 180.251,336.129 180.251,273.195 199.451,273.195 199.451,316.929    243.184,316.929  "/>
</g>
<path style="fill:#415A6B;" d="M420.251,216.662h-73.6c-4.267-23.467-23.467-42.667-46.933-46.933v-73.6h-20.267v73.6  c-23.467,4.267-42.667,23.467-46.933,46.933h-73.6v20.267h73.6c4.267,23.467,23.467,42.667,46.933,46.933v73.6h20.267v-73.6  c23.467-4.267,42.667-23.467,46.933-46.933h73.6L420.251,216.662L420.251,216.662z M290.118,264.662  c-21.333,0-37.333-17.067-37.333-37.333s17.067-37.333,37.333-37.333s37.333,17.067,37.333,37.333S310.384,264.662,290.118,264.662z  "/>
<g>
</g>
<g>
</g>
<g>
</g>
<g>
</g>
<g>
</g>
<g>
</g>
<g>
</g>
<g>
</g>
<g>
</g>
<g>
</g>
<g>
</g>
<g>
</g>
<g>
</g>
<g>
</g>
<g>
</g>
</svg>
