<?xml version="1.0" encoding="iso-8859-1"?>
<!-- Generator: Adobe Illustrator 19.0.0, SVG Export Plug-In . SVG Version: 6.00 Build 0)  -->
<svg xmlns="http://www.w3.org/2000/svg" xmlns:xlink="http://www.w3.org/1999/xlink" version="1.1" id="Layer_1" x="0px" y="0px" viewBox="0 0 512 512" style="enable-background:new 0 0 512 512;" xml:space="preserve">
<g>
	<path style="fill:#E8EAE9;" d="M236.8,138.667c-32,0-65.067,0-97.067,0C132.267,99.2,87.467,67.2,55.467,32   C138.667-10.667,236.8-10.667,320,32C288,67.2,243.2,99.2,236.8,138.667z"/>
	<path style="fill:#E8EAE9;" d="M242.133,512c72.533,0,133.333-57.6,133.333-130.133V380.8   c0-103.467-84.267-264.533-187.733-264.533S0,276.267,0,380.8v1.067C1.067,454.4,61.867,512,134.4,512H242.133z"/>
</g>
<g>
	<path style="fill:#415A6B;" d="M187.733,122.667c-23.467,0-46.933-2.133-69.333-7.467c-5.333-1.067-9.6-6.4-8.533-12.8   c1.067-5.333,6.4-9.6,12.8-8.533c42.667,8.533,86.4,8.533,131.2,0C259.2,92.8,265.6,96,266.667,102.4   c1.067,5.333-2.133,11.733-8.533,12.8C233.6,120.533,210.133,122.667,187.733,122.667z"/>
	<path style="fill:#415A6B;" d="M187.733,142.933c-19.2,0-37.333-2.133-56.533-5.333c-5.333-1.067-9.6-6.4-8.533-12.8   c1.067-5.333,6.4-9.6,12.8-8.533c34.133,7.467,69.333,7.467,104.533,0c5.333-1.067,11.733,2.133,12.8,8.533   c1.067,6.4-2.133,11.733-8.533,12.8C225.067,141.867,205.867,142.933,187.733,142.933z"/>
	<path style="fill:#415A6B;" d="M219.733,213.333c-6.4,0-10.667-4.267-10.667-10.667v-73.6c0-6.4,4.267-10.667,10.667-10.667   c6.4,0,10.667,4.267,10.667,10.667v73.6C230.4,208,225.067,213.333,219.733,213.333z"/>
	<path style="fill:#415A6B;" d="M186.667,176c-6.4,0-10.667-4.267-10.667-10.667v-35.2c0-6.4,4.267-10.667,10.667-10.667   s10.667,4.267,10.667,10.667v35.2C197.333,171.733,192,176,186.667,176z"/>
</g>
<circle style="fill:#F7B64C;" cx="345.6" cy="345.6" r="166.4"/>
<circle style="fill:#FFD15C;" cx="345.6" cy="345.6" r="123.733"/>
<path style="fill:#F7B64C;" d="M341.333,426.667V412.8c-18.133-2.133-34.133-8.533-48-21.333L307.2,374.4  c10.667,9.6,22.4,14.933,34.133,17.067v-38.4c-14.933-3.2-25.6-8.533-32-13.867s-10.667-13.867-10.667-25.6  s4.267-20.267,11.733-27.733s18.133-10.667,30.933-11.733v-9.6h12.8v9.6c13.867,1.067,27.733,6.4,40.533,14.933l-12.8,18.133  c-8.533-6.4-18.133-9.6-27.733-11.733V332.8h1.067c14.933,3.2,25.6,8.533,33.067,13.867c7.467,6.4,10.667,14.933,10.667,26.667  c0,11.733-4.267,20.267-11.733,27.733c-8.533,7.467-19.2,10.667-32,11.733v13.867H341.333z M327.467,300.8  c-3.2,3.2-5.333,6.4-5.333,10.667s1.067,7.467,4.267,10.667c2.133,2.133,7.467,5.333,14.933,7.467v-34.133  C336,295.467,330.667,297.6,327.467,300.8z M371.2,387.2c4.267-3.2,6.4-7.467,6.4-12.8s-1.067-8.533-4.267-11.733  c-3.2-3.2-8.533-5.333-17.067-8.533v38.4C361.6,392.533,366.933,390.4,371.2,387.2z"/>
<g>
</g>
<g>
</g>
<g>
</g>
<g>
</g>
<g>
</g>
<g>
</g>
<g>
</g>
<g>
</g>
<g>
</g>
<g>
</g>
<g>
</g>
<g>
</g>
<g>
</g>
<g>
</g>
<g>
</g>
</svg>
