<?xml version="1.0" encoding="iso-8859-1"?>
<!-- Generator: Adobe Illustrator 19.0.0, SVG Export Plug-In . SVG Version: 6.00 Build 0)  -->
<svg xmlns="http://www.w3.org/2000/svg" xmlns:xlink="http://www.w3.org/1999/xlink" version="1.1" id="Layer_1" x="0px" y="0px" viewBox="0 0 512 512" style="enable-background:new 0 0 512 512;" xml:space="preserve">
<path style="fill:#E8EAE9;" d="M512,32v448c0,18.133-13.867,32-32,32H32c-18.133,0-32-13.867-32-32V32C0,13.867,13.867,0,32,0h448  C498.133,0,512,13.867,512,32z"/>
<rect x="42.667" y="141.867" style="fill:#FFFFFF;" width="426.667" height="327.467"/>
<circle style="fill:#F3705A;" cx="78.933" cy="71.467" r="25.6"/>
<circle style="fill:#55C0EB;" cx="154.667" cy="71.467" r="25.6"/>
<circle style="fill:#FFD15C;" cx="230.4" cy="71.467" r="25.6"/>
<g>
	<path style="fill:#415A6B;" d="M138.667,337.067h-18.133L99.2,274.133h18.133l12.8,38.4l12.8-38.4H160l12.8,38.4l12.8-38.4h18.133   L182.4,337.067h-18.133l-11.733-34.133L138.667,337.067z"/>
	<path style="fill:#415A6B;" d="M244.267,337.067h-18.133L204.8,274.133h18.133l12.8,38.4l12.8-38.4H265.6l12.8,38.4l12.8-38.4   h18.133L288,337.067h-18.133L256,302.933L244.267,337.067z"/>
	<path style="fill:#415A6B;" d="M349.867,337.067h-18.133L310.4,274.133h18.133l12.8,38.4l12.8-38.4H371.2l12.8,38.4l12.8-38.4   h18.133L393.6,337.067h-20.267L361.6,302.933L349.867,337.067z"/>
</g>
<g>
</g>
<g>
</g>
<g>
</g>
<g>
</g>
<g>
</g>
<g>
</g>
<g>
</g>
<g>
</g>
<g>
</g>
<g>
</g>
<g>
</g>
<g>
</g>
<g>
</g>
<g>
</g>
<g>
</g>
</svg>
