<?xml version="1.0" encoding="iso-8859-1"?>
<!-- Generator: Adobe Illustrator 19.0.0, SVG Export Plug-In . SVG Version: 6.00 Build 0)  -->
<svg xmlns="http://www.w3.org/2000/svg" xmlns:xlink="http://www.w3.org/1999/xlink" version="1.1" id="Layer_1" x="0px" y="0px" viewBox="0 0 509.867 509.867" style="enable-background:new 0 0 509.867 509.867;" xml:space="preserve">
<path style="fill:#FFD15C;" d="M487.38,429.867c-28.8-27.733-86.4-83.2-118.4-109.867c-42.667-36.267-41.6-61.867-41.6-61.867  l-10.667-129.067c-1.067-12.8-4.267-25.6-10.667-36.267c-3.2-6.4-8.533-14.933-14.933-26.667c-12.8-27.733-24.533-44.8-33.067-54.4  c-8.533-9.6-21.333-13.867-34.133-10.667S199.38,9.6,199.38,9.6l-37.333-8.533c-11.733,5.333-9.6,13.867-9.6,13.867  c-5.333-2.133-16,0-27.733,6.4c-11.733,7.467-16,34.133-16,34.133C55.38,99.2,24.447,238.933,24.447,238.933  c-6.4,43.733,49.067,82.133,49.067,82.133c40.533,26.667,101.333,76.8,101.333,76.8l112,112L487.38,429.867z"/>
<g>
	<path style="fill:#F7B64C;" d="M57.514,289.067c0,0,25.6-35.2,48-39.467c0,0-5.333-11.733-20.267-9.6l-16,3.2l20.267-8.533   l2.133-1.067l8.533,1.067l12.8-5.333l-8.533,6.4c0,0,1.067,10.667,3.2,13.867C99.114,248.533,63.914,280.533,57.514,289.067z"/>
	<path style="fill:#F7B64C;" d="M96.98,68.267c0,0-9.6,12.8,5.333,25.6c9.6,7.467,13.867,12.8,13.867,12.8s-25.6-22.4-40.533-5.333   C82.047,88.533,89.514,77.867,96.98,68.267z"/>
	<path style="fill:#F7B64C;" d="M106.58,57.6c4.267-3.2,8.533-6.4,13.867-8.533C122.58,48,125.78,48,128.98,48   c1.067,0,3.2,0,4.267,1.067c1.067,0,2.133,1.067,4.267,2.133l0,0c3.2,2.133,6.4,3.2,9.6,5.333c1.067,1.067,3.2,2.133,4.267,3.2   c1.067,1.067,3.2,2.133,4.267,3.2c5.333,5.333,10.667,10.667,14.933,16c9.6,10.667,18.133,22.4,25.6,35.2l0,0l0,0   c7.467,14.933,14.933,28.8,22.4,43.733c-7.467-13.867-16-28.8-23.467-42.667l0,0c-8.533-11.733-16-23.467-25.6-34.133   c-4.267-5.333-9.6-10.667-14.933-16c-3.2-1.067-5.333-2.133-6.4-3.2c-1.067-1.067-2.133-2.133-4.267-3.2   c-3.2-2.133-5.333-4.267-8.533-6.4l0,0l0,0c-1.067,0-2.133-1.067-3.2-1.067c-1.067,0-2.133-1.067-3.2-1.067   c-2.133,0-5.333,0-7.467,1.067C115.114,52.267,110.847,55.467,106.58,57.6z"/>
	<path style="fill:#F7B64C;" d="M215.38,158.933c-2.133-3.2-3.2-6.4-5.333-9.6c-6.4-10.667-11.733-22.4-18.133-33.067   c-7.467-10.667-16-23.467-25.6-34.133c-4.267-5.333-8.533-10.667-14.933-16c-1.067-1.067-2.133-2.133-4.267-3.2l-1.067-1.067   c-1.067-1.067-2.133-1.067-2.133-2.133c-2.133-2.133-5.333-4.267-8.533-6.4h-1.067c-1.067,0-1.067-1.067-2.133-1.067   c-1.067,0-2.133,0-3.2-1.067l0,0c-2.133,0-5.333,0-7.467,1.067c-4.267,1.067-9.6,3.2-13.867,6.4L106.58,57.6   c4.267-4.267,9.6-6.4,13.867-8.533C123.647,48,125.78,48,128.98,48l0,0c1.067,0,3.2,0,4.267,1.067c1.067,0,2.133,1.067,3.2,1.067   h1.067l0,0c4.267,2.133,6.4,4.267,9.6,6.4c1.067,1.067,2.133,1.067,3.2,2.133l1.067,1.067c1.067,1.067,3.2,2.133,4.267,3.2   c3.2,5.333,8.533,9.6,13.867,16c9.6,11.733,18.133,23.467,25.6,35.2c6.4,11.733,11.733,23.467,17.067,34.133L215.38,158.933   L215.38,158.933z M192.98,115.2c4.267,7.467,8.533,14.933,12.8,22.4C201.514,130.133,197.247,122.667,192.98,115.2   c-6.4-11.733-14.933-23.467-24.533-35.2c-5.333-6.4-9.6-10.667-14.933-16c-1.067-1.067-3.2-2.133-4.267-3.2l-1.067-1.067   c-1.067-1.067-2.133-1.067-3.2-2.133c-2.133-2.133-5.333-3.2-9.6-5.333h-1.067c-1.067,0-2.133-1.067-3.2-1.067   c-1.067,0-2.133,0-4.267-1.067l0,0l0,0c-2.133,0-4.267,0-7.467,1.067c-1.067,0-1.067,0-2.133,1.067c1.067,0,1.067,0,2.133-1.067   c2.133-1.067,5.333-1.067,7.467-1.067l0,0c1.067,0,2.133,0,3.2,1.067c3.2,0,4.267,0,5.333,0c0,0,0,0,1.067,0   c3.2,2.133,6.4,4.267,8.533,6.4c1.067,1.067,2.133,1.067,3.2,2.133c0,1.067,0,1.067,0,2.133c1.067,1.067,2.133,2.133,4.267,3.2   c5.333,5.333,10.667,10.667,14.933,16C176.98,91.733,185.514,103.467,192.98,115.2L192.98,115.2L192.98,115.2L192.98,115.2z"/>
	<path style="fill:#F7B64C;" d="M152.447,13.867c0,0,0,17.067,7.467,23.467c7.467,6.4,40.533,24.533,48,24.533   c8.533-1.067,14.933-3.2,14.933-3.2s21.333-9.6,26.667-30.933c0,0,4.267,21.333-35.2,37.333c0,0,2.133,7.467,9.6,5.333   c7.467-2.133,24.533-8.533,32-13.867c0,0-22.4,13.867-30.933,16s-8.533,1.067-8.533,1.067s-3.2-7.467-8.533-8.533   c0,0-21.333-4.267-45.867-23.467c-5.333-4.267-9.6-9.6-11.733-17.067C150.314,21.333,151.38,12.8,152.447,13.867z"/>
	<path style="fill:#F7B64C;" d="M215.38,73.6L215.38,73.6c0,0-3.2-7.467-8.533-8.533c0,0-21.333-4.267-45.867-23.467   c-4.267-3.2-9.6-8.533-11.733-17.067c-1.067-3.2,0-10.667,2.133-11.733h1.067l0,0l0,0c0,0,0,17.067,7.467,22.4   c8.533,6.4,38.4,24.533,46.933,24.533l0,0c9.6,0,16-2.133,16-2.133s21.333-9.6,26.667-29.867l1.067-2.133v2.133   c0,1.067,3.2,21.333-35.2,38.4c1.067,1.067,3.2,6.4,9.6,4.267c5.333-1.067,17.067-5.333,25.6-10.667   c4.267-2.133,6.4-4.267,6.4-4.267l1.067,1.067c-2.133,1.067-4.267,2.133-6.4,4.267c-7.467,4.267-19.2,10.667-25.6,11.733   L215.38,73.6z M152.447,14.933c-1.067,2.133-1.067,7.467-1.067,9.6C153.514,32,158.847,38.4,162.047,41.6   c24.533,18.133,44.8,22.4,45.867,23.467c4.267,1.067,7.467,6.4,8.533,7.467l8.533-1.067c3.2,0,8.533-3.2,13.867-5.333   c-6.4,2.133-11.733,4.267-14.933,5.333c-1.067,0-2.133,0-3.2,0c-5.333,0-7.467-5.333-7.467-5.333l0,0l0,0   c28.8-11.733,34.133-26.667,35.2-33.067c-6.4,18.133-25.6,26.667-25.6,26.667s-7.467,2.133-14.933,3.2l0,0   c-9.6,0-40.533-19.2-48-24.533C153.514,32,152.447,19.2,152.447,14.933z"/>
</g>
<g>
	<path style="fill:#F3F3F3;" d="M139.647,251.733l-2.133-7.467c0,0-2.133-13.867,9.6-21.333l6.4,19.2   C149.247,245.333,143.914,248.533,139.647,251.733z"/>
	<path style="fill:#F3F3F3;" d="M169.514,218.667c6.4-8.533,10.667-12.8,10.667-12.8c3.2,6.4,5.333,9.6,7.467,16   c0,0-1.067,12.8-9.6,16c-8.533,3.2-8.533,3.2-8.533,3.2C167.38,237.867,163.114,226.133,169.514,218.667z"/>
	<path style="fill:#F3F3F3;" d="M200.447,176c0,0-18.133,10.667-18.133,19.2c-1.067,8.533,2.133,11.733,2.133,11.733   s10.667-2.133,14.933-17.067C202.58,178.133,200.447,176,200.447,176z"/>
	<path style="fill:#F3F3F3;" d="M210.047,141.867l-6.4-11.733c-1.067-2.133-1.067-5.333,0-7.467c2.133-3.2,6.4-8.533,12.8-10.667   c2.133,0,3.2,1.067,4.267,2.133l6.4,16L210.047,141.867z"/>
	<path style="fill:#F3F3F3;" d="M162.047,0c0,0,11.733,5.333,17.067,10.667c5.333,5.333,24.533,6.4,24.533,6.4s7.467,0,5.333-4.267   c-2.133-4.267,0-1.067,0-1.067s-2.133-4.267-9.6-4.267L162.047,0z"/>
</g>
<g>
	<path style="fill:#F7B64C;" d="M68.18,156.8c0,0,7.467,1.067,19.2,5.333s26.667,10.667,39.467,21.333   c3.2,2.133,6.4,5.333,8.533,8.533c2.133,3.2,3.2,7.467,5.333,10.667c3.2,7.467,5.333,13.867,6.4,19.2   c3.2,11.733,5.333,19.2,5.333,19.2s-2.133-7.467-6.4-19.2c-2.133-5.333-4.267-11.733-7.467-19.2   c-1.067-3.2-2.133-7.467-5.333-10.667c-2.133-3.2-5.333-5.333-8.533-7.467c-6.4-5.333-12.8-9.6-19.2-12.8   c-6.4-3.2-12.8-6.4-18.133-8.533C76.714,158.933,68.18,156.8,68.18,156.8z"/>
	<path style="fill:#F7B64C;" d="M152.447,242.133c0,0-2.133-7.467-6.4-19.2c-2.133-4.267-4.267-10.667-6.4-16l-1.067-3.2   c0-1.067-1.067-2.133-1.067-2.133c-1.067-2.133-2.133-5.333-4.267-7.467c-1.067-2.133-4.267-4.267-6.4-6.4   c-1.067-1.067-1.067-1.067-2.133-2.133c-5.333-4.267-11.733-8.533-19.2-12.8c-6.4-3.2-12.8-6.4-18.133-8.533   C76.714,160,68.18,156.8,68.18,156.8v-1.067c0,0,8.533,1.067,19.2,5.333c8.533,3.2,24.533,9.6,39.467,21.333   c1.067,1.067,1.067,1.067,2.133,2.133c2.133,2.133,5.333,4.267,6.4,7.467c2.133,3.2,3.2,5.333,4.267,8.533   c0,1.067,1.067,2.133,1.067,2.133c2.133,7.467,4.267,13.867,6.4,19.2l0,0C151.38,233.6,153.514,241.067,152.447,242.133   L152.447,242.133z M79.914,160c2.133,1.067,4.267,2.133,7.467,3.2c5.333,2.133,11.733,5.333,18.133,8.533   c7.467,4.267,13.867,8.533,20.267,12.8c1.067,1.067,1.067,1.067,2.133,2.133c2.133,2.133,4.267,4.267,6.4,6.4   c2.133,2.133,3.2,5.333,4.267,7.467c0,1.067,1.067,2.133,1.067,2.133l1.067,3.2c2.133,5.333,4.267,10.667,6.4,16   c1.067,3.2,2.133,5.333,3.2,7.467c-1.067-2.133-1.067-5.333-2.133-7.467l0,0c-2.133-5.333-4.267-12.8-6.4-19.2   c0-1.067-1.067-2.133-1.067-2.133c-1.067-3.2-2.133-5.333-4.267-8.533c-2.133-3.2-4.267-5.333-6.4-6.4   c-1.067-1.067-1.067-1.067-2.133-2.133C112.98,172.8,96.98,165.333,88.447,162.133C85.247,161.067,82.047,161.067,79.914,160z"/>
	<path style="fill:#F7B64C;" d="M61.78,293.333c-2.133,2.133-4.267,3.2-6.4,4.267C58.58,297.6,60.714,295.467,61.78,293.333z"/>
	<path style="fill:#F7B64C;" d="M38.314,267.733c-1.067,0-1.067,1.067-2.133,1.067C37.247,268.8,38.314,268.8,38.314,267.733z"/>
	<path style="fill:#F7B64C;" d="M312.447,500.267c-42.667-41.6-94.933-72.533-134.4-118.4c-4.267-5.333-9.6-11.733-8.533-18.133   c0-4.267,2.133-7.467,4.267-10.667c2.133-3.2,3.2-6.4,5.333-9.6c-3.2,2.133-6.4,4.267-8.533,7.467c-2.133,3.2-3.2,7.467-7.467,9.6   c-2.133,0-4.267-2.133-4.267-4.267c-1.067-2.133-1.067-4.267-1.067-6.4c0-4.267-1.067-7.467-2.133-11.733   c-1.067,3.2-2.133,6.4-4.267,10.667c-4.267-5.333-10.667-10.667-17.067-9.6c2.133-7.467,4.267-14.933,2.133-22.4   c0,8.533-2.133,16-4.267,24.533c-6.4-2.133-11.733-6.4-14.933-11.733c-1.067-1.067-2.133-2.133-3.2-2.133s-1.067,1.067-2.133,1.067   c-3.2,2.133-6.4,4.267-9.6,5.333c4.267-2.133,7.467-6.4,8.533-10.667c-3.2,0-7.467,1.067-10.667,1.067l2.133-4.267   c-2.133,1.067-3.2,2.133-5.333,2.133c1.067-1.067,2.133-3.2,2.133-5.333c0,1.067-2.133,2.133-3.2,2.133s-2.133,0-3.2-1.067   c-4.267-2.133-8.533-4.267-12.8-7.467l2.133-3.2c-3.2,1.067-6.4,0-8.533-2.133c-5.333-3.2-11.733-5.333-18.133-6.4   c1.067-1.067,2.133-2.133,3.2-2.133c-2.133,1.067-3.2,0-5.333-1.067c-3.2-1.067-5.333-3.2-6.4-5.333   c-5.333-6.4-7.467-11.733-11.733-18.133c1.067-1.067,4.267-5.333,5.333-5.333c-2.133,0-6.4,4.267-8.533,1.067   c-2.133-2.133-2.133-4.267-3.2-7.467c4.267,1.067,9.6,0,13.867-3.2c-4.267,2.133-9.6,4.267-12.8,1.067   c-1.067-1.067-2.133-2.133-2.133-4.267c-2.133-5.333-2.133-10.667-1.067-16V236.8l0,0v1.067C20.18,281.6,75.647,320,75.647,320   c40.533,26.667,101.333,76.8,101.333,76.8l109.867,113.067L312.447,500.267z"/>
</g>
<path style="fill:#F3705A;" d="M24.447,237.867c0,0,5.333,16,40.533,6.4l23.467-9.6c0,0,4.267,0,6.4,0c0,0-5.333-5.333-6.4-12.8  c0,0-3.2-9.6-8.533-20.267c-8.533-20.267-13.867-41.6-13.867-62.933c0-6.4,0-12.8,2.133-18.133c0,0,2.133-24.533,37.333-62.933  c0,0-36.267,33.067-49.067,62.933C57.514,121.6,12.714,205.867,24.447,237.867z"/>
<g>
	<path style="fill:#F05540;" d="M53.247,221.867c5.333,9.6,12.8,16,18.133,20.267l8.533-3.2   C66.047,233.6,53.247,221.867,53.247,221.867z"/>
	<path style="fill:#F05540;" d="M78.847,230.4c-8.533-3.2-16-7.467-16-7.467s6.4,5.333,13.867,10.667   c2.133,1.067,4.267,3.2,6.4,4.267l5.333-2.133c0,0,3.2,0,5.333,0c0,0-2.133-1.067-5.333-1.067   C87.38,233.6,83.114,231.467,78.847,230.4z"/>
</g>
<path style="fill:#F7B64C;" d="M208.98,147.2h-2.133l1.067-10.667c1.067-6.4,5.333-16,10.667-27.733  c1.067-2.133,2.133-4.267,3.2-6.4c6.4-13.867-10.667-36.267-11.733-37.333L212.18,64c0,1.067,17.067,24.533,10.667,39.467  c-1.067,2.133-2.133,4.267-3.2,6.4c-5.333,11.733-9.6,21.333-9.6,27.733L208.98,147.2z"/>
<path style="fill:#F3705A;" d="M296.447,157.867l-80,40.533l-14.933-23.467c1.067-2.133,7.467-18.133,6.4-29.867l1.067-8.533  c1.067-6.4,6.4-19.2,12.8-34.133c2.133-6.4,1.067-13.867-2.133-20.267c-1.067-3.2-3.2-6.4-4.267-8.533c9.6-3.2,19.2,0,25.6,7.467  l20.267,23.467L296.447,157.867z"/>
<path style="fill:#66C6B9;" d="M296.447,157.867l-71.467,36.267l-8.533,4.267l25.6,40.533c2.133,4.267,7.467,6.4,12.8,4.267  l62.933-32c5.333-3.2,7.467-9.6,4.267-14.933L296.447,157.867z M275.114,215.467c-5.333,2.133-12.8,0-14.933-6.4  c-2.133-5.333,1.067-12.8,6.4-14.933c5.333-2.133,12.8,1.067,14.933,6.4C284.714,206.933,281.514,213.333,275.114,215.467z"/>
<path style="fill:#F05540;" d="M261.247,104.533L240.98,81.067c-6.4-7.467-16-10.667-25.6-7.467l0,0  c4.267,7.467,8.533,14.933,7.467,23.467c17.067,5.333,39.467,17.067,51.2,32c20.267,25.6,20.267,25.6,20.267,25.6l0,0  L261.247,104.533z"/>
<g>
	<path style="fill:#F7B64C;" d="M183.38,209.067l-1.067-2.133c0,0,17.067-11.733,17.067-21.333l1.067-9.6l0,0   c0,0,7.467-18.133,6.4-29.867l1.067-8.533c1.067-6.4,5.333-16,10.667-27.733c1.067-2.133,2.133-4.267,3.2-6.4   c6.4-13.867-10.667-36.267-10.667-37.333L212.18,64c0,1.067,17.067,23.467,10.667,39.467c-1.067,2.133-2.133,4.267-3.2,6.4   c-5.333,11.733-9.6,21.333-9.6,27.733l-1.067,8.533c1.067,11.733-5.333,28.8-6.4,30.933l-1.067,8.533   C200.447,197.333,184.447,208,183.38,209.067z"/>
	<path style="fill:#F7B64C;" d="M183.38,210.133L181.247,208l0,0c2.133-1.067,16-11.733,17.067-21.333l1.067-9.6l0,0   c1.067-2.133,7.467-18.133,6.4-29.867l1.067-8.533c1.067-6.4,5.333-16,10.667-27.733c1.067-2.133,2.133-4.267,3.2-6.4   c6.4-13.867-10.667-36.267-10.667-36.267l0,0l2.133-5.333l0,0c0,0,18.133,24.533,11.733,39.467l-1.067,2.133   c-1.067,2.133-1.067,3.2-2.133,5.333l0,0c-5.333,11.733-9.6,21.333-9.6,26.667l-1.067,8.533c1.067,11.733-5.333,28.8-6.4,30.933   l-1.067,9.6C201.514,197.333,184.447,209.067,183.38,210.133L183.38,210.133z M182.314,206.933L182.314,206.933   c3.2-1.067,17.067-11.733,18.133-21.333l1.067-9.6c1.067-2.133,7.467-18.133,6.4-29.867l1.067-8.533   c1.067-5.333,5.333-16,9.6-27.733l0,0c1.067-2.133,1.067-3.2,2.133-5.333l2.133-2.133c6.4-13.867-8.533-35.2-10.667-38.4   l-1.067,1.067c2.133,3.2,17.067,24.533,10.667,37.333c-1.067,2.133-2.133,4.267-3.2,6.4c-5.333,11.733-9.6,22.4-10.667,27.733   l-1.067,8.533c1.067,11.733-5.333,27.733-6.4,29.867l0,0l-1.067,9.6C199.38,195.2,185.514,204.8,182.314,206.933z"/>
</g>
<path style="fill:#F05540;" d="M224.98,102.4c-1.067,2.133-2.133,5.333-2.133,7.467c-5.333,11.733-11.733,41.6-11.733,41.6  c1.067,11.733-8.533,25.6-8.533,25.6l-1.067-3.2c2.133-4.267,6.4-18.133,6.4-28.8l1.067-8.533c1.067-6.4,5.333-16,10.667-27.733  c1.067-2.133,2.133-4.267,3.2-6.4c3.2-8.533-1.067-20.267-5.333-28.8v-1.067C222.847,81.067,229.247,93.867,224.98,102.4z"/>
<g>
	<path style="fill:#F7B64C;" d="M187.647,219.733c-1.067-7.467-3.2-14.933-4.267-22.4c-2.133-7.467-3.2-14.933-5.333-22.4   c0,0,0,0,0-1.067l-44.8-50.133l-11.733-12.8c-2.133-2.133-3.2-4.267-6.4-6.4c-2.133-2.133-4.267-3.2-7.467-4.267h-1.067   c1.067,1.067-14.933-8.533-13.867-7.467c0,0,16,9.6,16,10.667c2.133,1.067,3.2,2.133,5.333,3.2c2.133,2.133,3.2,4.267,5.333,6.4   l10.667,12.8L173.78,176c3.2,14.933,7.467,29.867,9.6,44.8c0,2.133,0,3.2,0,5.333s-1.067,3.2-2.133,5.333   c-1.067,1.067-2.133,3.2-3.2,4.267c-1.067,1.067-3.2,2.133-4.267,3.2c-3.2,2.133-6.4,3.2-10.667,4.267   c-3.2,1.067-7.467,1.067-10.667,0l0,0h-1.067c-6.4,5.333-13.867,10.667-21.333,12.8c-8.533,2.133-17.067,1.067-24.533-4.267   c7.467,5.333,16,6.4,24.533,5.333c8.533-2.133,16-6.4,22.4-11.733c4.267,1.067,7.467,1.067,11.733,1.067   c4.267-1.067,7.467-2.133,11.733-4.267c2.133-1.067,3.2-2.133,5.333-3.2c1.067-1.067,3.2-3.2,4.267-4.267   c1.067-2.133,2.133-3.2,2.133-5.333C187.647,224,187.647,221.867,187.647,219.733z"/>
	<path style="fill:#F7B64C;" d="M123.647,256c-6.4,0-12.8-2.133-18.133-5.333l1.067-1.067c7.467,4.267,16,6.4,24.533,4.267   c7.467-2.133,13.867-6.4,21.333-12.8h1.067c3.2,1.067,6.4,1.067,10.667,0c3.2-1.067,6.4-2.133,10.667-4.267   c2.133-1.067,3.2-2.133,4.267-3.2c1.067-1.067,2.133-2.133,3.2-4.267c1.067-1.067,2.133-3.2,2.133-5.333s0-3.2,0-5.333l0,0   c-2.133-11.733-5.333-23.467-7.467-35.2c-1.067-3.2-1.067-6.4-2.133-9.6l-43.733-50.133l-10.667-12.8   c-1.067-1.067-1.067-1.067-2.133-2.133c-1.067-1.067-2.133-3.2-3.2-4.267c-1.067-1.067-3.2-2.133-4.267-3.2l0,0   c-1.067,0-5.333-3.2-9.6-6.4C92.714,92.8,92.714,92.8,92.714,92.8l0,0l0,0c0,0,0-1.067,8.533,4.267   c2.133,1.067,3.2,2.133,4.267,2.133l1.067,1.067l0,0c0,0,0,0,1.067,0c2.133,1.067,5.333,3.2,7.467,4.267   c2.133,1.067,3.2,3.2,4.267,4.267c1.067,1.067,1.067,1.067,2.133,2.133l11.733,12.8l44.8,50.133c0,0,0,0,0,1.067   c2.133,7.467,3.2,14.933,5.333,21.333l1.067,4.267c1.067,6.4,3.2,12.8,4.267,20.267l0,0c0,2.133,0,4.267,0,6.4   c0,2.133-1.067,4.267-2.133,5.333c-1.067,2.133-2.133,3.2-4.267,5.333c-1.067,1.067-3.2,2.133-5.333,3.2   c-4.267,2.133-7.467,3.2-11.733,4.267c-4.267,1.067-8.533,0-11.733-1.067c-7.467,6.4-14.933,10.667-22.4,11.733   C128.98,256,125.78,256,123.647,256z M152.447,241.067L152.447,241.067c-7.467,7.467-14.933,11.733-22.4,12.8l0,0   C137.514,252.8,144.98,249.6,152.447,241.067L152.447,241.067L152.447,241.067c3.2,2.133,7.467,2.133,11.733,2.133   c3.2-1.067,7.467-2.133,10.667-4.267c2.133-1.067,3.2-2.133,5.333-3.2c1.067-1.067,3.2-3.2,4.267-4.267   c1.067-2.133,2.133-3.2,2.133-5.333c1.067-2.133,0-4.267,0-6.4l0,0c-1.067-6.4-2.133-12.8-4.267-20.267l-1.067-4.267   c-1.067-7.467-3.2-13.867-5.333-21.333l0,0l-44.8-50.133l-11.733-12.8c-1.067-1.067-1.067-1.067-2.133-2.133   s-2.133-3.2-4.267-4.267c-2.133-2.133-4.267-3.2-7.467-4.267c0,0,0,0-1.067,0l0,0c0,0,0,0-1.067,0c2.133,1.067,3.2,2.133,3.2,2.133   l0,0l0,0c2.133,1.067,3.2,2.133,4.267,3.2c1.067,1.067,2.133,2.133,4.267,4.267c1.067,1.067,1.067,1.067,2.133,2.133l10.667,12.8   l43.733,51.2c1.067,3.2,1.067,6.4,2.133,9.6c3.2,11.733,5.333,23.467,7.467,35.2l0,0c0,2.133,0,3.2,0,5.333   c0,2.133-1.067,3.2-2.133,5.333c-1.067,2.133-2.133,3.2-3.2,4.267c-1.067,1.067-3.2,2.133-4.267,3.2   c-3.2,2.133-7.467,3.2-10.667,4.267C159.914,243.2,156.714,242.133,152.447,241.067   C153.514,241.067,153.514,241.067,152.447,241.067z"/>
</g>
<g>
	<path style="fill:#E8EAE9;" d="M280.447,301.867c-14.933,0-28.8-11.733-28.8-27.733c-1.067-16,11.733-29.867,27.733-29.867   c7.467,0,14.933,2.133,21.333,7.467c5.333,5.333,8.533,12.8,9.6,20.267l0,0c0,7.467-2.133,14.933-7.467,21.333   c-5.333,5.333-12.8,8.533-20.267,9.6C280.447,301.867,280.447,301.867,280.447,301.867z M280.447,259.2   C279.38,259.2,279.38,259.2,280.447,259.2c-7.467,0-12.8,6.4-12.8,13.867s6.4,12.8,13.867,12.8c3.2,0,6.4-2.133,8.533-4.267   c2.133-2.133,3.2-6.4,3.2-9.6l0,0c0-3.2-2.133-6.4-4.267-8.533C285.78,260.267,283.647,259.2,280.447,259.2z"/>
	<circle style="fill:#E8EAE9;" cx="285.78" cy="397.867" r="112"/>
</g>
<circle style="fill:#CED6E0;" cx="285.78" cy="397.867" r="86.4"/>
<polygon style="fill:#E8EAE9;" points="282.58,332.8 299.647,377.6 346.58,375.467 309.247,404.267 326.314,449.067 286.847,422.4   249.514,452.267 262.314,406.4 222.847,380.8 269.78,378.667 "/>
<path style="fill:#F3F3F3;" d="M270.847,224c-2.133,0-5.333,0-7.467-1.067c-4.267-2.133-8.533-5.333-9.6-10.667  c-4.267-9.6,1.067-20.267,10.667-24.533c9.6-4.267,20.267,1.067,24.533,10.667c4.267,9.6-1.067,20.267-10.667,24.533  C276.18,224,274.047,224,270.847,224z M270.847,194.133c-1.067,0-3.2,0-4.267,1.067c-5.333,2.133-8.533,8.533-6.4,13.867  c1.067,3.2,3.2,4.267,5.333,6.4c2.133,1.067,5.333,1.067,8.533,0c5.333-2.133,8.533-8.533,6.4-13.867  C279.38,197.333,275.114,194.133,270.847,194.133z"/>
<path style="fill:#415A6B;" d="M279.38,272L279.38,272c-4.267,0-6.4-3.2-6.4-6.4c0-12.8-4.267-45.867-5.333-54.4  c-1.067-3.2,2.133-7.467,5.333-7.467c3.2-1.067,7.467,2.133,7.467,5.333c1.067,8.533,6.4,42.667,5.333,57.6  C285.78,268.8,282.58,272,279.38,272z"/>
<path style="fill:#F05540;" d="M37.247,200.533c0,0,17.067,32,34.133,41.6l8.533-3.2C79.914,238.933,53.247,228.267,37.247,200.533z  "/>
<g>
</g>
<g>
</g>
<g>
</g>
<g>
</g>
<g>
</g>
<g>
</g>
<g>
</g>
<g>
</g>
<g>
</g>
<g>
</g>
<g>
</g>
<g>
</g>
<g>
</g>
<g>
</g>
<g>
</g>
</svg>
