<?xml version="1.0" encoding="iso-8859-1"?>
<!-- Generator: Adobe Illustrator 19.0.0, SVG Export Plug-In . SVG Version: 6.00 Build 0)  -->
<svg xmlns="http://www.w3.org/2000/svg" xmlns:xlink="http://www.w3.org/1999/xlink" version="1.1" id="Layer_1" x="0px" y="0px" viewBox="0 0 512 512" style="enable-background:new 0 0 512 512;" xml:space="preserve">
<path style="fill:#F3F3F3;" d="M32.08,0h253.867L403.28,117.333V480c0,18.133-13.867,32-32,32H32.08c-18.133,0-32-13.867-32-32V32  C0.08,13.867,13.947,0,32.08,0z"/>
<polygon style="fill:#CED6E0;" points="285.947,0 403.28,117.333 285.947,117.333 "/>
<g>
	<path style="fill:#415A6B;" d="M88.614,93.867c5.333,0,9.6-2.133,12.8-6.4l6.4,7.467c-4.267,5.333-10.667,8.533-18.133,8.533   c-7.467,0-13.867-2.133-18.133-7.467c-5.333-4.267-7.467-10.667-7.467-17.067c0-7.467,2.133-12.8,7.467-18.133   c4.267-5.333,10.667-7.467,18.133-7.467c7.467,0,14.933,3.2,20.267,9.6L102.48,70.4c-3.2-4.267-7.467-6.4-12.8-6.4   c-4.267,0-7.467,1.067-10.667,3.2c-2.133,3.2-4.267,6.4-4.267,11.733c0,5.333,1.067,8.533,4.267,10.667   C82.214,91.733,85.414,93.867,88.614,93.867z"/>
	<path style="fill:#415A6B;" d="M151.547,103.467L147.28,92.8h-20.267l-4.267,10.667h-11.733l21.333-48h10.667l21.333,48H151.547z    M136.614,69.333l-6.4,13.867h11.733L136.614,69.333z"/>
	<path style="fill:#415A6B;" d="M180.347,64c-1.067,1.067-1.067,2.133-1.067,3.2c0,1.067,1.067,2.133,2.133,3.2   c1.067,1.067,4.267,2.133,8.533,3.2s8.533,3.2,10.667,5.333c2.133,2.133,4.267,5.333,4.267,9.6S202.747,96,199.547,99.2   s-7.467,4.267-12.8,4.267c-7.467,0-14.933-3.2-20.267-8.533l6.4-7.467c5.333,4.267,9.6,6.4,14.933,6.4c2.133,0,3.2,0,4.267-1.067   c0-1.067,0-2.133,0-3.2s0-3.2-1.067-4.267s-3.2-2.133-7.467-2.133c-5.333-1.067-9.6-3.2-12.8-5.333   c-2.133-2.133-4.267-5.333-4.267-9.6s2.133-8.533,5.333-10.667c3.2-3.2,7.467-4.267,12.8-4.267c3.2,0,6.4,1.067,9.6,2.133   c3.2,1.067,6.4,3.2,8.533,4.267l-5.333,7.467c-4.267-3.2-8.533-4.267-12.8-4.267C182.48,62.933,181.414,62.933,180.347,64z"/>
	<path style="fill:#415A6B;" d="M247.547,54.4V64H224.08v9.6h21.333v9.6H224.08v9.6h24.533v9.6h-35.2v-48H247.547z"/>
	<path style="fill:#415A6B;" d="M57.68,147.2c-1.067,1.067-1.067,2.133-1.067,3.2s1.067,2.133,2.133,3.2   c1.067,1.067,4.267,2.133,8.533,3.2c4.267,1.067,8.533,3.2,10.667,5.333s4.267,5.333,4.267,9.6S80.08,179.2,76.88,182.4   c-3.2,3.2-7.467,4.267-12.8,4.267c-7.467,0-14.933-3.2-20.267-8.533l5.333-7.467c5.333,4.267,9.6,6.4,14.933,6.4   c2.133,0,3.2,0,4.267-1.067c1.067-1.067,2.133-2.133,2.133-3.2c0-1.067-1.067-2.133-2.133-3.2s-3.2-2.133-7.467-2.133   c-5.333-1.067-9.6-3.2-12.8-5.333c-2.133-2.133-4.267-5.333-4.267-9.6s2.133-8.533,5.333-10.667c3.2-2.133,7.467-4.267,12.8-4.267   c3.2,0,6.4,1.067,9.6,2.133s6.4,3.2,8.533,4.267l-5.333,6.4c-4.267-3.2-8.533-4.267-12.8-4.267   C59.814,146.133,58.747,146.133,57.68,147.2z"/>
	<path style="fill:#415A6B;" d="M111.014,147.2v39.467h-10.667V147.2H86.48v-9.6h38.4v9.6H111.014z"/>
	<path style="fill:#415A6B;" d="M145.147,173.867c2.133,2.133,4.267,3.2,7.467,3.2s5.333-1.067,7.467-3.2   c2.133-2.133,2.133-5.333,2.133-9.6V137.6h10.667v26.667c0,7.467-2.133,12.8-5.333,16c-3.2,3.2-8.533,5.333-14.933,5.333   s-10.667-2.133-14.933-5.333c-4.267-4.267-6.4-9.6-6.4-16V137.6h10.667v26.667C141.947,168.533,143.014,171.733,145.147,173.867z"/>
	<path style="fill:#415A6B;" d="M220.88,144c4.267,4.267,6.4,9.6,6.4,18.133c0,7.467-2.133,13.867-6.4,18.133   s-11.733,6.4-20.267,6.4h-17.067v-48h17.067C210.214,137.6,216.614,139.733,220.88,144z M213.414,172.8   c2.133-2.133,4.267-6.4,4.267-10.667s-1.067-8.533-4.267-10.667c-2.133-2.133-6.4-4.267-11.733-4.267h-6.4v29.867h6.4   C207.014,177.067,210.214,174.933,213.414,172.8z"/>
	<path style="fill:#415A6B;" d="M257.147,186.667H246.48v-19.2l-17.067-28.8h11.733l10.667,18.133l10.667-18.133h11.733   l-17.067,28.8V186.667z"/>
</g>
<g>
	<rect x="42.747" y="443.733" style="fill:#CED6E0;" width="317.867" height="25.6"/>
	<rect x="219.814" y="376.533" style="fill:#CED6E0;" width="141.867" height="25.6"/>
	<rect x="219.814" y="309.333" style="fill:#CED6E0;" width="141.867" height="25.6"/>
	<rect x="219.814" y="242.133" style="fill:#CED6E0;" width="141.867" height="25.6"/>
</g>
<rect x="42.747" y="242.133" style="fill:#F3705A;" width="134.4" height="160"/>
<rect x="388.453" y="388.054" transform="matrix(-0.7071 0.7071 -0.7071 -0.7071 986.4528 408.0379)" style="fill:#344A5E;" width="40.533" height="40.533"/>
<path style="fill:#F3705A;" d="M441.681,403.2l-38.4,38.4l38.4,54.4c13.867,19.2,41.6,21.333,58.667,4.267s14.933-44.8-4.267-58.667  L441.681,403.2z"/>
<polygon style="fill:#F05540;" points="458.747,414.933 441.681,403.2 403.28,441.6 415.014,458.667 "/>
<circle style="fill:#8AD7F8;" cx="338.214" cy="338.133" r="82.133"/>
<path style="fill:#415A6B;" d="M406.48,406.4c-37.333,37.333-99.2,37.333-136.533,0s-37.333-99.2,0-136.533s99.2-37.333,136.533,0  C444.88,307.2,444.88,369.067,406.48,406.4z M290.214,290.133c-26.667,26.667-26.667,70.4,0,97.067  c26.667,26.667,70.4,26.667,97.067,0c26.667-26.667,26.667-70.4,0-97.067C360.614,263.467,316.88,263.467,290.214,290.133z"/>
<path style="fill:#F3705A;" d="M451.28,393.6c-5.333-5.333-13.867-5.333-19.2,0l-38.4,38.4c-5.333,5.333-5.333,13.867,0,19.2  c5.333,5.333,13.867,5.333,19.2,0l38.4-38.4C456.614,407.467,456.614,398.933,451.28,393.6z"/>
<g>
</g>
<g>
</g>
<g>
</g>
<g>
</g>
<g>
</g>
<g>
</g>
<g>
</g>
<g>
</g>
<g>
</g>
<g>
</g>
<g>
</g>
<g>
</g>
<g>
</g>
<g>
</g>
<g>
</g>
</svg>
