<?xml version="1.0" encoding="iso-8859-1"?>
<!-- Generator: Adobe Illustrator 19.0.0, SVG Export Plug-In . SVG Version: 6.00 Build 0)  -->
<svg xmlns="http://www.w3.org/2000/svg" xmlns:xlink="http://www.w3.org/1999/xlink" version="1.1" id="Layer_1" x="0px" y="0px" viewBox="0 0 512 512" style="enable-background:new 0 0 512 512;" xml:space="preserve">
<path style="fill:#F3F3F3;" d="M406.4,0H32C13.867,0,0,13.867,0,32v360.533L119.467,512H406.4c18.133,0,32-13.867,32-32V32  C438.4,13.867,424.533,0,406.4,0z"/>
<g>
	<rect x="42.667" y="42.667" style="fill:#CED6E0;" width="353.067" height="28.8"/>
	<rect x="42.667" y="114.133" style="fill:#CED6E0;" width="353.067" height="28.8"/>
	<rect x="42.667" y="185.6" style="fill:#CED6E0;" width="353.067" height="28.8"/>
	<rect x="42.667" y="257.067" style="fill:#CED6E0;" width="160" height="28.8"/>
	<polygon style="fill:#CED6E0;" points="0,392.533 119.467,512 119.467,392.533  "/>
</g>
<rect x="163.2" y="426.667" style="fill:#F3705A;" width="38.4" height="42.667"/>
<rect x="228.267" y="360.533" style="fill:#8AD7F8;" width="38.4" height="108.8"/>
<rect x="292.267" y="401.067" style="fill:#415A6B;" width="38.4" height="68.267"/>
<rect x="357.333" y="338.133" style="fill:#FFD15C;" width="38.4" height="131.2"/>
<rect x="338.126" y="40.312" transform="matrix(-0.7071 -0.7071 0.7071 -0.7071 495.3604 495.9402)" style="fill:#F05540;" width="24.533" height="210.131"/>
<rect x="356.288" y="57.991" transform="matrix(-0.7071 -0.7071 0.7071 -0.7071 513.8641 538.9632)" style="fill:#F3705A;" width="24.533" height="210.131"/>
<rect x="373.696" y="74.916" transform="matrix(-0.7071 -0.7071 0.7071 -0.7071 531.6136 580.1653)" style="fill:#F05540;" width="24.533" height="210.131"/>
<rect x="440.872" y="47.134" transform="matrix(0.7071 -0.7071 0.7071 0.7071 71.6532 340.8528)" style="fill:#F3F3F3;" width="12.8" height="73.599"/>
<path style="fill:#415A6B;" d="M477.867,105.6L508.8,74.667c4.267-4.267,4.267-10.667,0-14.933L471.467,22.4  c-4.267-4.267-10.667-4.267-14.933,0L425.6,53.333L477.867,105.6z"/>
<polygon style="fill:#FFD15C;" points="320,263.467 267.733,211.2 251.733,279.467 "/>
<path style="fill:#415A6B;" d="M275.2,274.133l-23.467,5.333L257.067,256C265.6,258.133,273.067,264.533,275.2,274.133z"/>
<g>
</g>
<g>
</g>
<g>
</g>
<g>
</g>
<g>
</g>
<g>
</g>
<g>
</g>
<g>
</g>
<g>
</g>
<g>
</g>
<g>
</g>
<g>
</g>
<g>
</g>
<g>
</g>
<g>
</g>
</svg>
