<?xml version="1.0" encoding="iso-8859-1"?>
<!-- Generator: Adobe Illustrator 19.0.0, SVG Export Plug-In . SVG Version: 6.00 Build 0)  -->
<svg xmlns="http://www.w3.org/2000/svg" xmlns:xlink="http://www.w3.org/1999/xlink" version="1.1" id="Layer_1" x="0px" y="0px" viewBox="0 0 513.067 513.067" style="enable-background:new 0 0 513.067 513.067;" xml:space="preserve">
<path style="fill:#FFD15C;" d="M512,29.331l-19.2-19.2c-24.533-20.267-55.467-2.133-55.467-2.133c-29.867,7.467-57.6,19.2-73.6,25.6  c-8.533,3.2-14.933,9.6-20.267,17.067c-13.867,24.533-25.6,49.067-34.133,74.667c-4.267,10.667,2.133,23.467,13.867,25.6  c5.333,1.067,9.6,0,9.6,0l88.533-24.533c0,0,55.467-23.467,56.533-23.467s18.133-14.933,35.2-28.8v-44.8H512z"/>
<path style="fill:#F7B64C;" d="M354.133,109.331c0,0,25.6-16,26.667-34.133c0,0-7.467-20.267-18.133-29.867  c0,0,12.8,10.667,20.267,26.667c0,0,25.6,2.133,32-20.267V31.465l-2.133-4.267l2.133,4.267v-5.333c0,0,2.133,13.867,1.067,33.067  c0,0,2.133,33.067,30.933,21.333l3.2-16c0,0-1.067-11.733,0-14.933c0,0,1.067,6.4,2.133,8.533l3.2-11.733l1.067-14.933l2.133,6.4  c0,0-1.067,13.867-3.2,18.133c-2.133,4.267-5.333,21.333-6.4,25.6c0,0,0,14.933,9.6,10.667c0,0,4.267-5.333,7.467-6.4  c0,0,6.4-10.667,7.467-13.867l-2.133,6.4L480,66.665l-5.333,11.733L480,77.331l-12.8,10.667c0,0-6.4,5.333-7.467,6.4  c0,0-30.933,8.533-39.467,7.467L377.6,96.531c0,0-11.733,13.867-20.267,19.2L354.133,109.331z"/>
<path style="fill:#344A5E;" d="M381.867,111.465l-9.6-30.933l-25.6,2.133c-3.2-5.333-6.4-9.6-10.667-12.8l6.4-24.533l-27.733-14.933  l-16,20.267c-5.333-1.067-10.667-2.133-17.067-1.067l-12.8-22.4l-30.933,9.6l2.133,25.6c-5.333,3.2-8.533,6.4-12.8,10.667  l-24.533-7.467l-14.933,27.733l19.2,16c-1.067,5.333-2.133,11.733-2.133,17.067l-22.4,12.8l9.6,30.933l25.6-2.133  c3.2,4.267,6.4,9.6,10.667,12.8l-6.4,24.533l28.8,14.933l16-19.2c5.333,1.067,10.667,2.133,17.067,1.067l12.8,22.4l30.933-9.6  l-2.133-25.6c4.267-3.2,8.533-6.4,12.8-10.667l24.533,6.4l14.933-28.8l-19.2-16c1.067-5.333,2.133-10.667,1.067-17.067  L381.867,111.465z M291.2,151.998c-14.933,4.267-29.867-3.2-34.133-18.133c-4.267-14.933,3.2-29.867,18.133-34.133  c14.933-4.267,29.867,3.2,34.133,18.133C313.6,131.731,306.133,147.731,291.2,151.998z"/>
<path style="fill:#415A6B;" d="M269.867,83.731c-23.467,7.467-36.267,32-28.8,55.467c7.467,23.467,32,36.267,55.467,28.8  c23.467-7.467,36.267-32,28.8-55.467C317.867,90.131,293.333,76.265,269.867,83.731z M291.2,151.998  c-14.933,4.267-29.867-3.2-34.133-18.133c-4.267-14.933,3.2-29.867,18.133-34.133c14.933-4.267,29.867,3.2,34.133,18.133  C313.6,131.731,306.133,147.731,291.2,151.998z"/>
<path style="fill:#FFD15C;" d="M512,51.731l-49.067,41.6c-23.467,13.867-64,7.467-64,7.467s-20.267-7.467-55.467-3.2  S307.2,122.131,307.2,122.131c-3.2,18.133,13.867,28.8,13.867,28.8c9.6,6.4,64,5.333,64,5.333c22.4-5.333,60.8,7.467,60.8,7.467  c11.733,22.4,48,36.267,66.133,42.667V51.731z"/>
<path style="fill:#F3F3F3;" d="M341.333,142.398c0,0,0,5.333-8.533,4.267c-8.533,0-19.2-5.333-19.2-5.333  s-11.733-7.467-7.467-23.467s18.133-14.933,18.133-14.933L336,103.998c0,0,7.467,1.067,4.267,6.4  C340.267,115.731,337.067,134.931,341.333,142.398z"/>
<path style="fill:#FFD15C;" d="M200.533,385.598c-22.4-13.867-45.867-25.6-71.467-36.267c-8.533-3.2-17.067-3.2-25.6-1.067  c-16,4.267-44.8,12.8-72.533,25.6c0,0-18.133,2.133-29.867,14.933v81.067c22.4,0,56.533,1.067,57.6,1.067c1.067,0,57.6-16,57.6-16  l83.2-34.133c0,0,3.2-2.133,6.4-5.333C212.267,405.865,210.133,391.998,200.533,385.598z"/>
<path style="fill:#F7B64C;" d="M155.733,400.531c0,0-28.8,3.2-41.6-9.6c0,0-6.4-20.267-4.267-34.133c0,0-3.2,16,1.067,33.067  c0,0-18.133,17.067-37.333,4.267l-11.733-16l-2.133-4.267c0,0,1.067,4.267,1.067,5.333l-3.2-4.267c0,0,7.467,11.733,19.2,25.6  c0,0,19.2,26.667-11.733,35.2l-11.733-9.6c0,0-6.4-9.6-8.533-11.733c0,0,3.2,6.4,4.267,8.533l-9.6-6.4l-9.6-10.667l3.2,6.4  c0,0,9.6,9.6,13.867,11.733c4.267,3.2,17.067,12.8,20.267,16c0,0,8.533,11.733,0,13.867c0,0-6.4-1.067-9.6-1.067  c0,0-11.733-4.267-14.933-5.333l6.4,1.067L35.2,444.265l11.733,5.333l-4.267,2.133h17.067c0,0,7.467,0,9.6,0  c0,0,28.8-12.8,35.2-19.2l27.733-27.733c0,0,17.067,4.267,27.733,2.133L155.733,400.531z"/>
<path style="fill:#F3705A;" d="M158.933,418.665c6.4,3.2,13.867,5.333,20.267,7.467l8.533,30.933l40.533-2.133l5.333-32  c6.4-2.133,12.8-5.333,19.2-9.6l28.8,16l26.667-30.933l-19.2-26.667c3.2-6.4,5.333-12.8,6.4-20.267l30.933-8.533l-3.2-40.533  l-32-5.333c-2.133-6.4-5.333-12.8-9.6-19.2l16-28.8l-30.933-26.667l-25.6,19.2c-6.4-3.2-13.867-5.333-20.267-6.4l-7.467-32  l-40.533,2.133l-5.333,32c-6.4,2.133-12.8,5.333-19.2,9.6l-28.8-16L92.8,261.865l19.2,26.667c-3.2,6.4-5.333,12.8-6.4,20.267  l-30.933,8.533l2.133,40.533l32,5.333c2.133,6.4,5.333,13.867,9.6,19.2l-16,27.733l30.933,26.667L158.933,418.665z M178.133,355.731  c-14.933-12.8-16-35.2-3.2-50.133c12.8-14.933,35.2-16,50.133-3.2c14.933,12.8,16,35.2,3.2,50.133  C214.4,367.465,192,368.531,178.133,355.731z"/>
<path style="fill:#F05540;" d="M164.267,371.731c23.467,20.267,58.667,18.133,78.933-5.333s18.133-58.667-5.333-78.933  c-23.467-20.267-58.667-18.133-78.933,5.333S140.8,351.465,164.267,371.731z M178.133,355.731c-14.933-12.8-16-35.2-3.2-50.133  c12.8-14.933,35.2-16,50.133-3.2c14.933,12.8,16,35.2,3.2,50.133C214.4,367.465,192,368.531,178.133,355.731z"/>
<path style="fill:#FFD15C;" d="M199.467,381.331c0,0-12.8-14.933-42.667,3.2c-28.8,18.133-40.533,36.267-40.533,36.267  s-27.733,28.8-54.4,33.067L0,452.798v59.733h117.333c1.067-5.333,1.067-10.667,0-14.933c0,0,22.4-33.067,42.667-42.667  c0,0,42.667-32,45.867-42.667C205.867,412.265,213.333,394.131,199.467,381.331z"/>
<path style="fill:#F3F3F3;" d="M185.6,418.665c0,0,3.2,4.267,8.533-1.067c6.4-5.333,11.733-14.933,11.733-14.933  s4.267-12.8-8.533-22.4c-12.8-9.6-23.467,0-23.467,0l-8.533,7.467c0,0-5.333,5.333,1.067,7.467  C170.667,397.331,183.467,410.131,185.6,418.665z"/>
<g>
</g>
<g>
</g>
<g>
</g>
<g>
</g>
<g>
</g>
<g>
</g>
<g>
</g>
<g>
</g>
<g>
</g>
<g>
</g>
<g>
</g>
<g>
</g>
<g>
</g>
<g>
</g>
<g>
</g>
</svg>
