<?xml version="1.0" encoding="iso-8859-1"?>
<!-- Generator: Adobe Illustrator 19.0.0, SVG Export Plug-In . SVG Version: 6.00 Build 0)  -->
<svg xmlns="http://www.w3.org/2000/svg" xmlns:xlink="http://www.w3.org/1999/xlink" version="1.1" id="Layer_1" x="0px" y="0px" viewBox="0 0 512 512" style="enable-background:new 0 0 512 512;" xml:space="preserve">
<rect x="184.533" y="401.067" style="fill:#ADB3BA;" width="144" height="85.333"/>
<path style="fill:#E8EAE9;" d="M480,421.333H32c-18.133,0-32-13.867-32-25.6V38.4C0,13.867,13.867,0,32,0h448  c18.133,0,32,13.867,32,38.4v357.333C512,406.4,498.133,421.333,480,421.333z"/>
<path style="fill:#415A6B;" d="M512,333.867V32c0-18.133-13.867-32-32-32H32C13.867,0,0,13.867,0,32v301.867H512z"/>
<rect x="32" y="32" style="fill:#8AD7F8;" width="448" height="266.667"/>
<path style="fill:#E8EAE9;" d="M412.8,512H99.2l0,0c17.067-25.6,45.867-40.533,75.733-40.533H336  C366.933,471.467,395.733,486.4,412.8,512L412.8,512z"/>
<path style="fill:#F3705A;" d="M260.267,59.733h-185.6c-8.533,0-16,7.467-16,16v126.933c0,8.533,7.467,16,16,16H259.2  c8.533,0,16-7.467,16-16V75.733C276.267,67.2,268.8,59.733,260.267,59.733z"/>
<g>
	<path style="fill:#FFFFFF;" d="M197.333,133.333l-50.133-35.2c-5.333-3.2-11.733,0-11.733,6.4v70.4c0,6.4,6.4,9.6,11.733,6.4   l50.133-35.2C200.533,141.867,200.533,136.533,197.333,133.333z"/>
	<path style="fill:#FFFFFF;" d="M267.733,262.4H67.2c-4.267,0-7.467-3.2-7.467-7.467l0,0c0-4.267,3.2-7.467,7.467-7.467h200.533   c4.267,0,7.467,3.2,7.467,7.467l0,0C276.267,259.2,272,262.4,267.733,262.4z"/>
</g>
<path style="fill:#F3705A;" d="M147.2,246.4h-80c-4.267,0-7.467,3.2-7.467,7.467s3.2,7.467,7.467,7.467h80V246.4z"/>
<circle style="fill:#415A6B;" cx="146.133" cy="254.933" r="17.067"/>
<circle style="fill:#344A5E;" cx="146.133" cy="254.933" r="7.467"/>
<polygon style="fill:#415A6B;" points="462.933,202.667 427.733,210.133 448,244.267 411.733,266.667 391.467,231.467 368,258.133   354.133,126.933 "/>
<g>
	<path style="fill:#FFFFFF;" d="M336,106.667c1.067,2.133,5.333,3.2,7.467,2.133c2.133-1.067,3.2-5.333,2.133-7.467L334.933,83.2   c-1.067-2.133-5.333-3.2-7.467-2.133c-2.133,1.067-3.2,5.333-2.133,7.467L336,106.667z"/>
	<path style="fill:#FFFFFF;" d="M333.867,121.6c1.067-3.2-1.067-6.4-4.267-6.4l-20.267-5.333c-3.2-1.067-6.4,1.067-6.4,4.267   c-1.067,3.2,1.067,6.4,4.267,6.4l20.267,5.333C330.667,125.867,333.867,124.8,333.867,121.6z"/>
	<path style="fill:#FFFFFF;" d="M336,136.533L336,136.533c-1.067-2.133-5.333-3.2-7.467-2.133L310.4,145.067   c-2.133,1.067-3.2,5.333-2.133,7.467s5.333,3.2,7.467,2.133L333.867,144C337.067,142.933,338.133,139.733,336,136.533z"/>
	<path style="fill:#FFFFFF;" d="M348.8,146.133c-3.2-1.067-6.4,1.067-6.4,4.267l-5.333,20.267c-1.067,3.2,1.067,6.4,4.267,6.4   c3.2,1.067,6.4-1.067,6.4-4.267l5.333-20.267C354.133,150.4,352,147.2,348.8,146.133z"/>
	<path style="fill:#FFFFFF;" d="M401.067,133.333L380.8,128c-3.2-1.067-6.4,1.067-6.4,4.267c-1.067,3.2,1.067,6.4,4.267,6.4   L398.933,144c3.2,1.067,6.4-1.067,6.4-4.267C405.333,136.533,403.2,133.333,401.067,133.333z"/>
	<path style="fill:#FFFFFF;" d="M379.733,118.4l18.133-10.667c2.133-1.067,3.2-5.333,2.133-7.467s-5.333-3.2-7.467-2.133   L374.4,108.8c-2.133,1.067-3.2,5.333-2.133,7.467C373.333,118.4,376.533,119.467,379.733,118.4z"/>
	<path style="fill:#FFFFFF;" d="M366.933,76.8c-3.2-1.067-6.4,1.067-6.4,4.267l-5.333,20.267c-1.067,3.2,1.067,6.4,4.267,6.4   c3.2,1.067,6.4-1.067,6.4-4.267L371.2,83.2C372.267,80,370.133,76.8,366.933,76.8z"/>
</g>
<g>
</g>
<g>
</g>
<g>
</g>
<g>
</g>
<g>
</g>
<g>
</g>
<g>
</g>
<g>
</g>
<g>
</g>
<g>
</g>
<g>
</g>
<g>
</g>
<g>
</g>
<g>
</g>
<g>
</g>
</svg>
