<?xml version="1.0" encoding="iso-8859-1"?>
<!-- Generator: Adobe Illustrator 19.0.0, SVG Export Plug-In . SVG Version: 6.00 Build 0)  -->
<svg xmlns="http://www.w3.org/2000/svg" xmlns:xlink="http://www.w3.org/1999/xlink" version="1.1" id="Layer_1" x="0px" y="0px" viewBox="0 0 512.413 512.413" style="enable-background:new 0 0 512.413 512.413;" xml:space="preserve">
<path style="fill:#F05540;" d="M441.873,269.007V171.94c0-11.733-9.6-21.333-21.333-21.333H169.873l-21.333-34.133  c-4.267-6.4-10.667-10.667-18.133-10.667H64.273c-11.733,0-21.333,9.6-21.333,21.333v140.8h398.933V269.007z"/>
<path style="fill:#F7B64C;" d="M508.007,27.94L508.007,27.94c4.267,8.533,0,16-6.4,20.267c3.2,13.867,5.333,28.8,4.267,43.733  c0,6.4-1.067,11.733-4.267,17.067c-5.333,11.733-18.133,19.2-30.933,22.4c-12.8,3.2-25.6,2.133-38.4,2.133  c-11.733,0-22.4,0-33.067,1.067c-3.2,0-7.467,1.067-10.667,2.133c-3.2,1.067-5.333,4.267-8.533,7.467  c-7.467,8.533-12.8,19.2-17.067,29.867c-2.133,6.4-3.2,12.8-6.4,18.133c-4.267,7.467-11.733,12.8-19.2,13.867h1.067  c-10.667,0-21.333-4.267-28.8-11.733c-7.467-8.533-10.667-19.2-8.533-29.867c1.067-5.333,2.133-9.6,4.267-14.933  c7.467-19.2,16-39.467,25.6-57.6c-2.133-3.2-2.133-7.467-1.067-11.733c12.8-34.133,33.067-64,71.467-69.333  c23.467-3.2,50.133,0,73.6,2.133c12.8,1.067,22.4,2.133,29.867,10.667c1.067-1.067,1.067-3.2,2.133-4.267  c1.067-4.267,6.4-2.133,5.333,2.133C511.207,23.673,510.14,25.807,508.007,27.94z"/>
<circle style="fill:#E8EAE9;" cx="301.073" cy="205.007" r="78.933"/>
<circle style="fill:#CED6E0;" cx="301.073" cy="205.007" r="59.733"/>
<path style="fill:#E8EAE9;" d="M296.807,247.673v-7.467c-8.533-1.067-16-5.333-23.467-11.733l9.6-11.733  c5.333,4.267,9.6,7.467,13.867,8.533V210.34c-7.467-2.133-12.8-4.267-16-7.467c-3.2-3.2-5.333-7.467-5.333-12.8  s2.133-10.667,5.333-13.867c4.267-4.267,8.533-6.4,14.933-6.4v-5.333h10.667v5.333c6.4,1.067,13.867,4.267,20.267,8.533  l-8.533,11.733c-4.267-3.2-8.533-5.333-11.733-6.4v14.933c7.467,2.133,12.8,4.267,16,7.467c3.2,3.2,5.333,7.467,5.333,13.867  c0,6.4-2.133,10.667-5.333,13.867c-4.267,4.267-9.6,6.4-16,6.4v7.467L296.807,247.673L296.807,247.673z M296.807,182.607  c-3.2,1.067-4.267,3.2-4.267,5.333c0,3.2,1.067,4.267,4.267,6.4V182.607z M312.807,219.94c0-1.067,0-2.133-1.067-3.2  c-1.067-1.067-2.133-2.133-4.267-2.133v12.8C311.74,225.273,312.807,223.14,312.807,219.94z"/>
<path style="fill:#FFD15C;" d="M272.273,162.34c0,0-5.333,32,14.933,45.867s39.467-1.067,48-17.067c0,0,16-33.067,21.333-59.733  c0,0,13.867-39.467,21.333-53.333L423.74,0.207h-98.133c0,0-23.467,38.4-29.867,77.867  C296.807,78.073,272.273,143.14,272.273,162.34z"/>
<g>
	<path style="fill:#F7B64C;" d="M423.74,0.207h-12.8c-5.333,8.533-21.333,35.2-24.533,42.667   c-3.2,8.533-18.133,55.467-18.133,55.467c0,1.067,0,1.067-1.067,2.133c3.2-8.533,6.4-17.067,9.6-21.333L423.74,0.207z"/>
	<path style="fill:#F7B64C;" d="M317.073,25.807c0,0,1.067,1.067,2.133,1.067s1.067,1.067,2.133,1.067   c1.067,0,2.133,1.067,3.2,1.067s2.133,1.067,4.267,1.067c1.067,1.067,2.133,2.133,4.267,2.133c3.2,1.067,6.4,2.133,9.6,3.2   c6.4,2.133,12.8,5.333,17.067,7.467c4.267,2.133,7.467,4.267,7.467,4.267s-4.267-1.067-8.533-2.133   c-5.333-1.067-11.733-3.2-17.067-6.4c-6.4-2.133-12.8-5.333-17.067-7.467c-1.067-1.067-2.133-1.067-3.2-1.067   c-1.067,0-2.133-1.067-2.133-2.133C317.073,26.873,317.073,25.807,317.073,25.807z"/>
	<path style="fill:#F7B64C;" d="M339.473,7.673c0,0,2.133,0,5.333,2.133c3.2,1.067,7.467,3.2,11.733,5.333   c4.267,2.133,8.533,5.333,10.667,8.533c1.067,1.067,2.133,3.2,3.2,3.2c0,1.067,1.067,2.133,1.067,2.133s0,0-1.067-1.067   s-2.133-2.133-3.2-2.133c-3.2-2.133-7.467-4.267-10.667-6.4c-4.267-2.133-8.533-5.333-11.733-6.4   C341.607,9.807,339.473,7.673,339.473,7.673z"/>
	<path style="fill:#F7B64C;" d="M326.673,7.673c0,0,1.067,0,3.2,0s4.267,0,7.467,0c2.133,0,5.333,1.067,7.467,1.067s3.2,0,3.2,0   s-1.067,1.067-3.2,1.067s-4.267,0-7.467,0c-2.133,0-5.333-1.067-7.467-1.067C327.74,7.673,326.673,7.673,326.673,7.673z"/>
	<path style="fill:#F7B64C;" d="M348.007,20.473L348.007,20.473c1.067,1.067,1.067,2.133,2.133,2.133c1.067,0,2.133,1.067,3.2,1.067   s3.2,0,4.267,1.067c1.067,0,1.067,1.067,2.133,2.133c0,1.067,0,1.067,0,2.133c0,1.067,0,1.067,0,2.133s0,1.067,0,2.133   c0,2.133-1.067,3.2-1.067,3.2s-1.067-1.067-1.067-3.2c0,0,0-1.067,0-2.133c0,0,0-1.067,0-2.133c0-1.067,0-1.067,0-2.133   c0,0,0-1.067-1.067-1.067c-1.067-1.067-5.333-1.067-6.4-3.2C348.007,23.673,348.007,21.54,348.007,20.473L348.007,20.473z"/>
</g>
<path style="fill:#F3F3F3;" d="M325.607,186.873c-1.067-8.533-22.4-17.067-22.4-17.067s-19.2-10.667-22.4-2.133  c-1.067,1.067-1.067,3.2-2.133,5.333c-3.2,9.6-2.133,19.2,3.2,26.667c2.133,2.133,4.267,4.267,6.4,6.4  c4.267,3.2,9.6,5.333,14.933,5.333c2.133,0,4.267,0,5.333-1.067c8.533-2.133,14.933-9.6,16-18.133  C325.607,190.073,325.607,189.007,325.607,186.873z"/>
<g>
	<path style="fill:#FFD15C;" d="M391.74,43.94c2.133-8.533,25.6-43.733,25.6-43.733h94.933V18.34l-38.4,54.4   c0,1.067-23.467,46.933-23.467,46.933c-6.4,13.867-18.133,23.467-33.067,27.733c-8.533,2.133-18.133,2.133-28.8-3.2   c-9.6-4.267-13.867-11.733-16-19.2c-2.133-8.533-2.133-17.067,1.067-24.533C373.607,99.407,388.54,52.473,391.74,43.94z"/>
	<path style="fill:#FFD15C;" d="M512.273,18.34v139.733c-12.8,8.533-42.667,6.4-53.333-16c-10.667-22.4,25.6-76.8,25.6-76.8   L512.273,18.34z"/>
</g>
<g>
	<path style="fill:#F7B64C;" d="M414.14,65.273c0,0,2.133,2.133,5.333,3.2c3.2,1.067,7.467,2.133,12.8,4.267   c4.267,2.133,8.533,3.2,11.733,5.333c3.2,1.067,5.333,3.2,5.333,3.2s-2.133,0-6.4-1.067c-3.2-1.067-8.533-2.133-12.8-3.2   c-4.267-2.133-9.6-3.2-11.733-5.333C415.207,68.473,414.14,65.273,414.14,65.273z"/>
	<path style="fill:#F7B64C;" d="M414.14,39.673c0,0,2.133,0,5.333,1.067c3.2,0,7.467,1.067,11.733,2.133   c4.267,1.067,8.533,2.133,11.733,4.267c3.2,2.133,3.2,4.267,3.2,4.267s0,0-1.067-1.067s-2.133-1.067-3.2-2.133   c-3.2-1.067-7.467-2.133-11.733-3.2c-3.2-1.067-7.467-2.133-10.667-3.2C416.273,40.74,414.14,39.673,414.14,39.673z"/>
	<path style="fill:#F7B64C;" d="M405.607,51.407c0,0,2.133,0,6.4,1.067c4.267,1.067,9.6,2.133,13.867,3.2   c5.333,1.067,10.667,2.133,13.867,3.2c4.267,1.067,6.4,1.067,6.4,1.067s-1.067,0-2.133,0c-1.067,0-3.2,1.067-5.333,0   c-2.133,0-4.267,0-6.4-1.067c-2.133,0-5.333-1.067-7.467-1.067C415.207,56.74,405.607,51.407,405.607,51.407z"/>
	<path style="fill:#F7B64C;" d="M430.14,52.473c0,0,8.533,2.133,16,6.4c3.2,2.133,7.467,5.333,8.533,7.467   c2.133,2.133,3.2,4.267,3.2,4.267s-1.067-1.067-4.267-3.2c-2.133-2.133-6.4-4.267-9.6-6.4c-3.2-2.133-7.467-4.267-9.6-5.333   C432.273,53.54,430.14,52.473,430.14,52.473z"/>
	<path style="fill:#F7B64C;" d="M512.273,86.607v3.2c-4.267-2.133-7.467-5.333-10.667-6.4c-4.267-3.2-7.467-5.333-8.533-5.333   c0,0,1.067,0,2.133,1.067c2.133,1.067,4.267,1.067,7.467,3.2C504.807,82.34,509.073,84.473,512.273,86.607z"/>
	<path style="fill:#F7B64C;" d="M512.273,67.407v3.2c-1.067,0-3.2,0-4.267,0c-1.067,0-3.2,0-4.267-1.067   c-2.133-1.067-3.2-2.133-3.2-2.133s1.067,1.067,4.267,1.067c1.067,0,2.133,0,4.267,0C509.073,67.407,511.207,67.407,512.273,67.407   z"/>
</g>
<path style="fill:#F3705A;" d="M464.273,240.207H21.607c-12.8,0-23.467,11.733-21.333,24.533L39.74,494.073  c2.133,10.667,10.667,18.133,21.333,18.133h363.733c10.667,0,19.2-7.467,21.333-18.133l39.467-229.333  C487.74,251.94,477.073,240.207,464.273,240.207z"/>
<g>
</g>
<g>
</g>
<g>
</g>
<g>
</g>
<g>
</g>
<g>
</g>
<g>
</g>
<g>
</g>
<g>
</g>
<g>
</g>
<g>
</g>
<g>
</g>
<g>
</g>
<g>
</g>
<g>
</g>
</svg>
