<?xml version="1.0" encoding="iso-8859-1"?>
<!-- Generator: Adobe Illustrator 19.0.0, SVG Export Plug-In . SVG Version: 6.00 Build 0)  -->
<svg xmlns="http://www.w3.org/2000/svg" xmlns:xlink="http://www.w3.org/1999/xlink" version="1.1" id="Layer_1" x="0px" y="0px" viewBox="0 0 512 512" style="enable-background:new 0 0 512 512;" xml:space="preserve">
<path style="fill:#F3F3F3;" d="M46.933,0C21.333,0,0,21.333,0,46.933v419.2C0,490.667,21.333,512,46.933,512h326.4  c25.6,0,46.933-21.333,46.933-46.933V226.133H467.2V0H46.933z"/>
<path style="fill:#CED6E0;" d="M419.2,292.267H512V46.933C512,21.333,490.667,0,465.067,0l0,0c-25.6,0-46.933,21.333-46.933,46.933  v245.333H419.2z"/>
<g>
	<path style="fill:#F3705A;" d="M166.4,167.467v-22.4c0-9.6-6.4-18.133-14.933-21.333c-28.8-10.667-60.8-10.667-89.6,0   c-8.533,3.2-14.933,11.733-14.933,21.333v22.4H166.4L166.4,167.467z"/>
	<circle style="fill:#F3705A;" cx="106.667" cy="73.6" r="28.8"/>
</g>
<g>
	<rect x="187.733" y="101.333" style="fill:#CED6E0;" width="184.533" height="20.267"/>
	<rect x="187.733" y="147.2" style="fill:#CED6E0;" width="103.467" height="20.267"/>
</g>
<g>
	<path style="fill:#8AD7F8;" d="M166.4,314.667v-22.4c0-9.6-6.4-18.133-14.933-21.333c-28.8-10.667-60.8-10.667-89.6,0   c-8.533,3.2-14.933,11.733-14.933,21.333v22.4H166.4z"/>
	<circle style="fill:#8AD7F8;" cx="106.667" cy="219.733" r="28.8"/>
</g>
<g>
	<rect x="187.733" y="247.467" style="fill:#CED6E0;" width="184.533" height="20.267"/>
	<rect x="187.733" y="294.4" style="fill:#CED6E0;" width="103.467" height="20.267"/>
</g>
<g>
	<path style="fill:#415A6B;" d="M166.4,460.8v-22.4c0-9.6-6.4-18.133-14.933-21.333c-28.8-10.667-60.8-10.667-89.6,0   c-8.533,3.2-14.933,11.733-14.933,21.333v22.4H166.4z"/>
	<circle style="fill:#415A6B;" cx="106.667" cy="366.933" r="28.8"/>
</g>
<g>
	<rect x="187.733" y="394.667" style="fill:#CED6E0;" width="184.533" height="20.267"/>
	<rect x="187.733" y="440.533" style="fill:#CED6E0;" width="103.467" height="20.267"/>
</g>
<g>
</g>
<g>
</g>
<g>
</g>
<g>
</g>
<g>
</g>
<g>
</g>
<g>
</g>
<g>
</g>
<g>
</g>
<g>
</g>
<g>
</g>
<g>
</g>
<g>
</g>
<g>
</g>
<g>
</g>
</svg>
