<?xml version="1.0" encoding="iso-8859-1"?>
<!-- Generator: Adobe Illustrator 19.0.0, SVG Export Plug-In . SVG Version: 6.00 Build 0)  -->
<svg xmlns="http://www.w3.org/2000/svg" xmlns:xlink="http://www.w3.org/1999/xlink" version="1.1" id="Layer_1" x="0px" y="0px" viewBox="0 0 512 512" style="enable-background:new 0 0 512 512;" xml:space="preserve">
<path style="fill:#8AD7F8;" d="M512,298.133v-83.2l-64-13.867c-4.267-14.933-9.6-27.733-17.067-40.533l36.267-55.467L408.533,46.4  L352,81.6c-12.8-7.467-26.667-12.8-40.533-17.067l-13.867-64h-83.2L200.533,65.6C185.6,68.8,172.8,75.2,160,81.6l-55.467-35.2  l-58.667,58.667l35.2,55.467c-6.4,12.8-12.8,26.667-17.067,40.533L0,214.933v83.2L64,312c4.267,14.933,10.667,27.733,17.067,40.533  L45.867,408l58.667,58.667L160,430.4c12.8,7.467,26.667,12.8,40.533,17.067l13.867,64h83.2l13.867-64  c13.867-4.267,27.733-9.6,40.533-17.067l55.467,36.267L466.133,408l-35.2-55.467c7.467-12.8,12.8-26.667,17.067-40.533L512,298.133z  "/>
<circle style="fill:#FFFFFF;" cx="256" cy="256.533" r="134.4"/>
<g>
	<path style="fill:#F3705A;" d="M434.133,242.667H406.4C400,171.2,341.333,112.533,269.867,106.133V78.4   c0-7.467-6.4-13.867-13.867-13.867c-7.467,0-13.867,6.4-13.867,13.867v27.733C170.667,112.533,112,171.2,105.6,242.667H77.867   c-7.467,0-13.867,6.4-13.867,13.867C64,264,70.4,270.4,77.867,270.4H105.6c6.4,72.533,64,130.133,136.533,136.533v27.733   c0,7.467,6.4,13.867,13.867,13.867c7.467,0,13.867-6.4,13.867-13.867v-27.733c72.533-6.4,130.133-64,136.533-136.533h27.733   C441.6,270.4,448,264,448,256.533C446.933,249.067,441.6,242.667,434.133,242.667z M269.867,379.2v-27.733   c0-7.467-6.4-13.867-13.867-13.867c-7.467,0-13.867,6.4-13.867,13.867V379.2c-57.6-5.333-103.467-51.2-108.8-108.8H160   c7.467,0,13.867-6.4,13.867-13.867c0-7.467-6.4-13.867-13.867-13.867h-27.733c6.4-57.6,52.267-103.467,109.867-109.867v27.733   c0,7.467,6.4,13.867,13.867,13.867c7.467,0,13.867-6.4,13.867-13.867V132.8c57.6,6.4,103.467,52.267,109.867,109.867H352   c-7.467,0-13.867,6.4-13.867,13.867c0,7.467,6.4,13.867,13.867,13.867h27.733C373.333,328,327.467,373.867,269.867,379.2z"/>
	<circle style="fill:#F3705A;" cx="256" cy="256.533" r="44.8"/>
	<polygon style="fill:#F3705A;" points="374.4,63.467 389.333,123.2 449.067,138.133 512,76.267 452.267,60.267 436.267,0.533  "/>
</g>
<path style="fill:#415A6B;" d="M490.667,41.067L264.533,267.2c-5.333,5.333-13.867,5.333-19.2,0l0,0  c-5.333-5.333-5.333-13.867,0-19.2L471.467,21.867c5.333-5.333,13.867-5.333,19.2,0l0,0C496,27.2,496,35.733,490.667,41.067z"/>
<g>
</g>
<g>
</g>
<g>
</g>
<g>
</g>
<g>
</g>
<g>
</g>
<g>
</g>
<g>
</g>
<g>
</g>
<g>
</g>
<g>
</g>
<g>
</g>
<g>
</g>
<g>
</g>
<g>
</g>
</svg>
