<?xml version="1.0" encoding="iso-8859-1"?>
<!-- Generator: Adobe Illustrator 19.0.0, SVG Export Plug-In . SVG Version: 6.00 Build 0)  -->
<svg xmlns="http://www.w3.org/2000/svg" xmlns:xlink="http://www.w3.org/1999/xlink" version="1.1" id="Layer_1" x="0px" y="0px" viewBox="0 0 512 512" style="enable-background:new 0 0 512 512;" xml:space="preserve">
<path style="fill:#8AD7F8;" d="M441.6,230.4l-10.667-30.933l-25.6,3.2c-3.2-5.333-7.467-9.6-11.733-13.867l6.4-25.6l-29.867-14.933  l-17.067,20.267c-5.333-1.067-11.733-1.067-17.067-1.067l-13.867-22.4L291.2,155.733l3.2,26.667c-5.333,3.2-9.6,7.467-12.8,11.733  L256,185.6l-14.933,29.867l20.267,17.067c-1.067,5.333-2.133,11.733-1.067,17.067l-22.4,12.8l10.667,30.933L275.2,291.2  c3.2,5.333,7.467,9.6,11.733,12.8l-8.533,26.667l29.867,14.933l17.067-20.267c5.333,1.067,11.733,1.067,17.067,1.067l13.867,22.4  l30.933-10.667l-3.2-25.6c5.333-3.2,9.6-7.467,12.8-11.733l25.6,6.4l14.933-29.867l-20.267-17.067  c1.067-5.333,1.067-11.733,1.067-17.067L441.6,230.4z M348.8,274.133c-14.933,5.333-30.933-3.2-36.267-18.133  c-5.333-14.933,3.2-30.933,18.133-36.267c14.933-5.333,30.933,3.2,36.267,18.133C371.2,252.8,363.733,268.8,348.8,274.133z"/>
<path style="fill:#55C0EB;" d="M325.333,203.733c-23.467,7.467-37.333,33.067-28.8,57.6c7.467,23.467,33.067,37.333,57.6,28.8  c23.467-7.467,37.333-33.067,28.8-57.6C374.4,209.067,348.8,196.267,325.333,203.733z M348.8,274.133  c-14.933,5.333-30.933-3.2-36.267-18.133c-5.333-14.933,3.2-30.933,18.133-36.267c14.933-5.333,30.933,3.2,36.267,18.133  C371.2,252.8,363.733,268.8,348.8,274.133z"/>
<path style="fill:#F3705A;" d="M508.8,106.667l3.2-25.6L491.733,73.6c-1.067-5.333-2.133-9.6-4.267-13.867l13.867-16l-16-21.333  l-19.2,9.6c-4.267-3.2-7.467-5.333-11.733-7.467L452.267,3.2L425.6,0l-7.467,20.267c-4.267,1.067-9.6,2.133-13.867,3.2l-16-12.8  l-21.333,16l9.6,19.2c-3.2,4.267-5.333,7.467-7.467,12.8L347.733,60.8l-3.2,26.667l20.267,7.467c1.067,4.267,2.133,9.6,3.2,13.867  l-13.867,16l16,21.333l19.2-9.6c4.267,3.2,7.467,5.333,11.733,7.467l2.133,21.333l26.667,3.2l7.467-20.267  c4.267-1.067,9.6-2.133,13.867-4.267l16,13.867l21.333-16L480,121.6c3.2-4.267,5.333-7.467,7.467-12.8L508.8,106.667z   M425.6,106.667c-12.8-1.067-21.333-12.8-20.267-25.6s12.8-21.333,25.6-20.267c12.8,1.067,21.333,12.8,20.267,25.6  C450.133,99.2,438.4,107.733,425.6,106.667z"/>
<path style="fill:#F05540;" d="M433.067,46.933c-20.267-2.133-38.4,11.733-40.533,32c-2.133,20.267,11.733,38.4,32,40.533  c20.267,2.133,38.4-11.733,40.533-32C467.2,68.267,453.333,50.133,433.067,46.933z M425.6,106.667  c-12.8-1.067-21.333-12.8-20.267-25.6s12.8-21.333,25.6-20.267c12.8,1.067,21.333,12.8,20.267,25.6  C450.133,99.2,438.4,107.733,425.6,106.667z"/>
<path style="fill:#415A6B;" d="M132.267,0c21.333,5.333,52.267,40.533,52.267,40.533c164.267,51.2,99.2,232.533,99.2,232.533  c-41.6,114.133-21.333,137.6-21.333,137.6H78.933c-41.6-99.2,89.6-205.867,89.6-205.867s-33.067,10.667-53.333-2.133  S76.8,208,76.8,208c-4.267,23.467-35.2,19.2-35.2,19.2C23.467,224,9.6,213.333,0,196.267l4.267-16L3.2,169.6  c0-4.267,1.067-9.6,4.267-12.8l68.267-61.867c14.933-22.4,51.2-34.133,51.2-34.133l-4.267-11.733c6.4-4.267,17.067-6.4,25.6-7.467  L132.267,0z"/>
<path style="fill:#344A5E;" d="M267.733,460.8H73.6c-10.667,0-19.2-8.533-19.2-19.2v-11.733c0-10.667,8.533-19.2,19.2-19.2h194.133  c10.667,0,19.2,8.533,19.2,19.2V441.6C288,452.267,278.4,460.8,267.733,460.8z"/>
<path style="fill:#415A6B;" d="M318.933,512H23.467v-11.733c0-21.333,18.133-39.467,39.467-39.467h216.533  c21.333,0,39.467,18.133,39.467,39.467V512z"/>
<g>
</g>
<g>
</g>
<g>
</g>
<g>
</g>
<g>
</g>
<g>
</g>
<g>
</g>
<g>
</g>
<g>
</g>
<g>
</g>
<g>
</g>
<g>
</g>
<g>
</g>
<g>
</g>
<g>
</g>
</svg>
