<?xml version="1.0" encoding="iso-8859-1"?>
<!-- Generator: Adobe Illustrator 19.0.0, SVG Export Plug-In . SVG Version: 6.00 Build 0)  -->
<svg xmlns="http://www.w3.org/2000/svg" xmlns:xlink="http://www.w3.org/1999/xlink" version="1.1" id="Layer_1" x="0px" y="0px" viewBox="0 0 515.27 515.27" style="enable-background:new 0 0 515.27 515.27;" xml:space="preserve">
<rect x="121.102" y="428.835" style="fill:#F7B64C;" width="259.2" height="34.133"/>
<g>
	<path style="fill:#FFD15C;" d="M118.968,515.235L118.968,515.235c-25.6,1.067-44.8-22.4-39.467-46.933l86.4-436.267   c3.2-18.133,19.2-30.933,37.333-32l0,0c25.6-1.067,44.8,22.4,39.467,46.933l-86.4,436.267   C153.102,501.368,138.168,515.235,118.968,515.235z"/>
	<path style="fill:#FFD15C;" d="M396.302,515.235L396.302,515.235c25.6,1.067,44.8-22.4,39.467-46.933l-86.4-435.2   c-3.2-18.133-19.2-30.933-37.333-32l0,0c-25.6-1.067-44.8,22.4-39.467,46.933l86.4,436.267   C362.168,501.368,377.102,515.235,396.302,515.235z"/>
</g>
<rect x="27.235" y="82.168" style="fill:#E8EAE9;" width="460.8" height="273.067"/>
<g>
	<path style="fill:#F3705A;" d="M488.035,87.502h-460.8c-13.867,0-25.6-11.733-25.6-25.6s11.733-25.6,25.6-25.6h460.8   c13.867,0,25.6,11.733,25.6,25.6S501.902,87.502,488.035,87.502z"/>
	<path style="fill:#F3705A;" d="M488.035,403.235h-460.8c-13.867,0-25.6-11.733-25.6-25.6c0-13.867,11.733-25.6,25.6-25.6h460.8   c13.867,0,25.6,11.733,25.6,25.6C513.635,392.568,501.902,403.235,488.035,403.235z"/>
</g>
<path style="fill:#415A6B;" d="M425.102,179.235c0-2.133,0-4.267-1.067-6.4l-35.2-56.533c-2.133-4.267-7.467-5.333-11.733-3.2  c-4.267,2.133-5.333,7.467-3.2,11.733l23.467,38.4c-53.333-10.667-107.733-4.267-155.733,21.333  c-52.267,27.733-91.733,72.533-110.933,129.067c-2.133,4.267,1.067,9.6,5.333,10.667s8.533-1.067,10.667-5.333  c36.267-102.4,142.933-161.067,248.533-138.667l-39.467,24.533c-4.267,2.133-5.333,7.467-3.2,11.733  c2.133,4.267,7.467,5.333,11.733,3.2l56.533-35.2C424.035,182.435,425.102,181.368,425.102,179.235z"/>
<g>
	<path style="fill:#4EC0AA;" d="M166.968,162.168c0-22.4-18.133-40.533-40.533-40.533s-39.467,19.2-39.467,40.533   s18.133,40.533,40.533,40.533S166.968,184.568,166.968,162.168z M127.502,185.635c-12.8,0-23.467-10.667-23.467-23.467   s10.667-23.467,23.467-23.467s23.467,10.667,23.467,23.467S139.235,185.635,127.502,185.635z"/>
	<path style="fill:#4EC0AA;" d="M276.835,248.568c-22.4,0-40.533,18.133-40.533,40.533s18.133,40.533,40.533,40.533   s40.533-18.133,40.533-40.533S299.235,248.568,276.835,248.568z M276.835,311.502c-12.8,0-23.467-10.667-23.467-23.467   c0-12.8,10.667-23.467,23.467-23.467s23.467,10.667,23.467,23.467C300.302,300.835,289.635,311.502,276.835,311.502z"/>
	<path style="fill:#4EC0AA;" d="M426.168,299.768l-16-16l16-16c3.2-3.2,3.2-8.533,0-11.733c-3.2-3.2-8.533-3.2-11.733,0l-16,16   l-16-16c-3.2-3.2-8.533-3.2-11.733,0c-3.2,3.2-3.2,8.533,0,11.733l16,16l-16,16c-3.2,3.2-3.2,8.533,0,11.733s8.533,3.2,11.733,0   l16-16l16,16c3.2,3.2,8.533,3.2,11.733,0C429.368,308.302,429.368,302.968,426.168,299.768z"/>
</g>
<g>
</g>
<g>
</g>
<g>
</g>
<g>
</g>
<g>
</g>
<g>
</g>
<g>
</g>
<g>
</g>
<g>
</g>
<g>
</g>
<g>
</g>
<g>
</g>
<g>
</g>
<g>
</g>
<g>
</g>
</svg>
