<?xml version="1.0" encoding="iso-8859-1"?>
<!-- Generator: Adobe Illustrator 19.0.0, SVG Export Plug-In . SVG Version: 6.00 Build 0)  -->
<svg xmlns="http://www.w3.org/2000/svg" xmlns:xlink="http://www.w3.org/1999/xlink" version="1.1" id="Layer_1" x="0px" y="0px" viewBox="0 0 512 512" style="enable-background:new 0 0 512 512;" xml:space="preserve">
<g>
	<path style="fill:#8AD7F8;" d="M377.6,452.267H134.4c80-72.533,51.2-204.8,51.2-204.8h141.867   C327.467,247.467,297.6,379.733,377.6,452.267z"/>
	<path style="fill:#8AD7F8;" d="M296.533,82.133c0,0-6.4-4.267-14.933-19.2h-53.333c-7.467,14.933-14.933,19.2-14.933,19.2   c-97.067,92.8-14.933,128-14.933,128h110.933C311.467,210.133,393.6,174.933,296.533,82.133z"/>
	<ellipse style="fill:#8AD7F8;" cx="256" cy="46.933" rx="45.867" ry="46.933"/>
</g>
<g>
	<path style="fill:#55C0EB;" d="M74.667,512L74.667,512h362.667l0,0c0-33.067-26.667-59.733-59.733-59.733H134.4   C101.333,452.267,74.667,478.933,74.667,512z"/>
	<path style="fill:#55C0EB;" d="M329.6,203.733H182.4c-11.733,0-22.4,9.6-22.4,22.4s9.6,22.4,22.4,22.4h148.267   c11.733,0,22.4-9.6,22.4-22.4S342.4,203.733,329.6,203.733z"/>
</g>
<g>
</g>
<g>
</g>
<g>
</g>
<g>
</g>
<g>
</g>
<g>
</g>
<g>
</g>
<g>
</g>
<g>
</g>
<g>
</g>
<g>
</g>
<g>
</g>
<g>
</g>
<g>
</g>
<g>
</g>
</svg>
