<?xml version="1.0" encoding="iso-8859-1"?>
<!-- Generator: Adobe Illustrator 19.0.0, SVG Export Plug-In . SVG Version: 6.00 Build 0)  -->
<svg xmlns="http://www.w3.org/2000/svg" xmlns:xlink="http://www.w3.org/1999/xlink" version="1.1" id="Layer_1" x="0px" y="0px" viewBox="0 0 512 512" style="enable-background:new 0 0 512 512;" xml:space="preserve">
<rect x="107.733" y="290.133" style="fill:#CED6E0;" width="68.267" height="68.267"/>
<g>
	<polygon style="fill:#F3705A;" points="155.733,311.467 169.6,297.6 141.867,270.933 114.133,297.6 129.067,311.467  "/>
	<polygon style="fill:#F3705A;" points="169.6,370.133 155.733,311.467 129.067,311.467 114.133,370.133  "/>
</g>
<g>
	<path style="fill:#344A5E;" d="M284.8,370.133l-5.333-49.067c-2.133-19.2-14.933-34.133-33.067-40.533l-41.6-12.8l-44.8,102.4   H284.8z"/>
	<path style="fill:#344A5E;" d="M123.733,370.133L78.933,268.8l-41.6,12.8C19.2,286.933,6.4,302.933,4.267,322.133l-4.267,48   H123.733z"/>
</g>
<path style="fill:#F7B64C;" d="M179.2,209.067L141.867,179.2l-37.333,29.867v32c8.533,12.8,21.333,23.467,37.333,29.867  c14.933-6.4,27.733-16,37.333-29.867V209.067z"/>
<g>
	<path style="fill:#F3F3F3;" d="M179.2,241.067c-9.6,12.8-37.333,29.867-37.333,29.867l29.867,40.533l18.133-46.933L179.2,241.067z"/>
	<path style="fill:#F3F3F3;" d="M104.533,241.067c9.6,12.8,37.333,29.867,37.333,29.867L112,311.467l-18.133-46.933L104.533,241.067   z"/>
</g>
<g>
	<polygon style="fill:#415A6B;" points="110.933,370.133 132.267,370.133 102.4,246.4 62.933,284.8 78.933,289.067 59.733,301.867     "/>
	<polygon style="fill:#415A6B;" points="172.8,370.133 225.067,301.867 204.8,289.067 221.867,284.8 182.4,246.4 152.533,370.133     "/>
</g>
<g>
	<path style="fill:#FFD15C;" d="M206.933,183.467c-2.133,11.733-9.6,20.267-16,19.2s-9.6-11.733-6.4-23.467   c3.2-11.733,9.6-20.267,16-19.2C206.933,161.067,210.133,171.733,206.933,183.467z"/>
	<path style="fill:#FFD15C;" d="M76.8,183.467c2.133,11.733,9.6,20.267,16,19.2c6.4-1.067,9.6-11.733,6.4-23.467   s-8.533-20.267-14.933-19.2C77.867,161.067,74.667,171.733,76.8,183.467z"/>
</g>
<path style="fill:#415A6B;" d="M190.933,194.133c8.533-21.333,12.8-42.667,12.8-56.533c0-34.133-27.733-61.867-61.867-61.867  S80,103.467,80,137.6c0,13.867,5.333,36.267,12.8,56.533H190.933z"/>
<path style="fill:#FFD15C;" d="M139.733,131.2c-14.933,0-27.733-2.133-39.467-6.4c-9.6,13.867-14.933,32-14.933,51.2  c0,41.6,25.6,75.733,56.533,75.733S198.4,217.6,198.4,176c0-20.267-5.333-38.4-14.933-51.2  C169.6,129.067,155.733,131.2,139.733,131.2z"/>
<path style="fill:#344A5E;" d="M388.267,75.733V54.4h-62.933c-6.4,0-10.667,4.267-10.667,10.667v180.267h-48  c-6.4,0-10.667,4.267-10.667,10.667c0,6.4,4.267,10.667,10.667,10.667h48v180.267c0,6.4,4.267,10.667,10.667,10.667h62.933v-21.333  H336v-169.6h52.267v-21.333H336v-169.6H388.267z"/>
<path style="fill:#8AD7F8;" d="M490.667,0h-86.4c-11.733,0-21.333,9.6-21.333,21.333v86.4c0,11.733,9.6,21.333,21.333,21.333h86.4  c11.733,0,21.333-9.6,21.333-21.333v-86.4C512,9.6,502.4,0,490.667,0z"/>
<path style="fill:#F3705A;" d="M490.667,190.933h-86.4c-11.733,0-21.333,9.6-21.333,21.333v86.4c0,11.733,9.6,21.333,21.333,21.333  h86.4C502.4,320,512,310.4,512,298.667v-86.4C512,200.533,502.4,190.933,490.667,190.933z"/>
<path style="fill:#8AD7F8;" d="M490.667,382.933h-86.4c-11.733,0-21.333,9.6-21.333,21.333v86.4c0,11.733,9.6,21.333,21.333,21.333  h86.4C502.4,512,512,502.4,512,490.667v-86.4C512,391.467,502.4,382.933,490.667,382.933z"/>
<rect x="414.933" y="32" style="fill:#55C0EB;" width="65.067" height="65.067"/>
<rect x="414.933" y="222.933" style="fill:#F05540;" width="65.067" height="65.067"/>
<rect x="414.933" y="414.933" style="fill:#55C0EB;" width="65.067" height="65.067"/>
<g>
</g>
<g>
</g>
<g>
</g>
<g>
</g>
<g>
</g>
<g>
</g>
<g>
</g>
<g>
</g>
<g>
</g>
<g>
</g>
<g>
</g>
<g>
</g>
<g>
</g>
<g>
</g>
<g>
</g>
</svg>
