<?xml version="1.0" encoding="iso-8859-1"?>
<!-- Generator: Adobe Illustrator 19.0.0, SVG Export Plug-In . SVG Version: 6.00 Build 0)  -->
<svg xmlns="http://www.w3.org/2000/svg" xmlns:xlink="http://www.w3.org/1999/xlink" version="1.1" id="Layer_1" x="0px" y="0px" viewBox="0 0 512 512" style="enable-background:new 0 0 512 512;" xml:space="preserve">
<polygon style="fill:#F05540;" points="512,0 306.133,0 218.667,164.267 293.333,164.267 "/>
<g>
	<path style="fill:#FFD15C;" d="M317.867,215.467H194.133v-48c0-13.867,10.667-24.533,24.533-24.533h74.667   c13.867,0,24.533,10.667,24.533,24.533V215.467z M215.467,194.133H297.6v-26.667c0-2.133-1.067-3.2-3.2-3.2h-74.667   c-2.133,0-3.2,1.067-3.2,3.2v26.667H215.467z"/>
	<circle style="fill:#FFD15C;" cx="256" cy="344.533" r="167.467"/>
</g>
<circle style="fill:#F7B64C;" cx="256" cy="344.533" r="123.733"/>
<path style="fill:#FFD15C;" d="M219.733,275.2H275.2v137.6h-29.867V301.867h-25.6V275.2z"/>
<polygon style="fill:#F3705A;" points="218.667,164.267 293.333,164.267 205.867,0 0,0 "/>
<g>
</g>
<g>
</g>
<g>
</g>
<g>
</g>
<g>
</g>
<g>
</g>
<g>
</g>
<g>
</g>
<g>
</g>
<g>
</g>
<g>
</g>
<g>
</g>
<g>
</g>
<g>
</g>
<g>
</g>
</svg>
