<?xml version="1.0" encoding="iso-8859-1"?>
<!-- Generator: Adobe Illustrator 19.0.0, SVG Export Plug-In . SVG Version: 6.00 Build 0)  -->
<svg xmlns="http://www.w3.org/2000/svg" xmlns:xlink="http://www.w3.org/1999/xlink" version="1.1" id="Layer_1" x="0px" y="0px" viewBox="0 0 512 512" style="enable-background:new 0 0 512 512;" xml:space="preserve">
<path style="fill:#344A5E;" d="M458.667,444.8H53.333l0,0c38.4-57.6,59.733-125.867,59.733-196.267V145.067  c0-78.933,64-142.933,142.933-142.933l0,0c78.933,0,142.933,64,142.933,142.933v103.467  C398.933,317.867,419.2,386.133,458.667,444.8L458.667,444.8z"/>
<g>
	<path style="fill:#66C6B9;" d="M210.133,512L160,357.333l-71.467,24.533c-45.867,16-76.8,59.733-76.8,108.8V512H210.133z"/>
	<path style="fill:#66C6B9;" d="M500.267,512v-21.333c0-49.067-30.933-92.8-76.8-108.8L352,357.333L301.867,512H500.267z"/>
</g>
<polygon style="fill:#CED6E0;" points="301.867,512 345.6,373.333 183.467,373.333 210.133,512 "/>
<polygon style="fill:#F7B64C;" points="326.4,258.133 256,202.667 185.6,258.133 185.6,317.867 256,373.333 326.4,317.867 "/>
<path style="fill:#FFD15C;" d="M361.6,167.467c0,91.733-46.933,166.4-105.6,166.4s-105.6-74.667-105.6-166.4c0-3.2,0-22.4,0-25.6  l0,0c5.333-1.067,99.2-10.667,128-55.467c25.6,21.333,43.733,32,81.067,38.4c1.067,5.333,1.067,27.733,1.067,34.133  C361.6,161.067,361.6,164.267,361.6,167.467z"/>
<path style="fill:#E8EAE9;" d="M389.333,218.667c-3.2,0-6.4,2.133-7.467,6.4c-2.133,29.867-25.6,53.333-55.467,55.467l-50.133,4.267  v13.867l51.2-4.267c36.267-3.2,65.067-32,67.2-68.267C395.733,221.867,393.6,218.667,389.333,218.667z"/>
<polygon style="fill:#F3F3F3;" points="326.4,317.867 256,373.333 314.667,441.6 345.6,360.533 "/>
<polygon style="fill:#4EC0AA;" points="342.4,512 378.667,428.8 345.6,400 397.867,394.667 333.867,333.867 291.2,512 "/>
<g>
	<path style="fill:#F3705A;" d="M124.8,187.733C114.133,141.867,126.933,93.867,160,60.8c26.667-25.6,59.733-39.467,96-39.467   S325.333,35.2,350.933,60.8c34.133,34.133,46.933,82.133,35.2,126.933h22.4C419.2,136.533,404.267,83.2,365.867,44.8   C337.067,16,297.6,0,256,0s-81.067,16-109.867,45.867C108.8,83.2,92.8,137.6,103.467,188.8H124.8V187.733z"/>
	<path style="fill:#F3705A;" d="M370.133,241.067c22.4,3.2,42.667-10.667,46.933-33.067c3.2-22.4-10.667-42.667-33.067-46.933   L370.133,241.067z"/>
</g>
<path style="fill:#E8EAE9;" d="M357.333,250.667c6.4,1.067,12.8-3.2,13.867-9.6l13.867-80c1.067-6.4-3.2-12.8-9.6-13.867  c-6.4-1.067-12.8,3.2-13.867,9.6l-13.867,80C345.6,243.2,349.867,249.6,357.333,250.667z"/>
<path style="fill:#F3705A;" d="M141.867,241.067c-22.4,3.2-42.667-10.667-46.933-33.067c-3.2-22.4,10.667-42.667,33.067-46.933  L141.867,241.067z"/>
<path style="fill:#E8EAE9;" d="M154.667,250.667c-6.4,1.067-12.8-3.2-13.867-9.6l-13.867-80c-1.067-6.4,3.2-12.8,9.6-13.867  c6.4-1.067,12.8,3.2,13.867,9.6l13.867,80C166.4,243.2,162.133,249.6,154.667,250.667z"/>
<ellipse style="fill:#344A5E;" cx="263.467" cy="292.267" rx="19.2" ry="16"/>
<polygon style="fill:#F3F3F3;" points="185.6,317.867 256,373.333 197.333,441.6 166.4,360.533 "/>
<polygon style="fill:#4EC0AA;" points="169.6,512 133.333,428.8 166.4,400 114.133,394.667 178.133,333.867 220.8,512 "/>
<g>
</g>
<g>
</g>
<g>
</g>
<g>
</g>
<g>
</g>
<g>
</g>
<g>
</g>
<g>
</g>
<g>
</g>
<g>
</g>
<g>
</g>
<g>
</g>
<g>
</g>
<g>
</g>
<g>
</g>
</svg>
