<?xml version="1.0" encoding="iso-8859-1"?>
<!-- Generator: Adobe Illustrator 19.0.0, SVG Export Plug-In . SVG Version: 6.00 Build 0)  -->
<svg xmlns="http://www.w3.org/2000/svg" xmlns:xlink="http://www.w3.org/1999/xlink" version="1.1" id="Layer_1" x="0px" y="0px" viewBox="0 0 512 512" style="enable-background:new 0 0 512 512;" xml:space="preserve">
<g>
	<path style="fill:#E8EAE9;" d="M276.267,366.933v-23.467h-21.333v23.467c-16,4.267-28.8,19.2-28.8,37.333   c0,21.333,17.067,39.467,39.467,39.467s39.467-17.067,39.467-39.467C305.067,386.133,292.267,371.2,276.267,366.933z M265.6,422.4   c-9.6,0-18.133-7.467-18.133-18.133c0-9.6,7.467-18.133,18.133-18.133c9.6,0,18.133,7.467,18.133,18.133   C283.733,413.867,275.2,422.4,265.6,422.4z"/>
	<path style="fill:#E8EAE9;" d="M453.333,353.067H77.867c-18.133,0-32-13.867-32-32V48h439.467v273.067   C485.333,339.2,471.467,353.067,453.333,353.067z"/>
</g>
<rect x="98.133" y="158.933" style="fill:#66C6B9;" width="58.667" height="141.867"/>
<rect x="189.867" y="248.533" style="fill:#415A6B;" width="58.667" height="52.267"/>
<rect x="282.667" y="158.933" style="fill:#F3705A;" width="58.667" height="141.867"/>
<rect x="374.4" y="103.467" style="fill:#8AD7F8;" width="58.667" height="196.267"/>
<path style="fill:#415A6B;" d="M485.333,53.333H45.867C30.933,53.333,19.2,41.6,19.2,26.667S30.933,0,45.867,0h439.467  C500.267,0,512,11.733,512,26.667S500.267,53.333,485.333,53.333z"/>
<path style="fill:#F3705A;" d="M228.267,466.133H21.333l0,0c20.267-29.867,30.933-64,30.933-100.267V313.6  c0-40.533,33.067-72.533,72.533-72.533l0,0c40.533,0,72.533,33.067,72.533,72.533v52.267  C197.333,402.133,208,437.333,228.267,466.133L228.267,466.133z"/>
<path style="fill:#F7B64C;" d="M162.133,422.4l-9.6,89.6h-76.8v-89.6l0,0c9.6-3.2,16-10.667,16-20.267v-32l33.067-25.6l33.067,25.6  v32c0,9.6,6.4,17.067,14.933,20.267H162.133z"/>
<path style="fill:#E8EAE9;" d="M154.667,435.2V512h-60.8v-77.867c7.467,8.533,18.133,12.8,30.933,12.8  C136.533,448,147.2,442.667,154.667,435.2z"/>
<g>
	<path style="fill:#415A6B;" d="M248.533,512v-34.133c0-18.133-10.667-34.133-27.733-39.467l-57.6-21.333L144,512H248.533z"/>
	<path style="fill:#415A6B;" d="M0,512v-34.133c0-18.133,10.667-34.133,27.733-39.467l57.6-21.333l19.2,94.933H0z"/>
</g>
<g>
	<path style="fill:#FFD15C;" d="M186.667,346.667c-2.133,11.733-9.6,19.2-14.933,18.133c-6.4-1.067-8.533-11.733-6.4-22.4   c2.133-11.733,9.6-19.2,14.933-18.133C185.6,325.333,188.8,336,186.667,346.667z"/>
	<path style="fill:#FFD15C;" d="M62.933,346.667c2.133,11.733,9.6,19.2,14.933,18.133c5.333-1.067,8.533-11.733,6.4-22.4   c-2.133-11.733-9.6-19.2-14.933-18.133S59.733,336,62.933,346.667z"/>
	<path style="fill:#FFD15C;" d="M178.133,325.333c0,46.933-24.533,85.333-54.4,85.333s-54.4-38.4-54.4-85.333   c0-2.133,0-11.733,0-12.8l0,0c2.133-1.067,51.2-5.333,65.067-28.8c12.8,10.667,22.4,17.067,41.6,19.2   c0,3.2,1.067,13.867,1.067,17.067C178.133,322.133,178.133,323.2,178.133,325.333z"/>
</g>
<g>
	<polygon style="fill:#344A5E;" points="66.133,469.333 91.733,512 114.133,512 89.6,410.667 61.867,446.933 83.2,449.067  "/>
	<polygon style="fill:#344A5E;" points="157.867,512 182.4,469.333 166.4,449.067 187.733,446.933 160,410.667 135.467,512  "/>
</g>
<g>
</g>
<g>
</g>
<g>
</g>
<g>
</g>
<g>
</g>
<g>
</g>
<g>
</g>
<g>
</g>
<g>
</g>
<g>
</g>
<g>
</g>
<g>
</g>
<g>
</g>
<g>
</g>
<g>
</g>
</svg>
