<?xml version="1.0" encoding="iso-8859-1"?>
<!-- Generator: Adobe Illustrator 19.0.0, SVG Export Plug-In . SVG Version: 6.00 Build 0)  -->
<svg xmlns="http://www.w3.org/2000/svg" xmlns:xlink="http://www.w3.org/1999/xlink" version="1.1" id="Layer_1" x="0px" y="0px" viewBox="0 0 512 512" style="enable-background:new 0 0 512 512;" xml:space="preserve">
<path style="fill:#8AD7F8;" d="M404.267,256c0-6.4,3.2-11.733,8.533-16c6.4-4.267,10.667-10.667,10.667-17.067  c0-13.867-18.133-25.6-39.467-25.6c-22.4,0-39.467,11.733-39.467,25.6c0,6.4,4.267,12.8,10.667,17.067  c2.133,2.133,4.267,4.267,6.4,6.4c1.067,3.2,2.133,5.333,2.133,8.533H256v107.733c-6.4,0-11.733-3.2-16-8.533  c-4.267-6.4-10.667-10.667-17.067-10.667c-13.867,0-25.6,18.133-25.6,39.467c0,22.4,11.733,39.467,25.6,39.467  c6.4,0,12.8-4.267,17.067-10.667c2.133-2.133,4.267-4.267,6.4-6.4c3.2-1.067,5.333-2.133,8.533-2.133V512h224  c18.133,0,32-13.867,32-32V256H404.267z"/>
<path style="fill:#FFD15C;" d="M313.6,128c0,22.4-11.733,39.467-25.6,39.467c-6.4,0-12.8-4.267-17.067-10.667  c-3.2-5.333-9.6-8.533-16-8.533V256h-105.6c0-6.4,3.2-11.733,8.533-16c6.4-4.267,10.667-10.667,10.667-17.067  c0-13.867-18.133-25.6-39.467-25.6c-22.4,0-39.467,11.733-39.467,25.6c0,6.4,4.267,12.8,10.667,17.067  c2.133,2.133,4.267,4.267,6.4,6.4c1.067,3.2,2.133,5.333,2.133,8.533H0V32C0,13.867,13.867,0,32,0h224v107.733  c3.2,0,6.4-1.067,8.533-2.133c3.2-1.067,5.333-3.2,6.4-6.4C275.2,92.8,281.6,88.533,288,88.533  C302.933,88.533,313.6,105.6,313.6,128z"/>
<path style="fill:#F3705A;" d="M480,0H256v107.733c3.2,0,6.4-1.067,8.533-2.133c3.2-1.067,5.333-3.2,6.4-6.4  C275.2,92.8,281.6,88.533,288,88.533c13.867,0,25.6,18.133,25.6,39.467c0,22.4-11.733,39.467-25.6,39.467  c-6.4,0-12.8-4.267-17.067-10.667c-3.2-5.333-9.6-8.533-16-8.533V256h107.733c0-3.2-1.067-6.4-2.133-8.533  c-1.067-3.2-3.2-5.333-6.4-6.4c-6.4-4.267-10.667-10.667-10.667-17.067c0-13.867,18.133-25.6,39.467-25.6  c22.4,0,39.467,11.733,39.467,25.6c0,6.4-4.267,12.8-10.667,17.067c-5.333,3.2-8.533,9.6-8.533,16H512V32  C512,13.867,498.133,0,480,0z"/>
<path style="fill:#415A6B;" d="M224,344.533c6.4,0,12.8,4.267,17.067,10.667c3.2,5.333,9.6,8.533,16,8.533V256H149.333  c0-6.4,3.2-11.733,8.533-16c6.4-4.267,10.667-10.667,10.667-17.067c0-13.867-18.133-25.6-39.467-25.6  c-22.4,0-39.467,11.733-39.467,25.6c0,6.4,4.267,12.8,10.667,17.067c2.133,2.133,4.267,4.267,6.4,6.4  c1.067,3.2,2.133,5.333,2.133,8.533H0v224c0,18.133,13.867,32,32,32h224V404.267c-3.2,0-6.4,1.067-8.533,2.133  c-3.2,1.067-5.333,3.2-6.4,6.4C236.8,419.2,230.4,423.467,224,423.467c-13.867,0-25.6-18.133-25.6-39.467  C198.4,361.6,210.133,344.533,224,344.533z"/>
<g>
</g>
<g>
</g>
<g>
</g>
<g>
</g>
<g>
</g>
<g>
</g>
<g>
</g>
<g>
</g>
<g>
</g>
<g>
</g>
<g>
</g>
<g>
</g>
<g>
</g>
<g>
</g>
<g>
</g>
</svg>
