<?xml version="1.0" encoding="iso-8859-1"?>
<!-- Generator: Adobe Illustrator 19.0.0, SVG Export Plug-In . SVG Version: 6.00 Build 0)  -->
<svg xmlns="http://www.w3.org/2000/svg" xmlns:xlink="http://www.w3.org/1999/xlink" version="1.1" id="Layer_1" x="0px" y="0px" viewBox="0 0 512 512" style="enable-background:new 0 0 512 512;" xml:space="preserve">
<rect x="194.133" y="393.6" style="fill:#CED6E0;" width="124.8" height="118.4"/>
<g>
	<polygon style="fill:#F3F3F3;" points="324.267,305.067 256,358.4 312.533,425.6 343.467,346.667  "/>
	<polygon style="fill:#F3F3F3;" points="187.733,305.067 168.533,346.667 199.467,425.6 256,358.4  "/>
</g>
<g>
	<polygon style="fill:#F3705A;" points="280.533,432 307.2,407.467 256,358.4 204.8,407.467 231.467,432  "/>
	<polygon style="fill:#F3705A;" points="299.733,512 280.533,432 231.467,432 212.267,512  "/>
</g>
<path style="fill:#344A5E;" d="M510.933,512l-6.4-60.8c-3.2-34.133-26.667-62.933-58.667-72.533L370.133,355.2L300.8,512H510.933z"/>
<polygon style="fill:#415A6B;" points="332.8,512 405.333,416 370.133,391.467 400,385.067 328.533,315.733 280.533,512 "/>
<path style="fill:#344A5E;" d="M211.2,512l-69.333-156.8l-75.733,23.467c-32,9.6-55.467,38.4-58.667,72.533l-6.4,60.8H211.2z"/>
<polygon style="fill:#415A6B;" points="179.2,512 231.467,512 183.467,315.733 112,385.067 141.867,391.467 106.667,416 "/>
<circle style="fill:#FFD15C;" cx="256" cy="179.2" r="179.2"/>
<circle style="fill:#F7B64C;" cx="256" cy="179.2" r="134.4"/>
<path style="fill:#FFD15C;" d="M247.467,265.6v-14.933c-18.133-3.2-34.133-10.667-49.067-24.533l19.2-23.467  c10.667,9.6,21.333,16,29.867,18.133v-30.933c-14.933-4.267-25.6-8.533-32-14.933c-6.4-6.4-10.667-16-10.667-27.733  s4.267-22.4,11.733-29.867c7.467-7.467,18.133-12.8,30.933-13.867V92.8h22.4v10.667c13.867,2.133,27.733,7.467,41.6,17.067  L294.4,145.067c-8.533-6.4-17.067-10.667-24.533-12.8V163.2c14.933,4.267,26.667,9.6,34.133,16c7.467,6.4,10.667,16,10.667,27.733  s-4.267,22.4-11.733,29.867c-8.533,7.467-19.2,12.8-32,13.867V265.6H247.467z M247.467,132.267c-6.4,2.133-9.6,6.4-9.6,11.733  c0,5.333,3.2,9.6,9.6,12.8V132.267z M280.533,209.067c0-3.2-1.067-5.333-2.133-7.467c-1.067-2.133-4.267-4.267-8.533-5.333v25.6  C276.267,219.733,280.533,215.467,280.533,209.067z"/>
<g>
</g>
<g>
</g>
<g>
</g>
<g>
</g>
<g>
</g>
<g>
</g>
<g>
</g>
<g>
</g>
<g>
</g>
<g>
</g>
<g>
</g>
<g>
</g>
<g>
</g>
<g>
</g>
<g>
</g>
</svg>
