<?xml version="1.0" encoding="iso-8859-1"?>
<!-- Generator: Adobe Illustrator 19.0.0, SVG Export Plug-In . SVG Version: 6.00 Build 0)  -->
<svg xmlns="http://www.w3.org/2000/svg" xmlns:xlink="http://www.w3.org/1999/xlink" version="1.1" id="Layer_1" x="0px" y="0px" viewBox="0 0 512.533 512.533" style="enable-background:new 0 0 512.533 512.533;" xml:space="preserve">
<circle style="fill:#F3F3F3;" cx="256.133" cy="212.8" r="146.133"/>
<circle style="fill:#FFFFFF;" cx="256.133" cy="212.8" r="146.133"/>
<path style="fill:#F3705A;" d="M406.533,62.4c-83.2-83.2-217.6-83.2-299.733,0c-83.2,83.2-83.2,217.6,0,299.733l149.333,150.4  l150.4-150.4C488.667,280,488.667,145.6,406.533,62.4z M256.133,358.933C175.067,358.933,110,293.867,110,212.8  S175.067,66.667,256.133,66.667S402.267,131.733,402.267,212.8S337.2,358.933,256.133,358.933z"/>
<g>
	<path style="fill:#FFD15C;" d="M299.867,101.867c-11.733-3.2-23.467,2.133-24.533,7.467c2.133-5.333-6.4-12.8-19.2-12.8   s-21.333,6.4-19.2,12.8c-1.067-6.4-11.733-10.667-24.533-7.467c-11.733,3.2-18.133,10.667-14.933,14.933   c13.867,17.067,27.733,34.133,34.133,52.267c2.133,5.333,5.333,9.6,9.6,9.6H270c4.267,0,7.467-4.267,9.6-9.6   c6.4-18.133,21.333-35.2,34.133-52.267C318,111.467,311.6,104,299.867,101.867z"/>
	<path style="fill:#FFD15C;" d="M256.133,158.4L256.133,158.4c-24.533,0-49.067,9.6-65.067,28.8   c-18.133,20.267-28.8,46.933-28.8,73.6l0,0c0,37.333,30.933,67.2,68.267,67.2h51.2c37.333,0,69.333-29.867,69.333-67.2v-1.067   c0-26.667-10.667-53.333-28.8-73.6C305.2,168,280.667,158.4,256.133,158.4z"/>
</g>
<path style="fill:#F7B64C;" d="M254,296v-8.533c-10.667-1.067-21.333-5.333-29.867-12.8L232.667,264  c6.4,5.333,13.867,9.6,20.267,10.667V251.2c-8.533-2.133-16-5.333-20.267-8.533c-4.267-3.2-6.4-8.533-6.4-16  c0-6.4,2.133-12.8,7.467-17.067s10.667-6.4,19.2-7.467v-6.4h7.467v7.467c8.533,1.067,17.067,3.2,24.533,8.533l-7.467,10.667  c-5.333-4.267-10.667-6.4-17.067-7.467v22.4l0,0c9.6,2.133,16,5.333,20.267,8.533s6.4,8.533,6.4,16c0,7.467-2.133,12.8-7.467,17.067  c-5.333,4.267-11.733,6.4-19.2,7.467v8.533H254V296z M245.467,219.2c-2.133,2.133-3.2,4.267-3.2,6.4c0,3.2,1.067,4.267,2.133,6.4  c1.067,1.067,4.267,3.2,9.6,4.267V216C249.733,216,247.6,217.067,245.467,219.2z M270,271.467c2.133-2.133,3.2-4.267,3.2-7.467  c0-3.2-1.067-5.333-2.133-6.4c-2.133-2.133-5.333-3.2-9.6-4.267v21.333C264.667,274.667,267.867,273.6,270,271.467z"/>
<g>
</g>
<g>
</g>
<g>
</g>
<g>
</g>
<g>
</g>
<g>
</g>
<g>
</g>
<g>
</g>
<g>
</g>
<g>
</g>
<g>
</g>
<g>
</g>
<g>
</g>
<g>
</g>
<g>
</g>
</svg>
