<?xml version="1.0" encoding="iso-8859-1"?>
<!-- Generator: Adobe Illustrator 19.0.0, SVG Export Plug-In . SVG Version: 6.00 Build 0)  -->
<svg xmlns="http://www.w3.org/2000/svg" xmlns:xlink="http://www.w3.org/1999/xlink" version="1.1" id="Layer_1" x="0px" y="0px" viewBox="0 0 512 512" style="enable-background:new 0 0 512 512;" xml:space="preserve">
<g>
	<path style="fill:#66C6B9;" d="M451.2,378.667c-186.667-8.533-128,86.4-128,86.4S354.133,494.933,451.2,378.667z"/>
	<path style="fill:#66C6B9;" d="M53.333,308.267c289.067-16,198.4,131.2,198.4,131.2S203.733,487.467,53.333,308.267z"/>
</g>
<path style="fill:#415A6B;" d="M307.2,512c0-10.667,3.2-20.267,7.467-28.8c19.2-33.067,46.933-60.8,80-78.933  c-35.2,14.933-65.067,39.467-88.533,71.467V327.467h-33.067v124.8c-35.2-48-82.133-84.267-134.4-106.667  c48,25.6,88.533,62.933,117.333,107.733c11.733,17.067,17.067,37.333,17.067,58.667H307.2z"/>
<circle style="fill:#FFD15C;" cx="291.2" cy="167.467" r="167.467"/>
<circle style="fill:#F7B64C;" cx="291.2" cy="167.467" r="124.8"/>
<path style="fill:#FFD15C;" d="M282.667,248.533v-13.867c-17.067-2.133-32-10.667-45.867-22.4l18.133-22.4  c10.667,8.533,19.2,14.933,27.733,17.067v-29.867c-13.867-3.2-23.467-8.533-30.933-13.867c-6.4-6.4-9.6-14.933-9.6-25.6  c0-11.733,3.2-20.267,10.667-27.733c7.467-7.467,17.067-11.733,28.8-12.8V86.4h21.333V96c12.8,2.133,26.667,7.467,39.467,16  l-16,23.467c-8.533-6.4-16-9.6-23.467-11.733v28.8c13.867,3.2,24.533,8.533,32,14.933c6.4,6.4,10.667,14.933,10.667,26.667  s-4.267,20.267-11.733,27.733c-7.467,7.467-18.133,11.733-29.867,12.8v13.867H282.667z M282.667,123.733  c-5.333,2.133-8.533,5.333-8.533,10.667s3.2,9.6,8.533,11.733V123.733z M313.6,195.2c0-3.2-1.067-5.333-2.133-6.4  c-1.067-2.133-4.267-3.2-7.467-5.333V208C310.4,205.867,313.6,201.6,313.6,195.2z"/>
<g>
</g>
<g>
</g>
<g>
</g>
<g>
</g>
<g>
</g>
<g>
</g>
<g>
</g>
<g>
</g>
<g>
</g>
<g>
</g>
<g>
</g>
<g>
</g>
<g>
</g>
<g>
</g>
<g>
</g>
</svg>
