<?xml version="1.0" encoding="iso-8859-1"?>
<!-- Generator: Adobe Illustrator 19.0.0, SVG Export Plug-In . SVG Version: 6.00 Build 0)  -->
<svg xmlns="http://www.w3.org/2000/svg" xmlns:xlink="http://www.w3.org/1999/xlink" version="1.1" id="Layer_1" x="0px" y="0px" viewBox="0 0 513.067 513.067" style="enable-background:new 0 0 513.067 513.067;" xml:space="preserve">
<g>
	<path style="fill:#415A6B;" d="M512.533,512C498.667,381.867,468.8,375.467,468.8,375.467c-24.533,5.333-52.267,121.6-52.267,121.6   c1.067,5.333,2.133,10.667,2.133,16h93.867V512z"/>
	<path style="fill:#415A6B;" d="M94.4,512c1.067-5.333,1.067-10.667,2.133-16c0,0-28.8-116.267-52.267-121.6   c0,0-30.933,6.4-43.733,136.533H94.4V512z"/>
</g>
<path style="fill:#344A5E;" d="M89.067,512H424c14.933-69.333,34.133-130.133,44.8-136.533l-116.267-54.4l-96,29.867l-96-29.867  l-116.267,54.4C54.933,381.867,74.133,442.667,89.067,512z"/>
<polygon style="fill:#CED6E0;" points="315.2,332.8 256.533,350.933 198.933,332.8 201.067,498.133 312,498.133 "/>
<polygon style="fill:#F3705A;" points="216,512 297.067,512 272.533,411.733 289.6,382.933 256.533,350.933 223.467,382.933   240.533,411.733 "/>
<path style="fill:#E8EAE9;" d="M256.533,349.867c0,0,57.6-37.333,61.867-69.333l22.4,38.4l-40.533,86.4L256.533,349.867z"/>
<polygon style="fill:#415A6B;" points="315.2,512 386.667,386.133 353.6,369.067 387.733,354.133 331.2,299.733 280,512 "/>
<path style="fill:#E8EAE9;" d="M256.533,349.867c0,0-57.6-37.333-61.867-69.333l-22.4,38.4L212.8,406.4L256.533,349.867z"/>
<polygon style="fill:#415A6B;" points="126.4,386.133 197.867,512 233.067,512 181.867,299.733 125.333,354.133 159.467,369.067 "/>
<path style="fill:#8AD7F8;" d="M354.667,285.867l27.733-27.733L360,218.667c4.267-8.533,8.533-17.067,10.667-26.667l43.733-12.8  v-39.467l-43.733-12.8c-2.133-9.6-6.4-18.133-10.667-26.667L382.4,60.8l-27.733-27.733l-39.467,22.4  c-8.533-4.267-17.067-8.533-26.667-10.667L276.8,0h-39.467l-12.8,43.733c-9.6,2.133-18.133,6.4-26.667,10.667L158.4,32  l-27.733,27.733l22.4,39.467c-4.267,8.533-8.533,17.067-10.667,26.667l-43.733,12.8v39.467l43.733,12.8  c2.133,9.6,6.4,18.133,10.667,26.667l-22.4,39.467L158.4,284.8l39.467-22.4c8.533,4.267,17.067,8.533,26.667,10.667l12.8,43.733  H276.8l12.8-43.733c9.6-2.133,18.133-6.4,26.667-10.667L354.667,285.867z M214.933,201.6c-23.467-23.467-23.467-60.8,0-83.2  c23.467-23.467,60.8-23.467,83.2,0c23.467,23.467,23.467,60.8,0,83.2C275.733,224,238.4,224,214.933,201.6z"/>
<g>
</g>
<g>
</g>
<g>
</g>
<g>
</g>
<g>
</g>
<g>
</g>
<g>
</g>
<g>
</g>
<g>
</g>
<g>
</g>
<g>
</g>
<g>
</g>
<g>
</g>
<g>
</g>
<g>
</g>
</svg>
