<?xml version="1.0" encoding="iso-8859-1"?>
<!-- Generator: Adobe Illustrator 19.0.0, SVG Export Plug-In . SVG Version: 6.00 Build 0)  -->
<svg xmlns="http://www.w3.org/2000/svg" xmlns:xlink="http://www.w3.org/1999/xlink" version="1.1" id="Layer_1" x="0px" y="0px" viewBox="0 0 513.067 513.067" style="enable-background:new 0 0 513.067 513.067;" xml:space="preserve">
<rect y="116.8" style="fill:#F3F3F3;" width="512" height="270.933"/>
<rect y="116.8" style="fill:#66C6B9;" width="512" height="50.133"/>
<g>
	<rect x="41.6" y="210.667" style="fill:#CED6E0;" width="429.867" height="17.067"/>
	<rect x="41.6" y="267.2" style="fill:#CED6E0;" width="429.867" height="17.067"/>
	<rect x="41.6" y="324.8" style="fill:#CED6E0;" width="99.2" height="17.067"/>
</g>
<path style="fill:#F3705A;" d="M493.867,184l-102.4,102.4c-19.2,19.2-41.6,36.267-65.067,50.133l-7.467-7.467  C332.8,305.6,349.867,283.2,369.067,264l102.4-102.4L493.867,184z"/>
<path style="fill:#CED6E0;" d="M318.933,330.133c-3.2,5.333-6.4,10.667-8.533,16c5.333-3.2,10.667-5.333,16-8.533L318.933,330.133z"/>
<g>
	<path style="fill:#F3705A;" d="M386.133,290.667c1.067-1.067,3.2-3.2,4.267-4.267l2.133-2.133l-22.4-22.4L368,264   c-1.067,1.067-3.2,3.2-4.267,4.267L386.133,290.667z"/>
	<path style="fill:#F3705A;" d="M490.667,181.867l-16-16l9.6-9.6c3.2-3.2,8.533-3.2,11.733,0l4.267,4.267   c3.2,3.2,3.2,8.533,0,11.733L490.667,181.867z"/>
	
		<rect x="446.917" y="183.999" transform="matrix(-0.7071 -0.7071 0.7071 -0.7071 657.9703 654.4056)" style="fill:#F3705A;" width="35.2" height="13.867"/>
	<path style="fill:#F3705A;" d="M437.333,257.6c-1.067-1.067-1.067-3.2,0-5.333l41.6-41.6L461.867,193.6   c-1.067-1.067-1.067-3.2,0-5.333c1.067-1.067,3.2-1.067,5.333,0l19.2,19.2c1.067,1.067,1.067,3.2,0,5.333l-44.8,44.8   C440.533,258.667,438.4,258.667,437.333,257.6z"/>
</g>
<path style="fill:#F7B64C;" d="M339.2,278.933c7.467,0,14.933-4.267,22.4-4.267c10.667-1.067,22.4,3.2,34.133,2.133  c3.2,0,5.333-1.067,8.533-1.067c2.133,0,5.333,0,7.467,0c2.133,0,3.2-1.067,5.333-1.067c2.133-1.067,4.267-2.133,7.467-2.133  c3.2-1.067,6.4-2.133,7.467-4.267c10.667-4.267,18.133-13.867,19.2-24.533c0,2.133,0,3.2,0,5.333c3.2-3.2,4.267-8.533,1.067-11.733  c-1.067-1.067-2.133-3.2-3.2-4.267c-2.133-3.2-2.133-6.4-2.133-9.6c-1.067-3.2-2.133-6.4-3.2-9.6s-2.133-6.4-3.2-9.6  c0,0,0,0,0-1.067c0,0,0,0-1.067,0s-2.133,1.067-3.2,1.067c1.067-3.2,1.067-7.467,2.133-10.667c-1.067,3.2-2.133,5.333-2.133,8.533  c0,1.067-1.067,3.2-2.133,4.267c-1.067,2.133-4.267,3.2-5.333,6.4c0-3.2,0-5.333,0-8.533c-3.2,4.267-3.2,9.6-5.333,13.867  c-2.133,4.267-6.4,7.467-9.6,10.667c-5.333,4.267-9.6,10.667-17.067,11.733c-3.2,0-5.333-2.133-6.4-4.267  c-2.133-3.2-4.267-5.333-5.333-8.533c0,4.267,0,8.533,0,13.867c0,2.133,0,5.333,0,7.467c-1.067,8.533-5.333,17.067-12.8,22.4  c-1.067,1.067-3.2,2.133-5.333,2.133c-1.067,0-2.133,0-4.267,0c-2.133-1.067-4.267-1.067-6.4-2.133  c-2.133-1.067-4.267-2.133-5.333-4.267c1.067,2.133,1.067,5.333,0,7.467s-3.2,3.2-5.333,5.333  C343.467,276.8,341.333,277.867,339.2,278.933L339.2,278.933z"/>
<path style="fill:#FFD15C;" d="M330.667,319.467c2.133,1.067,13.867,7.467,38.4,12.8c1.067,0,1.067,0,2.133,0  c2.133,0,8.533,0,13.867-1.067c1.067,0,3.2,0,4.267,0c6.4,1.067,27.733,6.4,46.933,26.667c23.467,25.6,60.8,36.267,76.8,38.4V180.8  l-7.467-6.4c-9.6-7.467-22.4-8.533-34.133-4.267l-64,25.6c-18.133,7.467-33.067,19.2-43.733,35.2  C354.133,244.8,342.4,261.867,336,267.2c-10.667,8.533-17.067,21.333-20.267,26.667c-1.067,2.133-1.067,4.267,0,6.4  c1.067,3.2,3.2,8.533,8.533,10.667C325.333,315.2,328.533,317.333,330.667,319.467C329.6,318.4,330.667,319.467,330.667,319.467z"/>
<g>
	<path style="fill:#F7B64C;" d="M352,275.733L352,275.733c0,0-4.267,0-10.667,2.133c-3.2,1.067-6.4,2.133-10.667,4.267   c-1.067,0-2.133,1.067-2.133,2.133c-1.067,1.067-2.133,1.067-2.133,2.133c-1.067,1.067-3.2,3.2-4.267,5.333   c0,1.067-1.067,2.133-1.067,3.2s-1.067,2.133-1.067,3.2c0,2.133,0,4.267,0,6.4c0,2.133,1.067,4.267,1.067,5.333v1.067   c-1.067,0-1.067-1.067-2.133-1.067c-1.067-2.133-1.067-3.2-1.067-5.333c0-2.133,0-4.267,0-6.4c0-1.067,0-2.133,1.067-3.2   c0-1.067,1.067-2.133,1.067-3.2s1.067-2.133,2.133-3.2c1.067-1.067,1.067-2.133,2.133-2.133c1.067-1.067,2.133-1.067,2.133-2.133   c1.067-1.067,2.133-1.067,3.2-2.133c3.2-2.133,7.467-3.2,10.667-4.267C347.733,276.8,352,275.733,352,275.733z"/>
	<path style="fill:#F7B64C;" d="M339.2,278.933c7.467,0,14.933-4.267,22.4-4.267c10.667-1.067,22.4,4.267,34.133,2.133   c49.067-6.4,54.4-29.867,54.4-29.867c3.2-3.2,4.267-8.533,1.067-11.733c-1.067-1.067-2.133-3.2-3.2-4.267   c-2.133-3.2-2.133-6.4-2.133-9.6c-1.067-3.2-2.133-6.4-3.2-9.6c-1.067-3.2-2.133-6.4-3.2-9.6c0,0,0,0,0-1.067c0,0,0,0-1.067,0   s-2.133,1.067-3.2,1.067c1.067-3.2,1.067-7.467,2.133-10.667c-1.067,3.2-2.133,5.333-2.133,8.533c0,1.067-1.067,3.2-2.133,4.267   c-1.067,2.133-4.267,3.2-5.333,6.4c0-3.2,0-5.333,0-8.533c-3.2,4.267-3.2,9.6-5.333,13.867s-6.4,7.467-9.6,10.667   c-5.333,4.267-9.6,10.667-17.067,11.733c-3.2,0-5.333-2.133-6.4-4.267c-2.133-3.2-4.267-5.333-5.333-8.533   c0,4.267,4.267,11.733,4.267,14.933c4.267,11.733-6.4,20.267-12.8,26.667c-2.133,0-13.867,4.267-20.267,0   c-2.133-1.067-4.267-2.133-5.333-4.267c1.067,2.133,2.133,5.333,1.067,7.467c-1.067,2.133-3.2,3.2-5.333,5.333   C344.533,276.8,341.333,277.867,339.2,278.933L339.2,278.933z"/>
</g>
<path style="fill:#FFFFFF;" d="M345.6,321.6c0,0,7.467,1.067,6.4-4.267c-1.067-5.333-4.267-18.133-1.067-24.533  c0,0-3.2-7.467-13.867-7.467c-1.067,0-3.2,0-4.267,1.067c-3.2,2.133-7.467,6.4-7.467,13.867c0,3.2,1.067,7.467,3.2,9.6  c2.133,3.2,5.333,7.467,10.667,9.6C338.133,320.533,343.467,321.6,345.6,321.6z"/>
<path style="fill:#415A6B;" d="M490.667,181.867l-16-16l9.6-9.6c3.2-3.2,8.533-3.2,11.733,0l4.267,4.267c3.2,3.2,3.2,8.533,0,11.733  L490.667,181.867z"/>
<path style="fill:#F3705A;" d="M471.467,161.6L369.067,264c-3.2,3.2-6.4,6.4-9.6,9.6c1.067,0,2.133,0,3.2,0  c10.667-1.067,22.4,3.2,34.133,2.133c2.133,0,4.267,0,6.4-1.067l91.733-91.733L471.467,161.6z"/>
<g>
	<path style="fill:#415A6B;" d="M368,265.067c-1.067,1.067-3.2,3.2-4.267,4.267l5.333,5.333c5.333,0,10.667,1.067,16,2.133   L371.2,262.933L368,265.067z"/>
	
		<rect x="446.917" y="183.999" transform="matrix(-0.7071 -0.7071 0.7071 -0.7071 657.9703 654.4056)" style="fill:#415A6B;" width="35.2" height="13.867"/>
	<path style="fill:#415A6B;" d="M437.333,257.6c-1.067-1.067-1.067-3.2,0-5.333l41.6-41.6L461.867,193.6   c-1.067-1.067-1.067-3.2,0-5.333c1.067-1.067,3.2-1.067,5.333,0l19.2,19.2c1.067,1.067,1.067,3.2,0,5.333l-44.8,44.8   C440.533,258.667,438.4,258.667,437.333,257.6z"/>
	<path style="fill:#415A6B;" d="M221.867,356.8c-2.133,0-4.267-1.067-6.4-2.133c-4.267-3.2-4.267-9.6-3.2-13.867   c1.067-4.267,1.067-8.533,3.2-12.8c3.2-5.333,7.467-7.467,12.8-7.467c1.067,0,2.133,1.067,2.133,3.2c0,1.067-1.067,2.133-3.2,2.133   c-3.2,0-6.4,2.133-7.467,5.333c-2.133,3.2-2.133,7.467-3.2,10.667c-1.067,5.333,0,8.533,1.067,9.6c2.133,1.067,5.333,1.067,6.4,0   l1.067-1.067c-2.133-2.133-3.2-5.333-3.2-9.6c0-5.333,3.2-9.6,6.4-10.667c1.067,0,2.133,0,2.133,0   c4.267,2.133,5.333,6.4,5.333,8.533c0,3.2-1.067,6.4-3.2,8.533c2.133,0,4.267-2.133,6.4-3.2c1.067-1.067,3.2-3.2,4.267-5.333   s3.2-4.267,5.333-6.4c5.333-1.067,7.467-1.067,9.6-1.067l0,0c10.667,0,17.067,6.4,20.267,10.667   c2.133,2.133,4.267,4.267,5.333,4.267l0,0c1.067,0,3.2-1.067,7.467-5.333c1.067-1.067,3.2-1.067,4.267,0   c1.067,1.067,1.067,3.2,0,4.267c-4.267,5.333-8.533,7.467-11.733,7.467l0,0c-4.267,0-6.4-3.2-9.6-6.4   c-3.2-4.267-7.467-9.6-17.067-9.6c-1.067,0-2.133,0-2.133,1.067c-2.133,1.067-3.2,3.2-4.267,5.333   c-1.067,2.133-3.2,4.267-5.333,6.4c-6.4,4.267-10.667,5.333-13.867,4.267c-1.067,1.067-2.133,2.133-3.2,3.2   C227.2,355.733,225.067,356.8,221.867,356.8z M232.533,334.4c-2.133,1.067-2.133,4.267-2.133,5.333c0,2.133,0,3.2,1.067,5.333   c2.133-2.133,3.2-5.333,3.2-7.467C234.667,337.6,234.667,336.533,232.533,334.4z"/>
</g>
<g>
</g>
<g>
</g>
<g>
</g>
<g>
</g>
<g>
</g>
<g>
</g>
<g>
</g>
<g>
</g>
<g>
</g>
<g>
</g>
<g>
</g>
<g>
</g>
<g>
</g>
<g>
</g>
<g>
</g>
</svg>
