<?xml version="1.0" encoding="iso-8859-1"?>
<!-- Generator: Adobe Illustrator 19.0.0, SVG Export Plug-In . SVG Version: 6.00 Build 0)  -->
<svg xmlns="http://www.w3.org/2000/svg" xmlns:xlink="http://www.w3.org/1999/xlink" version="1.1" id="Layer_1" x="0px" y="0px" viewBox="0 0 512 512" style="enable-background:new 0 0 512 512;" xml:space="preserve">
<path style="fill:#F3F3F3;" d="M169.067,0H433.6c18.133,0,32,13.867,32,32v448c0,18.133-13.867,32-32,32H78.4  c-18.133,0-32-13.867-32-32V122.667L169.067,0z"/>
<g>
	<rect x="89.067" y="445.867" style="fill:#CED6E0;" width="333.867" height="23.467"/>
	<rect x="89.067" y="382.933" style="fill:#CED6E0;" width="333.867" height="23.467"/>
</g>
<rect x="89.067" y="318.933" style="fill:#55C0EB;" width="333.867" height="23.467"/>
<polygon style="fill:#CED6E0;" points="169.067,0 169.067,122.667 46.4,122.667 "/>
<path style="fill:#FFD15C;" d="M293.867,74.667c-17.067,0-17.067,25.6,0,25.6C309.867,101.333,309.867,74.667,293.867,74.667z"/>
<path style="fill:#F7B64C;" d="M227.733,154.667v19.2c2.133,14.933,28.8,33.067,28.8,33.067s26.667-17.067,28.8-33.067v-19.2  L227.733,154.667L227.733,154.667z"/>
<path style="fill:#344A5E;" d="M367.467,268.8l-4.267-34.133c-2.133-16-13.867-29.867-29.867-34.133l-32-8.533l-44.8,13.867  L211.733,192l-33.067,8.533c-16,4.267-27.733,17.067-29.867,34.133l-4.267,35.2h222.933V268.8z"/>
<polygon style="fill:#CED6E0;" points="283.2,268.8 284.267,197.333 256.533,205.867 229.867,198.4 230.933,268.8 "/>
<polygon style="fill:#F3705A;" points="240.533,268.8 272.533,268.8 264,234.667 271.467,221.867 256.533,205.867 241.6,221.867   249.067,234.667 "/>
<polygon style="fill:#E8EAE9;" points="256.533,205.867 285.333,172.8 296,190.933 276.8,231.467 "/>
<polygon style="fill:#415A6B;" points="290.667,268.8 317.333,222.933 301.333,215.467 318.4,208 291.733,182.4 270.4,268.8 "/>
<polygon style="fill:#E8EAE9;" points="256.533,205.867 227.733,172.8 217.067,190.933 236.267,231.467 "/>
<polygon style="fill:#415A6B;" points="195.733,222.933 222.4,268.8 242.667,268.8 221.333,182.4 194.667,208 211.733,215.467 "/>
<g>
	<path style="fill:#FFD15C;" d="M285.333,75.733c-1.067,0-3.2,0-4.267,1.067c-2.133-2.133-4.267-2.133-6.4-2.133   c-5.333,0-8.533,3.2-10.667,6.4c-2.133-4.267-5.333-7.467-11.733-7.467c-6.4,0-10.667,4.267-11.733,9.6   c-2.133-3.2-5.333-4.267-9.6-4.267c-7.467,0-11.733,5.333-12.8,11.733C212.8,98.133,216,110.933,228.8,110.933   c7.467,0,11.733-5.333,12.8-11.733c1.067-1.067,1.067-2.133,2.133-4.267c2.133,3.2,5.333,4.267,9.6,4.267   c5.333,0,8.533-3.2,10.667-6.4c2.133,4.267,5.333,7.467,11.733,7.467c1.067,0,3.2,0,4.267-1.067   c2.133,1.067,4.267,2.133,7.467,2.133C302.4,101.333,302.4,75.733,285.333,75.733z"/>
	<path style="fill:#FFD15C;" d="M293.867,93.867c-17.067,0-35.2-4.267-46.933-13.867c-7.467,13.867-19.2,22.4-32,25.6   c-1.067,5.333-2.133,11.733-2.133,18.133c0,29.867,20.267,54.4,44.8,54.4s44.8-24.533,44.8-54.4   C301.333,113.067,298.133,102.4,293.867,93.867z"/>
</g>
<path style="fill:#415A6B;" d="M306.667,92.8c0,9.6-3.2,21.333-9.6,30.933c-2.133-8.533-2.133-23.467,1.067-28.8  C302.4,87.467,294.933,80,286.4,83.2c-22.4,11.733-55.467,0-55.467,0C222.4,80,213.867,86.4,219.2,94.933  c3.2,5.333,3.2,20.267,1.067,28.8c-6.4-9.6-9.6-21.333-9.6-30.933c0-24.533,21.333-44.8,48-44.8  C284.267,49.067,306.667,68.267,306.667,92.8z"/>
<g>
	<path style="fill:#FFD15C;" d="M307.733,125.867c-2.133,9.6-7.467,16-12.8,14.933c-5.333-1.067-7.467-9.6-5.333-18.133   c2.133-9.6,7.467-16,12.8-14.933C307.733,108.8,309.867,116.267,307.733,125.867z"/>
	<path style="fill:#FFD15C;" d="M205.333,125.867c2.133,9.6,7.467,16,12.8,14.933s7.467-9.6,5.333-18.133   c-2.133-9.6-7.467-16-12.8-14.933C205.333,108.8,203.2,116.267,205.333,125.867z"/>
</g>
<g>
</g>
<g>
</g>
<g>
</g>
<g>
</g>
<g>
</g>
<g>
</g>
<g>
</g>
<g>
</g>
<g>
</g>
<g>
</g>
<g>
</g>
<g>
</g>
<g>
</g>
<g>
</g>
<g>
</g>
</svg>
