<?xml version="1.0" encoding="iso-8859-1"?>
<!-- Generator: Adobe Illustrator 19.0.0, SVG Export Plug-In . SVG Version: 6.00 Build 0)  -->
<svg xmlns="http://www.w3.org/2000/svg" xmlns:xlink="http://www.w3.org/1999/xlink" version="1.1" id="Layer_1" x="0px" y="0px" viewBox="0 0 511.595 511.595" style="enable-background:new 0 0 511.595 511.595;" xml:space="preserve">
<path style="fill:#FFD15C;" d="M341.507,329.6v-42.667l-46.933-13.867c-3.2-9.6-6.4-19.2-11.733-27.733l23.467-42.667L276.441,172.8  l-42.667,23.467c-8.533-5.333-18.133-8.533-27.733-11.733L192.174,137.6h-42.667l-13.867,46.933c-9.6,3.2-19.2,6.4-27.733,11.733  L65.241,172.8l-29.867,29.867l23.467,42.667c-5.333,8.533-8.533,18.133-11.733,27.733L0.174,286.933V329.6l46.933,13.867  c2.133,9.6,6.4,19.2,11.733,27.733l-23.467,42.667l29.867,29.867l42.667-23.467c8.533,5.333,18.133,8.533,27.733,11.733  l13.867,46.933h42.667L206.041,432c9.6-3.2,19.2-6.4,27.733-11.733l42.667,23.467l29.867-29.867L282.841,371.2  c5.333-8.533,8.533-18.133,11.733-27.733L341.507,329.6z M170.841,371.2c-35.2,0-62.933-28.8-62.933-62.933  c0-35.2,28.8-62.933,62.933-62.933c35.2,0,62.933,27.733,62.933,62.933C233.774,342.4,206.041,371.2,170.841,371.2z"/>
<path style="fill:#8AD7F8;" d="M467.374,166.4l10.667-26.667l-25.6-20.267c1.067-6.4,1.067-13.867,0-20.267l25.6-20.267  l-10.667-26.667l-32,4.267c-4.267-5.333-8.533-9.6-13.867-13.867l3.2-32L398.041,0l-20.267,25.6c-6.4-1.067-13.867-1.067-20.267,0  L336.174,0l-26.667,10.667l4.267,32c-5.333,4.267-9.6,8.533-13.867,13.867l-32-3.2L257.241,80l25.6,20.267  c-1.067,6.4-1.067,13.867,0,20.267l-25.6,20.267l10.667,26.667l32-4.267c4.267,5.333,8.533,9.6,13.867,13.867l-3.2,32l26.667,10.667  l20.267-25.6c6.4,1.067,13.867,1.067,20.267,0l20.267,25.6l26.667-10.667l-4.267-32c5.333-4.267,9.6-8.533,13.867-13.867  L467.374,166.4z M351.107,149.333c-21.333-8.533-32-33.067-23.467-54.4s33.067-32,54.4-23.467c21.333,8.533,32,33.067,23.467,54.4  C398.041,147.2,373.507,157.867,351.107,149.333z"/>
<polygon style="fill:#344A5E;" points="372.441,410.667 395.907,434.133 434.307,395.733 410.841,372.267 "/>
<path style="fill:#415A6B;" d="M396.974,396.8c-54.4,54.4-142.933,54.4-197.333,0s-54.4-142.933,0-197.333s142.933-54.4,197.333,0  S451.374,342.4,396.974,396.8z M223.107,222.933c-40.533,40.533-40.533,107.733,0,149.333s107.733,40.533,148.267,0  s40.533-107.733,0-149.333S264.707,182.4,223.107,222.933z"/>
<path style="fill:#F3705A;" d="M394.841,455.467l42.667,42.667c16,16,41.6,18.133,58.667,4.267c19.2-16,20.267-45.867,3.2-62.933  l-44.8-44.8c-5.333-5.333-14.933-5.333-21.333,0l-38.4,39.467C389.507,440.533,389.507,450.133,394.841,455.467z"/>
<g style="opacity:0.25;">
	<path style="fill:#FFFFFF;" d="M223.107,222.933c-40.533,40.533-40.533,107.733,0,149.333s107.733,40.533,148.267,0   s40.533-107.733,0-149.333S264.707,182.4,223.107,222.933z"/>
</g>
<g>
</g>
<g>
</g>
<g>
</g>
<g>
</g>
<g>
</g>
<g>
</g>
<g>
</g>
<g>
</g>
<g>
</g>
<g>
</g>
<g>
</g>
<g>
</g>
<g>
</g>
<g>
</g>
<g>
</g>
</svg>
