<?xml version="1.0" encoding="iso-8859-1"?>
<!-- Generator: Adobe Illustrator 19.0.0, SVG Export Plug-In . SVG Version: 6.00 Build 0)  -->
<svg xmlns="http://www.w3.org/2000/svg" xmlns:xlink="http://www.w3.org/1999/xlink" version="1.1" id="Layer_1" x="0px" y="0px" viewBox="0 0 512.401 512.401" style="enable-background:new 0 0 512.401 512.401;" xml:space="preserve">
<rect x="335.277" y="314.818" transform="matrix(0.7071 0.7071 -0.7071 0.7071 352.5843 -145.8458)" style="fill:#344A5E;" width="34.133" height="75.733"/>
<circle style="fill:#F3F3F3;" cx="202.534" cy="202.334" r="178.133"/>
<path style="fill:#415A6B;" d="M346.534,346.334c-78.933,78.933-208,78.933-286.933,0s-80-208,0-286.933s208-78.933,286.933,0  S425.467,267.4,346.534,346.334z M94.801,94.6c-59.733,59.733-59.733,156.8,0,216.533s156.8,59.733,216.533,0  s59.733-156.8,0-216.533S154.534,34.867,94.801,94.6z"/>
<path style="fill:#F3705A;" d="M347.601,431.667l62.933,62.933c23.467,23.467,60.8,23.467,84.267,0  c23.467-23.467,23.467-60.8,0-84.267L431.867,347.4L347.601,431.667z"/>
<rect x="387.067" y="336.867" transform="matrix(0.7071 0.7071 -0.7071 0.7071 396.0864 -164.1038)" style="fill:#F05540;" width="18.133" height="118.399"/>
<path style="fill:#F3705A;" d="M432.934,348.467l-84.267,84.267c-7.467,7.467-20.267,7.467-27.733,0s-7.467-20.267,0-27.733  l84.267-84.267c7.467-7.467,20.267-7.467,27.733,0C440.401,329.267,440.401,341,432.934,348.467z"/>
<path style="fill:#55C0EB;" d="M485.201,195.934h-188.8L278.267,126.6c-2.133-9.6-14.933-10.667-20.267-2.133l-65.067,125.867  l-18.133-48c-1.067-4.267-5.333-6.4-9.6-6.4h-67.2c-6.4,0-10.667,5.333-10.667,10.667c0,5.333,4.267,10.667,10.667,10.667l0,0  h59.733l23.467,62.933c3.2,8.533,14.933,9.6,19.2,1.067L263.334,158.6l13.867,50.133c1.067,4.267,5.333,7.467,10.667,7.467h196.267  c6.4,0,10.667-4.267,10.667-10.667C494.801,199.134,490.534,195.934,485.201,195.934z"/>
<g>
</g>
<g>
</g>
<g>
</g>
<g>
</g>
<g>
</g>
<g>
</g>
<g>
</g>
<g>
</g>
<g>
</g>
<g>
</g>
<g>
</g>
<g>
</g>
<g>
</g>
<g>
</g>
<g>
</g>
</svg>
