<?xml version="1.0" encoding="iso-8859-1"?>
<!-- Generator: Adobe Illustrator 19.0.0, SVG Export Plug-In . SVG Version: 6.00 Build 0)  -->
<svg xmlns="http://www.w3.org/2000/svg" xmlns:xlink="http://www.w3.org/1999/xlink" version="1.1" id="Layer_1" x="0px" y="0px" viewBox="0 0 512 512" style="enable-background:new 0 0 512 512;" xml:space="preserve">
<path style="fill:#415A6B;" d="M480,92.8H32c-18.133,0-32,13.867-32,32V480c0,18.133,13.867,32,32,32h448c18.133,0,32-13.867,32-32  V124.8C512,106.667,498.133,92.8,480,92.8z"/>
<path style="fill:#344A5E;" d="M109.867,135.467L109.867,135.467c-37.333,0-67.2,29.867-67.2,67.2v199.467  c0,37.333,29.867,67.2,67.2,67.2l0,0c37.333,0,67.2-29.867,67.2-67.2V202.667C177.067,165.333,147.2,135.467,109.867,135.467z"/>
<rect x="230.4" y="184.533" style="fill:#8AD7F8;" width="238.933" height="67.2"/>
<rect x="230.4" y="278.4" style="fill:#F3705A;" width="62.933" height="46.933"/>
<rect x="318.933" y="278.4" style="fill:#FFD15C;" width="62.933" height="46.933"/>
<rect x="406.4" y="278.4" style="fill:#66C6B9;" width="62.933" height="46.933"/>
<g>
	<rect x="230.4" y="350.933" style="fill:#F3F3F3;" width="62.933" height="46.933"/>
	<rect x="318.933" y="350.933" style="fill:#F3F3F3;" width="62.933" height="46.933"/>
	<rect x="406.4" y="350.933" style="fill:#F3F3F3;" width="62.933" height="46.933"/>
	<rect x="230.4" y="422.4" style="fill:#F3F3F3;" width="62.933" height="46.933"/>
	<rect x="318.933" y="422.4" style="fill:#F3F3F3;" width="62.933" height="46.933"/>
	<rect x="406.4" y="422.4" style="fill:#F3F3F3;" width="62.933" height="46.933"/>
	<rect x="195.2" style="fill:#F3F3F3;" width="263.467" height="135.467"/>
</g>
<g>
	<rect x="233.6" y="80" style="fill:#CED6E0;" width="186.667" height="17.067"/>
	<rect x="233.6" y="38.4" style="fill:#CED6E0;" width="186.667" height="17.067"/>
</g>
<g>
</g>
<g>
</g>
<g>
</g>
<g>
</g>
<g>
</g>
<g>
</g>
<g>
</g>
<g>
</g>
<g>
</g>
<g>
</g>
<g>
</g>
<g>
</g>
<g>
</g>
<g>
</g>
<g>
</g>
</svg>
