<?xml version="1.0" encoding="iso-8859-1"?>
<!-- Generator: Adobe Illustrator 19.0.0, SVG Export Plug-In . SVG Version: 6.00 Build 0)  -->
<svg xmlns="http://www.w3.org/2000/svg" xmlns:xlink="http://www.w3.org/1999/xlink" version="1.1" id="Layer_1" x="0px" y="0px" viewBox="0 0 512 512" style="enable-background:new 0 0 512 512;" xml:space="preserve">
<path style="fill:#55C0EB;" d="M512,256c0,141.867-114.133,256-256,256S0,397.867,0,256S114.133,0,256,0S512,114.133,512,256z"/>
<g>
	<path style="fill:#F3F3F3;" d="M19.2,347.733c0-1.067,0-1.067,0-1.067C20.267,346.667,20.267,347.733,19.2,347.733   c2.133,1.067,2.133,0,3.2-1.067c0,0-1.067,0-1.067-1.067c0-2.133,1.067-3.2,3.2-4.267c0,1.067,0,2.133,1.067,2.133   c1.067,1.067,2.133,2.133,3.2,2.133c1.067-1.067,2.133-2.133,3.2-3.2c2.133,1.067,4.267,3.2,6.4,4.267   c1.067,1.067,5.333,1.067,6.4,0c0,0,0-1.067,1.067-1.067c0,0,0-1.067,1.067-1.067C48,343.467,48,343.467,48,342.4   c0-1.067,0-1.067,0-2.133c1.067,1.067,2.133,3.2,2.133,4.267c1.067,3.2,2.133,3.2,5.333,3.2c3.2,0,5.333-1.067,8.533,0   c1.067,0,1.067,0,2.133,0c2.133,0,3.2-1.067,4.267-1.067c3.2,0,4.267-1.067,6.4-3.2c1.067-1.067,2.133-1.067,3.2-1.067   c1.067,0,2.133,0,4.267,0c2.133,1.067,5.333,1.067,7.467,3.2c1.067,1.067,2.133,1.067,3.2,2.133c2.133,0,3.2-1.067,5.333-1.067   c3.2,0,5.333-2.133,7.467-3.2s3.2-2.133,4.267-3.2c1.067-1.067,2.133-2.133,4.267-1.067h1.067c1.067,0,3.2,0,4.267,0   c4.267,0,7.467-1.067,9.6-4.267c1.067-1.067,1.067-2.133,0-3.2c-1.067-1.067-1.067-2.133-1.067-4.267c0-1.067,0-2.133,0-2.133   c0-2.133-1.067-3.2-2.133-4.267c-1.067-1.067-2.133-2.133-2.133-4.267c-1.067-1.067-1.067-2.133-2.133-3.2   c1.067-1.067,0-2.133,0-4.267c0-1.067-1.067-2.133-1.067-3.2c-1.067-2.133-3.2,0-5.333-1.067c0,0,0,0,0-1.067l0,0   c1.067,0,2.133,0,3.2,0c0-1.067-1.067-1.067-1.067-2.133c-1.067-1.067-1.067-1.067-2.133-2.133c1.067,0,1.067,0,1.067,0   c1.067,0,3.2,1.067,3.2-2.133v-1.067c1.067-1.067,2.133-3.2,1.067-4.267c0-3.2-1.067-6.4-3.2-8.533   c-1.067-1.067-3.2-2.133-2.133-4.267V278.4v-1.067c1.067-2.133,0-4.267-1.067-5.333c1.067-1.067,1.067-2.133,0-4.267   c-1.067-1.067-1.067-2.133,1.067-2.133c-1.067-1.067-3.2-2.133-4.267-3.2c-1.067-1.067-1.067-1.067-2.133-2.133   c-1.067-1.067-1.067-2.133-1.067-2.133c-1.067-1.067-2.133-1.067-1.067-3.2v-1.067c0-1.067-1.067-2.133-1.067-3.2   c0,0,0,0-1.067,1.067l0,0c-2.133-1.067-3.2-1.067-4.267,1.067c0,0-1.067,0-1.067,1.067c0,0,0,0,0-1.067s1.067-1.067,1.067-2.133   c1.067-1.067,2.133-1.067,2.133-2.133l0,0c1.067,0,1.067,0,2.133,0c0-1.067,0-2.133-1.067-2.133c-1.067,0-2.133-1.067-3.2-1.067   c-1.067,0-2.133-1.067-3.2-2.133c-1.067,0-1.067,0-2.133,0c-1.067,0-1.067,0-2.133,0c-1.067,0-2.133,0-2.133,0   c0-1.067,0-2.133,0-2.133c0-2.133-1.067-2.133-2.133-3.2c-3.2,0-5.333,0-5.333-2.133c0-1.067,0-3.2,1.067-5.333   c0-1.067,1.067-2.133,1.067-2.133c1.067-1.067,2.133-2.133,4.267-2.133c2.133-1.067,2.133-2.133,1.067-4.267   c-1.067-2.133-3.2-3.2-4.267-5.333L86.4,214.4c2.133-1.067,4.267-2.133,6.4-3.2c1.067-1.067,3.2-1.067,4.267-2.133L98.133,208   c-1.067-1.067-1.067-2.133-2.133-2.133c-2.133-2.133-4.267-2.133-6.4,0l0,0c-1.067,0-2.133,0-3.2,0   c-1.067-1.067-1.067-2.133-2.133-3.2c-2.133-1.067-2.133-3.2-2.133-5.333c1.067-3.2,2.133-6.4,4.267-8.533   c1.067,0,1.067-1.067,2.133-2.133s1.067-1.067,3.2-1.067H92.8c0,0,0-1.067,1.067-1.067C94.933,183.467,96,182.4,96,182.4   c1.067,1.067,2.133,0,3.2,0c1.067,2.133,2.133,2.133,3.2,1.067c1.067,0,1.067,1.067,1.067,1.067c1.067,1.067,3.2,2.133,3.2,4.267   c0,2.133,2.133,3.2,3.2,4.267c0-1.067,1.067-1.067,1.067-2.133l-1.067-1.067c0,0,1.067,0,1.067,1.067   c1.067,1.067,3.2,2.133,4.267,4.267c1.067,1.067,1.067,2.133,1.067,3.2c0,1.067,1.067,1.067,1.067,2.133   c2.133,1.067,2.133,3.2,1.067,5.333c-1.067,1.067-2.133,2.133-2.133,3.2c-1.067,2.133-1.067,3.2-1.067,5.333   c1.067,1.067,2.133,1.067,3.2,0c1.067-1.067,2.133-2.133,2.133-2.133c1.067-2.133,2.133-4.267,3.2-6.4   c1.067-1.067,4.267-2.133,5.333-2.133c1.067,0,2.133,0,4.267,1.067h1.067c2.133,1.067,3.2,1.067,5.333,2.133l1.067-1.067   c1.067,0,1.067,0,2.133,1.067l0,0c0,0,0-1.067-1.067-1.067c1.067,0,1.067,1.067,2.133,1.067c1.067-2.133,2.133-3.2,3.2-5.333l0,0   c1.067-1.067,2.133-1.067,2.133-2.133c0,1.067-1.067,2.133-2.133,2.133c-1.067,1.067-1.067,1.067-2.133,2.133   c2.133-1.067,4.267-1.067,5.333-3.2v1.067c2.133,0,3.2,0,4.267-2.133c1.067,1.067,2.133,1.067,3.2,2.133l0,0   c-1.067,0-1.067-1.067-2.133-1.067l0,0c2.133,1.067,4.267,2.133,5.333,4.267c0-1.067,1.067-2.133,1.067-2.133   c1.067-1.067,3.2-2.133,5.333-1.067c1.067,0,1.067,0,2.133,0c1.067,1.067,2.133,2.133,4.267,1.067h1.067   c1.067,1.067,3.2,2.133,4.267,2.133c0,0-1.067,0-1.067,1.067c0,0-1.067,0-2.133-1.067c-2.133,0-3.2,1.067-2.133,3.2   c4.267-1.067,6.4,2.133,9.6,3.2v-1.067l0,0l0,0l0,0c0-1.067,0-2.133-2.133-2.133c-1.067,0-1.067-4.267-1.067-5.333   c1.067-1.067,1.067-3.2,2.133-3.2c-1.067-1.067-1.067-2.133-1.067-3.2l0,0l1.067,1.067c1.067,0,2.133,1.067,3.2,0   c1.067-1.067,1.067-2.133,0-3.2c-1.067-1.067-2.133-2.133-4.267-3.2c-2.133-1.067-4.267-1.067-7.467-2.133c2.133,0,5.333,0,7.467,0   c0,0,0,0,1.067,0s1.067,0,2.133,0c1.067,0,2.133,0,3.2,0c2.133,2.133,4.267,4.267,6.4,7.467c1.067,1.067,3.2,3.2,4.267,3.2   c2.133,0,4.267,0,5.333,2.133c1.067,1.067,3.2,1.067,4.267,0l1.067-1.067c1.067,0,1.067-1.067,1.067-2.133   c0-1.067-1.067-1.067-1.067-2.133l1.067-1.067c-1.067-1.067-2.133-1.067-3.2-1.067c0-1.067,0-1.067,1.067-1.067   c1.067,0,1.067,1.067,2.133,1.067l0,0c-1.067-2.133-1.067-4.267-2.133-6.4c1.067-1.067,1.067-1.067,0-2.133v-1.067   c0-1.067,0-2.133,0-3.2c1.067,0,2.133,0,2.133,0c1.067-1.067,1.067-2.133,1.067-3.2c0-1.067,1.067-1.067,1.067-2.133H211.2h1.067   c0,0,0-1.067-1.067-1.067l1.067-1.067c0-1.067,1.067-1.067,1.067-2.133s1.067-2.133,1.067-4.267V166.4c-1.067,0-2.133,0-3.2,1.067   c-1.067,1.067-2.133,1.067-3.2,1.067h-1.067c-1.067,0-2.133,0-3.2,0c0-1.067,0-2.133,1.067-4.267   c-1.067-1.067-1.067-1.067-2.133-2.133c1.067,0,1.067,0,2.133,0c1.067-1.067,3.2-2.133,2.133-4.267l1.067,1.067l3.2-3.2   l-1.067-1.067c0-1.067,0-1.067-1.067-2.133c-1.067-1.067-1.067-1.067,0-2.133c0-1.067,1.067-2.133,1.067-3.2   c1.067-1.067,1.067-4.267-1.067-4.267c-1.067,0-2.133-1.067-2.133-2.133c0-1.067-1.067-2.133-1.067-2.133L204.8,137.6   c-2.133,0-3.2,1.067-2.133,3.2c-3.2,0-4.267,3.2-5.333,4.267c-1.067,1.067-2.133,2.133-4.267,1.067   c-1.067-1.067-2.133,0-2.133,1.067c0,2.133-1.067,4.267-2.133,6.4c-1.067,1.067-2.133,2.133-2.133,3.2l1.067,1.067c0,0,0,0-1.067,0   H185.6c-2.133,1.067-3.2,0-5.333,0c-1.067,0-1.067,0-2.133,0l0,0c-2.133,2.133-3.2,4.267-5.333,7.467h-1.067   c0,0-1.067,1.067-1.067,2.133c-1.067-1.067-1.067-2.133-2.133-1.067c0-1.067-1.067-1.067-1.067-2.133c3.2-2.133,3.2-3.2,3.2-4.267   l1.067-1.067c0-1.067,0-2.133,1.067-2.133c2.133-2.133,3.2-3.2,5.333-5.333c-1.067-1.067-1.067-2.133-2.133-3.2   c-1.067-1.067-2.133-2.133-2.133-2.133c0-2.133-1.067-3.2-1.067-4.267V140.8c0-4.267,0-7.467-4.267-9.6   c1.067-1.067,2.133-3.2,3.2-4.267c1.067-1.067,1.067-2.133,0-3.2c0,0-1.067-2.133,0-2.133c2.133-2.133,4.267-3.2,6.4-4.267   c1.067-1.067,2.133-1.067,3.2-2.133c2.133,1.067,5.333,0,7.467-1.067c1.067,1.067,2.133,1.067,3.2,1.067   c1.067,0,1.067-1.067,2.133-2.133c0,1.067,1.067,1.067,2.133,0c1.067,0,1.067-1.067,2.133,0c0,1.067,2.133,1.067,2.133,1.067   c2.133,0,3.2-1.067,5.333-1.067c-1.067-2.133-3.2-4.267-2.133-7.467c0,1.067,1.067,3.2,1.067,4.267c0,0,0,1.067,1.067,1.067   c1.067,1.067,5.333,0,5.333,0v-1.067V108.8h1.067l1.067,1.067C211.2,112,214.4,112,214.4,113.067c0-1.067,1.067-1.067,1.067-2.133   c0,1.067,0,2.133,0,3.2c2.133,0,4.267,0,6.4,0c1.067,0,1.067-1.067,2.133-2.133c1.067-1.067,1.067-3.2,2.133-4.267   c2.133,1.067,3.2,2.133,3.2-1.067h1.067c-1.067-1.067-1.067-3.2,0-4.267v-1.067c-1.067-1.067-2.133-3.2-3.2-4.267   c-1.067,1.067-3.2,2.133-2.133,4.267c-1.067,0-1.067,1.067-2.133,1.067c-1.067,0-1.067-1.067-2.133-1.067   c-2.133,1.067-3.2,1.067-5.333,2.133c-1.067,1.067-2.133,1.067-3.2,0c0-1.067,1.067-2.133,1.067-3.2s1.067-2.133,3.2-1.067l0,0   c1.067-1.067,1.067-3.2,2.133-4.267c0-1.067,0-1.067-1.067-1.067c-1.067,0-1.067,1.067-2.133,1.067c-2.133,0-2.133,1.067-3.2,1.067   c1.067-2.133,2.133-3.2,2.133-4.267s0-1.067,1.067-1.067V89.6c0-1.067-1.067-2.133-1.067-2.133c1.067,0,2.133-1.067,3.2-1.067   c0,0,0,0,1.067,0c0-1.067,0-3.2,1.067-4.267c0-1.067,1.067-2.133,2.133-3.2v-1.067c0-1.067,1.067-2.133,1.067-2.133l0,0l0,0   c0-1.067,0-1.067,1.067-2.133l0,0c-1.067,1.067-2.133,1.067-4.267,2.133c-1.067-1.067-3.2,0-4.267,3.2H214.4   c-1.067,0-2.133,1.067-2.133,3.2s-1.067,4.267,1.067,5.333c-1.067,0-2.133,1.067-4.267,2.133c1.067,0,1.067,1.067,2.133,1.067   c-1.067,2.133-4.267,2.133-6.4,0c-1.067,1.067-2.133,2.133-3.2,3.2c-1.067-3.2,2.133-3.2,3.2-4.267h-1.067   c1.067-2.133,0-3.2-2.133-4.267c0,1.067-1.067,2.133-1.067,3.2L201.6,89.6c0,0-1.067,0-2.133,1.067c0-2.133,0-3.2,0-4.267   l-1.067,1.067c-1.067-1.067-3.2-3.2-4.267-4.267c-2.133-4.267-3.2-4.267-2.133-6.4c0-1.067,0-2.133-1.067-3.2   c-1.067,0-1.067-3.2,0-4.267c2.133-3.2,1.067-3.2-1.067-4.267c0,0-1.067,0-1.067-1.067c-1.067,0-2.133,0-3.2,0   c0,3.2,0,3.2,2.133,2.133c0,1.067,1.067,1.067,1.067,1.067c1.067,0,2.133,0,2.133,0l0,0c-1.067,1.067-2.133,1.067-4.267,0   c-1.067-1.067-3.2,0-3.2,1.067S182.4,70.4,182.4,70.4s-1.067,0-2.133,0c0-1.067,0-1.067,0-1.067c1.067,0,2.133,0,1.067-1.067   c0-1.067,0-1.067,0-2.133v-1.067c0-1.067,0-2.133-1.067-3.2C176,60.8,173.867,57.6,172.8,54.4c2.133-1.067,2.133,0,4.267,1.067   c0-2.133,1.067-3.2,1.067-4.267l-1.067-1.067c-1.067,0-1.067-1.067-1.067-1.067c-1.067-3.2-3.2-6.4-3.2-10.667   c0-1.067-1.067-2.133-2.133-3.2c0,0-1.067,0-2.133,0s-1.067,0-2.133-1.067c1.067-1.067,2.133-2.133,3.2-4.267   c-2.133,0-3.2,1.067-4.267,1.067h-1.067c0,0-1.067-1.067,0-1.067c0-1.067,1.067-3.2,2.133-4.267c0-1.067,1.067-2.133,1.067-3.2   c0,0,0,0-1.067,0c0,1.067,0,1.067-1.067,2.133c-1.067,0-2.133,1.067-3.2-1.067c0,0-1.067-1.067-2.133-1.067c3.2,0,3.2,0,3.2-1.067   c-3.2-1.067-6.4-1.067-8.533-2.133c-17.067,7.467-32,16-46.933,26.667l0,0c0,2.133,0,3.2,0,5.333c0,0,1.067,0,1.067,1.067   c0,0,0-1.067,1.067-1.067c0,0,0-1.067,0-2.133h1.067c0,1.067,0,3.2,0,4.267l0,0c1.067-1.067,1.067-2.133,2.133-3.2   c0,1.067,0,1.067-1.067,2.133c0,1.067-1.067,1.067-1.067,2.133c0,2.133,0,3.2-1.067,4.267c0,0,0,1.067-1.067,1.067   c0,1.067-1.067,2.133-1.067,3.2V64c-1.067,0-1.067,0-2.133,1.067l1.067,1.067c0,0,0,1.067,0,2.133c0,0,0,1.067,1.067,1.067   c0,0-1.067,0-2.133,0c1.067,0,1.067,1.067,2.133,1.067c-2.133,3.2-3.2,4.267-3.2,4.267s0,1.067-1.067,1.067   c0,2.133,0,4.267-1.067,6.4c0,0,0,0,0,1.067s-1.067,4.267-1.067,4.267c-2.133,1.067-1.067,1.067,0,2.133c0,0,0,1.067,0,2.133l0,0   c-2.133-2.133-2.133-3.2-3.2-5.333l0,0v1.067c-1.067,0-1.067,1.067-1.067,1.067c0,1.067,1.067,2.133,0,4.267c0,1.067,0,3.2,0,5.333   c-1.067,0-4.267,5.333-4.267,6.4c-1.067,0-1.067,0-2.133,1.067c-2.133,1.067-3.2,2.133-5.333,4.267   c-1.067,1.067-2.133,2.133-3.2,3.2c-1.067,1.067-2.133,2.133-3.2,3.2l-1.067,1.067c-1.067,1.067-1.067,2.133-1.067,2.133   c-1.067,2.133-1.067,3.2,0,4.267l-1.067,1.067c0,1.067-1.067,3.2-1.067,4.267c0,1.067,0,1.067,0,2.133c-1.067,1.067,0,2.133,0,3.2   c0,2.133,1.067,4.267,0,5.333c0,2.133-2.133,4.267-2.133,6.4c-1.067,1.067-1.067,3.2-1.067,4.267s0,2.133,0,2.133   c0,1.067-1.067,1.067-1.067,1.067l-1.067-1.067c0,1.067,0,3.2,0,4.267c1.067,2.133,0,3.2-1.067,4.267l-1.067,1.067   c0,2.133,0,4.267,0,6.4c1.067,0,2.133-1.067,2.133-2.133s0-2.133,0-2.133c2.133-3.2,2.133-6.4,3.2-9.6V153.6   c0-3.2,1.067-5.333,3.2-7.467c0,2.133,2.133,3.2,0,5.333c-1.067,1.067-1.067,3.2-2.133,4.267v1.067c0,2.133,0,4.267,0,6.4   c0,1.067,0,2.133-1.067,2.133c0,0,0,1.067,0,2.133v1.067c0,2.133-1.067,4.267-1.067,6.4c0,2.133-1.067,4.267-3.2,5.333   c-1.067,1.067-2.133,1.067-1.067,2.133c0,2.133,0,5.333,2.133,7.467v1.067c0,1.067,1.067,3.2,1.067,4.267   c0,1.067,1.067,3.2,1.067,4.267c2.133,1.067,3.2,3.2,4.267,3.2c2.133,1.067,3.2,2.133,3.2,5.333c0,5.333,2.133,8.533,4.267,11.733   c0,1.067,0,1.067-1.067,2.133c0,2.133,0,3.2-1.067,4.267v2.133c1.067,1.067,1.067,2.133,1.067,3.2c0,1.067,0,2.133,1.067,3.2   c0,1.067,1.067,1.067,1.067,2.133c0,1.067,0,1.067,0,2.133h1.067c0-2.133,0-2.133,4.267-1.067c0,1.067,0,2.133,0,2.133   c-1.067,1.067-2.133,3.2-2.133,4.267c-1.067,1.067-3.2,2.133-3.2,4.267c-1.067,0-2.133,0-3.2-1.067l0,0   c-2.133,1.067-5.333,0-8.533,1.067l0,0c-1.067,1.067-2.133,1.067-2.133,2.133l1.067,1.067c-1.067,1.067-1.067,1.067-3.2,0   c-1.067,0-3.2,2.133-3.2,3.2c0,3.2-1.067,6.4-2.133,9.6c-1.067,2.133-1.067,3.2-2.133,5.333c0,1.067-1.067,2.133-2.133,3.2v1.067   c0,3.2,0,5.333,1.067,8.533c1.067,3.2,2.133,6.4-1.067,8.533c-3.2,3.2-7.467,6.4-10.667,8.533   c-1.067,1.067-2.133,2.133-4.267,2.133c-4.267,2.133-7.467,4.267-10.667,7.467c0,0,0,1.067-1.067,1.067   c-3.2,1.067-6.4,3.2-9.6,4.267c-2.133,1.067-5.333,2.133-6.4,4.267L14.933,320c-1.067,0-1.067,1.067-2.133,1.067   c2.133,6.4,4.267,13.867,6.4,20.267C18.133,347.733,18.133,347.733,19.2,347.733z"/>
	<path style="fill:#F3F3F3;" d="M506.667,205.867L506.667,205.867c-3.2,2.133-3.2,2.133-6.4,1.067c0,0-1.067,0-1.067-1.067   c-2.133-1.067-2.133-1.067-3.2,1.067c-3.2,0-3.2-2.133-4.267-4.267c0,2.133-1.067,3.2-1.067,4.267s-1.067,3.2-1.067,4.267   c-1.067-1.067-1.067-1.067-1.067-1.067c-1.067,0-2.133-1.067-2.133-3.2c0-1.067-1.067-1.067-1.067-2.133   c-1.067-1.067,0-2.133,0-2.133c1.067-1.067,1.067-2.133,1.067-3.2V198.4c1.067-2.133,0-3.2-2.133-5.333   C483.2,192,481.067,190.933,480,192c-1.067-1.067-3.2-2.133-4.267-2.133c-1.067-1.067-2.133,0-2.133,1.067c0,1.067,0,2.133,0,2.133   c0,1.067,0,2.133-1.067,2.133c-3.2,1.067-5.333,0-7.467-1.067c-1.067-1.067-2.133-1.067-1.067-3.2   c-5.333-2.133-8.533-2.133-11.733,0c1.067,0,1.067,1.067,2.133,1.067c-1.067,0-1.067,1.067-2.133,1.067c0-1.067,0-2.133,0-3.2   c0-1.067-1.067-2.133-1.067-2.133c0,1.067-1.067,2.133-1.067,2.133c-1.067,0-2.133,0-3.2-2.133c-1.067,0-2.133,0-2.133-1.067   c-1.067,1.067-1.067,1.067-1.067,3.2c2.133-1.067,2.133-1.067,2.133,0c-1.067,0-2.133,1.067-3.2,1.067c0,1.067-3.2,2.133-6.4,2.133   c1.067-1.067,2.133-2.133,3.2-3.2c1.067,0,2.133,0,2.133-1.067c0-1.067,1.067-2.133,2.133-2.133   c1.067-2.133,2.133-4.267,4.267-4.267c0,0,0,0,1.067,0c1.067-1.067,2.133-2.133,2.133-3.2c1.067-1.067,1.067-2.133,1.067-3.2   c0-1.067-1.067-2.133,0-4.267v-1.067c0-1.067-1.067-2.133-1.067-2.133s0,0-1.067,1.067c0-1.067,0-2.133-1.067-2.133   c-2.133-2.133-3.2-4.267-6.4-3.2H441.6c-1.067,0-2.133,0-2.133,1.067c-1.067,1.067-2.133,2.133-3.2,1.067   c1.067-1.067,1.067-1.067,2.133-2.133c1.067-2.133,1.067-2.133-1.067-3.2c-1.067,0-1.067,0-2.133-1.067l0,0h-1.067   c0-1.067,1.067-1.067,1.067-2.133c1.067-1.067,1.067-2.133,0-3.2c-1.067,0-1.067-1.067-2.133-1.067c-1.067-1.067-3.2,0-3.2,1.067   c-1.067,1.067-2.133,3.2-3.2,4.267c0,1.067-1.067,2.133-1.067,3.2c0,1.067,0,1.067,0,2.133c-2.133,0-3.2,0-5.333,1.067   c1.067,1.067,2.133,2.133,1.067,4.267c-1.067-1.067-1.067-1.067-2.133-2.133c-3.2,1.067-3.2,2.133-4.267,3.2   c-1.067,0-1.067,1.067-2.133,1.067c0,0-1.067,0-1.067-1.067c1.067-1.067,0-1.067-1.067-1.067s-2.133,0-4.267,0   c-1.067,0-1.067,0-2.133,0l1.067,1.067c-1.067,0-1.067,0-1.067,1.067c-2.133,1.067-4.267,1.067-5.333,2.133   c-1.067,0-3.2,1.067-3.2,2.133c-1.067,1.067-2.133,2.133-3.2,1.067l1.067,1.067c0,1.067-1.067,2.133-1.067,3.2   c-1.067,0-1.067-1.067-2.133-1.067c-1.067,2.133,1.067,1.067,1.067,2.133l-1.067,1.067l0,0c0,1.067,1.067,1.067,1.067,2.133   c0,1.067-1.067,2.133-2.133,2.133c-3.2,0-6.4,1.067-9.6,2.133c-2.133,0-3.2,3.2-2.133,4.267c0,1.067,1.067,1.067,1.067,2.133   c0,1.067,0,2.133,2.133,3.2c1.067,1.067,3.2,2.133,4.267,3.2v1.067c-1.067,2.133,0,4.267,0,6.4c0,1.067,0,2.133-1.067,2.133v1.067   c-1.067,0-2.133-1.067-1.067-2.133c0-2.133-1.067-4.267,1.067-6.4c0,0,0-1.067,1.067-2.133H384c-2.133,0-3.2,0-4.267-2.133   c-1.067-2.133-3.2-2.133-6.4-2.133c-1.067,0-1.067,0-1.067,1.067l1.067,1.067c-2.133,2.133-2.133,2.133-3.2,0   c-1.067,1.067,0,2.133,0,2.133c1.067,1.067,2.133,2.133,3.2,2.133c0,1.067,0,1.067,1.067,2.133c-2.133-1.067-4.267-2.133-6.4-2.133   c0-1.067,0-2.133,0-3.2c0-1.067,0-2.133,0-3.2c1.067-2.133,0-4.267-1.067-5.333v1.067c1.067,2.133,0,4.267-2.133,5.333l0,0   c-1.067,1.067-1.067,2.133-1.067,4.267c1.067,1.067,1.067,2.133,1.067,3.2c0,1.067,1.067,1.067,0,2.133   c-1.067,3.2-1.067,5.333,0,9.6c1.067,0,2.133,0,3.2,0s2.133,0,3.2,0c2.133,1.067,2.133,3.2,3.2,4.267   c0,1.067-1.067,2.133-1.067,2.133s1.067,1.067,2.133,2.133c-2.133,0-2.133,0-2.133-1.067c1.067-2.133,0-4.267-2.133-6.4   c-1.067,0-1.067,0-2.133,1.067c-3.2,1.067-3.2,1.067-2.133,4.267c0,1.067,0,2.133,0,3.2c0,1.067-1.067,2.133-1.067,3.2   c0,0,0,1.067-1.067,1.067c-1.067,1.067-2.133,2.133-3.2,3.2c-1.067,0-2.133,0-2.133,0c-1.067,0-2.133-1.067-1.067-2.133   c1.067,1.067,2.133,2.133,3.2,1.067c0-1.067,0-3.2,0-3.2c2.133,0,1.067-2.133,2.133-3.2c1.067-2.133,1.067-4.267,1.067-5.333   v-1.067c-3.2-3.2,0-6.4-1.067-9.6l0,0c0-2.133,1.067-4.267-1.067-6.4c-1.067-1.067-1.067-2.133,0-3.2   c1.067-2.133,1.067-4.267,1.067-5.333c0,0,0-1.067-1.067-1.067c-2.133,0-4.267-1.067-6.4-1.067c0,1.067-1.067,2.133-1.067,3.2   c0,3.2-1.067,6.4-4.267,7.467l-1.067,1.067c0,1.067,0,1.067,0,2.133c0,0,1.067,0,1.067,1.067c0,2.133-1.067,4.267-1.067,7.467   c2.133,0,3.2,1.067,3.2,2.133c0,1.067,1.067,1.067,1.067,2.133c0,1.067-1.067,2.133-1.067,3.2c-1.067-1.067-2.133-3.2-3.2-3.2   c-3.2-2.133-6.4-5.333-10.667-5.333c-1.067,0-2.133,0-3.2,1.067c0,0,0,1.067,0,2.133s1.067,2.133,0,3.2   c-1.067,0-2.133,1.067-1.067,2.133c0,0-1.067,0-1.067,1.067v-1.067c0-1.067,0-2.133-1.067-3.2c-1.067,1.067-2.133,2.133-3.2,2.133   c-1.067,0-1.067,1.067-2.133,1.067c-2.133,0-4.267,0-5.333,3.2c-1.067-1.067-1.067-2.133-1.067-2.133c0-1.067,0-2.133,0-2.133l0,0   c0,1.067-1.067,1.067-1.067,2.133c-2.133-1.067-1.067,1.067-1.067,1.067c-1.067,0-2.133,0-2.133,1.067   c-2.133,1.067-4.267,2.133-5.333,3.2c-1.067,1.067-2.133,1.067-2.133,3.2s-1.067,2.133-2.133,3.2c-1.067,0-2.133-1.067-2.133-1.067   c-2.133-2.133-2.133-4.267,1.067-5.333l0,0c0-4.267-2.133-4.267-7.467-4.267c2.133,1.067,2.133,3.2,2.133,4.267   c0,1.067,0,1.067,0,2.133v1.067c1.067,1.067,1.067,2.133,1.067,3.2c0,1.067,0,2.133-1.067,3.2L299.733,240   c-1.067-1.067-3.2-1.067-4.267,0c-1.067,1.067-2.133,2.133-3.2,2.133c-2.133,1.067-2.133,2.133-1.067,3.2   c0,1.067,1.067,2.133,1.067,3.2l0,0c-3.2-1.067-5.333-2.133-8.533-3.2c0,1.067,0,2.133,0,2.133c0,1.067,1.067,1.067,2.133,2.133   l0,0c0,1.067,0,1.067,1.067,2.133c-1.067,1.067-3.2,0-4.267-1.067c-1.067-1.067-2.133-1.067-2.133-2.133s-1.067-2.133-1.067-3.2   v-1.067c0-1.067,1.067-2.133,0-3.2c-2.133-2.133-3.2-3.2-5.333-5.333l0,0c0,0,1.067,0,1.067,1.067c2.133,1.067,3.2,2.133,5.333,3.2   c2.133,1.067,4.267,1.067,6.4,2.133c1.067,0,3.2,0,4.267,0c2.133-1.067,3.2-2.133,3.2-4.267c0-3.2-1.067-5.333-5.333-6.4   c-1.067,0-1.067-1.067-2.133-1.067c-1.067-1.067-2.133-2.133-4.267-4.267l-1.067-1.067c-2.133,0-5.333-1.067-6.4-2.133   c0,0,0-1.067-1.067-1.067l0,0c0,0,1.067,0,1.067,1.067c0-1.067,0-1.067-2.133-2.133c0,0,0,1.067-1.067,1.067h-3.2   c-1.067-1.067-1.067-2.133-2.133-3.2c2.133,1.067,3.2,0,4.267-2.133c-1.067-1.067-3.2-2.133-4.267-3.2   c0,1.067-1.067,2.133-1.067,2.133l0,0c0-1.067,0-2.133,0-3.2c0,0-1.067,0-1.067-1.067c-1.067,2.133-1.067,3.2-2.133,4.267l0,0   c0-1.067,0-2.133,0-3.2c-1.067,2.133-2.133,3.2-3.2,5.333l0,0c1.067-1.067,1.067-3.2,2.133-4.267c-1.067,0-1.067-1.067-2.133-1.067   l-1.067,1.067c1.067,1.067,0,2.133-1.067,2.133C256,216.533,256,217.6,254.933,217.6s-2.133-1.067-3.2-1.067   c0,1.067,1.067,2.133,1.067,2.133c-2.133-1.067-3.2,0-3.2,2.133c0-1.067,0-2.133,0-2.133l-1.067,1.067   c-2.133-1.067-1.067,1.067-2.133,1.067h-1.067c0,1.067,0,1.067,0,2.133c-1.067-1.067-2.133-1.067-3.2-2.133   c0,1.067-1.067,2.133-1.067,3.2c1.067,0,1.067,0,2.133,0c1.067,2.133-1.067,2.133-2.133,3.2c1.067,0,1.067,0,2.133,1.067l0,0   h-2.133v2.133c0-1.067-1.067-1.067-1.067-1.067c0,1.067,0,2.133-1.067,2.133c0,0,0,1.067-1.067,1.067   c-1.067,0-1.067,1.067-2.133,2.133c0,0,0,1.067-1.067,1.067c-2.133,1.067-1.067,4.267-3.2,5.333   c-1.067,1.067-1.067,1.067-1.067,2.133v1.067v1.067c-1.067,0-2.133,1.067-1.067,3.2c-2.133,0-2.133,2.133-3.2,4.267   c0,1.067,1.067,1.067,1.067,2.133c-1.067,0-1.067-1.067-2.133,0c-1.067,0-2.133,1.067-3.2,2.133   c-1.067,1.067-2.133,1.067-2.133,2.133c0,0,1.067,0,1.067,1.067c-1.067,1.067-2.133,1.067-2.133,2.133   c-1.067,0-1.067,1.067-2.133,2.133c0,0,1.067,0,1.067,1.067c-1.067,0-2.133,2.133-1.067,2.133c0,0,0,1.067,1.067,1.067   c1.067,0,3.2,0,4.267,0c0,0,0,1.067-1.067,1.067c-1.067-1.067-2.133,0-3.2,0c-1.067,0-1.067,1.067,0,2.133v2.133   c2.133-2.133,2.133-2.133,3.2-2.133c-1.067,1.067-2.133,2.133-2.133,3.2c-1.067,0-1.067,1.067-2.133,1.067l0,0   c1.067,0,1.067,0,2.133,0c0,1.067-1.067,1.067-1.067,2.133v1.067c1.067,1.067,2.133,2.133,3.2,3.2c0,0,1.067,0,2.133-1.067   c2.133-1.067,2.133-3.2,4.267-3.2v-1.067c0-1.067,0-1.067,0-2.133c0,1.067,1.067,3.2,1.067,4.267c1.067,3.2,1.067,5.333,3.2,8.533   c1.067,1.067,0,3.2-1.067,3.2s-1.067,1.067-2.133,1.067c1.067,1.067,2.133,2.133,2.133,3.2c0-1.067,1.067-2.133,1.067-3.2   c1.067,2.133,2.133,1.067,3.2,1.067c1.067-2.133,1.067-2.133,3.2-3.2h1.067c1.067-3.2,1.067-5.333,2.133-8.533   c0-1.067,1.067-3.2,2.133-3.2c1.067,0,1.067-1.067,1.067-1.067c-1.067,0-2.133,0-3.2,0c0,0,0,0,0-1.067c1.067,0,2.133,1.067,3.2,0   c1.067,0,2.133-1.067,2.133-2.133c0-2.133-2.133-3.2-4.267-2.133c0-3.2,1.067-5.333,1.067-8.533l0,0   c1.067-2.133,2.133-4.267,5.333-5.333c1.067-1.067,2.133-2.133,3.2-3.2c0,0,0-1.067,0-2.133c-1.067-2.133,0-3.2,1.067-4.267   c0-1.067,1.067-1.067,2.133-2.133c1.067,0,2.133,0,3.2,0c0,0,0,0,0-1.067l1.067,1.067c0,1.067,1.067,2.133,1.067,3.2l-1.067,1.067   l0,0c-1.067,2.133-2.133,4.267-4.267,6.4c0,1.067-1.067,1.067-2.133,1.067c-1.067,1.067-2.133,2.133-2.133,4.267s1.067,4.267,0,6.4   c0,1.067,0,2.133,1.067,2.133c1.067,1.067,2.133,1.067,3.2,2.133H256c1.067,0,2.133-1.067,3.2-1.067   c2.133-1.067,5.333-1.067,7.467-2.133l0,0c-1.067,1.067,0,2.133,1.067,2.133s1.067,0,2.133,1.067   c-2.133,1.067-3.2,1.067-5.333,2.133c-2.133,0-4.267-1.067-7.467,0c-1.067,1.067-2.133,1.067-1.067,2.133   c0,1.067,0,3.2,2.133,2.133c0,2.133,0,4.267-1.067,5.333c-2.133,0-2.133-2.133-4.267-3.2c-1.067,0-1.067,1.067-2.133,1.067   c-1.067,2.133-2.133,4.267-1.067,6.4c0,1.067,0,2.133,0,4.267c-2.133-1.067-2.133,0-3.2,1.067c0,1.067-1.067,1.067-2.133,1.067   c0,0,0-1.067-1.067-2.133c-2.133,0-8.533,2.133-9.6,4.267c-1.067-1.067-1.067-1.067-2.133-1.067c0-1.067,0-1.067,0-2.133   c-2.133,1.067-4.267,2.133-6.4,3.2c0-1.067,0-1.067,0-1.067c-1.067,0-2.133,0-2.133-1.067c-1.067-1.067-1.067-2.133-1.067-4.267   c1.067,1.067,1.067,1.067,1.067,1.067H224c0-1.067,0-1.067,0-2.133c-1.067,0-1.067,0-2.133,1.067c0-1.067,1.067-1.067,1.067-2.133   s1.067-1.067,2.133-2.133c-2.133,0-2.133-1.067-2.133-2.133c0-1.067,0-2.133,0-3.2c-1.067,1.067-2.133,2.133-3.2,2.133   c-2.133,2.133-3.2,4.267-1.067,7.467v1.067c0,1.067,0,3.2,0,4.267l0,0c0,1.067-1.067,1.067-1.067,2.133   c-1.067-1.067-2.133-1.067-3.2,0c0,0,0,0-1.067,0c-2.133,0-2.133,0-3.2,2.133v1.067l0,0v-2.133l0,0c0,1.067-1.067,3.2-2.133,5.333   c-1.067,0-2.133,1.067-4.267,2.133l-1.067,1.067c0,1.067-1.067,2.133-2.133,3.2c0,0-1.067,0-1.067,1.067   c-1.067,1.067-2.133,1.067-3.2,0H195.2c0,1.067,0,2.133,1.067,3.2c-1.067,0-2.133,0-3.2,0c-2.133-1.067-3.2,0-4.267,0   c0,2.133,1.067,2.133,2.133,2.133c2.133,0,3.2,1.067,3.2,3.2c0,0,0,1.067,1.067,1.067c2.133,1.067,1.067,2.133,1.067,3.2   s0,2.133,0,2.133c0,3.2-1.067,4.267-4.267,3.2c-3.2,0-7.467-1.067-10.667-1.067c-1.067,0-2.133,1.067-3.2,2.133v1.067v1.067   c1.067,3.2,0,6.4-1.067,9.6c0,1.067,0,2.133,1.067,2.133c0,1.067,0,2.133,0,3.2h1.067c2.133,0,4.267-1.067,5.333,2.133   c0,1.067,1.067,1.067,2.133,0c1.067-1.067,2.133-1.067,4.267-1.067c3.2,1.067,4.267-2.133,5.333-3.2c1.067,0,1.067-2.133,2.133-3.2   c-1.067-1.067-1.067-2.133,0-3.2c1.067-2.133,3.2-4.267,5.333-5.333c1.067-1.067,2.133-1.067,1.067-3.2   c0-1.067,0-2.133,1.067-2.133c1.067,0,2.133,0,4.267,0c1.067,0,1.067,0,2.133,0c2.133-1.067,3.2-2.133,4.267-3.2   c1.067-1.067,1.067-1.067,2.133,0c1.067,0,2.133,1.067,2.133,2.133c0,1.067,1.067,2.133,2.133,3.2c0,0,1.067,1.067,2.133,1.067   c2.133,1.067,3.2,2.133,5.333,4.267c1.067,1.067,2.133,1.067,2.133,2.133c0,1.067,1.067,2.133,1.067,3.2   c-1.067,1.067-3.2,2.133-5.333,2.133c-1.067,0-1.067,0-2.133,0c0,0,0,1.067,1.067,1.067c1.067,1.067,2.133,1.067,3.2,2.133   c1.067,0,1.067,0,1.067-1.067s0-2.133,0-3.2l0,0h1.067c0-1.067,1.067-2.133,1.067-2.133c1.067-1.067,1.067-1.067,0-2.133   c0,0,0-1.067,0-2.133h1.067c1.067,0,1.067,1.067,2.133,1.067c-1.067-3.2-3.2-3.2-5.333-4.267V332.8c-3.2,0-4.267-1.067-5.333-3.2   c0-1.067-1.067-2.133-2.133-3.2c-2.133-1.067-1.067-2.133-1.067-4.267c0,0,1.067-1.067,2.133-1.067c0,1.067,1.067,2.133,1.067,3.2   c1.067-1.067,1.067-1.067,1.067-2.133c1.067,1.067,1.067,2.133,2.133,3.2c0,1.067,1.067,2.133,1.067,2.133   c1.067,0,2.133,1.067,3.2,2.133c1.067,1.067,3.2,2.133,3.2,3.2c0,2.133,0,4.267,1.067,5.333c0,1.067,1.067,2.133,2.133,3.2   c1.067,1.067,1.067,2.133,2.133,3.2c-1.067,2.133,1.067,4.267,3.2,4.267c0-1.067,0-1.067,0-2.133h1.067c0,0,0-1.067-1.067-2.133   c1.067,0,1.067,1.067,2.133,1.067v-1.067h1.067c-1.067-2.133-2.133-3.2-3.2-3.2c0-1.067,0-2.133,0-2.133c0-1.067,0-1.067,0-2.133   c1.067,0,2.133,0,2.133,1.067c0,0,0-1.067,0-2.133c2.133-2.133,3.2,0,5.333,0c0,1.067-1.067,3.2-1.067,4.267l0,0l1.067-1.067   c0,1.067,0,1.067,0,1.067v1.067h-1.067v1.067c1.067,0,1.067,1.067,2.133,2.133c1.067,1.067,1.067,2.133,3.2,2.133   c0,0,1.067,0,1.067,1.067c2.133,1.067,2.133,1.067,3.2-1.067l0,0c1.067,0,1.067,1.067,2.133,1.067c2.133,1.067,3.2,1.067,5.333,0   h1.067c1.067,0,1.067,0,2.133,0c0,1.067,0,2.133,0,2.133c0,1.067,0,2.133,0,3.2c-1.067,2.133-2.133,4.267-3.2,7.467   c-1.067,2.133-3.2,3.2-5.333,2.133c-1.067-1.067-2.133-1.067-3.2-1.067s-2.133,1.067-3.2,1.067c-1.067,0-2.133,0-2.133,0   c-2.133,0-4.267-1.067-5.333-1.067c-2.133,0-3.2-1.067-5.333-2.133c0,0,0,0-1.067-1.067c-1.067,0-1.067-1.067-2.133-1.067   c-1.067,0-3.2,0-4.267,1.067c-1.067,1.067-1.067,2.133-1.067,3.2c0,0,0,1.067-1.067,1.067c-1.067,0-2.133,1.067-2.133,0   c-2.133,0-3.2-1.067-5.333-2.133c-1.067,0-1.067-1.067-1.067-1.067c-1.067-2.133-3.2-3.2-5.333-3.2c-3.2,0-5.333-2.133-7.467-3.2   c1.067-1.067,2.133-1.067,2.133-2.133c1.067-1.067,1.067-2.133,1.067-2.133c-1.067-1.067-1.067-2.133,0-3.2v-1.067   c-1.067,0-1.067,0-2.133,1.067c0-2.133-1.067-1.067-2.133-1.067c-1.067,1.067-2.133,1.067-4.267,0c-1.067,0-2.133,0-4.267,0h-1.067   c-3.2-1.067-6.4,0-9.6,1.067s-5.333,3.2-9.6,3.2H182.4c-1.067,0-2.133,0-2.133-1.067c-1.067-1.067-2.133-1.067-2.133,0   c-1.067,2.133-2.133,4.267-4.267,5.333c-2.133,1.067-4.267,4.267-4.267,6.4c0,2.133-1.067,3.2-2.133,4.267   c-2.133,2.133-5.333,2.133-6.4,5.333c0,0,0,0-1.067,1.067c0,0,0,1.067-1.067,1.067c-1.067,3.2-3.2,5.333-4.267,8.533   c0,1.067-1.067,2.133,0,3.2c1.067,1.067,1.067,2.133,0,3.2v1.067c0,1.067,0,3.2,0,4.267c0,1.067-1.067,2.133-1.067,2.133   c0,1.067-1.067,2.133-2.133,3.2c1.067,1.067,2.133,2.133,2.133,4.267c0,1.067,1.067,2.133,2.133,2.133h1.067   c1.067,2.133,3.2,3.2,4.267,5.333c0,0,1.067,1.067,1.067,2.133c0,1.067,1.067,2.133,2.133,3.2c2.133,1.067,4.267,3.2,6.4,4.267   c2.133,1.067,4.267,3.2,7.467,1.067c2.133-1.067,5.333-1.067,7.467,0c1.067,0,2.133,0,3.2,0c3.2-2.133,6.4-3.2,10.667-3.2   c2.133,0,3.2,1.067,4.267,3.2c0,1.067,1.067,2.133,2.133,1.067c1.067,0,2.133,0,3.2,0c2.133,0,4.267,2.133,4.267,4.267   c0,1.067,0,2.133-1.067,4.267c0,1.067-1.067,2.133-1.067,3.2c0,0,0,1.067,0,2.133c1.067,2.133,3.2,4.267,5.333,6.4   c1.067,1.067,2.133,2.133,2.133,3.2c1.067,1.067,1.067,3.2,1.067,4.267c0,1.067,0,2.133,0,3.2s0,2.133,1.067,2.133   c1.067,1.067,1.067,4.267,0,4.267c-2.133,2.133-3.2,5.333-3.2,7.467c-1.067,3.2-1.067,5.333,1.067,7.467   c3.2,4.267,4.267,9.6,5.333,14.933c0,2.133,0,4.267,2.133,6.4c2.133,1.067,2.133,3.2,3.2,5.333c1.067,1.067,1.067,3.2,2.133,4.267   c1.067,1.067,1.067,2.133,0,3.2c0,0,0,1.067,1.067,1.067c5.333,0,10.667,1.067,14.933,1.067c1.067,0,2.133,0,3.2,0   c1.067-1.067,2.133-1.067,3.2-1.067c3.2-2.133,5.333-5.333,6.4-8.533c1.067-1.067,1.067-2.133,2.133-3.2   c2.133-2.133,2.133-4.267,2.133-6.4c0-2.133,0-2.133,1.067-2.133c1.067,0,2.133-1.067,2.133-1.067c1.067,0,2.133-1.067,2.133-2.133   c0-2.133,1.067-5.333-1.067-7.467c-1.067-1.067-1.067-2.133,1.067-3.2c1.067-1.067,2.133-2.133,3.2-2.133   c1.067-1.067,1.067-2.133,2.133-2.133c2.133-1.067,4.267-2.133,5.333-4.267c1.067-1.067,1.067-2.133,1.067-3.2   c0-2.133-1.067-4.267,0-6.4c0-1.067,0-2.133,0-2.133c-1.067-2.133-2.133-3.2-2.133-5.333c0,0,0-1.067,0-2.133   c-1.067-1.067-1.067-2.133,0-3.2c0-1.067,1.067-2.133,1.067-3.2c1.067-4.267,4.267-5.333,7.467-8.533   c2.133-2.133,4.267-3.2,6.4-5.333c3.2-3.2,6.4-6.4,7.467-10.667c0,0,0-1.067,1.067-1.067c2.133-2.133,2.133-4.267,2.133-7.467   c0-1.067-1.067-1.067-2.133-1.067c-1.067,0-2.133,1.067-2.133,1.067c-2.133,0-3.2,1.067-5.333,1.067c-1.067,0-3.2,0-4.267,1.067   c0,0-1.067,0-1.067-1.067C289.067,406.4,288,406.4,288,405.334c1.067-1.067,1.067-1.067,0-2.133c-1.067-1.067-2.133-2.133-3.2-3.2   c-1.067-1.067-1.067-1.067-2.133-2.133c-2.133-1.067-3.2-2.133-3.2-3.2s-1.067-3.2-2.133-3.2c-2.133-1.067-2.133-3.2-2.133-5.333   c0-1.067-1.067-3.2-2.133-4.267c-1.067-1.067-3.2-2.133-2.133-4.267l0,0c-1.067-1.067-2.133-2.133-2.133-4.267   c-1.067-2.133-2.133-5.333-4.267-7.467c0,0,0-1.067,0-2.133c1.067,1.067,1.067,2.133,2.133,3.2c0,1.067,1.067,1.067,2.133,1.067   c0-1.067,1.067-1.067,1.067-2.133c0,0,1.067,1.067,1.067,2.133c1.067,2.133,3.2,5.333,4.267,7.467c0,0,0,1.067,1.067,1.067   c2.133,1.067,3.2,3.2,3.2,5.333c0,2.133,0,3.2,2.133,4.267c1.067,0,1.067,2.133,2.133,2.133c1.067,1.067,1.067,2.133,2.133,3.2   c1.067,1.067,1.067,3.2,2.133,4.267c1.067,2.133,1.067,4.267,1.067,6.4l1.067,1.067c1.067,0,2.133,0,3.2-1.067   c0,0,1.067,0,1.067-1.067c1.067,0,2.133-1.067,3.2-1.067c1.067-1.067,3.2-1.067,4.267-2.133c1.067-1.067,3.2-1.067,4.267-2.133   l1.067-1.067c1.067-1.067,1.067-1.067,2.133-2.133c2.133-1.067,4.267,0,5.333-2.133h1.067c1.067-1.067,2.133-2.133,3.2-3.2v-1.067   c0-1.067,0-1.067,1.067-2.133c2.133-1.067,2.133-2.133,3.2-4.267v-1.067c-1.067-1.067-3.2-3.2-5.333-3.2   c-1.067,0-2.133-2.133-2.133-3.2s0-1.067,0-2.133c-1.067,2.133-3.2,3.2-4.267,4.267l-1.067,1.067c-1.067,0-3.2,0-4.267,0   l-1.067-1.067c0-1.067,0-1.067,0-2.133V371.2l0,0c0,1.067-1.067,1.067-1.067,2.133c-1.067-1.067-1.067-2.133-1.067-3.2   c0,0,0-1.067-1.067-1.067c-1.067-1.067-2.133-2.133-3.2-3.2c-1.067-2.133-1.067-3.2,0-5.333l0,0c1.067,0,2.133,1.067,3.2,1.067   c1.067,1.067,2.133,2.133,2.133,4.267c0,0,0,1.067,1.067,1.067c1.067,1.067,3.2,2.133,4.267,2.133c1.067,1.067,4.267,1.067,5.333,0   c1.067-1.067,2.133-1.067,2.133,0c0,2.133,2.133,2.133,3.2,2.133c1.067,0,2.133,0,3.2,0s2.133,1.067,4.267,0c3.2,0,6.4,0,9.6,0   h1.067c1.067,1.067,3.2,3.2,4.267,4.267c1.067,1.067,2.133,1.067,3.2,1.067h1.067l0,0c-1.067,0-2.133,1.067-3.2,1.067   c1.067,1.067,2.133,1.067,2.133,2.133c2.133,2.133,4.267,1.067,5.333-1.067c0,0,0-1.067,1.067-1.067c0,1.067,0,2.133,0,3.2   s0,2.133,0,2.133c0,3.2,0,6.4,2.133,9.6c2.133,4.267,4.267,9.6,6.4,13.867c0,1.067,1.067,1.067,1.067,2.133   c1.067,1.067,1.067,1.067,2.133,0c0-1.067,1.067-1.067,1.067-1.067s0,0,1.067-1.067c0-1.067,1.067-1.067,2.133-2.133   c0-2.133,2.133-5.333,1.067-8.533c0,0,0-1.067,0-2.133l1.067-1.067c1.067-1.067,2.133-1.067,3.2-2.133   c3.2-2.133,5.333-4.267,8.533-6.4c1.067-1.067,2.133-1.067,2.133-2.133c0-2.133,1.067-2.133,2.133-3.2c2.133,1.067,3.2,0,4.267,0   c1.067,0,1.067-1.067,2.133-2.133c1.067,0,2.133,1.067,2.133,2.133c1.067,1.067,1.067,3.2,2.133,4.267   c1.067,1.067,2.133,2.133,3.2,4.267c1.067,1.067,0,3.2,0,5.333c1.067,1.067,4.267,0,5.333-2.133c2.133,0,2.133,2.133,2.133,4.267   c0,1.067,0,2.133,1.067,3.2c1.067,2.133,1.067,5.333,1.067,7.467c0,2.133,0,3.2-1.067,4.267c1.067,1.067,1.067,1.067,2.133,1.067   c2.133,2.133,3.2,4.267,3.2,6.4c0,3.2,3.2,5.333,6.4,7.467c0,0,1.067,0,2.133,0c0-1.067,0-1.067,0-2.133   c0-1.067-1.067-2.133-1.067-3.2c0-3.2-2.133-5.333-4.267-6.4c-2.133,0-2.133-1.067-2.133-2.133c0-1.067,0-3.2-2.133-3.2   c0-1.067,0-2.133,0-2.133c0-2.133,1.067-4.267,1.067-6.4l1.067-1.067c0,0,1.067,0,1.067,1.067v1.067c2.133,0,3.2,0,4.267,1.067   c1.067,2.133,2.133,3.2,4.267,3.2c1.067,0,1.067,1.067,1.067,2.133c0,1.067,0,1.067,0,2.133l0,0   c1.067-1.067,1.067-1.067,2.133-2.133c1.067-1.067,1.067-2.133,3.2-2.133s4.267-1.067,4.267-4.267c0-2.133,0-4.267-1.067-6.4   c0-1.067-1.067-1.067-1.067-2.133c-2.133-2.133-3.2-3.2-5.333-5.333c0,0,0-1.067,0-2.133c1.067-2.133,2.133-4.267,5.333-5.333   c1.067,0,2.133,0,3.2,0c1.067,1.067,1.067,2.133,1.067,3.2l0,0c0-2.133,0-2.133,2.133-3.2c1.067,0,1.067,0,2.133,0   c1.067,0,2.133,0,2.133-1.067c1.067,0,1.067-1.067,2.133,0c0,0,0,0,1.067,0s2.133-1.067,3.2-1.067s1.067-1.067,2.133-1.067   c1.067-1.067,2.133-2.133,3.2-3.2c2.133-1.067,3.2-2.133,3.2-4.267l0,0c2.133-2.133,4.267-5.333,5.333-8.533   c-1.067,0-1.067-1.067-2.133-1.067c1.067,0,1.067-1.067,2.133-1.067l-1.067-1.067l1.067-1.067c-1.067-1.067-2.133-2.133-2.133-3.2   c-1.067-2.133-1.067-4.267-3.2-4.267c1.067-1.067,1.067-1.067,1.067-2.133c1.067-1.067,2.133-1.067,2.133-1.067   c0-1.067,2.133-1.067,3.2-2.133c0,0,1.067,0,1.067-1.067l0,0h-1.067c-2.133-1.067-3.2-1.067-4.267,0h-1.067   c-1.067-1.067-1.067-1.067-2.133-2.133c0,0-1.067-1.067-1.067-2.133l1.067-1.067c1.067,0,1.067,0,2.133-1.067   c1.067-1.067,3.2-3.2,4.267-4.267h1.067c0,0,0,1.067,0,2.133c0,1.067-1.067,1.067-1.067,2.133c1.067,1.067,1.067,1.067,0,2.133   c1.067-1.067,2.133-1.067,3.2-2.133c1.067,0,2.133-1.067,2.133-1.067c1.067,0,2.133,1.067,3.2,1.067   c0,1.067-1.067,2.133-1.067,4.267l1.067,1.067c2.133-1.067,3.2,0,3.2,2.133c0,0-1.067,0-1.067,1.067c3.2,2.133,0,4.267,1.067,6.4   c1.067-1.067,3.2-1.067,4.267-2.133c2.133-1.067,2.133-2.133,2.133-4.267c0-2.133-2.133-4.267-3.2-6.4   c-1.067-1.067-1.067-2.133,0-3.2c2.133-1.067,4.267-2.133,3.2-4.267c0,0,0-1.067,1.067-1.067c1.067-1.067,2.133-3.2,4.267-4.267   c1.067,0,1.067,1.067,2.133,1.067c2.133,1.067,4.267-1.067,5.333-2.133c2.133-2.133,4.267-5.333,6.4-8.533   c2.133-8.533,4.267-17.067,5.333-26.667l0,0c-1.067-1.067-2.133-1.067-3.2-1.067c0,1.067,0,1.067,0,2.133c-1.067,0-2.133,0-2.133,0   c0-1.067,0-1.067,0-2.133c0,1.067-1.067,1.067-1.067,1.067l0,0c0-1.067,0-2.133,0-2.133c-1.067,0-2.133,0-3.2-1.067   c0-1.067,0-1.067,0-1.067c3.2-3.2,6.4-7.467,10.667-10.667l1.067-1.067c0-1.067,1.067-1.067,1.067-2.133   c0-6.4,1.067-12.8,1.067-19.2C512,238.933,509.867,221.867,506.667,205.867z"/>
</g>
<path style="fill:#415A6B;" d="M480,345.6H32c-18.133,0-32-13.867-32-32V198.4c0-18.133,13.867-32,32-32h448  c18.133,0,32,13.867,32,32v114.133C512,330.667,498.133,345.6,480,345.6z"/>
<g>
	<path style="fill:#FFFFFF;" d="M101.333,297.6H76.8L48,214.4h23.467l16,50.133l16-50.133H128l16,50.133l16-50.133h24.533   l-28.8,83.2H131.2l-14.933-44.8L101.333,297.6z"/>
	<path style="fill:#FFFFFF;" d="M240,297.6h-23.467l-28.8-83.2H211.2l16,50.133l16-50.133h23.467l16,50.133l16-50.133H323.2   l-28.8,83.2h-24.533L256,252.8L240,297.6z"/>
	<path style="fill:#FFFFFF;" d="M379.733,297.6h-23.467l-28.8-83.2H352l16,50.133l16-50.133h22.4l16,50.133l16-50.133h24.533   l-28.8,83.2H409.6l-14.933-44.8L379.733,297.6z"/>
</g>
<g>
</g>
<g>
</g>
<g>
</g>
<g>
</g>
<g>
</g>
<g>
</g>
<g>
</g>
<g>
</g>
<g>
</g>
<g>
</g>
<g>
</g>
<g>
</g>
<g>
</g>
<g>
</g>
<g>
</g>
</svg>
