<?xml version="1.0" encoding="iso-8859-1"?>
<!-- Generator: Adobe Illustrator 19.0.0, SVG Export Plug-In . SVG Version: 6.00 Build 0)  -->
<svg xmlns="http://www.w3.org/2000/svg" xmlns:xlink="http://www.w3.org/1999/xlink" version="1.1" id="Layer_1" x="0px" y="0px" viewBox="0 0 512 512" style="enable-background:new 0 0 512 512;" xml:space="preserve">
<path style="fill:#E8EAE9;" d="M423.467,368c-7.467,0-13.867,6.4-13.867,13.867c0,42.667-32,77.867-74.667,82.133L272,470.4v26.667  l65.067-6.4c56.533-5.333,98.133-52.267,98.133-108.8C436.267,373.333,430.933,368,423.467,368z"/>
<ellipse style="fill:#415A6B;" cx="256" cy="485.333" rx="33.067" ry="26.667"/>
<path style="fill:#E8EAE9;" d="M91.733,290.133c-10.667-22.4-16-48-16-73.6c0-99.2,81.067-180.267,180.267-180.267  s180.267,81.067,180.267,180.267c0,25.6-5.333,50.133-16,73.6H454.4c8.533-23.467,12.8-48,12.8-73.6  c1.067-116.267-93.867-211.2-211.2-211.2S43.733,100.267,43.733,217.6c0,25.6,4.267,50.133,12.8,73.6h35.2V290.133z"/>
<path style="fill:#F3705A;" d="M130.133,232.533c-49.067,1.067-87.467,40.533-87.467,88.533c0,49.067,39.467,88.533,87.467,88.533  V232.533z"/>
<path style="fill:#E8EAE9;" d="M147.2,428.8c-10.667,0-19.2-8.533-19.2-19.2V232.533c0-10.667,8.533-19.2,19.2-19.2  c10.667,0,19.2,8.533,19.2,19.2v178.133C166.4,420.267,157.867,428.8,147.2,428.8z"/>
<path style="fill:#F3705A;" d="M381.867,232.533c48,1.067,87.467,40.533,87.467,88.533c0,49.067-39.467,88.533-87.467,88.533  V232.533z"/>
<path style="fill:#E8EAE9;" d="M364.8,428.8c10.667,0,19.2-8.533,19.2-19.2V232.533c0-10.667-8.533-19.2-19.2-19.2  s-19.2,8.533-19.2,19.2v178.133C345.6,420.267,354.133,428.8,364.8,428.8z"/>
<path style="fill:#F3705A;" d="M379.733,44.8l-17.067,27.733c-1.067,2.133-4.267,3.2-6.4,1.067  C327.467,54.4,293.333,42.667,256,42.667S184.533,54.4,156.8,73.6c-2.133,2.133-5.333,1.067-7.467-1.067L131.2,44.8  c-1.067-2.133-1.067-5.333,1.067-6.4C168.533,13.867,210.133,0,256,0s87.467,13.867,122.667,38.4  C380.8,39.467,381.867,42.667,379.733,44.8z"/>
<g>
</g>
<g>
</g>
<g>
</g>
<g>
</g>
<g>
</g>
<g>
</g>
<g>
</g>
<g>
</g>
<g>
</g>
<g>
</g>
<g>
</g>
<g>
</g>
<g>
</g>
<g>
</g>
<g>
</g>
</svg>
