<?xml version="1.0" encoding="iso-8859-1"?>
<!-- Generator: Adobe Illustrator 19.0.0, SVG Export Plug-In . SVG Version: 6.00 Build 0)  -->
<svg xmlns="http://www.w3.org/2000/svg" xmlns:xlink="http://www.w3.org/1999/xlink" version="1.1" id="Layer_1" x="0px" y="0px" viewBox="0 0 512 512" style="enable-background:new 0 0 512 512;" xml:space="preserve">
<path style="fill:#415A6B;" d="M314.667,250.133L299.733,97.6c-2.133-24.533-22.4-42.667-46.933-42.667H144  c-24.533,0-44.8,18.133-46.933,42.667L83.2,250.133H314.667z"/>
<g>
	<rect y="218.133" style="fill:#FFD15C;" width="512" height="44.8"/>
	<rect x="64" y="461.333" style="fill:#FFD15C;" width="39.467" height="23.467"/>
	<rect x="408.533" y="461.333" style="fill:#FFD15C;" width="39.467" height="23.467"/>
</g>
<rect x="34.133" y="262.933" style="fill:#F7B64C;" width="443.733" height="198.4"/>
<polyline style="fill:none;stroke:#CED6E0;stroke-width:1.5;stroke-miterlimit:10;" points="438.4,206.4 471.467,146.667   418.133,54.933 "/>
<circle style="fill:#415A6B;" cx="471.467" cy="146.667" r="16"/>
<circle style="fill:#344A5E;" cx="471.467" cy="146.667" r="6.4"/>
<path style="fill:#E8EAE9;" d="M377.6,218.133L377.6,218.133h120.533l0,0c0-12.8-10.667-24.533-24.533-24.533h-72.533  C388.267,194.667,377.6,205.333,377.6,218.133z"/>
<path style="fill:#FFD15C;" d="M378.667,107.2c-8.533,8.533-21.333,8.533-28.8,0s-8.533-21.333,0-28.8L378.667,107.2z"/>
<g>
	<path style="fill:#F3705A;" d="M400,127.467l-70.4-70.4c19.2-19.2,51.2-19.2,70.4,0C419.2,76.267,419.2,108.267,400,127.467z"/>
	<path style="fill:#F3705A;" d="M424.533,33.6c-8.533-8.533-23.467-8.533-32,0l-16,16l32,32l16-16   C433.067,57.067,433.067,42.133,424.533,33.6z"/>
</g>
<g>
</g>
<g>
</g>
<g>
</g>
<g>
</g>
<g>
</g>
<g>
</g>
<g>
</g>
<g>
</g>
<g>
</g>
<g>
</g>
<g>
</g>
<g>
</g>
<g>
</g>
<g>
</g>
<g>
</g>
</svg>
