<?xml version="1.0" encoding="iso-8859-1"?>
<!-- Generator: Adobe Illustrator 19.0.0, SVG Export Plug-In . SVG Version: 6.00 Build 0)  -->
<svg xmlns="http://www.w3.org/2000/svg" xmlns:xlink="http://www.w3.org/1999/xlink" version="1.1" id="Layer_1" x="0px" y="0px" viewBox="0 0 513.067 513.067" style="enable-background:new 0 0 513.067 513.067;" xml:space="preserve">
<path style="fill:#8AD7F8;" d="M474.133,428.8c23.467-24.533,38.4-56.533,38.4-92.8c0-73.6-59.733-134.4-134.4-134.4  s-134.4,59.733-134.4,134.4c0,73.6,59.733,134.4,134.4,134.4c7.467,0,14.933-1.067,21.333-2.133l103.467,44.8L474.133,428.8z"/>
<path style="fill:#55C0EB;" d="M401.6,203.733c-7.467-1.067-14.933-2.133-23.467-2.133c-73.6,0-134.4,59.733-134.4,134.4  c0,20.267,4.267,38.4,11.733,55.467C336.533,364.8,396.267,291.2,401.6,203.733z"/>
<path style="fill:#F3705A;" d="M189.333,0C84.8,0,0.533,84.267,0.533,188.8c0,59.733,27.733,113.067,71.467,148.267L34.667,457.6  l132.267-81.067c7.467,1.067,14.933,1.067,23.467,1.067c104.533,0,188.8-84.267,188.8-188.8C378.133,84.267,293.867,0,189.333,0z"/>
<g>
	<path style="fill:#FFFFFF;" d="M90.133,132.267H289.6c7.467,0,12.8-5.333,12.8-12.8s-6.4-12.8-12.8-12.8H90.133   c-7.467,0-12.8,5.333-12.8,12.8S82.667,132.267,90.133,132.267z"/>
	<path style="fill:#FFFFFF;" d="M289.6,176H90.133c-7.467,0-12.8,5.333-12.8,12.8s5.333,12.8,12.8,12.8H289.6   c7.467,0,12.8-5.333,12.8-12.8C302.4,182.4,296,176,289.6,176z"/>
	<path style="fill:#FFFFFF;" d="M201.067,245.333H90.133c-7.467,0-12.8,5.333-12.8,12.8c0,7.467,5.333,12.8,12.8,12.8h112   c7.467,0,12.8-5.333,12.8-12.8C214.933,250.667,208.533,245.333,201.067,245.333z"/>
</g>
<g>
</g>
<g>
</g>
<g>
</g>
<g>
</g>
<g>
</g>
<g>
</g>
<g>
</g>
<g>
</g>
<g>
</g>
<g>
</g>
<g>
</g>
<g>
</g>
<g>
</g>
<g>
</g>
<g>
</g>
</svg>
