<?xml version="1.0" encoding="iso-8859-1"?>
<!-- Generator: Adobe Illustrator 19.0.0, SVG Export Plug-In . SVG Version: 6.00 Build 0)  -->
<svg xmlns="http://www.w3.org/2000/svg" xmlns:xlink="http://www.w3.org/1999/xlink" version="1.1" id="Layer_1" x="0px" y="0px" viewBox="0 0 512 512" style="enable-background:new 0 0 512 512;" xml:space="preserve">
<path style="fill:#E8EAE9;" d="M512,250.634c0,43.733-35.2,78.933-78.933,78.933H78.933C35.2,329.568,0,294.368,0,250.634  c0-42.667,33.067-76.8,75.733-78.933c-7.467-22.4-1.067-48,17.067-65.067s43.733-21.333,66.133-12.8  c25.6-72.533,105.6-110.933,178.133-86.4c68.267,23.467,107.733,94.933,92.8,164.267c1.067,0-1.067,0,0,0  C473.6,171.701,512,206.901,512,250.634z"/>
<polygon style="fill:#66C6B9;" points="364.8,403.168 256,511.968 147.2,403.168 201.6,403.168 201.6,255.968 310.4,255.968   310.4,403.168 "/>
<g>
</g>
<g>
</g>
<g>
</g>
<g>
</g>
<g>
</g>
<g>
</g>
<g>
</g>
<g>
</g>
<g>
</g>
<g>
</g>
<g>
</g>
<g>
</g>
<g>
</g>
<g>
</g>
<g>
</g>
</svg>
