<?xml version="1.0" encoding="iso-8859-1"?>
<!-- Generator: Adobe Illustrator 19.0.0, SVG Export Plug-In . SVG Version: 6.00 Build 0)  -->
<svg xmlns="http://www.w3.org/2000/svg" xmlns:xlink="http://www.w3.org/1999/xlink" version="1.1" id="Layer_1" x="0px" y="0px" viewBox="0 0 512.8 512.8" style="enable-background:new 0 0 512.8 512.8;" xml:space="preserve">
<path style="fill:#40596B;" d="M431.733,338.533c-117.333,0-233.6,0-350.933,0c-35.2,0-71.467-27.733-76.8-64  c-5.333-45.867-5.333-91.733,0-137.6c4.267-35.2,41.6-64,76.8-64c117.333,0,233.6,0,350.933,0c35.2,0,71.467,27.733,76.8,64  c5.333,45.867,5.333,91.733,0,137.6C504.267,309.733,466.933,338.533,431.733,338.533z"/>
<path style="fill:#FF7058;" d="M480.8,416.4h-448c-18.133,0-32-13.867-32-32l0,0c0-18.133,13.867-32,32-32h448  c18.133,0,32,13.867,32,32l0,0C512.8,401.467,498.933,416.4,480.8,416.4z"/>
<rect x="82.933" y="338.533" style="fill:#334A5E;" width="348.8" height="13.867"/>
<g>
	<circle style="fill:#40596B;" cx="100" cy="416.4" r="56.533"/>
	<circle style="fill:#40596B;" cx="413.6" cy="416.4" r="56.533"/>
</g>
<circle style="fill:#CDD6E0;" cx="413.6" cy="416.4" r="27.733"/>
<g>
	<path style="fill:#ACB3BA;" d="M413.6,395.067c13.867,0,25.6,10.667,27.733,24.533c0-1.067,0-2.133,0-3.2   c0-16-12.8-27.733-27.733-27.733c-16,0-27.733,12.8-27.733,27.733c0,1.067,0,2.133,0,3.2   C388,405.733,399.733,395.067,413.6,395.067z"/>
	<rect x="125.6" y="63.333" style="fill:#ACB3BA;" width="60.8" height="10.667"/>
</g>
<rect x="117.067" y="39.867" style="fill:#40596B;" width="77.867" height="23.467"/>
<path style="fill:#ACB3BA;" d="M265.333,74c27.733,0,50.133,22.4,50.133,50.133V352.4h20.267v-41.6h60.8v41.6H416.8V123.067  c-1.067-38.4-32-69.333-70.4-69.333c-5.333,0-9.6,4.267-9.6,9.6s4.267,9.6,9.6,9.6c24.533,0,44.8,17.067,49.067,39.467h-60.8  c-5.333-33.067-34.133-58.667-69.333-58.667c-5.333,0-9.6,4.267-9.6,9.6S260,74,265.333,74z M334.667,133.733h60.8v38.4h-60.8  V133.733z M334.667,192.4h60.8v38.4h-60.8V192.4z M334.667,251.067h60.8v38.4h-60.8V251.067z"/>
<circle style="fill:#CDD6E0;" cx="100" cy="416.4" r="27.733"/>
<path style="fill:#ACB3BA;" d="M100,395.067c13.867,0,25.6,10.667,27.733,24.533c0-1.067,0-2.133,0-3.2  c0-16-12.8-27.733-27.733-27.733c-16,0-27.733,12.8-27.733,27.733c0,1.067,0,2.133,0,3.2C73.333,405.733,85.067,395.067,100,395.067  z"/>
<circle style="fill:#FF7058;" cx="155.467" cy="206.267" r="56.533"/>
<path style="fill:#F2F2F2;" d="M183.2,215.867c0,14.933-12.8,27.733-27.733,27.733c-14.933,0-26.667-12.8-26.667-27.733  s27.733-48,27.733-48S183.2,200.933,183.2,215.867z"/>
<path style="fill:#FFFFFF;" d="M157.6,238.267c-12.8,0-22.4-9.6-22.4-22.4c0-1.067,1.067-2.133,2.133-2.133s2.133,1.067,2.133,2.133  c0,9.6,8.533,18.133,18.133,18.133c1.067,0,2.133,1.067,2.133,2.133S158.667,238.267,157.6,238.267z"/>
<path style="fill:#F1543F;" d="M104.267,216.933c0-32,25.6-56.533,56.533-56.533c20.267,0,37.333,10.667,48,25.6  c-8.533-21.333-28.8-36.267-53.333-36.267c-32,0-56.533,25.6-56.533,56.533c0,11.733,3.2,22.4,9.6,30.933  C105.333,230.8,104.267,223.333,104.267,216.933z"/>
<g>
</g>
<g>
</g>
<g>
</g>
<g>
</g>
<g>
</g>
<g>
</g>
<g>
</g>
<g>
</g>
<g>
</g>
<g>
</g>
<g>
</g>
<g>
</g>
<g>
</g>
<g>
</g>
<g>
</g>
</svg>
