<?xml version="1.0" encoding="iso-8859-1"?>
<!-- Generator: Adobe Illustrator 19.0.0, SVG Export Plug-In . SVG Version: 6.00 Build 0)  -->
<svg xmlns="http://www.w3.org/2000/svg" xmlns:xlink="http://www.w3.org/1999/xlink" version="1.1" id="Layer_1" x="0px" y="0px" viewBox="0 0 512 512" style="enable-background:new 0 0 512 512;" xml:space="preserve">
<path style="fill:#40596B;" d="M443.2,434.133c-26.667-2.133-46.933-26.667-46.933-53.333v-75.733c0-6.4-5.333-11.733-11.733-11.733  h-16v-32h32c16,0,27.733,12.8,27.733,27.733v92.8c0,9.6,6.4,19.2,16,20.267c12.8,2.133,23.467-7.467,23.467-19.2V161.067  c0-32-17.067-62.933-43.733-80l-40.533-25.6L400.533,28.8l40.533,24.533c36.267,23.467,58.667,64,58.667,107.733v220.8  C499.733,412.8,474.133,436.267,443.2,434.133z"/>
<rect x="31.467" y="336" style="fill:#CDD6E0;" width="336" height="117.333"/>
<rect x="31.467" style="fill:#F2F2F2;" width="336" height="336"/>
<rect id="SVGCleanerId_0" x="52.8" y="21.333" style="fill:#54C0EB;" width="293.333" height="132.267"/>
<g>
	<rect id="SVGCleanerId_0_1_" x="52.8" y="21.333" style="fill:#54C0EB;" width="293.333" height="132.267"/>
</g>
<rect x="2.667" y="453.333" style="fill:#40596B;" width="395.733" height="58.667"/>
<g>
	<polygon style="fill:#84DBFF;" points="209.6,21.333 98.667,153.6 78.4,153.6 189.333,21.333  "/>
	<polygon style="fill:#84DBFF;" points="255.467,21.333 144.533,153.6 112.533,153.6 223.467,21.333  "/>
</g>
<rect x="73.067" y="196.267" style="fill:#ACB3BA;" width="44.8" height="97.067"/>
<path style="fill:#FF7058;" d="M465.6,100.267c-12.8,0-21.333,12.8-16,24.533c5.333,10.667,7.467,23.467,7.467,36.267v44.8  c0,12.8,10.667,22.4,22.4,22.4h7.467c12.8,0,22.4-10.667,22.4-22.4v-44.8c0-17.067-3.2-33.067-8.533-49.067  c-2.133-6.4-9.6-11.733-17.067-11.733H465.6z"/>
<g>
</g>
<g>
</g>
<g>
</g>
<g>
</g>
<g>
</g>
<g>
</g>
<g>
</g>
<g>
</g>
<g>
</g>
<g>
</g>
<g>
</g>
<g>
</g>
<g>
</g>
<g>
</g>
<g>
</g>
</svg>
