<?xml version="1.0" encoding="iso-8859-1"?>
<!-- Generator: Adobe Illustrator 19.0.0, SVG Export Plug-In . SVG Version: 6.00 Build 0)  -->
<svg xmlns="http://www.w3.org/2000/svg" xmlns:xlink="http://www.w3.org/1999/xlink" version="1.1" id="Layer_1" x="0px" y="0px" viewBox="0 0 512 512" style="enable-background:new 0 0 512 512;" xml:space="preserve">
<g>
	<path style="fill:#F2F2F2;" d="M478.933,130.133L478.933,130.133c0-12.8-10.667-23.467-23.467-23.467   c-3.2,0-5.333,1.067-8.533,2.133c-5.333-4.267-11.733-6.4-18.133-5.333c-4.267,1.067-8.533,3.2-11.733,5.333   c-6.4,5.333-14.933,6.4-22.4,5.333c-2.133,0-4.267,0-7.467,0c-7.467,1.067-12.8,6.4-17.067,12.8c-2.133,4.267-3.2,8.533-3.2,11.733   l0,0c-7.467,1.067-11.733,7.467-10.667,14.933c-1.067,1.067-3.2,2.133-4.267,3.2c-7.467,7.467-16,12.8-25.6,18.133l0,0   c-7.467,4.267-11.733,11.733-12.8,19.2c-1.067,16,12.8,27.733,27.733,25.6C353.067,217.6,361.6,208,361.6,196.267   c3.2,1.067,7.467,2.133,11.733,1.067c1.067,0,2.133-1.067,3.2-1.067c4.267,12.8,17.067,20.267,30.933,16   c7.467-2.133,13.867-9.6,16-17.067c2.133-7.467,0-12.8-2.133-18.133c4.267-2.133,7.467-4.267,9.6-8.533   c6.4,4.267,14.933,6.4,22.4,3.2c4.267-1.067,7.467-4.267,10.667-7.467c3.2,2.133,7.467,4.267,11.733,4.267   c10.667,0,19.2-8.533,19.2-19.2C494.933,139.733,487.467,132.267,478.933,130.133z"/>
	<path style="fill:#F2F2F2;" d="M305.067,59.733c-4.267-8.533-6.4-17.067-8.533-26.667c-1.067-5.333-4.267-10.667-9.6-17.067   C280.533,8.533,272,4.267,262.4,4.267c-6.4,0-12.8,2.133-18.133,5.333c-9.6,6.4-21.333,5.333-33.067,2.133   c-4.267,0-7.467-1.067-10.667-1.067c-10.667,0-20.267,6.4-26.667,13.867c-4.267,5.333-6.4,10.667-7.467,16l0,0   c-10.667,0-18.133,7.467-19.2,18.133c-2.133,1.067-4.267,2.133-6.4,4.267c-12.8,8.533-26.667,13.867-40.533,19.2c0,0,0,0-1.067,0   C88.533,86.4,80,96,77.867,106.667c-5.333,22.4,11.733,42.667,34.133,42.667c17.067,0,30.933-12.8,34.133-28.8   c5.333,2.133,10.667,4.267,16,4.267c2.133,0,3.2,0,5.333-1.067c2.133,18.133,19.2,32,39.467,28.8   c11.733-2.133,21.333-9.6,25.6-20.267c4.267-9.6,3.2-18.133,1.067-25.6c6.4-2.133,11.733-5.333,14.933-9.6   c7.467,7.467,19.2,12.8,30.933,9.6c13.867-2.133,25.6-14.933,27.733-28.8C308.267,71.467,307.2,65.067,305.067,59.733z"/>
</g>
<path style="fill:#FFD15C;" d="M448,183.467H304l-13.867,70.4C269.867,355.2,260.267,403.2,260.267,507.733l0,0H492.8l0,0  c0-103.467-9.6-151.467-29.867-253.867L448,183.467z"/>
<path style="fill:#F8B64C;" d="M451.2,190.933H300.8c-4.267,0-7.467-3.2-7.467-7.467V182.4c0-4.267,3.2-7.467,7.467-7.467h150.4  c4.267,0,7.467,3.2,7.467,7.467v1.067C457.6,187.733,454.4,190.933,451.2,190.933z"/>
<path style="fill:#CDD6E0;" d="M241.067,123.733h-166.4l-16,81.067c-23.467,117.333-35.2,181.333-35.2,301.867l0,0h268.8l0,0  c0-120.533-11.733-183.467-35.2-301.867L241.067,123.733z"/>
<rect y="452.267" style="fill:#40596B;" width="512" height="54.4"/>
<path style="fill:#ACB3BA;" d="M244.267,133.333h-172.8c-4.267,0-8.533-4.267-8.533-8.533v-1.067c0-4.267,4.267-8.533,8.533-8.533  h173.867c4.267,0,8.533,4.267,8.533,8.533v1.067C252.8,129.067,249.6,133.333,244.267,133.333z"/>
<g>
</g>
<g>
</g>
<g>
</g>
<g>
</g>
<g>
</g>
<g>
</g>
<g>
</g>
<g>
</g>
<g>
</g>
<g>
</g>
<g>
</g>
<g>
</g>
<g>
</g>
<g>
</g>
<g>
</g>
</svg>
