<?xml version="1.0" encoding="iso-8859-1"?>
<!-- Generator: Adobe Illustrator 19.0.0, SVG Export Plug-In . SVG Version: 6.00 Build 0)  -->
<svg xmlns="http://www.w3.org/2000/svg" xmlns:xlink="http://www.w3.org/1999/xlink" version="1.1" id="Layer_1" x="0px" y="0px" viewBox="0 0 511.951 511.951" style="enable-background:new 0 0 511.951 511.951;" xml:space="preserve">
<g>
	<path style="fill:#CDD6E0;" d="M362.31,308.218l-195.2-55.467c-16-4.267-32,5.333-35.2,21.333c-3.2,13.867,3.2,27.733,16,34.133   L362.31,308.218L362.31,308.218z"/>
	<path style="fill:#CDD6E0;" d="M153.244,234.618l35.2,8.533l118.4-29.867l-139.733-35.2c-16-4.267-32,5.333-35.2,21.333   C127.644,215.418,137.244,231.418,153.244,234.618z"/>
	<path style="fill:#CDD6E0;" d="M153.244,161.018l35.2,8.533l118.4-29.867l-138.667-36.267c-16-4.267-32,5.333-35.2,21.333l0,0   C127.644,140.751,137.244,156.751,153.244,161.018z"/>
	<path style="fill:#CDD6E0;" d="M153.244,86.351l35.2,8.533l118.4-29.867L168.177,28.751c-16-4.267-32,5.333-35.2,21.333   C127.644,66.085,137.244,82.085,153.244,86.351z"/>
</g>
<g>
	<path style="fill:#F2F2F2;" d="M279.11,57.551l-113.067,28.8c-14.933,4.267-29.867-5.333-34.133-20.267l0-2.133   c-4.267-14.933,5.333-29.867,20.267-34.133l112-28.8c16-4.267,30.933,5.333,34.133,20.267l1.067,2.133   C303.644,38.351,294.044,53.285,279.11,57.551z"/>
	<path style="fill:#F2F2F2;" d="M359.11,111.951l-193.067,49.067c-14.933,4.267-29.867-5.333-34.133-20.267l0-2.133   c-4.267-14.933,5.333-29.867,20.267-34.133l193.067-49.067c14.933-4.267,29.867,5.333,34.133,20.267l1.067,2.133   C383.644,92.751,374.044,107.685,359.11,111.951z"/>
	<path style="fill:#F2F2F2;" d="M359.11,186.618l-193.067,49.067c-14.933,4.267-29.867-5.333-34.133-20.267l0-2.133   c-4.267-14.933,5.333-29.867,20.267-34.133l193.067-49.067c14.933-4.267,29.867,5.333,34.133,20.267l1.067,2.133   C383.644,167.418,374.044,182.351,359.11,186.618z"/>
	<path style="fill:#F2F2F2;" d="M359.11,261.285l-193.067,49.067c-14.933,4.267-29.867-5.333-34.133-20.267l0-2.133   c-4.267-14.933,5.333-29.867,20.267-34.133l193.067-49.067c14.933-4.267,29.867,5.333,34.133,20.267l1.067,2.133   C383.644,242.085,374.044,257.018,359.11,261.285z"/>
</g>
<path style="fill:#ACB3BA;" d="M142.577,308.218v32c0,29.867,20.267,55.467,48,64v34.133c0,24.533,20.267,44.8,44.8,44.8h40.533  c24.533,0,44.8-20.267,44.8-44.8v-34.133c27.733-8.533,48-34.133,48-64v-32L142.577,308.218L142.577,308.218z"/>
<path style="fill:#40596B;" d="M214.044,476.751v12.8c0,12.8,9.6,22.4,22.4,22.4h39.467c12.8,0,22.4-9.6,22.4-22.4v-12.8H214.044z"/>
<g>
	<rect x="203.377" y="412.751" style="fill:#869DAD;" width="104.533" height="7.467"/>
	<rect x="203.377" y="433.018" style="fill:#869DAD;" width="104.533" height="7.467"/>
	<rect x="203.377" y="454.351" style="fill:#869DAD;" width="104.533" height="7.467"/>
</g>
<g>
</g>
<g>
</g>
<g>
</g>
<g>
</g>
<g>
</g>
<g>
</g>
<g>
</g>
<g>
</g>
<g>
</g>
<g>
</g>
<g>
</g>
<g>
</g>
<g>
</g>
<g>
</g>
<g>
</g>
</svg>
