<?xml version="1.0" encoding="iso-8859-1"?>
<!-- Generator: Adobe Illustrator 19.0.0, SVG Export Plug-In . SVG Version: 6.00 Build 0)  -->
<svg xmlns="http://www.w3.org/2000/svg" xmlns:xlink="http://www.w3.org/1999/xlink" version="1.1" id="Layer_1" x="0px" y="0px" viewBox="0 0 511.612 511.612" style="enable-background:new 0 0 511.612 511.612;" xml:space="preserve">
<rect x="205.357" y="65.203" transform="matrix(-0.7071 -0.7071 0.7071 -0.7071 261.4724 615.2411)" style="fill:#CDD6E0;" width="105.599" height="376.53"/>
<g>
	<path style="fill:#F2F2F2;" d="M495.442,145.939c16-24.533,19.2-54.4,10.667-81.067c-21.333,22.4-43.733,43.733-65.067,66.133   c-26.667-12.8-48-34.133-60.8-60.8c21.333-21.333,43.733-43.733,65.067-66.133c-39.467-11.733-83.2,2.133-106.667,38.4   c-5.333,7.467-8.533,16-11.733,24.533c-2.133,7.467-3.2,14.933-3.2,22.4c-1.067,16,3.2,32,9.6,45.867c3.2,6.4,7.467,12.8,12.8,19.2   s11.733,12.8,19.2,17.067C409.042,201.406,467.708,188.606,495.442,145.939z"/>
	<path style="fill:#F2F2F2;" d="M15.442,365.673c-16,24.533-19.2,54.4-10.667,81.067c21.333-22.4,43.733-43.733,65.067-66.133   c26.667,12.8,48,34.133,60.8,60.8c-21.333,21.333-43.733,43.733-65.067,66.133c39.467,11.733,83.2-2.133,106.667-38.4   c5.333-7.467,8.533-16,11.733-24.533c2.133-7.467,3.2-14.933,3.2-22.4c1.067-16-3.2-32-9.6-45.867c-3.2-6.4-7.467-12.8-12.8-19.2   c-5.333-6.4-11.733-12.8-19.2-17.067C101.842,310.206,43.175,323.006,15.442,365.673z"/>
</g>
<g>
	<path style="fill:#40596B;" d="M495.442,475.539L495.442,475.539c-21.333,21.333-55.467,21.333-76.8,0L173.308,230.206l76.8-76.8   l245.333,245.333C516.775,420.073,516.775,454.206,495.442,475.539z"/>
	<polygon style="fill:#40596B;" points="124.242,229.139 82.642,271.806 0.508,190.739 42.108,148.073  "/>
</g>
<path style="fill:#334A5E;" d="M146.642,190.739c-16,4.267-26.667,14.933-30.933,30.933l-66.133-66.133  c16-4.267,26.667-14.933,30.933-30.933L146.642,190.739z"/>
<path style="fill:#40596B;" d="M140.242,48.873L140.242,48.873l-67.2,68.267l74.667,73.6l67.2-67.2c0,0,22.4-65.067,82.133-65.067  l28.8-28.8C199.975-21.527,140.242,48.873,140.242,48.873z"/>
<rect x="159.642" y="152.647" transform="matrix(-0.7071 0.7071 -0.7071 -0.7071 456.7692 161.9612)" style="fill:#FFD15C;" width="70.399" height="45.866"/>
<g>
</g>
<g>
</g>
<g>
</g>
<g>
</g>
<g>
</g>
<g>
</g>
<g>
</g>
<g>
</g>
<g>
</g>
<g>
</g>
<g>
</g>
<g>
</g>
<g>
</g>
<g>
</g>
<g>
</g>
</svg>
