<?xml version="1.0" encoding="iso-8859-1"?>
<!-- Generator: Adobe Illustrator 19.0.0, SVG Export Plug-In . SVG Version: 6.00 Build 0)  -->
<svg xmlns="http://www.w3.org/2000/svg" xmlns:xlink="http://www.w3.org/1999/xlink" version="1.1" id="Layer_1" x="0px" y="0px" viewBox="0 0 512.096 512.096" style="enable-background:new 0 0 512.096 512.096;" xml:space="preserve">
<g>
	<polygon style="fill:#F2F2F2;" points="404.267,512.048 283.733,512.048 327.467,199.515 360.533,199.515  "/>
	<polygon style="fill:#F2F2F2;" points="170.667,512.048 81.067,512.048 113.067,277.381 138.667,277.381  "/>
</g>
<path style="fill:#40596B;" d="M250.667,349.915l-76.8-73.6c-1.067-1.067-1.067-1.067-2.133-1.067l-32-6.4l11.733-29.867  c0-1.067,0-1.067,0-2.133l-21.333-104.533c0-2.133-2.133-3.2-4.267-3.2s-4.267,1.067-4.267,3.2l-21.333,104.533  c0,1.067,0,2.133,0,2.133L112,268.848l-32,6.4c-1.067,0-1.067,1.067-2.133,1.067l-76.8,73.6c-1.067,1.067-1.067,3.2,0,5.333  c1.067,2.133,3.2,2.133,5.333,2.133l99.2-37.333c1.067,0,1.067-1.067,2.133-1.067l18.133-24.533L144,318.981  c0,1.067,1.067,1.067,2.133,1.067L246.4,357.381h1.067c1.067,0,3.2-1.067,3.2-2.133C252.8,353.115,251.733,350.981,250.667,349.915z  "/>
<circle style="fill:#FF7058;" cx="125.867" cy="277.381" r="20.267"/>
<path style="fill:#CDD6E0;" d="M509.867,295.515l-102.4-98.133c-1.067-1.067-2.133-1.067-3.2-1.067l-42.667-8.533l16-40.533  c0-1.067,0-2.133,0-3.2L348.8,5.381c0-3.2-2.133-5.333-5.333-5.333c-3.2,0-5.333,2.133-5.333,4.267l-28.8,138.667  c0,1.067,0,2.133,0,3.2l16,40.533l-42.667,8.533c-1.067,0-2.133,1.067-3.2,1.067l-102.4,98.133  c-2.133,2.133-2.133,5.333-1.067,7.467c1.067,2.133,4.267,3.2,6.4,2.133l134.4-48c1.067,0,2.133-1.067,2.133-2.133l24.533-33.067  L368,253.915c1.067,1.067,1.067,1.067,2.133,2.133l133.333,49.067c1.067,0,1.067,0,2.133,0c2.133,0,4.267-1.067,5.333-2.133  C513.067,300.848,512,297.648,509.867,295.515z"/>
<circle style="fill:#FF7058;" cx="343.467" cy="199.515" r="27.733"/>
<rect y="475.781" style="fill:#FFD15C;" width="512" height="36.267"/>
<g>
	<path style="fill:#CDD6E0;" d="M188.8,115.248c0,3.2,2.133,5.333,5.333,5.333s5.333-2.133,5.333-5.333   c0-20.267,7.467-39.467,22.4-53.333c13.867-13.867,33.067-22.4,53.333-22.4c3.2,0,5.333-2.133,5.333-5.333   c0-1.067-1.067-2.133-1.067-3.2s-2.133-1.067-3.2-1.067c-22.4,0-43.733,8.533-60.8,24.533   C197.333,70.448,188.8,91.781,188.8,115.248z"/>
	<path style="fill:#CDD6E0;" d="M211.2,115.248c0,2.133,1.067,3.2,3.2,3.2s3.2-1.067,3.2-3.2c0-14.933,5.333-28.8,16-39.467   c10.667-10.667,24.533-16,39.467-16c2.133,0,3.2-1.067,3.2-3.2c0-1.067,0-2.133-1.067-2.133s-1.067-1.067-2.133-1.067   c-17.067,0-32,6.4-44.8,18.133S211.2,98.181,211.2,115.248z"/>
	<path style="fill:#CDD6E0;" d="M490.667,316.848c0-3.2-2.133-5.333-5.333-5.333S480,313.648,480,316.848   c0,20.267-7.467,39.467-22.4,53.333c-13.867,13.867-33.067,22.4-53.333,22.4c-3.2,0-5.333,2.133-5.333,5.333   c0,1.067,1.067,2.133,1.067,3.2s2.133,1.067,3.2,1.067c22.4,0,43.733-8.533,60.8-24.533   C482.133,360.581,490.667,339.248,490.667,316.848z"/>
	<path style="fill:#CDD6E0;" d="M468.267,316.848c0-2.133-1.067-3.2-3.2-3.2c-2.133,0-3.2,1.067-3.2,3.2   c0,14.933-5.333,28.8-16,39.467c-10.667,10.667-24.533,16-39.467,16c-2.133,0-3.2,1.067-3.2,3.2c0,1.067,0,2.133,1.067,2.133   c1.067,1.067,1.067,1.067,2.133,1.067c17.067,0,32-6.4,44.8-18.133C461.867,349.915,468.267,333.915,468.267,316.848z"/>
</g>
<g>
</g>
<g>
</g>
<g>
</g>
<g>
</g>
<g>
</g>
<g>
</g>
<g>
</g>
<g>
</g>
<g>
</g>
<g>
</g>
<g>
</g>
<g>
</g>
<g>
</g>
<g>
</g>
<g>
</g>
</svg>
