<?xml version="1.0" encoding="iso-8859-1"?>
<!-- Generator: Adobe Illustrator 19.0.0, SVG Export Plug-In . SVG Version: 6.00 Build 0)  -->
<svg xmlns="http://www.w3.org/2000/svg" xmlns:xlink="http://www.w3.org/1999/xlink" version="1.1" id="Layer_1" x="0px" y="0px" viewBox="0 0 512.638 512.638" style="enable-background:new 0 0 512.638 512.638;" xml:space="preserve">
<path style="fill:#FF7058;" d="M34.771,227.686c-34.133,20.267-44.8,64-24.533,98.133l84.267,138.667  c20.267,34.133,64,44.8,98.133,24.533l51.2-30.933c9.6-39.467,14.933-61.867,24.533-101.333L148.905,159.419L34.771,227.686z   M217.171,395.153l-58.667,35.2L69.971,284.219l58.667-35.2L217.171,395.153z"/>
<path style="fill:#F2F2F2;" d="M512.638,117.819L512.638,117.819l-3.2,39.467l-49.067-3.2l-3.2,49.067l-49.067-3.2l-3.2,49.067  l-49.067-3.2l-3.2,49.067l-49.067-3.2l-3.2,49.067l-45.867-3.2l-5.333-8.533L147.838,160.486L386.771,15.419l0,0  C451.838,2.619,512.638,51.686,512.638,117.819z"/>
<path style="fill:#E4EAEF;" d="M512.638,117.819l-3.2,39.467l-49.067-3.2l-3.2,49.067l-49.067-3.2l-3.2,49.067l-49.067-3.2  l-3.2,49.067l-49.067-3.2l-3.2,49.067l-45.867-3.2l-5.333-8.533l39.467-1.067l3.2-49.067l49.067,3.2l3.2-49.067l49.067,3.2  l3.2-49.067l49.067,3.2l3.2-49.067l49.067,3.2l5.333-69.333C509.438,89.019,512.638,102.886,512.638,117.819z"/>
<circle style="fill:#FFFFFF;" cx="396.371" cy="42.086" r="11.733"/>
<g>
</g>
<g>
</g>
<g>
</g>
<g>
</g>
<g>
</g>
<g>
</g>
<g>
</g>
<g>
</g>
<g>
</g>
<g>
</g>
<g>
</g>
<g>
</g>
<g>
</g>
<g>
</g>
<g>
</g>
</svg>
