<?xml version="1.0" encoding="iso-8859-1"?>
<!-- Generator: Adobe Illustrator 19.0.0, SVG Export Plug-In . SVG Version: 6.00 Build 0)  -->
<svg xmlns="http://www.w3.org/2000/svg" xmlns:xlink="http://www.w3.org/1999/xlink" version="1.1" id="Layer_1" x="0px" y="0px" viewBox="0 0 514.146 514.146" style="enable-background:new 0 0 514.146 514.146;" xml:space="preserve">
<g>
	<path style="fill:#F2F2F2;" d="M376.034,377.613l72.533,136.533H505.1l-94.933-177.067   C400.567,352.013,388.834,365.879,376.034,377.613z"/>
	<path style="fill:#F2F2F2;" d="M278.967,429.879c-17.067,4.267-35.2,6.4-52.267,6.4l41.6,76.8h56.533L278.967,429.879z"/>
</g>
<path style="fill:#CDD6E0;" d="M278.967,429.879l44.8,84.267h124.8l-72.533-136.533C348.3,403.213,315.234,421.346,278.967,429.879z  "/>
<path style="fill:#F2F2F2;" d="M435.767,281.613c-6.4,20.267-14.933,38.4-25.6,54.4c-9.6,14.933-21.333,28.8-34.133,41.6  c-26.667,25.6-60.8,43.733-96,52.267c-17.067,4.267-35.2,6.4-53.333,6.4c-21.333,0-42.667-3.2-62.933-9.6  c-96-28.8-156.8-117.333-154.667-212.267c62.933,34.133,125.867,68.267,188.8,102.4c51.2-45.867,84.267-107.733,94.933-176  C229.9,106.679,165.9,72.546,102.967,38.413C156.3,2.146,223.5-10.654,289.634,9.613C404.834,44.813,469.9,166.413,435.767,281.613z  "/>
<polygon style="fill:#40596B;" points="241.634,120.546 146.7,68.279 53.9,125.879 56.034,233.613 152.034,285.879 244.834,229.346   "/>
<circle style="fill:#334A5E;" cx="148.834" cy="177.079" r="54.4"/>
<rect x="143.303" y="90.643" transform="matrix(-0.7071 -0.7071 0.7071 -0.7071 129.084 408.6201)" style="fill:#40596B;" width="11.733" height="173.865"/>
<path style="opacity:0.08;fill:#231F20;enable-background:new    ;" d="M283.234,445.879c38.4-9.6,74.667-28.8,103.467-56.533  c11.733-11.733,22.4-23.467,32-37.333l-8.533-16c-9.6,14.933-21.333,28.8-34.133,41.6c-26.667,25.6-60.8,43.733-96,52.267  c-17.067,4.267-35.2,6.4-52.267,6.4l8.533,16C251.234,452.279,267.234,450.146,283.234,445.879z"/>
<g>
</g>
<g>
</g>
<g>
</g>
<g>
</g>
<g>
</g>
<g>
</g>
<g>
</g>
<g>
</g>
<g>
</g>
<g>
</g>
<g>
</g>
<g>
</g>
<g>
</g>
<g>
</g>
<g>
</g>
</svg>
