<?xml version="1.0" encoding="iso-8859-1"?>
<!-- Generator: Adobe Illustrator 19.0.0, SVG Export Plug-In . SVG Version: 6.00 Build 0)  -->
<svg xmlns="http://www.w3.org/2000/svg" xmlns:xlink="http://www.w3.org/1999/xlink" version="1.1" id="Layer_1" x="0px" y="0px" viewBox="0 0 511.733 511.733" style="enable-background:new 0 0 511.733 511.733;" xml:space="preserve">
<path style="fill:#F2F2F2;" d="M62.8,317.6l-11.733-11.733C37.2,292,37.2,270.667,51.067,256.8l220.8-219.733l60.8,60.8  L111.867,317.6C99.067,331.467,76.667,331.467,62.8,317.6z"/>
<g>
	
		<rect x="172.34" y="150.026" transform="matrix(-0.7071 0.7071 -0.7071 -0.7071 438.274 202.7797)" style="fill:#E4EAEF;" width="9.6" height="84.266"/>
	
		<rect x="124.45" y="197.634" transform="matrix(-0.7071 0.7071 -0.7071 -0.7071 390.1837 317.9141)" style="fill:#E4EAEF;" width="9.6" height="84.266"/>
</g>
<path style="fill:#FF7058;" d="M164.133,84l-25.6,25.6c-10.667,10.667-10.667,26.667,0,37.333l153.6,153.6  c14.933-14.933,40.533-14.933,55.467,0l35.2-35.2L201.467,84C191.867,73.333,174.8,73.333,164.133,84z"/>
<g>
	<path style="fill:#40596B;" d="M31.867,436L229.2,238.667l62.933,62.933L94.8,498.933C77.733,516,48.933,516,31.867,498.933l0,0   C14.8,480.8,14.8,453.067,31.867,436z"/>
	<path style="fill:#40596B;" d="M132.133,166.133L203.6,237.6c4.267,4.267,4.267,10.667,0,14.933l-19.2,19.2   c-4.267,4.267-10.667,4.267-14.933,0L98,200.267c-4.267-4.267-4.267-10.667,0-14.933l19.2-19.2   C121.467,161.867,127.867,161.867,132.133,166.133z"/>
	<path style="fill:#40596B;" d="M120.4,249.333L100.133,269.6c-4.267,4.267-2.133,9.6,1.067,17.067   c11.733,23.467,13.867,49.067,5.333,73.6l0,1.067l32-32l32-32L120.4,249.333z"/>
</g>
<path style="fill:#F2F2F2;" d="M474.533,170.4c-3.2-9.6-6.4-26.667-8.533-55.467C460.667,58.4,423.333,29.6,423.333,29.6  C383.867-9.867,319.867-9.867,280.4,29.6l-7.467,7.467L418,182.133l40.533,41.6l34.133-34.133L474.533,170.4z"/>
<g>
	
		<rect x="179.009" y="234.511" transform="matrix(-0.7071 -0.7071 0.7071 -0.7071 135.5117 560.3524)" style="fill:#334A5E;" width="9.6" height="35.2"/>
	
		<rect x="157.046" y="211.932" transform="matrix(-0.7071 -0.7071 0.7071 -0.7071 113.9851 506.277)" style="fill:#334A5E;" width="9.6" height="35.2"/>
	
		<rect x="135.083" y="190.861" transform="matrix(-0.7071 -0.7071 0.7071 -0.7071 91.3919 454.7767)" style="fill:#334A5E;" width="9.6" height="35.2"/>
	
		<rect x="113.11" y="168.281" transform="matrix(-0.7071 -0.7071 0.7071 -0.7071 69.8471 400.6938)" style="fill:#334A5E;" width="9.6" height="35.2"/>
</g>
<circle style="fill:#FFFFFF;" cx="62.8" cy="466.933" r="19.2"/>
<rect x="252.541" y="228.132" transform="matrix(-0.7071 0.7071 -0.7071 -0.7071 632.3001 283.955)" style="fill:#334A5E;" width="9.6" height="89.599"/>
<g>
</g>
<g>
</g>
<g>
</g>
<g>
</g>
<g>
</g>
<g>
</g>
<g>
</g>
<g>
</g>
<g>
</g>
<g>
</g>
<g>
</g>
<g>
</g>
<g>
</g>
<g>
</g>
<g>
</g>
</svg>
