<?xml version="1.0" encoding="iso-8859-1"?>
<!-- Generator: Adobe Illustrator 19.0.0, SVG Export Plug-In . SVG Version: 6.00 Build 0)  -->
<svg xmlns="http://www.w3.org/2000/svg" xmlns:xlink="http://www.w3.org/1999/xlink" version="1.1" id="Layer_1" x="0px" y="0px" viewBox="0 0 512 512" style="enable-background:new 0 0 512 512;" xml:space="preserve">
<path style="fill:#CDD6E0;" d="M380.8,130.133H131.2L148.267,64c6.4-23.467,27.733-40.533,52.267-40.533h112  c24.533,0,45.867,17.067,52.267,40.533L380.8,130.133z M172.8,98.133h167.467l-6.4-25.6c-2.133-9.6-10.667-16-21.333-16H199.467  c-9.6,0-18.133,6.4-21.333,16L172.8,98.133z"/>
<path style="fill:#F8B64C;" d="M461.867,488.533H50.133c-11.733,0-21.333-9.6-21.333-21.333V206.933h455.467v259.2  C483.2,478.933,473.6,488.533,461.867,488.533z"/>
<path style="fill:#FFD15C;" d="M490.667,92.8H21.333C9.6,92.8,0,102.4,0,114.133V208h512v-93.867C512,102.4,502.4,92.8,490.667,92.8  z"/>
<rect x="97.067" y="206.933" style="fill:#FF7058;" width="58.667" height="51.2"/>
<path style="fill:#40596B;" d="M126.933,294.4L126.933,294.4c-19.2,0-35.2-16-35.2-35.2v-24.533H163.2V259.2  C162.133,278.4,146.133,294.4,126.933,294.4z"/>
<circle style="fill:#CDD6E0;" cx="126.933" cy="261.333" r="14.933"/>
<rect x="356.267" y="206.933" style="fill:#FF7058;" width="58.667" height="51.2"/>
<path style="fill:#40596B;" d="M385.067,294.4L385.067,294.4c-19.2,0-35.2-16-35.2-35.2v-24.533h71.467V259.2  C421.333,278.4,405.333,294.4,385.067,294.4z"/>
<circle style="fill:#CDD6E0;" cx="385.067" cy="261.333" r="14.933"/>
<g>
	<rect x="28.8" y="206.933" style="fill:#F2A940;" width="69.333" height="16"/>
	<rect x="414.933" y="206.933" style="fill:#F2A940;" width="69.333" height="16"/>
</g>
<g>
	<rect x="356.267" y="206.933" style="fill:#F9604B;" width="58.667" height="16"/>
	<rect x="97.067" y="206.933" style="fill:#F9604B;" width="58.667" height="16"/>
</g>
<rect x="155.733" y="206.933" style="fill:#F2A940;" width="200.533" height="16"/>
<g>
</g>
<g>
</g>
<g>
</g>
<g>
</g>
<g>
</g>
<g>
</g>
<g>
</g>
<g>
</g>
<g>
</g>
<g>
</g>
<g>
</g>
<g>
</g>
<g>
</g>
<g>
</g>
<g>
</g>
</svg>
