<?xml version="1.0" encoding="iso-8859-1"?>
<!-- Generator: Adobe Illustrator 19.0.0, SVG Export Plug-In . SVG Version: 6.00 Build 0)  -->
<svg xmlns="http://www.w3.org/2000/svg" xmlns:xlink="http://www.w3.org/1999/xlink" version="1.1" id="Layer_1" x="0px" y="0px" viewBox="0 0 601.378 601.378" style="enable-background:new 0 0 601.378 601.378;" xml:space="preserve">
<g>
	<path style="fill:#FFD15C;" d="M557.867,269.756h-339.2c-20.267,0-36.267,16-36.267,36.267v176h402.133   c19.2-59.733,22.4-122.667,7.467-183.467C588.8,281.489,573.867,269.756,557.867,269.756z"/>
	<path style="fill:#FFD15C;" d="M243.2,269.756c0,0,29.867-122.667,59.733-179.2c6.4-12.8,26.667-45.867,65.067-45.867h160   c14.933,0,26.667,11.733,26.667,26.667v198.4H243.2z"/>
</g>
<path style="fill:#54C0EB;" d="M276.267,243.089c11.733-51.2,32-104.533,50.133-138.667c17.067-32,36.267-32,41.6-32h160v171.733  H276.267V243.089z"/>
<rect x="160" y="324.156" style="fill:#334A5E;" width="22.4" height="78.933"/>
<g>
	<path style="fill:#40596B;" d="M144,509.756h-5.333c-8.533,0-16-7.467-16-16V158.822c0-8.533,7.467-16,16-16H144   c8.533,0,16,7.467,16,16v334.933C160,502.289,153.6,509.756,144,509.756z"/>
	<path style="fill:#40596B;" d="M0,452.156v-5.333c0-8.533,7.467-16,16-16h109.867c8.533,0,16,7.467,16,16v5.333   c0,8.533-7.467,16-16,16H16C7.467,468.156,0,460.689,0,452.156z"/>
</g>
<g>
	<polygon style="fill:#84DBFF;" points="464,71.356 320,243.089 296.533,243.089 440.533,71.356  "/>
	<polygon style="fill:#84DBFF;" points="518.4,71.356 374.4,243.089 336,243.089 480,71.356  "/>
</g>
<g>
	<path style="fill:#F8B64C;" d="M585.6,479.889c0,1.067,0,1.067-1.067,2.133H410.667c0-48,39.467-87.467,87.467-87.467   C546.133,393.489,584.533,431.889,585.6,479.889z"/>
	<path style="fill:#F8B64C;" d="M374.4,479.889c0,1.067,0,1.067-1.067,2.133H198.4c0-48,39.467-87.467,87.467-87.467   C333.867,393.489,373.333,431.889,374.4,479.889z"/>
</g>
<circle style="fill:#40596B;" cx="498.133" cy="482.022" r="74.667"/>
<circle style="fill:#F2F2F2;" cx="498.133" cy="482.022" r="32"/>
<path style="fill:#E4EAEF;" d="M498.133,455.356c17.067,0,29.867,12.8,32,28.8c0-1.067,0-2.133,0-3.2c0-18.133-13.867-32-32-32  s-32,13.867-32,32c0,1.067,0,2.133,0,3.2C468.267,468.156,481.067,455.356,498.133,455.356z"/>
<circle style="fill:#40596B;" cx="285.867" cy="482.022" r="74.667"/>
<circle style="fill:#F2F2F2;" cx="285.867" cy="482.022" r="32"/>
<path style="fill:#E4EAEF;" d="M285.867,455.356c17.067,0,29.867,12.8,32,28.8c0-1.067,0-2.133,0-3.2c0-18.133-13.867-32-32-32  c-18.133,0-32,13.867-32,32c0,1.067,0,2.133,0,3.2C256,468.156,269.867,455.356,285.867,455.356z"/>
<g>
</g>
<g>
</g>
<g>
</g>
<g>
</g>
<g>
</g>
<g>
</g>
<g>
</g>
<g>
</g>
<g>
</g>
<g>
</g>
<g>
</g>
<g>
</g>
<g>
</g>
<g>
</g>
<g>
</g>
</svg>
