<?xml version="1.0" encoding="iso-8859-1"?>
<!-- Generator: Adobe Illustrator 19.0.0, SVG Export Plug-In . SVG Version: 6.00 Build 0)  -->
<svg xmlns="http://www.w3.org/2000/svg" xmlns:xlink="http://www.w3.org/1999/xlink" version="1.1" id="Layer_1" x="0px" y="0px" viewBox="0 0 512 512" style="enable-background:new 0 0 512 512;" xml:space="preserve">
<g>
	<path style="fill:#F2F2F2;" d="M304,400h-96c-11.733,0-21.333-9.6-21.333-21.333v-24.533h138.667v24.533   C325.333,390.4,315.733,400,304,400z"/>
	<rect x="217.6" y="400" style="fill:#F2F2F2;" width="76.8" height="112"/>
</g>
<circle style="fill:#40596B;" cx="256" cy="188.8" r="188.8"/>
<path style="fill:#FFD15C;" d="M256,330.667c-77.867,0-141.867-64-141.867-141.867S178.133,46.933,256,46.933  s141.867,64,141.867,141.867C397.867,267.733,333.867,330.667,256,330.667z"/>
<path style="fill:#F8B64C;" d="M256,57.6c76.8,0,138.667,60.8,141.867,136.533c0-2.133,0-3.2,0-5.333  c0-77.867-64-141.867-141.867-141.867s-141.867,64-141.867,141.867c0,2.133,0,3.2,0,5.333C117.333,118.4,179.2,57.6,256,57.6z"/>
<path style="fill:#F2F2F2;" d="M256,291.2c-56.533,0-102.4-45.867-102.4-102.4S199.467,86.4,256,86.4s102.4,45.867,102.4,102.4  S312.533,291.2,256,291.2z"/>
<rect x="217.6" y="400" style="fill:#E4EAEF;" width="76.8" height="16"/>
<g>
	<path style="fill:#FF7058;" d="M256,57.6c-1.067,0-3.2,1.067-3.2,3.2v14.933c0,1.067,1.067,3.2,3.2,3.2c2.133,0,3.2-1.067,3.2-3.2   V60.8C259.2,58.667,257.067,57.6,256,57.6z"/>
	<path style="fill:#FF7058;" d="M205.867,68.267c-1.067,1.067-2.133,2.133-1.067,3.2l5.333,13.867c0,1.067,1.067,2.133,2.133,2.133   h1.067c1.067-1.067,2.133-2.133,1.067-3.2L209.067,70.4C209.067,68.267,206.933,67.2,205.867,68.267z"/>
	<path style="fill:#FF7058;" d="M167.467,96c-1.067-1.067-3.2-1.067-4.267,0c-1.067,1.067-1.067,3.2,0,4.267l10.667,10.667   c0,0,1.067,1.067,2.133,1.067c1.067,0,1.067,0,2.133-1.067c1.067-1.067,1.067-3.2,0-4.267L167.467,96z"/>
	<path style="fill:#FF7058;" d="M338.133,266.667c-1.067-1.067-3.2-1.067-4.267,0c-1.067,1.067-1.067,3.2,0,4.267l10.667,10.667   c0,0,1.067,1.067,2.133,1.067s1.067,0,2.133-1.067c1.067-1.067,1.067-3.2,0-4.267L338.133,266.667z"/>
	<path style="fill:#FF7058;" d="M152.533,142.933l-13.867-5.333c-1.067-1.067-3.2,0-3.2,1.067c-1.067,1.067,0,3.2,1.067,3.2   L150.4,147.2h1.067c1.067,0,2.133-1.067,2.133-2.133C154.667,145.067,153.6,144,152.533,142.933z"/>
	<path style="fill:#FF7058;" d="M361.6,229.333c-1.067-1.067-3.2,0-3.2,1.067s0,3.2,1.067,3.2l13.867,5.333h1.067   c1.067,0,2.133-1.067,2.133-2.133c1.067-1.067,0-3.2-1.067-3.2L361.6,229.333z"/>
	<path style="fill:#FF7058;" d="M145.067,188.8c0-1.067-1.067-3.2-3.2-3.2H128c-1.067,0-3.2,1.067-3.2,3.2   c0,2.133,1.067,3.2,3.2,3.2h14.933C144,192,145.067,190.933,145.067,188.8z"/>
	<path style="fill:#FF7058;" d="M384,186.667h-14.933c-1.067,0-3.2,1.067-3.2,3.2c0,2.133,1.067,3.2,3.2,3.2H384   c1.067,0,3.2-1.067,3.2-3.2C387.2,187.733,386.133,186.667,384,186.667z"/>
	<path style="fill:#FF7058;" d="M150.4,229.333l-13.867,5.333c-1.067,1.067-2.133,2.133-1.067,3.2c0,1.067,1.067,2.133,2.133,2.133   h1.067l13.867-5.333c1.067-1.067,2.133-2.133,1.067-3.2C153.6,230.4,151.467,229.333,150.4,229.333z"/>
	<path style="fill:#FF7058;" d="M360.533,148.267C360.533,148.267,361.6,148.267,360.533,148.267l14.933-6.4   c1.067-1.067,2.133-2.133,1.067-3.2c-1.067-1.067-2.133-2.133-3.2-1.067l-13.867,5.333c-1.067,1.067-2.133,2.133-1.067,3.2   C358.4,147.2,359.467,148.267,360.533,148.267z"/>
	<path style="fill:#FF7058;" d="M173.867,266.667L163.2,277.333c-1.067,1.067-1.067,3.2,0,4.267c0,0,1.067,1.067,2.133,1.067   s1.067,0,2.133-1.067l10.667-10.667c1.067-1.067,1.067-3.2,0-4.267C177.067,265.6,174.933,265.6,173.867,266.667z"/>
	<path style="fill:#FF7058;" d="M344.533,96l-10.667,10.667c-1.067,1.067-1.067,3.2,0,4.267c0,0,1.067,1.067,2.133,1.067   c1.067,0,1.067,0,2.133-1.067l10.667-10.667c1.067-1.067,1.067-3.2,0-4.267C347.733,94.933,345.6,94.933,344.533,96z"/>
	<path style="fill:#FF7058;" d="M306.133,68.267c-1.067-1.067-3.2,0-3.2,1.067L297.6,83.2c-1.067,1.067,0,3.2,1.067,3.2h1.067   c1.067,0,2.133-1.067,2.133-2.133L307.2,70.4C308.267,70.4,307.2,68.267,306.133,68.267z"/>
</g>
<polygon style="fill:#40596B;" points="282.667,204.8 274.133,212.267 193.067,125.867 "/>
<circle style="fill:#FF7058;" cx="256" cy="186.667" r="14.933"/>
<circle style="fill:#FFFFFF;" cx="256" cy="186.667" r="4.267"/>
<g>
</g>
<g>
</g>
<g>
</g>
<g>
</g>
<g>
</g>
<g>
</g>
<g>
</g>
<g>
</g>
<g>
</g>
<g>
</g>
<g>
</g>
<g>
</g>
<g>
</g>
<g>
</g>
<g>
</g>
</svg>
