<?xml version="1.0" encoding="iso-8859-1"?>
<!-- Generator: Adobe Illustrator 19.0.0, SVG Export Plug-In . SVG Version: 6.00 Build 0)  -->
<svg xmlns="http://www.w3.org/2000/svg" xmlns:xlink="http://www.w3.org/1999/xlink" version="1.1" id="Layer_1" x="0px" y="0px" viewBox="0 0 513.067 513.067" style="enable-background:new 0 0 513.067 513.067;" xml:space="preserve">
<path style="fill:#F2F2F2;" d="M449.067,253.867c2.133-8.533,3.2-18.133,3.2-27.733c0-75.733-61.867-137.6-137.6-137.6  c-36.267,0-70.4,14.933-94.933,38.4c-12.8-5.333-27.733-8.533-42.667-8.533c-59.733,0-107.733,48-107.733,107.733  c0,1.067,0,3.2,0,4.267C29.867,243.2,0,280.533,0,325.333c0,54.4,44.8,99.2,99.2,99.2H256h19.2h150.4  c48,0,87.467-39.467,87.467-87.467C512,297.6,485.333,264.533,449.067,253.867z"/>
<g>
	<path style="fill:#84DBFF;" d="M178.133,305.067c10.667,0,19.2,6.4,23.467,14.933l18.133-8.533   c-7.467-12.8-20.267-24.533-41.6-24.533c-29.867,0-53.333,21.333-53.333,52.267s23.467,52.267,53.333,52.267   c22.4,0,35.2-11.733,41.6-24.533L201.6,358.4c-4.267,8.533-12.8,14.933-23.467,14.933c-18.133,0-32-13.867-32-33.067   C146.133,318.933,158.933,305.067,178.133,305.067z"/>
	<path style="fill:#84DBFF;" d="M280.533,285.867c-30.933,0-52.267,21.333-52.267,52.267c0,29.867,22.4,52.267,52.267,52.267   s52.267-21.333,52.267-52.267C332.8,307.2,310.4,285.867,280.533,285.867z M280.533,371.2c-19.2,0-30.933-13.867-30.933-33.067   c0-19.2,11.733-33.067,30.933-33.067c18.133,0,30.933,13.867,30.933,33.067C310.4,356.267,298.667,371.2,280.533,371.2z"/>
	<path style="fill:#84DBFF;" d="M364.8,377.6c14.933-10.667,22.4-19.2,22.4-28.8c0-10.667-9.6-18.133-21.333-18.133   c-7.467,0-16,3.2-21.333,9.6l6.4,7.467c4.267-4.267,8.533-6.4,14.933-6.4c4.267,0,8.533,2.133,8.533,7.467   c0,6.4-6.4,12.8-29.867,29.867v9.6h41.6V377.6L364.8,377.6L364.8,377.6z"/>
</g>
<path style="fill:#E4EAEF;" d="M167.467,139.733c14.933,0,29.867,3.2,42.667,8.533c24.533-23.467,57.6-38.4,94.933-38.4  c75.733,0,137.6,61.867,137.6,137.6c0,9.6-1.067,18.133-3.2,27.733c36.267,10.667,62.933,43.733,62.933,83.2  c0,9.6-2.133,19.2-4.267,27.733c9.6-13.867,14.933-30.933,14.933-49.067c0-39.467-26.667-72.533-62.933-83.2  c2.133-8.533,3.2-18.133,3.2-27.733c0-75.733-61.867-137.6-137.6-137.6c-36.267,0-70.4,14.933-94.933,38.4  c-12.8-5.333-27.733-8.533-42.667-8.533c-46.933,0-86.4,29.867-101.333,70.4C96,158.933,129.067,139.733,167.467,139.733z"/>
<g>
</g>
<g>
</g>
<g>
</g>
<g>
</g>
<g>
</g>
<g>
</g>
<g>
</g>
<g>
</g>
<g>
</g>
<g>
</g>
<g>
</g>
<g>
</g>
<g>
</g>
<g>
</g>
<g>
</g>
</svg>
