<?xml version="1.0" encoding="iso-8859-1"?>
<!-- Generator: Adobe Illustrator 19.0.0, SVG Export Plug-In . SVG Version: 6.00 Build 0)  -->
<svg xmlns="http://www.w3.org/2000/svg" xmlns:xlink="http://www.w3.org/1999/xlink" version="1.1" id="Layer_1" x="0px" y="0px" viewBox="0 0 510.933 510.933" style="enable-background:new 0 0 510.933 510.933;" xml:space="preserve">
<g>
	<rect x="14.933" style="fill:#40596B;" width="235.733" height="212.267"/>
	<path style="fill:#40596B;" d="M509.867,454.4H249.6H160H12.8v33.067c0,9.6,7.467,17.067,17.067,17.067h6.4v4.267   c0,1.067,1.067,2.133,2.133,2.133h16c1.067,0,2.133-1.067,2.133-2.133v-4.267h11.733v4.267c0,1.067,1.067,2.133,2.133,2.133h16   c1.067,0,2.133-1.067,2.133-2.133v-4.267h11.733v4.267c0,1.067,1.067,2.133,2.133,2.133h16c1.067,0,2.133-1.067,2.133-2.133v-4.267   h24.533L160,486.4h89.6l14.933,18.133H281.6v4.267c0,1.067,1.067,2.133,2.133,2.133h16c1.067,0,2.133-1.067,2.133-2.133v-4.267   H313.6v4.267c0,1.067,1.067,2.133,2.133,2.133h16c1.067,0,2.133-1.067,2.133-2.133v-4.267H345.6v4.267   c0,1.067,1.067,2.133,2.133,2.133h16c1.067,0,2.133-1.067,2.133-2.133v-4.267h32v4.267c0,1.067,1.067,2.133,2.133,2.133h16   c1.067,0,2.133-1.067,2.133-2.133v-4.267h11.733v4.267c0,1.067,1.067,2.133,2.133,2.133h16c1.067,0,2.133-1.067,2.133-2.133v-4.267   h11.733v4.267c0,1.067,1.067,2.133,2.133,2.133h16c1.067,0,2.133-1.067,2.133-2.133v-4.267h7.467c9.6,0,17.067-7.467,17.067-17.067   V454.4H509.867z"/>
</g>
<path style="fill:#FFD15C;" d="M426.667,368L426.667,368c0,0-170.667-8.533-176-141.867H14.933c0,0,25.6,69.333-1.067,182.4  c-1.067,2.133-1.067,5.333-2.133,7.467l0,0l0,0c0,3.2-1.067,6.4-1.067,9.6v28.8h497.067l0,0  C509.867,408.533,472.533,370.133,426.667,368z"/>
<g>
	<path style="fill:#FF7058;" d="M29.867,291.2H25.6c1.067,29.867,0,70.4-10.667,117.333c-1.067,2.133-1.067,5.333-2.133,7.467l0,0   c0,3.2-1.067,6.4-1.067,9.6v28.8h165.333C190.933,294.4,29.867,291.2,29.867,291.2z"/>
	<path style="fill:#FF7058;" d="M426.667,368L426.667,368c0,0-16-1.067-37.333-5.333c-70.4,27.733-86.4,91.733-86.4,91.733h206.933   C509.867,408.533,472.533,370.133,426.667,368z"/>
</g>
<g>
	<path style="fill:#334A5E;" d="M251.733,197.333h-236.8c-7.467,0-13.867,6.4-13.867,13.867l0,0c0,7.467,6.4,13.867,13.867,13.867   h236.8c7.467,0,13.867-6.4,13.867-13.867l0,0C265.6,203.733,259.2,197.333,251.733,197.333z"/>
	<circle style="fill:#334A5E;" cx="226.133" cy="178.133" r="14.933"/>
</g>
<circle style="fill:#ACB3BA;" cx="226.133" cy="178.133" r="10.667"/>
<g>
	<path style="fill:#334A5E;" d="M252.8,186.667h-23.467c-4.267,0-7.467-3.2-7.467-7.467l0,0c0-4.267,3.2-7.467,7.467-7.467H252.8   c4.267,0,7.467,3.2,7.467,7.467l0,0C261.333,183.467,258.133,186.667,252.8,186.667z"/>
	<circle style="fill:#334A5E;" cx="231.467" cy="258.133" r="14.933"/>
</g>
<circle style="fill:#ACB3BA;" cx="231.467" cy="258.133" r="10.667"/>
<g>
	<path style="fill:#334A5E;" d="M260.267,260.267l-22.4,5.333c-4.267,1.067-8.533-2.133-9.6-6.4l0,0   c-1.067-4.267,2.133-8.533,6.4-9.6l22.4-5.333c4.267-1.067,8.533,2.133,9.6,6.4l0,0C267.733,254.933,264.533,259.2,260.267,260.267   z"/>
	<circle style="fill:#334A5E;" cx="260.267" cy="318.933" r="14.933"/>
</g>
<circle style="fill:#ACB3BA;" cx="260.267" cy="318.933" r="10.667"/>
<g>
	<path style="fill:#334A5E;" d="M288,309.333L268.8,323.2c-3.2,2.133-8.533,2.133-10.667-2.133l0,0   c-2.133-3.2-2.133-8.533,2.133-10.667l19.2-13.867c3.2-2.133,8.533-2.133,10.667,2.133l0,0   C292.267,301.867,291.2,306.133,288,309.333z"/>
	<circle style="fill:#334A5E;" cx="318.933" cy="364.8" r="14.933"/>
</g>
<circle style="fill:#ACB3BA;" cx="318.933" cy="364.8" r="10.667"/>
<path style="fill:#334A5E;" d="M342.4,348.8l-14.933,18.133c-3.2,3.2-7.467,4.267-10.667,1.067l0,0  c-3.2-3.2-4.267-7.467-1.067-10.667l14.933-18.133c3.2-3.2,7.467-4.267,10.667-1.067l0,0C344.533,340.267,345.6,345.6,342.4,348.8z"/>
<g>
</g>
<g>
</g>
<g>
</g>
<g>
</g>
<g>
</g>
<g>
</g>
<g>
</g>
<g>
</g>
<g>
</g>
<g>
</g>
<g>
</g>
<g>
</g>
<g>
</g>
<g>
</g>
<g>
</g>
</svg>
