<?xml version="1.0" encoding="iso-8859-1"?>
<!-- Generator: Adobe Illustrator 19.0.0, SVG Export Plug-In . SVG Version: 6.00 Build 0)  -->
<svg xmlns="http://www.w3.org/2000/svg" xmlns:xlink="http://www.w3.org/1999/xlink" version="1.1" id="Layer_1" x="0px" y="0px" viewBox="0 0 512 512" style="enable-background:new 0 0 512 512;" xml:space="preserve">
<path style="fill:#FFD15C;" d="M303.467,177.067c0,0,45.867-22.4,4.267-75.733c0,0-9.6-13.867-2.133-34.133c0,0-25.6,9.6-12.8,51.2  c0,0-25.6-8.533-10.667-54.4c0,0,11.733-35.2-26.667-64c0,0,22.4,43.733-29.867,88.533c0,0,4.267-25.6-21.333-37.333  c0,0,4.267,33.067-10.667,59.733c0,0-27.733,45.867,28.8,74.667C223.467,185.6,273.6,194.133,303.467,177.067z"/>
<path style="fill:#F8B64C;" d="M232,182.4c0,0-23.467-11.733-2.133-39.467c0,0,5.333-7.467,1.067-18.133c0,0,12.8,4.267,6.4,26.667  c0,0,12.8-4.267,5.333-28.8c0,0-6.4-18.133,13.867-33.067c0,0-11.733,22.4,14.933,45.867c0,0-2.133-12.8,10.667-19.2  c0,0-2.133,17.067,5.333,30.933c0,0,14.933,23.467-14.933,38.4C273.6,186.667,248,190.933,232,182.4z"/>
<path style="fill:#CDD6E0;" d="M425.067,512H88c-7.467-114.133,19.2-228.267,82.133-343.467h172.8  C405.867,283.733,432.533,397.867,425.067,512z"/>
<rect x="59.2" y="474.667" style="fill:#40596B;" width="393.6" height="37.333"/>
<path style="fill:#BFCEDD;" d="M342.933,168.533h-172.8c-4.267,7.467-8.533,16-12.8,23.467c2.133,1.067,5.333,1.067,7.467,1.067  h182.4c2.133,0,5.333,0,7.467-1.067C351.467,184.533,347.2,177.067,342.933,168.533z"/>
<path style="fill:#ACB3BA;" d="M348.267,178.133H164.8c-6.4,0-11.733-5.333-11.733-11.733l0,0c0-6.4,5.333-11.733,11.733-11.733  h182.4c6.4,0,11.733,5.333,11.733,11.733l0,0C358.933,172.8,353.6,178.133,348.267,178.133z"/>
<g>
</g>
<g>
</g>
<g>
</g>
<g>
</g>
<g>
</g>
<g>
</g>
<g>
</g>
<g>
</g>
<g>
</g>
<g>
</g>
<g>
</g>
<g>
</g>
<g>
</g>
<g>
</g>
<g>
</g>
</svg>
