<?xml version="1.0" encoding="iso-8859-1"?>
<!-- Generator: Adobe Illustrator 19.0.0, SVG Export Plug-In . SVG Version: 6.00 Build 0)  -->
<svg xmlns="http://www.w3.org/2000/svg" xmlns:xlink="http://www.w3.org/1999/xlink" version="1.1" id="Layer_1" x="0px" y="0px" viewBox="0 0 512 512" style="enable-background:new 0 0 512 512;" xml:space="preserve">
<path style="fill:#FF7058;" d="M389.867,283.733V0h-268.8v283.733H35.733v166.4C35.733,484.267,63.467,512,97.6,512h316.8  c34.133,0,61.867-27.733,61.867-61.867v-166.4H389.867z"/>
<g>
	<path style="fill:#FFD15C;" d="M475.2,187.733v284.8c0,20.267-19.2,35.2-38.4,29.867l-119.467-29.867   c-27.733-6.4-46.933-32-46.933-59.733V161.067c0-12.8,4.267-26.667,11.733-37.333L376,0h19.2c18.133,0,33.067,16,30.933,34.133   c-10.667,66.133,25.6,114.133,41.6,132.267C472,172.8,475.2,180.267,475.2,187.733z"/>
	<path style="fill:#FFD15C;" d="M240.533,161.067V412.8c0,28.8-19.2,53.333-46.933,59.733L74.133,502.4   c-19.2,5.333-38.4-9.6-38.4-29.867v-284.8c0-7.467,3.2-14.933,7.467-20.267c17.067-19.2,52.267-67.2,42.667-133.333   C82.667,16,97.6,0,115.733,0h19.2l92.8,123.733C236.267,134.4,240.533,147.2,240.533,161.067z"/>
</g>
<g>
	<rect x="35.733" y="228.267" style="fill:#F8B64C;" width="203.733" height="142.933"/>
	<rect x="271.467" y="228.267" style="fill:#F8B64C;" width="203.733" height="142.933"/>
</g>
<g>
	<rect x="35.733" y="208" style="fill:#F2F2F2;" width="203.733" height="41.6"/>
	<rect x="35.733" y="349.867" style="fill:#F2F2F2;" width="203.733" height="41.6"/>
	<rect x="271.467" y="208" style="fill:#F2F2F2;" width="203.733" height="41.6"/>
	<rect x="271.467" y="349.867" style="fill:#F2F2F2;" width="203.733" height="41.6"/>
</g>
<g>
</g>
<g>
</g>
<g>
</g>
<g>
</g>
<g>
</g>
<g>
</g>
<g>
</g>
<g>
</g>
<g>
</g>
<g>
</g>
<g>
</g>
<g>
</g>
<g>
</g>
<g>
</g>
<g>
</g>
</svg>
