<?xml version="1.0" encoding="iso-8859-1"?>
<!-- Generator: Adobe Illustrator 19.0.0, SVG Export Plug-In . SVG Version: 6.00 Build 0)  -->
<svg xmlns="http://www.w3.org/2000/svg" xmlns:xlink="http://www.w3.org/1999/xlink" version="1.1" id="Layer_1" x="0px" y="0px" viewBox="0 0 512 512" style="enable-background:new 0 0 512 512;" xml:space="preserve">
<path style="fill:#F8B64C;" d="M217.6,299.733c9.6,12.8,23.467,19.2,38.4,19.2c14.933,0,29.867-7.467,38.4-19.2  c1.067-1.067,1.067-2.133,2.133-3.2l-9.6-3.2l0,0l0,0l0,0c-7.467,9.6-18.133,14.933-29.867,14.933  c-10.667,0-22.4-5.333-29.867-14.933l0,0l0,0l0,0l0,0l-10.667,3.2C216.533,297.6,216.533,299.733,217.6,299.733z"/>
<g>
	<path style="fill:#ACB3BA;" d="M256,309.333L256,309.333L256,309.333z"/>
	<path style="fill:#ACB3BA;" d="M256,309.333L256,309.333L256,309.333z"/>
</g>
<g>
	<path style="fill:#F8B64C;" d="M226.133,293.333L226.133,293.333L226.133,293.333z"/>
	<path style="fill:#F8B64C;" d="M285.867,293.333L285.867,293.333L285.867,293.333z"/>
	
		<ellipse transform="matrix(-0.0872 -0.9962 0.9962 -0.0872 0.5505 471.9428)" style="fill:#F8B64C;" cx="216.502" cy="235.719" rx="13.867" ry="9.6"/>
	
		<ellipse transform="matrix(0.0872 -0.9962 0.9962 0.0872 34.9196 509.5398)" style="fill:#F8B64C;" cx="295.493" cy="235.716" rx="13.867" ry="9.6"/>
</g>
<path style="fill:#FFD15C;" d="M215.467,196.267c-3.2,5.333-4.267,11.733-4.267,19.2v13.867c0,3.2,0,6.4,1.067,10.667l0,0  c2.133,17.067,9.6,33.067,21.333,46.933l4.267,4.267c4.267,4.267,9.6,6.4,14.933,6.4h6.4c5.333,0,11.733-2.133,14.933-6.4  l4.267-4.267c11.733-12.8,19.2-28.8,21.333-46.933c0-3.2,1.067-6.4,1.067-10.667v-13.867c0-6.4-1.067-12.8-4.267-19.2H215.467z"/>
<path style="fill:#F8B64C;" d="M278.4,285.867l-4.267,4.267c-4.267,4.267-9.6,6.4-14.933,6.4h-6.4c-5.333,0-11.733-2.133-14.933-6.4  l-4.267-4.267c-3.2-3.2-5.333-6.4-7.467-9.6v17.067L256,333.867l29.867-40.533v-17.067C283.733,279.467,281.6,282.667,278.4,285.867  z"/>
<path style="fill:#40596B;" d="M212.267,238.933l5.333,2.133c-1.067-5.333,0-12.8,2.133-17.067c0,0-3.2-25.6,16-23.467  c0,0,14.933,5.333,42.667,0c0,0,11.733-1.067,9.6,11.733c0,0,0,13.867,6.4,17.067v11.733l6.4-1.067c1.067-4.267,0-34.133,0-34.133  c-4.267-21.333-29.867-33.067-29.867-33.067c2.133-3.2,6.4-2.133,6.4-2.133c-33.067-20.267-54.4-1.067-54.4-1.067  c-23.467,21.333-10.667,45.867-10.667,45.867C210.133,225.067,211.2,233.6,212.267,238.933z"/>
<path style="fill:#FF7058;" d="M154.667,375.467H358.4v-27.733c0-13.867-7.467-25.6-20.267-30.933l-51.2-23.467l0,0l0,0l0,0  c-7.467,9.6-18.133,14.933-29.867,14.933c-10.667,0-22.4-5.333-29.867-14.933l0,0l0,0l0,0l0,0L176,316.8  c-11.733,5.333-20.267,18.133-20.267,30.933v27.733H154.667z"/>
<path style="fill:#40596B;" d="M512,301.867v-91.733l-48-20.267c-3.2-11.733-8.533-23.467-13.867-34.133l19.2-49.067l-65.067-64  l-48,19.2C345.6,56.533,333.867,51.2,322.133,48L301.867,0h-91.733l-20.267,48c-11.733,4.267-23.467,8.533-34.133,13.867l-48-19.2  l-65.067,65.067L62.933,156.8c-5.333,10.667-10.667,22.4-13.867,34.133L0,210.133v91.733l48,20.267  c4.267,11.733,8.533,23.467,13.867,34.133l-19.2,48l65.067,65.067l49.067-19.2c10.667,5.333,22.4,10.667,34.133,13.867l20.267,48  h91.733l20.267-48c11.733-4.267,23.467-8.533,34.133-13.867l48,19.2l65.067-65.067l-19.2-48c5.333-10.667,10.667-22.4,13.867-34.133  L512,301.867z M256,370.133c-62.933,0-114.133-51.2-114.133-114.133S193.067,141.867,256,141.867S370.133,193.067,370.133,256  S318.933,370.133,256,370.133z"/>
<path style="fill:#F8B64C;" d="M174.933,337.067c-44.8-44.8-44.8-117.333,0-161.067c44.8-44.8,117.333-44.8,161.067,0l0,0  l34.133-34.133l0,0c-62.933-62.933-166.4-62.933-229.333,0s-62.933,166.4,0,229.333l0,0L174.933,337.067L174.933,337.067z"/>
<path style="fill:#FFD15C;" d="M371.2,371.2c62.933-62.933,62.933-166.4,0-229.333L337.067,176c44.8,44.8,44.8,117.333,0,161.067  c-44.8,44.8-117.333,44.8-161.067,0L141.867,371.2C204.8,434.133,307.2,434.133,371.2,371.2z"/>
<g>
</g>
<g>
</g>
<g>
</g>
<g>
</g>
<g>
</g>
<g>
</g>
<g>
</g>
<g>
</g>
<g>
</g>
<g>
</g>
<g>
</g>
<g>
</g>
<g>
</g>
<g>
</g>
<g>
</g>
</svg>
