<?xml version="1.0" encoding="iso-8859-1"?>
<!-- Generator: Adobe Illustrator 19.0.0, SVG Export Plug-In . SVG Version: 6.00 Build 0)  -->
<svg xmlns="http://www.w3.org/2000/svg" xmlns:xlink="http://www.w3.org/1999/xlink" version="1.1" id="Layer_1" x="0px" y="0px" viewBox="0 0 512 512" style="enable-background:new 0 0 512 512;" xml:space="preserve">
<g>
	<path style="fill:#ACB3BA;" d="M256,376.533L256,376.533L256,376.533L256,376.533z"/>
	<path style="fill:#ACB3BA;" d="M256,376.533L256,376.533L256,376.533L256,376.533z"/>
</g>
<g>
	<path style="fill:#F8B64C;" d="M181.333,336C182.4,337.067,182.4,337.067,181.333,336L181.333,336z"/>
	<path style="fill:#F8B64C;" d="M331.733,336C330.667,337.067,330.667,337.067,331.733,336L331.733,336z"/>
	
		<ellipse transform="matrix(-0.0872 -0.9962 0.9962 -0.0872 -21.8439 366.1378)" style="fill:#F8B64C;" cx="156.829" cy="193.077" rx="35.2" ry="24.533"/>
	
		<ellipse transform="matrix(0.0872 -0.9962 0.9962 0.0872 131.892 530.0612)" style="fill:#F8B64C;" cx="355.177" cy="193.063" rx="35.2" ry="24.533"/>
</g>
<path style="fill:#FFD15C;" d="M155.733,93.867c-6.4,14.933-10.667,30.933-10.667,46.933v33.067c0,8.533,0,17.067,1.067,25.6l0,0  c5.333,43.733,23.467,84.267,53.333,116.267l10.667,11.733c9.6,10.667,23.467,17.067,37.333,17.067h16  c13.867,0,27.733-6.4,37.333-17.067l10.667-11.733c29.867-32,48-72.533,53.333-116.267c1.067-8.533,1.067-17.067,1.067-25.6V140.8  c0-17.067-4.267-33.067-10.667-46.933L155.733,93.867L155.733,93.867z"/>
<path style="fill:#F8B64C;" d="M312.533,315.733l-10.667,11.733c-9.6,10.667-23.467,17.067-37.333,17.067h-16  c-14.933,0-27.733-6.4-37.333-17.067l-10.667-11.733c-6.4-7.467-12.8-14.933-19.2-23.467V336L256,437.333L331.733,336v-43.733  C325.333,300.8,318.933,308.267,312.533,315.733z"/>
<g>
	<path style="fill:#40596B;" d="M187.733,107.733L160,120.533c1.067,20.267-13.867,21.333-13.867,21.333   c-5.333,23.467-1.067,44.8,0,57.6l14.933,5.333c-2.133-13.867-1.067-32,6.4-41.6C167.467,163.2,162.133,118.4,187.733,107.733z"/>
	<path style="fill:#40596B;" d="M363.733,107.733h-38.4c6.4,3.2,13.867,10.667,10.667,25.6c0,0,1.067,34.133,16,41.6l-1.067,30.933   l14.933-4.267c3.2-11.733,1.067-84.267,1.067-84.267C365.867,113.067,364.8,109.867,363.733,107.733z"/>
	<path style="fill:#40596B;" d="M217.6,107.733c13.867,2.133,39.467,5.333,77.867,0H217.6z"/>
</g>
<path style="fill:#FF7058;" d="M2.133,512h507.733v-38.4c0-33.067-19.2-64-50.133-77.867L330.667,336l0,0l0,0  c0,1.067-1.067,1.067-1.067,1.067C311.467,361.6,283.733,374.4,254.933,374.4c-27.733,0-55.467-12.8-74.667-37.333  c0,0,0,0-1.067-1.067l0,0l0,0l0,0L52.267,395.733C21.333,409.6,2.133,440.533,2.133,473.6C2.133,473.6,2.133,512,2.133,512z"/>
<path style="fill:#FFD15C;" d="M256,21.333c-65.067,0-117.333,52.267-117.333,117.333h234.667  C373.333,73.6,321.067,21.333,256,21.333z"/>
<path style="fill:#F8B64C;" d="M227.2,129.067l-21.333-80C201.6,33.067,224,0,256,0l0,0c32,0,54.4,33.067,50.133,48L284.8,128h-57.6  V129.067z"/>
<path style="fill:#FF7058;" d="M374.4,152.533H137.6c-6.4,0-10.667-5.333-10.667-10.667v-9.6c0-6.4,5.333-10.667,10.667-10.667  h235.733c6.4,0,10.667,5.333,10.667,10.667v9.6C385.067,148.267,379.733,152.533,374.4,152.533z"/>
<g>
</g>
<g>
</g>
<g>
</g>
<g>
</g>
<g>
</g>
<g>
</g>
<g>
</g>
<g>
</g>
<g>
</g>
<g>
</g>
<g>
</g>
<g>
</g>
<g>
</g>
<g>
</g>
<g>
</g>
</svg>
