<?xml version="1.0" encoding="iso-8859-1"?>
<!-- Generator: Adobe Illustrator 19.0.0, SVG Export Plug-In . SVG Version: 6.00 Build 0)  -->
<svg xmlns="http://www.w3.org/2000/svg" xmlns:xlink="http://www.w3.org/1999/xlink" version="1.1" id="Layer_1" x="0px" y="0px" viewBox="0 0 514.133 514.133" style="enable-background:new 0 0 514.133 514.133;" xml:space="preserve">
<path style="fill:#40596B;" d="M478.933,282.133c-18.133,0-33.067-14.933-33.067-33.067c0-16,10.667-28.8,25.6-32v-27.733  c0-4.267,3.2-8.533,8.533-8.533c5.333,0,8.533,3.2,8.533,8.533v35.2c0,4.267-3.2,8.533-8.533,8.533  c-9.6,0-17.067,7.467-17.067,17.067c0,9.6,7.467,17.067,17.067,17.067s17.067-7.467,17.067-17.067c0-4.267,3.2-8.533,8.533-8.533  c5.333,0,8.533,3.2,8.533,8.533C512,267.2,497.067,282.133,478.933,282.133z"/>
<rect x="470.4" y="68.8" style="fill:#F8B64C;" width="16" height="138.667"/>
<path style="fill:#FFD15C;" d="M491.733,70.933c2.133-4.267,2.133-9.6-1.067-11.733L451.2,31.467c-3.2-2.133-8.533-1.067-11.733,3.2  L204.8,318.4c0,0,0,0,0,1.067s-1.067,1.067-1.067,2.133c0,1.067-1.067,1.067-1.067,2.133c0,0,0,0,0,1.067c0,1.067,0,1.067,0,1.067  s0,0,0,1.067c0,1.067,0,2.133,0,3.2l0,0c0,1.067,1.067,1.067,1.067,2.133l0,0l0,0l0,0h1.067c1.067,0,1.067,1.067,2.133,1.067l0,0  l110.933,8.533l-24.533,42.667c-2.133,4.267-2.133,9.6,1.067,11.733c0,0,0,0,1.067,0c4.267,2.133,9.6,0,11.733-5.333L491.733,70.933  z M404.267,101.867l14.933,51.2l-58.667,2.133L404.267,101.867z M468.267,80.533l-34.133,59.733L420.267,91.2L468.267,80.533z   M342.4,177.6l22.4,60.8l-71.467-2.133L342.4,177.6z M360.533,174.4l56.533-2.133l-35.2,60.8L360.533,174.4z M461.867,63.467  l-32,7.467l16-19.2L461.867,63.467z M227.2,316.267l52.267-62.933l29.867,69.333L227.2,316.267z M300.8,255.467l67.2,1.067  l-38.4,67.2L300.8,255.467z"/>
<path id="SVGCleanerId_0" style="fill:#F2F2F2;" d="M493.867,304.533v91.733c0,16,9.6,28.8-6.4,28.8H43.733  c-16,0-28.8-12.8-28.8-28.8v-91.733H493.867z"/>
<g>
	<path id="SVGCleanerId_0_1_" style="fill:#F2F2F2;" d="M493.867,304.533v91.733c0,16,9.6,28.8-6.4,28.8H43.733   c-16,0-28.8-12.8-28.8-28.8v-91.733H493.867z"/>
</g>
<path style="fill:#E4EAEF;" d="M480,408c-7.467-32-35.2-55.467-69.333-55.467S348.8,376,341.333,408H480z"/>
<polygon style="fill:#F2F2F2;" points="199.467,312 199.467,157.333 93.867,157.333 14.933,267.2 14.933,312 "/>
<polygon style="fill:#54C0EB;" points="40.533,285.333 40.533,275.733 107.733,182.933 172.8,182.933 172.8,285.333 "/>
<path style="fill:#E4EAEF;" d="M180.267,408c-7.467-32-35.2-55.467-69.333-55.467S49.067,376,41.6,408H180.267z"/>
<path style="fill:#ACB3BA;" d="M494.933,397.333H93.867h-35.2h-44.8C6.4,397.333,0,403.733,0,411.2s6.4,13.867,13.867,13.867h44.8  h35.2h401.067c7.467,0,13.867-6.4,13.867-13.867S502.4,397.333,494.933,397.333z"/>
<circle style="fill:#40596B;" cx="109.867" cy="424" r="59.733"/>
<circle style="fill:#F2F2F2;" cx="109.867" cy="424" r="25.6"/>
<circle style="fill:#40596B;" cx="410.667" cy="424" r="59.733"/>
<circle style="fill:#F2F2F2;" cx="410.667" cy="424" r="25.6"/>
<g>
	<polygon style="fill:#84DBFF;" points="66.133,285.333 139.733,182.933 125.867,182.933 53.333,285.333  "/>
	<polygon style="fill:#84DBFF;" points="100.267,285.333 172.8,182.933 150.4,182.933 76.8,285.333  "/>
</g>
<path style="fill:#CDD6E0;" d="M177.067,322.667h-32c-3.2,0-5.333-2.133-5.333-5.333V315.2c0-3.2,2.133-5.333,5.333-5.333h32  c3.2,0,5.333,2.133,5.333,5.333v2.133C182.4,320.533,179.2,322.667,177.067,322.667z"/>
<g>
</g>
<g>
</g>
<g>
</g>
<g>
</g>
<g>
</g>
<g>
</g>
<g>
</g>
<g>
</g>
<g>
</g>
<g>
</g>
<g>
</g>
<g>
</g>
<g>
</g>
<g>
</g>
<g>
</g>
</svg>
