<?xml version="1.0" encoding="iso-8859-1"?>
<!-- Generator: Adobe Illustrator 19.0.0, SVG Export Plug-In . SVG Version: 6.00 Build 0)  -->
<svg xmlns="http://www.w3.org/2000/svg" xmlns:xlink="http://www.w3.org/1999/xlink" version="1.1" id="Layer_1" x="0px" y="0px" viewBox="0 0 512 512" style="enable-background:new 0 0 512 512;" xml:space="preserve">
<path style="fill:#F2F2F2;" d="M490.667,141.867H350.933l0,0c0-11.733-9.6-20.267-20.267-20.267H181.333  c-11.733,0-20.267,9.6-20.267,20.267l0,0H21.333C9.6,141.867,0,151.467,0,163.2v327.467C0,502.4,9.6,512,21.333,512h469.333  C502.4,512,512,502.4,512,490.667V163.2C512,151.467,502.4,141.867,490.667,141.867z"/>
<path style="fill:#FFFFFF;" d="M195.2,163.2c-5.333,0-9.6-4.267-9.6-9.6c0-5.333,4.267-9.6,9.6-9.6h122.667  c5.333,0,9.6,4.267,9.6,9.6c0,5.333-4.267,9.6-9.6,9.6H195.2z"/>
<path style="fill:#ACB3BA;" d="M256,0L256,0c-28.8,0-52.267,23.467-52.267,52.267v100.267h104.533V52.267  C308.267,23.467,284.8,0,256,0z"/>
<rect x="308.267" y="248.533" style="fill:#FFD15C;" width="161.067" height="26.667"/>
<rect x="265.6" y="312.533" style="fill:#ACB3BA;" width="203.733" height="26.667"/>
<g>
	<rect x="265.6" y="377.6" style="fill:#CDD6E0;" width="203.733" height="26.667"/>
	<rect x="42.667" y="442.667" style="fill:#CDD6E0;" width="426.667" height="26.667"/>
</g>
<rect x="42.667" y="184.533" style="fill:#FFFFFF;" width="194.133" height="219.733"/>
<path style="fill:#F8B64C;" d="M105.6,322.133c8.533,10.667,20.267,17.067,34.133,17.067s25.6-6.4,34.133-17.067  c1.067-1.067,1.067-2.133,1.067-3.2l-8.533-3.2l0,0l0,0l0,0c-6.4,8.533-16,12.8-25.6,12.8c-9.6,0-19.2-4.267-25.6-12.8l0,0l0,0l0,0  l0,0l-8.533,3.2C104.533,320,105.6,321.067,105.6,322.133z"/>
<g>
	<path style="fill:#ACB3BA;" d="M139.733,330.667L139.733,330.667L139.733,330.667z"/>
	<path style="fill:#ACB3BA;" d="M139.733,330.667L139.733,330.667L139.733,330.667z"/>
</g>
<g>
	<path style="fill:#F8B64C;" d="M114.133,315.733C114.133,316.8,114.133,316.8,114.133,315.733L114.133,315.733z"/>
	<path style="fill:#F8B64C;" d="M166.4,315.733C166.4,316.8,166.4,316.8,166.4,315.733L166.4,315.733z"/>
	
		<ellipse transform="matrix(-0.0872 -0.9962 0.9962 -0.0872 -149.7973 393.8832)" style="fill:#F8B64C;" cx="105.564" cy="265.573" rx="12.8" ry="8.533"/>
	
		<ellipse transform="matrix(0.0872 -0.9962 0.9962 0.0872 -104.8997 416.7814)" style="fill:#F8B64C;" cx="174.97" cy="265.63" rx="12.8" ry="8.533"/>
</g>
<path style="fill:#FFD15C;" d="M104.533,231.467c-2.133,5.333-4.267,10.667-4.267,17.067v11.733c0,3.2,0,6.4,1.067,8.533l0,0  c2.133,14.933,8.533,29.867,19.2,40.533l3.2,4.267c3.2,3.2,8.533,5.333,12.8,5.333h5.333c5.333,0,9.6-2.133,12.8-5.333l5.333-4.267  c10.667-11.733,17.067-25.6,19.2-40.533c0-3.2,1.067-6.4,1.067-8.533v-11.733c0-6.4-1.067-11.733-4.267-17.067H104.533z"/>
<path style="fill:#F8B64C;" d="M160,309.333l-3.2,4.267c-3.2,3.2-8.533,5.333-12.8,5.333h-5.333c-5.333,0-9.6-2.133-12.8-5.333  l-5.333-4.267c-2.133-2.133-4.267-5.333-6.4-8.533v14.933l26.667,35.2l26.667-35.2V300.8C164.267,304,162.133,306.133,160,309.333z"/>
<path style="fill:#40596B;" d="M101.333,268.8l5.333,2.133c-1.067-4.267,0-10.667,2.133-14.933c0,0-3.2-22.4,13.867-20.267  c0,0,12.8,4.267,37.333,0c0,0,9.6,0,8.533,9.6c0,0,0,11.733,5.333,14.933v10.667l5.333-1.067c1.067-4.267,0-29.867,0-29.867  c-3.2-18.133-25.6-28.8-25.6-28.8c2.133-3.2,6.4-2.133,6.4-2.133C131.2,190.933,112,208,112,208  c-20.267,18.133-9.6,40.533-9.6,40.533C99.2,256,100.267,263.467,101.333,268.8z"/>
<path style="fill:#FF7058;" d="M51.2,388.267h178.133V364.8c0-11.733-6.4-22.4-17.067-27.733l-44.8-21.333l0,0l0,0l0,0  c-6.4,8.533-16,12.8-25.6,12.8s-19.2-4.267-25.6-12.8l0,0l0,0l0,0l0,0l-44.8,21.333C60.8,342.4,54.4,353.067,54.4,364.8v23.467H51.2  z"/>
<circle style="fill:#FFFFFF;" cx="256" cy="46.933" r="22.4"/>
<g>
</g>
<g>
</g>
<g>
</g>
<g>
</g>
<g>
</g>
<g>
</g>
<g>
</g>
<g>
</g>
<g>
</g>
<g>
</g>
<g>
</g>
<g>
</g>
<g>
</g>
<g>
</g>
<g>
</g>
</svg>
