<?xml version="1.0" encoding="iso-8859-1"?>
<!-- Generator: Adobe Illustrator 19.0.0, SVG Export Plug-In . SVG Version: 6.00 Build 0)  -->
<svg xmlns="http://www.w3.org/2000/svg" xmlns:xlink="http://www.w3.org/1999/xlink" version="1.1" id="Layer_1" x="0px" y="0px" viewBox="0 0 511.444 511.444" style="enable-background:new 0 0 511.444 511.444;" xml:space="preserve">
<rect x="187.229" y="136.403" transform="matrix(-0.7071 -0.7071 0.7071 -0.7071 211.2974 633.3915)" style="fill:#334A5E;" width="99.199" height="273.064"/>
<g>
	<path style="fill:#40596B;" d="M504.922,79.711l-58.667,58.667l-74.667-74.667l58.667-58.667   c-38.4-11.733-82.133-3.2-113.067,27.733c-43.733,43.733-43.733,115.2,0,160c43.733,43.733,115.2,43.733,160,0   C507.055,161.844,516.655,118.111,504.922,79.711z"/>
	<path style="fill:#40596B;" d="M169.989,339.977c-38.4-38.4-101.333-38.4-139.733,0s-38.4,101.333,0,139.733   s101.333,38.4,139.733,0S208.389,378.377,169.989,339.977z M113.455,460.511l-50.133-13.867l-13.867-50.133l36.267-36.267   l50.133,13.867l13.867,50.133L113.455,460.511z"/>
</g>
<polygon style="fill:#CDD6E0;" points="48.389,28.511 27.055,49.844 57.989,96.777 77.189,110.644 284.122,317.577 316.122,284.511   109.189,78.644 95.322,59.444 "/>
<path style="fill:#FFD15C;" d="M493.189,494.644L493.189,494.644c-22.4,22.4-58.667,22.4-80,0l-140.8-139.733l80-80l140.8,140.8  C515.589,437.044,515.589,472.244,493.189,494.644z"/>
<path style="fill:#FF7058;" d="M373.722,280.244l-94.933,94.933c-7.467,7.467-20.267,7.467-27.733,0l0,0  c-7.467-7.467-7.467-20.267,0-27.733l94.933-94.933c7.467-7.467,20.267-7.467,27.733,0l0,0  C381.189,259.977,381.189,272.777,373.722,280.244z"/>
<g>
	
		<rect x="347.156" y="379.997" transform="matrix(0.7071 0.7071 -0.7071 0.7071 397.8774 -182.4338)" style="fill:#F8B64C;" width="143.999" height="18.133"/>
	
		<rect x="315.07" y="410.923" transform="matrix(0.7071 0.7071 -0.7071 0.7071 410.3473 -150.6873)" style="fill:#F8B64C;" width="143.999" height="18.133"/>
</g>
<g>
</g>
<g>
</g>
<g>
</g>
<g>
</g>
<g>
</g>
<g>
</g>
<g>
</g>
<g>
</g>
<g>
</g>
<g>
</g>
<g>
</g>
<g>
</g>
<g>
</g>
<g>
</g>
<g>
</g>
</svg>
