<?xml version="1.0" encoding="iso-8859-1"?>
<!-- Generator: Adobe Illustrator 19.0.0, SVG Export Plug-In . SVG Version: 6.00 Build 0)  -->
<svg xmlns="http://www.w3.org/2000/svg" xmlns:xlink="http://www.w3.org/1999/xlink" version="1.1" id="Layer_1" x="0px" y="0px" viewBox="0 0 512.272 512.272" style="enable-background:new 0 0 512.272 512.272;" xml:space="preserve">
<path style="fill:#54C0EB;" d="M330.133,225.339l-39.467-39.467L254.4,199.738c-8.533-5.333-18.133-8.533-27.733-11.733  l-14.933-35.2h-55.467l-16,35.2c-9.6,3.2-19.2,6.4-27.733,11.733l-36.267-13.867L36.8,225.339l13.867,36.267  c-5.333,8.533-8.533,18.133-11.733,27.733l-35.2,14.933v55.467l35.2,16c3.2,9.6,6.4,19.2,11.733,27.733L36.8,439.739l39.467,39.467  l36.267-13.867c8.533,5.333,18.133,8.533,27.733,11.733l14.933,35.2h55.467l16-35.2c9.6-3.2,19.2-6.4,27.733-11.733l33.067,14.933  l39.467-39.467l-13.867-36.267c5.333-8.533,8.533-18.133,11.733-27.733l35.2-14.933v-55.467l-35.2-16  c-3.2-9.6-6.4-19.2-11.733-27.733L330.133,225.339z M235.2,386.405c-29.867,29.867-77.867,28.8-106.667-1.067  c-29.867-29.867-28.8-77.867,1.067-106.667c29.867-29.867,77.867-28.8,106.667,1.067C265.067,308.538,265.067,356.539,235.2,386.405  z"/>
<path style="fill:#F2F2F2;" d="M98.667,247.739c-46.933,45.867-46.933,121.6-1.067,167.467  c45.867,46.933,121.6,46.933,167.467,1.067C312,370.405,312,294.672,266.133,248.805C220.267,201.872,145.6,201.872,98.667,247.739z   M235.2,386.405c-29.867,29.867-77.867,28.8-106.667-1.067c-29.867-29.867-28.8-77.867,1.067-106.667  c29.867-29.867,77.867-28.8,106.667,1.067C265.067,308.538,265.067,356.539,235.2,386.405z"/>
<path style="fill:#FFD15C;" d="M345.067,37.605l-7.467,4.267c-6.4-7.467-13.867-13.867-21.333-18.133l2.133-7.467  c1.067-4.267-1.067-9.6-5.333-10.667l-14.933-5.333c-4.267-1.067-9.6,1.067-10.667,5.333l-2.133,7.467c-9.6-1.067-19.2,0-28.8,2.133  l-4.267-7.467c-2.133-4.267-7.467-5.333-11.733-3.2l-12.8,6.4c-4.267,2.133-5.333,7.467-3.2,11.733l4.267,7.467  c-7.467,6.4-13.867,13.867-18.133,21.333h-8.533c-4.267-1.067-9.6,1.067-10.667,5.333L187.2,70.672  c-1.067,4.267,1.067,9.6,5.333,10.667L200,83.472c-1.067,9.6,0,19.2,2.133,28.8l-7.467,4.267c-4.267,2.133-5.333,7.467-3.2,11.733  l6.4,12.8c2.133,4.267,7.467,5.333,11.733,3.2l7.467-4.267c6.4,7.467,13.867,13.867,21.333,18.133l-2.133,7.467  c-1.067,4.267,1.067,9.6,5.333,10.667l13.867,4.267c4.267,1.067,9.6-1.067,10.667-5.333l2.133-7.467c9.6,1.067,19.2,0,28.8-2.133  l4.267,7.467c2.133,4.267,7.467,5.333,11.733,3.2l12.8-6.4c4.267-2.133,5.333-7.467,3.2-11.733l-4.267-7.467  c7.467-6.4,13.867-13.867,18.133-21.333l7.467,2.133c4.267,1.067,9.6-1.067,10.667-5.333l4.267-13.867  c1.067-4.267-1.067-9.6-5.333-10.667l-7.467-2.133c1.067-9.6,0-19.2-2.133-28.8l7.467-4.267c4.267-2.133,5.333-7.467,3.2-11.733  l-6.4-12.8C354.667,37.605,349.333,35.472,345.067,37.605z M298.133,130.405c-21.333,11.733-48,3.2-59.733-18.133  s-3.2-48,18.133-59.733c21.333-11.733,48-3.2,59.733,18.133C328,92.005,320.533,119.738,298.133,130.405z"/>
<path style="fill:#FF7058;" d="M485.867,174.138l-7.467,4.267c-6.4-7.467-13.867-13.867-21.333-18.133l2.133-7.467  c1.067-4.267-1.067-9.6-5.333-10.667L440,137.872c-4.267-1.067-9.6,1.067-10.667,5.333l-3.2,6.4c-9.6-1.067-19.2,0-28.8,2.133  l-3.2-6.4c-2.133-4.267-7.467-5.333-11.733-3.2l-12.8,6.4c-4.267,2.133-5.333,7.467-3.2,11.733l4.267,7.467  c-7.467,6.4-13.867,13.867-18.133,21.333l-7.467-2.133c-4.267-1.067-9.6,1.067-10.667,5.333l-4.267,13.867  c-1.067,4.267,1.067,9.6,5.333,10.667l7.467,2.133c-1.067,9.6,0,19.2,2.133,28.8l-7.467,4.267c-4.267,2.133-5.333,7.467-3.2,11.733  l6.4,12.8c2.133,4.267,7.467,5.333,11.733,3.2l7.467-4.267c6.4,7.467,13.867,13.867,21.333,18.133l-2.133,7.467  c-1.067,4.267,1.067,9.6,5.333,10.667l13.867,4.267c4.267,1.067,9.6-1.067,10.667-5.333l2.133-7.467c9.6,1.067,19.2,0,28.8-2.133  l4.267,7.467c2.133,4.267,7.467,5.333,11.733,3.2l12.8-6.4c4.267-2.133,5.333-7.467,3.2-11.733l-4.267-7.467  c7.467-6.4,13.867-13.867,18.133-21.333l7.467,2.133c4.267,1.067,9.6-1.067,10.667-5.333l4.267-13.867  c1.067-4.267-1.067-9.6-5.333-10.667l-7.467-2.133c1.067-9.6,0-19.2-2.133-28.8l7.467-4.267c4.267-2.133,5.333-7.467,3.2-11.733  l-6.4-12.8C494.4,173.072,490.133,172.005,485.867,174.138z M438.933,265.872c-21.333,11.733-48,3.2-59.733-18.133  c-11.733-21.333-3.2-48,18.133-59.733s48-3.2,59.733,18.133C468.8,227.472,460.267,255.205,438.933,265.872z"/>
<g>
</g>
<g>
</g>
<g>
</g>
<g>
</g>
<g>
</g>
<g>
</g>
<g>
</g>
<g>
</g>
<g>
</g>
<g>
</g>
<g>
</g>
<g>
</g>
<g>
</g>
<g>
</g>
<g>
</g>
</svg>
