<?xml version="1.0" encoding="iso-8859-1"?>
<!-- Generator: Adobe Illustrator 19.0.0, SVG Export Plug-In . SVG Version: 6.00 Build 0)  -->
<svg xmlns="http://www.w3.org/2000/svg" xmlns:xlink="http://www.w3.org/1999/xlink" version="1.1" id="Layer_1" x="0px" y="0px" viewBox="0 0 512 512" style="enable-background:new 0 0 512 512;" xml:space="preserve">
<rect x="347.733" y="45.867" style="fill:#334A5E;" width="81.067" height="9.6"/>
<g>
	<path style="fill:#40596B;" d="M433.067,0h-89.6c-6.4,0-10.667,4.267-10.667,10.667V35.2c0,6.4,4.267,10.667,10.667,10.667h89.6   c6.4,0,10.667-4.267,10.667-10.667V10.667C443.733,4.267,438.4,0,433.067,0z"/>
	<path style="fill:#40596B;" d="M438.4,66.133c0-6.4-4.267-10.667-10.667-10.667H348.8c-5.333,0-10.667,4.267-10.667,10.667   C336,65.067,332.8,65.067,330.667,64C304,23.467,259.2,0,211.2,0C132.267,0,68.267,64,68.267,142.933v347.733   C68.267,502.4,77.867,512,89.6,512h327.467c11.733,0,21.333-9.6,21.333-21.333v-297.6l0,0V66.133z M121.6,170.667v-27.733   c0-49.067,40.533-89.6,89.6-89.6c29.867,0,58.667,14.933,74.667,40.533l3.2,5.333L121.6,170.667z"/>
</g>
<path style="fill:#FF7058;" d="M330.667,340.267c0,42.667-35.2,77.867-77.867,77.867s-77.867-35.2-77.867-77.867  s77.867-134.4,77.867-134.4S330.667,297.6,330.667,340.267z"/>
<path style="fill:#F2F2F2;" d="M258.133,403.2c-35.2,0-62.933-27.733-62.933-62.933c0-3.2,2.133-6.4,6.4-6.4  c3.2,0,6.4,2.133,6.4,6.4c0,27.733,23.467,51.2,51.2,51.2c3.2,0,6.4,2.133,6.4,6.4S261.333,403.2,258.133,403.2z"/>
<path style="fill:#CDD6E0;" d="M397.867,397.867L397.867,397.867c-5.333,0-9.6-4.267-9.6-9.6V210.133c0-5.333,4.267-9.6,9.6-9.6l0,0  c5.333,0,9.6,4.267,9.6,9.6V387.2C407.467,392.533,403.2,397.867,397.867,397.867z"/>
<g>
</g>
<g>
</g>
<g>
</g>
<g>
</g>
<g>
</g>
<g>
</g>
<g>
</g>
<g>
</g>
<g>
</g>
<g>
</g>
<g>
</g>
<g>
</g>
<g>
</g>
<g>
</g>
<g>
</g>
</svg>
