<?xml version="1.0" encoding="iso-8859-1"?>
<!-- Generator: Adobe Illustrator 19.0.0, SVG Export Plug-In . SVG Version: 6.00 Build 0)  -->
<svg xmlns="http://www.w3.org/2000/svg" xmlns:xlink="http://www.w3.org/1999/xlink" version="1.1" id="Layer_1" x="0px" y="0px" viewBox="0 0 512 512" style="enable-background:new 0 0 512 512;" xml:space="preserve">
<rect x="152.533" y="411.733" style="fill:#F8B64C;" width="206.933" height="54.4"/>
<g>
	<polygon style="fill:#FFD15C;" points="86.4,512 149.333,373.333 217.6,373.333 154.667,512  "/>
	<polygon style="fill:#FFD15C;" points="425.6,512 362.667,373.333 294.4,373.333 357.333,512  "/>
</g>
<path style="fill:#FF7058;" d="M482.133,0H29.867c-16,0-28.8,12.8-28.8,28.8s12.8,28.8,28.8,28.8h452.267c16,0,28.8-12.8,28.8-28.8  S498.133,0,482.133,0z"/>
<path style="fill:#F2F2F2;" d="M462.933,373.333H49.067c-11.733,0-21.333-9.6-21.333-21.333V57.6h457.6V352  C484.267,363.733,474.667,373.333,462.933,373.333z"/>
<path style="fill:#E4EAEF;" d="M27.733,73.6c1.067,0,1.067,0,2.133,0h452.267c1.067,0,1.067,0,2.133,0v-16H27.733V73.6z"/>
<g>
	<polygon style="fill:#F8B64C;" points="210.133,389.333 217.6,373.333 149.333,373.333 141.867,389.333  "/>
	<polygon style="fill:#F8B64C;" points="301.867,389.333 294.4,373.333 362.667,373.333 370.133,389.333  "/>
</g>
<rect x="309.333" y="200.533" style="fill:#4CDBC4;" width="40.533" height="113.067"/>
<rect x="235.733" y="170.667" style="fill:#FF7058;" width="40.533" height="142.933"/>
<rect x="382.933" y="117.333" style="fill:#54C0EB;" width="40.533" height="196.267"/>
<rect x="162.133" y="128" style="fill:#FFD15C;" width="40.533" height="185.6"/>
<rect x="88.533" y="229.333" style="fill:#CDD6E0;" width="40.533" height="84.267"/>
<g>
</g>
<g>
</g>
<g>
</g>
<g>
</g>
<g>
</g>
<g>
</g>
<g>
</g>
<g>
</g>
<g>
</g>
<g>
</g>
<g>
</g>
<g>
</g>
<g>
</g>
<g>
</g>
<g>
</g>
</svg>
