<?xml version="1.0" encoding="iso-8859-1"?>
<!-- Generator: Adobe Illustrator 19.0.0, SVG Export Plug-In . SVG Version: 6.00 Build 0)  -->
<svg xmlns="http://www.w3.org/2000/svg" xmlns:xlink="http://www.w3.org/1999/xlink" version="1.1" id="Layer_1" x="0px" y="0px" viewBox="0 0 509.172 509.172" style="enable-background:new 0 0 509.172 509.172;" xml:space="preserve">
<path style="fill:#FFD15C;" d="M51.317,315.039c21.333,3.2,11.733,30.933,11.733,30.933s0,9.6,9.6,12.8c0,0,3.2,2.133,2.133,7.467  c-1.067,5.333,0,11.733,3.2,17.067l1.067,1.067c4.267,7.467,6.4,16,5.333,24.533c-1.067,12.8-1.067,34.133,14.933,35.2  c23.467,1.067,60.8,0,60.8,0s39.467-3.2,52.267,29.867l16,35.2H431.05l-33.067-97.067c0,0-22.4-48,26.667-115.2  c0,0,74.667-88.533,38.4-174.933c0,0-39.467-88.533-133.333-112c0,0-115.2-35.2-201.6,26.667s-70.4,146.133-70.4,146.133  s1.067,11.733,8.533,22.4c7.467,9.6,0,33.067,0,33.067l-28.8,54.4C37.45,291.572,29.984,311.839,51.317,315.039z"/>
<path style="fill:#40596B;" d="M368.117,178.505v-19.2l-12.8-5.333c-1.067-3.2-2.133-6.4-4.267-9.6l5.333-12.8l-13.867-13.867  l-12.8,4.267c-3.2-2.133-6.4-3.2-9.6-4.267l-5.333-12.8h-19.2l-5.333,12.8c-3.2,1.067-6.4,2.133-9.6,4.267l-12.8-5.333l-13.867,12.8  l4.267,12.8c-2.133,3.2-3.2,6.4-4.267,9.6l-11.733,5.333v19.2l12.8,5.333c1.067,3.2,2.133,6.4,4.267,9.6l-5.333,12.8l13.867,13.867  l12.8-4.267c3.2,2.133,6.4,3.2,9.6,4.267l5.333,12.8h19.2l5.333-12.8c3.2-1.067,6.4-2.133,9.6-4.267l12.8,5.333l13.867-13.867  l-4.267-12.8c2.133-3.2,3.2-6.4,4.267-9.6L368.117,178.505z M305.184,198.772c-17.067,0-30.933-13.867-30.933-32  c0-17.067,13.867-30.933,32-30.933c17.067,0,30.933,13.867,30.933,32C336.117,184.905,322.25,198.772,305.184,198.772z"/>
<path style="fill:#FFFFFF;" d="M362.784,65.439l-2.133,1.067c-2.133-2.133-4.267-4.267-7.467-6.4l1.067-3.2  c0-1.067,0-3.2-2.133-4.267l-5.333-1.067c-1.067,0-3.2,0-4.267,2.133l-1.067,3.2c-3.2,0-6.4,0-9.6,1.067l-1.067-2.133  c-1.067-1.067-2.133-2.133-4.267-1.067l-4.267,2.133c-1.067,1.067-2.133,2.133-1.067,4.267l1.067,2.133  c-2.133,2.133-4.267,4.267-6.4,7.467l-3.2-1.067c-1.067,0-3.2,0-4.267,2.133l-1.067,4.267c0,1.067,0,3.2,2.133,4.267l3.2,1.067  c0,3.2,0,6.4,1.067,9.6l-2.133,1.067c-1.067,1.067-2.133,2.133-1.067,4.267l2.133,4.267c1.067,1.067,2.133,2.133,4.267,1.067  l1.067-1.067c2.133,2.133,4.267,4.267,7.467,6.4l-1.067,3.2c0,1.067,0,3.2,2.133,4.267l5.333,1.067c1.067,0,3.2,0,4.267-2.133  l1.067-3.2c3.2,0,6.4,0,9.6-1.067l1.067,2.133c1.067,1.067,2.133,2.133,4.267,1.067l4.267-2.133  c1.067-1.067,2.133-2.133,1.067-4.267l-1.067-2.133c2.133-2.133,4.267-4.267,6.4-7.467l3.2,1.067c1.067,0,3.2,0,4.267-2.133  l1.067-5.333c0-1.067,0-3.2-2.133-4.267l-3.2-1.067c0-3.2,0-6.4-1.067-9.6l2.133-1.067c1.067-1.067,2.133-2.133,1.067-4.267  l-2.133-4.267C365.984,64.372,363.85,64.372,362.784,65.439z M345.717,97.439c-7.467,4.267-17.067,1.067-21.333-6.4  c-4.267-7.467-1.067-17.067,6.4-21.333c7.467-4.267,17.067-1.067,21.333,6.4C356.384,83.572,353.184,93.172,345.717,97.439z"/>
<path style="fill:#FF7058;" d="M411.85,112.372l-2.133,1.067c-2.133-2.133-4.267-4.267-7.467-6.4l1.067-3.2  c0-1.067,0-3.2-2.133-4.267l-5.333-1.067c-1.067,0-3.2,0-4.267,2.133l-1.067,3.2c-3.2,0-6.4,0-9.6,1.067l-1.067-2.133  c-1.067-1.067-2.133-2.133-4.267-1.067l-5.333,2.133c-1.067,1.067-2.133,2.133-1.067,4.267l1.067,2.133  c-2.133,2.133-4.267,4.267-6.4,7.467l-3.2-1.067c-1.067,0-3.2,0-4.267,2.133l-1.067,5.333c0,1.067,0,3.2,2.133,4.267l3.2,1.067  c0,3.2,0,6.4,1.067,9.6l-2.133,1.067c-1.067,1.067-2.133,2.133-1.067,4.267l2.133,4.267c1.067,1.067,2.133,2.133,4.267,1.067  l2.133-1.067c2.133,2.133,4.267,4.267,7.467,6.4l-1.067,2.133c0,1.067,0,3.2,2.133,4.267l5.333,1.067c1.067,0,3.2,0,4.267-2.133  l1.067-3.2c3.2,0,6.4,0,9.6-1.067l1.067,2.133c1.067,1.067,2.133,2.133,4.267,1.067l4.267-2.133  c1.067-1.067,2.133-2.133,1.067-4.267l-1.067-2.133c2.133-2.133,4.267-4.267,6.4-7.467l3.2,1.067c1.067,0,3.2,0,4.267-2.133  l1.067-5.333c0-1.067,0-3.2-2.133-4.267l-3.2-1.067c0-3.2,0-6.4-1.067-9.6l2.133-1.067c1.067-1.067,2.133-2.133,1.067-4.267  l-2.133-4.267C415.05,112.372,412.917,111.305,411.85,112.372z M394.784,144.372c-7.467,4.267-17.067,1.067-21.333-6.4  c-4.267-7.467-1.067-17.067,6.4-21.333c7.467-4.267,17.067-1.067,21.333,6.4C405.45,131.572,403.317,141.172,394.784,144.372z"/>
<g>
</g>
<g>
</g>
<g>
</g>
<g>
</g>
<g>
</g>
<g>
</g>
<g>
</g>
<g>
</g>
<g>
</g>
<g>
</g>
<g>
</g>
<g>
</g>
<g>
</g>
<g>
</g>
<g>
</g>
</svg>
