<?xml version="1.0" encoding="iso-8859-1"?>
<!-- Generator: Adobe Illustrator 19.0.0, SVG Export Plug-In . SVG Version: 6.00 Build 0)  -->
<svg xmlns="http://www.w3.org/2000/svg" xmlns:xlink="http://www.w3.org/1999/xlink" version="1.1" id="Layer_1" x="0px" y="0px" viewBox="0 0 510.966 510.966" style="enable-background:new 0 0 510.966 510.966;" xml:space="preserve">
<path style="fill:#CDD6E0;" d="M36.267,280.625c-1.067,0-3.2-1.067-4.267-2.133c-2.133-2.133-2.133-5.333,0-7.467l44.8-43.733  c2.133-2.133,5.333-2.133,7.467,0s2.133,5.333,0,7.467l-44.8,43.733C39.467,279.558,38.4,280.625,36.267,280.625z"/>
<path style="fill:#334A5E;" d="M92.8,221.958c-2.133,0-4.267,2.133-4.267,4.267c0,5.333-4.267,8.533-8.533,8.533  c-5.333,0-8.533-4.267-8.533-8.533c0-5.333,4.267-8.533,8.533-8.533c2.133,0,4.267-2.133,4.267-4.267v-9.6  c0-2.133-2.133-4.267-4.267-4.267c-2.133,0-4.267,2.133-4.267,4.267v6.4c-7.467,2.133-12.8,8.533-12.8,17.067  c0,9.6,7.467,17.067,17.067,17.067s17.067-7.467,17.067-17.067C97.067,223.025,94.933,221.958,92.8,221.958z"/>
<path style="fill:#FF7058;" d="M348.8,169.691l-48,84.267l-237.867-153.6c-13.867-9.6-19.2-27.733-10.667-42.667l0,0  c8.533-14.933,26.667-20.267,42.667-12.8L348.8,169.691z"/>
<path style="fill:#40596B;" d="M454.4,469.425H228.267c-32,0-57.6-25.6-57.6-57.6v-7.467c0-32,25.6-57.6,57.6-57.6h225.067  c32,0,57.6,25.6,57.6,57.6v6.4C512,442.758,486.4,469.425,454.4,469.425z"/>
<path style="fill:#334A5E;" d="M231.467,424.625c-8.533,0-16-7.467-16-16s7.467-16,16-16h218.667c8.533,0,16,7.467,16,16  s-7.467,16-16,16H231.467z"/>
<rect x="272" y="319.025" style="fill:#ACB3BA;" width="179.2" height="27.733"/>
<polygon style="fill:#FFD15C;" points="492.8,319.025 231.467,319.025 231.467,216.625 343.467,104.625 492.8,104.625 "/>
<polygon style="fill:#54C0EB;" points="276.267,274.225 276.267,235.825 362.667,149.425 448,149.425 448,274.225 "/>
<g>
	<polygon style="fill:#84DBFF;" points="411.733,149.425 307.2,274.225 286.933,274.225 390.4,149.425  "/>
	<polygon style="fill:#84DBFF;" points="448,149.425 448,164.358 356.267,274.225 322.133,274.225 426.667,149.425  "/>
</g>
<path style="fill:#FFD15C;" d="M98.133,169.691h-35.2V72.625c0-9.6,7.467-17.067,17.067-17.067l0,0  c9.6,0,17.067,7.467,17.067,17.067v97.067H98.133z"/>
<circle style="fill:#FFFFFF;" cx="80" cy="72.625" r="11.733"/>
<polygon style="fill:#40596B;" points="99.2,169.691 60.8,169.691 54.4,194.225 60.8,205.958 99.2,205.958 105.6,194.225 "/>
<path style="fill:#ACB3BA;" d="M125.867,280.625c-1.067,0-3.2-1.067-4.267-2.133l-44.8-43.733c-2.133-2.133-2.133-5.333,0-7.467  s5.333-2.133,7.467,0l44.8,43.733c2.133,2.133,2.133,5.333,0,7.467C129.067,279.558,128,280.625,125.867,280.625z"/>
<rect y="266.758" style="fill:#4CDBC4;" width="160" height="101.333"/>
<g>
</g>
<g>
</g>
<g>
</g>
<g>
</g>
<g>
</g>
<g>
</g>
<g>
</g>
<g>
</g>
<g>
</g>
<g>
</g>
<g>
</g>
<g>
</g>
<g>
</g>
<g>
</g>
<g>
</g>
</svg>
