<?xml version="1.0" encoding="iso-8859-1"?>
<!-- Generator: Adobe Illustrator 19.0.0, SVG Export Plug-In . SVG Version: 6.00 Build 0)  -->
<svg xmlns="http://www.w3.org/2000/svg" xmlns:xlink="http://www.w3.org/1999/xlink" version="1.1" id="Layer_1" x="0px" y="0px" viewBox="0 0 512 512" style="enable-background:new 0 0 512 512;" xml:space="preserve">
<rect x="16" y="194.667" style="fill:#F2F2F2;" width="103.467" height="268.8"/>
<g>
	<polygon style="fill:#ACB3BA;" points="67.2,118.933 0,186.133 135.467,186.133  "/>
	<polygon style="fill:#ACB3BA;" points="406.4,17.6 306.133,118.933 506.667,118.933  "/>
	<polygon style="fill:#ACB3BA;" points="152.533,208.533 118.4,240.533 186.667,240.533  "/>
	<polygon style="fill:#ACB3BA;" points="220.8,208.533 186.667,240.533 254.933,240.533  "/>
	<polygon style="fill:#ACB3BA;" points="289.067,208.533 254.933,240.533 323.2,240.533  "/>
</g>
<rect x="323.2" y="126.4" style="fill:#F2F2F2;" width="166.4" height="336"/>
<rect x="119.467" y="240.533" style="fill:#CDD6E0;" width="203.733" height="222.933"/>
<g>
	<rect x="119.467" y="240.533" style="fill:#ACB3BA;" width="203.733" height="8.533"/>
	<rect y="186.133" style="fill:#ACB3BA;" width="135.467" height="8.533"/>
</g>
<g>
	<rect x="16" y="194.667" style="fill:#E4EAEF;" width="103.467" height="13.867"/>
	<rect x="323.2" y="126.4" style="fill:#E4EAEF;" width="166.4" height="13.867"/>
</g>
<rect x="306.133" y="118.933" style="fill:#ACB3BA;" width="200.533" height="8.533"/>
<g>
	<rect x="44.8" y="244.8" style="fill:#54C0EB;" width="45.867" height="45.867"/>
	<rect x="44.8" y="319.467" style="fill:#54C0EB;" width="45.867" height="45.867"/>
	<rect x="44.8" y="395.2" style="fill:#54C0EB;" width="45.867" height="45.867"/>
</g>
<g>
	<rect x="136.533" y="284.267" style="fill:#F2F2F2;" width="33.067" height="33.067"/>
	<rect x="136.533" y="346.133" style="fill:#F2F2F2;" width="33.067" height="33.067"/>
	<rect x="136.533" y="408" style="fill:#F2F2F2;" width="33.067" height="33.067"/>
	<rect x="203.733" y="284.267" style="fill:#F2F2F2;" width="33.067" height="33.067"/>
	<rect x="203.733" y="346.133" style="fill:#F2F2F2;" width="33.067" height="33.067"/>
	<rect x="203.733" y="408" style="fill:#F2F2F2;" width="33.067" height="33.067"/>
	<rect x="272" y="284.267" style="fill:#F2F2F2;" width="33.067" height="33.067"/>
	<rect x="272" y="346.133" style="fill:#F2F2F2;" width="33.067" height="33.067"/>
	<rect x="272" y="408" style="fill:#F2F2F2;" width="33.067" height="33.067"/>
</g>
<g>
	<rect x="349.867" y="161.6" style="fill:#54C0EB;" width="33.067" height="33.067"/>
	<rect x="349.867" y="223.467" style="fill:#54C0EB;" width="33.067" height="33.067"/>
	<rect x="349.867" y="284.267" style="fill:#54C0EB;" width="33.067" height="33.067"/>
	<rect x="349.867" y="346.133" style="fill:#54C0EB;" width="33.067" height="33.067"/>
	<rect x="429.867" y="161.6" style="fill:#54C0EB;" width="33.067" height="33.067"/>
	<rect x="429.867" y="223.467" style="fill:#54C0EB;" width="33.067" height="33.067"/>
	<rect x="429.867" y="284.267" style="fill:#54C0EB;" width="33.067" height="33.067"/>
	<rect x="429.867" y="346.133" style="fill:#54C0EB;" width="33.067" height="33.067"/>
	<rect x="349.867" y="408" style="fill:#54C0EB;" width="33.067" height="33.067"/>
	<rect x="429.867" y="408" style="fill:#54C0EB;" width="33.067" height="33.067"/>
</g>
<rect x="119.467" y="248" style="fill:#C0CFDD;" width="203.733" height="13.867"/>
<rect y="462.4" style="fill:#FF7058;" width="512" height="32"/>
<g>
</g>
<g>
</g>
<g>
</g>
<g>
</g>
<g>
</g>
<g>
</g>
<g>
</g>
<g>
</g>
<g>
</g>
<g>
</g>
<g>
</g>
<g>
</g>
<g>
</g>
<g>
</g>
<g>
</g>
</svg>
