<?xml version="1.0" encoding="iso-8859-1"?>
<!-- Generator: Adobe Illustrator 19.0.0, SVG Export Plug-In . SVG Version: 6.00 Build 0)  -->
<svg xmlns="http://www.w3.org/2000/svg" xmlns:xlink="http://www.w3.org/1999/xlink" version="1.1" id="Layer_1" x="0px" y="0px" viewBox="0 0 512 512" style="enable-background:new 0 0 512 512;" xml:space="preserve">
<polygon style="fill:#FFD15C;" points="512,256 446.933,307.2 477.867,384 395.733,395.733 384,477.867 307.2,446.933 256,512   204.8,446.933 128,477.867 116.267,395.733 34.133,384 65.067,307.2 0,256 65.067,204.8 34.133,128 116.267,116.267 128,34.133   204.8,65.067 256,0 307.2,65.067 384,34.133 395.733,116.267 477.867,128 446.933,204.8 "/>
<circle style="fill:#F8B64C;" cx="256" cy="256" r="166.4"/>
<circle style="fill:#FFD15C;" cx="256" cy="256" r="132.267"/>
<polygon style="fill:#FF7058;" points="313.6,243.2 275.2,243.2 275.2,163.2 198.4,268.8 236.8,268.8 236.8,348.8 "/>
<g>
</g>
<g>
</g>
<g>
</g>
<g>
</g>
<g>
</g>
<g>
</g>
<g>
</g>
<g>
</g>
<g>
</g>
<g>
</g>
<g>
</g>
<g>
</g>
<g>
</g>
<g>
</g>
<g>
</g>
</svg>
