<?xml version="1.0" encoding="iso-8859-1"?>
<!-- Generator: Adobe Illustrator 19.0.0, SVG Export Plug-In . SVG Version: 6.00 Build 0)  -->
<svg xmlns="http://www.w3.org/2000/svg" xmlns:xlink="http://www.w3.org/1999/xlink" version="1.1" id="Layer_1" x="0px" y="0px" viewBox="0 0 512.438 512.438" style="enable-background:new 0 0 512.438 512.438;" xml:space="preserve">
<path style="fill:#CDD6E0;" d="M221.867,158.483c-114.133,0-206.933,92.8-206.933,206.933v77.867H131.2v-77.867  c0-50.133,40.533-90.667,90.667-90.667H512V158.483H221.867z"/>
<rect y="443.283" style="fill:#ACB3BA;" width="145.067" height="57.6"/>
<path style="fill:#40596B;" d="M438.4,113.683H289.067c-11.733,0-21.333,9.6-21.333,21.333v137.6c0,11.733,9.6,21.333,21.333,21.333  h150.4c11.733,0,21.333-9.6,21.333-21.333v-137.6C459.733,123.283,450.133,113.683,438.4,113.683z"/>
<rect x="333.867" y="72.083" style="fill:#ACB3BA;" width="60.8" height="42.667"/>
<rect x="333.867" y="74.216" style="fill:#98A9B7;" width="60.8" height="13.867"/>
<rect x="459.733" y="158.483" style="fill:#B9CBDB;" width="14.933" height="116.267"/>
<polygon style="fill:#4CDBC4;" points="340.267,244.883 387.2,244.883 410.667,204.349 387.2,163.816 340.267,163.816   316.8,204.349 "/>
<path style="fill:#FF7058;" d="M480,13.416c-10.667-2.133-20.267-1.067-28.8,2.133c-21.333,9.6-42.667,17.067-66.133,17.067h-41.6  c-23.467,0-44.8-7.467-66.133-17.067c-8.533-4.267-18.133-5.333-28.8-2.133c-14.933,4.267-27.733,16-30.933,30.933  c-6.4,28.8,14.933,53.333,41.6,53.333c7.467,0,13.867-2.133,19.2-4.267c19.2-9.6,39.467-16,60.8-16h51.2c21.333,0,41.6,6.4,60.8,16  c4.267,3.2,10.667,5.333,18.133,5.333c27.733,0,49.067-25.6,41.6-53.333C507.733,30.483,494.933,17.683,480,13.416z"/>
<g>
</g>
<g>
</g>
<g>
</g>
<g>
</g>
<g>
</g>
<g>
</g>
<g>
</g>
<g>
</g>
<g>
</g>
<g>
</g>
<g>
</g>
<g>
</g>
<g>
</g>
<g>
</g>
<g>
</g>
</svg>
