<?xml version="1.0" encoding="iso-8859-1"?>
<!-- Generator: Adobe Illustrator 19.0.0, SVG Export Plug-In . SVG Version: 6.00 Build 0)  -->
<svg xmlns="http://www.w3.org/2000/svg" xmlns:xlink="http://www.w3.org/1999/xlink" version="1.1" id="Layer_1" x="0px" y="0px" viewBox="0 0 512 512" style="enable-background:new 0 0 512 512;" xml:space="preserve">
<path style="fill:#CDD6E0;" d="M87.467,254.933c-2.133,0-4.267-1.067-6.4-3.2c-3.2-3.2-2.133-8.533,1.067-11.733l166.4-131.2  c3.2-3.2,8.533-2.133,11.733,1.067c3.2,3.2,2.133,8.533-1.067,11.733L92.8,253.867C90.667,254.933,89.6,254.933,87.467,254.933z"/>
<path style="fill:#ACB3BA;" d="M253.867,146.133c-19.2,0-34.133-16-34.133-34.133c0-5.333,4.267-9.6,9.6-9.6  c5.333,0,9.6,4.267,9.6,9.6c0,8.533,6.4,14.933,14.933,14.933S268.8,120.533,268.8,112s-6.4-16-14.933-16  c-5.333,0-9.6-4.267-9.6-9.6V68.267c0-5.333,4.267-9.6,9.6-9.6s9.6,4.267,9.6,9.6v9.6C277.333,82.133,288,94.933,288,110.933  C288,130.133,273.067,146.133,253.867,146.133z"/>
<polygon style="fill:#40596B;" points="295.467,40.533 280.533,69.333 226.133,69.333 211.2,40.533 226.133,0 280.533,0 "/>
<circle style="fill:#FFFFFF;" cx="253.867" cy="35.2" r="11.733"/>
<rect x="74.667" y="222.933" style="fill:#F1543F;" width="19.2" height="18.133"/>
<path style="fill:#CDD6E0;" d="M423.467,254.933c-2.133,0-3.2-1.067-5.333-2.133l-169.6-130.133c-3.2-3.2-4.267-7.467-1.067-11.733  c3.2-4.267,7.467-4.267,11.733-1.067l169.6,131.2c3.2,3.2,4.267,7.467,1.067,11.733C428.8,253.867,425.6,254.933,423.467,254.933z"/>
<rect x="418.133" y="222.933" style="fill:#F1543F;" width="19.2" height="18.133"/>
<rect y="241.067" style="fill:#FF7058;" width="512" height="270.933"/>
<rect id="SVGCleanerId_0" x="280.533" y="293.333" style="fill:#F1543F;" width="26.667" height="166.4"/>
<rect id="SVGCleanerId_1" x="204.8" y="293.333" style="fill:#F1543F;" width="26.667" height="166.4"/>
<g>
	<rect x="129.067" y="293.333" style="fill:#F1543F;" width="26.667" height="166.4"/>
	<rect x="53.333" y="293.333" style="fill:#F1543F;" width="26.667" height="166.4"/>
	<rect x="432" y="293.333" style="fill:#F1543F;" width="26.667" height="166.4"/>
	<rect x="356.267" y="293.333" style="fill:#F1543F;" width="26.667" height="166.4"/>
</g>
<g>
	<rect id="SVGCleanerId_0_1_" x="280.533" y="293.333" style="fill:#F1543F;" width="26.667" height="166.4"/>
</g>
<g>
	<rect id="SVGCleanerId_1_1_" x="204.8" y="293.333" style="fill:#F1543F;" width="26.667" height="166.4"/>
</g>
<g>
</g>
<g>
</g>
<g>
</g>
<g>
</g>
<g>
</g>
<g>
</g>
<g>
</g>
<g>
</g>
<g>
</g>
<g>
</g>
<g>
</g>
<g>
</g>
<g>
</g>
<g>
</g>
<g>
</g>
</svg>
