<?xml version="1.0" encoding="iso-8859-1"?>
<!-- Generator: Adobe Illustrator 19.0.0, SVG Export Plug-In . SVG Version: 6.00 Build 0)  -->
<svg xmlns="http://www.w3.org/2000/svg" xmlns:xlink="http://www.w3.org/1999/xlink" version="1.1" id="Layer_1" x="0px" y="0px" viewBox="0 0 513.067 513.067" style="enable-background:new 0 0 513.067 513.067;" xml:space="preserve">
<path style="fill:#FFD15C;" d="M257.067,145.6c-129.067,0-233.6,104.533-233.6,233.6h467.2  C490.667,250.133,386.133,145.6,257.067,145.6z"/>
<path style="fill:#F8B64C;" d="M198.4,360l-41.6-160c-8.533-30.933,36.267-96,100.267-96l0,0c64,0,108.8,65.067,100.267,96  l-41.6,160H198.4z"/>
<path style="fill:#FF7058;" d="M482.133,345.067H32c-17.067,0-32,13.867-32,32c0,18.133,13.867,32,32,32h449.067  c17.067,0,32-13.867,32-32C513.067,358.933,499.2,345.067,482.133,345.067z"/>
<g>
</g>
<g>
</g>
<g>
</g>
<g>
</g>
<g>
</g>
<g>
</g>
<g>
</g>
<g>
</g>
<g>
</g>
<g>
</g>
<g>
</g>
<g>
</g>
<g>
</g>
<g>
</g>
<g>
</g>
</svg>
