<?xml version="1.0" encoding="iso-8859-1"?>
<!-- Generator: Adobe Illustrator 19.0.0, SVG Export Plug-In . SVG Version: 6.00 Build 0)  -->
<svg xmlns="http://www.w3.org/2000/svg" xmlns:xlink="http://www.w3.org/1999/xlink" version="1.1" id="Layer_1" x="0px" y="0px" viewBox="0 0 510.933 510.933" style="enable-background:new 0 0 510.933 510.933;" xml:space="preserve">
<polygon style="fill:#40596B;" points="11.733,292.267 48,418.133 462.933,418.133 499.2,292.267 "/>
<path style="fill:#334A5E;" d="M327.467,256L327.467,256c-3.2,3.2-8.533,5.333-12.8,5.333h-240c-5.333,0-9.6-2.133-12.8-5.333l0,0  c-4.267-3.2-8.533-5.333-13.867-5.333H0l11.733,42.667H499.2l11.733-42.667H340.267C336,250.667,330.667,252.8,327.467,256z"/>
<rect x="77.867" y="200.533" style="fill:#FF7058;" width="117.333" height="61.867"/>
<rect x="195.2" y="200.533" style="fill:#F8B64C;" width="117.333" height="61.867"/>
<rect x="136.533" y="139.733" style="fill:#FFD15C;" width="117.333" height="61.867"/>
<rect x="364.8" y="177.067" style="fill:#FF7058;" width="117.333" height="73.6"/>
<rect x="395.733" y="107.733" style="fill:#F2F2F2;" width="55.467" height="69.333"/>
<path style="fill:#40596B;" d="M453.333,92.8h-60.8c-4.267,0-8.533,3.2-8.533,8.533l0,0c0,4.267,3.2,8.533,8.533,8.533h60.8  c4.267,0,8.533-3.2,8.533-8.533l0,0C460.8,96,457.6,92.8,453.333,92.8z"/>
<g>
	<circle style="fill:#84DBFF;" cx="385.067" cy="214.4" r="12.8"/>
	<circle style="fill:#84DBFF;" cx="423.467" cy="214.4" r="12.8"/>
	<circle style="fill:#84DBFF;" cx="461.867" cy="214.4" r="12.8"/>
</g>
<g>
</g>
<g>
</g>
<g>
</g>
<g>
</g>
<g>
</g>
<g>
</g>
<g>
</g>
<g>
</g>
<g>
</g>
<g>
</g>
<g>
</g>
<g>
</g>
<g>
</g>
<g>
</g>
<g>
</g>
</svg>
