<?xml version="1.0" encoding="iso-8859-1"?>
<!-- Generator: Adobe Illustrator 19.0.0, SVG Export Plug-In . SVG Version: 6.00 Build 0)  -->
<svg xmlns="http://www.w3.org/2000/svg" xmlns:xlink="http://www.w3.org/1999/xlink" version="1.1" id="Layer_1" x="0px" y="0px" viewBox="0 0 512 512" style="enable-background:new 0 0 512 512;" xml:space="preserve">
<rect x="10.667" y="41.6" style="fill:#40596B;" width="492.8" height="74.667"/>
<rect x="8.533" y="452.267" style="fill:#ACB3BA;" width="257.067" height="59.733"/>
<rect x="49.067" style="fill:#FF7058;" width="176" height="156.8"/>
<rect x="96" y="156.8" style="fill:#40596B;" width="83.2" height="294.4"/>
<g>
	<polygon style="fill:#334A5E;" points="96,305.067 96,378.667 137.6,341.333  "/>
	<polygon style="fill:#334A5E;" points="179.2,378.667 179.2,305.067 137.6,341.333  "/>
	<polygon style="fill:#334A5E;" points="96,156.8 96,230.4 137.6,194.133  "/>
	<polygon style="fill:#334A5E;" points="179.2,230.4 179.2,156.8 137.6,194.133  "/>
	<polygon style="fill:#334A5E;" points="179.2,378.667 96,378.667 137.6,414.933  "/>
	<polygon style="fill:#334A5E;" points="96,452.267 179.2,452.267 137.6,414.933  "/>
	<polygon style="fill:#334A5E;" points="179.2,230.4 96,230.4 137.6,267.733  "/>
	<polygon style="fill:#334A5E;" points="96,305.067 179.2,305.067 137.6,267.733  "/>
</g>
<g>
	<rect x="372.267" y="116.267" style="fill:#CDD6E0;" width="22.4" height="84.267"/>
	<path style="fill:#CDD6E0;" d="M451.2,281.6c-2.133,0-4.267-1.067-5.333-2.133l-62.933-62.933L320,279.467   c-3.2,3.2-8.533,3.2-11.733,0c-3.2-3.2-3.2-8.533,0-11.733l68.267-68.267c1.067-1.067,3.2-2.133,5.333-2.133l0,0   c2.133,0,4.267,1.067,5.333,2.133l68.267,68.267c3.2,3.2,3.2,8.533,0,11.733C455.467,280.533,453.333,281.6,451.2,281.6z"/>
</g>
<path style="fill:#FFD15C;" d="M492.8,265.6H274.133c-6.4,0-10.667,4.267-10.667,10.667v115.2c0,6.4,4.267,10.667,10.667,10.667  H492.8c6.4,0,10.667-4.267,10.667-10.667v-115.2C503.467,269.867,498.133,265.6,492.8,265.6z"/>
<circle style="fill:#ACB3BA;" cx="382.933" cy="218.667" r="23.467"/>
<g>
	<path style="fill:#F8B64C;" d="M442.667,298.667v70.4c0,7.467,6.4,12.8,12.8,12.8l0,0c7.467,0,12.8-6.4,12.8-12.8v-70.4   c0-7.467-6.4-12.8-12.8-12.8l0,0C448,285.867,442.667,291.2,442.667,298.667z"/>
	<path style="fill:#F8B64C;" d="M370.133,298.667v70.4c0,7.467,6.4,12.8,12.8,12.8l0,0c7.467,0,12.8-6.4,12.8-12.8v-70.4   c0-7.467-6.4-12.8-12.8-12.8l0,0C375.467,285.867,370.133,291.2,370.133,298.667z"/>
	<path style="fill:#F8B64C;" d="M297.6,298.667v70.4c0,7.467,6.4,12.8,12.8,12.8l0,0c7.467,0,12.8-6.4,12.8-12.8v-70.4   c0-7.467-6.4-12.8-12.8-12.8l0,0C304,285.867,297.6,291.2,297.6,298.667z"/>
</g>
<g>
</g>
<g>
</g>
<g>
</g>
<g>
</g>
<g>
</g>
<g>
</g>
<g>
</g>
<g>
</g>
<g>
</g>
<g>
</g>
<g>
</g>
<g>
</g>
<g>
</g>
<g>
</g>
<g>
</g>
</svg>
