<?xml version="1.0" encoding="iso-8859-1"?>
<!-- Generator: Adobe Illustrator 19.0.0, SVG Export Plug-In . SVG Version: 6.00 Build 0)  -->
<svg xmlns="http://www.w3.org/2000/svg" xmlns:xlink="http://www.w3.org/1999/xlink" version="1.1" id="Layer_1" x="0px" y="0px" viewBox="0 0 512 512" style="enable-background:new 0 0 512 512;" xml:space="preserve">
<path style="fill:#F2F2F2;" d="M291.733,36.267c0-1.067,0-1.067,0-2.133c0-10.667-8.533-19.2-19.2-19.2  c-5.333,0-10.667,2.133-13.867,6.4c-3.2-7.467-9.6-11.733-18.133-11.733c-5.333,0-10.667,2.133-13.867,6.4c-6.4-9.6-16-16-27.733-16  c-17.067,0-29.867,12.8-32,28.8c-4.267-4.267-10.667-7.467-18.133-7.467c-11.733,0-21.333,8.533-24.533,19.2  c-2.133-1.067-5.333-1.067-7.467-1.067c-10.667,0-19.2,8.533-19.2,19.2c0,7.467,4.267,14.933,11.733,18.133v27.733  c0,7.467,6.4,13.867,13.867,13.867s13.867-6.4,13.867-13.867v-9.6c3.2,1.067,6.4,2.133,9.6,2.133c10.667,0,19.2-6.4,23.467-14.933  C176.533,92.8,187.2,99.2,200,99.2c14.933,0,27.733-9.6,33.067-22.4c3.2,2.133,6.4,3.2,10.667,3.2  c5.333,0,10.667-2.133,14.933-5.333C262.933,86.4,273.6,96,286.4,96c16,0,29.867-13.867,29.867-29.867  C317.333,50.133,306.667,38.4,291.733,36.267z"/>
<g>
	<polygon style="fill:#FFD15C;" points="367.467,468.267 240.533,468.267 240.533,286.933 367.467,219.733  "/>
	<polygon style="fill:#FFD15C;" points="494.4,468.267 367.467,468.267 367.467,286.933 494.4,219.733  "/>
</g>
<polygon style="fill:#CDD6E0;" points="185.067,139.733 74.133,139.733 18.667,364.8 18.667,468.267 240.533,468.267 240.533,364.8   "/>
<rect x="18.667" y="411.733" style="fill:#ACB3BA;" width="221.867" height="57.6"/>
<g>
	<rect x="0.533" y="468.267" style="fill:#40596B;" width="510.933" height="43.733"/>
	<rect x="68.8" y="105.6" style="fill:#40596B;" width="120.533" height="33.067"/>
</g>
<g>
	<rect x="257.6" y="326.4" style="fill:#FF7058;" width="35.2" height="35.2"/>
	<rect x="315.2" y="326.4" style="fill:#FF7058;" width="35.2" height="35.2"/>
	<rect x="384.533" y="326.4" style="fill:#FF7058;" width="35.2" height="35.2"/>
	<rect x="442.133" y="326.4" style="fill:#FF7058;" width="35.2" height="35.2"/>
</g>
<polygon style="fill:#BDCCDB;" points="189.333,155.733 185.067,139.733 74.133,139.733 69.867,155.733 "/>
<g>
</g>
<g>
</g>
<g>
</g>
<g>
</g>
<g>
</g>
<g>
</g>
<g>
</g>
<g>
</g>
<g>
</g>
<g>
</g>
<g>
</g>
<g>
</g>
<g>
</g>
<g>
</g>
<g>
</g>
</svg>
