<?xml version="1.0" encoding="iso-8859-1"?>
<!-- Generator: Adobe Illustrator 19.0.0, SVG Export Plug-In . SVG Version: 6.00 Build 0)  -->
<svg xmlns="http://www.w3.org/2000/svg" xmlns:xlink="http://www.w3.org/1999/xlink" version="1.1" id="Layer_1" x="0px" y="0px" viewBox="0 0 510.251 510.251" style="enable-background:new 0 0 510.251 510.251;" xml:space="preserve">
<path style="fill:#40596B;" d="M258.518,125.839l-10.667,3.2l14.933,51.2l10.667-3.2c5.333-2.133,8.533-7.467,7.467-12.8  l-8.533-30.933C270.251,126.906,263.851,123.706,258.518,125.839z"/>
<path style="fill:#FF7058;" d="M97.451,175.973c0,0,22.4-30.933,29.867-44.8c3.2-6.4,7.467-11.733,12.8-16  c6.4-4.267,14.933-8.533,25.6-9.6l34.133-7.467c7.467-2.133,14.933,0,21.333,4.267c6.4,4.267,10.667,11.733,22.4,12.8  c4.267,0,8.533,3.2,9.6,7.467l3.2,10.667l-66.133,25.6L97.451,175.973z"/>
<path style="fill:#CDD6E0;" d="M4.651,346.639l23.467,12.8l75.733-107.733l-37.333-16l-66.133,99.2  C-0.682,338.106,0.385,344.506,4.651,346.639z"/>
<path style="fill:#ACB3BA;" d="M67.585,235.706l-4.267-4.267c0,0,5.333-44.8,34.133-55.467c0,0,75.733-57.6,156.8-49.067l16,52.267  c0,0-18.133,2.133-17.067,16l-8.533,65.067c0,0-1.067,24.533-18.133,34.133l-92.8-50.133c-9.6-5.333-22.4-2.133-28.8,7.467l0,0  L67.585,235.706z"/>
<path style="fill:#334A5E;" d="M174.251,265.573c-3.2,9.6,5.333,23.467,5.333,23.467h-7.467  c-18.133-1.067-33.067,12.8-36.267,29.867l-6.4,44.8c-1.067,8.533-11.733,11.733-18.133,6.4l-43.733-44.8  c-3.2-3.2-7.467-2.133-9.6,1.067l-1.067,2.133l-4.267-3.2l-24.533,34.133c5.333,6.4,11.733,11.733,19.2,16l66.133,33.067  c19.2,9.6,42.667,3.2,54.4-13.867l37.333-55.467c6.4-9.6,10.667-20.267,12.8-30.933c1.067-5.333,3.2-11.733,7.467-14.933  L174.251,265.573z M165.718,361.573c-21.333,33.067-26.667,23.467-26.667,23.467l7.467-43.733c3.2-48,26.667-39.467,26.667-39.467  s7.467-2.133,17.067,9.6C198.785,322.106,165.718,361.573,165.718,361.573z"/>
<path style="fill:#F2F2F2;" d="M447.318,104.506c-88.533-13.867-157.867,18.133-176,27.733l8.533,30.933  c1.067,0,2.133-1.067,2.133-1.067c1.067,0,70.4-40.533,160-26.667c9.6,1.067,18.133-5.333,18.133-16l0,0  C461.185,111.973,455.851,105.573,447.318,104.506z"/>
<path style="fill:#ACB3BA;" d="M281.985,119.439c-4.267,1.067-7.467,6.4-6.4,10.667l8.533,28.8c1.067,4.267,6.4,7.467,10.667,6.4  c4.267-1.067,7.467-6.4,6.4-10.667l-8.533-28.8C290.518,120.506,286.251,117.306,281.985,119.439z"/>
<path style="fill:#FF7058;" d="M510.251,241.04c0,28.8-23.467,52.267-52.267,52.267s-52.267-23.467-52.267-52.267  s52.267-93.867,52.267-93.867S510.251,212.239,510.251,241.04z"/>
<g>
</g>
<g>
</g>
<g>
</g>
<g>
</g>
<g>
</g>
<g>
</g>
<g>
</g>
<g>
</g>
<g>
</g>
<g>
</g>
<g>
</g>
<g>
</g>
<g>
</g>
<g>
</g>
<g>
</g>
</svg>
