<?xml version="1.0" encoding="iso-8859-1"?>
<!-- Generator: Adobe Illustrator 19.0.0, SVG Export Plug-In . SVG Version: 6.00 Build 0)  -->
<svg xmlns="http://www.w3.org/2000/svg" xmlns:xlink="http://www.w3.org/1999/xlink" version="1.1" id="Layer_1" x="0px" y="0px" viewBox="0 0 509.926 509.926" style="enable-background:new 0 0 509.926 509.926;" xml:space="preserve">
<path style="fill:#FFD15C;" d="M188.146,0.059h142.933c0,0,39.467-1.067,81.067,94.933l52.267-30.933l-62.933,123.733  l-138.667-7.467l51.2-29.867l-55.467-93.867l-70.4-49.067L188.146,0.059L188.146,0.059z"/>
<path style="fill:#F8B64C;" d="M111.346,85.392l98.133,57.6l49.067-86.4c0,0-23.467-56.533-70.4-56.533  C188.146,0.059,154.013-5.274,111.346,85.392z"/>
<path style="fill:#FFD15C;" d="M502.813,305.126l-72.533,122.667c0,0-19.2,34.133-122.667,21.333v60.8l-74.667-116.267l76.8-115.2  l-1.067,59.733h108.8l77.867-36.267L502.813,305.126z"/>
<path style="fill:#F8B64C;" d="M468.679,195.259l-99.2,55.467l50.133,86.4c0,0,60.8,8.533,84.267-32  C502.813,305.126,525.213,278.459,468.679,195.259z"/>
<path style="fill:#FFD15C;" d="M90.013,425.659l-73.6-122.667c0,0-21.333-33.067,39.467-117.333l-53.333-28.8l138.667-9.6  l65.067,122.667l-52.267-28.8l-52.267,96l-5.333,85.333L90.013,425.659z"/>
<path style="fill:#F8B64C;" d="M203.079,448.059l-1.067-114.133l-99.2,2.133c0,0-37.333,49.067-12.8,89.6  C90.013,425.659,102.813,457.659,203.079,448.059z"/>
<g>
</g>
<g>
</g>
<g>
</g>
<g>
</g>
<g>
</g>
<g>
</g>
<g>
</g>
<g>
</g>
<g>
</g>
<g>
</g>
<g>
</g>
<g>
</g>
<g>
</g>
<g>
</g>
<g>
</g>
</svg>
