<?xml version="1.0" encoding="iso-8859-1"?>
<!-- Generator: Adobe Illustrator 19.0.0, SVG Export Plug-In . SVG Version: 6.00 Build 0)  -->
<svg xmlns="http://www.w3.org/2000/svg" xmlns:xlink="http://www.w3.org/1999/xlink" version="1.1" id="Layer_1" x="0px" y="0px" viewBox="0 0 513.067 513.067" style="enable-background:new 0 0 513.067 513.067;" xml:space="preserve">
<rect x="75.2" y="43.733" style="fill:#40596B;" width="362.667" height="424.533"/>
<rect x="331.2" y="43.733" style="fill:#334A5E;" width="77.867" height="424.533"/>
<g>
	<path style="fill:#ACB3BA;" d="M73.067,43.733H440c11.733,0,22.4-9.6,22.4-22.4S451.733,0,440,0H73.067   c-11.733,0-22.4,9.6-22.4,22.4S61.333,43.733,73.067,43.733z"/>
	<path style="fill:#ACB3BA;" d="M440,233.6H73.067c-11.733,0-22.4,9.6-22.4,22.4c0,12.8,9.6,22.4,22.4,22.4H440   c11.733,0,22.4-9.6,22.4-22.4C462.4,243.2,451.733,233.6,440,233.6z"/>
	<path style="fill:#ACB3BA;" d="M440,468.267H73.067c-11.733,0-22.4,9.6-22.4,22.4c0,11.733,9.6,22.4,22.4,22.4H440   c11.733,0,22.4-9.6,22.4-22.4C462.4,477.867,451.733,468.267,440,468.267z"/>
</g>
<path style="fill:#FF7058;" d="M309.867,157.867c0,28.8-23.467,53.333-53.333,53.333S203.2,187.733,203.2,157.867  s53.333-91.733,53.333-91.733S309.867,129.067,309.867,157.867z"/>
<path style="fill:#F2F2F2;" d="M259.733,200.533c-23.467,0-42.667-19.2-42.667-42.667c0-2.133,2.133-4.267,4.267-4.267  c2.133,0,4.267,2.133,4.267,4.267c0,19.2,16,35.2,35.2,35.2c2.133,0,4.267,2.133,4.267,4.267  C265.067,199.467,261.867,200.533,259.733,200.533z"/>
<g>
</g>
<g>
</g>
<g>
</g>
<g>
</g>
<g>
</g>
<g>
</g>
<g>
</g>
<g>
</g>
<g>
</g>
<g>
</g>
<g>
</g>
<g>
</g>
<g>
</g>
<g>
</g>
<g>
</g>
</svg>
