<?xml version="1.0" encoding="iso-8859-1"?>
<!-- Generator: Adobe Illustrator 19.0.0, SVG Export Plug-In . SVG Version: 6.00 Build 0)  -->
<svg xmlns="http://www.w3.org/2000/svg" xmlns:xlink="http://www.w3.org/1999/xlink" version="1.1" id="Layer_1" x="0px" y="0px" viewBox="0 0 510.933 510.933" style="enable-background:new 0 0 510.933 510.933;" xml:space="preserve">
<path style="fill:#FF7058;" d="M387.2,55.6l-80,85.333H496L416,55.6C407.467,48.133,394.667,48.133,387.2,55.6z"/>
<polygon style="fill:#F2F2F2;" points="221.867,313.733 221.867,140.933 76.8,140.933 12.8,256.133 12.8,313.733 "/>
<polygon style="fill:#54C0EB;" points="190.933,254 190.933,170.8 94.933,170.8 49.067,254 "/>
<path style="fill:#CDD6E0;" d="M494.933,308.4H12.8v76.8c0,11.733,9.6,21.333,21.333,21.333H473.6  c11.733,0,21.333-9.6,21.333-21.333V308.4z"/>
<path id="SVGCleanerId_0" style="fill:#F2F2F2;" d="M494.933,308.4v74.667c0,12.8-10.667,23.467-23.467,23.467h-435.2  c-12.8,0-23.467-10.667-23.467-23.467V308.4H494.933z"/>
<g>
	<path id="SVGCleanerId_0_1_" style="fill:#F2F2F2;" d="M494.933,308.4v74.667c0,12.8-10.667,23.467-23.467,23.467h-435.2   c-12.8,0-23.467-10.667-23.467-23.467V308.4H494.933z"/>
</g>
<g>
	<path style="fill:#E4EAEF;" d="M169.6,391.6c-6.4-28.8-32-51.2-62.933-51.2s-56.533,21.333-62.933,50.133H169.6V391.6z"/>
	<path style="fill:#E4EAEF;" d="M468.267,391.6c-6.4-28.8-33.067-50.133-62.933-50.133S348.8,362.8,342.4,391.6H468.267z"/>
</g>
<g>
	<polygon style="fill:#84DBFF;" points="86.4,254 132.267,170.8 120.533,170.8 75.733,254  "/>
	<polygon style="fill:#84DBFF;" points="114.133,254 158.933,170.8 140.8,170.8 96,254  "/>
</g>
<path style="fill:#CDD6E0;" d="M185.6,286h-36.267c-3.2,0-5.333-2.133-5.333-5.333V279.6c0-3.2,2.133-5.333,5.333-5.333H185.6  c3.2,0,5.333,2.133,5.333,5.333v1.067C190.933,282.8,188.8,286,185.6,286z"/>
<polygon style="fill:#FFD15C;" points="285.867,136.667 285.867,97.2 158.933,97.2 158.933,130.267 220.8,130.267 220.8,308.4   446.933,308.4 510.933,169.733 510.933,136.667 "/>
<polygon style="fill:#F8B64C;" points="263.467,265.733 263.467,179.333 459.733,179.333 419.2,265.733 "/>
<path style="fill:#FF7058;" d="M494.933,383.067H76.8H49.067H11.733C5.333,383.067,0,388.4,0,394.8  c0,6.4,5.333,11.733,11.733,11.733H48h27.733h418.133c6.4,0,11.733-5.333,11.733-11.733  C505.6,388.4,501.333,383.067,494.933,383.067z"/>
<circle style="fill:#40596B;" cx="106.667" cy="406.533" r="54.4"/>
<circle style="fill:#F2F2F2;" cx="106.667" cy="406.533" r="22.4"/>
<circle style="fill:#40596B;" cx="404.267" cy="406.533" r="54.4"/>
<circle style="fill:#F2F2F2;" cx="404.267" cy="406.533" r="22.4"/>
<g>
</g>
<g>
</g>
<g>
</g>
<g>
</g>
<g>
</g>
<g>
</g>
<g>
</g>
<g>
</g>
<g>
</g>
<g>
</g>
<g>
</g>
<g>
</g>
<g>
</g>
<g>
</g>
<g>
</g>
</svg>
