<?xml version="1.0" encoding="iso-8859-1"?>
<!-- Generator: Adobe Illustrator 19.0.0, SVG Export Plug-In . SVG Version: 6.00 Build 0)  -->
<svg xmlns="http://www.w3.org/2000/svg" xmlns:xlink="http://www.w3.org/1999/xlink" version="1.1" id="Layer_1" x="0px" y="0px" viewBox="0 0 509.867 509.867" style="enable-background:new 0 0 509.867 509.867;" xml:space="preserve">
<path style="fill:#FFD15C;" d="M183.467,314.667V156.8H115.2c-42.667,0-81.067,26.667-96,66.133l0,0  c-4.267,11.733-6.4,24.533-6.4,37.333v54.4H183.467z"/>
<path style="fill:#54C0EB;" d="M162.133,270.933v-92.8H115.2c-34.133,0-64,21.333-76.8,52.267c-3.2,9.6-5.333,19.2-5.333,29.867  v10.667L162.133,270.933L162.133,270.933z"/>
<path style="fill:#CDD6E0;" d="M494.933,297.6h-483.2v66.133c0,11.733,9.6,21.333,21.333,21.333h439.467  c11.733,0,21.333-9.6,21.333-21.333V297.6H494.933z"/>
<path style="fill:#F2F2F2;" d="M494.933,297.6v64c0,12.8-10.667,23.467-23.467,23.467H35.2c-12.8,0-23.467-10.667-23.467-23.467v-64  H494.933z"/>
<path style="fill:#FFD15C;" d="M494.933,297.6v64c0,12.8-10.667,23.467-23.467,23.467H35.2c-12.8,0-23.467-10.667-23.467-23.467v-64  H494.933z"/>
<g>
	<path style="fill:#FCC751;" d="M169.6,370.133c-6.4-28.8-33.067-50.133-62.933-50.133s-56.533,21.333-62.933,50.133H169.6z"/>
	<path style="fill:#FCC751;" d="M467.2,370.133c-6.4-28.8-33.067-50.133-62.933-50.133c-29.867,0-56.533,21.333-62.933,50.133H467.2   z"/>
</g>
<g>
	<path style="fill:#84DBFF;" d="M121.6,178.133l-50.133,92.8h-12.8l50.133-92.8c2.133,0,4.267,0,7.467,0H121.6z"/>
	<polygon style="fill:#84DBFF;" points="155.733,178.133 105.6,270.933 82.133,270.933 132.267,178.133  "/>
</g>
<path style="fill:#FF7058;" d="M494.933,361.6h-419.2H48H11.733C5.333,361.6,0,366.933,0,373.333s5.333,11.733,11.733,11.733H48  h27.733h418.133c6.4,0,11.733-5.333,11.733-11.733S501.333,361.6,494.933,361.6z"/>
<circle style="fill:#40596B;" cx="105.6" cy="385.067" r="54.4"/>
<circle style="fill:#F2F2F2;" cx="105.6" cy="385.067" r="22.4"/>
<circle style="fill:#40596B;" cx="404.267" cy="385.067" r="54.4"/>
<circle style="fill:#F2F2F2;" cx="404.267" cy="385.067" r="22.4"/>
<path style="fill:#40596B;" d="M488.533,70.4H204.8c-11.733,0-21.333,9.6-21.333,21.333V297.6h326.4V91.733  C509.867,80,500.267,70.4,488.533,70.4z"/>
<g>
	<path style="fill:#F2F2F2;" d="M339.2,147.2c1.067-2.133,2.133-4.267,4.267-4.267c3.2-2.133,7.467-1.067,10.667,1.067   c6.4,6.4,12.8,19.2,12.8,19.2l-7.467,6.4l25.6,7.467l8.533-28.8l-9.6,4.267c-2.133-6.4-7.467-14.933-11.733-19.2   c-4.267-5.333-9.6-9.6-16-11.733c-2.133-1.067-5.333-1.067-8.533-1.067c-4.267,0-8.533,2.133-11.733,3.2   c-4.267,2.133-7.467,6.4-10.667,10.667l-10.667,16l17.067,9.6L339.2,147.2z"/>
	<path style="fill:#F2F2F2;" d="M408.533,210.133c0-5.333-1.067-9.6-4.267-13.867l-9.6-17.067l-17.067,9.6l7.467,13.867   c1.067,2.133,2.133,4.267,2.133,5.333c0,4.267-2.133,7.467-6.4,8.533c-8.533,3.2-22.4,1.067-22.4,1.067l-1.067-9.6l-19.2,18.133   l20.267,21.333l1.067-10.667c6.4,1.067,16,0,22.4,0c6.4-1.067,12.8-3.2,17.067-8.533c2.133-2.133,3.2-4.267,5.333-6.4   C408.533,217.6,408.533,213.333,408.533,210.133z"/>
	<path style="fill:#F2F2F2;" d="M315.733,217.6c-2.133,0-4.267,0-6.4-1.067c-3.2-2.133-5.333-6.4-4.267-9.6   c2.133-8.533,9.6-20.267,9.6-20.267l8.533,3.2l-6.4-25.6l-28.8,7.467l8.533,6.4c-4.267,5.333-8.533,13.867-10.667,19.2   c-2.133,6.4-3.2,12.8-1.067,19.2c1.067,2.133,2.133,5.333,3.2,7.467c2.133,4.267,6.4,6.4,9.6,8.533c4.267,2.133,9.6,3.2,13.867,3.2   h19.2l-1.067-19.2L315.733,217.6z"/>
</g>
<g>
</g>
<g>
</g>
<g>
</g>
<g>
</g>
<g>
</g>
<g>
</g>
<g>
</g>
<g>
</g>
<g>
</g>
<g>
</g>
<g>
</g>
<g>
</g>
<g>
</g>
<g>
</g>
<g>
</g>
</svg>
