<?xml version="1.0" encoding="iso-8859-1"?>
<!-- Generator: Adobe Illustrator 19.0.0, SVG Export Plug-In . SVG Version: 6.00 Build 0)  -->
<svg xmlns="http://www.w3.org/2000/svg" xmlns:xlink="http://www.w3.org/1999/xlink" version="1.1" id="Layer_1" x="0px" y="0px" viewBox="0 0 510.933 510.933" style="enable-background:new 0 0 510.933 510.933;" xml:space="preserve">
<path style="fill:#F1543F;" d="M323.2,213.333h-82.133v-49.067c0-6.4,4.267-10.667,10.667-10.667h60.8  c6.4,0,10.667,4.267,10.667,10.667V213.333z"/>
<rect x="259.2" y="108.8" style="fill:#FFD15C;" width="46.933" height="44.8"/>
<rect x="259.2" y="108.8" style="fill:#F8B64C;" width="46.933" height="5.333"/>
<g>
	<rect x="231.467" y="117.333" style="fill:#CDD6E0;" width="27.733" height="27.733"/>
	<rect x="211.2" y="101.333" style="fill:#CDD6E0;" width="28.8" height="59.733"/>
</g>
<polygon style="fill:#F2F2F2;" points="75.733,48 211.2,108.8 211.2,153.6 75.733,214.4 "/>
<path style="fill:#40596B;" d="M419.2,32L314.667,57.6v52.267H259.2c-6.4,0-11.733-5.333-11.733-11.733v-44.8  c0-8.533,6.4-16,14.933-17.067L411.733,0c1.067,0,2.133,0,3.2,0c7.467,0,13.867,5.333,16,12.8  C433.067,21.333,427.733,29.867,419.2,32z"/>
<path style="fill:#334A5E;" d="M314.667,76.8v32H419.2c8.533,0,16-7.467,16-16l0,0c0-8.533-7.467-16-16-16H314.667z"/>
<circle style="fill:#CDD6E0;" cx="282.667" cy="73.6" r="12.8"/>
<path style="fill:#FF7058;" d="M292.267,192h-19.2c-24.533,0-49.067,9.6-66.133,27.733l0,0  c-18.133,18.133-27.733,41.6-27.733,66.133v188.8c0,20.267,16,36.267,36.267,36.267h134.4c20.267,0,36.267-16,36.267-36.267v-188.8  c0-24.533-9.6-49.067-27.733-66.133l0,0C341.333,201.6,316.8,192,292.267,192z"/>
<g>
	<ellipse style="fill:#FFD15C;" cx="282.667" cy="352" rx="41.6" ry="69.333"/>
	<rect x="193.067" y="317.867" style="fill:#FFD15C;" width="179.2" height="69.333"/>
</g>
<g>
</g>
<g>
</g>
<g>
</g>
<g>
</g>
<g>
</g>
<g>
</g>
<g>
</g>
<g>
</g>
<g>
</g>
<g>
</g>
<g>
</g>
<g>
</g>
<g>
</g>
<g>
</g>
<g>
</g>
</svg>
