<?xml version="1.0" encoding="iso-8859-1"?>
<!-- Generator: Adobe Illustrator 19.0.0, SVG Export Plug-In . SVG Version: 6.00 Build 0)  -->
<svg xmlns="http://www.w3.org/2000/svg" xmlns:xlink="http://www.w3.org/1999/xlink" version="1.1" id="Layer_1" x="0px" y="0px" viewBox="0 0 511.087 511.087" style="enable-background:new 0 0 511.087 511.087;" xml:space="preserve">
<g>
	
		<rect x="210.019" y="150.713" transform="matrix(-0.7973 0.6036 -0.6036 -0.7973 574.3929 195.9923)" style="fill:#F2F2F2;" width="88.534" height="87.468"/>
	
		<rect x="32.445" y="141.69" transform="matrix(-0.7973 0.6036 -0.6036 -0.7973 264.6034 331.0507)" style="fill:#F2F2F2;" width="88.534" height="136.535"/>
</g>
<path style="fill:#CDD6E0;" d="M184.748,195.467c-20.267,2.133-33.067,12.8-40.533,30.933l-66.133-87.467  c20.267-2.133,33.067-12.8,40.533-30.933L184.748,195.467z"/>
<path style="fill:#F2F2F2;" d="M199.681,30.134L199.681,30.134l-89.6,67.2l74.667,98.133l89.6-67.2  c0,0,37.333-71.467,106.667-61.867l38.4-28.8C280.748-42.4,199.681,30.134,199.681,30.134z"/>
<path style="fill:#40596B;" d="M482.348,496.267L482.348,496.267c-33.067,25.6-81.067,17.067-103.467-18.133l-142.933-214.4  l89.6-67.2l167.467,195.2C520.748,422.667,515.414,470.667,482.348,496.267z"/>
<polygon style="fill:#FFD15C;" points="358.614,234.934 325.548,195.467 235.948,263.734 264.748,306.4 "/>
<g>
</g>
<g>
</g>
<g>
</g>
<g>
</g>
<g>
</g>
<g>
</g>
<g>
</g>
<g>
</g>
<g>
</g>
<g>
</g>
<g>
</g>
<g>
</g>
<g>
</g>
<g>
</g>
<g>
</g>
</svg>
