<?xml version="1.0" encoding="iso-8859-1"?>
<!-- Generator: Adobe Illustrator 19.0.0, SVG Export Plug-In . SVG Version: 6.00 Build 0)  -->
<svg xmlns="http://www.w3.org/2000/svg" xmlns:xlink="http://www.w3.org/1999/xlink" version="1.1" id="Layer_1" x="0px" y="0px" viewBox="0 0 512 512" style="enable-background:new 0 0 512 512;" xml:space="preserve">
<path style="fill:#F2F2F2;" d="M403.2,108.8c10.667-7.467,17.067-20.267,14.933-35.2C416,60.8,406.4,50.133,394.667,46.933  c-10.667-3.2-20.267-2.133-27.733,3.2c-1.067-18.133-16-33.067-35.2-33.067c-6.4,0-12.8,2.133-18.133,5.333  c-6.4-7.467-16-11.733-25.6-11.733c-6.4,0-11.733,2.133-17.067,4.267C264.533,5.333,254.933,0,243.2,0  c-10.667,0-20.267,5.333-26.667,12.8c-7.467-6.4-18.133-8.533-29.867-6.4c-12.8,3.2-22.4,13.867-25.6,25.6  c-3.2,13.867,2.133,26.667,11.733,35.2c0,1.067,0,2.133,0,3.2c0,19.2,16,35.2,35.2,35.2c9.6,0,17.067-3.2,23.467-9.6  c4.267,14.933,17.067,25.6,33.067,25.6c11.733,0,22.4-6.4,28.8-14.933c6.4,9.6,17.067,14.933,28.8,14.933c3.2,0,6.4,0,9.6-1.067  c0,1.067,0,1.067,0,2.133c0,11.733,11.733,21.333,26.667,23.467c3.2,17.067,19.2,28.8,38.4,25.6C409.6,169.6,419.2,160,422.4,147.2  C425.6,130.133,416,115.2,403.2,108.8z"/>
<g>
	<polygon style="fill:#CDD6E0;" points="150.4,204.8 25.6,249.6 25.6,314.667 150.4,314.667  "/>
	<polygon style="fill:#CDD6E0;" points="276.267,204.8 150.4,249.6 150.4,314.667 276.267,314.667  "/>
</g>
<rect x="25.6" y="314.667" style="fill:#F2F2F2;" width="249.6" height="140.8"/>
<rect y="456.533" style="fill:#ACB3BA;" width="512" height="55.467"/>
<polygon style="fill:#FF7058;" points="464,136.533 298.667,136.533 276.267,328.533 276.267,456.533 486.4,456.533 486.4,328.533   "/>
<g>
	<rect x="45.867" y="325.333" style="fill:#84DBFF;" width="27.733" height="27.733"/>
	<rect x="102.4" y="325.333" style="fill:#84DBFF;" width="27.733" height="27.733"/>
	<rect x="45.867" y="365.867" style="fill:#84DBFF;" width="27.733" height="27.733"/>
	<rect x="102.4" y="365.867" style="fill:#84DBFF;" width="27.733" height="27.733"/>
	<rect x="170.667" y="325.333" style="fill:#84DBFF;" width="27.733" height="27.733"/>
	<rect x="228.267" y="325.333" style="fill:#84DBFF;" width="27.733" height="27.733"/>
	<rect x="170.667" y="365.867" style="fill:#84DBFF;" width="27.733" height="27.733"/>
	<rect x="228.267" y="365.867" style="fill:#84DBFF;" width="27.733" height="27.733"/>
</g>
<path style="fill:#F1543F;" d="M465.067,128H296.533c-5.333,0-8.533,4.267-8.533,8.533l0,0c0,5.333,4.267,8.533,8.533,8.533h168.533  c5.333,0,8.533-4.267,8.533-8.533l0,0C473.6,132.267,469.333,128,465.067,128z"/>
<g>
</g>
<g>
</g>
<g>
</g>
<g>
</g>
<g>
</g>
<g>
</g>
<g>
</g>
<g>
</g>
<g>
</g>
<g>
</g>
<g>
</g>
<g>
</g>
<g>
</g>
<g>
</g>
<g>
</g>
</svg>
