<?xml version="1.0" encoding="iso-8859-1"?>
<!-- Generator: Adobe Illustrator 19.0.0, SVG Export Plug-In . SVG Version: 6.00 Build 0)  -->
<svg xmlns="http://www.w3.org/2000/svg" xmlns:xlink="http://www.w3.org/1999/xlink" version="1.1" id="Layer_1" x="0px" y="0px" viewBox="0 0 512.04 512.04" style="enable-background:new 0 0 512.04 512.04;" xml:space="preserve">
<path style="fill:#ACB3BA;" d="M355.943,488.553H155.41v-17.067c0-21.333,17.067-38.4,38.4-38.4h122.667  c21.333,0,38.4,17.067,38.4,38.4v17.067H355.943z"/>
<rect x="215.143" y="321.087" style="fill:#40596B;" width="81.067" height="112"/>
<rect x="215.143" y="346.687" style="fill:#334A5E;" width="81.067" height="16"/>
<path style="fill:#F2F2F2;" d="M494.61,346.687H16.743c-11.733,0-19.2-10.667-16-24.533l60.8-284.8  c2.133-7.467,9.6-13.867,19.2-13.867h350.933c8.533,0,17.067,6.4,19.2,13.867l60.8,284.8  C513.81,334.953,506.343,346.687,494.61,346.687z"/>
<g>
	<polygon style="fill:#54C0EB;" points="152.21,43.753 83.943,43.753 73.277,102.42 144.743,102.42  "/>
	<polygon style="fill:#54C0EB;" points="243.943,43.753 175.677,43.753 171.41,102.42 242.877,102.42  "/>
	<polygon style="fill:#54C0EB;" points="339.943,102.42 335.677,43.753 267.41,43.753 268.477,102.42  "/>
	<path style="fill:#54C0EB;" d="M427.41,43.753h-67.2l6.4,57.6h8.533c19.2-5.333,39.467-9.6,59.733-12.8L427.41,43.753z"/>
</g>
<path style="fill:#84DBFF;" d="M435.943,89.62c-20.267,3.2-40.533,7.467-59.733,12.8h62.933L435.943,89.62z"/>
<polygon style="fill:#54C0EB;" points="142.61,126.953 69.01,126.953 56.21,196.287 134.077,196.287 "/>
<path style="fill:#84DBFF;" d="M241.81,196.287l1.067-42.667c-25.6,13.867-50.133,27.733-71.467,42.667H241.81z"/>
<g>
	<path style="fill:#54C0EB;" d="M169.277,126.953l-6.4,69.333h7.467c21.333-14.933,45.867-28.8,71.467-42.667v-26.667H169.277z"/>
	<path style="fill:#54C0EB;" d="M269.543,126.953v13.867c10.667-5.333,21.333-9.6,32-13.867H269.543z"/>
</g>
<g>
	<path style="fill:#84DBFF;" d="M348.477,196.287l-6.4-69.333h-40.533c-10.667,4.267-21.333,8.533-32,13.867l1.067,55.467H348.477z"/>
	<polygon style="fill:#84DBFF;" points="442.343,126.953 368.743,126.953 377.277,196.287 455.143,196.287  "/>
	<path style="fill:#84DBFF;" d="M34.877,310.42h86.4l9.6-84.267h-2.133C81.81,261.353,49.81,293.353,34.877,310.42z"/>
</g>
<path style="fill:#54C0EB;" d="M34.877,310.42L34.877,310.42c16-16,48-49.067,94.933-84.267h-80L34.877,310.42z"/>
<g>
	<polygon style="fill:#84DBFF;" points="153.277,310.42 239.677,310.42 240.743,225.087 160.743,225.087  "/>
	<polygon style="fill:#84DBFF;" points="270.61,225.087 271.677,310.42 358.077,310.42 350.61,225.087  "/>
	<polygon style="fill:#84DBFF;" points="380.477,225.087 390.077,310.42 476.477,310.42 461.543,225.087  "/>
</g>
<g>
</g>
<g>
</g>
<g>
</g>
<g>
</g>
<g>
</g>
<g>
</g>
<g>
</g>
<g>
</g>
<g>
</g>
<g>
</g>
<g>
</g>
<g>
</g>
<g>
</g>
<g>
</g>
<g>
</g>
</svg>
